<?xml version="1.0" encoding="UTF-8"?>
<svg width="24px" height="24px" viewBox="0 0 24 24" version="1.1" xmlns="http://www.w3.org/2000/svg" xmlns:xlink="http://www.w3.org/1999/xlink">
    <title>4129B07F-35C6-F10D-CF85-D31F68E31800</title>
    <g id="💎-Components" stroke="none" stroke-width="1" fill="none" fill-rule="evenodd">
        <g id="Icons/Grid" transform="translate(-1760.000000, -1303.000000)">
            <g id="24dp" transform="translate(62.000000, 1263.000000)">
                <g id="Black" transform="translate(954.000000, 0.000000)">
                    <g id="Icon-/-24-/-Black" transform="translate(40.000000, 40.000000)">
                        <g id="Icons-/-24-/-ic_cubelist_black" transform="translate(704.000000, 0.000000)">
                            <rect id="Rectangle" x="0" y="0" width="24" height="24"></rect>
                            <path d="M1.5,3 C1.5,3.55228472 1.94771487,4 2.5,4 L19.5,4 C20.0522842,4 20.5,3.55228472 20.5,3 C20.5,2.44771528 20.0522842,2 19.5,2 L2.5,2 C1.94771528,2 1.5,2.44771528 1.5,3 Z M1.5,11 C1.5,11.5522852 1.94771487,12 2.5,12 L19.5,12 C20.0522842,12 20.5,11.5522852 20.5,11 C20.5,10.4477148 20.0522842,10 19.5,10 L2.5,10 C1.94771528,10 1.5,10.4477148 1.5,11 Z M2.5,18 L11.5,18 C12.0522852,18 12.5,18.4477158 12.5,19 C12.5,19.5522842 12.0522842,20 11.5,20 L2.5,20 C1.94771498,20 1.5,19.5522842 1.5,19 C1.5,18.4477158 1.94771528,18 2.5,18 Z M22.5,19.5 L17.25,16.4689112 L17.25,22.5310879 L22.5,19.5 Z" id="Union" fill="#000000"></path>
                        </g>
                    </g>
                </g>
            </g>
        </g>
    </g>
</svg>