<?xml version="1.0" encoding="UTF-8"?>
<svg width="24px" height="24px" viewBox="0 0 24 24" version="1.1" xmlns="http://www.w3.org/2000/svg" xmlns:xlink="http://www.w3.org/1999/xlink">
    <title>9083C66B-E464-4091-E556-AA6C69E2DA58</title>
    <defs>
        <rect id="path-1" x="0" y="0" width="24" height="24"></rect>
    </defs>
    <g id="💎-Components" stroke="none" stroke-width="1" fill="none" fill-rule="evenodd">
        <g id="Icons/Grid" transform="translate(-1364.000000, -1303.000000)">
            <g id="24dp" transform="translate(62.000000, 1263.000000)">
                <g id="Black" transform="translate(954.000000, 0.000000)">
                    <g id="Icon-/-24-/-Black" transform="translate(40.000000, 40.000000)">
                        <g id="Icons-/-24-/-ic_information_grey05" transform="translate(308.000000, 0.000000)">
                            <mask id="mask-2" fill="white">
                                <use xlink:href="#path-1"></use>
                            </mask>
                            <g id="Icons-/-24-/-ic_information_grey05-(Background/Mask)"></g>
                            <path d="M22,12 C22,6.47715235 17.5228481,2 12,2 C6.47715235,2 2,6.47715235 2,12 C2,17.5228481 6.47715235,22 12,22 C17.5228481,22 22,17.5228481 22,12 Z M24,12 C24,5.37258291 18.6274166,0 12,0 C5.37258291,0 0,5.37258291 0,12 C0,18.6274166 5.37258291,24 12,24 C18.6274166,24 24,18.6274166 24,12 Z" id="Ellipse-1032-(Stroke)" fill="#A4A6AA" mask="url(#mask-2)"></path>
                            <path d="M13,7.5 C13,6.90000015 12.5771427,6.5 12.0057143,6.5 C11.4228573,6.5 11,6.90000015 11,7.5 C11,8.07500035 11.4228573,8.5 12.0057143,8.5 C12.5771427,8.5 13,8.07500035 13,7.5 Z M13,10.5 L11,10.5 L11,17.5 L13,17.5 L13,10.5 Z" id="Vector" fill="#A4A6AA" mask="url(#mask-2)"></path>
                        </g>
                    </g>
                </g>
            </g>
        </g>
    </g>
</svg>