<?xml version="1.0" encoding="UTF-8"?>
<svg width="24px" height="24px" viewBox="0 0 24 24" version="1.1" xmlns="http://www.w3.org/2000/svg" xmlns:xlink="http://www.w3.org/1999/xlink">
    <title>3F7A175E-D46A-5E70-F295-4AA4AD3B021F</title>
    <defs>
        <rect id="path-1" x="0" y="0" width="24" height="24"></rect>
        <path d="M12,22 C10.3431457,22 9,20.6568543 9,19 C9,18.2316456 9.28885356,17.5307565 9.76389349,17 L14.2361064,17 C14.7111463,17.5307565 15,18.2316456 15,19 C15,20.6568543 13.6568543,22 12,22 Z" id="path-3"></path>
        <mask id="mask-4" maskContentUnits="userSpaceOnUse" maskUnits="objectBoundingBox" x="0" y="0" width="6" height="5" fill="white">
            <use xlink:href="#path-3"></use>
        </mask>
        <rect id="path-5" x="2" y="17" width="20" height="2"></rect>
        <mask id="mask-6" maskContentUnits="userSpaceOnUse" maskUnits="objectBoundingBox" x="0" y="0" width="20" height="2" fill="white">
            <use xlink:href="#path-5"></use>
        </mask>
        <path d="M12,2 C7.58172226,2 4,5.58172226 4,10 L4,19 L20,19 L20,10 C20,5.58172226 16.4182777,2 12,2 Z" id="path-7"></path>
        <mask id="mask-8" maskContentUnits="userSpaceOnUse" maskUnits="objectBoundingBox" x="0" y="0" width="16" height="17" fill="white">
            <use xlink:href="#path-7"></use>
        </mask>
    </defs>
    <g id="💎-Components" stroke="none" stroke-width="1" fill="none" fill-rule="evenodd">
        <g id="Icons/Grid" transform="translate(-1628.000000, -1347.000000)">
            <g id="24dp" transform="translate(62.000000, 1263.000000)">
                <g id="Black" transform="translate(954.000000, 0.000000)">
                    <g id="Icon-/-24-/-Black" transform="translate(40.000000, 40.000000)">
                        <g id="Icons-/-24-/-ic_alarm_black" transform="translate(572.000000, 44.000000)">
                            <mask id="mask-2" fill="white">
                                <use xlink:href="#path-1"></use>
                            </mask>
                            <g id="Icons-/-24-/-ic_alarm_black-(Background/Mask)"></g>
                            <g id="Ellipse-417" stroke-dasharray="0,0" mask="url(#mask-2)" stroke="#000000" stroke-width="4">
                                <use mask="url(#mask-4)" xlink:href="#path-3"></use>
                            </g>
                            <g id="Rectangle-4560" stroke-dasharray="0,0" mask="url(#mask-2)" stroke="#000000" stroke-width="2">
                                <use mask="url(#mask-6)" xlink:href="#path-5"></use>
                            </g>
                            <g id="Union" stroke-dasharray="0,0" fill-rule="nonzero" mask="url(#mask-2)" stroke="#000000" stroke-width="4">
                                <use mask="url(#mask-8)" xlink:href="#path-7"></use>
                            </g>
                        </g>
                    </g>
                </g>
            </g>
        </g>
    </g>
</svg>