<?xml version="1.0" encoding="UTF-8"?>
<svg width="24px" height="24px" viewBox="0 0 24 24" version="1.1" xmlns="http://www.w3.org/2000/svg" xmlns:xlink="http://www.w3.org/1999/xlink">
    <title>0E63C1A6-BBDE-767D-D243-994A1C8162BB</title>
    <defs>
        <rect id="path-1" x="0" y="0" width="24" height="24"></rect>
    </defs>
    <g id="💎-Components" stroke="none" stroke-width="1" fill="none" fill-rule="evenodd">
        <g id="Icons/Grid" transform="translate(-1276.000000, -1347.000000)">
            <g id="24dp" transform="translate(62.000000, 1263.000000)">
                <g id="Black" transform="translate(954.000000, 0.000000)">
                    <g id="Icon-/-24-/-Black" transform="translate(40.000000, 40.000000)">
                        <g id="Icons-/-24-/-ic_alarmthin_black" transform="translate(220.000000, 44.000000)">
                            <mask id="mask-2" fill="white">
                                <use xlink:href="#path-1"></use>
                            </mask>
                            <g id="Icons-/-24-/-ic_alarmthin_black-(Background/Mask)"></g>
                            <path d="M2.75000006,17.5 L21.25,17.5 C21.6642135,17.5 22,17.8357865 22,18.25 L22,18.25 C22,18.6642135 21.6642135,19 21.25,19 L2.75000048,19 C2.33578694,19 2,18.6642135 2,18.25 L2,18.25 C2,17.8357865 2.33578652,17.5 2.75000006,17.5 Z" id="Rectangle-4560" fill="#000000" fill-rule="nonzero" mask="url(#mask-2)"></path>
                            <path d="M13.5,19.5 C13.5,19.3242027 13.4701676,19.1561182 13.4150634,19 L10.5849367,19 C10.5298325,19.1561182 10.5,19.3242027 10.5,19.5 C10.5,20.3284271 11.1715729,21 12,21 C12.8284271,21 13.5,20.3284271 13.5,19.5 Z M14.2361064,17.5 C14.7111464,18.0307565 15,18.7316456 15,19.5 C15,21.1568542 13.6568542,22.5 12,22.5 C10.3431457,22.5 9,21.1568542 9,19.5 C9,18.7316456 9.28885356,18.0307565 9.76389349,17.5 L14.2361064,17.5 Z" id="Ellipse-417-(Stroke)" fill="#000000" mask="url(#mask-2)"></path>
                            <path d="M12,3.5 C8.4101491,3.5 5.5,6.4101491 5.5,10 L5.5,17.5 L18.5,17.5 L18.5,10 C18.5,6.4101491 15.5898504,3.5 12,3.5 Z M20,10 L20,19 L4,19 L4,10 C4,5.58172226 7.58172226,2 12,2 C16.4182777,2 20,5.58172226 20,10 Z" id="Union-(Stroke)" fill="#000000" mask="url(#mask-2)"></path>
                        </g>
                    </g>
                </g>
            </g>
        </g>
    </g>
</svg>