<?xml version="1.0" encoding="UTF-8"?>
<svg width="24px" height="24px" viewBox="0 0 24 24" version="1.1" xmlns="http://www.w3.org/2000/svg" xmlns:xlink="http://www.w3.org/1999/xlink">
    <title>20DA574F-A796-3C95-C4A2-65F0DB53D78E</title>
    <defs>
        <rect id="path-1" x="0" y="0" width="24" height="24"></rect>
    </defs>
    <g id="💎-Components" stroke="none" stroke-width="1" fill="none" fill-rule="evenodd">
        <g id="Icons/Grid" transform="translate(-1540.000000, -1347.000000)">
            <g id="24dp" transform="translate(62.000000, 1263.000000)">
                <g id="Black" transform="translate(954.000000, 0.000000)">
                    <g id="Icon-/-24-/-Black" transform="translate(40.000000, 40.000000)">
                        <g id="Icons-/-24-/-ic_close_black" transform="translate(484.000000, 44.000000)">
                            <mask id="mask-2" fill="white">
                                <use xlink:href="#path-1"></use>
                            </mask>
                            <g id="Icons-/-24-/-ic_close_black-(Background/Mask)"></g>
                            <path d="M3.79289323,3.79289323 C3.4023689,4.1834175 3.4023689,4.81658256 3.79289323,5.20710683 L10.5857868,12 L3.79289323,18.7928934 C3.4023689,19.1834173 3.4023689,19.8165817 3.79289323,20.2071056 C4.1834175,20.5976315 4.81658256,20.5976315 5.20710683,20.2071056 L12,13.4142122 L18.7928934,20.2071056 C19.1834173,20.5976315 19.8165817,20.5976315 20.2071056,20.2071056 C20.5976315,19.8165817 20.5976315,19.1834173 20.2071056,18.7928934 L13.4142122,12 L20.2071056,5.20710683 C20.5976315,4.81658256 20.5976315,4.1834175 20.2071056,3.79289323 C19.8165817,3.4023689 19.1834173,3.4023689 18.7928934,3.79289323 L12,10.5857868 L5.20710683,3.79289323 C4.81658256,3.4023689 4.1834175,3.4023689 3.79289323,3.79289323 Z" id="Union" fill="#000000" mask="url(#mask-2)"></path>
                        </g>
                    </g>
                </g>
            </g>
        </g>
    </g>
</svg>