<svg width="20" height="59" viewBox="0 0 20 59" xmlns="http://www.w3.org/2000/svg">
    <g fill="none" fill-rule="evenodd">
        <path d="M0 0h20v20H0V0z"/>
        <path d="m12.126 5.168 2.666-3a.5.5 0 1 1 .748.664L13.613 5H18.5a.5.5 0 0 1 0 1h-4.887l1.927 2.168a.5.5 0 1 1-.747.664L12.13 5.836a.498.498 0 0 1-.13-.33V5.5a.51.51 0 0 1 .126-.332zM1 2.5a.5.5 0 0 0 .5.5h8a.5.5 0 1 0 0-1h-8a.5.5 0 0 0-.5.5zm0 5a.5.5 0 0 0 .5.5h8a.5.5 0 0 0 0-1h-8a.5.5 0 0 0-.5.5zm.5 4.5h17a.5.5 0 0 1 0 1h-17a.5.5 0 0 1 0-1zM1 17.5a.5.5 0 0 0 .5.5h17a.5.5 0 0 0 0-1h-17a.5.5 0 0 0-.5.5z" fill="#000"/>
        <g>
            <path d="M0 39h20v20H0V39z"/>
            <path d="m12.126 44.168 2.666-3a.5.5 0 1 1 .748.664L13.613 44H18.5a.5.5 0 0 1 0 1h-4.887l1.927 2.168a.5.5 0 1 1-.747.664l-2.663-2.996a.498.498 0 0 1-.13-.33V44.5a.51.51 0 0 1 .126-.332zM1 41.5a.5.5 0 0 0 .5.5h8a.5.5 0 1 0 0-1h-8a.5.5 0 0 0-.5.5zm0 5a.5.5 0 0 0 .5.5h8a.5.5 0 0 0 0-1h-8a.5.5 0 0 0-.5.5zm.5 4.5h17a.5.5 0 0 1 0 1h-17a.5.5 0 0 1 0-1zM1 56.5a.5.5 0 0 0 .5.5h17a.5.5 0 0 0 0-1h-17a.5.5 0 0 0-.5.5z" fill="#FF664D"/>
        </g>
    </g>
</svg>
