<?xml version="1.0" encoding="UTF-8"?>
<svg width="16px" height="17px" viewBox="0 0 16 17" version="1.1" xmlns="http://www.w3.org/2000/svg" xmlns:xlink="http://www.w3.org/1999/xlink">
    <title>E1C5F3A8-0C33-26EC-EE58-B0513BD8043F</title>
    <g id="💎-Components" stroke="none" stroke-width="1" fill="none" fill-rule="evenodd">
        <g id="Icons/Grid" transform="translate(-1164.000000, -841.000000)">
            <g id="16dp" transform="translate(62.000000, 729.000000)">
                <g id="Black" transform="translate(954.000000, 0.000000)">
                    <g id="Group-5836" transform="translate(40.000000, 39.999999)">
                        <g id="Icons-/-16-/-ic_time_grey06" transform="translate(108.000000, 72.000001)">
                            <rect id="area" x="4.2913598e-07" y="0.0869140625" width="16" height="16"></rect>
                            <path d="M8,3.5 C8.27614212,3.5 8.5,3.72385764 8.5,4 L8.5,7.80017376 L10.5462246,9.8463974 C10.7414856,10.0416603 10.7414856,10.358242 10.5462246,10.5535049 C10.3509617,10.7487669 10.03438,10.7487669 9.83911705,10.5535049 L7.7177968,8.43218422 C7.69917107,8.41355801 7.68232155,8.39382744 7.66724873,8.37320518 C7.56461954,8.28163528 7.5,8.14836407 7.5,8 L7.5,4 C7.5,3.72385764 7.7238574,3.5 8,3.5 Z M16,8 C16,3.58172178 12.4182777,0 8,0 C3.58172178,0 0,3.58172178 0,8 C0,12.4182777 3.58172178,16 8,16 C12.4182777,16 16,12.4182777 16,8 Z M8,15 C4.1340065,15 1,11.8659925 1,8 C1,4.1340065 4.1340065,1 8,1 C11.8659925,1 15,4.1340065 15,8 C15,11.8659925 11.8659925,15 8,15 Z" id="Union" fill="#75777B"></path>
                        </g>
                    </g>
                </g>
            </g>
        </g>
    </g>
</svg>