<?xml version="1.0" encoding="UTF-8"?>
<svg width="20px" height="20px" viewBox="0 0 20 20" version="1.1" xmlns="http://www.w3.org/2000/svg" xmlns:xlink="http://www.w3.org/1999/xlink">
    <title>3C51A39F-9069-54B7-0D97-97C911C741B2</title>
    <g id="ðŸ’Ž-Components" stroke="none" stroke-width="1" fill="none" fill-rule="evenodd">
        <g id="Selection-Controls" transform="translate(-159.000000, -400.000000)">
            <g id="01.-Check-Box" transform="translate(40.000000, 346.000000)">
                <g id="States-01=01.-Selected,-States-02=01.-Enabled,-Size=20,-Dark-Mode=No" transform="translate(119.000000, 54.000000)">
                    <path d="M0,0 L20,0 L20,20 L0,20 L0,0 Z" id="States-01=01.-Selected,-States-02=01.-Enabled,-Size=20,-Dark-Mode=No-(Background)"></path>
                    <path d="M4,0 L16,0 C18.209139,-4.05812251e-16 20,1.790861 20,4 L20,16 C20,18.209139 18.209139,20 16,20 L4,20 C1.790861,20 2.705415e-16,18.209139 0,16 L0,4 C-2.705415e-16,1.790861 1.790861,4.05812251e-16 4,0 Z" id="ì‚¬ê°í˜•-275" fill="#FF664D"></path>
                    <path d="M5.5,10.0004301 L8.5,13.5 L14.5,6.5" id="Stroke-3" stroke="#FFFFFF" stroke-width="1.5" stroke-linecap="round" stroke-linejoin="round" stroke-dasharray="0,0" fill-rule="nonzero"></path>
                </g>
            </g>
        </g>
    </g>
</svg>