<svg width="40" height="40" viewBox="0 0 40 40" xmlns="http://www.w3.org/2000/svg" xmlns:xlink="http://www.w3.org/1999/xlink">
    <defs>
        <path d="M20 0c11.046 0 20 8.954 20 20s-8.954 20-20 20S0 31.046 0 20 8.954 0 20 0zm0 3C10.611 3 3 10.611 3 20s7.611 17 17 17 17-7.611 17-17S29.389 3 20 3z" id="3hxi4jc8ba"/>
    </defs>
    <g fill="none" fill-rule="evenodd">
        <mask id="dlf69uz84b" fill="#fff">
            <use xlink:href="#3hxi4jc8ba"/>
        </mask>
        <use fill="#E3E4E5" xlink:href="#3hxi4jc8ba"/>
        <path d="M20 40c2.166 0 4.251-.344 6.204-.981a19.936 19.936 0 0 0 5.54-2.828 20.115 20.115 0 0 0 4.403-4.387A19.939 19.939 0 0 0 39 26.264C39.65 24.295 40 22.189 40 20a19.935 19.935 0 0 0-3.812-11.747 20.115 20.115 0 0 0-4.404-4.415A19.937 19.937 0 0 0 26.23.99 19.983 19.983 0 0 0 20 0v40z" fill="#FF664D" mask="url(#dlf69uz84b)"/>
    </g>
</svg>
