<svg width="16" height="16" viewBox="0 0 16 16" xmlns="http://www.w3.org/2000/svg" xmlns:xlink="http://www.w3.org/1999/xlink">
    <defs>
        <path id="xs5cs3n4qa" d="M0 0h16v16H0z"/>
    </defs>
    <g fill="none" fill-rule="evenodd">
        <mask id="ea7a6tvm8b" fill="#fff">
            <use xlink:href="#xs5cs3n4qa"/>
        </mask>
        <path d="M8 15A7 7 0 1 0 8 1a7 7 0 0 0 0 14z" fill="#38B1AD" mask="url(#ea7a6tvm8b)"/>
        <path d="M9.481 5.005a.75.75 0 0 1 .75.75v5.5a.75.75 0 0 1-1.5 0v-5.5a.75.75 0 0 1 .75-.75z" fill="#FFF" mask="url(#ea7a6tvm8b)" transform="rotate(45 9.481 8.505)"/>
        <path d="M6.298 6.712a.75.75 0 0 1 .75.75v3.5a.75.75 0 1 1-1.5 0v-3.5a.75.75 0 0 1 .75-.75z" fill="#FFF" mask="url(#ea7a6tvm8b)" transform="rotate(135 6.298 9.212)"/>
    </g>
</svg>
