<?xml version="1.0" encoding="UTF-8"?>
<svg width="16px" height="16px" viewBox="0 0 16 16" version="1.1" xmlns="http://www.w3.org/2000/svg" xmlns:xlink="http://www.w3.org/1999/xlink">
    <title>B4A622F1-E9D1-ABF1-D63B-0871CE0D44F3</title>
    <g id="💎-Components" stroke="none" stroke-width="1" fill="none" fill-rule="evenodd">
        <g id="Icons/Grid" transform="translate(-1200.000000, -805.000000)">
            <g id="16dp" transform="translate(62.000000, 729.000000)">
                <g id="Black" transform="translate(954.000000, 0.000000)">
                    <g id="Group-5836" transform="translate(40.000000, 39.999999)">
                        <g id="Icons-/-16-/-ic_e-learning_grey06" transform="translate(144.000000, 36.000001)">
                            <rect id="area" x="0" y="0" width="16" height="16"></rect>
                            <path d="M5.99999957,13 L5.99999957,14 L5.49999957,14 C5.22385745,14 4.99999957,14.2238579 4.99999957,14.5 C4.99999957,14.7761421 5.22385697,15 5.49999957,15 L10.4999996,15 C10.7761417,15 10.9999996,14.7761421 10.9999996,14.5 C10.9999996,14.2238579 10.7761417,14 10.4999996,14 L9.99999957,14 L9.99999957,13 L13.9999996,13 C14.5522848,13 14.9999996,12.5522842 14.9999996,12 L14.9999996,3 C14.9999996,2.44771504 14.5522838,2 13.9999996,2 L1.99999957,2 C1.44771533,2 0.999999571,2.44771647 0.999999571,3 L0.999999571,12 C0.999999571,12.5522852 1.44771533,13 1.99999957,13 L5.99999957,13 Z M13.9999996,12 L13.9999996,11 L1.99999957,11 L1.99999957,12 L13.9999996,12 Z M8.99999957,13 L6.99999957,13 L6.99999957,14 L8.99999957,14 L8.99999957,13 Z M13.9999996,3 L1.99999957,3 L1.99999957,10 L13.9999996,10 L13.9999996,3 Z" id="Union" fill="#75777B"></path>
                        </g>
                    </g>
                </g>
            </g>
        </g>
    </g>
</svg>