<?xml version="1.0" encoding="UTF-8"?>
<svg width="20px" height="60px" viewBox="0 0 20 60" version="1.1" xmlns="http://www.w3.org/2000/svg" xmlns:xlink="http://www.w3.org/1999/xlink">
    <title>BF562CA0-10CC-9921-A65B-97B74E2A5621</title>
    <defs>
        <rect id="path-1" x="0" y="0" width="20" height="20"></rect>
        <rect id="path-3" x="0" y="0" width="20" height="20"></rect>
    </defs>
    <g id="💎-Components" stroke="none" stroke-width="1" fill="none" fill-rule="evenodd">
        <g id="Icons/Grid" transform="translate(-1452.000000, -1115.000000)">
            <g id="20dp" transform="translate(62.000000, 941.000000)">
                <g id="Black" transform="translate(954.000000, 0.000000)">
                    <g id="Icon-/-20-/-Black" transform="translate(34.000000, 41.000000)">
                        <g id="icons-/-20-/-ic_text_dot_off_on" transform="translate(402.000000, 133.000000)">
                            <g id="Property-1=20,-Property-2=ic_text_dot_black">
                                <mask id="mask-2" fill="white">
                                    <use xlink:href="#path-1"></use>
                                </mask>
                                <g id="Property-1=20,-Property-2=ic_text_dot_black-(Background/Mask)"></g>
                                <path d="M2,4 C1.44771528,4 1,3.55228484 1,3 C1,2.44771528 1.44771528,2 2,2 C2.55228484,2 3,2.44771528 3,3 C3,3.55228484 2.55228484,4 2,4 Z M5.5,3 C5.5,3.27614236 5.7238574,3.5 6,3.5 L18,3.5 C18.2761421,3.5 18.5,3.27614236 18.5,3 C18.5,2.72385764 18.2761421,2.5 18,2.5 L6,2.5 C5.7238574,2.5 5.5,2.72385764 5.5,3 Z M5.5,10 C5.5,10.2761421 5.7238574,10.5 6,10.5 L17.999424,10.5 C18.2755661,10.5 18.499424,10.2761421 18.499424,10 C18.499424,9.7238574 18.2755661,9.5 17.999424,9.5 L6,9.5 C5.7238574,9.5 5.5,9.7238574 5.5,10 Z M6,16.5 L17.999424,16.5 C18.2755661,16.5 18.499424,16.7238579 18.499424,17 C18.499424,17.2761421 18.2755661,17.5 17.999424,17.5 L6,17.5 C5.7238574,17.5 5.5,17.2761421 5.5,17 C5.5,16.7238579 5.7238574,16.5 6,16.5 Z M3,17 C3,16.4477148 2.55228484,16 2,16 C1.44771528,16 1,16.4477148 1,17 C1,17.5522852 1.44771528,18 2,18 C2.55228484,18 3,17.5522852 3,17 Z M2,11 C1.44771528,11 1,10.5522852 1,10 C1,9.44771528 1.44771528,9 2,9 C2.55228484,9 3,9.44771528 3,10 C3,10.5522852 2.55228484,11 2,11 Z" id="Union" fill="#000000" mask="url(#mask-2)"></path>
                            </g>
                            <g id="Property-1=20,-Property-2=ic_text_dot_primary" transform="translate(0.000000, 40.000000)">
                                <mask id="mask-4" fill="white">
                                    <use xlink:href="#path-3"></use>
                                </mask>
                                <g id="Property-1=20,-Property-2=ic_text_dot_primary-(Background/Mask)"></g>
                                <path d="M2,4 C1.44771528,4 1,3.55228484 1,3 C1,2.44771528 1.44771528,2 2,2 C2.55228484,2 3,2.44771528 3,3 C3,3.55228484 2.55228484,4 2,4 Z M5.5,3 C5.5,3.27614236 5.7238574,3.5 6,3.5 L18,3.5 C18.2761421,3.5 18.5,3.27614236 18.5,3 C18.5,2.72385764 18.2761421,2.5 18,2.5 L6,2.5 C5.7238574,2.5 5.5,2.72385764 5.5,3 Z M5.5,10 C5.5,10.2761421 5.7238574,10.5 6,10.5 L17.999424,10.5 C18.2755661,10.5 18.499424,10.2761421 18.499424,10 C18.499424,9.7238574 18.2755661,9.5 17.999424,9.5 L6,9.5 C5.7238574,9.5 5.5,9.7238574 5.5,10 Z M6,16.5 L17.999424,16.5 C18.2755661,16.5 18.499424,16.7238579 18.499424,17 C18.499424,17.2761421 18.2755661,17.5 17.999424,17.5 L6,17.5 C5.7238574,17.5 5.5,17.2761421 5.5,17 C5.5,16.7238579 5.7238574,16.5 6,16.5 Z M3,17 C3,16.4477148 2.55228484,16 2,16 C1.44771528,16 1,16.4477148 1,17 C1,17.5522852 1.44771528,18 2,18 C2.55228484,18 3,17.5522852 3,17 Z M2,11 C1.44771528,11 1,10.5522852 1,10 C1,9.44771528 1.44771528,9 2,9 C2.55228484,9 3,9.44771528 3,10 C3,10.5522852 2.55228484,11 2,11 Z" id="Union" fill="#FF664D" mask="url(#mask-4)"></path>
                            </g>
                        </g>
                    </g>
                </g>
            </g>
        </g>
    </g>
</svg>