<svg width="20" height="60" viewBox="0 0 20 60" xmlns="http://www.w3.org/2000/svg" xmlns:xlink="http://www.w3.org/1999/xlink">
    <defs>
        <path id="4tgebyqqba" d="M0 0h20v20H0z"/>
        <path id="8w6oeq15xc" d="M0 0h20v20H0z"/>
    </defs>
    <g fill="none" fill-rule="evenodd">
        <g>
            <mask id="xwa1xt856b" fill="#fff">
                <use xlink:href="#4tgebyqqba"/>
            </mask>
            <path d="M8.96 3.635a7.192 7.192 0 0 0-3.661 1.919L2.95 7.857h3.316a.5.5 0 1 1 0 1H2a.5.5 0 0 1-.5-.5V4.071a.5.5 0 1 1 1 0V6.9l2.099-2.06a8.192 8.192 0 0 1 4.169-2.186 8.283 8.283 0 0 1 4.7.455 8.116 8.116 0 0 1 3.657 2.944A7.899 7.899 0 0 1 18.5 10.5a7.899 7.899 0 0 1-1.375 4.448 8.116 8.116 0 0 1-3.656 2.944 8.283 8.283 0 0 1-4.701.455 8.192 8.192 0 0 1-4.17-2.187.5.5 0 0 1 .7-.714 7.192 7.192 0 0 0 3.661 1.92 7.283 7.283 0 0 0 4.133-.4 7.116 7.116 0 0 0 3.206-2.58A6.899 6.899 0 0 0 17.5 10.5a6.899 6.899 0 0 0-1.202-3.885 7.116 7.116 0 0 0-3.206-2.58 7.283 7.283 0 0 0-4.133-.4z" fill="#000" fill-rule="nonzero" mask="url(#xwa1xt856b)"/>
        </g>
        <g transform="translate(0 40)">
            <mask id="5jxhmjb4gd" fill="#fff">
                <use xlink:href="#8w6oeq15xc"/>
            </mask>
            <path d="M8.96 3.635a7.192 7.192 0 0 0-3.661 1.919L2.95 7.857h3.316a.5.5 0 1 1 0 1H2a.5.5 0 0 1-.5-.5V4.071a.5.5 0 1 1 1 0V6.9l2.099-2.06a8.192 8.192 0 0 1 4.169-2.186 8.283 8.283 0 0 1 4.7.455 8.116 8.116 0 0 1 3.657 2.944A7.899 7.899 0 0 1 18.5 10.5a7.899 7.899 0 0 1-1.375 4.448 8.116 8.116 0 0 1-3.656 2.944 8.283 8.283 0 0 1-4.701.455 8.192 8.192 0 0 1-4.17-2.187.5.5 0 0 1 .7-.714 7.192 7.192 0 0 0 3.661 1.92 7.283 7.283 0 0 0 4.133-.4 7.116 7.116 0 0 0 3.206-2.58A6.899 6.899 0 0 0 17.5 10.5a6.899 6.899 0 0 0-1.202-3.885 7.116 7.116 0 0 0-3.206-2.58 7.283 7.283 0 0 0-4.133-.4z" fill="#FF664D" fill-rule="nonzero" mask="url(#5jxhmjb4gd)"/>
        </g>
    </g>
</svg>
