<svg width="16" height="16" viewBox="0 0 16 16" xmlns="http://www.w3.org/2000/svg">
    <g fill="none" fill-rule="evenodd">
        <path d="M0 0h16v16H0z"/>
        <path d="m6.629 11.237-.157.864.864-.157 6.732-6.732-.707-.707-6.732 6.732zm8.712-5.884a.2.2 0 0 0 0-.283l-1.838-1.838a.2.2 0 0 0-.283 0L5.7 10.75l-.42 2.308a.2.2 0 0 0 .233.233l2.308-.42 7.52-7.519zM2 14h10V8.694l1-1V14a1 1 0 0 1-1 1H2a1 1 0 0 1-1-1V2a1 1 0 0 1 1-1h10a1 1 0 0 1 1 1v1.452l-1 1V2H2v12zm9-10v1H3V4h8zM8 6v1H3V6h5z" fill="#75777B"/>
    </g>
</svg>
