<?xml version="1.0" encoding="UTF-8"?>
<svg width="24px" height="24px" viewBox="0 0 24 24" version="1.1" xmlns="http://www.w3.org/2000/svg" xmlns:xlink="http://www.w3.org/1999/xlink">
    <title>E9A4C0B6-5B8E-4F51-A1C5-351A910EF7F9</title>
    <defs>
        <path d="M12,24 C18.627417,24 24,18.627417 24,12 C24,5.372583 18.627417,0 12,0 C5.372583,0 0,5.372583 0,12 C0,18.627417 5.372583,24 12,24 Z" id="path-1"></path>
        <mask id="mask-2" maskContentUnits="userSpaceOnUse" maskUnits="objectBoundingBox" x="0" y="0" width="24" height="24" fill="white">
            <use xlink:href="#path-1"></use>
        </mask>
    </defs>
    <g id="💎-Components" stroke="none" stroke-width="1" fill="none" fill-rule="evenodd">
        <g id="Selection-Controls" transform="translate(-1070.000000, -585.000000)">
            <g id="radio-/-24-/-rdo_black_on_disable" transform="translate(1070.000000, 585.000000)">
                <path d="M0,0 L24,0 L24,24 L0,24 L0,0 Z" id="States-01=01.-Selected,-States-02=01.-Enabled,-Size=24,-Dark-Mode=Yes-(Background)"></path>
                <use id="Oval" stroke="#FF664D" mask="url(#mask-2)" stroke-width="2" fill="#FFF4F3" opacity="0.7" stroke-dasharray="0,0" xlink:href="#path-1"></use>
                <path d="M12,19 C15.8659932,19 19,15.8659932 19,12 C19,8.13400675 15.8659932,5 12,5 C8.13400675,5 5,8.13400675 5,12 C5,15.8659932 8.13400675,19 12,19 Z" id="Oval" fill="#FF664D" opacity="0.7"></path>
            </g>
        </g>
    </g>
</svg>