<svg width="16" height="16" viewBox="0 0 16 16" xmlns="http://www.w3.org/2000/svg" xmlns:xlink="http://www.w3.org/1999/xlink">
    <defs>
        <path id="ldmvkc8u5a" d="M0 0h16v16H0z"/>
    </defs>
    <g fill="none" fill-rule="evenodd">
        <mask id="jhisl7d1ab" fill="#fff">
            <use xlink:href="#ldmvkc8u5a"/>
        </mask>
        <path d="M8.5 5v2.5H11a.5.5 0 0 1 0 1H8.5V11a.5.5 0 0 1-1 0V8.5H5a.5.5 0 0 1 0-1h2.5V5a.5.5 0 1 1 1 0zM8 16A8 8 0 1 1 8 0a8 8 0 0 1 0 16zm0-1A7 7 0 1 1 8 1a7 7 0 0 1 0 14z" fill="#FF664D" mask="url(#jhisl7d1ab)"/>
    </g>
</svg>
