<?xml version="1.0" encoding="UTF-8"?>
<svg width="40px" height="40px" viewBox="0 0 40 40" version="1.1" xmlns="http://www.w3.org/2000/svg" xmlns:xlink="http://www.w3.org/1999/xlink">
    <title>D5E0539F-AC6A-16EA-52B2-02D1FF12E384</title>
    <defs>
        <rect id="path-1" x="0" y="0" width="40" height="40"></rect>
    </defs>
    <g id="💎-Components" stroke="none" stroke-width="1" fill="none" fill-rule="evenodd">
        <g id="Icons/Grid" transform="translate(-1116.000000, -1625.000000)">
            <g id="etc" transform="translate(62.000000, 1585.000000)">
                <g id="Black" transform="translate(954.000000, 0.000000)">
                    <g id="Group-5843" transform="translate(30.000000, 40.000000)">
                        <g id="Icons-/-40-/-ic_warning_primary" transform="translate(70.000000, 0.000000)">
                            <mask id="mask-2" fill="white">
                                <use xlink:href="#path-1"></use>
                            </mask>
                            <g id="Icons-/-40-/-ic_warning_primary-(Background/Mask)"></g>
                            <path d="M3.91601562,19.9988613 C3.91601562,28.8814411 11.1167698,36.0821953 19.9993496,36.0821953 C28.8819294,36.0821953 36.0826836,28.8814411 36.0826836,19.9988613 C36.0826836,11.1162815 28.8819294,3.91552734 19.9993496,3.91552734 C11.1167698,3.91552734 3.91601562,11.1162815 3.91601562,19.9988613 Z M19.9993496,1.91552734 C29.9864998,1.91552734 38.0826836,10.0117111 38.0826836,19.9988613 C38.0826836,29.9860115 29.9864998,38.0821953 19.9993496,38.0821953 C10.0121994,38.0821953 1.91601562,29.9860115 1.91601562,19.9988613 C1.91601562,10.0117111 10.0121994,1.91552734 19.9993496,1.91552734 Z" id="Oval-(Stroke)" fill="#FF664D" mask="url(#mask-2)"></path>
                            <path d="M19,27 L19,16 L21,16 L21,27 L19,27 Z M20,14 C19.4477162,14 19,13.5522848 19,13 C19,12.4477154 19.4477161,12 20,12 C20.5522856,12 21,12.4477152 21,13 C21,13.5522847 20.5522857,14 20,14 Z" id="Vector" fill="#FF664D" mask="url(#mask-2)"></path>
                        </g>
                    </g>
                </g>
            </g>
        </g>
    </g>
</svg>