<?xml version="1.0" encoding="UTF-8"?>
<svg width="20px" height="20px" viewBox="0 0 20 20" version="1.1" xmlns="http://www.w3.org/2000/svg" xmlns:xlink="http://www.w3.org/1999/xlink">
    <title>6E31E75A-D222-C028-E549-5529FF5E7D13</title>
    <g id="💎-Components" stroke="none" stroke-width="1" fill="none" fill-rule="evenodd">
        <g id="Icons/Grid" transform="translate(-1170.000000, -1022.000000)">
            <g id="20dp" transform="translate(62.000000, 941.000000)">
                <g id="Black" transform="translate(954.000000, 0.000000)">
                    <g id="Icon-/-20-/-Black" transform="translate(34.000000, 41.000000)">
                        <g id="Icons-/-20-/-ic_discussion_black" transform="translate(120.000000, 40.000000)">
                            <rect id="area" x="0" y="0" width="20" height="20"></rect>
                            <path d="M6,5.5 L19,5.5 C19.2761421,5.5 19.5,5.72385761 19.5,6 L19.5,17.5 C19.5,17.6801357 19.4031038,17.8463478 19.2463493,17.9351006 C19.0895948,18.0238533 18.8972178,18.0214243 18.7427521,17.9287453 L16.3615084,16.5 L6,16.5 C5.72385761,16.5 5.5,16.2761421 5.5,16 L5.5,6 C5.5,5.72385761 5.72385761,5.5 6,5.5 Z M6.5,15.5 L16.5,15.5 C16.5906219,15.5 16.6795406,15.5246286 16.7572479,15.5712538 L18.5,16.6169052 L18.5,6.5 L6.5,6.5 L6.5,15.5 Z M14,1.5 L1,1.5 C0.72385788,1.5 0.5,1.72385761 0.5,2 L0.5,12.5 C0.5,12.6877356 0.605163574,12.8596516 0.772303581,12.9451447 C0.939442635,13.0306387 1.14038754,13.0153017 1.29261684,12.9054327 L3.66158962,11.195652 L5.5,11.195652 L5.5,10.195652 L3.5,10.195652 C3.39494896,10.195652 3.2925663,10.2287397 3.20738316,10.2902193 L1.5,11.5225048 L1.5,2.5 L13.5,2.5 L13.5,5.5 L14.5,5.5 L14.5,2 C14.5,1.72385761 14.2761424,1.5 14,1.5 Z M8.5,10.5 L8.5,9.5 L16.5,9.5 L16.5,10.5 L8.5,10.5 Z M8.5,12.5 L8.5,11.5 L14,11.5 L14,12.5 L8.5,12.5 Z" id="Vector" fill="#000000"></path>
                        </g>
                    </g>
                </g>
            </g>
        </g>
    </g>
</svg>