<svg width="16" height="16" viewBox="0 0 16 16" xmlns="http://www.w3.org/2000/svg">
    <g fill="none" fill-rule="evenodd">
        <path d="M0 0h16v16H0V0z"/>
        <path d="M1.774 8.838A4.247 4.247 0 0 1 .5 5.808C.5 3.428 2.472 1.5 4.905 1.5c1.206 0 2.3.932 3.095 1.7.796-.768 1.889-1.7 3.095-1.7 2.433 0 4.405 1.929 4.405 4.308a4.247 4.247 0 0 1-1.274 3.03l-.677.662c-.021.026-.044.05-.068.074l-4.725 4.621A1.073 1.073 0 0 1 8 14.5c-.273 0-.547-.1-.756-.305L2.52 9.575a1.062 1.062 0 0 1-.068-.075l-.677-.662z" fill="#CBCDCF" fill-rule="nonzero"/>
    </g>
</svg>
