<?xml version="1.0" encoding="UTF-8"?>
<svg width="24px" height="68px" viewBox="0 0 24 68" version="1.1" xmlns="http://www.w3.org/2000/svg" xmlns:xlink="http://www.w3.org/1999/xlink">
    <title>0F298979-AF24-E4E0-86E8-DAAA82D329BD</title>
    <g id="💎-Components" stroke="none" stroke-width="1" fill="none" fill-rule="evenodd">
        <g id="Icons/Grid" transform="translate(-474.000000, -1385.000000)">
            <g id="24dp" transform="translate(62.000000, 1263.000000)">
                <g id="White" transform="translate(122.000000, 0.000000)">
                    <g id="Icon-/-24-/-White" transform="translate(40.000000, 40.000000)">
                        <g id="Icons-/-24-/-ic_mybox_noti_off_on-" transform="translate(250.000000, 82.000000)">
                            <g id="Property-1=24,-Property-2=ic_mybox_white">
                                <rect id="area" x="0" y="0" width="24" height="24"></rect>
                                <path d="M3,3 L3,21 L20,21 L20,3 L3,3 Z M1,3 L1,21 C1,22.1045685 1.89543045,23 3,23 L20,23 C21.1045685,23 22,22.1045704 22,21 L22,3 C22,1.89543056 21.1045704,1 20,1 L3,1 C1.89543056,1 1,1.89542997 1,3 Z" id="Rectangle-4615-(Stroke)" fill="#FFFFFF"></path>
                                <path d="M16.5,11.5000004 L16.5,13.5000004 L-4.49999998,13.5000004 L-4.49999998,11.5000004 L16.5,11.5000004 Z" id="Rectangle-4616" fill="#FFFFFF" fill-rule="nonzero" transform="translate(6.000000, 12.500000) scale(-1, -1) rotate(-90.000003) translate(-6.000000, -12.500000) "></path>
                                <path d="M17,6 L17,8 L10,8 L10,6 L17,6 Z" id="Rectangle-4617" fill="#FFFFFF" fill-rule="nonzero" transform="translate(13.500000, 7.000000) rotate(-0.000000) translate(-13.500000, -7.000000) "></path>
                            </g>
                            <g id="Property-1=24,-Property-2=ic_mybox_noti_white" transform="translate(0.000000, 44.000000)">
                                <rect id="area" x="0" y="0" width="24" height="24"></rect>
                                <path d="M3,1 L16.0238094,1 L16.0238094,3 L3,3 L3,21 L20,21 L20,7.909091 L22,7.909091 L22,21 C22,22.1045723 21.1045685,23 20,23 L3,23 C1.89543045,23 1,22.1045704 1,21 L1,3 C1,1.89543104 1.89543021,1 3,1 Z" id="Rectangle-4615-(Stroke)" fill="#FFFFFF"></path>
                                <path d="M16.5,11.5000004 L16.5,13.5000004 L-4.49999998,13.5000004 L-4.49999998,11.5000004 L16.5,11.5000004 Z" id="Rectangle-4616" fill="#FFFFFF" fill-rule="nonzero" transform="translate(6.000000, 12.500000) scale(-1, -1) rotate(-90.000003) translate(-6.000000, -12.500000) "></path>
                                <path d="M17,6 L17,8 L10,8 L10,6 L17,6 Z" id="Rectangle-4617" fill="#FFFFFF" fill-rule="nonzero" transform="translate(13.500000, 7.000000) rotate(-0.000000) translate(-13.500000, -7.000000) "></path>
                                <path d="M24,3 C24,1.34314561 22.6568542,0 21,0 C19.3431456,0 18,1.34314561 18,3 C18,4.65685415 19.3431456,6 21,6 C22.6568542,6 24,4.65685415 24,3 Z" id="Noticed-Copy" fill="#FF664D" fill-rule="nonzero"></path>
                            </g>
                        </g>
                    </g>
                </g>
            </g>
        </g>
    </g>
</svg>