<?xml version="1.0" encoding="UTF-8"?>
<svg width="20px" height="60px" viewBox="0 0 20 60" version="1.1" xmlns="http://www.w3.org/2000/svg" xmlns:xlink="http://www.w3.org/1999/xlink">
    <title>D4861870-923B-7A48-F169-FA2E7EB0C84D</title>
    <defs>
        <rect id="path-1" x="0" y="0" width="20" height="20"></rect>
        <rect id="path-3" x="0" y="0" width="20" height="20"></rect>
    </defs>
    <g id="💎-Components" stroke="none" stroke-width="1" fill="none" fill-rule="evenodd">
        <g id="Icons/Grid" transform="translate(-1172.000000, -1115.000000)">
            <g id="20dp" transform="translate(62.000000, 941.000000)">
                <g id="Black" transform="translate(954.000000, 0.000000)">
                    <g id="Icon-/-20-/-Black" transform="translate(34.000000, 41.000000)">
                        <g id="icons-/-20-/-ic_text_align_off_on" transform="translate(122.000000, 133.000000)">
                            <g id="Property-1=20,-Property-2=ic_text_align_black">
                                <mask id="mask-2" fill="white">
                                    <use xlink:href="#path-1"></use>
                                </mask>
                                <g id="Property-1=20,-Property-2=ic_text_align_black-(Background/Mask)"></g>
                                <path d="M0.5,3 C0.5,3.27614236 0.723857611,3.5 1,3.5 L18,3.5 C18.2761421,3.5 18.5,3.27614236 18.5,3 C18.5,2.72385761 18.2761421,2.5 18,2.5 L1,2.5 C0.723857611,2.5 0.5,2.72385761 0.5,3 Z M0.5,8 C0.5,8.2761426 0.723857611,8.5 1,8.5 L12.6363611,8.5 C12.9125032,8.5 13.1363611,8.2761426 13.1363611,8 C13.1363611,7.7238574 12.9125032,7.5 12.6363611,7.5 L1,7.5 C0.723857611,7.5 0.5,7.7238574 0.5,8 Z M1,12.5 L18,12.5 C18.2761421,12.5 18.5,12.7238579 18.5,13 C18.5,13.2761421 18.2761421,13.5 18,13.5 L1,13.5 C0.723857611,13.5 0.5,13.2761421 0.5,13 C0.5,12.7238579 0.723857611,12.5 1,12.5 Z M0.500610352,18 C0.500610352,18.2761421 0.724467963,18.5 1.00061035,18.5 L12.6364126,18.5 C12.9125547,18.5 13.1364126,18.2761421 13.1364126,18 C13.1364126,17.7238579 12.9125547,17.5 12.6364126,17.5 L1.00061035,17.5 C0.724467963,17.5 0.500610352,17.7238579 0.500610352,18 Z" id="Union" fill="#000000" mask="url(#mask-2)"></path>
                            </g>
                            <g id="Property-1=20,-Property-2=ic_text_align_primary" transform="translate(0.000000, 40.000000)">
                                <mask id="mask-4" fill="white">
                                    <use xlink:href="#path-3"></use>
                                </mask>
                                <g id="Property-1=20,-Property-2=ic_text_align_primary-(Background/Mask)"></g>
                                <path d="M1.5,3 C1.5,3.27614236 1.72385761,3.5 2,3.5 L19,3.5 C19.2761421,3.5 19.5,3.27614236 19.5,3 C19.5,2.72385761 19.2761421,2.5 19,2.5 L2,2.5 C1.72385761,2.5 1.5,2.72385761 1.5,3 Z M1.5,8 C1.5,8.27614212 1.72385761,8.5 2,8.5 L13.6363611,8.5 C13.9125032,8.5 14.1363611,8.27614212 14.1363611,8 C14.1363611,7.7238574 13.9125032,7.5 13.6363611,7.5 L2,7.5 C1.72385761,7.5 1.5,7.7238574 1.5,8 Z M2,12.5 L19,12.5 C19.2761421,12.5 19.5,12.7238579 19.5,13 C19.5,13.2761421 19.2761421,13.5 19,13.5 L2,13.5 C1.72385761,13.5 1.5,13.2761421 1.5,13 C1.5,12.7238579 1.72385761,12.5 2,12.5 Z M1.50061035,18 C1.50061035,18.2761421 1.72446796,18.5 2.00061035,18.5 L13.6364126,18.5 C13.9125547,18.5 14.1364126,18.2761421 14.1364126,18 C14.1364126,17.7238579 13.9125547,17.5 13.6364126,17.5 L2.00061035,17.5 C1.72446796,17.5 1.50061035,17.7238579 1.50061035,18 Z" id="Union" fill="#FF664D" mask="url(#mask-4)"></path>
                            </g>
                        </g>
                    </g>
                </g>
            </g>
        </g>
    </g>
</svg>