<?xml version="1.0" encoding="UTF-8"?>
<svg width="40px" height="40px" viewBox="0 0 40 40" version="1.1" xmlns="http://www.w3.org/2000/svg" xmlns:xlink="http://www.w3.org/1999/xlink">
    <title>3B70E473-EA63-920C-6870-60DEB8F865E5</title>
    <g id="💎-Components" stroke="none" stroke-width="1" fill="none" fill-rule="evenodd">
        <g id="Icons/Grid" transform="translate(-392.000000, -1625.000000)">
            <g id="etc" transform="translate(62.000000, 1585.000000)">
                <g id="White" transform="translate(122.000000, 0.000000)">
                    <g id="Group-5844" transform="translate(40.000000, 40.000000)">
                        <g id="Icons-/-40-/-ic_stop" transform="translate(168.000000, 0.000000)">
                            <path d="M0,0 L40,0 L40,40 L0,40 L0,0 Z" id="Icons-/-40-/-ic_stop-(Background)"></path>
                            <path d="M5,1 L15.7717285,1 C15.9346447,0.999993152 16.0950955,1.03979031 16.2390675,1.1160384 C16.7463558,1.38416884 17,1.67882271 17,2 L17,37.7758789 C16.9993047,37.9373026 16.95955,38.0961608 16.8840742,38.2388545 C16.6159136,38.7462848 16.3212222,39 16,39 L5.22827148,39 C5.06535531,39.0000068 4.90490447,38.9602097 4.76093251,38.8839616 C4.25364417,38.6158312 4,38.3211773 4,38 L4,2.22412109 C4.00069531,2.06269743 4.04045,1.90383916 4.11592584,1.76114549 C4.38408637,1.25371516 4.67877776,1 5,1 Z M24,1 L34.7717285,1 C34.9346447,0.999993152 35.0950955,1.03979031 35.2390675,1.1160384 C35.7463558,1.38416884 36,1.67882271 36,2 L36,37.7758789 C35.9993047,37.9373026 35.95955,38.0961608 35.8840742,38.2388545 C35.6159136,38.7462848 35.3212222,39 35,39 L24.2282715,39 C24.0653553,39.0000068 23.9049045,38.9602097 23.7609325,38.8839616 C23.2536442,38.6158312 23,38.3211773 23,38 L23,2.22412109 C23.0006953,2.06269743 23.04045,1.90383916 23.1159258,1.76114549 C23.3840864,1.25371516 23.6787778,1 24,1 Z" id="Vector" fill="#FFFFFF"></path>
                        </g>
                    </g>
                </g>
            </g>
        </g>
    </g>
</svg>