<?xml version="1.0" encoding="UTF-8"?>
<svg width="24px" height="68px" viewBox="0 0 24 68" version="1.1" xmlns="http://www.w3.org/2000/svg" xmlns:xlink="http://www.w3.org/1999/xlink">
    <title>C709CFB6-1B40-53C6-25BA-42043F75DECA</title>
    <g id="💎-Components" stroke="none" stroke-width="1" fill="none" fill-rule="evenodd">
        <g id="Icons/Grid" transform="translate(-1306.000000, -1456.000000)">
            <g id="24dp" transform="translate(62.000000, 1263.000000)">
                <g id="Black" transform="translate(954.000000, 0.000000)">
                    <g id="Icon-/-24-/-Black" transform="translate(40.000000, 40.000000)">
                        <g id="Group-5838" transform="translate(196.000000, 153.000000)">
                            <g id="icons-/-24-/-ic_bookmark_off_on" transform="translate(54.000000, 0.000000)">
                                <g id="ic_bookmark_off_black">
                                    <rect id="area" x="0" y="0" width="24" height="24"></rect>
                                    <path d="M5,4 L5,20.1178055 L10.2584252,16.368741 C11.3005962,15.6257124 12.6994009,15.6257105 13.7415743,16.368741 L19,20.1178036 L19,4 L5,4 Z M3,4 L3,20.1178036 C3,21.7437477 4.83713567,22.6901913 6.16104817,21.7462902 L11.4194746,17.9972267 C11.7668657,17.7495499 12.2331333,17.7495499 12.5805244,17.9972258 L17.8389502,21.7462883 C19.1628628,22.6901894 21,21.7437477 21,20.1178036 L21,4 C21,2.89543056 20.1045685,2 19,2 L5,2 C3.89543056,2 3,2.89542997 3,4 Z" id="Rectangle-4604-(Stroke)" fill="#000000"></path>
                                </g>
                                <g id="ic_bookmark_on_primary" transform="translate(0.000000, 44.000000)">
                                    <rect id="area" x="0" y="0" width="24" height="24"></rect>
                                    <path d="M5,2 L19,2 C20.1045694,2 21,2.89543056 21,4 L21,20.1178036 C21,21.7437471 19.1628627,22.6901888 17.8389502,21.7462883 L12.7268771,18.1015707 C12.6259681,18.027309 12.5111294,17.9745734 12.3895644,17.9443231 C11.9462746,17.8345498 11.6229116,17.8521844 11.4194756,17.9972267 L6.16104817,21.7462902 C4.83713567,22.6901907 3,21.7437471 3,20.1178036 L3,4 C3,2.89542997 3.89543056,2 5,2 Z" id="--" fill="#FF664D" fill-rule="nonzero"></path>
                                </g>
                            </g>
                        </g>
                    </g>
                </g>
            </g>
        </g>
    </g>
</svg>