<?xml version="1.0" encoding="UTF-8"?>
<svg width="24px" height="24px" viewBox="0 0 24 24" version="1.1" xmlns="http://www.w3.org/2000/svg" xmlns:xlink="http://www.w3.org/1999/xlink">
    <title>077E83EA-B16F-F107-CE04-0940F0C08FF9</title>
    <defs>
        <rect id="path-1" x="0" y="0" width="24" height="24"></rect>
    </defs>
    <g id="💎-Components" stroke="none" stroke-width="1" fill="none" fill-rule="evenodd">
        <g id="Icons/Grid" transform="translate(-620.000000, -1303.000000)">
            <g id="24dp" transform="translate(62.000000, 1263.000000)">
                <g id="White" transform="translate(122.000000, 0.000000)">
                    <g id="Icon-/-24-/-White" transform="translate(40.000000, 40.000000)">
                        <g id="Icons-/-24-/-ic_more_white" transform="translate(396.000000, 0.000000)">
                            <mask id="mask-2" fill="white">
                                <use xlink:href="#path-1"></use>
                            </mask>
                            <g id="Icons-/-24-/-ic_more_white-(Background/Mask)"></g>
                            <path d="M12,6 C10.8954306,6 10,5.10456944 10,4 C10,2.89543056 10.8954306,2 12,2 C13.1045694,2 14,2.89543056 14,4 C14,5.10456944 13.1045694,6 12,6 Z M12,14 C10.8954306,14 10,13.1045694 10,12 C10,10.8954306 10.8954306,10 12,10 C13.1045694,10 14,10.8954306 14,12 C14,13.1045694 13.1045694,14 12,14 Z M14,20 C14,18.8954296 13.1045694,18 12,18 C10.8954306,18 10,18.8954296 10,20 C10,21.1045704 10.8954306,22 12,22 C13.1045694,22 14,21.1045704 14,20 Z" id="Union" fill="#FFFFFF" mask="url(#mask-2)"></path>
                        </g>
                    </g>
                </g>
            </g>
        </g>
    </g>
</svg>