<?xml version="1.0" encoding="UTF-8"?>
<svg width="16px" height="16px" viewBox="0 0 16 16" version="1.1" xmlns="http://www.w3.org/2000/svg" xmlns:xlink="http://www.w3.org/1999/xlink">
    <title>C8FE570F-12F3-38A3-C67D-75826A83B488</title>
    <g id="💎-Components" stroke="none" stroke-width="1" fill="none" fill-rule="evenodd">
        <g id="Icons/Grid" transform="translate(-1272.000000, -841.000000)">
            <g id="16dp" transform="translate(62.000000, 729.000000)">
                <g id="Black" transform="translate(954.000000, 0.000000)">
                    <g id="Group-5836" transform="translate(40.000000, 39.999999)">
                        <g id="Icons-/-16-/-ic_calendar_grey06" transform="translate(216.000000, 72.086915)">
                            <rect id="area" x="0" y="0" width="16" height="16"></rect>
                            <path d="M4.49999957,0.913085938 C4.77614288,0.913085938 4.99999957,1.13694358 4.99999957,1.41308594 L4.99999957,1.91308594 L10.9999996,1.91308594 L10.9999996,1.41308594 C10.9999996,1.13694364 11.2238584,0.913085938 11.4999996,0.913085938 C11.7761426,0.913085938 11.9999996,1.13694358 11.9999996,1.41308594 L11.9999996,1.91308594 L13.9999996,1.91308594 C14.5522857,1.91308594 14.9999996,2.36080098 14.9999996,2.91308594 L14.9999996,12.9130859 C14.9999996,13.4653692 14.5522857,13.9130859 13.9999996,13.9130859 L1.99999957,13.9130859 C1.44771545,13.9130859 0.999999571,13.4653702 0.999999571,12.9130859 L0.999999571,2.91308594 C0.999999571,2.36080241 1.44771533,1.91308594 1.99999957,1.91308594 L3.99999957,1.91308594 L3.99999957,1.41308594 C3.99999957,1.13694364 4.22385817,0.913085938 4.49999957,0.913085938 Z M10.9999996,3.41308594 C10.9999996,3.6892283 11.2238584,3.91308594 11.4999996,3.91308594 C11.7761426,3.91308594 11.9999996,3.6892283 11.9999996,3.41308594 L11.9999996,2.91308594 L13.9999996,2.91308594 L13.9999996,4.91308594 L1.99999957,4.91308594 L1.99999957,2.91308594 L3.99999957,2.91308594 L3.99999957,3.41308594 C3.99999957,3.6892283 4.22385817,3.91308594 4.49999957,3.91308594 C4.77614288,3.91308594 4.99999957,3.6892283 4.99999957,3.41308594 L4.99999957,2.91308594 L10.9999996,2.91308594 L10.9999996,3.41308594 Z M13.9999996,12.9130859 L13.9999996,5.91308594 L1.99999957,5.91308594 L1.99999957,12.9130859 L13.9999996,12.9130859 Z" id="Union" fill="#75777B"></path>
                        </g>
                    </g>
                </g>
            </g>
        </g>
    </g>
</svg>