<?xml version="1.0" encoding="UTF-8"?>
<svg width="16px" height="16px" viewBox="0 0 16 16" version="1.1" xmlns="http://www.w3.org/2000/svg" xmlns:xlink="http://www.w3.org/1999/xlink">
    <title>F13A75DA-18CA-4E22-84E3-1083F4C80F80</title>
    <defs>
        <circle id="path-1" cx="6" cy="6" r="6"></circle>
    </defs>
    <g id="온보딩/로그인" stroke="none" stroke-width="1" fill="none" fill-rule="evenodd">
        <g id="로그인-&gt;-기본" transform="translate(-270.000000, -50.000000)">
            <g id="언어설정" transform="translate(270.000000, 46.000000)">
                <g id="icons-/-16-/-ic_language_mint" transform="translate(0.000000, 4.000000)">
                    <rect id="area" x="0" y="0" width="16" height="16"></rect>
                    <g id="Group-5-+-Group-5-Mask" transform="translate(2.000000, 2.000000)">
                        <mask id="mask-2" fill="white">
                            <use xlink:href="#path-1"></use>
                        </mask>
                        <use id="Mask" stroke="#00BFAE" xlink:href="#path-1"></use>
                        <g id="Group-5" mask="url(#mask-2)">
                            <g transform="translate(0.166667, 0.428571)">
                                <path d="M5.04572042,0 C3.66603379,1.88470626 2.97619048,3.75437795 2.97619048,5.60901506 C2.97619048,7.46365217 3.66603379,9.30826619 5.04572042,11.1428571" id="Line" stroke="#00BFAE" stroke-width="1" fill="none" stroke-linecap="round"></path>
                                <path d="M8.69047619,0 C7.32022313,1.88470626 6.6350966,3.75437795 6.6350966,5.60901506 C6.6350966,7.46365217 7.32022313,9.30826619 8.69047619,11.1428571" id="Line" stroke="#00BFAE" stroke-width="1" fill="none" stroke-linecap="round" transform="translate(7.662786, 5.571429) scale(-1, 1) translate(-7.662786, -5.571429) "></path>
                                <polygon id="Rectangle" stroke="none" fill="#00BFAE" fill-rule="evenodd" transform="translate(5.714286, 5.571429) rotate(-270.000000) translate(-5.714286, -5.571429) " points="5.30519481 -0.142857143 6.12337662 -0.142857143 6.12337662 11.2857143 5.30519481 11.2857143"></polygon>
                            </g>
                        </g>
                        <g id="Group-5" mask="url(#mask-2)" stroke="#00BFAE" stroke-linecap="round">
                            <g transform="translate(6.000000, 6.000000) rotate(-270.000000) translate(-6.000000, -6.000000) translate(2.285714, 0.428571)" id="Line">
                                <path d="M7.42857143,0 C6.66666667,1.88470626 6.28571429,3.75437795 6.28571429,5.60901506 C6.28571429,7.46365217 6.66666667,9.30826619 7.42857143,11.1428571"></path>
                                <path d="M1.14285714,0 C0.380952381,1.88470626 0,3.75437795 0,5.60901506 C0,7.46365217 0.380952381,9.30826619 1.14285714,11.1428571" transform="translate(0.571429, 5.571429) scale(-1, 1) translate(-0.571429, -5.571429) "></path>
                            </g>
                        </g>
                    </g>
                </g>
            </g>
        </g>
    </g>
</svg>