<?xml version="1.0" encoding="UTF-8"?>
<svg width="16px" height="16px" viewBox="0 0 16 16" version="1.1" xmlns="http://www.w3.org/2000/svg" xmlns:xlink="http://www.w3.org/1999/xlink">
    <title>3ED70340-AEDD-4E99-BC6B-ECA9EC1FAFAB</title>
    <g id="홈" stroke="none" stroke-width="1" fill="none" fill-rule="evenodd">
        <g id="myHome" transform="translate(-137.000000, -1353.000000)">
            <g id="콘텐츠" transform="translate(20.000000, 365.000000)">
                <g id="나의데이터" transform="translate(0.000000, 930.000000)">
                    <g id="Group-5826" transform="translate(0.000000, 40.000000)">
                        <g id="Frame-5826" transform="translate(10.000000, 18.000000)">
                            <g id="Icons-/-16-/-ic_user_grey04" transform="translate(107.000000, 0.000000)">
                                <rect id="area" x="0" y="0" width="16" height="16"></rect>
                                <path d="M11.2187114,6.56052351 L7.683178,10.0960579 C7.55423574,10.2249999 7.37238936,10.2687945 7.20751004,10.2274418 C7.12259679,10.2062001 7.04217176,10.1623797 6.97577434,10.0959826 L4.85445409,7.97466183 C4.65919192,7.77939963 4.65919192,7.46281695 4.85445409,7.26755476 C5.04971625,7.07229257 5.36629854,7.07229257 5.56156068,7.26755476 L7.32951407,9.03550816 L10.5116048,5.85341692 C10.7068673,5.65815477 11.023449,5.65815479 11.2187114,5.85341692 C11.4139734,6.04867904 11.4139734,6.36526138 11.2187114,6.56052351 Z M9.39149432,0.649465203 L9.79926066,1.04393899 C10.0209489,1.25839996 10.3291994,1.35855663 10.6346059,1.31535888 L11.1963611,1.23590195 C12.2645069,1.08481944 13.259996,1.80808532 13.446383,2.87063837 L13.5444065,3.42945385 C13.5976987,3.73326111 13.7882085,3.99547482 14.0606781,4.1400404 L14.561852,4.40595007 C15.5148035,4.91156149 15.8950468,6.08183002 15.4212833,7.05100918 L15.1721235,7.56071711 C15.0366636,7.83782673 15.0366636,8.16194057 15.1721235,8.43905067 L15.4212833,8.94875813 C15.8950468,9.91793728 15.5148025,11.0882053 14.561852,11.5938168 L14.0606781,11.8597269 C13.7882085,12.0042925 13.5976987,12.2665062 13.5444065,12.5703135 L13.446383,13.1291285 C13.259996,14.1916819 12.2645059,14.9149475 11.1963611,14.7638645 L10.634605,14.6844082 C10.3291994,14.6412106 10.0209489,14.7413664 9.79926066,14.9558277 L9.39149432,15.3503017 C8.61615138,16.1003704 7.38565784,16.1003704 6.61031489,15.3503017 L6.20254807,14.9558277 C5.98086076,14.7413673 5.67260985,14.6412106 5.36720328,14.6844082 L4.80544763,14.7638645 C3.73730259,14.9149475 2.74181347,14.1916819 2.55542665,13.1291285 L2.45740252,12.5703135 C2.40411048,12.2665062 2.21360092,12.0042925 1.94113116,11.8597269 L1.43995743,11.5938168 C0.487005878,11.0882053 0.106762606,9.91793633 0.580525774,8.94875813 L0.829685766,8.43904972 C0.96514504,8.16194057 0.96514492,7.83782673 0.829685587,7.56071663 L0.580525535,7.05100918 C0.106762487,6.08182955 0.487006056,4.91156149 1.43995755,4.40595007 L1.94113128,4.14003992 C2.21360116,3.99547482 2.40411048,3.73326087 2.45740275,3.42945337 L2.55542665,2.87063813 C2.74181347,1.80808473 3.73730354,1.08481956 4.8054481,1.23590195 L5.36720376,1.31535888 C5.67260985,1.35855663 5.98086076,1.25839984 6.20254855,1.04393888 L6.61031489,0.649464965 C7.38565831,-0.100603223 8.61615138,-0.100602686 9.39149432,0.649465203 Z M7.30561023,1.36818945 L6.89784341,1.76266336 C6.4544683,2.1915853 5.83796649,2.39189887 5.22715383,2.30550337 L4.66539817,2.22604632 C4.13132577,2.15050507 3.63358121,2.51213789 3.54038792,3.04341435 L3.44236379,3.6022296 C3.33577948,4.20984411 2.9547606,4.734272 2.40982084,5.02340317 L1.90864711,5.28931284 C1.43217127,5.54211855 1.24204962,6.12725258 1.47893112,6.61184216 L1.72809117,7.12155008 C1.99900966,7.67576933 1.99901001,8.3239975 1.72809129,8.87821674 L1.47893124,9.38792419 C1.24204974,9.87251377 1.43217127,10.4576483 1.90864699,10.710454 L2.40982084,10.9763641 C2.95476036,11.2654953 3.33577948,11.7899227 3.44236379,12.3975372 L3.54038768,12.9563522 C3.63358121,13.4876289 4.13132577,13.8492613 4.66539769,13.7737207 L5.22715383,13.6942635 C5.83796601,13.6078682 6.45446782,13.8081818 6.89784341,14.2371035 L7.30560975,14.6315775 C7.69328122,15.0066118 8.30852752,15.0066118 8.69619899,14.6315775 L9.10396628,14.2371035 C9.54734092,13.8081818 10.1638427,13.6078682 10.7746549,13.6942635 L11.336411,13.7737207 C11.8704839,13.8492613 12.3682285,13.4876289 12.4614215,12.9563522 L12.5594459,12.3975372 C12.6660295,11.7899227 13.0470491,11.2654953 13.5919881,10.9763641 L14.0931621,10.710454 C14.5696378,10.4576483 14.7597595,9.87251472 14.5228782,9.38792515 L14.2737175,8.8782177 C14.0027996,8.32399845 14.0027986,7.67576981 14.2737175,7.12155008 L14.5228782,6.61184216 C14.7597595,6.12725258 14.5696378,5.54211855 14.0931621,5.28931284 L13.5919891,5.02340317 C13.0470491,4.73427248 12.6660305,4.20984459 12.5594459,3.60222983 L12.4614215,3.04341459 C12.3682285,2.51213789 11.8704839,2.15050507 11.336411,2.22604632 L10.7746559,2.30550337 C10.1638437,2.39189887 9.54734187,2.19158554 9.10396628,1.76266348 L8.69619994,1.36818969 C8.30852752,0.993155539 7.6932817,0.993155539 7.30561023,1.36818945 Z" id="Vector" fill="#CBCDCF"></path>
                            </g>
                        </g>
                    </g>
                </g>
            </g>
        </g>
    </g>
</svg>