<?xml version="1.0" encoding="UTF-8"?>
<svg width="20px" height="20px" viewBox="0 0 20 20" version="1.1" xmlns="http://www.w3.org/2000/svg" xmlns:xlink="http://www.w3.org/1999/xlink">
    <title>1850F7F4-620A-2C3F-C55F-C6331F22FF1E</title>
    <defs>
        <rect id="path-1" x="0" y="0" width="20" height="20"></rect>
    </defs>
    <g id="💎-Components" stroke="none" stroke-width="1" fill="none" fill-rule="evenodd">
        <g id="Icons/Grid" transform="translate(-1338.000000, -1205.000000)">
            <g id="20dp" transform="translate(62.000000, 941.000000)">
                <g id="Black" transform="translate(954.000000, 0.000000)">
                    <g id="Icon-/-20-/-Black" transform="translate(34.000000, 41.000000)">
                        <g id="icons-/-20-/-ic_textsize_14" transform="translate(288.000000, 223.000000)">
                            <mask id="mask-2" fill="white">
                                <use xlink:href="#path-1"></use>
                            </mask>
                            <g id="Property-1=20,-Property-2=ic_textsize_14_primary-(Background/Mask)"></g>
                            <path d="M9.06481266,17.000104 L9.06481266,15.7841043 L6.7128129,15.7841043 L6.7128129,5.25610352 L5.59281254,5.25610352 C4.95281267,5.64010334 4.20081258,5.91210365 3.16081262,6.10410309 L3.16081262,7.03210354 L5.24081278,7.03210354 L5.24081278,15.7841043 L2.6328125,15.7841043 L2.6328125,17.000104 L9.06481266,17.000104 Z M14.4118128,8.60010338 C14.7478127,8.02410316 15.0678129,7.4481039 15.355813,6.87210369 L15.4198132,6.87210369 C15.3878131,7.48010349 15.3398123,8.42410374 15.3398123,9.00010395 L15.3398123,12.6001043 L11.7398129,12.6001043 L14.4118128,8.60010338 Z M16.7158136,17.000104 L16.7158136,13.7681036 L18.2678137,13.7681036 L18.2678137,12.6001043 L16.7158136,12.6001043 L16.7158136,5.25610352 L15.0998125,5.25610352 L10.2198124,12.8081036 L10.2198124,13.7681036 L15.3398123,13.7681036 L15.3398123,17.000104 L16.7158136,17.000104 Z" id="14" fill="#FF664D" mask="url(#mask-2)"></path>
                        </g>
                    </g>
                </g>
            </g>
        </g>
    </g>
</svg>