<?xml version="1.0" encoding="UTF-8"?>
<svg width="24px" height="24px" viewBox="0 0 24 24" version="1.1" xmlns="http://www.w3.org/2000/svg" xmlns:xlink="http://www.w3.org/1999/xlink">
    <title>30E354E9-D829-3C94-50AC-7905D724A0FC</title>
    <g id="💎-Components" stroke="none" stroke-width="1" fill="none" fill-rule="evenodd">
        <g id="Icons/Grid" transform="translate(-532.000000, -1303.000000)">
            <g id="24dp" transform="translate(62.000000, 1263.000000)">
                <g id="White" transform="translate(122.000000, 0.000000)">
                    <g id="Icon-/-24-/-White" transform="translate(40.000000, 40.000000)">
                        <g id="Icons-/-24-/-ic_bookmark_off_white" transform="translate(308.000000, 0.000000)">
                            <path d="M0,0 L24,0 L24,24 L0,24 L0,0 Z" id="area"></path>
                            <path d="M5,4 L5,20.1178055 L10.2584252,16.368741 C11.3005962,15.6257124 12.6994009,15.6257105 13.7415743,16.368741 L19,20.1178036 L19,4 L5,4 Z M3,4 L3,20.1178036 C3,21.7437477 4.83713567,22.6901913 6.16104817,21.7462902 L11.4194746,17.9972267 C11.7668657,17.7495499 12.2331333,17.7495499 12.5805244,17.9972258 L17.8389502,21.7462883 C19.1628628,22.6901894 21,21.7437477 21,20.1178036 L21,4 C21,2.89543056 20.1045685,2 19,2 L5,2 C3.89543056,2 3,2.89542997 3,4 Z" id="Rectangle-4604-(Stroke)" fill="#FFFFFF"></path>
                        </g>
                    </g>
                </g>
            </g>
        </g>
    </g>
</svg>