<?xml version="1.0" encoding="UTF-8"?>
<svg width="24px" height="24px" viewBox="0 0 24 24" version="1.1" xmlns="http://www.w3.org/2000/svg" xmlns:xlink="http://www.w3.org/1999/xlink">
    <title>A0A9CE75-B309-3A06-C0AD-3447DF36212D</title>
    <defs>
        <rect id="path-1" x="0" y="0" width="24" height="24"></rect>
    </defs>
    <g id="💎-Components" stroke="none" stroke-width="1" fill="none" fill-rule="evenodd">
        <g id="Icons/Grid" transform="translate(-1408.000000, -1391.000000)">
            <g id="24dp" transform="translate(62.000000, 1263.000000)">
                <g id="Black" transform="translate(954.000000, 0.000000)">
                    <g id="Icon-/-24-/-Black" transform="translate(40.000000, 40.000000)">
                        <g id="Icons-/-24-/-ic_settings_black" transform="translate(352.000000, 88.000000)">
                            <mask id="mask-2" fill="white">
                                <use xlink:href="#path-1"></use>
                            </mask>
                            <g id="Icons-/-24-/-ic_settings_black-(Background/Mask)"></g>
                            <path d="M14.4775229,0.97678721 C14.6828613,1.12087739 14.8455019,1.32742016 14.9349947,1.57485831 L15.6734562,3.61663961 L17.5490093,4.68417621 L19.7831478,4.27588773 C20.0418606,4.22860813 20.3020878,4.26503801 20.529911,4.36975479 C20.7577286,4.47446847 20.9548206,4.64823675 21.0874004,4.87536049 C21.0873966,4.87535453 21.0874043,4.87536645 21.0874004,4.87536049 L21.9596081,6.3695302 L22.8284569,7.82397604 C22.9670525,8.05598497 23.0232391,8.32007217 23.0004082,8.57606506 C22.9775772,8.83205605 22.8755455,9.08203125 22.6980782,9.28585434 L21.2532158,10.9452829 L21.2532158,13.0503817 L22.7052689,14.6977644 C22.8848019,14.9014473 22.98843,15.1521063 23.0122185,15.4090691 C23.0360069,15.6660099 22.980175,15.9314375 22.8410759,16.1646385 L21.9729729,17.6200294 L21.971056,17.6232567 L21.0862026,19.1194954 C20.9535294,19.3438377 20.7577248,19.5154972 20.5317421,19.6192303 C20.3057632,19.7229614 20.0479488,19.7595291 19.7913342,19.7138786 L17.5518284,19.3154716 L15.6734276,20.3823204 L14.9349518,22.4249859 C14.8454828,22.6724606 14.6828442,22.8790455 14.4774923,23.0231647 C14.2721386,23.1672859 14.0225658,23.25 13.7594147,23.25 L10.224844,23.25 C9.96177197,23.25 9.7122736,23.1673355 9.50696087,23.0233002 C9.30164146,22.879261 9.13900042,22.6727886 9.04946804,22.4254265 L8.31731367,20.4026222 L6.39954567,19.3249569 L4.21459389,19.7247849 C3.95731223,19.7718658 3.69843662,19.7361603 3.47139883,19.6327343 C3.24436402,19.5293121 3.04752362,19.3574238 2.91419315,19.1324024 L2.0274694,17.6358757 L2.0259788,17.6333694 L1.15731128,16.1770363 C1.01869901,15.9446497 0.962736206,15.680192 0.985938029,15.4239712 C1.00913961,15.1677532 1.11169627,14.9176502 1.28980002,14.7139416 L2.69212413,13.110014 L2.69103074,10.9028492 L1.28764251,9.29839706 C1.11019143,9.09552288 1.00765337,8.84654903 0.98389204,8.59129524 C0.960130767,8.33604193 1.0149513,8.07242012 1.15190734,7.84027719 L2.89956915,4.88075638 C3.03220415,4.6563561 3.22799981,4.48462677 3.45401049,4.38083982 C3.68002379,4.27705169 3.93787694,4.24046206 4.19451475,4.28610158 L6.39644909,4.67768407 L8.31729174,3.59631467 L9.04942417,1.57441497 C9.1389842,1.32708104 9.30163527,1.12065351 9.5069294,0.976652265 L9.75989246,0.799213946 L13.7595139,0.75 C14.022645,0.75 14.272191,0.832702041 14.4775229,0.97678721 Z M10.7373095,2.78732061 L9.94512939,4.97504902 L6.75251341,6.77238417 L4.35657477,6.34630108 L3.14990735,8.38966227 L4.69065857,10.1511574 L4.6924963,13.860611 L3.15399075,15.6202974 L3.7466166,16.6138477 L4.36850405,17.6634102 L6.749825,17.2276478 L9.94498158,19.0231285 L10.7509985,21.25 L13.2330503,21.25 L14.043622,19.0079117 L17.1916237,17.2199898 L19.6294994,17.6536865 L20.2514839,16.6019554 L20.2534008,16.5987282 L20.8432159,15.6098833 L19.2532158,13.8059969 L19.2532158,10.1965961 L20.8325539,8.38272142 L20.2348289,7.38213491 L19.6252995,6.33785772 L17.1923885,6.78247213 L14.0434217,4.99012756 L13.2355862,2.75653267 L10.7373095,2.78732061 Z M2.87496424,15.1525021 C2.87509418,15.1527195 2.87483454,15.1522846 2.87496424,15.1525021 Z M2.87496424,15.1525021 L2.23084414,15.5367022" id="Stroke-4-(Stroke)" fill="#000000" mask="url(#mask-2)"></path>
                            <path d="M10.2318735,10.2318041 C9.77861726,10.6849234 9.5,11.3083444 9.5,11.9993572 C9.5,12.6911235 9.77870905,13.3148704 10.2319193,13.7680807 C10.6851298,14.2212906 11.3088765,14.5 12.0006428,14.5 C12.6922331,14.5 13.3155255,14.2214155 13.7683616,13.7684422 C14.2213578,13.315309 14.5,12.691452 14.5,11.9993572 C14.5,11.3080161 14.2214499,10.6844847 13.7684078,10.2314427 C13.315536,9.77857101 12.6922207,9.5 12.0006428,9.5 C11.3088887,9.5 10.6851193,9.77869546 10.2318735,10.2318041 Z M12.0006428,7.5 C13.2431145,7.5 14.3693962,8.00400424 15.182621,8.81722903 C15.9960356,9.63064349 16.5,10.7571487 16.5,11.9993572 C16.5,13.2419229 15.9962425,14.3687425 15.1827893,15.1824417 C14.3695388,15.9959378 13.243175,16.5 12.0006428,16.5 C10.7579548,16.5 9.63124859,15.9958367 8.81770599,15.1822939 C8.00416321,14.3687515 7.5,13.2420454 7.5,11.9993572 C7.5,10.7570264 8.00437009,9.63063473 8.81787384,8.81737685 C9.63139129,8.00410545 10.7580156,7.5 12.0006428,7.5 Z" id="Stroke-2-(Stroke)" fill="#000000" mask="url(#mask-2)"></path>
                        </g>
                    </g>
                </g>
            </g>
        </g>
    </g>
</svg>