<?xml version="1.0" encoding="UTF-8"?>
<svg width="20px" height="20px" viewBox="0 0 20 20" version="1.1" xmlns="http://www.w3.org/2000/svg" xmlns:xlink="http://www.w3.org/1999/xlink">
    <title>6B1B4836-78FC-6B57-4178-7DFFDE9377DE</title>
    <defs>
        <path d="M10,20 C15.5228475,20 20,15.5228475 20,10 C20,4.4771525 15.5228475,0 10,0 C4.4771525,0 0,4.4771525 0,10 C0,15.5228475 4.4771525,20 10,20 Z" id="path-1"></path>
        <mask id="mask-2" maskContentUnits="userSpaceOnUse" maskUnits="objectBoundingBox" x="0" y="0" width="20" height="20" fill="white">
            <use xlink:href="#path-1"></use>
        </mask>
    </defs>
    <g id="💎-Components" stroke="none" stroke-width="1" fill="none" fill-rule="evenodd">
        <g id="Selection-Controls" transform="translate(-1069.000000, -437.000000)">
            <g id="02.-Radio-Button" transform="translate(741.000000, 369.000000)">
                <g id="States-01=01.-Selected,-States-02=02.-Disabled,-Size=20,-Dark-Mode=Yes" transform="translate(328.000000, 68.000000)">
                    <path d="M0,0 L20,0 L20,20 L0,20 L0,0 Z" id="States-01=01.-Selected,-States-02=02.-Disabled,-Size=20,-Dark-Mode=Yes-(Background)"></path>
                    <use id="Oval" stroke="#33353C" mask="url(#mask-2)" stroke-width="2" stroke-dasharray="0,0" xlink:href="#path-1"></use>
                    <path d="M10,16 C13.3137085,16 16,13.3137085 16,10 C16,6.6862915 13.3137085,4 10,4 C6.6862915,4 4,6.6862915 4,10 C4,13.3137085 6.6862915,16 10,16 Z" id="Oval" fill="#33353C"></path>
                </g>
            </g>
        </g>
    </g>
</svg>