<svg width="16" height="16" viewBox="0 0 16 16" xmlns="http://www.w3.org/2000/svg" xmlns:xlink="http://www.w3.org/1999/xlink">
    <defs>
        <path id="w8al0z8b2a" d="M0 0h16v16H0z"/>
    </defs>
    <g fill="none" fill-rule="evenodd">
        <mask id="6858hc9s8b" fill="#fff">
            <use xlink:href="#w8al0z8b2a"/>
        </mask>
        <path d="M2 5v8h12V5h-2.202l-1.333-2h-4.93L4.202 5H2zm3.535-3h4.93a1 1 0 0 1 .832.445L12.333 4H14a1 1 0 0 1 1 1v8a1 1 0 0 1-1 1H2a1 1 0 0 1-1-1V5a1 1 0 0 1 1-1h1.667l1.036-1.555A1 1 0 0 1 5.535 2zM10 9a2 2 0 1 0-4 0 2 2 0 0 0 4 0zm1 0a3 3 0 1 0-6 0 3 3 0 0 0 6 0z" fill="#44464A" mask="url(#6858hc9s8b)"/>
    </g>
</svg>
