<?xml version="1.0" encoding="UTF-8"?>
<svg width="32px" height="32px" viewBox="0 0 32 32" version="1.1" xmlns="http://www.w3.org/2000/svg" xmlns:xlink="http://www.w3.org/1999/xlink">
    <title>35A95DEE-E25E-71D7-C856-367A99EE8F71</title>
    <g id="💎-Components" stroke="none" stroke-width="1" fill="none" fill-rule="evenodd">
        <g id="Icons/Grid" transform="translate(-224.000000, -1625.000000)">
            <g id="etc" transform="translate(62.000000, 1585.000000)">
                <g id="White" transform="translate(122.000000, 0.000000)">
                    <g id="Icons-/-32-/-ic_stop" transform="translate(40.000000, 40.000000)">
                        <path d="M0,0 L32,0 L32,32 L0,32 L0,0 Z" id="Icons-/-32-/-ic_stop-(Background)"></path>
                        <path d="M6,2 L12.7709961,2 C12.9339851,1.9999234 13.0945225,2.03968735 13.2386415,2.11581328 C13.7462138,2.38400391 14,2.67873282 14,3 L14,28.7746582 C13.9995049,28.9364955 13.9597429,29.0957958 13.8840742,29.2388545 C13.6159136,29.7462848 13.3212222,30 13,30 L6.22900391,30 C6.06601488,30.0000766 5.90547746,29.9603126 5.7613585,29.8841867 C5.25378617,29.6159961 5,29.3212672 5,29 L5,3.2253418 C5.00049507,3.06350452 5.04025709,2.90420419 5.11592584,2.76114549 C5.38408637,2.25371516 5.67877776,2 6,2 Z M19,2 L26,2 C26.5522847,2 27,2.44771528 27,3 L27,29 C27,29.5522847 26.5522847,30 26,30 L19,30 C18.4477153,30 18,29.5522847 18,29 L18,3 C18,2.44771481 18.4477153,2 19,2 Z" id="Vector" fill="#FFFFFF"></path>
                    </g>
                </g>
            </g>
        </g>
    </g>
</svg>