<svg width="16" height="16" viewBox="0 0 16 16" xmlns="http://www.w3.org/2000/svg" xmlns:xlink="http://www.w3.org/1999/xlink">
    <defs>
        <path id="gawcv6lyxg" d="M0 0h16v16H0z"/>
        <path d="M8 13A5 5 0 1 0 8 3a5 5 0 0 0 0 10z" id="v4djrxowfa"/>
        <path d="M8 13c1.105 0 2-2.239 2-5s-.895-5-2-5-2 2.239-2 5 .895 5 2 5z" id="bwpfhfv79b"/>
        <path id="kgfja5m2lc" d="M0 0h3v3H0z"/>
        <path id="gj6nc3j3id" d="M0 13h3v3H0z"/>
        <path id="jmocnm9q1e" d="M13 0h3v3h-3z"/>
        <path id="465a1uqecf" d="M13 13h3v3h-3z"/>
        <mask id="hv2wexc54i" maskContentUnits="userSpaceOnUse" maskUnits="objectBoundingBox" x="0" y="0" width="10" height="10" fill="#fff">
            <use xlink:href="#v4djrxowfa"/>
        </mask>
        <mask id="2m1pd681sj" maskContentUnits="userSpaceOnUse" maskUnits="objectBoundingBox" x="0" y="0" width="4" height="10" fill="#fff">
            <use xlink:href="#bwpfhfv79b"/>
        </mask>
        <mask id="ad7caemcmk" maskContentUnits="userSpaceOnUse" maskUnits="objectBoundingBox" x="0" y="0" width="3" height="3" fill="#fff">
            <use xlink:href="#kgfja5m2lc"/>
        </mask>
        <mask id="t1z4ul943l" maskContentUnits="userSpaceOnUse" maskUnits="objectBoundingBox" x="0" y="0" width="3" height="3" fill="#fff">
            <use xlink:href="#gj6nc3j3id"/>
        </mask>
        <mask id="zk9wplwwfm" maskContentUnits="userSpaceOnUse" maskUnits="objectBoundingBox" x="0" y="0" width="3" height="3" fill="#fff">
            <use xlink:href="#jmocnm9q1e"/>
        </mask>
        <mask id="yxe1iqtctn" maskContentUnits="userSpaceOnUse" maskUnits="objectBoundingBox" x="0" y="0" width="3" height="3" fill="#fff">
            <use xlink:href="#465a1uqecf"/>
        </mask>
    </defs>
    <g fill="none" fill-rule="evenodd">
        <mask id="1of0sjtr3h" fill="#fff">
            <use xlink:href="#gawcv6lyxg"/>
        </mask>
        <g stroke-dasharray="0,0" mask="url(#1of0sjtr3h)" stroke="#FFF" stroke-width="2">
            <use mask="url(#hv2wexc54i)" xlink:href="#v4djrxowfa"/>
        </g>
        <g stroke-dasharray="0,0" mask="url(#1of0sjtr3h)" stroke="#FFF" stroke-width="2">
            <use mask="url(#2m1pd681sj)" xlink:href="#bwpfhfv79b"/>
        </g>
        <path d="M3 7.5h10v1H3v-1z" fill="#FFF" mask="url(#1of0sjtr3h)"/>
        <g stroke-dasharray="0,0" mask="url(#1of0sjtr3h)" stroke="#FFF" stroke-width="2">
            <use mask="url(#ad7caemcmk)" xlink:href="#kgfja5m2lc"/>
        </g>
        <g stroke-dasharray="0,0" mask="url(#1of0sjtr3h)" stroke="#FFF" stroke-width="2">
            <use mask="url(#t1z4ul943l)" xlink:href="#gj6nc3j3id"/>
        </g>
        <g stroke-dasharray="0,0" mask="url(#1of0sjtr3h)" stroke="#FFF" stroke-width="2">
            <use mask="url(#zk9wplwwfm)" xlink:href="#jmocnm9q1e"/>
        </g>
        <g stroke-dasharray="0,0" mask="url(#1of0sjtr3h)" stroke="#FFF" stroke-width="2">
            <use mask="url(#yxe1iqtctn)" xlink:href="#465a1uqecf"/>
        </g>
        <path d="M4.5 0h1v1h-1V0zm2 0h1v1h-1V0zm2 0h1v1h-1V0zm2 0h1v1h-1V0zM16 4.5v1h-1v-1h1zm0 2v1h-1v-1h1zm0 2v1h-1v-1h1zm0 2v1h-1v-1h1zM4.5 15h1v1h-1v-1zm2 0h1v1h-1v-1zm2 0h1v1h-1v-1zm2 0h1v1h-1v-1zM1 4.5v1H0v-1h1zm0 2v1H0v-1h1zm0 2v1H0v-1h1zm0 2v1H0v-1h1z" fill="#FFF" mask="url(#1of0sjtr3h)"/>
    </g>
</svg>
