<?xml version="1.0" encoding="UTF-8"?>
<svg width="20px" height="20px" viewBox="0 0 20 20" version="1.1" xmlns="http://www.w3.org/2000/svg" xmlns:xlink="http://www.w3.org/1999/xlink">
    <title>BD720C6C-698D-B792-2A38-CAC870DE3754</title>
    <defs>
        <rect id="path-1" x="0" y="0" width="20" height="20"></rect>
    </defs>
    <g id="💎-Components" stroke="none" stroke-width="1" fill="none" fill-rule="evenodd">
        <g id="Icons/Grid" transform="translate(-1050.000000, -1062.000000)">
            <g id="20dp" transform="translate(62.000000, 941.000000)">
                <g id="Black" transform="translate(954.000000, 0.000000)">
                    <g id="Icon-/-20-/-Black" transform="translate(34.000000, 41.000000)">
                        <g id="Icons-/-20-/-ic_cubelist_black" transform="translate(0.000000, 80.000000)">
                            <mask id="mask-2" fill="white">
                                <use xlink:href="#path-1"></use>
                            </mask>
                            <g id="Icons-/-20-/-ic_cubelist_black-(Background/Mask)"></g>
                            <path d="M0,2 C0,2.55228472 0.447715759,3 1,3 L17,3 C17.5522842,3 18,2.55228472 18,2 C18,1.44771528 17.5522842,1 17,1 L1,1 C0.447715282,1 0,1.44771528 0,2 Z M0,8.5 C0,9.05228519 0.447715759,9.5 1,9.5 L17,9.5 C17.5522842,9.5 18,9.05228519 18,8.5 C18,7.94771528 17.5522842,7.5 17,7.5 L1,7.5 C0.447715282,7.5 0,7.94771528 0,8.5 Z M1,14 L11,14 C11.5522852,14 12,14.4477148 12,15 C12,15.5522852 11.5522842,16 11,16 L1,16 C0.447715044,16 0,15.5522852 0,15 C0,14.4477148 0.447715282,14 1,14 Z M20,15.5 L14.75,12.4689112 L14.75,18.5310879 L20,15.5 Z" id="Union" fill="#000000" mask="url(#mask-2)"></path>
                        </g>
                    </g>
                </g>
            </g>
        </g>
    </g>
</svg>