<?xml version="1.0" encoding="UTF-8"?>
<svg width="20px" height="59px" viewBox="0 0 20 59" version="1.1" xmlns="http://www.w3.org/2000/svg" xmlns:xlink="http://www.w3.org/1999/xlink">
    <title>BC6465A4-9BF1-7226-6290-8681DC829284</title>
    <g id="💎-Components" stroke="none" stroke-width="1" fill="none" fill-rule="evenodd">
        <g id="Icons/Grid" transform="translate(-1734.000000, -1116.000000)">
            <g id="20dp" transform="translate(62.000000, 941.000000)">
                <g id="Black" transform="translate(954.000000, 0.000000)">
                    <g id="Icon-/-20-/-Black" transform="translate(34.000000, 41.000000)">
                        <g id="icons-/-20-/-ic_handwriting_off_on" transform="translate(684.000000, 134.000000)">
                            <g id="Property-1=20,-Property-2=ic_handwriting_black">
                                <path d="M0,0 L20,0 L20,20 L0,20 L0,0 Z" id="Property-1=20,-Property-2=ic_handwriting_black-(Background)"></path>
                                <path d="M1,17.5 C1,17.7761424 1.22385785,18 1.5,18 L18.5,18 C18.7761421,18 19,17.7761424 19,17.5 C19,17.2238576 18.7761421,17 18.5,17 L1.5,17 C1.22385794,17 1,17.2238576 1,17.5 Z M1.5,12 L18.5,12 C18.7761421,12 19,12.2238574 19,12.5 C19,12.7761421 18.7761421,13 18.5,13 L1.5,13 C1.2238583,13 1,12.7761426 1,12.5 C1,12.2238574 1.22385836,12 1.5,12 Z M1,7.5 C1,7.77614212 1.22385871,8 1.5,8 L9.5,8 C9.77614307,8 10,7.77614212 10,7.5 C10,7.22385788 9.77614307,7 9.5,7 L1.5,7 C1.22385877,7 1,7.22385788 1,7.5 Z M1,2.5 C1,2.77614209 1.22385913,3 1.5,3 L9.5,3 C9.77614403,3 10,2.77614191 10,2.5 C10,2.22385767 9.77614403,2 9.5,2 L1.5,2 C1.22385925,2 1,2.22385785 1,2.5 Z M18.8737335,5.83219481 L16.2075329,8.83215666 C16.0240905,9.03856324 15.708056,9.05717899 15.5016499,8.87373686 C15.2952438,8.69029473 15.2766273,8.37425946 15.4600697,8.16785383 L17.3867378,6 L12.5,6 C12.2238584,6 12,5.77614307 12,5.5 C12,5.22385788 12.2238584,5 12.5,5 L17.3865509,5 L15.4596272,2.83218503 C15.2761693,2.62579273 15.2947614,2.30975653 15.5011539,2.12629917 C15.7075462,1.94284181 16.0235818,1.96143277 16.2070398,2.16782603 L18.8699207,5.16360331 C18.9507363,5.25242091 19,5.37045717 19,5.5 C19,5.50254869 19,5.50509405 19,5.50763464 C18.9986992,5.59083223 18.9771329,5.66910601 18.9399891,5.73771143 C18.9219641,5.77104139 18.8998793,5.80277586 18.8737335,5.83219481 Z" id="Union" fill="#000000"></path>
                            </g>
                            <g id="Property-1=20,-Property-2=ic_handwriting_primary" transform="translate(0.000000, 39.000000)">
                                <path d="M0,0 L20,0 L20,20 L0,20 L0,0 Z" id="Property-1=20,-Property-2=ic_handwriting_primary-(Background)"></path>
                                <path d="M1,17.5 C1,17.7761424 1.22385785,18 1.5,18 L18.5,18 C18.7761421,18 19,17.7761423 19,17.5 C19,17.2238576 18.7761421,17 18.5,17 L1.5,17 C1.22385794,17 1,17.2238576 1,17.5 Z M1.5,12 L18.5,12 C18.7761421,12 19,12.2238574 19,12.5 C19,12.7761421 18.7761421,13 18.5,13 L1.5,13 C1.2238583,13 1,12.7761421 1,12.5 C1,12.2238574 1.22385836,12 1.5,12 Z M1,7.5 C1,7.77614212 1.22385871,8 1.5,8 L9.5,8 C9.77614307,8 10,7.77614212 10,7.5 C10,7.22385788 9.77614307,7 9.5,7 L1.5,7 C1.22385877,7 1,7.22385788 1,7.5 Z M1,2.5 C1,2.77614209 1.22385913,3 1.5,3 L9.5,3 C9.77614403,3 10,2.77614191 10,2.5 C10,2.22385767 9.77614403,2 9.5,2 L1.5,2 C1.22385925,2 1,2.22385785 1,2.5 Z M18.8737335,5.83219481 L16.2075329,8.83215666 C16.0240905,9.03856324 15.708056,9.05717899 15.5016499,8.87373686 C15.2952438,8.69029473 15.2766273,8.37425946 15.4600697,8.16785383 L17.3867378,6 L12.5,6 C12.2238584,6 12,5.77614307 12,5.5 C12,5.22385788 12.2238584,5 12.5,5 L17.3865509,5 L15.4596272,2.83218503 C15.2761693,2.62579273 15.2947614,2.30975653 15.5011539,2.12629917 C15.7075462,1.94284181 16.0235818,1.96143277 16.2070398,2.16782603 L18.8699207,5.16360331 C18.9507363,5.25242091 19,5.37045717 19,5.5 C19,5.50254869 19,5.50509405 19,5.50763464 C18.9986992,5.59083223 18.9771329,5.66910601 18.9399891,5.73771143 C18.9219641,5.77104139 18.8998793,5.80277586 18.8737335,5.83219481 Z" id="Union" fill="#FF664D"></path>
                            </g>
                        </g>
                    </g>
                </g>
            </g>
        </g>
    </g>
</svg>