<?xml version="1.0" encoding="UTF-8"?>
<svg width="16px" height="16px" viewBox="0 0 16 16" version="1.1" xmlns="http://www.w3.org/2000/svg" xmlns:xlink="http://www.w3.org/1999/xlink">
    <title>E84CE29C-B5C5-29DD-7BE3-DCF058C23AFB</title>
    <g id="💎-Components" stroke="none" stroke-width="1" fill="none" fill-rule="evenodd">
        <g id="Icons/Grid" transform="translate(-1056.000000, -805.000000)">
            <g id="16dp" transform="translate(62.000000, 729.000000)">
                <g id="Black" transform="translate(954.000000, 0.000000)">
                    <g id="Group-5836" transform="translate(40.000000, 39.999999)">
                        <g id="Icons-/-16-/-ic_video_grey06" transform="translate(0.000000, 36.000001)">
                            <rect id="area" x="0" y="0" width="16" height="16"></rect>
                            <path d="M8.34640949,2.60000063 L12.8497424,10.4000007 C12.9601993,10.5913177 12.8946493,10.8359539 12.7033323,10.9464108 C12.6425246,10.9815182 12.5735469,11.0000007 12.5033322,11.0000007 L3.49666728,11.0000007 C3.27575338,11.0000007 3.09666727,10.8209146 3.09666727,10.6000007 C3.09666727,10.529786 3.11514978,10.4608084 3.15025711,10.4000007 L7.65358917,2.60000065 C7.76404612,2.4086836 8.00868229,2.34313354 8.19999934,2.45359049 C8.26080702,2.48869782 8.31130216,2.53919295 8.34640949,2.60000063 Z" id="Polygon-39" fill="#75777B" transform="translate(8.000000, 8.000000) scale(-1, -1) rotate(-90.000003) translate(-8.000000, -8.000000) "></path>
                        </g>
                    </g>
                </g>
            </g>
        </g>
    </g>
</svg>