<?xml version="1.0" encoding="UTF-8"?>
<svg width="20px" height="20px" viewBox="0 0 20 20" version="1.1" xmlns="http://www.w3.org/2000/svg" xmlns:xlink="http://www.w3.org/1999/xlink">
    <title>24AEB089-3A01-48D8-809C-CC79CA107A2C</title>
    <defs>
        <rect id="path-1" x="0" y="0" width="20" height="20"></rect>
    </defs>
    <g id="커뮤니티" stroke="none" stroke-width="1" fill="none" fill-rule="evenodd">
        <g id="글작성-&gt;-도구-&gt;-정렬_중앙" transform="translate(-164.000000, -519.000000)">
            <g id="하단" transform="translate(0.000000, 463.000000)">
                <g id="Tool-Bar" transform="translate(0.000000, 44.000000)">
                    <g id="Tools" transform="translate(20.000000, 12.000000)">
                        <g id="icons-/-20-/-ic_text_align_center" transform="translate(144.000000, 0.000000)">
                            <mask id="mask-2" fill="white">
                                <use xlink:href="#path-1"></use>
                            </mask>
                            <g id="align-(Background/Mask)"></g>
                            <path d="M1.5,2 L18.5,2 C18.7761424,2 19,2.22385763 19,2.5 C19,2.77614237 18.7761424,3 18.5,3 L1.5,3 C1.22385763,3 1,2.77614237 1,2.5 C1,2.22385763 1.22385763,2 1.5,2 Z" id="Rectangle" fill="#000000" mask="url(#mask-2)"></path>
                            <path d="M4.5,7 L15.5,7 C15.7761424,7 16,7.22385763 16,7.5 C16,7.77614237 15.7761424,8 15.5,8 L4.5,8 C4.22385763,8 4,7.77614237 4,7.5 C4,7.22385763 4.22385763,7 4.5,7 Z" id="Rectangle-Copy" fill="#000000" mask="url(#mask-2)"></path>
                            <path d="M4.5,17 L15.5,17 C15.7761424,17 16,17.2238576 16,17.5 C16,17.7761424 15.7761424,18 15.5,18 L4.5,18 C4.22385763,18 4,17.7761424 4,17.5 C4,17.2238576 4.22385763,17 4.5,17 Z" id="Rectangle-Copy" fill="#000000" mask="url(#mask-2)"></path>
                            <path d="M1.5,12 L18.5,12 C18.7761424,12 19,12.2238576 19,12.5 C19,12.7761424 18.7761424,13 18.5,13 L1.5,13 C1.22385763,13 1,12.7761424 1,12.5 C1,12.2238576 1.22385763,12 1.5,12 Z" id="Rectangle" fill="#000000" mask="url(#mask-2)"></path>
                        </g>
                    </g>
                </g>
            </g>
        </g>
    </g>
</svg>