<?xml version="1.0" encoding="UTF-8"?>
<svg width="20px" height="20px" viewBox="0 0 20 20" version="1.1" xmlns="http://www.w3.org/2000/svg" xmlns:xlink="http://www.w3.org/1999/xlink">
    <title>A774DD92-7C21-B398-0DD8-FB52442C6377</title>
    <defs>
        <rect id="path-1" x="0" y="0" width="20" height="20"></rect>
    </defs>
    <g id="💎-Components" stroke="none" stroke-width="1" fill="none" fill-rule="evenodd">
        <g id="Icons/Grid" transform="translate(-1290.000000, -982.000000)">
            <g id="20dp" transform="translate(62.000000, 941.000000)">
                <g id="Black" transform="translate(954.000000, 0.000000)">
                    <g id="Icon-/-20-/-Black" transform="translate(34.000000, 41.000000)">
                        <g id="Icons-/-20-/-ic_top_black" transform="translate(240.000000, 0.000000)">
                            <mask id="mask-2" fill="white">
                                <use xlink:href="#path-1"></use>
                            </mask>
                            <g id="Icons-/-20-/-ic_top_black-(Background/Mask)"></g>
                            <path d="M15.3535538,9.35355425 C15.1582916,9.54881667 14.8417093,9.5488167 14.6464472,9.35355425 L10.4965825,5.20368958 L10.496582,16.9990234 C10.496582,17.2751665 10.2727246,17.4990234 9.99658203,17.4990234 C9.72043943,17.4990234 9.49658202,17.2751665 9.49658203,16.9990234 L9.49658251,5.21052456 L5.35355306,9.35355377 C5.15829109,9.54881619 4.84170839,9.54881622 4.64644645,9.35355377 C4.45118451,9.1582918 4.45118451,8.84170912 4.64644648,8.64644718 L9.60575438,3.68713915 C9.69124509,3.58014942 9.81975269,3.5090363 9.96507597,3.5 L5,3.5 C4.72385836,3.5 4.5,3.2761429 4.5,3 C4.5,2.72385809 4.72385842,2.5 5,2.5 L15,2.5 C15.2761421,2.5 15.5,2.72385809 15.5,3 C15.5,3.2761429 15.2761431,3.5 15,3.5 L10.0280886,3.5 C10.0717483,3.50271511 10.1138906,3.51103294 10.1538048,3.52424324 C10.228436,3.54837239 10.2970586,3.58995175 10.3535538,3.64644682 L15.3535538,8.64644766 C15.5488159,8.84170963 15.5488159,9.15829231 15.3535538,9.35355425 Z" id="Union" fill="#25272B" fill-rule="nonzero" mask="url(#mask-2)"></path>
                        </g>
                    </g>
                </g>
            </g>
        </g>
    </g>
</svg>