<svg width="24" height="24" viewBox="0 0 24 24" xmlns="http://www.w3.org/2000/svg" xmlns:xlink="http://www.w3.org/1999/xlink">
    <defs>
        <path id="dqr5xyqara" d="M0 0h24v24H0z"/>
    </defs>
    <g fill="none" fill-rule="evenodd">
        <mask id="vx0x5nxrgb" fill="#fff">
            <use xlink:href="#dqr5xyqara"/>
        </mask>
        <path d="M5.25 6.143C5.25 2.908 7.805.25 11 .25s5.75 2.658 5.75 5.893v.107H18c.966 0 1.75.784 1.75 1.75v11A1.75 1.75 0 0 1 18 20.75H4A1.75 1.75 0 0 1 2.25 19V8c0-.966.784-1.75 1.75-1.75h1.25v-.107zM11 1.75c2.327 0 4.25 1.947 4.25 4.393l-.001.107H6.75l-.001-.107C6.75 3.697 8.673 1.75 11 1.75zm-7 6h14a.25.25 0 0 1 .25.25v11a.25.25 0 0 1-.25.25H4a.25.25 0 0 1-.25-.25V8A.25.25 0 0 1 4 7.75z" fill="#000" mask="url(#vx0x5nxrgb)"/>
        <g mask="url(#vx0x5nxrgb)" fill="#FFF" stroke-width="1.5">
            <path d="M14.127 10.25h2.745l.5 1.639 1.577-.779 1.94 1.941-.805 1.512 1.666.565v2.744l-1.639.5.779 1.577-1.941 1.94-1.512-.805-.565 1.666h-2.745l-.499-1.639-1.577.779-1.941-1.941.806-1.512-1.666-.565v-2.744l1.639-.5-.78-1.577 1.942-1.94 1.512.805.564-1.666z" stroke="#1D1D1B" stroke-linejoin="round"/>
            <path d="M17 16.5a1.5 1.5 0 1 1-3 0 1.5 1.5 0 0 1 3 0" stroke="#000"/>
        </g>
    </g>
</svg>
