<svg width="16" height="16" viewBox="0 0 16 16" xmlns="http://www.w3.org/2000/svg" xmlns:xlink="http://www.w3.org/1999/xlink">
    <defs>
        <path id="2xtrdypa3a" d="M0 0h16v16H0z"/>
    </defs>
    <g fill="none" fill-rule="evenodd">
        <mask id="uce8q39m1b" fill="#fff">
            <use xlink:href="#2xtrdypa3a"/>
        </mask>
        <path d="M10 1.5h2.667A1.833 1.833 0 0 1 14.5 3.333V6a.5.5 0 1 1-1 0V3.333a.833.833 0 0 0-.833-.833H10a.5.5 0 1 1 0-1zM2.744 2.744a.833.833 0 0 0-.244.59V6a.5.5 0 1 1-1 0V3.333A1.833 1.833 0 0 1 3.333 1.5H6a.5.5 0 1 1 0 1H3.333a.833.833 0 0 0-.589.244zM14.5 10v2.667a1.833 1.833 0 0 1-1.833 1.833H10a.5.5 0 1 1 0-1h2.667a.833.833 0 0 0 .833-.833V10a.5.5 0 1 1 1 0zm-12 0v2.667a.833.833 0 0 0 .833.833H6a.5.5 0 1 1 0 1H3.333A1.833 1.833 0 0 1 1.5 12.667V10a.5.5 0 1 1 1 0z" fill="#FFF" mask="url(#uce8q39m1b)"/>
    </g>
</svg>
