<?xml version="1.0" encoding="UTF-8"?>
<svg width="20px" height="60px" viewBox="0 0 20 60" version="1.1" xmlns="http://www.w3.org/2000/svg" xmlns:xlink="http://www.w3.org/1999/xlink">
    <title>E7576165-30B8-0B67-FF57-4C89F515351E</title>
    <defs>
        <rect id="path-1" x="0" y="0" width="20" height="20"></rect>
        <rect id="path-3" x="0" y="0" width="20" height="20"></rect>
    </defs>
    <g id="💎-Components" stroke="none" stroke-width="1" fill="none" fill-rule="evenodd">
        <g id="Icons/Grid" transform="translate(-1292.000000, -1115.000000)">
            <g id="20dp" transform="translate(62.000000, 941.000000)">
                <g id="Black" transform="translate(954.000000, 0.000000)">
                    <g id="Icon-/-20-/-Black" transform="translate(34.000000, 41.000000)">
                        <g id="icons-/-20-/-ic_text_italic_off_on" transform="translate(242.000000, 133.000000)">
                            <g id="Property-1=20,-Property-2=ic_text_italic_black">
                                <mask id="mask-2" fill="white">
                                    <use xlink:href="#path-1"></use>
                                </mask>
                                <g id="Property-1=20,-Property-2=ic_text_italic_black-(Background/Mask)"></g>
                                <path d="M7.37799716,17.4998779 L4,17.4998779 C3.72385761,17.4998779 3.5,17.7237358 3.5,17.9998779 C3.5,18.2760201 3.72385761,18.5000191 4,18.5000191 L7.73839378,18.5000191 C7.74628878,18.5000191 7.75416422,18.5000191 7.76201487,18.5000191 L11.5,18.5000191 C11.7761421,18.5000191 12,18.2760201 12,17.9998779 C12,17.7237358 11.7761421,17.4998779 11.5,17.4998779 L8.42202806,17.4998779 L12.6220284,3.49987793 L16,3.49987793 C16.2761421,3.49987793 16.5,3.27602029 16.5,2.99987793 C16.5,2.72373554 16.2761421,2.49975586 16,2.49975586 L12.2608194,2.49975586 C12.2534647,2.49975586 12.2461271,2.49975586 12.2388105,2.49975586 L8.5,2.49975586 C8.2238574,2.49975586 8,2.72373554 8,2.99987793 C8,3.27602029 8.2238574,3.49987793 8.5,3.49987793 L11.5779972,3.49987793 L7.37799716,17.4998779 Z" id="Union" fill="#000000" fill-rule="nonzero" mask="url(#mask-2)"></path>
                            </g>
                            <g id="Property-1=20,-Property-2=ic_text_italic_primary" transform="translate(0.000000, 40.000000)">
                                <mask id="mask-4" fill="white">
                                    <use xlink:href="#path-3"></use>
                                </mask>
                                <g id="Property-1=20,-Property-2=ic_text_italic_primary-(Background/Mask)"></g>
                                <path d="M7.37799716,17.5001221 L4,17.5001221 C3.72385761,17.5001221 3.5,17.7239799 3.5,18.0001221 C3.5,18.2762642 3.72385761,18.5002632 4,18.5002632 L7.73839378,18.5002632 C7.74628878,18.5002632 7.75416422,18.5002632 7.76201487,18.5002632 L11.5,18.5002632 C11.7761421,18.5002632 12,18.2762642 12,18.0001221 C12,17.7239799 11.7761421,17.5001221 11.5,17.5001221 L8.42202806,17.5001221 L12.6220284,3.50012207 L16,3.50012207 C16.2761421,3.50012207 16.5,3.27626443 16.5,3.00012207 C16.5,2.72397968 16.2761421,2.5 16,2.5 L12.2608194,2.5 C12.2534647,2.5 12.2461271,2.5 12.2388105,2.5 L8.5,2.5 C8.2238574,2.5 8,2.72397968 8,3.00012207 C8,3.27626443 8.2238574,3.50012207 8.5,3.50012207 L11.5779972,3.50012207 L7.37799716,17.5001221 Z" id="Union" fill="#FF664D" fill-rule="nonzero" mask="url(#mask-4)"></path>
                            </g>
                        </g>
                    </g>
                </g>
            </g>
        </g>
    </g>
</svg>