<?xml version="1.0" encoding="UTF-8"?>
<svg width="16px" height="17px" viewBox="0 0 16 17" version="1.1" xmlns="http://www.w3.org/2000/svg" xmlns:xlink="http://www.w3.org/1999/xlink">
    <title>7099FCE9-FD18-F34D-97D3-112876FF7FC4</title>
    <g id="💎-Components" stroke="none" stroke-width="1" fill="none" fill-rule="evenodd">
        <g id="Icons/Grid" transform="translate(-1236.000000, -841.000000)">
            <g id="16dp" transform="translate(62.000000, 729.000000)">
                <g id="Black" transform="translate(954.000000, 0.000000)">
                    <g id="Group-5836" transform="translate(40.000000, 39.999999)">
                        <g id="Icons-/-16-/-ic_note_grey05" transform="translate(180.000000, 72.086915)">
                            <rect id="area" x="0" y="0" width="16" height="16"></rect>
                            <path d="M5.33349686,8.68582249 L8.66682963,8.68582249 C8.94297271,8.68582249 9.16682963,8.90968037 9.16682963,9.18582249 C9.16682963,9.46196461 8.94297223,9.68582249 8.66682963,9.68582249 L5.33349686,9.68582249 C5.0573545,9.68582249 4.83349686,9.46196461 4.83349686,9.18582249 C4.83349686,8.90968037 5.0573545,8.68582249 5.33349686,8.68582249 Z M4.83349686,6.00405979 C4.83349686,5.72791719 5.0573545,5.50405979 5.33349686,5.50405979 L10.6668296,5.50405884 C10.9429727,5.50405884 11.1668296,5.72791672 11.1668296,6.00405884 C11.1668296,6.28020144 10.9429727,6.50405884 10.6668296,6.50405884 L5.33349686,6.50405979 C5.0573545,6.50405979 4.83349686,6.28020239 4.83349686,6.00405979 Z M10.2273622,15.4130859 C10.3545833,15.4130859 10.4770198,15.3645906 10.5697361,15.2774763 L14.3423744,11.7327805 C14.4429546,11.6382771 14.4999996,11.506402 14.4999996,11.3683901 L14.4999996,1.99000907 C14.4999996,1.56968474 14.3307968,1.16790086 14.0317445,0.872682422 C13.7329097,0.577679515 13.328959,0.413085938 12.9090896,0.413085938 L3.09090858,0.413085938 C2.67103927,0.413085938 2.26708828,0.577680498 1.96825423,0.872683495 C1.66920115,1.16790295 1.49999957,1.56968689 1.49999957,1.99001026 L1.49999957,13.8361635 C1.49999957,14.2564869 1.66920235,14.6582708 1.96825548,14.9534903 C2.26709013,15.2484932 2.67104142,15.4130859 3.09090989,15.4130859 L10.2273622,15.4130859 Z M3.09090977,14.4130859 C2.93212395,14.4130859 2.7811213,14.3507576 2.67078559,14.2418365 C2.5606684,14.133131 2.49999957,13.9870758 2.49999957,13.8361635 L2.49999957,1.99001014 C2.49999957,1.83909786 2.56066732,1.69304264 2.67078452,1.58433712 C2.78112071,1.47541606 2.93212371,1.41308594 3.09090869,1.41308594 L12.9090896,1.41308594 C13.0678745,1.41308594 13.2188774,1.47541511 13.3292137,1.58433616 C13.4393316,1.69304264 13.4999996,1.83909786 13.4999996,1.99000919 L13.4999996,11.1521025 L10.0293184,14.4130859 L3.09090977,14.4130859 Z" id="Union" fill="#A4A6AA"></path>
                        </g>
                    </g>
                </g>
            </g>
        </g>
    </g>
</svg>