<?xml version="1.0" encoding="UTF-8"?>
<svg width="16px" height="16px" viewBox="0 0 16 16" version="1.1" xmlns="http://www.w3.org/2000/svg" xmlns:xlink="http://www.w3.org/1999/xlink">
    <title>029BD4FC-7DE1-79B0-AA73-9D6EB2100F60</title>
    <g id="💎-Components" stroke="none" stroke-width="1" fill="none" fill-rule="evenodd">
        <g id="Icons/Grid" transform="translate(-1128.000000, -769.000000)">
            <g id="16dp" transform="translate(62.000000, 729.000000)">
                <g id="Black" transform="translate(954.000000, 0.000000)">
                    <g id="Group-5836" transform="translate(40.000000, 39.999999)">
                        <g id="Icons-/-16-/-ic_star" transform="translate(72.000000, 0.000001)">
                            <rect id="area" x="0" y="0" width="16" height="16"></rect>
                            <path d="M8.8492356,1.3658747 L10.4655891,3.96554938 C10.6032567,4.18696826 10.8219581,4.34586411 11.0750816,4.40837166 L14.0469999,5.14227149 C14.583178,5.2746779 14.9104996,5.81667276 14.7780932,6.35285089 C14.7413094,6.50180671 14.6707431,6.64030079 14.5718563,6.75761359 L12.5988995,9.09820073 C12.4308593,9.29755267 12.3473228,9.55465157 12.366094,9.81470223 L12.586487,12.8679519 C12.6262492,13.4188035 12.2119294,13.8975905 11.6610779,13.9373527 C11.5080456,13.948399 11.3545238,13.9240835 11.212395,13.8662883 L8.37668713,12.713176 C8.13516489,12.6149634 7.86483511,12.6149634 7.62331287,12.713176 L4.78760502,13.8662883 C4.27600126,14.0743268 3.6926159,13.8282386 3.48457734,13.3166349 C3.42678209,13.1745061 3.40246661,13.0209842 3.41351295,12.8679519 L3.63390598,9.81470223 C3.65267724,9.55465157 3.56914074,9.29755267 3.40110053,9.09820073 L1.42814367,6.75761359 C1.07219299,6.33533695 1.1259608,5.70445906 1.54823744,5.34850838 C1.66555024,5.24962161 1.80404432,5.17905536 1.95300014,5.14227149 L4.92491837,4.40837166 C5.17804188,4.34586411 5.39674327,4.18696826 5.53441094,3.96554938 L7.1507644,1.3658747 C7.44237854,0.896854827 8.05899423,0.753039065 8.5280141,1.0446532 C8.65831266,1.12566662 8.76822219,1.23557614 8.8492356,1.3658747 Z" id="Star-24" fill="#FFD850"></path>
                        </g>
                    </g>
                </g>
            </g>
        </g>
    </g>
</svg>