<?xml version="1.0" encoding="UTF-8"?>
<svg width="24px" height="24px" viewBox="0 0 24 24" version="1.1" xmlns="http://www.w3.org/2000/svg" xmlns:xlink="http://www.w3.org/1999/xlink">
    <title>13DA86BE-B8A0-F9E0-1727-147BCE7901C0</title>
    <g id="💎-Components" stroke="none" stroke-width="1" fill="none" fill-rule="evenodd">
        <g id="Icons/Grid" transform="translate(-840.000000, -1303.000000)">
            <g id="24dp" transform="translate(62.000000, 1263.000000)">
                <g id="White" transform="translate(122.000000, 0.000000)">
                    <g id="Icon-/-24-/-White" transform="translate(40.000000, 40.000000)">
                        <g id="Icons-/-24-/-ic_noteadd_white" transform="translate(616.000000, 0.000000)">
                            <rect id="area" x="0" y="0" width="24" height="24"></rect>
                            <path d="M2,21 L16.2105961,21 L22,16.3943596 L22,3 L2,3 L2,21 Z M0,21 C0,22.1045704 0.895430446,23 2,23 L16.2105961,23 C16.6628666,23 17.1017818,22.8467102 17.4557152,22.5651455 L23.245121,17.9595051 C23.722086,17.5800648 24,17.0038433 24,16.3943605 L24,3 C24,1.89543056 23.1045704,1 22,1 L2,1 C0.895430088,1 0,1.89543045 0,3 L0,21 Z" id="Vector-551-(Stroke)" fill="#FFFFFF"></path>
                            <path d="M8,11 L16,11 C16.5522852,11 17,11.4477152 17,12 C17,12.5522848 16.5522852,13 16,13 L8,13 C7.44771522,13 7,12.5522848 7,12 C7,11.4477152 7.44771522,11 8,11 Z" id="Vector-552-(Stroke)" fill="#FFFFFF"></path>
                            <path d="M7.99999978,11 L15.9999998,11 C16.552285,11 16.9999998,11.4477152 16.9999998,12 C16.9999998,12.5522847 16.552285,13 15.9999998,13 L7.99999978,13 C7.447715,13 6.99999978,12.5522847 6.99999978,12 C6.99999978,11.4477152 7.447715,11 7.99999978,11 Z" id="Vector-553-(Stroke)" fill="#FFFFFF" transform="translate(12.000000, 12.000000) scale(-1, -1) rotate(-90.000003) translate(-12.000000, -12.000000) "></path>
                        </g>
                    </g>
                </g>
            </g>
        </g>
    </g>
</svg>