<?xml version="1.0" encoding="UTF-8"?>
<svg width="20px" height="20px" viewBox="0 0 20 20" version="1.1" xmlns="http://www.w3.org/2000/svg" xmlns:xlink="http://www.w3.org/1999/xlink">
    <title>A071862C-7701-64C8-A1A0-C0C0CA6303BD</title>
    <defs>
        <rect id="path-1" x="0" y="0" width="20" height="20"></rect>
    </defs>
    <g id="💎-Components" stroke="none" stroke-width="1" fill="none" fill-rule="evenodd">
        <g id="Icons/Grid" transform="translate(-1130.000000, -1062.000000)">
            <g id="20dp" transform="translate(62.000000, 941.000000)">
                <g id="Black" transform="translate(954.000000, 0.000000)">
                    <g id="Icon-/-20-/-Black" transform="translate(34.000000, 41.000000)">
                        <g id="Icons-/-20-/-ic_move_black" transform="translate(80.000000, 80.000000)">
                            <mask id="mask-2" fill="white">
                                <use xlink:href="#path-1"></use>
                            </mask>
                            <g id="Icons-/-20-/-ic_move_black-(Background/Mask)"></g>
                            <path d="M2.5,4.5 L17.5,4.5 C17.7761421,4.5 18,4.72385764 18,5 C18,5.27614236 17.7761421,5.5 17.5,5.5 L2.5,5.5 C2.22385764,5.5 2,5.27614236 2,5 C2,4.72385764 2.22385764,4.5 2.5,4.5 Z M2.5,9.5 L17.5,9.5 C17.7761421,9.5 18,9.7238574 18,10 C18,10.2761426 17.7761421,10.5 17.5,10.5 L2.5,10.5 C2.22385764,10.5 2,10.2761426 2,10 C2,9.7238574 2.22385764,9.5 2.5,9.5 Z M2,15 C2,15.2761421 2.22385764,15.5 2.5,15.5 L17.5,15.5 C17.7761421,15.5 18,15.2761421 18,15 C18,14.7238579 17.7761421,14.5 17.5,14.5 L2.5,14.5 C2.22385764,14.5 2,14.7238579 2,15 Z" id="Union" fill="#000000" mask="url(#mask-2)"></path>
                        </g>
                    </g>
                </g>
            </g>
        </g>
    </g>
</svg>