<?xml version="1.0" encoding="UTF-8"?>
<svg width="20px" height="22px" viewBox="0 0 20 22" version="1.1" xmlns="http://www.w3.org/2000/svg" xmlns:xlink="http://www.w3.org/1999/xlink">
    <title>1CAE35D3-AA26-3C29-C3DD-4D6818F783F8</title>
    <defs>
        <rect id="path-1" x="0" y="0" width="20" height="21.3333321"></rect>
    </defs>
    <g id="💎-Components" stroke="none" stroke-width="1" fill="none" fill-rule="evenodd">
        <g id="Icons/Grid" transform="translate(-1570.000000, -982.000000)">
            <g id="20dp" transform="translate(62.000000, 941.000000)">
                <g id="Black" transform="translate(954.000000, 0.000000)">
                    <g id="Icon-/-20-/-Black" transform="translate(34.000000, 41.000000)">
                        <g id="Icons-/-20-/-ic_delete_black" transform="translate(520.000000, 0.000000)">
                            <mask id="mask-2" fill="white">
                                <use xlink:href="#path-1"></use>
                            </mask>
                            <g id="Icons-/-20-/-ic_delete_black-(Background/Mask)"></g>
                            <path d="M2,3.73339844 L18,3.73339844 C18.2761421,3.73339844 18.5,3.97217988 18.5,4.26673174 C18.5,4.5612836 18.2761421,4.80006504 18,4.80006504 L2,4.80006504 C1.72385761,4.80006504 1.5,4.5612836 1.5,4.26673174 C1.5,3.97217988 1.72385761,3.73339844 2,3.73339844 Z" id="Vector-2-(Stroke)" fill="#000000" mask="url(#mask-2)"></path>
                            <path d="M4.06840437,4.80006498 L4.93507027,18.66673 L15.063964,18.66673 L15.9306308,4.80006498 L4.06840437,4.80006498 Z M3.07061934,4.87101923 L3.9372859,18.7376834 C3.97230577,19.2980013 4.40860644,19.7333984 4.93507027,19.7333984 L15.063965,19.7333984 C15.5904284,19.7333984 16.0267296,19.2980013 16.0617495,18.7376834 L16.9284163,4.87101846 C16.9668951,4.25535679 16.5090943,3.73339844 15.9306308,3.73339844 L4.06840437,3.73339844 C3.48994026,3.73339844 3.03214048,4.25535755 3.07061934,4.87101923 Z" id="Rectangle-4259-(Stroke)" fill="#000000" mask="url(#mask-2)"></path>
                            <path d="M7.90039062,1.60009766 L12.10039,1.60009766 C12.6526747,1.60009766 13.1003904,2.07766011 13.1003904,2.66676418 L13.1003904,4.0534306 C13.1003904,4.34798241 12.876533,4.58676386 12.6003904,4.58676386 C12.3242478,4.58676386 12.1003904,4.34798241 12.1003904,4.0534306 L12.10039,2.66676418 L7.90039062,2.66676443 L7.90039062,4.0534306 C7.90039062,4.34798241 7.67653301,4.58676386 7.40039062,4.58676386 C7.12424824,4.58676386 6.90039062,4.34798241 6.90039062,4.0534306 L6.90039062,2.66676443 C6.90039062,2.07766113 7.34810555,1.60009766 7.90039062,1.60009766 Z" id="Rectangle-4260-(Stroke)" fill="#000000" mask="url(#mask-2)"></path>
                            <path d="M9,8.53333334 L9,13.8666668 C9,14.1612184 8.77614239,14.4000001 8.5,14.4000001 C8.22385761,14.4000001 8,14.1612184 8,13.8666668 L8,8.53333334 C8,8.23878146 8.22385761,8 8.5,8 C8.77614239,8 9,8.23878146 9,8.53333334 Z" id="Vector-3-(Stroke)" fill="#000000" mask="url(#mask-2)"></path>
                            <path d="M12,8.53333334 L12,13.8666668 C12,14.1612184 11.7761424,14.4000001 11.5,14.4000001 C11.2238576,14.4000001 11,14.1612184 11,13.8666668 L11,8.53333334 C11,8.23878146 11.2238576,8 11.5,8 C11.7761424,8 12,8.23878146 12,8.53333334 Z" id="Vector-4-(Stroke)" fill="#000000" mask="url(#mask-2)"></path>
                        </g>
                    </g>
                </g>
            </g>
        </g>
    </g>
</svg>