<?xml version="1.0" encoding="UTF-8"?>
<svg width="20px" height="20px" viewBox="0 0 20 20" version="1.1" xmlns="http://www.w3.org/2000/svg" xmlns:xlink="http://www.w3.org/1999/xlink">
    <title>7A9BF5E5-75E6-93E7-A16A-92BDAA578332</title>
    <defs>
        <rect id="path-1" x="0" y="0" width="20" height="20"></rect>
    </defs>
    <g id="💎-Components" stroke="none" stroke-width="1" fill="none" fill-rule="evenodd">
        <g id="Icons/Grid" transform="translate(-1170.000000, -1062.000000)">
            <g id="20dp" transform="translate(62.000000, 941.000000)">
                <g id="Black" transform="translate(954.000000, 0.000000)">
                    <g id="Icon-/-20-/-Black" transform="translate(34.000000, 41.000000)">
                        <g id="Icons/20/ic_boardbasic_grey05" transform="translate(120.000000, 80.000000)">
                            <mask id="mask-2" fill="white">
                                <use xlink:href="#path-1"></use>
                            </mask>
                            <g id="Icons/20/ic_boardbasic_grey05-(Background/Mask)"></g>
                            <path d="M15,5.5 L15,6.5 L5,6.5 L5,5.5 L15,5.5 Z M15,8.5 L15,9.5 L5,9.5 L5,8.5 L15,8.5 Z M11,11.5 L11,12.5 L5,12.5 L5,11.5 L11,11.5 Z M2.5,2 L17.5,2 L17.5,18 L2.5,18 L2.5,2 Z M1.5,18 C1.5,18.5522847 1.94771647,19 2.5,19 L17.5,19 C18.0522848,19 18.5,18.5522847 18.5,18 L18.5,2 C18.5,1.4477157 18.0522847,1 17.5,1 L2.5,1 C1.94771576,1 1.5,1.44771647 1.5,2 L1.5,18 Z" id="Vector" fill="#A4A6AA" mask="url(#mask-2)"></path>
                        </g>
                    </g>
                </g>
            </g>
        </g>
    </g>
</svg>