<?xml version="1.0" encoding="UTF-8"?>
<svg width="24px" height="24px" viewBox="0 0 24 24" version="1.1" xmlns="http://www.w3.org/2000/svg" xmlns:xlink="http://www.w3.org/1999/xlink">
    <title>520C393C-C802-B69D-F57A-970B80105717</title>
    <defs>
        <rect id="path-1" x="0" y="0" width="24" height="24"></rect>
    </defs>
    <g id="💎-Components" stroke="none" stroke-width="1" fill="none" fill-rule="evenodd">
        <g id="Icons/Grid" transform="translate(-752.000000, -1303.000000)">
            <g id="24dp" transform="translate(62.000000, 1263.000000)">
                <g id="White" transform="translate(122.000000, 0.000000)">
                    <g id="Icon-/-24-/-White" transform="translate(40.000000, 40.000000)">
                        <g id="Icons-/-24-/-ic_contraction_white" transform="translate(528.000000, 0.000000)">
                            <mask id="mask-2" fill="white">
                                <use xlink:href="#path-1"></use>
                            </mask>
                            <g id="Icons-/-24-/-ic_contraction_white-(Background/Mask)"></g>
                            <path d="M20.9999771,9 L17.6666441,9 C16.9593999,9 16.2811227,8.71904796 15.7810259,8.21895123 C15.280929,7.71885484 14.9999772,7.04057825 14.9999771,6.33333349 L14.9999771,3 C14.9999771,2.4477154 15.4476914,2 15.9999762,2 C16.5522609,2 16.9999771,2.44771522 16.9999771,3 L16.9999771,6.33333349 C16.9999771,6.51014376 17.0702152,6.67971291 17.19524,6.80473757 C17.3202644,6.92976199 17.4898334,7 17.6666441,7 L20.9999771,7 C21.5522619,7 22,7.44771475 22,8 C22,8.5522843 21.5522619,9 20.9999771,9 Z M6.804739,6.80474138 C6.9297633,6.67971717 7,6.51014781 7,6.33333683 L7,3 C7,2.44771874 7.44771618,2 8,2 C8.55228573,2 9,2.44771862 9,3 L9,6.33333683 C9,7.04058087 8.71904957,7.71885759 8.21895266,8.21895456 C7.7188558,8.7190516 7.04057896,9 6.33333492,9 L3,9 C2.44771671,9 2,8.55228859 2,8 C2,7.44771904 2.44771659,7 3,7 L6.33333492,7 C6.5101459,7 6.67971481,6.92976572 6.804739,6.80474138 Z M15,21 L15,17.666667 C15,16.9594223 15.2809516,16.2811456 15.7810478,15.7810488 C16.2811446,15.2809524 16.9594214,15 17.666666,15 L21,15 C21.5522848,15 22,15.4477143 22,16 C22,16.5522838 21.5522848,17 21,17 L17.666667,17 C17.4898567,17 17.3202875,17.0702381 17.1952629,17.1952629 C17.0702381,17.3202875 17,17.4898567 17,17.666667 L17,21 C17,21.5522848 16.5522847,22 16,22 C15.4477153,22 15,21.5522848 15,21 Z M7,21 L7,17.666667 C7,17.4898562 6.9297625,17.3202872 6.80473804,17.1952629 C6.67971347,17.0702381 6.510144,17 6.33333349,17 L3,17 C2.4477154,17 2,16.5522847 2,16 C2,15.4477153 2.44771522,15 3,15 L6.33333349,15 C7.04057801,15 7.71885455,15.2809525 8.21895123,15.7810488 C8.71904808,16.281146 9,16.9594219 9,17.666666 L9,21 C9,21.5522848 8.55228525,22 8,22 C7.4477157,22 7,21.5522848 7,21 Z" id="Vector" fill="#FFFFFF" mask="url(#mask-2)"></path>
                        </g>
                    </g>
                </g>
            </g>
        </g>
    </g>
</svg>