<svg width="24" height="24" viewBox="0 0 24 24" xmlns="http://www.w3.org/2000/svg" xmlns:xlink="http://www.w3.org/1999/xlink">
    <defs>
        <path id="jaynsftj4a" d="M0 0h24v24H0z"/>
    </defs>
    <g fill="none" fill-rule="evenodd">
        <mask id="ywpqi0yoqb" fill="#fff">
            <use xlink:href="#jaynsftj4a"/>
        </mask>
        <path d="M2 12.75a9.25 9.25 0 1 0 18.415-1.262.75.75 0 0 1 1.486-.203c.065.48.099.968.099 1.465 0 5.937-4.813 10.75-10.75 10.75S.5 18.687.5 12.75 5.313 2 11.25 2c.497 0 .986.034 1.465.1a.75.75 0 0 1-.203 1.485A9.25 9.25 0 0 0 2 12.75zm5 0a4.25 4.25 0 0 0 8.5 0 .75.75 0 1 1 1.5 0A5.75 5.75 0 1 1 11.25 7a.75.75 0 1 1 0 1.5A4.25 4.25 0 0 0 7 12.75zM18.947 1.682l.297 3.267 3.267.297a.75.75 0 0 1 .462 1.277l-2.828 2.828a.75.75 0 0 1-.53.22h-4.243a.75.75 0 0 1-.75-.75V4.578a.75.75 0 0 1 .22-.53L17.67 1.22a.75.75 0 0 1 1.277.462zM16.122 4.89v3.182h3.182l1.476-1.476-2.294-.209a.75.75 0 0 1-.68-.679l-.208-2.294-1.476 1.476zM15.78 9.28l-3.5 3.5a.75.75 0 1 1-1.06-1.06l3.5-3.5a.75.75 0 0 1 1.06 1.06z" fill="#FFF" mask="url(#ywpqi0yoqb)"/>
    </g>
</svg>
