<?xml version="1.0" encoding="UTF-8"?>
<svg width="24px" height="68px" viewBox="0 0 24 68" version="1.1" xmlns="http://www.w3.org/2000/svg" xmlns:xlink="http://www.w3.org/1999/xlink">
    <title>97B8FC5B-D497-C03C-B6E0-2FA45C46B74B</title>
    <defs>
        <rect id="path-1" x="0" y="0" width="24" height="24"></rect>
        <rect id="path-3" x="0" y="0" width="24" height="24"></rect>
    </defs>
    <g id="💎-Components" stroke="none" stroke-width="1" fill="none" fill-rule="evenodd">
        <g id="Icons/Grid" transform="translate(-1414.000000, -1456.000000)">
            <g id="24dp" transform="translate(62.000000, 1263.000000)">
                <g id="Black" transform="translate(954.000000, 0.000000)">
                    <g id="Icon-/-24-/-Black" transform="translate(40.000000, 40.000000)">
                        <g id="Group-5838" transform="translate(196.000000, 153.000000)">
                            <g id="icons-/-24-/-ic_thumdown_off_on" transform="translate(162.000000, 0.000000)">
                                <g id="Property-1=24,-Property-2=ic_thumb_down_on" transform="translate(0.000000, 44.000000)">
                                    <mask id="mask-2" fill="white">
                                        <use xlink:href="#path-1" transform="translate(12.000000, 12.000000) scale(1, -1) translate(-12.000000, -12.000000) "></use>
                                    </mask>
                                    <g id="Property-1=24,-Property-2=ic_thumb_down_on-(Background/Mask)" transform="translate(12.000000, 12.000000) scale(1, -1) translate(-12.000000, -12.000000) "></g>
                                    <path d="M15.5010033,4 C16.16767,4.29847654 16.5010033,4.63180987 16.5010033,5 L16.5010023,11.706893 C16.4924658,11.8297898 16.4797826,11.9208647 16.4629526,11.9801178 L14.2861339,19.6440635 C14.2390427,19.8190812 14.1435919,19.9769946 14.0121782,20.1017975 C13.5644339,20.5246546 13.1887349,20.6463954 12.8850813,20.46702 C12.087705,19.9959906 11.0482678,19.2504517 10.6510019,18.3846159 C10.3081794,17.6374382 10.3336405,16.5610714 10.4306583,15.7247229 C10.5057154,15.0776877 10.0190277,14.4615384 9.36765337,14.4615383 L4.87801598,14.4615383 C4.70252705,14.4609198 4.53028929,14.4141367 4.37875067,14.3256331 C3.84354134,14.0142204 3.59748806,13.6850829 3.64059083,13.3382206 L4.66587827,5.08739622 C4.68333328,4.93895888 4.7345281,4.79656959 4.81474558,4.67046238 C5.10034915,4.22348746 5.39024368,4 5.68442917,4 L15.5010033,4 Z M19.2010031,12 L19.2010031,4 L20.5010033,4 L20.5010033,12 L19.2010031,12 Z" id="Vector" fill="#FF664D" mask="url(#mask-2)"></path>
                                    <path d="M5.43449402,4.96917152 L4.38302255,13.4307079 C4.36448777,13.5798635 4.48081374,13.7115383 4.63111484,13.7115383 L9.36580944,13.7115383 C10.5219316,13.7115383 11.2938409,14.7764845 11.1738186,15.8111448 C11.0776844,16.6398745 11.0821743,17.5299053 11.3308306,18.0718489 C11.4656849,18.3657627 11.7351332,18.685545 12.1064529,19.0063229 C12.4702988,19.3206444 12.8888292,19.5992403 13.2646961,19.8212738 C13.2901897,19.8363333 13.3095503,19.8401957 13.3238153,19.8408756 C13.3394718,19.8416204 13.3583851,19.8388186 13.3794947,19.8295193 C13.4221363,19.8107328 13.4697943,19.7666903 13.4914751,19.6903572 L15.7396469,11.775197 C15.7459574,11.7529807 15.7491589,11.7299943 15.7491589,11.706893 L15.7491598,5.00000083 C15.7491598,4.86192906 15.6372318,4.75 15.4991598,4.75 L5.68258524,4.75 C5.55643642,4.75 5.45005047,4.84398311 5.43449402,4.96917152 Z M5.68258524,3.25 L15.4991598,3.25 C16.4656572,3.25 17.2491598,4.03350055 17.2491598,5.00000107 L17.2491589,11.706893 C17.2491589,11.8685832 17.2267513,12.0294962 17.1825714,12.1850386 L14.9343996,20.1001968 C14.6499882,21.1015263 13.4959383,21.7000408 12.5017796,21.1127682 C12.0802698,20.8637714 11.5803928,20.5340824 11.1258602,20.1414185 C10.6788011,19.7552099 10.229897,19.2693052 9.9674859,18.6973829 C9.53049755,17.7449713 9.58590841,16.4822683 9.68381023,15.6383009 C9.69680452,15.5262814 9.66075993,15.4121437 9.59107924,15.3276405 C9.52391052,15.2461843 9.44366217,15.2115383 9.36580944,15.2115383 L4.6311146,15.2115383 C3.57900023,15.2115383 2.76472882,14.2898149 2.89447144,13.2457333 L3.945943,4.78419685 C4.05483723,3.9078899 4.79953492,3.25 5.68258524,3.25 Z M19.1991596,3.25 L20.4991589,3.25 C20.913372,3.25 21.2491589,3.58578777 21.2491589,4 L21.2491589,12.000001 C21.2491589,12.4142141 20.913372,12.75 20.4991589,12.75 L19.1991596,12.75 C18.7849464,12.75 18.4491596,12.4142141 18.4491596,12.000001 L18.4491596,4 C18.4491596,3.80108881 18.5281773,3.61032337 18.6688299,3.46967107 C18.8094816,3.32901877 19.000247,3.25 19.1991596,3.25 Z" id="Vector-(Stroke)" fill="#FF664D" mask="url(#mask-2)"></path>
                                </g>
                                <g id="Property-1=24,-Property-2=ic_thumb_down_off">
                                    <mask id="mask-4" fill="white">
                                        <use xlink:href="#path-3" transform="translate(12.000000, 12.000000) scale(1, -1) translate(-12.000000, -12.000000) "></use>
                                    </mask>
                                    <g id="Property-1=24,-Property-2=ic_thumb_down_off-(Background/Mask)" transform="translate(12.000000, 12.000000) scale(1, -1) translate(-12.000000, -12.000000) "></g>
                                    <path d="M19.6191406,11.8754883 L17.383847,11.8754883 C16.4173493,11.8754883 15.6338463,11.0919873 15.6338463,10.1254883 L15.6338463,3.65490055 C15.6338463,2.68840313 16.4173474,1.9048996 17.3838463,1.9048996 L19.6191398,1.9048996 C20.5856374,1.9048996 21.3691406,2.68840027 21.3691406,3.6548996 L21.3691406,10.1254874 C21.3691406,11.091985 20.5856397,11.8754883 19.6191406,11.8754883 Z M19.8691406,10.1254874 L19.8691406,3.6548996 C19.8691406,3.51682901 19.7572117,3.4048996 19.6191398,3.4048996 L17.3838463,3.4048996 C17.2457759,3.4048996 17.1338463,3.51682854 17.1338463,3.65490055 L17.1338463,10.1254883 C17.1338463,10.2635587 17.2457752,10.3754883 17.383847,10.3754883 L19.6191406,10.3754883 C19.757211,10.3754883 19.8691406,10.2635594 19.8691406,10.1254874 Z" id="Rectangle-4301-(Stroke)" fill="#CBCDCF" mask="url(#mask-4)"></path>
                                    <path d="M12.2342324,20.772305 C11.7860303,20.5108853 11.2469392,20.1603491 10.7556567,19.7409796 C10.2724276,19.3284844 9.78720379,18.8089778 9.50702286,18.1983268 C9.26374483,17.6681051 9.17140532,17.061079 9.1461072,16.5045023 C9.12044048,15.9398189 9.16189623,15.3758917 9.21993685,14.9027472 C9.23343563,14.7927032 9.19847345,14.6805182 9.12979317,14.5970788 C9.0635004,14.5165396 8.98353481,14.4817133 8.90534687,14.4817133 L3.75006294,14.4817133 C2.69794846,14.4817133 1.88367748,13.5599914 2.0134201,12.5159092 L3.14136124,3.43898773 C3.25025558,2.56267929 3.99495506,1.90479088 4.87800407,1.90479088 L15.3828125,1.90479088 C16.3493109,1.90479088 17.1328125,2.68829155 17.1328125,3.65479088 L17.1328125,10.8232203 C17.1328125,10.9849129 17.1104036,11.1458254 17.0662248,11.3013659 L14.6651125,19.754986 C14.3801394,20.7582943 13.2270377,21.3513718 12.2342324,20.772305 Z M13.2221878,19.3451469 L15.6233001,10.8915262 C15.6296113,10.8693066 15.6328125,10.8463192 15.6328125,10.8232203 L15.6328125,3.65479088 C15.6328125,3.51671982 15.5208835,3.40479088 15.3828125,3.40479088 L4.87800407,3.40479088 C4.75185394,3.40479088 4.64546871,3.49877357 4.62991238,3.62396049 L3.50197124,12.7008839 C3.48343658,12.8500395 3.59976196,12.9817133 3.75006294,12.9817133 L8.90534687,12.9817133 C10.0601516,12.9817133 10.8362694,14.0460644 10.7087765,15.0853829 C10.65698,15.5076261 10.6239338,15.9825993 10.6445603,16.4363928 C10.665555,16.898293 10.7403035,17.2893209 10.8703671,17.5727928 C11.0205073,17.9000218 11.3214173,18.2517416 11.7295265,18.6001124 C12.1295819,18.9416089 12.5870335,19.2415785 12.9899712,19.4765971 C13.0334203,19.5019393 13.0708113,19.5017993 13.1094856,19.4847316 C13.1530292,19.465515 13.200593,19.4211762 13.2221878,19.3451469 Z" id="Vector-4-(Stroke)" fill="#CBCDCF" mask="url(#mask-4)"></path>
                                </g>
                            </g>
                        </g>
                    </g>
                </g>
            </g>
        </g>
    </g>
</svg>