<?xml version="1.0" encoding="UTF-8"?>
<svg width="24px" height="24px" viewBox="0 0 24 24" version="1.1" xmlns="http://www.w3.org/2000/svg" xmlns:xlink="http://www.w3.org/1999/xlink">
    <title>742DE1A6-3F9B-44CA-70EC-C539E4683F8D</title>
    <g id="💎-Components" stroke="none" stroke-width="1" fill="none" fill-rule="evenodd">
        <g id="Icons/Grid" transform="translate(-1232.000000, -1390.000000)">
            <g id="24dp" transform="translate(62.000000, 1263.000000)">
                <g id="Black" transform="translate(954.000000, 0.000000)">
                    <g id="Icon-/-24-/-Black" transform="translate(40.000000, 40.000000)">
                        <g id="Icons-/-24-/-ic_noteadd_black" transform="translate(176.000000, 87.000000)">
                            <rect id="area" x="0" y="0" width="24" height="24"></rect>
                            <path d="M2,21 L16.2105961,21 L22,16.3943596 L22,3 L2,3 L2,21 Z M0,21 C0,22.1045704 0.895430446,23 2,23 L16.2105961,23 C16.6628666,23 17.1017818,22.8467102 17.4557152,22.5651455 L23.245121,17.9595051 C23.722086,17.5800648 24,17.0038433 24,16.3943605 L24,3 C24,1.89543056 23.1045704,1 22,1 L2,1 C0.895430088,1 0,1.89543045 0,3 L0,21 Z" id="Vector" fill="#000000"></path>
                            <path d="M12,7 C12.5522847,7 13,7.44771528 13,8 L13,11 L16,11 C16.5522847,11 17,11.4477153 17,12 C17,12.5522847 16.5522847,13 16,13 L13,13 L13,16 C13,16.5522847 12.5522847,17 12,17 C11.4477153,17 11,16.5522847 11,16 L11,13 L8,13 C7.44771552,13 7,12.5522842 7,12 C7,11.4477148 7.44771528,11 8,11 L11,11 L11,8 C11,7.44771552 11.4477153,7 12,7 Z" id="Vector" fill="#000000"></path>
                        </g>
                    </g>
                </g>
            </g>
        </g>
    </g>
</svg>