<?xml version="1.0" encoding="UTF-8"?>
<svg width="16px" height="16px" viewBox="0 0 16 16" version="1.1" xmlns="http://www.w3.org/2000/svg" xmlns:xlink="http://www.w3.org/1999/xlink">
    <title>6E910EB2-BC2D-E67D-30B9-8BBF09CC901F</title>
    <g id="💎-Components" stroke="none" stroke-width="1" fill="none" fill-rule="evenodd">
        <g id="Icons/Grid" transform="translate(-1416.000000, -805.000000)">
            <g id="16dp" transform="translate(62.000000, 729.000000)">
                <g id="Black" transform="translate(954.000000, 0.000000)">
                    <g id="Group-5836" transform="translate(40.000000, 39.999999)">
                        <g id="Icons-/-16-/-ic_document_grey06" transform="translate(360.000000, 36.000001)">
                            <path d="M0,0 L16,0 L16,16 L0,16 L0,0 Z" id="area"></path>
                            <path d="M5.5,11 L10.5,11 C10.7761421,11 11,11.2238579 11,11.5 C11,11.7761421 10.7761421,12 10.5,12 L5.5,12 C5.2238574,12 5,11.7761421 5,11.5 C5,11.2238579 5.22385764,11 5.5,11 Z M5,9 C5,9.27614212 5.2238574,9.5 5.5,9.5 L10.5,9.5 C10.7761421,9.5 11,9.27614212 11,9 C11,8.72385788 10.7761421,8.5 10.5,8.5 L5.5,8.5 C5.22385764,8.5 5,8.72385788 5,9 Z M13,15 L3,15 C2.44771504,15 2,14.5522852 2,14 L2,2 C2,1.44771564 2.44771528,1 3,1 L9.16666651,1 L9.23883724,1.06062324 C9.29785252,1.09277066 9.34967232,1.13646141 9.39126492,1.18866271 L14,5.05999994 L14,14 C14,14.5522842 13.5522842,15 13,15 Z M9.5,2.58598673 L12.3738251,5 L9.5,5 L9.5,2.58598673 Z M8.5,5.5 L8.5,2 L3,2 L3,14 L13,14 L13,6 L9,6 C8.7238574,6 8.5,5.77614212 8.5,5.5 Z" id="Union" fill="#75777B"></path>
                        </g>
                    </g>
                </g>
            </g>
        </g>
    </g>
</svg>