<?xml version="1.0" encoding="UTF-8"?>
<svg width="24px" height="24px" viewBox="0 0 24 24" version="1.1" xmlns="http://www.w3.org/2000/svg" xmlns:xlink="http://www.w3.org/1999/xlink">
    <title>0B396848-1B72-9701-20C2-1C3CA73DEE41</title>
    <defs>
        <rect id="path-1" x="0" y="0" width="24" height="24"></rect>
    </defs>
    <g id="💎-Components" stroke="none" stroke-width="1" fill="none" fill-rule="evenodd">
        <g id="Icons/Grid" transform="translate(-1144.000000, -1303.000000)">
            <g id="24dp" transform="translate(62.000000, 1263.000000)">
                <g id="Black" transform="translate(954.000000, 0.000000)">
                    <g id="Icon-/-24-/-Black" transform="translate(40.000000, 40.000000)">
                        <g id="Icons-/-24-/-ic_mail_grey04" transform="translate(88.000000, 0.000000)">
                            <mask id="mask-2" fill="white">
                                <use xlink:href="#path-1"></use>
                            </mask>
                            <g id="Icons-/-24-/-ic_mail_grey04-(Background/Mask)"></g>
                            <path d="M18.1425781,2.79907227 C19.2471476,2.79907227 20.1425781,3.60495967 20.1425781,4.59907222 L20.1425781,18.9990711 C20.1425781,19.993185 19.2471476,20.7990723 18.1425781,20.7990723 L6.14257812,20.7990723 C5.03800857,20.7990723 4.14257812,19.993185 4.14257812,18.9990711 L4.14257812,4.59907222 C4.14257812,3.60495967 5.03800857,2.79907227 6.14257812,2.79907227 L18.1425781,2.79907227 Z M8.64257812,6.29907227 L15.6425781,6.29907227 C16.0567913,6.29907227 16.3925781,6.63485861 16.3925781,7.04907227 C16.3925781,7.46328592 16.0567913,7.79907227 15.6425781,7.79907227 L8.64257812,7.79907227 C8.22836447,7.79907227 7.89257812,7.46328592 7.89257812,7.04907227 C7.89257812,6.63485861 8.22836447,6.29907227 8.64257812,6.29907227 Z M8.64257812,10.2990723 L15.6425781,10.2990723 C16.0567913,10.2990723 16.3925781,10.6348586 16.3925781,11.0490723 C16.3925781,11.4632854 16.0567913,11.7990723 15.6425781,11.7990723 L8.64257812,11.7990723 C8.22836447,11.7990723 7.89257812,11.4632854 7.89257812,11.0490723 C7.89257812,10.6348586 8.22836447,10.2990723 8.64257812,10.2990723 Z" id="Subtract" fill="#CBCDCF" mask="url(#mask-2)"></path>
                        </g>
                    </g>
                </g>
            </g>
        </g>
    </g>
</svg>