<svg width="16" height="16" viewBox="0 0 16 16" xmlns="http://www.w3.org/2000/svg" xmlns:xlink="http://www.w3.org/1999/xlink">
    <defs>
        <path id="tdkmsm3i7c" d="M0 0h16v16H0z"/>
        <path d="M10.772 11.471c-1.595 0-2.889-1.353-2.889-4.012 0-1.772.963-3.644 2.889-5.616 1.925 1.972 2.888 3.844 2.888 5.616 0 2.659-1.293 4.012-2.888 4.012z" id="kngz4cg17a"/>
        <path d="M5.228 11.471c-1.595 0-2.888-1.353-2.888-4.012 0-1.772.963-3.644 2.888-5.616 1.926 1.972 2.889 3.844 2.889 5.616 0 2.659-1.294 4.012-2.889 4.012z" id="t2r6i6667b"/>
        <mask id="lnf09cf3xe" maskContentUnits="userSpaceOnUse" maskUnits="objectBoundingBox" x="0" y="0" width="5.777" height="9.628" fill="#fff">
            <use xlink:href="#kngz4cg17a"/>
        </mask>
        <mask id="fesw97lu2f" maskContentUnits="userSpaceOnUse" maskUnits="objectBoundingBox" x="0" y="0" width="5.777" height="9.628" fill="#fff">
            <use xlink:href="#t2r6i6667b"/>
        </mask>
    </defs>
    <g fill="none" fill-rule="evenodd">
        <mask id="lh8y6n903d" fill="#fff">
            <use xlink:href="#tdkmsm3i7c"/>
        </mask>
        <g stroke-dasharray="0,0" fill-rule="nonzero" mask="url(#lh8y6n903d)" transform="rotate(-132.743 10.772 6.657)" stroke="#FFF" stroke-width="2">
            <use mask="url(#lnf09cf3xe)" xlink:href="#kngz4cg17a"/>
        </g>
        <g stroke-dasharray="0,0" fill-rule="nonzero" mask="url(#lh8y6n903d)" transform="scale(1 -1) rotate(47.257 20.444 0)" stroke="#FFF" stroke-width="2">
            <use mask="url(#fesw97lu2f)" xlink:href="#t2r6i6667b"/>
        </g>
        <path d="M7.578 9h.924v6h-.924V9z" fill="#FFF" mask="url(#lh8y6n903d)"/>
    </g>
</svg>
