<svg width="40" height="40" viewBox="0 0 40 40" xmlns="http://www.w3.org/2000/svg" xmlns:xlink="http://www.w3.org/1999/xlink">
    <defs>
        <path id="nd61p0qppa" d="M0 0h40v40H0z"/>
    </defs>
    <g fill="none" fill-rule="evenodd">
        <mask id="p5d6vi9h1b" fill="#fff">
            <use xlink:href="#nd61p0qppa"/>
        </mask>
        <path d="M3.916 19.999c0 8.882 7.2 16.083 16.083 16.083S36.083 28.882 36.083 20 28.882 3.916 19.999 3.916c-8.882 0-16.083 7.2-16.083 16.083zM19.999 1.916c9.987 0 18.084 8.096 18.084 18.083 0 9.987-8.097 18.083-18.084 18.083S1.916 29.986 1.916 20c0-9.987 8.096-18.083 18.083-18.083z" fill="#CBCDCF" mask="url(#p5d6vi9h1b)"/>
        <path d="M19 27V16h2v11h-2zm1-13a1 1 0 1 1 0-2 1 1 0 0 1 0 2z" fill="#CBCDCF" mask="url(#p5d6vi9h1b)"/>
    </g>
</svg>
