<svg width="20" height="20" viewBox="0 0 20 20" xmlns="http://www.w3.org/2000/svg">
    <g fill="none" fill-rule="evenodd">
        <path d="M0 0h20v20H0V0z"/>
        <path d="m10.354 12.354 4-4a.5.5 0 0 0-.708-.708L10 11.293 6.354 7.646a.5.5 0 1 0-.708.708l4 4a.5.5 0 0 0 .708 0z" fill="#000"/>
        <path d="M10.5 12V2a.5.5 0 0 0-1 0v10a.5.5 0 1 0 1 0z" fill="#000"/>
        <path d="M1.5 13v4.372l.002.004a.149.149 0 0 0 .041.044c.056.042.154.08.275.08h16.364c.121 0 .22-.038.275-.08a.149.149 0 0 0 .043-.048V13a.5.5 0 0 1 1 0v4.375c0 .349-.182.645-.436.84a1.46 1.46 0 0 1-.882.285H1.818a1.46 1.46 0 0 1-.882-.286 1.06 1.06 0 0 1-.436-.839V13a.5.5 0 1 1 1 0z" fill="#000"/>
    </g>
</svg>
