<?xml version="1.0" encoding="UTF-8"?>
<svg width="24px" height="24px" viewBox="0 0 24 24" version="1.1" xmlns="http://www.w3.org/2000/svg" xmlns:xlink="http://www.w3.org/1999/xlink">
    <title>326AB80E-11A9-A0A5-794A-A786E7911A9D</title>
    <defs>
        <rect id="path-1" x="0" y="0" width="24" height="24"></rect>
    </defs>
    <g id="💎-Components" stroke="none" stroke-width="1" fill="none" fill-rule="evenodd">
        <g id="Icons/Grid" transform="translate(-1144.000000, -1391.000000)">
            <g id="24dp" transform="translate(62.000000, 1263.000000)">
                <g id="Black" transform="translate(954.000000, 0.000000)">
                    <g id="Icon-/-24-/-Black" transform="translate(40.000000, 40.000000)">
                        <g id="Icons-/-24-/-ic_share_black" transform="translate(88.000000, 88.000000)">
                            <mask id="mask-2" fill="white">
                                <use xlink:href="#path-1"></use>
                            </mask>
                            <g id="Icons-/-24-/-ic_share_black-(Background/Mask)"></g>
                            <g id="Icon/Line/Share" mask="url(#mask-2)" fill="#000000">
                                <g transform="translate(2.750000, 1.000000)" id="Union">
                                    <path d="M14.9071274,0 C16.891407,0 18.4999847,1.60857689 18.4999847,3.59285712 C18.4999847,5.57713747 16.891407,7.18571424 14.9071274,7.18571424 C13.9868422,7.18571424 13.1473694,6.83971024 12.5117035,6.27069473 L7.04995871,9.68258858 C7.13838863,9.99461365 7.18571424,10.3239145 7.18571424,10.6642685 C7.18571424,11.004673 7.13837433,11.3340206 7.04991913,11.6460876 L12.5110083,15.0585251 C13.1467571,14.4891396 13.9865065,14.1428833 14.9071274,14.1428833 C16.891407,14.1428833 18.4999847,15.7514601 18.4999847,17.7357407 C18.4999847,19.7200203 16.891407,21.328598 14.9071274,21.328598 C12.9228468,21.328598 11.31427,19.7200203 11.31427,17.7357407 C11.31427,17.3953381 11.3616085,17.0659943 11.4500628,16.7539291 L5.98896933,13.3414898 C5.35322094,13.9108725 4.51347494,14.2571259 3.59285712,14.2571259 C1.60857689,14.2571259 0,12.6485481 0,10.6642685 C0,8.67998791 1.60857689,7.07141113 3.59285712,7.07141113 C4.51352692,7.07141113 5.35331583,7.41770411 5.98907709,7.98714352 L11.4503174,4.57556486 C11.3617001,4.26323462 11.31427,3.93358493 11.31427,3.59285712 C11.31427,1.60857689 12.9228468,0 14.9071274,0 Z M13.31427,3.59285712 C13.31427,4.47256756 14.0274162,5.18571424 14.9071274,5.18571424 C15.7868376,5.18571424 16.4999847,4.47256756 16.4999847,3.59285712 C16.4999847,2.71314645 15.7868376,2 14.9071274,2 C14.0274162,2 13.31427,2.71314645 13.31427,3.59285712 Z M13.31427,17.7357407 C13.31427,18.6154518 14.0274162,19.328598 14.9071274,19.328598 C15.7868376,19.328598 16.4999847,18.6154518 16.4999847,17.7357407 C16.4999847,16.8560295 15.7868376,16.1428833 14.9071274,16.1428833 C14.0274162,16.1428833 13.31427,16.8560295 13.31427,17.7357407 Z M3.59285712,9.07141113 C4.47256756,9.07141113 5.18571424,9.78455734 5.18571424,10.6642685 C5.18571424,11.5439787 4.47256756,12.2571259 3.59285712,12.2571259 C2.71314645,12.2571259 2,11.5439787 2,10.6642685 C2,9.78455734 2.71314645,9.07141113 3.59285712,9.07141113 Z"></path>
                                </g>
                            </g>
                        </g>
                    </g>
                </g>
            </g>
        </g>
    </g>
</svg>