<?xml version="1.0" encoding="UTF-8"?>
<svg width="20px" height="20px" viewBox="0 0 20 20" version="1.1" xmlns="http://www.w3.org/2000/svg" xmlns:xlink="http://www.w3.org/1999/xlink">
    <title>09CB9170-4FAC-F48B-1243-BE5751CDE719</title>
    <g id="💎-Components" stroke="none" stroke-width="1" fill="none" fill-rule="evenodd">
        <g id="Icons/Grid" transform="translate(-1650.000000, -1022.000000)">
            <g id="20dp" transform="translate(62.000000, 941.000000)">
                <g id="Black" transform="translate(954.000000, 0.000000)">
                    <g id="Icon-/-20-/-Black" transform="translate(34.000000, 41.000000)">
                        <g id="Icons-/-20-/-ic_openinnew_black" transform="translate(600.000000, 40.000000)">
                            <path d="M0,0 L20,0 L20,20 L0,20 L0,0 Z" id="area"></path>
                            <path d="M2.71403625,2.71403668 C2.57699045,2.85108254 2.49999884,3.0369564 2.49999884,3.23076841 L2.49999884,8.76922962 C2.49999884,9.04537222 2.27614122,9.26922962 1.99999884,9.26922962 C1.72385645,9.26922962 1.49999884,9.04537222 1.49999884,8.76922962 L1.49999884,3.23076841 C1.49999884,2.77173981 1.68234727,2.33151195 2.00692949,2.00692979 C2.33151167,1.68234766 2.77173963,1.49999926 3.23076823,1.49999926 L16.7692316,1.49999926 C17.2282598,1.49999926 17.6684892,1.68234772 17.9930713,2.00692979 C18.3176534,2.33151177 18.4999988,2.77173957 18.4999988,3.23076841 L18.4999988,16.7692291 C18.4999988,17.2282583 18.3176534,17.6684859 17.9930713,17.993068 C17.6684892,18.3176491 17.2282608,18.4999993 16.7692316,18.4999993 L11.2307689,18.4999993 C10.9546268,18.4999993 10.7307689,18.2761423 10.7307689,17.9999993 C10.7307689,17.7238571 10.9546268,17.4999993 11.2307689,17.4999993 L16.7692316,17.4999993 C16.963043,17.4999993 17.148917,17.4230072 17.2859638,17.2859604 C17.4230097,17.1489145 17.4999988,16.9630406 17.4999988,16.7692291 L17.4999988,3.23076841 C17.4999988,3.03695664 17.4230097,2.85108265 17.2859638,2.71403668 C17.148917,2.57699081 16.963044,2.49999926 16.7692316,2.49999926 L3.23076823,2.49999926 C3.0369561,2.49999926 2.85108211,2.57699087 2.71403625,2.71403668 Z" id="Vector-(Stroke)" fill="#000000" transform="translate(10.000000, 9.999999) rotate(-179.999995) translate(-10.000000, -9.999999) "></path>
                            <path d="M14.4999997,1.99999978 L14.4999997,5.49999978 L17.9999997,5.49999978 C18.2761428,5.49999978 18.4999997,5.72385743 18.4999997,5.99999978 C18.4999997,6.27614214 18.2761428,6.49999978 17.9999997,6.49999978 L13.9999997,6.49999978 C13.7238574,6.49999978 13.4999997,6.27614214 13.4999997,5.99999978 L13.4999997,1.99999978 C13.4999997,1.7238574 13.7238574,1.49999978 13.9999997,1.49999978 C14.2761421,1.49999978 14.4999997,1.7238574 14.4999997,1.99999978 Z" id="Vector-(Stroke)" fill="#000000" transform="translate(16.000000, 4.000000) rotate(-179.999995) translate(-16.000000, -4.000000) "></path>
                            <path d="M18.3535542,2.35355398 L10.3535528,10.3535534 C10.1582906,10.5488153 9.84170816,10.5488153 9.64644605,10.3535534 C9.45118391,10.1582914 9.45118391,9.84170875 9.64644611,9.64644679 L17.6464476,1.64644717 C17.84171,1.45118503 18.1582922,1.45118503 18.3535542,1.64644723 C18.5488161,1.84170939 18.5488161,2.15829186 18.3535542,2.35355398 Z" id="Vector-(Stroke)" fill="#000000" transform="translate(14.000000, 6.000000) rotate(-179.999995) translate(-14.000000, -6.000000) "></path>
                        </g>
                    </g>
                </g>
            </g>
        </g>
    </g>
</svg>