<?xml version="1.0" encoding="UTF-8"?>
<svg width="20px" height="60px" viewBox="0 0 20 60" version="1.1" xmlns="http://www.w3.org/2000/svg" xmlns:xlink="http://www.w3.org/1999/xlink">
    <title>3B1CFD8F-A7D3-1BBA-BF8D-751D50EA3D85</title>
    <defs>
        <rect id="path-1" x="0" y="0" width="20" height="20"></rect>
        <rect id="path-3" x="0" y="0" width="20" height="20"></rect>
    </defs>
    <g id="💎-Components" stroke="none" stroke-width="1" fill="none" fill-rule="evenodd">
        <g id="Icons/Grid" transform="translate(-1332.000000, -1115.000000)">
            <g id="20dp" transform="translate(62.000000, 941.000000)">
                <g id="Black" transform="translate(954.000000, 0.000000)">
                    <g id="Icon-/-20-/-Black" transform="translate(34.000000, 41.000000)">
                        <g id="icons-/-20-/-ic_text_underline_off_on" transform="translate(282.000000, 133.000000)">
                            <g id="Property-1=20,-Property-2=ic_text_underline_black">
                                <mask id="mask-2" fill="white">
                                    <use xlink:href="#path-1"></use>
                                </mask>
                                <g id="Property-1=20,-Property-2=ic_text_underline_black-(Background/Mask)"></g>
                                <path d="M4,1.5 C3.72385764,1.5 3.5,1.72385761 3.5,2 L3.5,8.5 C3.5,10.3441744 4.17587137,12.1200743 5.38995743,13.4353342 C6.60528517,14.7519398 8.26259136,15.5 10,15.5 C11.7374086,15.5 13.3947144,14.7519398 14.6100426,13.4353342 C15.8241282,12.1200743 16.5,10.3441744 16.5,8.5 L16.5,2 C16.5,1.72385761 16.2761421,1.5 16,1.5 C15.7238579,1.5 15.5,1.72385761 15.5,2 L15.5,8.5 C15.5,10.1036396 14.9115896,11.6343412 13.8752394,12.7570543 C12.8401308,13.8784218 11.4451885,14.5 10,14.5 C8.554811,14.5 7.15986919,13.8784218 6.12476063,12.7570543 C5.08841014,11.6343412 4.5,10.1036396 4.5,8.5 L4.5,2 C4.5,1.72385761 4.27614236,1.5 4,1.5 Z M1.5,18 C1.5,18.2761421 1.72385761,18.5 2,18.5 L18,18.5 C18.2761421,18.5 18.5,18.2761421 18.5,18 C18.5,17.7238579 18.2761421,17.5 18,17.5 L2,17.5 C1.72385761,17.5 1.5,17.7238579 1.5,18 Z" id="Union" fill="#000000" mask="url(#mask-2)"></path>
                            </g>
                            <g id="Property-1=20,-Property-2=ic_text_underline_primary" transform="translate(0.000000, 40.000000)">
                                <mask id="mask-4" fill="white">
                                    <use xlink:href="#path-3"></use>
                                </mask>
                                <g id="Property-1=20,-Property-2=ic_text_underline_primary-(Background/Mask)"></g>
                                <path d="M4,1.5 C3.72385764,1.5 3.5,1.72385761 3.5,2 L3.5,8.5 C3.5,10.3441744 4.17587137,12.1200743 5.38995743,13.4353342 C6.60528517,14.7519398 8.26259136,15.5 10,15.5 C11.7374086,15.5 13.3947144,14.7519398 14.6100426,13.4353342 C15.8241282,12.1200743 16.5,10.3441744 16.5,8.5 L16.5,2 C16.5,1.72385761 16.2761421,1.5 16,1.5 C15.7238579,1.5 15.5,1.72385761 15.5,2 L15.5,8.5 C15.5,10.1036396 14.9115896,11.6343412 13.8752394,12.7570543 C12.8401308,13.8784218 11.4451885,14.5 10,14.5 C8.554811,14.5 7.15986919,13.8784218 6.12476063,12.7570543 C5.08841014,11.6343412 4.5,10.1036396 4.5,8.5 L4.5,2 C4.5,1.72385761 4.27614236,1.5 4,1.5 Z M1.5,18 C1.5,18.2761421 1.72385761,18.5 2,18.5 L18,18.5 C18.2761421,18.5 18.5,18.2761421 18.5,18 C18.5,17.7238579 18.2761421,17.5 18,17.5 L2,17.5 C1.72385761,17.5 1.5,17.7238579 1.5,18 Z" id="Union" fill="#FF664D" mask="url(#mask-4)"></path>
                            </g>
                        </g>
                    </g>
                </g>
            </g>
        </g>
    </g>
</svg>