<svg width="16" height="16" viewBox="0 0 16 16" xmlns="http://www.w3.org/2000/svg" xmlns:xlink="http://www.w3.org/1999/xlink">
    <defs>
        <path id="mqkhs089za" d="M0 0h16v16H0z"/>
    </defs>
    <g fill="none" fill-rule="evenodd">
        <mask id="kh5snaju8b" fill="#fff">
            <use xlink:href="#mqkhs089za"/>
        </mask>
        <path d="M.267 8.953C1.093 10.269 3.807 14 7.999 14c4.194 0 6.907-3.731 7.733-5.047a.842.842 0 0 0 0-.906C14.906 6.731 12.192 3 7.999 3S1.093 6.731.267 8.047a.842.842 0 0 0 0 .906zM9.999 8.5a2 2 0 1 0-4 0 2 2 0 0 0 4 0z" fill="#CBCDCF" mask="url(#kh5snaju8b)"/>
    </g>
</svg>
