<?xml version="1.0" encoding="UTF-8"?>
<svg width="48px" height="48px" viewBox="0 0 48 48" version="1.1" xmlns="http://www.w3.org/2000/svg" xmlns:xlink="http://www.w3.org/1999/xlink">
    <title>D4E18F35-B74E-4B37-BC31-3E4B009A3F59</title>
    <g id="💎-Components" stroke="none" stroke-width="1" fill="none" fill-rule="evenodd">
        <g id="Icons/Grid/Keep" transform="translate(-1214.000000, -1712.000000)">
            <g id="etc" transform="translate(62.000000, 1346.000000)">
                <g id="Icons-/-48-/-ic_myhome" transform="translate(1152.000000, 366.000000)">
                    <rect id="area" x="0" y="0" width="48" height="48"></rect>
                    <path d="M24,48 C37.254834,48 48,37.254834 48,24 C48,10.745166 37.254834,0 24,0 C10.745166,0 0,10.745166 0,24 C0,37.254834 10.745166,48 24,48 Z" id="Container" fill="#38B1AD"></path>
                    <g id="my-SUNI" transform="translate(10.000000, 13.921265)" fill="#FFFFFF">
                        <path d="M15.018388,0.0970643865 C14.9053253,0.0344497095 14.7770698,0.00148539407 14.646514,0.00148539407 C14.5159582,0.00148539407 14.3877028,0.0344497095 14.27464,0.0970643865 C14.1615773,0.159679063 14.0676914,0.24973773 14.0024202,0.358187678 L12.0196489,3.64998172 L10.0368774,0.356879033 C9.97179345,0.248402966 9.87804877,0.158297545 9.76509059,0.0956434011 C9.65213242,0.0329892566 9.52395184,0 9.39346595,0 C9.26298007,0 9.13479936,0.0329892566 9.02184119,0.0956434011 C8.90888301,0.158297545 8.81513846,0.248402966 8.75005455,0.356879033 L7.10024675,3.0976408 C7.03470023,3.20600007 7,3.32902849 7,3.45430514 C7,3.57958179 7.03422168,3.70267194 7.09955928,3.81114723 C7.16489687,3.91962251 7.25891692,4.00964292 7.37212691,4.07212023 C7.4853369,4.13459754 7.613729,4.16731944 7.74434043,4.16698274 L16.2949574,4.16698274 C16.4255688,4.16731944 16.5539603,4.13459754 16.6671703,4.07212023 C16.7803803,4.00964292 16.8744008,3.91962251 16.9397384,3.81114723 C17.005076,3.70267194 17.0394174,3.57958179 17.0392967,3.45430514 C17.039176,3.32902849 17.0045967,3.20600007 16.9390502,3.0976408 L15.2906073,0.358187678 C15.2253361,0.24973773 15.1314507,0.159679063 15.018388,0.0970643865 Z M17.9570467,0.000867769715 C17.8265966,0.000930245113 17.6984577,0.0339025673 17.5854918,0.0964752217 C17.4725258,0.159047876 17.3787071,0.249019436 17.3134505,0.35736035 C17.2481938,0.465701265 17.2137952,0.588599619 17.2137079,0.713721118 C17.2136205,0.838842617 17.2478474,0.961785603 17.3129528,1.0702102 L19.1770031,4.16698274 C19.2203616,4.23959962 19.2829472,4.29994492 19.3584281,4.34191273 C19.4339091,4.38388054 19.5196078,4.4059819 19.6068539,4.4059819 C19.6941,4.4059819 19.7797988,4.38388054 19.8552797,4.34191273 C19.9307607,4.29994492 19.9933462,4.23959962 20.0367048,4.16698274 L21.900755,1.0702102 C21.9658604,0.961785603 22,0.838842617 22,0.713721118 C22,0.588599619 21.9655151,0.465701265 21.9002584,0.35736035 C21.8350018,0.249019436 21.741182,0.159047876 21.6282161,0.0964752217 C21.5152501,0.0339025673 21.3871123,0.000930245113 21.2566622,0.000867769715 L21.2566622,0.000867769715 L17.9570467,0.000867769715 Z M19.0810959,5.01421757 C18.9254016,5.11372718 18.8039805,5.25529737 18.7321956,5.42101483 C18.6604107,5.58673229 18.6414878,5.76914943 18.6778225,5.94518468 C18.7141572,6.12121994 18.8041158,6.28296156 18.9363159,6.40994477 C19.0685159,6.53692798 19.2370166,6.62344564 19.4204961,6.6585503 C19.6039755,6.69365497 19.7941875,6.67576948 19.9670659,6.60715617 C20.1399443,6.53854286 20.2877193,6.42228547 20.3916914,6.27309479 C20.4956636,6.1239041 20.5511603,5.94848527 20.5511605,5.76903342 C20.5511608,5.52869727 20.451716,5.29818506 20.2746632,5.12811908 C20.0976105,4.9580531 19.8574251,4.86233719 19.6068539,4.86199039 C19.4197599,4.86173144 19.2367902,4.91470795 19.0810959,5.01421757 Z M19.3248284,6.17387346 C19.2413485,6.12037247 19.176284,6.04432915 19.1378625,5.95536026 C19.0994409,5.86639136 19.0893876,5.76849297 19.1089748,5.67404409 C19.1285619,5.57959522 19.176909,5.49283838 19.2479027,5.42474454 C19.3188965,5.3566507 19.4093481,5.31027851 19.5078193,5.29149146 C19.6062905,5.27270441 19.7083591,5.28234605 19.8011169,5.31919818 C19.8938748,5.3560503 19.9731566,5.41845705 20.028936,5.49852693 C20.0847155,5.57859682 20.1144872,5.67273419 20.1144872,5.76903342 C20.1141271,5.89806046 20.0605291,6.02170363 19.9654074,6.11293985 C19.8702857,6.20417607 19.7413759,6.25558467 19.6068539,6.25593012 L19.6068539,6.25593012 C19.5064536,6.25593012 19.4083082,6.22737445 19.3248284,6.17387346 Z" id="Vector"></path>
                        <path d="M15.7135812,10.6922832 L15.8421225,10.7004177 C16.0540382,10.727365 16.2522436,10.8204224 16.4050728,10.9670089 C16.5884679,11.1429126 16.6914972,11.381489 16.6914972,11.6302544 L16.6914972,11.6302544 L16.6914972,16.200324 C16.6914972,16.807062 16.4402069,17.3889489 15.992907,17.8179775 C15.5456071,18.247006 14.9389381,18.4880323 14.3063605,18.4880323 L14.3063605,18.4880323 L11.4595845,18.4880323 C10.8269043,18.4880323 10.2201202,18.2470406 9.77264328,17.8180427 C9.32516632,17.3890449 9.07362733,16.8071604 9.07333168,16.200324 L9.07333168,16.200324 L9.07333168,11.6302544 C9.08190036,11.3868305 9.18874349,11.1561231 9.37130723,10.986829 C9.55387098,10.817535 9.79787212,10.7229004 10.0518075,10.7229004 C10.3057428,10.7229004 10.5497439,10.817535 10.7323077,10.986829 C10.9148714,11.1561231 11.0217128,11.3868305 11.0302815,11.6302544 L11.0302815,11.6302544 L11.0302815,16.0912323 C11.0302815,16.2114589 11.054971,16.3305085 11.1029391,16.4415835 C11.1509073,16.5526584 11.2212154,16.6535833 11.3098489,16.7385964 C11.3984825,16.8236095 11.5037048,16.8910456 11.6195101,16.9370544 C11.7353155,16.9830631 11.8594351,17.0067432 11.984782,17.0067432 L11.984782,17.0067432 L13.7811613,17.0067432 C13.9065081,17.0067432 14.0306278,16.9830631 14.1464331,16.9370544 C14.2622385,16.8910456 14.3674625,16.8236095 14.4560961,16.7385964 C14.5447296,16.6535833 14.6150377,16.5526584 14.6630059,16.4415835 C14.710974,16.3305085 14.7356618,16.2114589 14.7356618,16.0912323 L14.7356618,16.0912323 L14.7356618,11.6302544 C14.735515,11.5070387 14.7607101,11.3850055 14.809803,11.271142 C14.858896,11.1572786 14.9309222,11.0538214 15.0217594,10.9666947 C15.1125966,10.879568 15.2204616,10.8104831 15.3391742,10.7633955 C15.4578868,10.7163079 15.585118,10.6921425 15.7135812,10.6922832 L15.7135812,10.6922832 Z M27.252,10.6920469 L27.3781437,10.6999341 C27.4628805,10.7103828 27.5460101,10.7314602 27.6253653,10.7627591 C27.744398,10.8097074 27.8525974,10.878731 27.9437601,10.9658718 C28.0349227,11.0530125 28.1072523,11.1565564 28.1566063,11.270566 C28.2059603,11.3845755 28.2313652,11.5068078 28.2313652,11.6302544 L28.2313652,11.6302544 L28.2313652,17.5500608 C28.2227965,17.7934846 28.1159551,18.0241921 27.9333914,18.1934861 C27.7508276,18.3627802 27.5068265,18.4574151 27.2528911,18.4574151 C26.9989558,18.4574151 26.7549547,18.3627802 26.5723909,18.1934861 C26.3898272,18.0241921 26.2829857,17.7934846 26.2744171,17.5500608 L26.2744171,17.5500608 L26.2744171,11.6302544 C26.274417,11.5069882 26.2997469,11.3849309 26.3489616,11.2710613 C26.3981762,11.1571916 26.47031,11.0537429 26.5612361,10.9666302 C26.6521623,10.8795176 26.760097,10.8104492 26.8788721,10.7633747 C26.9976472,10.7163002 27.1249335,10.6921427 27.2534492,10.6922832 L27.252,10.6920469 Z M6.93797152,9.7211568 C7.14912645,9.7211568 7.35163237,9.80161154 7.50094146,9.94482163 C7.65025055,10.0880317 7.7341321,10.2822664 7.7341321,10.484796 C7.7341321,10.6873257 7.65025055,10.88156 7.50094146,11.0247701 C7.35163237,11.1679802 7.14912645,11.2484349 6.93797152,11.2484349 L6.93797152,11.2484349 L2.76203119,11.2484349 C2.21118614,11.2484349 1.85882305,11.607794 1.85882305,12.0516458 C1.85882305,12.4954976 2.21118614,12.8548574 2.76203119,12.8548574 L2.76203119,12.8548574 L5.79836888,12.8548574 C7.22900489,12.8516488 8.27940158,13.895503 8.28274679,15.1789299 C8.28609201,16.4623567 7.24796078,17.5072801 5.82066996,17.5169058 L5.82066996,17.5169058 L1.03590015,17.5169058 C0.829755309,17.5095075 0.634625525,17.4257587 0.491510189,17.2832571 C0.348394853,17.1407554 0.26843645,16.9505942 0.26843645,16.7527316 C0.26843645,16.5548691 0.348394853,16.3647087 0.491510189,16.222207 C0.634625525,16.0797053 0.829755309,15.9959566 1.03590015,15.9885583 L1.03590015,15.9885583 L5.44154652,15.9885583 C5.99239157,15.9874887 6.34809865,15.6281296 6.34698358,15.1842778 C6.34586851,14.740426 5.99239157,14.3821356 5.44154652,14.3821356 L5.44154652,14.3821356 L2.47991838,14.3821356 C1.05039747,14.3821356 0,13.3393508 0,12.0516458 C0,10.7639409 1.05151204,9.72436536 2.47768776,9.7211568 L2.47768776,9.7211568 Z M22.9046726,8.23986816 L23.0921229,8.24686309 C23.3411916,8.26559247 23.586044,8.32178899 23.8175995,8.41372364 C24.1070437,8.52864195 24.3700344,8.69714791 24.591544,8.90960925 C24.8130536,9.1220706 24.9887382,9.37432142 25.1085506,9.65194245 C25.2283631,9.92956347 25.2899541,10.227111 25.2898075,10.5275767 L25.2898075,10.5275767 L25.2898075,15.0976459 C25.2898075,15.3464113 25.1867783,15.5849886 25.0033832,15.7608923 C24.8199881,15.936796 24.5712513,16.0356175 24.3118915,16.0356175 C24.0525318,16.0356175 23.8037949,15.936796 23.6203999,15.7608923 C23.4370048,15.5849886 23.3339755,15.3464113 23.3339755,15.0976459 L23.3339755,15.0976459 L23.3339755,10.6388071 C23.3339756,10.5186309 23.3092777,10.3996332 23.2612958,10.2886183 C23.213314,10.1776034 23.1429883,10.0767485 23.0543401,9.99182079 C22.9656919,9.90689305 22.860459,9.83955793 22.7446601,9.79366587 C22.6288613,9.74777381 22.5047693,9.72422488 22.3794751,9.72436544 L22.3794751,9.72436544 L20.583094,9.72436544 C20.3301367,9.72351247 20.0871716,9.81900466 19.9075723,9.98986387 C19.727973,10.1607231 19.626429,10.3929752 19.6252485,10.6355987 L19.6252485,10.6355987 L19.6252485,15.0976459 C19.6249552,15.3456711 19.522254,15.5834887 19.3396137,15.7590694 C19.1569733,15.9346501 18.9092643,16.0336995 18.6506776,16.0345478 L18.6506776,16.0345478 L18.5222301,16.0264253 C18.3104654,15.9995174 18.1123798,15.906594 17.9595773,15.7602003 C17.7762142,15.5845279 17.6730537,15.346226 17.6727582,15.0976459 L17.6727582,15.0976459 L17.6727582,10.5275767 C17.6727582,9.92083867 17.9240485,9.33895133 18.3713484,8.9099228 C18.8186483,8.48089426 19.425319,8.23986816 20.0578966,8.23986816 L20.0578966,8.23986816 L22.9046726,8.23986816 Z M27.9182451,6.75094673 C28.2383405,6.87811857 28.5119322,7.09347655 28.7044199,7.36978726 C28.8969076,7.64609796 28.9996476,7.97095113 28.9996476,8.30326719 C28.9990575,8.74871539 28.8143052,9.17575722 28.4859112,9.4907369 C28.1985664,9.76634412 27.8217693,9.93646707 27.4209354,9.97507062 L27.2478686,9.98348689 C26.9013999,9.98348689 26.5627131,9.88494381 26.2746349,9.70031891 C25.9865567,9.51569402 25.7620278,9.25327943 25.62944,8.94625944 C25.4968522,8.63923945 25.462162,8.30140328 25.5297546,7.97547261 C25.5973473,7.64954194 25.7641856,7.35015552 26.009176,7.11517259 C26.2541664,6.88018965 26.5663046,6.72016422 26.906116,6.65533258 C27.2459274,6.59050094 27.5981498,6.62377488 27.9182451,6.75094673 Z" id="Union"></path>
                    </g>
                </g>
            </g>
        </g>
    </g>
</svg>