<?xml version="1.0" encoding="UTF-8"?>
<svg width="60px" height="60px" viewBox="0 0 60 60" version="1.1" xmlns="http://www.w3.org/2000/svg" xmlns:xlink="http://www.w3.org/1999/xlink">
    <title>CADF44C9-EE5B-4306-A22E-9A1E256D5F08</title>
    <defs>
        <rect id="path-1" x="0" y="0" width="60" height="60"></rect>
    </defs>
    <g id="학습창" stroke="none" stroke-width="1" fill="none" fill-rule="evenodd">
        <g id="Test-&gt;-wait" transform="translate(-150.000000, -305.000000)">
            <g id="상단" transform="translate(20.000000, 148.000000)">
                <g id="타이틀" transform="translate(0.000000, 42.000000)">
                    <g id="결과" transform="translate(130.000000, 115.000000)">
                        <mask id="mask-2" fill="white">
                            <use xlink:href="#path-1"></use>
                        </mask>
                        <g id="결과-(Background/Mask)"></g>
                        <path d="M4,3 L4,57 C4,58.6568565 5.34314752,60 7,60 L53,60 C54.6568565,60 56,58.6568527 56,57 L56,3 C56,1.34314513 54.6568527,0 53,0 L7,0 C5.34314501,0 4,1.34314752 4,3 Z M7,2 C6.447716,2 6,2.44771576 6,3 L6,57 C6,57.5522842 6.44771576,58 7,58 L53,58 C53.5522842,58 54,57.5522842 54,57 L54,3 C54,2.447716 53.5522842,2 53,2 L40,2 L40,6 C40,7.10456944 39.1045685,8 38,8 L22,8 C20.8954315,8 20,7.10457039 20,6 L20,2 L7,2 Z M22,2 L22,6 L38,6 L38,2 L22,2 Z" id="종이" fill="#CBCDCF" mask="url(#mask-2)"></path>
                        <g id="label" mask="url(#mask-2)">
                            <g transform="translate(9.094604, 21.287109)">
                                <path d="M0.034322369,11.0941916 L3.14015078,22.6853008 C3.28309246,23.2187665 3.83142876,23.5353502 4.36489486,23.3924084 L41.070076,13.5572834 C41.6035416,13.4143417 41.9201252,12.8660042 41.7771835,12.3325386 L38.6713562,0.741429093 C38.5284144,0.207963052 37.9800751,-0.108619363 37.4466095,0.0343223201 L0.741429026,9.8694458 C0.207962985,10.0123876 -0.108619434,10.5607255 0.034322369,11.0941916 Z" id="Subtract" fill="#75777B"></path>
                                <g id="WAIT" stroke-width="1" fill="none" transform="translate(20.858454, 11.365594) rotate(-15.000000) translate(-20.858454, -11.365594) translate(8.725954, 7.665594)">
                                    <path d="M1.43,7.4 L3.24,7.4 L4.05,3.74 C4.17,3.16 4.27,2.59 4.37,2.03 L4.41,2.03 C4.5,2.59 4.61,3.16 4.73,3.74 L5.56,7.4 L7.4,7.4 L8.77,3.63797881e-12 L7.36,3.63797881e-12 L6.78,3.61 C6.67,4.38 6.56,5.17 6.45,5.97 L6.4,5.97 C6.24,5.17 6.09,4.37 5.93,3.61 L5.07,3.63797881e-12 L3.81,3.63797881e-12 L2.95,3.61 C2.79,4.38 2.63,5.18 2.48,5.97 L2.44,5.97 C2.33,5.18 2.21,4.39 2.1,3.61 L1.51,3.63797881e-12 L9.09494702e-13,3.63797881e-12 L1.43,7.4 Z" id="Path" fill="#FFFFFF" fill-rule="nonzero"></path>
                                    <path d="M11.145,4.35 L11.365,3.54 C11.585,2.77 11.805,1.93 11.995,1.12 L12.035,1.12 C12.255,1.92 12.455,2.77 12.685,3.54 L12.905,4.35 L11.145,4.35 Z M13.745,7.4 L15.295,7.4 L12.915,3.63797881e-12 L11.175,3.63797881e-12 L8.805,7.4 L10.305,7.4 L10.825,5.5 L13.225,5.5 L13.745,7.4 Z" id="Shape" fill="#FFFFFF" fill-rule="nonzero"></path>
                                    <polygon id="Path" fill="#FFFFFF" fill-rule="nonzero" points="16.04 7.4 17.52 7.4 17.52 0 16.04 0"></polygon>
                                    <polygon id="Path" fill="#FFFFFF" fill-rule="nonzero" points="20.685 7.4 22.165 7.4 22.165 1.23 24.265 1.23 24.265 3.63797881e-12 18.605 3.63797881e-12 18.605 1.23 20.685 1.23"></polygon>
                                </g>
                            </g>
                        </g>
                    </g>
                </g>
            </g>
        </g>
    </g>
</svg>