<?xml version="1.0" encoding="UTF-8"?>
<svg width="24px" height="68px" viewBox="0 0 24 68" version="1.1" xmlns="http://www.w3.org/2000/svg" xmlns:xlink="http://www.w3.org/1999/xlink">
    <title>CE36CCA5-6158-45C6-83AB-FC9F3B4C3BB0</title>
    <defs>
        <rect id="path-1" x="0" y="0" width="24" height="24"></rect>
        <path d="M12,22 C10.3431457,22 9,20.6568543 9,19 C9,18.2316456 9.28885356,17.5307565 9.76389349,17 L14.2361064,17 C14.7111463,17.5307565 15,18.2316456 15,19 C15,20.6568543 13.6568543,22 12,22 Z" id="path-3"></path>
        <mask id="mask-4" maskContentUnits="userSpaceOnUse" maskUnits="objectBoundingBox" x="0" y="0" width="6" height="5" fill="white">
            <use xlink:href="#path-3"></use>
        </mask>
        <rect id="path-5" x="0" y="0" width="24" height="24"></rect>
        <path d="M12,22 C10.3431457,22 9,20.6568543 9,19 C9,18.2316456 9.28885356,17.5307565 9.76389349,17 L14.2361064,17 C14.7111463,17.5307565 15,18.2316456 15,19 C15,20.6568543 13.6568543,22 12,22 Z" id="path-7"></path>
        <mask id="mask-8" maskContentUnits="userSpaceOnUse" maskUnits="objectBoundingBox" x="0" y="0" width="6" height="5" fill="white">
            <use xlink:href="#path-7"></use>
        </mask>
        <rect id="path-9" x="2" y="17" width="20" height="2"></rect>
        <mask id="mask-10" maskContentUnits="userSpaceOnUse" maskUnits="objectBoundingBox" x="0" y="0" width="20" height="2" fill="white">
            <use xlink:href="#path-9"></use>
        </mask>
        <path d="M12,2 C7.58172226,2 4,5.58172226 4,10 L4,19 L20,19 L20,10 C20,5.58172226 16.4182777,2 12,2 Z" id="path-11"></path>
        <mask id="mask-12" maskContentUnits="userSpaceOnUse" maskUnits="objectBoundingBox" x="0" y="0" width="16" height="17" fill="white">
            <use xlink:href="#path-11"></use>
        </mask>
    </defs>
    <g id="💎-Components" stroke="none" stroke-width="1" fill="none" fill-rule="evenodd">
        <g id="Icons/Grid/Keep" transform="translate(-1496.000000, -1347.000000)">
            <g id="24dp" transform="translate(62.000000, 1263.000000)">
                <g id="Black" transform="translate(954.000000, 0.000000)">
                    <g id="Icon-/-24-/-Black" transform="translate(40.000000, 40.000000)">
                        <g id="Icons-/-24-/-ic_alarm_black_off_on" transform="translate(440.000000, 44.000000)">
                            <g id="Icons-/-24-/-ic_alarm_noti_black" transform="translate(0.000000, 44.000000)">
                                <mask id="mask-2" fill="white">
                                    <use xlink:href="#path-1"></use>
                                </mask>
                                <g id="Icons-/-24-/-ic_alarm_noti_black-(Background/Mask)"></g>
                                <g id="Ellipse-417" stroke-dasharray="0,0" mask="url(#mask-2)" stroke="#000000" stroke-width="4">
                                    <use mask="url(#mask-4)" xlink:href="#path-3"></use>
                                </g>
                                <path d="M12,4 C12.6890717,4 13.3490553,4.116889 13.9628696,4.33136058 L14.6225739,2.4432956 C13.7997656,2.15579987 12.9169178,2 12,2 C7.57384872,2 4,5.61596394 4,10.0588236 L4,17 L3,17 C2.44771528,17 2,17.4477148 2,18 C2,18.5522842 2.44771552,19 3,19 L21,19 C21.5522842,19 22,18.5522842 22,18 C22,17.4477148 21.5522842,17 21,17 L20,17 L20,10.0588236 L18,10.0588236 L18,17 L6,17 L6,10.0588236 C6,6.70472145 8.69416428,4 12,4 Z" id="Union" fill="#000000" fill-rule="nonzero" mask="url(#mask-2)"></path>
                                <path d="M19,8 C17.3431457,8 16,6.65685433 16,5 C16,3.34314567 17.3431457,2 19,2 C20.6568543,2 22,3.34314567 22,5 C22,6.65685433 20.6568543,8 19,8 Z" id="Noticed-Copy" fill="#FF664D" mask="url(#mask-2)"></path>
                            </g>
                            <g id="Icons-/-24-/-ic_alarm_black">
                                <mask id="mask-6" fill="white">
                                    <use xlink:href="#path-5"></use>
                                </mask>
                                <g id="Icons-/-24-/-ic_alarm_black-(Background/Mask)"></g>
                                <g id="Ellipse-417" stroke-dasharray="0,0" mask="url(#mask-6)" stroke="#000000" stroke-width="4">
                                    <use mask="url(#mask-8)" xlink:href="#path-7"></use>
                                </g>
                                <g id="Rectangle-4560" stroke-dasharray="0,0" mask="url(#mask-6)" stroke="#000000" stroke-width="2">
                                    <use mask="url(#mask-10)" xlink:href="#path-9"></use>
                                </g>
                                <g id="Union" stroke-dasharray="0,0" fill-rule="nonzero" mask="url(#mask-6)" stroke="#000000" stroke-width="4">
                                    <use mask="url(#mask-12)" xlink:href="#path-11"></use>
                                </g>
                            </g>
                        </g>
                    </g>
                </g>
            </g>
        </g>
    </g>
</svg>