<?xml version="1.0" encoding="UTF-8"?>
<svg width="20px" height="20px" viewBox="0 0 20 20" version="1.1" xmlns="http://www.w3.org/2000/svg" xmlns:xlink="http://www.w3.org/1999/xlink">
    <title>BA00D2A5-FEEE-D3C4-3AD7-D413E340AB1A</title>
    <defs>
        <rect id="path-1" x="0" y="0" width="20" height="20"></rect>
    </defs>
    <g id="💎-Components" stroke="none" stroke-width="1" fill="none" fill-rule="evenodd">
        <g id="Icons/Grid" transform="translate(-1290.000000, -1062.000000)">
            <g id="20dp" transform="translate(62.000000, 941.000000)">
                <g id="Black" transform="translate(954.000000, 0.000000)">
                    <g id="Icon-/-20-/-Black" transform="translate(34.000000, 41.000000)">
                        <g id="Icons/20/ic_boardhtml_grey05" transform="translate(240.000000, 80.000000)">
                            <mask id="mask-2" fill="white">
                                <use xlink:href="#path-1"></use>
                            </mask>
                            <g id="Icons/20/ic_boardhtml_grey05-(Background/Mask)"></g>
                            <path d="M2.00000122,17.0000015 L2.00000009,4.00000149 L18.0000001,4.00000009 L18.0000012,17.0000001 L2.00000122,17.0000015 Z M18.0000013,18.0000001 C18.5522854,18 19.0000013,17.5522823 19.0000012,17 L19.0000001,4 C19,3.44771522 18.5522847,3.00000004 18,3.00000009 L2,3.00000149 C1.44771385,3.00000153 1.00000004,3.44771686 1.00000009,4.00000157 L1.00000122,17.0000016 C1.00000127,17.5522839 1.44771516,18.0000015 2.00000131,18.0000015 L18.0000013,18.0000001 Z" id="Rectangle-4552-(Stroke)" fill="#A4A6AA" mask="url(#mask-2)"></path>
                            <path d="M1,7 L19,7 L19,8 L1,8 L1,7 Z" id="Rectangle-4659" fill="#A4A6AA" mask="url(#mask-2)"></path>
                            <path d="M5,5 L5,6 L4,6 L4,5 L5,5 Z M7,5 L7,6 L6,6 L6,5 L7,5 Z M9,5 L9,6 L8,6 L8,5 L9,5 Z" id="Vector" fill="#A4A6AA" mask="url(#mask-2)"></path>
                            <path d="M5.27537501,14.0000277 L5.27537501,12.5600276 L6.53537524,12.5600276 L6.53537524,14.0000277 L7.19687486,14.0000277 L7.19687486,10.6655273 L6.53537524,10.6655273 L6.53537524,11.9795275 L5.27537501,11.9795275 L5.27537501,10.6655273 L4.609375,10.6655273 L4.609375,14.0000277 L5.27537501,14.0000277 Z M9.14263678,14.0000277 L9.14263678,11.2235274 L10.0876365,11.2235274 L10.0876365,10.6655273 L7.54063654,10.6655273 L7.54063654,11.2235274 L8.47663641,11.2235274 L8.47663641,14.0000277 L9.14263678,14.0000277 Z M11.0261364,14.0000277 L11.0261364,12.6095276 C11.0261364,12.2945276 10.9721366,11.8310275 10.9406366,11.5160274 L10.9586368,11.5160274 L11.2241364,12.2990274 L11.7416368,13.6985276 L12.1241364,13.6985276 L12.6371365,12.2990274 L12.9071369,11.5160274 L12.929637,11.5160274 C12.8936372,11.8310275 12.8441362,12.2945276 12.8441362,12.6095276 L12.8441362,14.0000277 L13.4516363,14.0000277 L13.4516363,10.6655273 L12.7136364,10.6655273 L12.1601367,12.2270277 C12.0881367,12.4340277 12.0296368,12.6545275 11.9576368,12.8660276 L11.9351368,12.8660276 C11.8676367,12.6545275 11.8046365,12.4340277 11.7326365,12.2270277 L11.1656365,10.6655273 L10.4276366,10.6655273 L10.4276366,14.0000277 L11.0261364,14.0000277 Z M16.0889568,14.0000277 L16.0889568,13.4420276 L14.734457,13.4420276 L14.734457,10.6655273 L14.0684566,10.6655273 L14.0684566,14.0000277 L16.0889568,14.0000277 Z" id="HTML" fill="#A4A6AA" mask="url(#mask-2)"></path>
                        </g>
                    </g>
                </g>
            </g>
        </g>
    </g>
</svg>