<?xml version="1.0" encoding="UTF-8"?>
<svg width="20px" height="20px" viewBox="0 0 20 20" version="1.1" xmlns="http://www.w3.org/2000/svg" xmlns:xlink="http://www.w3.org/1999/xlink">
    <title>496D834B-3B4A-0769-0760-E3ECFC5C682A</title>
    <defs>
        <rect id="path-1" x="0" y="0" width="20" height="20"></rect>
    </defs>
    <g id="💎-Components" stroke="none" stroke-width="1" fill="none" fill-rule="evenodd">
        <g id="Icons/Grid" transform="translate(-1130.000000, -982.000000)">
            <g id="20dp" transform="translate(62.000000, 941.000000)">
                <g id="Black" transform="translate(954.000000, 0.000000)">
                    <g id="Icon-/-20-/-Black" transform="translate(34.000000, 41.000000)">
                        <g id="Icons-/-20-/-ic_calendar_grey05" transform="translate(80.000000, 0.000000)">
                            <mask id="mask-2" fill="white">
                                <use xlink:href="#path-1"></use>
                            </mask>
                            <g id="Icons-/-20-/-ic_calendar_grey05-(Background/Mask)"></g>
                            <path d="M15.5,1.2667317 L15.5,2.33339822 L18,2.33339822 C18.5522842,2.33339822 19,2.81096112 19,3.40006474 L19,18.333396 C19,18.9224991 18.5522842,19.4000626 18,19.4000626 L2,19.4000626 C1.44771576,19.4000626 1,18.9224991 1,18.333396 L1,3.40006474 C1,2.81096112 1.44771528,2.33339822 2,2.33339822 L4.5,2.33339822 L4.5,1.2667317 C4.5,0.972179857 4.72385764,0.733398437 5,0.733398437 C5.2761426,0.733398437 5.5,0.972179857 5.5,1.2667317 L5.5,2.33339822 L14.5,2.33339822 L14.5,1.2667317 C14.5,0.972179857 14.7238579,0.733398437 15,0.733398437 C15.2761421,0.733398437 15.5,0.972179857 15.5,1.2667317 Z M4.5,3.933398 C4.5,4.22794981 4.72385764,4.46673126 5,4.46673126 C5.2761426,4.46673126 5.5,4.22794981 5.5,3.933398 L5.5,3.40006474 L14.5,3.40006474 L14.5,3.933398 C14.5,4.22794981 14.7238579,4.46673126 15,4.46673126 C15.2761421,4.46673126 15.5,4.22794981 15.5,3.933398 L15.5,3.40006474 L18,3.40006474 L18,6.06673104 L2,6.06673104 L2,3.40006474 L4.5,3.40006474 L4.5,3.933398 Z M18,18.333396 L2,18.333396 L2,7.13339757 L18,7.13339757 L18,18.333396 Z" id="Union" fill="#A4A6AA" mask="url(#mask-2)"></path>
                        </g>
                    </g>
                </g>
            </g>
        </g>
    </g>
</svg>