<svg width="16" height="16" viewBox="0 0 16 16" xmlns="http://www.w3.org/2000/svg" xmlns:xlink="http://www.w3.org/1999/xlink">
    <defs>
        <path id="sacdaod6fa" d="M0 0h16v16H0z"/>
    </defs>
    <g fill="none" fill-rule="evenodd">
        <mask id="cdrmvlbzzb" fill="#fff">
            <use xlink:href="#sacdaod6fa"/>
        </mask>
        <path d="M7.804.54.305 3.712a.5.5 0 0 0 0 .92l2.19.926v6.885c0 .448.217.862.515 1.206.301.349.72.667 1.21.937.981.539 2.316.914 3.779.914s2.797-.375 3.779-.914c.49-.27.908-.588 1.21-.937.297-.344.515-.758.515-1.206V5.559L15 4.926v3.468a.5.5 0 0 0 1 0v-4a.502.502 0 0 0-.012-.108.497.497 0 0 0-.293-.574L8.194.54a.5.5 0 0 0-.39 0zm-6.02 3.632 6.215 2.63 6.218-2.63-6.218-2.63-6.216 2.63zm1.71 1.81 4.31 1.822a.5.5 0 0 0 .39 0l4.309-1.822v6.46c0 .121-.062.31-.272.553-.204.237-.52.486-.934.714-.83.456-1.998.791-3.298.791s-2.469-.335-3.298-.79c-.415-.229-.73-.478-.935-.715-.209-.242-.271-.432-.271-.552V5.98z" fill="#FFF" mask="url(#cdrmvlbzzb)"/>
    </g>
</svg>
