<svg width="16" height="16" viewBox="0 0 16 16" xmlns="http://www.w3.org/2000/svg">
    <g fill="none" fill-rule="evenodd">
        <path d="M0 0h16v16H0z"/>
        <path d="M9.331 1.031c.029.02.051.048.064.082l.603 1.63 1.756.977 1.81-.323a.178.178 0 0 1 .183.082l.61 1.023.61.996a.167.167 0 0 1-.018.2l-1.182 1.326v1.951l1.19 1.319a.169.169 0 0 1 .018.2l-.607.996-.62 1.024a.178.178 0 0 1-.18.081l-1.814-.315-1.756.975-.603 1.632a.171.171 0 0 1-.064.082.177.177 0 0 1-.1.031H6.76a.177.177 0 0 1-.1-.031.171.171 0 0 1-.064-.082l-.6-1.62-1.786-.98-1.775.317a.178.178 0 0 1-.181-.081l-.62-1.024-.609-.996a.167.167 0 0 1 .019-.2l1.152-1.289v-2.02L1.042 5.705a.169.169 0 0 1-.019-.199l1.22-2.02a.178.178 0 0 1 .18-.081l1.787.31 1.786-.983.6-1.62a.171.171 0 0 1 .064-.081L9.23 1c.036 0 .071.011.1.031zm.437 5.2c.453.453.732 1.078.732 1.769 0 .69-.28 1.316-.732 1.768A2.491 2.491 0 0 1 8 10.5c-.69 0-1.316-.28-1.768-.732A2.493 2.493 0 0 1 5.5 8c0-.69.28-1.316.732-1.768A2.493 2.493 0 0 1 8 5.5c.691 0 1.316.28 1.768.732z" stroke="#000" stroke-dasharray="0,0"/>
    </g>
</svg>
