<?xml version="1.0" encoding="UTF-8"?>
<svg width="24px" height="24px" viewBox="0 0 24 24" version="1.1" xmlns="http://www.w3.org/2000/svg" xmlns:xlink="http://www.w3.org/1999/xlink">
    <title>4989C2EA-F393-029E-BAE9-EC3D954B5EDA</title>
    <defs>
        <rect id="path-1" x="0" y="0" width="24" height="24"></rect>
    </defs>
    <g id="💎-Components" stroke="none" stroke-width="1" fill="none" fill-rule="evenodd">
        <g id="Icons/Grid" transform="translate(-1320.000000, -1347.000000)">
            <g id="24dp" transform="translate(62.000000, 1263.000000)">
                <g id="Black" transform="translate(954.000000, 0.000000)">
                    <g id="Icon-/-24-/-Black" transform="translate(40.000000, 40.000000)">
                        <g id="Icons-/-24-/--ic_lock_black" transform="translate(264.000000, 44.000000)">
                            <mask id="mask-2" fill="white">
                                <use xlink:href="#path-1"></use>
                            </mask>
                            <g id="Icons-/-24-/--ic_lock_black-(Background/Mask)"></g>
                            <path d="M13,14 L13,15 C13,15.5522848 12.5522848,16 12,16 C11.4477152,16 11,15.5522848 11,15 L11,14 C11,13.4477152 11.4477152,13 12,13 C12.5522848,13 13,13.4477152 13,14 Z" id="Path-9-(Stroke)" fill="#000000" mask="url(#mask-2)"></path>
                            <path d="M6.25,7.14285707 C6.25,3.9083786 8.80458641,1.25 12,1.25 C15.1954136,1.25 17.75,3.9083786 17.75,7.14285707 C17.75,7.17864037 17.7496881,7.21435595 17.7490664,7.25 L19,7.25 C19.9664993,7.25 20.75,8.03350163 20.75,9 L20.75,20 C20.75,20.9664993 19.9664993,21.75 19,21.75 L5,21.75 C4.03350163,21.75 3.25,20.9664993 3.25,20 L3.25,9 C3.25,8.03350163 4.03350174,7.25 5,7.25 L6.25093365,7.25 C6.25031209,7.21435595 6.25,7.17864037 6.25,7.14285707 Z M12,2.75 C14.3274345,2.75 16.25,4.69669223 16.25,7.14285707 C16.25,7.17868423 16.2495861,7.21439981 16.248764,7.25 L7.75123549,7.25 C7.75041342,7.21439981 7.75,7.17868423 7.75,7.14285707 C7.75,4.69669223 9.67256594,2.75 12,2.75 Z M5,8.75 L19,8.75 C19.1380711,8.75 19.25,8.86192894 19.25,9 L19.25,20 C19.25,20.138073 19.1380711,20.25 19,20.25 L5,20.25 C4.86192894,20.25 4.75,20.138073 4.75,20 L4.75,9 C4.75,8.86192894 4.86192882,8.75 5,8.75 Z" id="Union" fill="#000000" mask="url(#mask-2)"></path>
                        </g>
                    </g>
                </g>
            </g>
        </g>
    </g>
</svg>