<svg width="12" height="12" viewBox="0 0 12 12" xmlns="http://www.w3.org/2000/svg" xmlns:xlink="http://www.w3.org/1999/xlink">
    <defs>
        <path id="0j0c85pf2a" d="M0 0h12v12H0z"/>
    </defs>
    <g fill="none" fill-rule="evenodd">
        <mask id="49yejw6lfb" fill="#fff">
            <use xlink:href="#0j0c85pf2a"/>
        </mask>
        <path d="M6.315 8.97c-.134.31-.332.59-.58.828a2.69 2.69 0 0 1-.869.553 2.791 2.791 0 0 1-2.05 0 2.69 2.69 0 0 1-.868-.553 2.548 2.548 0 0 1-.58-.828 2.45 2.45 0 0 1-.204-.977h.992c0 .21.043.42.128.615s.209.372.365.521c.157.15.343.268.547.349a1.757 1.757 0 0 0 1.29 0c.205-.081.39-.2.547-.349.157-.149.281-.326.366-.521.085-.195.128-.404.128-.615h.992c0 .335-.07.667-.204.977z" fill="#A4A6AA" fill-rule="nonzero" mask="url(#49yejw6lfb)" transform="rotate(40.638 3.841 9.27)"/>
        <path d="M5.428 8.574a1.094 1.094 0 0 1-.264.355 1.238 1.238 0 0 1-.396.237 1.343 1.343 0 0 1-.933 0 1.238 1.238 0 0 1-.396-.237 1.094 1.094 0 0 1-.265-.355.997.997 0 0 1-.093-.419h.988a.19.19 0 0 0 .018.08.209.209 0 0 0 .05.068.256.256 0 0 0 .329 0 .209.209 0 0 0 .05-.068.19.19 0 0 0 .018-.08h.987a.997.997 0 0 1-.093.42z" fill="#A4A6AA" fill-rule="nonzero" mask="url(#49yejw6lfb)" transform="rotate(40.638 4.301 8.703)"/>
        <path d="M11.32 2.597a2.02 2.02 0 0 0-1.378-.534 2.02 2.02 0 0 0-1.378.534c-.366.342-.571.805-.571 1.29h.99c0-.239.1-.467.28-.635a.994.994 0 0 1 .679-.263c.254 0 .498.094.678.263.18.168.28.396.28.634h.991c0-.484-.205-.947-.57-1.29z" fill="#A4A6AA" fill-rule="nonzero" mask="url(#49yejw6lfb)" transform="rotate(40.638 9.942 2.974)"/>
        <path d="M8.383 3.285c.275 0 .497.222.497.496v6.772a.497.497 0 0 1-.994 0V3.78c0-.274.223-.496.497-.496z" fill="#A4A6AA" mask="url(#49yejw6lfb)" transform="rotate(40.638 8.383 7.167)"/>
        <path d="M6.169 1.476c.274 0 .497.223.497.497v6.622a.497.497 0 0 1-.994 0V1.973c0-.274.222-.497.497-.497z" fill="#A4A6AA" mask="url(#49yejw6lfb)" transform="rotate(40.638 6.169 5.284)"/>
        <path d="M6.758 3.841c.274 0 .497.223.497.497v5.036a.497.497 0 0 1-.994 0V4.338c0-.274.222-.497.497-.497z" fill="#A4A6AA" mask="url(#49yejw6lfb)" transform="rotate(40.638 6.758 6.856)"/>
        <path d="M4.981.643c.274 0 .497.222.497.497v6.605a.497.497 0 0 1-.994 0V1.14c0-.275.223-.497.497-.497z" fill="#A4A6AA" mask="url(#49yejw6lfb)" transform="rotate(40.638 4.981 4.442)"/>
    </g>
</svg>
