<?xml version="1.0" encoding="UTF-8"?>
<svg width="20px" height="59px" viewBox="0 0 20 59" version="1.1" xmlns="http://www.w3.org/2000/svg" xmlns:xlink="http://www.w3.org/1999/xlink">
    <title>7B7CA67E-F2A2-89E8-5C88-40014D754A3B</title>
    <defs>
        <rect id="path-1" x="0" y="0" width="20" height="20"></rect>
        <path d="M8.26528147,17 L8.26528147,16.3748301 L5.09940517,16.3748301 L5.09940517,3.24627897 L4.47028787,3.24627897 C3.8411716,3.58728044 2.94823202,3.87144789 1.81176328,4.04194863 L1.81176328,4.53450561 L4.38911234,4.53450561 L4.38911234,16.3748301 L1,16.3748301 L1,17 L8.26528147,17 Z M19,17 L19,16.3748301 L14.007656,16.3748301 C13.2161867,16.3748301 12.404423,16.4127203 11.5926596,16.4695539 C15.8544171,12.7943168 18.269413,9.87686052 18.269413,6.86468183 C18.269413,4.53450561 16.8285335,3 14.3323612,3 C12.6073641,3 11.3694252,3.87144795 10.334427,4.95128525 L10.8417784,5.38700899 C11.734718,4.34506036 12.9523636,3.62516899 14.2714788,3.62516899 C16.5241219,3.62516899 17.4982378,5.08389737 17.4982378,6.86468183 C17.4982378,9.46008088 15.6108879,12.3775367 10.3750143,16.5642758 L10.3750143,17 L19,17 Z" id="path-3"></path>
        <mask id="mask-4" maskContentUnits="userSpaceOnUse" maskUnits="objectBoundingBox" x="-0.200000003" y="-0.200000003" width="18.4" height="14.4">
            <rect x="0.799999997" y="2.8" width="18.4" height="14.4" fill="white"></rect>
            <use xlink:href="#path-3" fill="black"></use>
        </mask>
        <rect id="path-5" x="0" y="0" width="20" height="20"></rect>
        <path d="M8.26528147,17 L8.26528147,16.3748301 L5.09940517,16.3748301 L5.09940517,3.24627897 L4.47028787,3.24627897 C3.8411716,3.58728044 2.94823202,3.87144789 1.81176328,4.04194863 L1.81176328,4.53450561 L4.38911234,4.53450561 L4.38911234,16.3748301 L1,16.3748301 L1,17 L8.26528147,17 Z M19,17 L19,16.3748301 L14.007656,16.3748301 C13.2161867,16.3748301 12.404423,16.4127203 11.5926596,16.4695539 C15.8544171,12.7943168 18.269413,9.87686052 18.269413,6.86468183 C18.269413,4.53450561 16.8285335,3 14.3323612,3 C12.6073641,3 11.3694252,3.87144795 10.334427,4.95128525 L10.8417784,5.38700899 C11.734718,4.34506036 12.9523636,3.62516899 14.2714788,3.62516899 C16.5241219,3.62516899 17.4982378,5.08389737 17.4982378,6.86468183 C17.4982378,9.46008088 15.6108879,12.3775367 10.3750143,16.5642758 L10.3750143,17 L19,17 Z" id="path-7"></path>
        <mask id="mask-8" maskContentUnits="userSpaceOnUse" maskUnits="objectBoundingBox" x="-0.200000003" y="-0.200000003" width="18.4" height="14.4">
            <rect x="0.799999997" y="2.8" width="18.4" height="14.4" fill="white"></rect>
            <use xlink:href="#path-7" fill="black"></use>
        </mask>
    </defs>
    <g id="💎-Components" stroke="none" stroke-width="1" fill="none" fill-rule="evenodd">
        <g id="Icons/Grid" transform="translate(-1773.000000, -1116.000000)">
            <g id="20dp" transform="translate(62.000000, 941.000000)">
                <g id="Black" transform="translate(954.000000, 0.000000)">
                    <g id="Icon-/-20-/-Black" transform="translate(34.000000, 41.000000)">
                        <g id="icons-/-20-/-ic_fontsize_off_on" transform="translate(723.000000, 134.000000)">
                            <g id="Property-1=20,-Property-2=ic_pontsize_black">
                                <mask id="mask-2" fill="white">
                                    <use xlink:href="#path-1"></use>
                                </mask>
                                <g id="Property-1=20,-Property-2=ic_pontsize_black-(Background/Mask)"></g>
                                <g id="12" stroke-dasharray="0,0" mask="url(#mask-2)" fill="#000000" stroke="#000000" stroke-width="0.400000006">
                                    <use mask="url(#mask-4)" xlink:href="#path-3"></use>
                                </g>
                            </g>
                            <g id="Property-1=20,-Property-2=ic_pontsize_primary" transform="translate(0.000000, 39.000000)">
                                <mask id="mask-6" fill="white">
                                    <use xlink:href="#path-5"></use>
                                </mask>
                                <g id="Property-1=20,-Property-2=ic_pontsize_primary-(Background/Mask)"></g>
                                <g id="21" stroke-dasharray="0,0" mask="url(#mask-6)" fill="#FF664D" stroke="#FF664D" stroke-width="0.400000006">
                                    <use mask="url(#mask-8)" xlink:href="#path-7"></use>
                                </g>
                            </g>
                        </g>
                    </g>
                </g>
            </g>
        </g>
    </g>
</svg>