<svg width="16" height="16" viewBox="0 0 16 16" xmlns="http://www.w3.org/2000/svg" xmlns:xlink="http://www.w3.org/1999/xlink">
    <defs>
        <path id="crf2dwehwb" d="M0 0h16v16H0z"/>
        <path id="dxjwzny3qa" d="M3 3h10v10H3z"/>
        <mask id="vjq2tj7gad" maskContentUnits="userSpaceOnUse" maskUnits="objectBoundingBox" x="0" y="0" width="10" height="10" fill="#fff">
            <use xlink:href="#dxjwzny3qa"/>
        </mask>
    </defs>
    <g fill="none" fill-rule="evenodd">
        <mask id="rr5swe99gc" fill="#fff">
            <use xlink:href="#crf2dwehwb"/>
        </mask>
        <path d="M5.5 1a.5.5 0 0 1 .5.5v2a.5.5 0 0 1-1 0v-2a.5.5 0 0 1 .5-.5z" fill="#FFF" mask="url(#rr5swe99gc)"/>
        <path d="M2.5 9a.5.5 0 0 1 .5.5v2a.5.5 0 1 1-1 0v-2a.5.5 0 0 1 .5-.5z" fill="#FFF" mask="url(#rr5swe99gc)" transform="rotate(-90 2.5 10.5)"/>
        <path d="M13.5 9a.5.5 0 0 1 .5.5v2a.5.5 0 1 1-1 0v-2a.5.5 0 0 1 .5-.5z" fill="#FFF" mask="url(#rr5swe99gc)" transform="rotate(-90 13.5 10.5)"/>
        <path d="M5.5 12a.5.5 0 0 1 .5.5v2a.5.5 0 1 1-1 0v-2a.5.5 0 0 1 .5-.5zM10.5 1a.5.5 0 0 1 .5.5v2a.5.5 0 1 1-1 0v-2a.5.5 0 0 1 .5-.5z" fill="#FFF" mask="url(#rr5swe99gc)"/>
        <path d="M2.5 4a.5.5 0 0 1 .5.5v2a.5.5 0 1 1-1 0v-2a.5.5 0 0 1 .5-.5z" fill="#FFF" mask="url(#rr5swe99gc)" transform="rotate(-90 2.5 5.5)"/>
        <path d="M13.5 4a.5.5 0 0 1 .5.5v2a.5.5 0 1 1-1 0v-2a.5.5 0 0 1 .5-.5z" fill="#FFF" mask="url(#rr5swe99gc)" transform="rotate(-90 13.5 5.5)"/>
        <path d="M10.5 12a.5.5 0 0 1 .5.5v2a.5.5 0 1 1-1 0v-2a.5.5 0 0 1 .5-.5z" fill="#FFF" mask="url(#rr5swe99gc)"/>
        <g stroke-dasharray="0,0" mask="url(#rr5swe99gc)" stroke="#FFF" stroke-width="2">
            <use mask="url(#vjq2tj7gad)" xlink:href="#dxjwzny3qa"/>
        </g>
        <path d="M6.5 9h3a.5.5 0 0 1 0 1h-3a.5.5 0 0 1 0-1z" fill="#FFF" mask="url(#rr5swe99gc)"/>
    </g>
</svg>
