<?xml version="1.0" encoding="UTF-8"?>
<svg width="16px" height="16px" viewBox="0 0 16 16" version="1.1" xmlns="http://www.w3.org/2000/svg" xmlns:xlink="http://www.w3.org/1999/xlink">
    <title>7E3ADD17-DD2D-4A4F-AD92-70AC2A36E8FC</title>
    <g id="온보딩/로그인" stroke="none" stroke-width="1" fill="none" fill-rule="evenodd">
        <g id="학습카드_학습중/학습완료-추가" transform="translate(-244.000000, -605.000000)">
            <g id="icons-/-16-/-ic_learned" transform="translate(244.000000, 605.000000)">
                <path d="M6.96472382,15.3063971 C6.35239166,15.5554105 5.64916542,15.3669816 5.24337692,14.8451636 C4.80348767,14.2794942 4.16005467,13.908008 3.45022597,13.8098874 C2.79542406,13.7193733 2.28062672,13.2045759 2.19011259,12.549774 C2.09199203,11.8399453 1.72050581,11.1965123 1.15483641,10.7566231 C0.633018378,10.3508346 0.444589475,9.64760834 0.693602894,9.03527618 C0.963542345,8.37148622 0.963542345,7.62851378 0.693602894,6.96472382 C0.444589475,6.35239166 0.633018378,5.64916542 1.15483641,5.24337692 C1.72050581,4.80348767 2.09199203,4.16005467 2.19011259,3.45022597 C2.28062672,2.79542406 2.79542406,2.28062672 3.45022597,2.19011259 C4.16005467,2.09199203 4.80348767,1.72050581 5.24337692,1.15483641 C5.64916542,0.633018378 6.35239166,0.444589475 6.96472382,0.693602894 C7.62851378,0.963542345 8.37148622,0.963542345 9.03527618,0.693602894 C9.64760834,0.444589475 10.3508346,0.633018378 10.7566231,1.15483641 C11.1965123,1.72050581 11.8399453,2.09199203 12.549774,2.19011259 C13.2045759,2.28062672 13.7193733,2.79542406 13.8098874,3.45022597 C13.908008,4.16005467 14.2794942,4.80348767 14.8451636,5.24337692 C15.3669816,5.64916542 15.5554105,6.35239166 15.3063971,6.96472382 C15.0364577,7.62851378 15.0364577,8.37148622 15.3063971,9.03527618 C15.5554105,9.64760834 15.3669816,10.3508346 14.8451636,10.7566231 C14.2794942,11.1965123 13.908008,11.8399453 13.8098874,12.549774 C13.7193733,13.2045759 13.2045759,13.7193733 12.549774,13.8098874 C11.8399453,13.908008 11.1965123,14.2794942 10.7566231,14.8451636 C10.3508346,15.3669816 9.64760834,15.5554105 9.03527618,15.3063971 C8.37148622,15.0364577 7.62851378,15.0364577 6.96472382,15.3063971 Z" id="Star" fill="#A4A6AA"></path>
                <polyline id="Path" stroke="#FFFFFF" stroke-width="1.5" stroke-linecap="round" stroke-linejoin="round" points="5.71355057 8 7.31714357 9.5 10.3171436 6.5"></polyline>
            </g>
        </g>
    </g>
</svg>