<?xml version="1.0" encoding="UTF-8"?>
<svg width="24px" height="24px" viewBox="0 0 24 24" version="1.1" xmlns="http://www.w3.org/2000/svg" xmlns:xlink="http://www.w3.org/1999/xlink">
    <title>6FBD96FA-DC95-EC7B-263D-B399E9A4C15D</title>
    <g id="💎-Components" stroke="none" stroke-width="1" fill="none" fill-rule="evenodd">
        <g id="Icons/Grid" transform="translate(-1540.000000, -1303.000000)">
            <g id="24dp" transform="translate(62.000000, 1263.000000)">
                <g id="Black" transform="translate(954.000000, 0.000000)">
                    <g id="Icon-/-24-/-Black" transform="translate(40.000000, 40.000000)">
                        <g id="Icons-/-24-/-ic_addphoto_grey05" transform="translate(484.000000, 0.000000)">
                            <rect id="area" x="0" y="0" width="24" height="24"></rect>
                            <path d="M23,12 C23,5.92486763 18.0751324,1 12,1 C5.92486763,1 1,5.92486763 1,12 C1,18.0751324 5.92486763,23 12,23 C18.0751324,23 23,18.0751324 23,12 Z M15.3890686,7.20693254 L16.8032818,8.6211462 C16.9985437,8.81640816 16.9985437,9.13299084 16.8032818,9.32825279 L15.7498531,10.3816814 L13.6285324,8.26036167 L14.6819611,7.20693207 C14.877224,7.01167011 15.1938057,7.01167059 15.3890686,7.20693254 Z M15.0427456,11.088789 L9.49651146,16.6350231 L7.18801546,17.0547485 C7.05054855,17.0797424 6.93047047,16.9596653 6.95546484,16.8221979 L7.37519073,14.5137024 L12.9214249,8.96746826 L15.0427456,11.088789 Z" id="Subtract" fill="#A4A6AA"></path>
                        </g>
                    </g>
                </g>
            </g>
        </g>
    </g>
</svg>