<?xml version="1.0" encoding="UTF-8"?>
<svg width="36px" height="36px" viewBox="0 0 36 36" version="1.1" xmlns="http://www.w3.org/2000/svg" xmlns:xlink="http://www.w3.org/1999/xlink">
    <title>CB9B3483-E626-0B06-DB33-03EA2A73DB02</title>
    <defs>
        <rect id="path-1" x="0" y="0" width="36" height="36"></rect>
    </defs>
    <g id="💎-Components" stroke="none" stroke-width="1" fill="none" fill-rule="evenodd">
        <g id="Icons/Grid" transform="translate(-508.000000, -1625.000000)">
            <g id="etc" transform="translate(62.000000, 1585.000000)">
                <g id="White" transform="translate(122.000000, 0.000000)">
                    <g id="Group-5844" transform="translate(40.000000, 40.000000)">
                        <g id="Icons-/-36-/-ic_forward_white" transform="translate(284.000000, 0.000000)">
                            <mask id="mask-2" fill="white">
                                <use xlink:href="#path-1"></use>
                            </mask>
                            <g id="Icons-/-36-/-ic_forward_white-(Background/Mask)"></g>
                            <path d="M13.2432814,23.0000176 L13.2432814,21.9290175 L11.9922814,21.9290175 L11.9922814,16.331017 L11.0112814,16.331017 C10.5882813,16.6010173 10.1292813,16.7720174 9.46328127,16.8980174 L9.46328127,17.7170177 L10.6692814,17.7170177 L10.6692814,21.9290175 L9.23828125,21.9290175 L9.23828125,23.0000176 L13.2432814,23.0000176 Z M18.5050859,19.6430173 C18.5050859,17.3480172 17.6140864,16.2140176 16.2550864,16.2140176 C14.8960863,16.2140176 13.9960861,17.3390174 13.9960861,19.6430173 C13.9960861,21.9380174 14.8960863,23.126018 16.2550864,23.126018 C17.6140864,23.126018 18.5050859,21.9380174 18.5050859,19.6430173 Z M15.2470865,19.6430173 C15.2470865,17.7800171 15.6790863,17.2400174 16.2550864,17.2400174 C16.8310865,17.2400174 17.2540865,17.7800171 17.2540865,19.6430173 C17.2540865,21.5150175 16.8310865,22.0910172 16.2550864,22.0910172 C15.6790863,22.0910172 15.2470865,21.5150175 15.2470865,19.6430173 Z M22.8398914,18.8960176 C23.3888916,19.7420176 24.4418912,20.3540178 25.9268913,20.5520177 L26.3498898,19.6160173 C24.4598899,19.3910173 23.5508913,18.4640176 23.4518909,17.5550175 L25.944891,17.5550175 L25.944891,16.6100173 L23.4338913,16.6100173 L23.4338913,15.5930176 L22.2458916,15.5930176 L22.2458916,16.6100173 L19.7348909,16.6100173 L19.7348909,17.5550175 L22.227891,17.5550175 C22.1288909,18.4640176 21.2198912,19.3910173 19.3298912,19.6160173 L19.7528915,20.5520177 C21.2378916,20.3540178 22.2908915,19.7420176 22.8398914,18.8960176 Z M23.4338913,20.2640176 L22.2458916,20.2640176 L22.2458916,21.8660178 L19.0868912,21.8660178 L19.0868912,22.8290172 L26.5928898,22.8290172 L26.5928898,21.8660178 L23.4338913,21.8660178 L23.4338913,20.2640176 Z" id="10초" fill="#FFFFFF" mask="url(#mask-2)"></path>
                            <path d="M33.9834602,20.5140469 C33.7808945,23.7517071 32.5978346,26.8602595 30.5797603,29.4201749 C28.3547971,32.2425275 25.2444184,34.233611 21.7498157,35.0725911 C18.255213,35.9115712 14.5799115,35.5495852 11.3161332,34.0449631 C8.05235503,32.540341 5.39018284,29.9807122 3.75858484,26.7785218 C2.12698684,23.5763314 1.62098847,19.9180775 2.32212363,16.3932307 C3.02325879,12.8683839 4.89069365,9.68223287 7.62351821,7.34817936 C10.3563428,5.01412584 13.7953968,3.66810547 17.3865287,3.52700887 C20.6437383,3.39903217 23.8539975,4.26907744 26.592385,6.00824691 C27.0585916,6.30433796 27.1560902,6.93260868 26.8314655,7.37941648 L26.8314655,7.37941648 C26.5068407,7.82622428 25.8831516,7.92189799 25.4143188,7.6299832 C23.0415532,6.15260054 20.2732422,5.41513219 17.4650485,5.52546693 C14.3228082,5.64892647 11.313636,6.82669474 8.92241452,8.86899163 C6.531193,10.9112885 4.89718751,13.6991694 4.28369425,16.7834103 C3.67020099,19.8676512 4.11294971,23.0686233 5.5405979,25.8705399 C6.96824609,28.6724565 9.29764674,30.9121328 12.1534526,32.2286771 C15.0092585,33.5452213 18.2251479,33.8619583 21.2829254,33.1278508 C24.3407028,32.3937432 27.0622845,30.6515455 29.0091274,28.1819871 C30.7490045,25.9749634 31.7795505,23.301882 31.9789989,20.5138905 C32.0184077,19.9630136 32.4624045,19.5146668 33.0146892,19.5146668 L33.0146892,19.5146668 C33.5669739,19.5146668 34.0179467,19.96284 33.9834602,20.5140469 Z" id="Ellipse-1047" fill="#FFFFFF" fill-rule="nonzero" mask="url(#mask-2)" transform="translate(17.999991, 19.514676) scale(-1, 1) rotate(-89.999997) translate(-17.999991, -19.514676) "></path>
                            <path d="M15.7927127,8.29270935 L15.7069574,8.20695448 C15.3164313,7.81643242 15.3164307,7.18327087 15.7069569,6.79274845 L17.9999747,4.499753 L15.7071156,2.20691526 C15.3165895,1.81639272 15.3165893,1.18323135 15.7071155,0.792708993 L15.7928708,0.706954509 C16.1833971,0.316432148 16.8165645,0.316431642 17.2070906,0.706954092 L20.2927966,3.79263091 C20.6566567,4.15648776 20.6815014,4.73097852 20.3673315,5.12360048 C20.3442635,5.15244388 20.319366,5.18030596 20.2926397,5.2070322 L17.2069328,8.29270887 C16.8164065,8.68323129 16.1832389,8.68323141 15.7927127,8.29270935 Z" id="Union" fill="#FFFFFF" fill-rule="nonzero" mask="url(#mask-2)"></path>
                            <path d="M20.7927127,8.29270935 L20.7069574,8.20695448 C20.3164313,7.81643242 20.3164307,7.18327087 20.7069569,6.79274845 L22.9999747,4.499753 L20.7071156,2.20691526 C20.3165895,1.81639272 20.3165893,1.18323135 20.7071155,0.792708993 L20.7928708,0.706954509 C21.1833971,0.316432148 21.8165645,0.316431642 22.2070906,0.706954092 L25.2927966,3.79263091 C25.6566567,4.15648776 25.6815014,4.73097852 25.3673315,5.12360048 C25.3442635,5.15244388 25.319366,5.18030596 25.2926397,5.2070322 L22.2069328,8.29270887 C21.8164065,8.68323129 21.1832389,8.68323141 20.7927127,8.29270935 Z" id="Union" fill="#FFFFFF" fill-rule="nonzero" mask="url(#mask-2)"></path>
                        </g>
                    </g>
                </g>
            </g>
        </g>
    </g>
</svg>