<svg width="36" height="36" viewBox="0 0 36 36" xmlns="http://www.w3.org/2000/svg" xmlns:xlink="http://www.w3.org/1999/xlink">
    <defs>
        <path id="83azioxwea" d="M0 0h36v36H0z"/>
    </defs>
    <g fill="none" fill-rule="evenodd">
        <mask id="gsd52x53tb" fill="#fff">
            <use xlink:href="#83azioxwea" transform="matrix(-1 0 0 1 36 0)"/>
        </mask>
        <path d="M13.243 23v-1.071h-1.25v-5.598h-.982c-.423.27-.882.441-1.548.567v.819h1.206v4.212H9.24V23h4.004zm5.262-3.357c0-2.295-.89-3.429-2.25-3.429-1.359 0-2.259 1.125-2.259 3.429 0 2.295.9 3.483 2.26 3.483 1.358 0 2.25-1.188 2.25-3.483zm-3.258 0c0-1.863.432-2.403 1.008-2.403.576 0 1 .54 1 2.403 0 1.872-.424 2.448-1 2.448-.576 0-1.008-.576-1.008-2.448zm7.593-.747c.549.846 1.602 1.458 3.087 1.656l.423-.936c-1.89-.225-2.8-1.152-2.898-2.061h2.493v-.945h-2.511v-1.017h-1.188v1.017h-2.511v.945h2.493c-.1.909-1.008 1.836-2.898 2.061l.423.936c1.485-.198 2.538-.81 3.087-1.656zm.594 1.368h-1.188v1.602h-3.16v.963h7.507v-.963h-3.16v-1.602z" fill="#FFF" mask="url(#gsd52x53tb)"/>
        <path d="M33.983 20.514a16 16 0 1 1-7.39-14.506c.466.296.563.925.238 1.371-.324.447-.948.543-1.417.251a14 14 0 1 0 6.565 12.884c.04-.551.483-1 1.036-1 .552 0 1.003.449.968 1z" fill="#FFF" fill-rule="nonzero" mask="url(#gsd52x53tb)" transform="rotate(-90 18 19.515)"/>
        <path d="m21.793 2.293-.086-.086a1 1 0 0 0-1.414 0L18 4.5l-2.293-2.293a1 1 0 0 0-1.414 0l-.086.086a1 1 0 0 0 0 1.414l3.086 3.086a1 1 0 0 0 1.414 0l3.086-3.086a1 1 0 0 0 0-1.414z" fill="#FFF" mask="url(#gsd52x53tb)" transform="matrix(0 -1 -1 0 22.5 22.5)"/>
        <path d="m16.793 2.293-.086-.086a1 1 0 0 0-1.414 0L13 4.5l-2.293-2.293a1 1 0 0 0-1.414 0l-.086.086a1 1 0 0 0 0 1.414l3.086 3.086a1 1 0 0 0 1.414 0l3.086-3.086a1 1 0 0 0 0-1.414z" fill="#FFF" mask="url(#gsd52x53tb)" transform="matrix(0 -1 -1 0 17.5 17.5)"/>
    </g>
</svg>
