<svg width="16" height="16" viewBox="0 0 16 16" xmlns="http://www.w3.org/2000/svg" xmlns:xlink="http://www.w3.org/1999/xlink">
    <defs>
        <path id="x5m2lsjbsa" d="M0 0h16v16H0z"/>
    </defs>
    <g fill="none" fill-rule="evenodd">
        <mask id="e0e9hrpxub" fill="#fff">
            <use xlink:href="#x5m2lsjbsa"/>
        </mask>
        <path d="M10.7 8.173a.2.2 0 0 0 0-.346L6.8 5.575a.2.2 0 0 0-.3.173v4.504a.2.2 0 0 0 .3.173l3.9-2.252zM8 16A8 8 0 1 1 8 0a8 8 0 0 1 0 16zm0-1A7 7 0 1 1 8 1a7 7 0 0 1 0 14z" fill="#000" mask="url(#e0e9hrpxub)"/>
    </g>
</svg>
