<?xml version="1.0" encoding="UTF-8"?>
<svg width="21px" height="20px" viewBox="0 0 21 20" version="1.1" xmlns="http://www.w3.org/2000/svg" xmlns:xlink="http://www.w3.org/1999/xlink">
    <title>6523D5A5-6390-6A3F-9E0A-6A5BAEBB57CB</title>
    <g id="💎-Components" stroke="none" stroke-width="1" fill="none" fill-rule="evenodd">
        <g id="Icons/Grid" transform="translate(-1250.000000, -1022.000000)">
            <g id="20dp" transform="translate(62.000000, 941.000000)">
                <g id="Black" transform="translate(954.000000, 0.000000)">
                    <g id="Icon-/-20-/-Black" transform="translate(34.000000, 41.000000)">
                        <g id="Icons-/-20-/-ic_classroom_black" transform="translate(200.000000, 40.000000)">
                            <rect id="area" x="0" y="0" width="20" height="20"></rect>
                            <path d="M13,9.58569335 L18,9.58569329 L18.0000001,17.5856933 L13.0000001,17.5856934 L13,9.58569335 Z M12.0000001,17.5856934 C12.0000001,18.1379778 12.4477154,18.5856934 13.0000001,18.5856934 L18.0000001,18.5856933 C18.5522849,18.5856933 19.0000001,18.1379779 19.0000001,17.5856933 L19,9.58569328 C19,9.03340808 18.5522848,8.58569328 18,8.58569329 L13,8.58569335 C12.4477148,8.58569336 12,9.03340817 12,9.58569337 L12.0000001,17.5856934 Z" id="Rectangle-4553-(Stroke)" fill="#000000"></path>
                            <path d="M12.0000005,7.00000009 L7.00000009,2.00000052 L2.00000052,7.00000096 L2.00000145,17.5857878 L12.0000014,17.5857869 L12.0000005,7.00000009 Z M13.0000005,7 C13.0000005,6.73478317 12.8946433,6.48042966 12.7071069,6.29289296 L7.70710614,1.29289378 C7.31658172,0.902369579 6.68341636,0.902369396 6.29289248,1.29289361 L1.29289197,6.29289348 C1.10535479,6.48042974 1.0000005,6.73478374 1.00000052,7.00000105 L1.00000145,17.5857879 C1.0000015,18.138074 1.44771444,18.5857878 2.00000154,18.5857878 L13.0000015,18.5857868 L13.0000005,7 Z" id="Rectangle-4552-(Stroke)" fill="#000000"></path>
                            <path d="M5.99999978,17.5856932 L7.99999978,17.5856933 L7.99999991,14.5856933 C7.99999994,14.0334086 7.55228515,13.5856933 6.99999996,13.5856933 C6.44771536,13.5856932 5.99999994,14.0334085 5.99999991,14.5856932 L5.99999978,17.5856932 Z M8.99999974,18.5856934 L8.99999991,14.5856934 C8.99999996,13.4811239 8.10456991,12.5856933 7,12.5856933 C5.89543056,12.5856932 4.99999996,13.4811237 4.99999991,14.5856932 L4.99999974,18.5856932 L8.99999974,18.5856934 Z" id="Rectangle-4573-(Stroke)" fill="#000000"></path>
                            <path d="M4.5,6.58569336 L9.5,6.58569336 C9.77614236,6.58569336 10,6.809551 10,7.08569336 L10,7.08569336 C10,7.36183572 9.77614236,7.58569336 9.5,7.58569336 L4.5,7.58569336 C4.22385752,7.58569336 4,7.36183572 4,7.08569336 L4,7.08569336 C4,6.809551 4.22385764,6.58569336 4.5,6.58569336 Z" id="Rectangle-4574" fill="#000000" fill-rule="nonzero"></path>
                            <path d="M4.5,8.58569336 L9.5,8.58569336 C9.77614236,8.58569336 10,8.809551 10,9.08569336 L10,9.08569336 C10,9.36183572 9.77614236,9.58569336 9.5,9.58569336 L4.5,9.58569336 C4.22385752,9.58569336 4,9.36183572 4,9.08569336 L4,9.08569336 C4,8.809551 4.22385764,8.58569336 4.5,8.58569336 Z" id="Rectangle-4575" fill="#000000" fill-rule="nonzero"></path>
                        </g>
                    </g>
                </g>
            </g>
        </g>
    </g>
</svg>