<?xml version="1.0" encoding="UTF-8"?>
<svg width="24px" height="68px" viewBox="0 0 24 68" version="1.1" xmlns="http://www.w3.org/2000/svg" xmlns:xlink="http://www.w3.org/1999/xlink">
    <title>77DE89F2-4634-F108-C2A5-ABDA37867C77</title>
    <g id="💎-Components" stroke="none" stroke-width="1" fill="none" fill-rule="evenodd">
        <g id="Icons/Grid" transform="translate(-366.000000, -1385.000000)">
            <g id="24dp" transform="translate(62.000000, 1263.000000)">
                <g id="White" transform="translate(122.000000, 0.000000)">
                    <g id="Icon-/-24-/-White" transform="translate(40.000000, 40.000000)">
                        <g id="Icons-/-24-/-ic_cc_off_on" transform="translate(142.000000, 82.000000)">
                            <g id="Property-1=24,-Property-2=ic_cc_on_white" transform="translate(0.000000, 44.000000)">
                                <rect id="area" x="0" y="0" width="24" height="24"></rect>
                                <path d="M1,4 L1,20 C1,21.1045704 1.89542997,22 3,22 L21,22 C22.1045685,22 23,21.1045685 23,20 L23,4 C23,2.89543056 22.1045704,2 21,2 L3,2 C1.89543056,2 1,2.89543104 1,4 Z M9.40995407,15.1540203 C7.78195381,15.1540203 6.5279541,13.9880199 6.5279541,11.9860201 C6.5279541,9.96201992 7.92495394,8.79602051 9.51995468,8.79602051 C10.2899542,8.79602051 10.8509541,9.10402012 11.2799549,9.5000205 L10.6639547,10.3140202 C10.3339548,10.0280199 9.99295425,9.85202026 9.58595467,9.85202026 C8.55195427,9.85202026 7.83695412,10.6990204 7.83695412,11.9860201 C7.83695412,13.2620201 8.52995443,14.1090202 9.54195404,14.1090202 C10.0479546,14.1090202 10.4989548,13.8670206 10.8619547,13.559021 L11.3789539,14.4060211 C10.8289547,14.8900204 10.1139545,15.1540203 9.40995407,15.1540203 Z M15.5595636,15.1540203 C13.9315634,15.1540203 12.6775637,13.9880199 12.6775637,11.9860201 C12.6775637,9.96201992 14.074564,8.79602051 15.6695642,8.79602051 C16.4395638,8.79602051 17.0005627,9.10402012 17.4295635,9.5000205 L16.8135643,10.3140202 C16.4835644,10.0280199 16.1425638,9.85202026 15.7355642,9.85202026 C14.7015648,9.85202026 13.9865637,10.6990204 13.9865637,11.9860201 C13.9865637,13.2620201 14.6795645,14.1090202 15.6915646,14.1090202 C16.1975651,14.1090202 16.6485643,13.8670206 17.0115643,13.559021 L17.5285645,14.4060211 C16.9785643,14.8900204 16.2635641,15.1540203 15.5595636,15.1540203 Z" id="Subtract" fill="#FFFFFF"></path>
                            </g>
                            <g id="Property-1=24,-Property-2=ic_cc_off_white">
                                <rect id="area" x="0" y="0" width="24" height="24"></rect>
                                <path d="M3,4 L3,20 L21,20 L21,4 L3,4 Z M1,4 L1,20 C1,21.1045704 1.89542997,22 3,22 L21,22 C22.1045685,22 23,21.1045685 23,20 L23,4 C23,2.89543056 22.1045704,2 21,2 L3,2 C1.89543056,2 1,2.89543104 1,4 Z M10.8509998,14.6100006 L10.3340006,13.7630005 C9.97100034,14.0710005 9.51999998,14.3129997 9.01399994,14.3129997 C8.00199974,14.3129997 7.30900002,13.4659997 7.30900002,12.1899996 C7.30900002,10.9029994 8.02400064,10.0559998 9.05800056,10.0559998 C9.46500057,10.0559998 9.80600062,10.2319997 10.1360006,10.5179996 L10.7520008,9.704 C10.3230008,9.30799985 9.76200002,9 8.9920001,9 C7.39699996,9 6,10.1659994 6,12.1899996 C6,14.1919997 7.25399995,15.3579998 8.88199997,15.3579998 C9.58600008,15.3579998 10.3009997,15.0940006 10.8509998,14.6100006 Z M17.0006104,14.6100006 L16.4836102,13.7630005 C16.1206099,14.0710005 15.6696105,14.3129997 15.1636105,14.3129997 C14.1516103,14.3129997 13.4586096,13.4659997 13.4586096,12.1899996 C13.4586096,10.9029994 14.1736102,10.0559998 15.2076101,10.0559998 C15.6146101,10.0559998 15.9556102,10.2319997 16.2856102,10.5179996 L16.9016094,9.704 C16.4726094,9.30799985 15.9116101,9 15.1416101,9 C13.54661,9 12.1496096,10.1659994 12.1496096,12.1899996 C12.1496096,14.1919997 13.4036095,15.3579998 15.0316095,15.3579998 C15.7356097,15.3579998 16.4506102,15.0940006 17.0006104,14.6100006 Z" id="Vector" fill="#FFFFFF"></path>
                            </g>
                        </g>
                    </g>
                </g>
            </g>
        </g>
    </g>
</svg>