<svg width="24" height="24" viewBox="0 0 24 24" xmlns="http://www.w3.org/2000/svg">
    <g fill="none" fill-rule="evenodd">
        <path d="M0 0h24v24H0z"/>
        <path fill="#FFF" d="M6 6h12v12H6z"/>
        <path d="M23 12c0-6.075-4.925-11-11-11S1 5.925 1 12s4.925 11 11 11 11-4.925 11-11zm-7.61-4.793 1.413 1.414a.5.5 0 0 1 0 .707l-1.053 1.054-2.121-2.122 1.053-1.053a.5.5 0 0 1 .707 0zm-.347 3.882-5.546 5.546-2.309.42a.2.2 0 0 1-.233-.233l.42-2.308 5.546-5.547 2.122 2.122z" fill="#A4A6AA"/>
    </g>
</svg>
