<?xml version="1.0" encoding="UTF-8"?>
<svg width="20px" height="20px" viewBox="0 0 20 20" version="1.1" xmlns="http://www.w3.org/2000/svg" xmlns:xlink="http://www.w3.org/1999/xlink">
    <title>7740084D-76EA-BE72-42B9-D02E4BABDFB6</title>
    <defs>
        <rect id="path-1" x="0" y="0" width="20" height="20"></rect>
    </defs>
    <g id="💎-Components" stroke="none" stroke-width="1" fill="none" fill-rule="evenodd">
        <g id="Icons/Grid" transform="translate(-1158.000000, -1205.000000)">
            <g id="20dp" transform="translate(62.000000, 941.000000)">
                <g id="Black" transform="translate(954.000000, 0.000000)">
                    <g id="Icon-/-20-/-Black" transform="translate(34.000000, 41.000000)">
                        <g id="Property-1=20,-Property-2=ic_textsize_16_black" transform="translate(108.000000, 223.000000)">
                            <mask id="mask-2" fill="white">
                                <use xlink:href="#path-1"></use>
                            </mask>
                            <g id="Property-1=20,-Property-2=ic_textsize_16_black-(Background/Mask)"></g>
                            <path d="M9.06481266,16.9999657 L9.06481266,15.7839661 L6.69681263,15.7839661 L6.69681263,5.27196503 L5.57681274,5.27196503 C4.95281267,5.65596485 4.20081258,5.92796516 3.14481258,6.10396481 L3.14481258,7.04796505 L5.24081278,7.04796505 L5.24081278,15.7839661 L2.6328125,15.7839661 L2.6328125,16.9999657 L9.06481266,16.9999657 Z M18.0758123,13.415966 C18.0758123,10.9519658 16.7958126,9.73596573 14.8118124,9.73596573 C13.8678124,9.73596573 12.7798126,10.3119655 12.0598125,11.2559652 L12.1078129,12.4239655 C12.8918128,11.2559652 13.8358133,10.8079653 14.5878134,10.8079653 C15.9958134,10.8079653 16.6998129,11.8159661 16.6998129,13.415966 C16.6998129,14.9999661 15.8358135,16.0719662 14.7158136,16.0719662 C13.0678134,16.0719662 12.1558123,14.4239659 12.1558123,11.415966 C12.1558123,7.5759654 13.5318124,6.2799654 15.1798124,6.2799654 C15.8838124,6.2799654 16.6038141,6.61596489 17.0518141,7.15996552 L17.8678122,6.26396561 C17.2278123,5.57596493 16.3318133,5.06396484 15.1158133,5.06396484 C12.8438134,5.06396484 10.7798128,6.82396555 10.7798128,11.415966 C10.7798128,15.287966 12.4598134,17.2239666 14.7158136,17.2239666 C16.5238137,17.2239666 18.0758123,15.6879661 18.0758123,13.415966 Z" id="16" fill="#000000" mask="url(#mask-2)"></path>
                        </g>
                    </g>
                </g>
            </g>
        </g>
    </g>
</svg>