<?xml version="1.0" encoding="UTF-8"?>
<svg width="24px" height="24px" viewBox="0 0 24 24" version="1.1" xmlns="http://www.w3.org/2000/svg" xmlns:xlink="http://www.w3.org/1999/xlink">
    <title>E590D5CC-5803-4B5F-8D73-81160B321DA2</title>
    <g id="ðŸ’Ž-Components" stroke="none" stroke-width="1" fill="none" fill-rule="evenodd">
        <g id="Selection-Controls" transform="translate(-369.000000, -584.000000)">
            <g id="checkbox-/-24-/-chk_black_on_disable" transform="translate(369.000000, 584.000000)">
                <path d="M0,0 L24,0 L24,24 L0,24 L0,0 Z" id="States-01=01.-Selected,-States-02=01.-Enabled,-Size=24,-Dark-Mode=No-(Background)"></path>
                <path d="M4,0 L20,0 C22.209139,-4.05812251e-16 24,1.790861 24,4 L24,20 C24,22.209139 22.209139,24 20,24 L4,24 C1.790861,24 2.705415e-16,22.209139 0,20 L0,4 C-2.705415e-16,1.790861 1.790861,4.05812251e-16 4,0 Z" id="ì‚¬ê°í˜•-278" fill="#FF664D" opacity="0.7"></path>
                <path d="M7,12.0004902 L10.3333299,16 L17,8" id="Stroke-3" stroke="#FFFFFF" stroke-width="1.5" opacity="0.7" stroke-linecap="round" stroke-linejoin="round" stroke-dasharray="0,0" fill-rule="nonzero"></path>
            </g>
        </g>
    </g>
</svg>