<?xml version="1.0" encoding="UTF-8"?>
<svg width="16px" height="16px" viewBox="0 0 16 16" version="1.1" xmlns="http://www.w3.org/2000/svg" xmlns:xlink="http://www.w3.org/1999/xlink">
    <title>CD9AE6B2-487E-4803-8FD3-7949474FA295</title>
    <g id="학습현황" stroke="none" stroke-width="1" fill="none" fill-rule="evenodd">
        <g id="학습현황&gt;Calender_foundation-skill+" transform="translate(-219.000000, -120.000000)" stroke="#CBCDCF">
            <g id="학습현황" transform="translate(-254.000000, 84.000000)">
                <g id="데이터" transform="translate(14.000000, 20.000000)">
                    <g id="학습시간-copy" transform="translate(444.000000, 0.000000)">
                        <g id="icons_16_ic_fskill_grey_05" transform="translate(15.000000, 16.000000)">
                            <path d="M7.14050293,2.04977112 C4.1791115,2.04977112 2.58071079,3.69984741 2.34530082,7 L1.11631429,8.81133272 C0.912080792,9.1462787 0.976803852,9.43201696 1.31048347,9.66854751 L2.34530082,10.1362267 L2.82619476,12.7244873 C3.04675039,13.3463321 3.47901917,13.6572545 4.1230011,13.6572545 L5.15791912,13.6572545 L5.15791912,15" id="Path-5" stroke-linecap="round"></path>
                            <path d="M12.0959437,2.42257198 C12.8767901,3.19867973 13.0143024,3.52774545 13.2084882,3.75145304 C13.8950854,3.96028034 14.1332477,4.07012381 14.3045728,4.24532561 C14.4758979,4.42052741 14.5803858,4.66108754 14.577428,4.92547867 C14.2818048,5.48495571 14.167994,5.73960809 14.1515998,5.9716742 C14.4894341,6.60483489 14.5801692,6.85091216 14.577428,7.0959437 C14.5746868,7.34097523 14.4784692,7.58496102 14.2894249,7.76982229 C13.6847778,7.95639515 13.4242349,8.05598512 13.248547,8.20848823 C13.0397197,8.89508536 12.9298762,9.13324771 12.7546744,9.30457283 C12.5794726,9.47589794 12.3389125,9.58038583 12.0745213,9.57742802 C11.5150443,9.28180484 11.2603919,9.16799395 11.0283258,9.1515998 C10.3951651,9.4894341 10.1490878,9.58016925 9.9040563,9.57742802 C9.65902477,9.57468679 9.41503898,9.47846918 9.23017771,9.28942493 C9.04360485,8.68477776 8.94401488,8.4242349 8.79151177,8.24854696 C8.10491464,8.03971966 7.86675229,7.92987619 7.69542717,7.75467439 C7.52410206,7.57947259 7.41961417,7.33891246 7.42257198,7.07452133 C7.71819516,6.51504429 7.83200605,6.26039191 7.8484002,6.0283258 C7.5105659,5.39516511 7.41983075,5.14908784 7.42257198,4.9040563 C7.42531321,4.65902477 7.52153082,4.41503898 7.71057507,4.23017771 C8.31522224,4.04360485 8.5757651,3.94401488 8.75145304,3.79151177 C8.96028034,3.10491464 9.07012381,2.86675229 9.24532561,2.69542717 C9.42052741,2.52410206 9.66108754,2.41961417 9.92547867,2.42257198 C10.4849557,2.71819516 10.7396081,2.83200605 10.9716742,2.8484002 C11.6048349,2.5105659 11.8509122,2.41983075 12.0959437,2.42257198 Z" id="Star" transform="translate(11.000000, 6.000000) rotate(21.000000) translate(-11.000000, -6.000000) "></path>
                            <circle id="Oval" cx="11" cy="6" r="1"></circle>
                            <path d="M12,11.1677935 C11.3333333,11.8874895 11,12.5956676 11,13.2923278 C11,13.988988 11,14.5582121 11,15" id="Path-6" stroke-linecap="round"></path>
                        </g>
                    </g>
                </g>
            </g>
        </g>
    </g>
</svg>