<?xml version="1.0" encoding="UTF-8"?>
<svg width="20px" height="20px" viewBox="0 0 20 20" version="1.1" xmlns="http://www.w3.org/2000/svg" xmlns:xlink="http://www.w3.org/1999/xlink">
    <title>D9B04783-B695-803A-A2C6-FB1B95F69484</title>
    <defs>
        <rect id="path-1" x="0" y="0" width="20" height="20"></rect>
    </defs>
    <g id="💎-Components" stroke="none" stroke-width="1" fill="none" fill-rule="evenodd">
        <g id="Icons/Grid" transform="translate(-1302.000000, -1205.000000)">
            <g id="20dp" transform="translate(62.000000, 941.000000)">
                <g id="Black" transform="translate(954.000000, 0.000000)">
                    <g id="Icon-/-20-/-Black" transform="translate(34.000000, 41.000000)">
                        <g id="icons-/-20-/-ic_textsize_12" transform="translate(252.000000, 223.000000)">
                            <mask id="mask-2" fill="white">
                                <use xlink:href="#path-1"></use>
                            </mask>
                            <g id="Property-1=20,-Property-2=ic_textsize_12_primary-(Background/Mask)"></g>
                            <path d="M9.06481266,17.0000963 L9.06481266,15.7840967 L6.7128129,15.7840967 L6.7128129,5.25609589 L5.59281254,5.25609589 C4.95281267,5.64009571 4.20081258,5.91209602 3.16081262,6.10409546 L3.16081262,7.03209591 L5.24081278,7.03209591 L5.24081278,15.7840967 L2.6328125,15.7840967 L2.6328125,17.0000963 L9.06481266,17.0000963 Z M17.9798117,17.0000963 L17.9798117,15.7360964 L14.7318125,15.7360964 C14.1398125,15.7360964 13.4198124,15.8000959 12.8118124,15.8480959 C15.5638123,13.2400956 17.4038134,10.8560963 17.4038134,8.52009583 C17.4038134,6.42409611 16.0918126,5.0480957 13.9958124,5.0480957 C12.5078123,5.0480957 11.499813,5.73609543 10.539813,6.77609539 L11.3878126,7.60809612 C12.0278126,6.84009552 12.8598127,6.24809551 13.8198128,6.24809551 C15.2758131,6.24809551 15.9798136,7.2240963 15.9798136,8.56809616 C15.9798136,10.584096 14.2838135,12.9200957 10.6038132,16.136096 L10.6038132,17.0000963 L17.9798117,17.0000963 Z" id="12" fill="#FF664D" mask="url(#mask-2)"></path>
                        </g>
                    </g>
                </g>
            </g>
        </g>
    </g>
</svg>