<?xml version="1.0" encoding="UTF-8"?>
<svg width="24px" height="24px" viewBox="0 0 24 24" version="1.1" xmlns="http://www.w3.org/2000/svg" xmlns:xlink="http://www.w3.org/1999/xlink">
    <title>A3FE53B2-3C79-487E-7AC4-6AC693511054</title>
    <defs>
        <rect id="path-1" x="0" y="0" width="24" height="24"></rect>
    </defs>
    <g id="💎-Components" stroke="none" stroke-width="1" fill="none" fill-rule="evenodd">
        <g id="Icons/Grid" transform="translate(-1100.000000, -1391.000000)">
            <g id="24dp" transform="translate(62.000000, 1263.000000)">
                <g id="Black" transform="translate(954.000000, 0.000000)">
                    <g id="Icon-/-24-/-Black" transform="translate(40.000000, 40.000000)">
                        <g id="Icons-/-24-/-ic_putin_black" transform="translate(44.000000, 88.000000)">
                            <mask id="mask-2" fill="white">
                                <use xlink:href="#path-1"></use>
                            </mask>
                            <g id="Icons-/-24-/-ic_putin_black-(Background/Mask)"></g>
                            <path d="M8.75,7.5 C8.75,9.01878309 9.98121691,10.25 11.5,10.25 C13.0187831,10.25 14.25,9.01878309 14.25,7.5 C14.25,5.98121691 13.0187831,4.75 11.5,4.75 C9.98121691,4.75 8.75,5.98121691 8.75,7.5 Z M11.5,3.25 C13.8472104,3.25 15.75,5.15278983 15.75,7.5 C15.75,9.84721041 13.8472104,11.75 11.5,11.75 C9.15278983,11.75 7.25,9.84721041 7.25,7.5 C7.25,5.15278983 9.15278983,3.25 11.5,3.25 Z" id="Ellipse-1040-(Stroke)" fill="#000000" mask="url(#mask-2)"></path>
                            <path d="M11,10.25 C11.4142137,10.25 11.75,10.5857864 11.75,11 C11.75,11.4142136 11.4142137,11.75 11,11.75 C9.6638031,11.75 8.107481,12.52355 6.86229753,13.9878278 C5.62936926,15.4376941 4.75,17.515933 4.75,20 C4.75,20.4142141 4.41421357,20.75 4,20.75 C3.58578643,20.75 3.25,20.4142141 3.25,20 C3.25,17.1559801 4.25856209,14.7342193 5.71959949,13.0161073 C7.16838169,11.3124065 9.11205959,10.25 11,10.25 Z" id="Vector-523-(Stroke)" fill="#000000" mask="url(#mask-2)"></path>
                            <path d="M15.7500003,12.9999997 L15.7500003,17.7499997 L20.5000003,17.7499997 C20.9142139,17.7499997 21.2500003,18.085786 21.2500003,18.4999997 C21.2500003,18.9142133 20.9142139,19.2499997 20.5000003,19.2499997 L15.0000003,19.2499997 C14.5857867,19.2499997 14.2500003,18.9142133 14.2500003,18.4999997 L14.2500003,12.9999997 C14.2500003,12.5857861 14.5857867,12.2499997 15.0000003,12.2499997 C15.4142139,12.2499997 15.7500003,12.5857861 15.7500003,12.9999997 Z" id="Vector-(Stroke)" fill="#000000" mask="url(#mask-2)" transform="translate(17.750000, 15.750000) rotate(-179.999995) translate(-17.750000, -15.750000) "></path>
                            <path d="M20.5694297,13.4880791 L14.5694293,20.4880797 C14.2998627,20.8025743 13.8263876,20.8389951 13.5118932,20.5694281 C13.1973988,20.2998616 13.1609777,19.8263871 13.4305443,19.5118929 L19.4305447,12.5118921 C19.7001113,12.1973977 20.1735862,12.1609765 20.4880804,12.4305432 C20.802575,12.7001097 20.8389963,13.1735847 20.5694297,13.4880791 Z" id="Vector-(Stroke)" fill="#000000" mask="url(#mask-2)" transform="translate(16.999987, 16.499986) rotate(-179.999995) translate(-16.999987, -16.499986) "></path>
                        </g>
                    </g>
                </g>
            </g>
        </g>
    </g>
</svg>