<?xml version="1.0" encoding="UTF-8"?>
<svg width="22px" height="20px" viewBox="0 0 22 20" version="1.1" xmlns="http://www.w3.org/2000/svg" xmlns:xlink="http://www.w3.org/1999/xlink">
    <title>3C1F3BFD-FD66-4318-A971-D375EBDF34D7</title>
    <g id="학습창" stroke="none" stroke-width="1" fill="none" fill-rule="evenodd">
        <g id="Cube_Case" transform="translate(-340.000000, -160.000000)">
            <g id="Icons-/-20-/-ic_classroom_black" transform="translate(340.000000, 160.000000)">
                <rect id="area" x="0" y="0" width="20.5000001" height="20"></rect>
                <path d="M13.3250001,9.58569335 L18.4500001,9.58569329 L18.4500002,17.5856933 L13.3250002,17.5856934 L13.3250001,9.58569335 Z M12.3000002,17.5856934 C12.3000002,18.1379778 12.7589083,18.5856934 13.3250002,18.5856934 L18.4500002,18.5856933 C19.016092,18.5856933 19.4750002,18.1379779 19.4750002,17.5856933 L19.4750001,9.58569327 C19.4750001,9.03340808 19.016092,8.58569328 18.4500001,8.58569329 L13.3249996,8.58569335 C12.7589077,8.58569336 12.3,9.03340817 12.3000001,9.58569337 L12.3000002,17.5856934 Z" id="Rectangle-4553-(Stroke)" fill="#000000"></path>
                <path d="M12.3000006,7.00000006 L7.17499962,2.00000051 L2.04999859,7.00000096 L2.04999951,17.5857878 L12.3000015,17.5857869 L12.3000006,7.00000006 Z M13.3250006,7 C13.3250006,6.73478317 13.2170094,6.48042966 13.0247846,6.29289296 L7.89978382,1.29289378 C7.49949628,0.902369579 6.85050179,0.902369396 6.45021481,1.29289361 L1.32521427,6.29289348 C1.13298866,6.48042974 1.02500048,6.73478374 1.0250005,7.00000108 L1.02500142,17.5857879 C1.02500147,18.138074 1.4839073,18.5857878 2.04999963,18.5857878 L13.3250016,18.5857868 L13.3250006,7 Z" id="Rectangle-4552-(Stroke)" fill="#000000"></path>
                <path d="M5.99999978,17.5856932 L7.99999978,17.5856933 L7.99999991,14.5856933 C7.99999994,14.0334086 7.55228515,13.5856933 6.99999996,13.5856933 C6.44771536,13.5856932 5.99999994,14.0334085 5.99999991,14.5856932 L5.99999978,17.5856932 Z M8.99999974,18.5856934 L8.99999991,14.5856934 C8.99999996,13.4811239 8.10456991,12.5856933 7,12.5856933 C5.89543056,12.5856932 4.99999996,13.4811237 4.99999991,14.5856932 L4.99999974,18.5856932 L8.99999974,18.5856934 Z" id="Rectangle-4573-(Stroke)" fill="#000000"></path>
                <path d="M4.5,6.58569336 L9.5,6.58569336 C9.77614236,6.58569336 10,6.809551 10,7.08569336 L10,7.08569336 C10,7.36183572 9.77614236,7.58569336 9.5,7.58569336 L4.5,7.58569336 C4.22385752,7.58569336 4,7.36183572 4,7.08569336 L4,7.08569336 C4,6.809551 4.22385764,6.58569336 4.5,6.58569336 Z" id="Rectangle-4574" fill="#000000" fill-rule="nonzero"></path>
                <path d="M4.5,8.58569336 L9.5,8.58569336 C9.77614236,8.58569336 10,8.809551 10,9.08569336 L10,9.08569336 C10,9.36183572 9.77614236,9.58569336 9.5,9.58569336 L4.5,9.58569336 C4.22385752,9.58569336 4,9.36183572 4,9.08569336 L4,9.08569336 C4,8.809551 4.22385764,8.58569336 4.5,8.58569336 Z" id="Rectangle-4575" fill="#000000" fill-rule="nonzero"></path>
            </g>
        </g>
    </g>
</svg>