<?xml version="1.0" encoding="UTF-8"?>
<svg width="24px" height="24px" viewBox="0 0 24 24" version="1.1" xmlns="http://www.w3.org/2000/svg" xmlns:xlink="http://www.w3.org/1999/xlink">
    <title>367F4112-E856-B04E-9157-E3D80D1C4D2E</title>
    <defs>
        <rect id="path-1" x="0" y="0" width="24" height="24"></rect>
    </defs>
    <g id="💎-Components" stroke="none" stroke-width="1" fill="none" fill-rule="evenodd">
        <g id="Icons/Grid" transform="translate(-1188.000000, -1391.000000)">
            <g id="24dp" transform="translate(62.000000, 1263.000000)">
                <g id="Black" transform="translate(954.000000, 0.000000)">
                    <g id="Icon-/-24-/-Black" transform="translate(40.000000, 40.000000)">
                        <g id="Icons-/-24-/-ic_shareslim_black" transform="translate(132.000000, 88.000000)">
                            <mask id="mask-2" fill="white">
                                <use xlink:href="#path-1"></use>
                            </mask>
                            <g id="Icons-/-24-/-ic_shareslim_black-(Background/Mask)"></g>
                            <path d="M15.25,6.5 C15.25,7.46649837 16.0335017,8.25 17,8.25 C17.9664984,8.25 18.75,7.46649837 18.75,6.5 C18.75,5.53350174 17.9664984,4.75 17,4.75 C16.0335017,4.75 15.25,5.53350174 15.25,6.5 Z M17,3.25 C18.7949257,3.25 20.25,4.70507455 20.25,6.5 C20.25,8.29492569 18.7949257,9.75 17,9.75 C15.2050745,9.75 13.75,8.29492569 13.75,6.5 C13.75,4.70507455 15.2050745,3.25 17,3.25 Z" id="Oval-(Stroke)" fill="#000000" mask="url(#mask-2)"></path>
                            <path d="M15.25,18 C15.25,18.9664984 16.0335017,19.75 17,19.75 C17.9664984,19.75 18.75,18.9664984 18.75,18 C18.75,17.0335017 17.9664984,16.25 17,16.25 C16.0335017,16.25 15.25,17.0335017 15.25,18 Z M17,14.75 C18.7949257,14.75 20.25,16.2050745 20.25,18 C20.25,19.7949257 18.7949257,21.25 17,21.25 C15.2050745,21.25 13.75,19.7949257 13.75,18 C13.75,16.2050745 15.2050745,14.75 17,14.75 Z" id="Oval-Copy-(Stroke)" fill="#000000" mask="url(#mask-2)"></path>
                            <path d="M5.75,12.5 C5.75,13.4664984 6.53350174,14.25 7.5,14.25 C8.46649837,14.25 9.25,13.4664984 9.25,12.5 C9.25,11.5335017 8.46649837,10.75 7.5,10.75 C6.53350174,10.75 5.75,11.5335017 5.75,12.5 Z M7.5,9.25 C9.29492569,9.25 10.75,10.7050745 10.75,12.5 C10.75,14.2949257 9.29492569,15.75 7.5,15.75 C5.70507455,15.75 4.25,14.2949257 4.25,12.5 C4.25,10.7050745 5.70507455,9.25 7.5,9.25 Z" id="Oval-Copy-2-(Stroke)" fill="#000000" mask="url(#mask-2)"></path>
                            <path d="M10.3534796,11.7203189 L9.4932861,10.4914714 L14.4932861,6.99147135 L15.3534793,8.22031921 L10.3534796,11.7203189 Z" id="Path-(Stroke)" fill="#000000" mask="url(#mask-2)" transform="translate(12.423383, 9.355895) rotate(2.464243) translate(-12.423383, -9.355895) "></path>
                            <path d="M9.68508562,17.7900891 L8.96680739,16.4732456 L14.4668074,13.4732456 L15.1850853,14.790089 L9.68508562,17.7900891 Z" id="Path-(Stroke)" fill="#000000" mask="url(#mask-2)" transform="translate(12.075946, 15.631667) rotate(60.000001) translate(-12.075946, -15.631667) "></path>
                        </g>
                    </g>
                </g>
            </g>
        </g>
    </g>
</svg>