<?xml version="1.0" encoding="UTF-8"?>
<svg width="24px" height="68px" viewBox="0 0 24 68" version="1.1" xmlns="http://www.w3.org/2000/svg" xmlns:xlink="http://www.w3.org/1999/xlink">
    <title>96EDDBF5-9F68-F4AF-6FBF-B0B1088BACCE</title>
    <defs>
        <path d="M12,22 C10.3431457,22 9,20.6568543 9,19 C9,18.2316456 9.28885356,17.5307565 9.76389349,17 L14.2361064,17 C14.7111463,17.5307565 15,18.2316456 15,19 C15,20.6568543 13.6568543,22 12,22 Z" id="path-1"></path>
        <mask id="mask-2" maskContentUnits="userSpaceOnUse" maskUnits="objectBoundingBox" x="0" y="0" width="6" height="5" fill="white">
            <use xlink:href="#path-1"></use>
        </mask>
        <path d="M12,22 C10.3431457,22 9,20.6568543 9,19 C9,18.2316456 9.28885356,17.5307565 9.76389349,17 L14.2361064,17 C14.7111463,17.5307565 15,18.2316456 15,19 C15,20.6568543 13.6568543,22 12,22 Z" id="path-3"></path>
        <mask id="mask-4" maskContentUnits="userSpaceOnUse" maskUnits="objectBoundingBox" x="0" y="0" width="6" height="5" fill="white">
            <use xlink:href="#path-3"></use>
        </mask>
    </defs>
    <g id="💎-Components" stroke="none" stroke-width="1" fill="none" fill-rule="evenodd">
        <g id="Icons/Grid" transform="translate(-582.000000, -1385.000000)">
            <g id="24dp" transform="translate(62.000000, 1263.000000)">
                <g id="White" transform="translate(122.000000, 0.000000)">
                    <g id="Icon-/-24-/-White" transform="translate(40.000000, 40.000000)">
                        <g id="Icons-/-24-/-ic_alarm_noti_off_on" transform="translate(358.000000, 82.000000)">
                            <g id="Property-1=24,-Property-2=ic_alarm_noti_white" transform="translate(0.000000, 44.000000)">
                                <rect id="area" x="0" y="0" width="24" height="24"></rect>
                                <path d="M3,17 L21,17 C21.5522847,17 22,17.4477153 22,18 C22,18.5522847 21.5522847,19 21,19 L3,19 C2.44771525,19 2,18.5522847 2,18 C2,17.4477153 2.44771525,17 3,17 Z" id="Rectangle-4560" fill="#FFFFFF"></path>
                                <use id="Ellipse-417" stroke="#FFFFFF" mask="url(#mask-2)" stroke-width="4" stroke-dasharray="0,0" xlink:href="#path-1"></use>
                                <path d="M6,10.0588236 L6,17 L18,17 L18,10.0588236 L20,10.0588236 L20,19 L4,19 L4,10.0588236 C4,5.61596394 7.57384872,2 12,2 C12.9169183,2 13.7997656,2.15579987 14.6225739,2.4432956 L13.9628696,4.33136058 C13.3490553,4.116889 12.6890712,4 12,4 C8.69416428,4 6,6.70472145 6,10.0588236 Z" id="Union-(Stroke)" fill="#FFFFFF"></path>
                                <path d="M19,8 C17.3431457,8 16,6.65685433 16,5 C16,3.34314567 17.3431457,2 19,2 C20.6568543,2 22,3.34314567 22,5 C22,6.65685433 20.6568543,8 19,8 Z" id="Noticed-Copy" fill="#FF664D"></path>
                                <path d="M22,5 C22,3.34314561 20.6568542,2 19,2 C17.3431456,2 16,3.34314561 16,5 C16,6.65685415 17.3431456,8 19,8 C20.6568542,8 22,6.65685415 22,5 Z" id="Noticed-Copy" fill="#FF664D" fill-rule="nonzero"></path>
                            </g>
                            <g id="Property-1=24,-Property-2=ic_alarm_white">
                                <rect id="area" x="0" y="0" width="24" height="24"></rect>
                                <path d="M3,17 L21,17 C21.5522847,17 22,17.4477153 22,18 C22,18.5522847 21.5522847,19 21,19 L3,19 C2.44771525,19 2,18.5522847 2,18 C2,17.4477153 2.44771525,17 3,17 Z" id="Rectangle-4560" fill="#FFFFFF"></path>
                                <use id="Ellipse-417" stroke="#FFFFFF" mask="url(#mask-4)" stroke-width="4" stroke-dasharray="0,0" xlink:href="#path-3"></use>
                                <path d="M4.01299691,19 L19.9870035,19 L19.9870035,10.5 C20.1533948,7.66666633 18.7889408,2 12,2 C5.21104583,2 3.84660114,7.66666633 4.01299691,10.5 L4.01299691,19 Z M17.9902543,10.5 C17.9902543,10.4557841 17.9915511,10.4115793 17.9941428,10.3674494 C18.056186,9.31097084 17.8172371,7.69573933 16.9678728,6.40902501 C16.1982518,5.24311534 14.7896478,4.125 12,4.125 C9.2103384,4.125 7.8017387,5.24311508 7.03212074,6.40902299 C6.18275905,7.69573629 5.94381277,9.31096679 6.00585771,10.3674464 C6.00844939,10.4115767 6.00974618,10.455783 6.00974618,10.5 L6.00974618,16.875 L17.9902543,16.875 L17.9902543,10.5 Z" id="Vector-564-(Stroke)" fill="#FFFFFF"></path>
                            </g>
                        </g>
                    </g>
                </g>
            </g>
        </g>
    </g>
</svg>