<?xml version="1.0" encoding="UTF-8"?>
<svg width="20px" height="20px" viewBox="0 0 20 20" version="1.1" xmlns="http://www.w3.org/2000/svg" xmlns:xlink="http://www.w3.org/1999/xlink">
    <title>BCFDA13F-75C5-D94E-606E-EBBDD3DF617C</title>
    <defs>
        <rect id="path-1" x="0" y="0" width="20" height="20"></rect>
    </defs>
    <g id="💎-Components" stroke="none" stroke-width="1" fill="none" fill-rule="evenodd">
        <g id="Icons/Grid" transform="translate(-1330.000000, -1062.000000)">
            <g id="20dp" transform="translate(62.000000, 941.000000)">
                <g id="Black" transform="translate(954.000000, 0.000000)">
                    <g id="Icon-/-20-/-Black" transform="translate(34.000000, 41.000000)">
                        <g id="Icons/20/ic_boardlink_grey05" transform="translate(280.000000, 80.000000)">
                            <mask id="mask-2" fill="white">
                                <use xlink:href="#path-1"></use>
                            </mask>
                            <g id="Icons/20/ic_boardlink_grey05-(Background/Mask)"></g>
                            <path d="M2.5,5.5 L14.5,5.5 L14.5,17.5 L2.5,17.5 L2.5,5.5 Z M1.5,17.5 C1.5,18.0522847 1.94771636,18.5 2.5,18.5 L14.5,18.5 C15.0522847,18.5 15.5,18.0522848 15.5,17.5 L15.5,5.5 C15.5,4.94771576 15.0522847,4.5 14.5,4.5 L2.5,4.5 C1.9477157,4.5 1.5,4.94771528 1.5,5.5 L1.5,17.5 Z M15.5,14.5 L18.5,14.5 C19.0522842,14.5 19.5,14.0522842 19.5,13.5 L19.5,1.5 C19.5,0.947715759 19.0522852,0.5 18.5,0.5 L6.5,0.5 C5.94771528,0.5 5.5,0.947715402 5.5,1.5 L5.5,5 L6.5,5 L6.5,1.5 L18.5,1.5 L18.5,13.5 L15.5,13.5 L15.5,14.5 Z" id="Vector" fill="#A4A6AA" mask="url(#mask-2)"></path>
                        </g>
                    </g>
                </g>
            </g>
        </g>
    </g>
</svg>