<svg width="24" height="24" viewBox="0 0 24 24" xmlns="http://www.w3.org/2000/svg" xmlns:xlink="http://www.w3.org/1999/xlink">
    <defs>
        <path id="8nmyd55tha" d="M0 0h24v24H0z"/>
    </defs>
    <g fill="none" fill-rule="evenodd">
        <mask id="6eoei48obb" fill="#fff">
            <use xlink:href="#8nmyd55tha"/>
        </mask>
        <path d="M3 4h18a1 1 0 0 1 0 2H3a1 1 0 0 1 0-2zm0 7h18a1 1 0 0 1 0 2H3a1 1 0 0 1 0-2zm-1 8a1 1 0 0 0 1 1h18a1 1 0 0 0 0-2H3a1 1 0 0 0-1 1z" fill="#000" mask="url(#6eoei48obb)"/>
    </g>
</svg>
