<?xml version="1.0" encoding="UTF-8"?>
<svg width="16px" height="16px" viewBox="0 0 16 16" version="1.1" xmlns="http://www.w3.org/2000/svg" xmlns:xlink="http://www.w3.org/1999/xlink">
    <title>AB924140-07A3-3BCB-434C-26E9067F93F1</title>
    <g id="💎-Components" stroke="none" stroke-width="1" fill="none" fill-rule="evenodd">
        <g id="Icons/Grid" transform="translate(-1308.000000, -805.000000)">
            <g id="16dp" transform="translate(62.000000, 729.000000)">
                <g id="Black" transform="translate(954.000000, 0.000000)">
                    <g id="Group-5836" transform="translate(40.000000, 39.999999)">
                        <g id="Icons-/-16-/-ic_eperiential_grey06" transform="translate(252.000000, 36.000001)">
                            <path d="M0,0 L16,0 L16,16 L0,16 L0,0 Z" id="area"></path>
                            <path d="M5,4 L5,5 L11,5 L11,4 L5,4 Z M14,14 C14,14.5522842 13.5522842,15 13,15 L3.5,15 C2.67157292,15 2,14.3284273 2,13.5 L2,2 C2,1.44771564 2.44771528,1 3,1 L13,1 C13.5522852,1 14,1.44771528 14,2 L14,14 Z M3,2 L3,12.0853529 C3.15638947,12.030077 3.32468224,12 3.5,12 L13,12 L13,2 L3,2 Z M3,13.5 C3,13.2238579 3.22385764,13 3.5,13 L13,13 L13,14 L3.5,14 C3.22385764,14 3,13.7761421 3,13.5 Z" id="Union" fill="#75777B"></path>
                        </g>
                    </g>
                </g>
            </g>
        </g>
    </g>
</svg>