<?xml version="1.0" encoding="UTF-8"?>
<svg width="16px" height="16px" viewBox="0 0 16 16" version="1.1" xmlns="http://www.w3.org/2000/svg" xmlns:xlink="http://www.w3.org/1999/xlink">
    <title>694652ED-C977-06A1-3A62-42CE1B55E187</title>
    <g id="💎-Components" stroke="none" stroke-width="1" fill="none" fill-rule="evenodd">
        <g id="Icons/Grid" transform="translate(-1308.000000, -841.000000)">
            <g id="16dp" transform="translate(62.000000, 729.000000)">
                <g id="Black" transform="translate(954.000000, 0.000000)">
                    <g id="Group-5836" transform="translate(40.000000, 39.999999)">
                        <g id="Icons-/-16-/-ic_people_grey6" transform="translate(252.000000, 72.086915)">
                            <rect id="area" x="0" y="0" width="16" height="16"></rect>
                            <path d="M11.4999996,3.91308594 C11.4999996,1.98008943 9.93299632,0.413085938 7.99999957,0.413085938 C6.06700282,0.413085938 4.49999957,1.98008943 4.49999957,3.91308594 C4.49999957,5.84608269 6.06700282,7.41308594 7.99999957,7.41308594 C9.93299632,7.41308594 11.4999996,5.84608269 11.4999996,3.91308594 Z M7.99999957,6.41308594 C6.61928802,6.41308594 5.49999957,5.29379797 5.49999957,3.91308594 C5.49999957,2.53237414 6.61928802,1.41308594 7.99999957,1.41308594 C9.38071208,1.41308594 10.4999996,2.53237414 10.4999996,3.91308594 C10.4999996,5.29379797 9.38071208,6.41308594 7.99999957,6.41308594 Z M15.1436983,13.9130859 C15.2807193,14.2367153 15.3998523,14.5706034 15.4999996,14.9130859 L0.499999571,14.9130859 C0.600147027,14.5706034 0.719279277,14.2367153 0.856300432,13.9130859 C1.41636451,12.5902748 2.27529984,11.438858 3.35827165,10.5724812 C4.7061954,9.49414158 6.33154683,8.91308594 7.99999957,8.91308594 C9.66845088,8.91308594 11.2938028,9.49414158 12.641727,10.5724812 C13.7246986,11.438858 14.5836339,12.5902748 15.1436983,13.9130859 Z M14.0453554,13.9130859 L1.95464342,13.9130859 C2.44833605,12.9016247 3.1419435,12.0261679 3.98296671,11.3533497 C5.1602159,10.4115505 6.56697659,9.91308594 7.99999957,9.91308594 C9.43302112,9.91308594 10.8397823,10.4115505 12.0170312,11.3533497 C12.8580547,12.0261688 13.551663,12.9016247 14.0453554,13.9130859 Z" id="Union" fill="#75777B"></path>
                        </g>
                    </g>
                </g>
            </g>
        </g>
    </g>
</svg>