<?xml version="1.0" encoding="UTF-8"?>
<svg width="40px" height="40px" viewBox="0 0 40 40" version="1.1" xmlns="http://www.w3.org/2000/svg" xmlns:xlink="http://www.w3.org/1999/xlink">
    <title>788316BF-C35A-411A-8750-535102D7A4E1</title>
    <defs>
        <path d="M20,0 C31.045695,0 40,8.954305 40,20 C40,31.045695 31.045695,40 20,40 C8.954305,40 0,31.045695 0,20 C0,8.954305 8.954305,0 20,0 Z M20,3 C10.6111593,3 3,10.6111593 3,20 C3,29.3888407 10.6111593,37 20,37 C29.3888407,37 37,29.3888407 37,20 C37,10.6111593 29.3888407,3 20,3 Z" id="path-1"></path>
    </defs>
    <g id="💎-Components" stroke="none" stroke-width="1" fill="none" fill-rule="evenodd">
        <g id="Icons/Grid" transform="translate(-1506.000000, -1895.000000)">
            <g id="etc" transform="translate(62.000000, 1585.000000)">
                <g id="Black" transform="translate(954.000000, 0.000000)">
                    <g id="Oval-Copy" transform="translate(490.000000, 310.000000)">
                        <mask id="mask-2" fill="white">
                            <use xlink:href="#path-1"></use>
                        </mask>
                        <use id="Mask" fill="#E3E4E5" xlink:href="#path-1"></use>
                        <path d="M20,40 C22.1657843,40 24.2511643,39.6557482 26.2044061,39.0189786 C28.2087604,38.3655459 30.0739704,37.4040858 31.7441337,36.1905006 C33.4295643,34.9658219 34.916366,33.4843876 36.1470893,31.8036474 C37.3688988,30.1350802 38.338326,28.2700835 38.9991604,26.2648677 C39.6486025,24.2942204 40,22.1881469 40,20 C40,17.8608934 39.6641768,15.8002225 39.0423761,13.8678328 C38.3882009,11.8348321 37.4174937,9.94381849 36.1882981,8.25283576 C34.9591692,6.56194464 33.47158,5.07106273 31.7835647,3.83822431 C30.1105436,2.61633681 28.2406413,1.64792893 26.2303594,0.989502156 C24.269641,0.3473089 22.1753797,0 20,0 L20,20 L13.7971126,0.980526423 C11.7657511,1.64258272 9.87728439,2.62101557 8.18989901,3.85763837 C6.47529693,5.11420729 4.96831519,6.63736229 3.73000163,8.36605554 C2.55278135,10.0094622 1.61837323,11.8386266 0.979227994,13.8010979 C0.343605415,15.7527531 0,17.8362499 0,20 C0,22.1996405 0.355098815,24.3163433 1.01109827,26.2959102 C1.66741812,28.2764438 2.62493261,30.1197075 3.82936411,31.7714237 C5.06432285,33.4650039 6.55887384,34.9572036 8.25450684,36.1895127 C9.90785858,37.3910937 11.7523893,38.3455834 13.7338573,38.9987401 C15.7048711,39.6484509 17.8113812,40 20,40 Z" id="Oval-Copy-4" fill="#FF664D" mask="url(#mask-2)"></path>
                    </g>
                </g>
            </g>
        </g>
    </g>
</svg>