<svg width="16" height="17" viewBox="0 0 16 17" xmlns="http://www.w3.org/2000/svg">
    <g fill="none" fill-rule="evenodd">
        <path d="M0 .087h16v16H0z"/>
        <path d="M3.003 7.049v3.329c0 .018-.001.035-.003.053V11h-.772C.976 11 0 9.857 0 8.5c0-1.306.905-2.415 2.09-2.495C2.58 3.165 5.034 1 8 1c2.965 0 5.42 2.165 5.91 5.004C15.109 6.081 16 7.206 16 8.5c0 1.265-.853 2.369-2.01 2.49-.15 2.235-1.996 4.01-4.262 4.01h-.471a.5.5 0 1 1 0-1h.471c1.8 0 3.27-1.474 3.27-3.305V7.05C12.997 4.255 10.753 2 8 2S3.003 4.255 3.003 7.049zM15.016 8.5c0-.748-.461-1.315-1.016-1.436v2.872c.555-.12 1.016-.688 1.016-1.436zM2 9.935v-2.87c-.576.122-1.037.7-1.037 1.435 0 .735.461 1.313 1.037 1.435zm8.694-.4a.48.48 0 0 0-.635.291 1.463 1.463 0 0 1-.317.399c-.254.224-.708.483-1.492.483-.783 0-1.238-.259-1.491-.483a1.466 1.466 0 0 1-.318-.4.48.48 0 0 0-.635-.29.505.505 0 0 0-.272.65L5.985 10l-.45.185v.002l.002.004.003.007.008.02.028.06a2.456 2.456 0 0 0 .551.705c.43.38 1.108.725 2.123.725 1.016 0 1.694-.345 2.123-.724.211-.187.355-.375.447-.522a1.973 1.973 0 0 0 .132-.244l.008-.02.003-.008.002-.003v-.003l-.45-.184.45.184a.505.505 0 0 0-.271-.649zM9 6.465v1.537C9 8.548 8.472 9 7.807 9H7.56C7.25 9 7 8.791 7 8.534s.251-.466.56-.466h.247c.033 0 .072-.024.072-.066V6.466c0-.257.25-.466.56-.466.31 0 .561.209.561.466zM6 5.5a.5.5 0 0 0-.5.5v1.269a.5.5 0 0 0 1 0V6a.5.5 0 0 0-.5-.5zm5 .5v1.269a.5.5 0 0 1-1 0V6a.5.5 0 0 1 1 0z" fill="#A4A6AA"/>
    </g>
</svg>
