<?xml version="1.0" encoding="UTF-8"?>
<svg width="16px" height="16px" viewBox="0 0 16 16" version="1.1" xmlns="http://www.w3.org/2000/svg" xmlns:xlink="http://www.w3.org/1999/xlink">
    <title>7B1B6F26-01A4-43A9-B7C9-B7D478B87455</title>
    <defs>
        <rect id="path-1" x="0" y="0" width="16" height="16"></rect>
    </defs>
    <g id="커뮤니티" stroke="none" stroke-width="1" fill="none" fill-rule="evenodd">
        <g id="커뮤니티홈_피드-&gt;-default-&gt;-피드-내-이미지" transform="translate(-294.000000, -533.000000)">
            <g id="내용" transform="translate(0.000000, 96.000000)">
                <g id="리스트" transform="translate(0.000000, 213.000000)">
                    <g id="Identifier-Badge" transform="translate(284.000000, 221.000000)">
                        <g id="icons-/-16-/-ic_images_white" transform="translate(10.000000, 3.000000)">
                            <mask id="mask-2" fill="white">
                                <use xlink:href="#path-1"></use>
                            </mask>
                            <g id="Property-1=20,-Property-2=ic_image_black-(Background/Mask)"></g>
                            <path d="M1,11.21875 C1,11.6502227 1.3534594,12 1.78947368,12 L12.2105263,12 C12.6465402,12 13,11.6502227 13,11.21875 L13,2.78125 C13,2.34977753 12.6465402,2 12.2105263,2 L1.78947368,2 C1.3534594,2 1,2.34977753 1,2.78125 L1,11.21875 Z M1.63157895,2.78125 L1.63157895,8.58922851 L4.07332832,6.17291462 C4.14663706,6.10036951 4.23366757,6.04282272 4.32945161,6.00356084 C4.42523535,5.96429926 4.52789548,5.9440918 4.63157051,5.9440918 C4.73524525,5.9440918 4.83790538,5.96429926 4.93368912,6.00356084 C5.02947315,6.04282272 5.11650367,6.10036951 5.18981241,6.17291462 L7.83571143,8.79125249 C7.85037312,8.80576146 7.86777898,8.81727052 7.88693579,8.82512283 C7.90609259,8.83297515 7.9266245,8.83701634 7.94735939,8.83701634 C7.96809488,8.83701634 7.98862738,8.83297515 8.00778359,8.82512283 C8.026941,8.81727052 8.04434686,8.80576146 8.05900795,8.79125249 L9.28385464,7.57916403 C9.35716428,7.50661802 9.4441954,7.44907212 9.53997823,7.40981054 C9.63576106,7.37054956 9.73842119,7.3503418 9.84209623,7.3503418 C9.94577067,7.3503418 10.0484314,7.37054896 10.1442154,7.40981054 C10.2399983,7.44907212 10.3270288,7.50661802 10.400339,7.57916403 L12.3684211,9.52674818 L12.3684211,2.78125 C12.3684211,2.69495551 12.2977291,2.625 12.2105263,2.625 L1.78947368,2.625 C1.70227083,2.625 1.63157895,2.69495551 1.63157895,2.78125 Z M1.63157895,9.47311234 L1.63157895,11.21875 C1.63157895,11.3050444 1.70227083,11.375 1.78947368,11.375 L12.2105263,11.375 C12.2977291,11.375 12.3684211,11.3050444 12.3684211,11.21875 L12.3684211,10.4106332 L9.95374479,8.02110565 C9.9390837,8.00659728 9.92167784,7.99508762 9.90252043,7.98723531 C9.88336423,7.97938359 9.86283172,7.9753418 9.84209623,7.9753418 C9.82136134,7.9753418 9.80082944,7.97938299 9.78167263,7.98723531 C9.76251582,7.99508762 9.74510996,8.00659728 9.73044827,8.02110565 L8.50560218,9.23319411 C8.43229193,9.30574012 8.34526142,9.36328602 8.24947859,9.4025476 C8.15369455,9.44180918 8.05103382,9.46201634 7.94735939,9.46201634 C7.84368435,9.46201634 7.74102422,9.44180918 7.64524139,9.4025476 C7.54945855,9.36328602 7.46242744,9.30574012 7.38911779,9.23319411 L4.74321877,6.61485624 C4.72855618,6.60034668 4.71115002,6.58883762 4.69199411,6.58098561 C4.67283791,6.57313329 4.6523057,6.5690918 4.63157051,6.5690918 C4.61083503,6.5690918 4.59030282,6.57313329 4.57114661,6.58098561 C4.55199071,6.58883762 4.53458455,6.60034668 4.51992196,6.61485624 L1.63157895,9.47311234 Z" id="Union" fill="#FFFFFF" mask="url(#mask-2)"></path>
                            <circle id="Oval" fill="#FFFFFF" mask="url(#mask-2)" cx="8.75" cy="5.25" r="1"></circle>
                            <path d="M3.5,13.5053329 L13.4160919,13.5053329 C13.9683767,13.5053329 14.4160919,13.0576177 14.4160919,12.5053329 L14.4160919,4.5 L14.4160919,4.5" id="Path" stroke="#FFFFFF" stroke-width="0.6" stroke-linecap="round" stroke-linejoin="round" mask="url(#mask-2)"></path>
                        </g>
                    </g>
                </g>
            </g>
        </g>
    </g>
</svg>