<?xml version="1.0" encoding="UTF-8"?>
<svg width="16px" height="16px" viewBox="0 0 16 16" version="1.1" xmlns="http://www.w3.org/2000/svg" xmlns:xlink="http://www.w3.org/1999/xlink">
    <title>E4E13139-ECAB-D42F-F384-5E7545748E5F</title>
    <g id="💎-Components" stroke="none" stroke-width="1" fill="none" fill-rule="evenodd">
        <g id="Icons/Grid" transform="translate(-1344.000000, -805.000000)">
            <g id="16dp" transform="translate(62.000000, 729.000000)">
                <g id="Black" transform="translate(954.000000, 0.000000)">
                    <g id="Group-5836" transform="translate(40.000000, 39.999999)">
                        <g id="Icons-/-16-/-ic_cohort_grey06" transform="translate(288.000000, 36.000001)">
                            <path d="M0,0 L16,0 L16,16 L0,16 L0,0 Z" id="area"></path>
                            <path d="M5.67100334,2 C3.99320757,2 2.63308501,3.40812695 2.63308501,5.14513969 C2.63308501,6.88215232 3.99320757,8.29027939 5.67100334,8.29027939 C7.34879911,8.29027939 8.70892143,6.88215232 8.70892143,5.14513969 C8.70892143,3.40812695 7.34879911,2 5.67100334,2 Z M7.69628191,5.14513969 C7.69628191,6.30314803 6.78953385,7.24189949 5.67100334,7.24189949 C4.55247283,7.24189949 3.6457243,6.30314803 3.6457243,5.14513969 C3.6457243,3.98713112 4.55247283,3.0483799 5.67100334,3.0483799 C6.78953385,3.0483799 7.69628191,3.98713112 7.69628191,5.14513969 Z M10.5317221,3.0483799 C10.2776979,3.0483799 10.0357174,3.09654834 9.81303692,3.18407822 C9.55161238,3.28683712 9.25922208,3.15073362 9.15996647,2.88008237 C9.06071085,2.60943112 9.19217443,2.3067225 9.45359898,2.20396356 C9.78932375,2.07199903 10.1529905,2 10.5317221,2 C12.2095183,2 13.5696402,3.40812695 13.5696402,5.14513969 C13.5696402,6.88215232 12.2095183,8.29027939 10.5317221,8.29027939 C10.1545569,8.29027939 9.79232967,8.21887493 9.45775604,8.08794641 C9.19618568,7.98558606 9.06429195,7.68307814 9.16316223,7.41227579 C9.26203252,7.14147344 9.55422935,7.00492419 9.81579876,7.10728455 C10.0377144,7.1941268 10.2787438,7.24189949 10.5317221,7.24189949 C11.6502526,7.24189949 12.5570002,6.30314803 12.5570002,5.14513969 C12.5570002,3.98713112 11.6502526,3.0483799 10.5317221,3.0483799 Z M14.3687248,10.3985691 C15.4132121,11.4799209 16,12.9465472 16,14.4758091 L16,15 L12.1182156,15 C11.8385832,15 11.6118956,14.7653119 11.6118956,14.4758101 C11.6118956,14.1863082 11.8385822,13.9516201 12.1182156,13.9516201 L14.9591599,13.9516191 C14.8448959,12.8932701 14.3870617,11.9001848 13.6526814,11.1398849 C12.7981008,10.2551435 11.6390414,9.75810099 10.4304829,9.75810099 C10.1508505,9.75810099 9.92416286,9.52341339 9.92416286,9.23391104 C9.92416286,8.94440919 10.1508505,8.70972109 10.4304829,8.70972109 C11.9076105,8.70972109 13.3242387,9.31721735 14.3687248,10.3985691 Z M9.50775909,10.3985691 C10.5522463,11.4799209 11.1390333,12.9465472 11.1390333,14.4758091 L11.1390333,15 L0,15 L0,14.4758101 C0,12.9465481 0.586787105,11.4799209 1.63127327,10.3985691 C2.67576051,9.31721842 4.09238851,8.70972109 5.56951618,8.70972109 C7.04664385,8.70972109 8.46327186,9.31721783 9.50775909,10.3985691 Z M5.56951618,9.75810099 C4.36095762,9.75810099 3.2018978,10.2551434 2.34731722,11.1398859 C1.61293793,11.9001847 1.15510367,12.8932711 1.04083967,13.9516201 L10.0981941,13.9516191 C9.98393013,12.8932701 9.52609593,11.9001837 8.79171562,11.1398849 C7.93713504,10.2551429 6.77807522,9.75810099 5.56951618,9.75810099 Z" id="Union" fill="#75777B"></path>
                        </g>
                    </g>
                </g>
            </g>
        </g>
    </g>
</svg>