<svg width="16" height="16" viewBox="0 0 16 16" xmlns="http://www.w3.org/2000/svg">
    <g fill="none" fill-rule="evenodd">
        <path d="M0 0h16v16H0z"/>
        <path d="M10.5 6.5a1 1 0 1 1 0-2 1 1 0 0 1 0 2zM2 14h12a1 1 0 0 0 1-1V3a1 1 0 0 0-1-1H2a1 1 0 0 0-1 1v10a1 1 0 0 0 1 1zM2 3v6.479l2.583-2.222c.099-.085.213-.15.334-.193a1.119 1.119 0 0 1 .75 0c.12.043.234.108.334.193L9.026 9.86a.058.058 0 0 0 .018.009.12.12 0 0 0 .096-.01l1.401-1.204c.1-.085.213-.15.334-.193a1.119 1.119 0 0 1 .75 0c.12.043.235.108.334.193L14 10.41V3H2zm12 8.73-2.693-2.317a.058.058 0 0 0-.018-.009.12.12 0 0 0-.096.01l-1.4 1.204c-.1.085-.214.15-.335.193a1.119 1.119 0 0 1-.75 0 1.055 1.055 0 0 1-.334-.193L5.35 8.016a.058.058 0 0 0-.018-.01.12.12 0 0 0-.096.01L2 10.798V13h12v-1.27z" fill="#44464A"/>
    </g>
</svg>
