<?xml version="1.0" encoding="UTF-8"?>
<svg width="20px" height="20px" viewBox="0 0 20 20" version="1.1" xmlns="http://www.w3.org/2000/svg" xmlns:xlink="http://www.w3.org/1999/xlink">
    <title>874B0ABB-A46D-44FD-9833-65DBC0632F0D</title>
    <g id="학습창" stroke="none" stroke-width="1" fill="none" fill-rule="evenodd">
        <g id="Cube_Case" transform="translate(-80.000000, -210.000000)">
            <g id="Icons-/-20-/-ic_survey_black" transform="translate(80.000000, 210.000000)">
                <path d="M0,0 L20,0 L20,20 L0,20 L0,0 Z" id="area"></path>
                <g id="Group-5833" transform="translate(1.000000, 1.000000)" fill="#000000">
                    <path d="M6,1 L6,2 L10,2 L10,1 L6,1 Z M5,1 L5,2 C5,2.55228472 5.4477154,3 6,3 L10,3 C10.5522847,3 11,2.55228472 11,2 L11,1 C11,0.447715282 10.5522847,0 10,0 L6,0 C5.44771528,0 5,0.447715223 5,1 Z" id="Rectangle-4558-(Stroke)"></path>
                    <path d="M7.46424296,13.9499706 L7.18925737,14.9320629 L8.17135042,14.6570767 L16.7071069,6.12132023 L16.0000001,5.41421345 L7.46424296,13.9499706 Z M17.9798991,6.26274159 C18.0580039,6.18463673 18.0580039,6.05800369 17.979899,5.97989884 L16.1414214,4.14142126 C16.0633166,4.06331639 15.9366837,4.06331626 15.8585788,4.14142112 L6.57190854,13.4280914 L5.84281956,16.031982 C5.80076847,16.182165 5.93915529,16.3205518 6.08933833,16.2785007 L8.69322888,15.5494118 L17.9798991,6.26274159 Z" id="Rectangle-4559-(Stroke)"></path>
                    <path d="M1,17 L15,17 L15,9.2426405 L16,8.2426405 L16,17 C16,17.5522842 15.5522842,18 15,18 L1,18 C0.447714806,18 0,17.5522842 0,17 L0,1 C0,0.447716475 0.447715938,0 1,0 L15,0 C15.5522842,0 16,0.447715759 16,1 L16,4.08284283 C15.9488144,4.08284283 15.8976307,4.10236883 15.8585787,4.14142132 L15,5 L15,1 L1,1 L1,17 Z" id="Subtract" fill-rule="nonzero"></path>
                </g>
            </g>
        </g>
    </g>
</svg>