<?xml version="1.0" encoding="UTF-8"?>
<svg width="24px" height="24px" viewBox="0 0 24 24" version="1.1" xmlns="http://www.w3.org/2000/svg" xmlns:xlink="http://www.w3.org/1999/xlink">
    <title>DD66F0AE-344E-4FB2-85FD-52672D3101E7</title>
    <g id="💎-Components" stroke="none" stroke-width="1" fill="none" fill-rule="evenodd">
        <g id="Icons/Grid" transform="translate(-1056.000000, -1347.000000)">
            <g id="24dp" transform="translate(62.000000, 1263.000000)">
                <g id="Black" transform="translate(954.000000, 0.000000)">
                    <g id="Icon-/-24-/-Black" transform="translate(40.000000, 40.000000)">
                        <g id="Icons-/-24-/-ic_delete_black" transform="translate(0.000000, 44.000000)">
                            <rect id="area" x="0" y="0" width="24" height="24"></rect>
                            <g id="Group" transform="translate(3.000000, 4.000000)" fill="#000000">
                                <path d="M0.5,2 L17.5,2 C17.7761421,2 18,2.22385761 18,2.5 C18,2.77614239 17.7761421,3 17.5,3 L0.5,3 C0.223857611,3 0,2.77614239 0,2.5 C0,2.22385761 0.223857611,2 0.5,2 Z" id="Vector-2-(Stroke)"></path>
                                <path d="M3.06840444,3 L3.9350704,16 L14.0639648,16 L14.9306316,3 L3.06840444,3 Z M2.07061934,3.06651962 L2.93728596,16.0665188 C2.97230583,16.5918169 3.40860653,17 3.9350704,17 L14.0639658,17 C14.5904293,17 15.0267305,16.5918169 15.0617504,16.0665188 L15.9284172,3.0665189 C15.9668961,2.48933601 15.5090952,2 14.9306316,2 L3.06840444,2 C2.48994029,2 2.03214048,2.48933673 2.07061934,3.06651962 Z" id="Rectangle-4259-(Stroke)"></path>
                                <path d="M6.90039062,0 L11.10039,0 C11.6526747,0 12.1003904,0.447714865 12.1003904,1 L12.1003904,2.29999995 C12.1003904,2.57614231 11.876533,2.79999995 11.6003904,2.79999995 C11.3242478,2.79999995 11.1003904,2.57614231 11.1003904,2.29999995 L11.10039,1 L6.90039062,1 L6.90039062,2.29999995 C6.90039062,2.57614231 6.67653301,2.79999995 6.40039062,2.79999995 C6.12424824,2.79999995 5.90039062,2.57614231 5.90039062,2.29999995 L5.90039062,1 C5.90039062,0.447715819 6.34810555,0 6.90039062,0 Z" id="Rectangle-4260-(Stroke)"></path>
                                <path d="M8,6.5 L8,11.5 C8,11.7761421 7.77614239,12 7.5,12 C7.22385761,12 7,11.7761421 7,11.5 L7,6.5 C7,6.22385761 7.22385761,6 7.5,6 C7.77614239,6 8,6.22385761 8,6.5 Z" id="Vector-3-(Stroke)"></path>
                                <path d="M11,6.5 L11,11.5 C11,11.7761421 10.7761424,12 10.5,12 C10.2238576,12 10,11.7761421 10,11.5 L10,6.5 C10,6.22385761 10.2238576,6 10.5,6 C10.7761424,6 11,6.22385761 11,6.5 Z" id="Vector-4-(Stroke)"></path>
                            </g>
                        </g>
                    </g>
                </g>
            </g>
        </g>
    </g>
</svg>