<?xml version="1.0" encoding="UTF-8"?>
<svg width="20px" height="20px" viewBox="0 0 20 20" version="1.1" xmlns="http://www.w3.org/2000/svg" xmlns:xlink="http://www.w3.org/1999/xlink">
    <title>4C249AE3-20C3-9FE6-C342-D5337D7267B6</title>
    <defs>
        <rect id="path-1" x="0" y="0" width="20" height="20"></rect>
    </defs>
    <g id="💎-Components" stroke="none" stroke-width="1" fill="none" fill-rule="evenodd">
        <g id="Icons/Grid" transform="translate(-1410.000000, -1205.000000)">
            <g id="20dp" transform="translate(62.000000, 941.000000)">
                <g id="Black" transform="translate(954.000000, 0.000000)">
                    <g id="Icon-/-20-/-Black" transform="translate(34.000000, 41.000000)">
                        <g id="icons-/-20-/-ic_textsize_18" transform="translate(360.000000, 223.000000)">
                            <mask id="mask-2" fill="white">
                                <use xlink:href="#path-1"></use>
                            </mask>
                            <g id="Property-1=20,-Property-2=ic_textsize_18_primary-(Background/Mask)"></g>
                            <path d="M9.06481266,16.9999475 L9.06481266,15.7839479 L6.7128129,15.7839479 L6.7128129,5.25594711 L5.59281254,5.25594711 C4.95281267,5.63994694 4.20081258,5.91194725 3.16081262,6.10394669 L3.16081262,7.03194714 L5.24081278,7.03194714 L5.24081278,15.7839479 L2.6328125,15.7839479 L2.6328125,16.9999475 L9.06481266,16.9999475 Z M18.0438128,14.1679478 C18.0438128,12.5679476 17.0838137,11.6879473 16.0598135,11.0959473 L16.0598135,11.0159473 C16.7638135,10.4719472 17.6278124,9.41594696 17.6278124,8.18394756 C17.6278124,6.375947 16.4118128,5.09594727 14.4118128,5.09594727 C12.5878129,5.09594727 11.1958132,6.27994728 11.1958132,8.0719471 C11.1958132,9.30394697 11.9158127,10.1839466 12.7798128,10.7759466 L12.7798128,10.8559475 C11.7078128,11.4319472 10.619813,12.5199471 10.619813,14.0879469 C10.619813,15.895947 12.2038124,17.2079477 14.3638124,17.2079477 C16.5718126,17.2079477 18.0438128,15.8799478 18.0438128,14.1679478 Z M12.5238123,8.0719471 C12.5238123,6.93594742 13.3078129,6.16794682 14.395813,6.16794682 C15.6598129,6.16794682 16.3798132,7.11194706 16.3798132,8.26394749 C16.3798132,9.12794733 15.9638133,9.92794752 15.1638136,10.6319475 C13.7878134,10.0879478 12.5238123,9.47994709 12.5238123,8.0719471 Z M11.947813,13.9599476 C11.947813,12.8399475 12.6038125,11.9119473 13.5478125,11.3039474 C15.2118125,11.9759474 16.6518126,12.5679471 16.6518126,14.1359472 C16.6518126,15.3039472 15.7398129,16.1199484 14.395813,16.1199484 C12.9878128,16.1199484 11.947813,15.2079477 11.947813,13.9599476 Z" id="18" fill="#FF664D" mask="url(#mask-2)"></path>
                        </g>
                    </g>
                </g>
            </g>
        </g>
    </g>
</svg>