<?xml version="1.0" encoding="UTF-8"?>
<svg width="20px" height="60px" viewBox="0 0 20 60" version="1.1" xmlns="http://www.w3.org/2000/svg" xmlns:xlink="http://www.w3.org/1999/xlink">
    <title>97AF40C6-C93F-EDAC-C694-15F2E5EA5728</title>
    <defs>
        <rect id="path-1" x="0" y="0" width="20" height="20"></rect>
        <rect id="path-3" x="0" y="0" width="20" height="20"></rect>
    </defs>
    <g id="💎-Components" stroke="none" stroke-width="1" fill="none" fill-rule="evenodd">
        <g id="Icons/Grid" transform="translate(-1092.000000, -1115.000000)">
            <g id="20dp" transform="translate(62.000000, 941.000000)">
                <g id="Black" transform="translate(954.000000, 0.000000)">
                    <g id="Icon-/-20-/-Black" transform="translate(34.000000, 41.000000)">
                        <g id="icons-/-20-/-ic_image_off_on" transform="translate(42.000000, 133.000000)">
                            <g id="Property-1=20,-Property-2=ic_image_black">
                                <mask id="mask-2" fill="white">
                                    <use xlink:href="#path-1"></use>
                                </mask>
                                <g id="Property-1=20,-Property-2=ic_image_black-(Background/Mask)"></g>
                                <path d="M13,8 C12.4477148,8 12,7.55228472 12,7 C12,6.44771528 12.4477148,6 13,6 C13.5522852,6 14,6.44771528 14,7 C14,7.55228472 13.5522852,8 13,8 Z M0.5,16.75 C0.5,17.4403563 1.05964404,18 1.75,18 L18.25,18 C18.9403553,18 19.5,17.4403563 19.5,16.75 L19.5,3.25 C19.5,2.55964404 18.9403553,2 18.25,2 L1.75,2 C1.05964404,2 0.5,2.55964404 0.5,3.25 L0.5,16.75 Z M1.5,3.25 L1.5,12.5427656 L5.36610317,8.6766634 C5.48217535,8.56059122 5.61997366,8.46851635 5.77163172,8.40569735 C5.9232893,8.34287882 6.0858345,8.31054688 6.24998665,8.31054688 C6.41413832,8.31054688 6.57668352,8.34287882 6.7283411,8.40569735 C6.87999916,8.46851635 7.01779747,8.56059122 7.13386965,8.6766634 L11.3232098,12.866004 C11.3464241,12.8892183 11.3739834,12.9076328 11.404315,12.9201965 C11.4346466,12.9327602 11.4671555,12.9392262 11.4999857,12.9392262 C11.5328169,12.9392262 11.5653267,12.9327602 11.5956573,12.9201965 C11.6259899,12.9076328 11.6535492,12.8892183 11.6767626,12.866004 L13.6161032,10.9266624 C13.7321768,10.8105888 13.869976,10.7185154 14.0216322,10.6556969 C14.1732883,10.5928793 14.3358335,10.5605469 14.4999857,10.5605469 C14.6641369,10.5605469 14.826683,10.5928783 14.9783411,10.6556969 C15.1299973,10.7185154 15.2677956,10.8105888 15.3838701,10.9266624 L18.5,14.0427971 L18.5,3.25 C18.5,3.11192882 18.3880711,3 18.25,3 L1.75,3 C1.61192882,3 1.5,3.11192882 1.5,3.25 Z M1.5,13.9569798 L1.5,16.75 C1.5,16.8880711 1.61192882,17 1.75,17 L18.25,17 C18.3880711,17 18.5,16.8880711 18.5,16.75 L18.5,15.4570131 L14.6767626,11.633769 C14.6535492,11.6105556 14.6259899,11.5921402 14.5956573,11.5795765 C14.5653267,11.5670137 14.5328169,11.5605469 14.4999857,11.5605469 C14.4671555,11.5605469 14.4346466,11.5670128 14.404315,11.5795765 C14.3739834,11.5921402 14.3464241,11.6105556 14.3232098,11.633769 L12.3838701,13.5731106 C12.2677956,13.6891842 12.1299973,13.7812576 11.9783411,13.8440762 C11.826683,13.9068947 11.6641369,13.9392262 11.4999857,13.9392262 C11.3358335,13.9392262 11.1732883,13.9068947 11.0216322,13.8440762 C10.869976,13.7812576 10.7321768,13.6891842 10.6161032,13.5731106 L6.42676306,9.38376999 C6.40354729,9.3605547 6.37598753,9.3421402 6.34565735,9.32957697 C6.31532669,9.31701326 6.28281736,9.31054688 6.24998665,9.31054688 C6.21715546,9.31054688 6.18464613,9.31701326 6.15431547,9.32957697 C6.12398529,9.3421402 6.09642553,9.3605547 6.07320976,9.38376999 L1.5,13.9569798 Z" id="Union" fill="#000000" mask="url(#mask-2)"></path>
                            </g>
                            <g id="Property-1=20,-Property-2=ic_image_primary" transform="translate(0.000000, 40.000000)">
                                <mask id="mask-4" fill="white">
                                    <use xlink:href="#path-3"></use>
                                </mask>
                                <g id="Property-1=20,-Property-2=ic_image_primary-(Background/Mask)"></g>
                                <path d="M13,8 C12.4477148,8 12,7.55228472 12,7 C12,6.44771528 12.4477148,6 13,6 C13.5522852,6 14,6.44771528 14,7 C14,7.55228472 13.5522852,8 13,8 Z M0.5,16.75 C0.5,17.4403563 1.05964404,18 1.75,18 L18.25,18 C18.9403553,18 19.5,17.4403563 19.5,16.75 L19.5,3.25 C19.5,2.55964404 18.9403553,2 18.25,2 L1.75,2 C1.05964404,2 0.5,2.55964404 0.5,3.25 L0.5,16.75 Z M1.5,3.25 L1.5,12.5427656 L5.36610317,8.6766634 C5.48217535,8.56059122 5.61997366,8.46851635 5.77163172,8.40569735 C5.9232893,8.34287882 6.0858345,8.31054688 6.24998665,8.31054688 C6.41413832,8.31054688 6.57668352,8.34287882 6.7283411,8.40569735 C6.87999916,8.46851635 7.01779747,8.56059122 7.13386965,8.6766634 L11.3232098,12.866004 C11.3464241,12.8892183 11.3739834,12.9076328 11.404315,12.9201965 C11.4346466,12.9327602 11.4671555,12.9392262 11.4999857,12.9392262 C11.5328169,12.9392262 11.5653267,12.9327602 11.5956573,12.9201965 C11.6259899,12.9076328 11.6535492,12.8892183 11.6767626,12.866004 L13.6161032,10.9266624 C13.7321768,10.8105888 13.869976,10.7185154 14.0216322,10.6556969 C14.1732883,10.5928783 14.3358335,10.5605469 14.4999857,10.5605469 C14.6641369,10.5605469 14.826683,10.5928783 14.9783411,10.6556969 C15.1299973,10.7185154 15.2677956,10.8105888 15.3838701,10.9266624 L18.5,14.0427971 L18.5,3.25 C18.5,3.11192882 18.3880711,3 18.25,3 L1.75,3 C1.61192882,3 1.5,3.11192882 1.5,3.25 Z M1.5,13.9569798 L1.5,16.75 C1.5,16.8880711 1.61192882,17 1.75,17 L18.25,17 C18.3880711,17 18.5,16.8880711 18.5,16.75 L18.5,15.4570131 L14.6767626,11.633769 C14.6535492,11.6105556 14.6259899,11.5921402 14.5956573,11.5795765 C14.5653267,11.5670137 14.5328169,11.5605469 14.4999857,11.5605469 C14.4671555,11.5605469 14.4346466,11.5670128 14.404315,11.5795765 C14.3739834,11.5921402 14.3464241,11.6105556 14.3232098,11.633769 L12.3838701,13.5731106 C12.2677956,13.6891842 12.1299973,13.7812576 11.9783411,13.8440762 C11.826683,13.9068947 11.6641369,13.9392262 11.4999857,13.9392262 C11.3358335,13.9392262 11.1732883,13.9068947 11.0216322,13.8440762 C10.869976,13.7812576 10.7321768,13.6891842 10.6161032,13.5731106 L6.42676306,9.38376999 C6.40354729,9.3605547 6.37598753,9.3421402 6.34565735,9.32957697 C6.31532669,9.31701374 6.28281736,9.31054688 6.24998665,9.31054688 C6.21715546,9.31054688 6.18464613,9.31701374 6.15431547,9.32957697 C6.12398529,9.3421402 6.09642553,9.3605547 6.07320976,9.38376999 L1.5,13.9569798 Z" id="Union" fill="#FF664D" mask="url(#mask-4)"></path>
                            </g>
                        </g>
                    </g>
                </g>
            </g>
        </g>
    </g>
</svg>