<?xml version="1.0" encoding="UTF-8"?>
<svg width="20px" height="20px" viewBox="0 0 20 20" version="1.1" xmlns="http://www.w3.org/2000/svg" xmlns:xlink="http://www.w3.org/1999/xlink">
    <title>D95E97C8-4A95-A4AD-47D5-34844477C9C3</title>
    <defs>
        <rect id="path-1" x="0" y="0" width="20" height="20"></rect>
    </defs>
    <g id="💎-Components" stroke="none" stroke-width="1" fill="none" fill-rule="evenodd">
        <g id="Icons/Grid" transform="translate(-1250.000000, -1062.000000)">
            <g id="20dp" transform="translate(62.000000, 941.000000)">
                <g id="Black" transform="translate(954.000000, 0.000000)">
                    <g id="Icon-/-20-/-Black" transform="translate(34.000000, 41.000000)">
                        <g id="Icons/20/ic_boardsurvey_grey05" transform="translate(200.000000, 80.000000)">
                            <mask id="mask-2" fill="white">
                                <use xlink:href="#path-1"></use>
                            </mask>
                            <g id="Icons/20/ic_boardsurvey_grey05-(Background/Mask)"></g>
                            <path d="M7,2 L7,3 L11,3 L11,2 L7,2 Z M6,2 L6,3 C6,3.55228472 6.4477154,4 7,4 L11,4 C11.5522847,4 12,3.55228472 12,3 L12,2 C12,1.44771528 11.5522847,1 11,1 L7,1 C6.44771528,1 6,1.44771522 6,2 Z" id="Rectangle-4558-(Stroke)" fill="#A4A6AA" mask="url(#mask-2)"></path>
                            <path d="M8.46424296,14.9499706 L8.18925737,15.9320629 L9.17135042,15.6570767 L17.7071069,7.12132023 L17.0000001,6.41421345 L8.46424296,14.9499706 Z M18.9798991,7.26274159 C19.0580039,7.18463673 19.0580039,7.05800369 18.979899,6.97989884 L17.1414214,5.14142126 C17.0633166,5.06331639 16.9366837,5.06331626 16.8585788,5.14142112 L7.57190854,14.4280914 L6.84281956,17.031982 C6.80076847,17.182165 6.93915529,17.3205518 7.08933833,17.2785007 L9.69322888,16.5494118 L18.9798991,7.26274159 Z" id="Rectangle-4559-(Stroke)" fill="#A4A6AA" mask="url(#mask-2)"></path>
                            <path d="M2,18 L16,18 L16,10.2426405 L17,9.2426405 L17,18 C17,18.5522842 16.5522842,19 16,19 L2,19 C1.44771481,19 1,18.5522842 1,18 L1,2 C1,1.44771647 1.44771594,1 2,1 L16,1 C16.5522842,1 17,1.44771576 17,2 L17,5.08284283 C16.9488144,5.08284283 16.8976307,5.10236883 16.8585787,5.14142132 L16,6 L16,2 L2,2 L2,18 Z" id="Subtract" fill="#A4A6AA" fill-rule="nonzero" mask="url(#mask-2)"></path>
                        </g>
                    </g>
                </g>
            </g>
        </g>
    </g>
</svg>