<?xml version="1.0" encoding="UTF-8"?>
<svg width="20px" height="20px" viewBox="0 0 20 20" version="1.1" xmlns="http://www.w3.org/2000/svg" xmlns:xlink="http://www.w3.org/1999/xlink">
    <title>EE87BE92-BCD4-CB62-3082-EF3AAD71209A</title>
    <g id="💎-Components" stroke="none" stroke-width="1" fill="none" fill-rule="evenodd">
        <g id="Icons/Grid" transform="translate(-1210.000000, -1022.000000)">
            <g id="20dp" transform="translate(62.000000, 941.000000)">
                <g id="Black" transform="translate(954.000000, 0.000000)">
                    <g id="Icon-/-20-/-Black" transform="translate(34.000000, 41.000000)">
                        <g id="Icons-/-20-/-ic_e-learning_black" transform="translate(160.000000, 40.000000)">
                            <rect id="area" x="0" y="0" width="20" height="20"></rect>
                            <path d="M8,15.5 L8,17.5 L6.5,17.5 C6.22385931,17.5 6,17.7238579 6,18 C6,18.2761421 6.22385931,18.5 6.5,18.5 L13.5,18.5 C13.776144,18.5 14,18.2761421 14,18 C14,17.7238579 13.776144,17.5 13.5,17.5 L12,17.5 L12,15.5 L18,15.5 C18.5522881,15.5 19,15.0522833 19,14.5 L19,2.5 C19,1.94771564 18.5522861,1.5 18,1.5 L2,1.5 C1.44771576,1.5 1,1.94771689 1,2.5 L1,14.5 C1,15.0522842 1.44771695,15.5 2,15.5 L8,15.5 Z M18,14.5 L18,12.5 L2,12.5 L2,14.5 L18,14.5 Z M11,15.5 L9,15.5 L9,17.5 L11,17.5 L11,15.5 Z M18,2.5 L2,2.5 L2,11.5 L18,11.5 L18,2.5 Z" id="Union" fill="#000000"></path>
                        </g>
                    </g>
                </g>
            </g>
        </g>
    </g>
</svg>