<svg width="20" height="22" viewBox="0 0 20 22" xmlns="http://www.w3.org/2000/svg" xmlns:xlink="http://www.w3.org/1999/xlink">
    <defs>
        <path id="g3zh8wcx1a" d="M0 0h20v21.333H0z"/>
    </defs>
    <g transform="translate(0 .067)" fill="none" fill-rule="evenodd">
        <mask id="pchqdl31bb" fill="#fff">
            <use xlink:href="#g3zh8wcx1a"/>
        </mask>
        <path d="m10.354 9.223 4 4.266a.559.559 0 0 1 0 .755.478.478 0 0 1-.708 0L10 10.354l-3.646 3.89a.478.478 0 0 1-.708 0 .559.559 0 0 1 0-.755l4-4.266a.478.478 0 0 1 .708 0z" fill="#A4A6AA" mask="url(#pchqdl31bb)" transform="matrix(1 0 0 -1 0 23.466)"/>
        <path d="M10.5 2.133V12.8c0 .294-.224.533-.5.533s-.5-.239-.5-.533V2.133c0-.294.224-.533.5-.533s.5.239.5.533z" fill="#A4A6AA" mask="url(#pchqdl31bb)" transform="matrix(1 0 0 -1 0 14.933)"/>
        <path d="M2 13.867V18.536l.004.01c.004.008.015.025.037.044.047.04.13.077.232.077h15.454a.361.361 0 0 0 .232-.077.145.145 0 0 0 .037-.045.046.046 0 0 0 .004-.012v-4.666c0-.295.224-.534.5-.534s.5.239.5.534v4.666c0 .36-.166.674-.412.886a1.32 1.32 0 0 1-.86.314H2.272a1.32 1.32 0 0 1-.861-.314A1.17 1.17 0 0 1 1 18.533v-4.666c0-.295.224-.534.5-.534s.5.239.5.534z" fill="#A4A6AA" mask="url(#pchqdl31bb)"/>
    </g>
</svg>
