<?xml version="1.0" encoding="UTF-8"?>
<svg width="24px" height="24px" viewBox="0 0 24 24" version="1.1" xmlns="http://www.w3.org/2000/svg" xmlns:xlink="http://www.w3.org/1999/xlink">
    <title>0C268ED2-F8DB-4CC8-2AC5-83EE32CF5848</title>
    <defs>
        <rect id="path-1" x="0" y="0" width="24" height="24"></rect>
    </defs>
    <g id="💎-Components" stroke="none" stroke-width="1" fill="none" fill-rule="evenodd">
        <g id="Icons/Grid" transform="translate(-1232.000000, -1303.000000)">
            <g id="24dp" transform="translate(62.000000, 1263.000000)">
                <g id="Black" transform="translate(954.000000, 0.000000)">
                    <g id="Icon-/-24-/-Black" transform="translate(40.000000, 40.000000)">
                        <g id="Icons-/-24-/-ic_call_grey04" transform="translate(176.000000, 0.000000)">
                            <mask id="mask-2" fill="white">
                                <use xlink:href="#path-1"></use>
                            </mask>
                            <g id="Icons-/-24-/-ic_call_grey04-(Background/Mask)"></g>
                            <path d="M21.8999375,13.8995775 C21.8999375,15.0041471 21.0859098,15.8995775 20.0817557,15.8995775 L17.8483215,15.8995775 C16.8441674,15.8995775 16.0301397,15.0041471 16.0301397,13.8995775 L16.0301397,11.7169803 C14.7174395,11.326967 13.3300336,11.1260513 11.8999375,11.1260513 C10.4698414,11.1260513 9.08243484,11.326967 7.75906239,11.7169803 L7.75906239,13.8995775 C7.75906239,15.0041471 6.94503471,15.8995775 5.94088057,15.8995775 L3.71811933,15.8995775 C2.71396519,15.8995775 1.89993751,15.0041471 1.89993751,13.8995775 L1.89993751,12.9756597 C1.89993751,11.7193443 2.53387561,10.5528495 3.55735476,10.005649 C6.08136763,8.65478468 8.91167707,7.8995775 11.8999375,7.8995775 C14.8871307,7.8995775 17.718508,8.65478468 20.2425209,10.005649 C21.2638657,10.5528495 21.8999375,11.7193443 21.8999375,12.9756597 L21.8999375,13.8995775 Z" id="Stroke-1" fill="#CBCDCF" mask="url(#mask-2)" transform="translate(11.899938, 11.899577) rotate(-135.000000) translate(-11.899938, -11.899577) "></path>
                        </g>
                    </g>
                </g>
            </g>
        </g>
    </g>
</svg>