<?xml version="1.0" encoding="UTF-8"?>
<svg width="24px" height="68px" viewBox="0 0 24 68" version="1.1" xmlns="http://www.w3.org/2000/svg" xmlns:xlink="http://www.w3.org/1999/xlink">
    <title>B546D987-D6F9-4DE2-8FD1-49397C12D28C</title>
    <defs>
        <rect id="path-1" x="0" y="0" width="24" height="24"></rect>
        <rect id="path-3" x="0" y="0" width="24" height="24"></rect>
    </defs>
    <g id="💎-Components" stroke="none" stroke-width="1" fill="none" fill-rule="evenodd">
        <g id="Icons/Grid" transform="translate(-1056.000000, -1455.000000)">
            <g id="24dp" transform="translate(62.000000, 1263.000000)">
                <g id="Black" transform="translate(954.000000, 0.000000)">
                    <g id="Icon-/-24-/-Black" transform="translate(40.000000, 40.000000)">
                        <g id="Icons-/-24-/-ic_category_off_on" transform="translate(0.000000, 152.000000)">
                            <g id="Icons-/-24-/-ic_category_grey04">
                                <mask id="mask-2" fill="white">
                                    <use xlink:href="#path-1"></use>
                                </mask>
                                <g id="Icons-/-24-/-ic_category_grey04-(Background/Mask)"></g>
                                <path d="M4,3 L10,3 C10.5522847,3 11,3.44771528 11,4 L11,10 C11,10.5522847 10.5522847,11 10,11 L4,11 C3.44771528,11 3,10.5522847 3,10 L3,4 C3,3.44771528 3.44771528,3 4,3 Z M4,13 L10,13 C10.5522847,13 11,13.4477148 11,14 L11,20 C11,20.5522842 10.5522847,21 10,21 L4,21 C3.44771528,21 3,20.5522842 3,20 L3,14 C3,13.4477148 3.44771528,13 4,13 Z M13,4 L13,10 C13,10.5522847 13.4477148,11 14,11 L20,11 C20.5522842,11 21,10.5522847 21,10 L21,4 C21,3.44771528 20.5522842,3 20,3 L14,3 C13.4477148,3 13,3.44771528 13,4 Z" id="Union" fill="#CBCDCF" mask="url(#mask-2)"></path>
                                <path d="M17,13 C19.209139,13 21,14.790861 21,17 C21,19.209139 19.209139,21 17,21 C14.790861,21 13,19.209139 13,17 C13,14.790861 14.790861,13 17,13 Z" id="Rectangle-4902" fill="#E3E4E5" mask="url(#mask-2)"></path>
                            </g>
                            <g id="Icons-/-24-/-ic_category_secondary" transform="translate(0.000000, 44.000000)">
                                <mask id="mask-4" fill="white">
                                    <use xlink:href="#path-3"></use>
                                </mask>
                                <g id="Icons-/-24-/-ic_category_secondary-(Background/Mask)"></g>
                                <path d="M4,3 L10,3 C10.5522847,3 11,3.44771528 11,4 L11,10 C11,10.5522847 10.5522847,11 10,11 L4,11 C3.44771528,11 3,10.5522847 3,10 L3,4 C3,3.44771528 3.44771528,3 4,3 Z M4,13 L10,13 C10.5522847,13 11,13.4477148 11,14 L11,20 C11,20.5522842 10.5522847,21 10,21 L4,21 C3.44771528,21 3,20.5522842 3,20 L3,14 C3,13.4477148 3.44771528,13 4,13 Z M13,4 L13,10 C13,10.5522847 13.4477148,11 14,11 L20,11 C20.5522842,11 21,10.5522847 21,10 L21,4 C21,3.44771528 20.5522842,3 20,3 L14,3 C13.4477148,3 13,3.44771528 13,4 Z" id="Union" fill="#38B1AD" mask="url(#mask-4)"></path>
                                <path d="M17,13 C19.209139,13 21,14.790861 21,17 C21,19.209139 19.209139,21 17,21 C14.790861,21 13,19.209139 13,17 C13,14.790861 14.790861,13 17,13 Z" id="Rectangle-4902" fill="#9BD8D6" mask="url(#mask-4)"></path>
                            </g>
                        </g>
                    </g>
                </g>
            </g>
        </g>
    </g>
</svg>