<svg width="16" height="16" viewBox="0 0 16 16" xmlns="http://www.w3.org/2000/svg" xmlns:xlink="http://www.w3.org/1999/xlink">
    <defs>
        <path id="64t4u5psxa" d="M0 0h16v16H0z"/>
    </defs>
    <g fill="none" fill-rule="evenodd">
        <mask id="l5xhk2gvtb" fill="#fff">
            <use xlink:href="#64t4u5psxa"/>
        </mask>
        <path d="M7.5 9.5v2a.5.5 0 0 0 1 0v-2a.5.5 0 0 0-1 0zM4 6H3a1 1 0 0 0-1 1v7a1 1 0 0 0 1 1h10a1 1 0 0 0 1-1V7a1 1 0 0 0-1-1h-1V5a4 4 0 0 0-8 0v1zm1-1v1h6V5a3 3 0 0 0-6 0zm8 2v7H3V7h10z" fill="#000" mask="url(#l5xhk2gvtb)"/>
    </g>
</svg>
