<svg width="32" height="32" viewBox="0 0 32 32" xmlns="http://www.w3.org/2000/svg" xmlns:xlink="http://www.w3.org/1999/xlink">
    <defs>
        <path id="tfxkozlx7a" d="M0 0h32v32H0z"/>
        <path id="d1sl92m7gc" d="M0 0h32v32H0z"/>
    </defs>
    <g fill="none" fill-rule="evenodd">
        <mask id="8s5wszz52b" fill="#fff">
            <use xlink:href="#tfxkozlx7a"/>
        </mask>
        <g mask="url(#8s5wszz52b)">
            <mask id="agho5qhdjd" fill="#fff">
                <use xlink:href="#d1sl92m7gc"/>
            </mask>
            <path d="M16 32c8.837 0 16-7.163 16-16S24.837 0 16 0 0 7.163 0 16s7.163 16 16 16z" fill="#CBCDCF" mask="url(#agho5qhdjd)"/>
            <g mask="url(#agho5qhdjd)">
                <path d="M4 8h24v16H4V8z"/>
                <path d="M16.401 8.776a.602.602 0 0 0-.576 0 .56.56 0 0 0-.21.199l-1.535 2.508-1.536-2.51a.56.56 0 0 0-.21-.198.601.601 0 0 0-.575 0 .56.56 0 0 0-.21.199l-1.278 2.088a.519.519 0 0 0 0 .543.56.56 0 0 0 .21.2.601.601 0 0 0 .289.072h6.62c.1 0 .2-.025.288-.073a.56.56 0 0 0 .21-.199.52.52 0 0 0 0-.543l-1.276-2.087a.56.56 0 0 0-.21-.2zm2.275-.074c-.1 0-.2.025-.287.073a.56.56 0 0 0-.211.199.52.52 0 0 0 0 .543l1.443 2.36a.373.373 0 0 0 .14.133.401.401 0 0 0 .385 0 .373.373 0 0 0 .14-.133l1.443-2.36a.52.52 0 0 0 0-.543.56.56 0 0 0-.21-.199.602.602 0 0 0-.288-.073h-2.555zm.87 3.82a.701.701 0 0 0-.27.31.655.655 0 0 0-.042.4.68.68 0 0 0 .2.353.746.746 0 0 0 .375.19c.142.027.29.013.423-.04a.725.725 0 0 0 .33-.254.664.664 0 0 0-.091-.872.764.764 0 0 0-.924-.087zm.19.884a.376.376 0 0 1-.146-.167.352.352 0 0 1 .086-.404.415.415 0 0 1 .428-.08.389.389 0 0 1 .176.136.356.356 0 0 1-.049.468.41.41 0 0 1-.496.046zM16.939 16.848l.119.01a.774.774 0 0 1 .416.2.695.695 0 0 1 .222.505v3.482c0 .462-.195.905-.541 1.232-.346.327-.816.51-1.306.51h-2.204c-.49 0-.96-.183-1.306-.51a1.696 1.696 0 0 1-.541-1.232v-3.482a.698.698 0 0 1 .23-.49.782.782 0 0 1 .527-.201c.197 0 .386.072.527.2a.698.698 0 0 1 .231.49v3.4a.664.664 0 0 0 .216.493.777.777 0 0 0 .523.204h1.39a.777.777 0 0 0 .523-.204.664.664 0 0 0 .216-.493v-3.4a.68.68 0 0 1 .058-.273.713.713 0 0 1 .164-.232.795.795 0 0 1 .536-.21v.001zm8.932 0 .098.006a.793.793 0 0 1 .438.203.68.68 0 0 1 .223.506v4.51a.698.698 0 0 1-.23.49.782.782 0 0 1-.528.202.782.782 0 0 1-.526-.202.698.698 0 0 1-.231-.49v-4.51a.68.68 0 0 1 .058-.274.713.713 0 0 1 .164-.232.796.796 0 0 1 .536-.209h-.002zm-15.726-.74c.163 0 .32.062.436.17.115.11.18.258.18.412a.566.566 0 0 1-.18.412.635.635 0 0 1-.436.17H6.912c-.427 0-.7.274-.7.612 0 .338.273.612.7.612h2.35c1.108-.003 1.921.793 1.924 1.77.002.978-.801 1.775-1.906 1.782H5.575a.634.634 0 0 1-.421-.178.566.566 0 0 1-.173-.404c0-.151.062-.296.173-.404a.634.634 0 0 1 .421-.178h3.411c.427-.001.702-.275.701-.613 0-.338-.274-.611-.7-.611H6.692c-1.106 0-1.92-.795-1.92-1.776s.815-1.773 1.919-1.776zm12.361-1.128.181.008c.18.017.358.059.526.124.224.088.428.216.6.378.17.162.307.354.4.566.092.211.14.438.14.667v3.482c0 .19-.08.371-.222.505a.78.78 0 0 1-.535.21.78.78 0 0 1-.536-.21.695.695 0 0 1-.222-.505v-3.398a.663.663 0 0 0-.216-.492.776.776 0 0 0-.522-.204h-1.391a.762.762 0 0 0-.523.202.679.679 0 0 0-.219.492v3.4c0 .189-.08.37-.221.504a.78.78 0 0 1-.533.21l-.12-.01a.774.774 0 0 1-.415-.2.695.695 0 0 1-.222-.504v-3.482c0-.463.194-.906.54-1.233.347-.327.816-.51 1.306-.51h2.204zm3.88-1.134c.249.097.46.261.61.471.149.211.228.459.228.712 0 .34-.143.664-.398.904a1.392 1.392 0 0 1-.805.368l-.153.008c-.268 0-.53-.075-.754-.216a1.3 1.3 0 0 1-.499-.574 1.214 1.214 0 0 1-.077-.74 1.26 1.26 0 0 1 .37-.656c.19-.179.432-.3.695-.35.263-.05.536-.024.784.073z" fill="#FFF"/>
            </g>
        </g>
    </g>
</svg>
