<?xml version="1.0" encoding="UTF-8"?>
<svg width="20px" height="20px" viewBox="0 0 20 20" version="1.1" xmlns="http://www.w3.org/2000/svg" xmlns:xlink="http://www.w3.org/1999/xlink">
    <title>BA923715-AA1E-B8E3-4809-BA3A59318AAC</title>
    <g id="💎-Components" stroke="none" stroke-width="1" fill="none" fill-rule="evenodd">
        <g id="Icons/Grid" transform="translate(-1370.000000, -1022.000000)">
            <g id="20dp" transform="translate(62.000000, 941.000000)">
                <g id="Black" transform="translate(954.000000, 0.000000)">
                    <g id="Icon-/-20-/-Black" transform="translate(34.000000, 41.000000)">
                        <g id="Icons-/-20-/-ic_cohort_black" transform="translate(320.000000, 40.000000)">
                            <path d="M0,0 L20,0 L20,20 L0,20 L0,0 Z" id="area"></path>
                            <path d="M15.5,6 C15.5,7.38071203 14.380712,8.5 13,8.5 C12.5438106,8.5 12.1175699,8.37826824 11.7503624,8.16585016 C11.511332,8.02757883 11.2054687,8.10926008 11.0671968,8.34829044 C10.9289255,8.5873208 11.0106072,8.89318466 11.2496376,9.03145647 C11.7649503,9.32954836 12.363328,9.5 13,9.5 C14.9329966,9.5 16.5,7.93299675 16.5,6 C16.5,4.06700337 14.9329966,2.5 13,2.5 C12.363328,2.5 11.7649503,2.67045131 11.2496376,2.96854371 C11.0106072,3.1068154 10.928926,3.41267914 11.0671978,3.65170956 C11.2054691,3.89074004 11.511332,3.97242129 11.7503624,3.8341496 C12.1175699,3.62173164 12.5438104,3.5 13,3.5 C14.380712,3.5 15.5,4.61928797 15.5,6 Z M13,10.5 C12.8185391,10.5 12.6378469,10.5075883 12.4583521,10.5225916 C12.1831694,10.5455931 11.9787359,10.7873192 12.0017376,11.0625019 C12.0247393,11.3376846 12.2664652,11.5421188 12.5416479,11.5191174 C12.6935191,11.506423 12.8464222,11.5 13,11.5 C14.4586906,11.5 15.8576374,12.0794624 16.8890877,13.1109123 C17.8020189,14.0238433 18.3608661,15.224668 18.4772415,16.5 L15,16.5 C14.7238574,16.5 14.5,16.7238579 14.5,17 C14.5,17.2761426 14.7238579,17.5 15,17.5 L19.5,17.5 L19.5,17 C19.5,15.2760921 18.8151799,13.6227919 17.5961933,12.4038057 C16.3772068,11.1848195 14.723907,10.5 13,10.5 Z M9.5,6 C9.5,7.38071203 8.38071203,8.5 7,8.5 C5.61928797,8.5 4.5,7.38071203 4.5,6 C4.5,4.61928797 5.61928797,3.5 7,3.5 C8.38071203,3.5 9.5,4.61928797 9.5,6 Z M7,2.5 C5.06700325,2.5 3.5,4.06700337 3.5,6 C3.5,7.93299675 5.06700325,9.5 7,9.5 C8.93299663,9.5 10.5,7.93299675 10.5,6 C10.5,4.06700337 8.93299663,2.5 7,2.5 Z M7,10.5 C5.27609253,10.5 3.62279224,11.1848193 2.40380573,12.4038057 C1.18481922,13.6227921 0.5,15.276093 0.5,17 L0.5,17.5 L13.5,17.5 L13.5,17 C13.5,15.2760921 12.8151798,13.6227921 11.5961933,12.4038057 C10.3772068,11.1848195 8.72390652,10.5 7,10.5 Z M10.8890867,13.1109123 C11.8020178,14.0238433 12.3608661,15.224668 12.4772415,16.5 L1.52275848,16.5 C1.63913345,15.224669 2.19798183,14.0238433 3.11091232,13.1109123 C4.14236259,12.0794623 5.54130888,11.5 7,11.5 C8.45869017,11.5 9.85763645,12.0794623 10.8890867,13.1109123 Z" id="Vector" fill="#000000"></path>
                        </g>
                    </g>
                </g>
            </g>
        </g>
    </g>
</svg>