<svg width="24" height="24" viewBox="0 0 24 24" xmlns="http://www.w3.org/2000/svg" xmlns:xlink="http://www.w3.org/1999/xlink">
    <defs>
        <path id="e03ee4gmua" d="M0 0h24v24H0z"/>
    </defs>
    <g fill="none" fill-rule="evenodd">
        <mask id="cr2td14vxb" fill="#fff">
            <use xlink:href="#e03ee4gmua"/>
        </mask>
        <path d="m12.85 2.366 2.62 4.216a1 1 0 0 0 .61.443l4.82 1.19a1 1 0 0 1 .525 1.616l-3.2 3.796a1 1 0 0 0-.233.716l.358 4.952a1 1 0 0 1-1.374.998l-4.6-1.87a1 1 0 0 0-.753 0l-4.599 1.87a1 1 0 0 1-1.374-.998l.358-4.952a1 1 0 0 0-.233-.716l-3.2-3.796A1 1 0 0 1 3.1 8.215l4.82-1.19a1 1 0 0 0 .61-.443l2.62-4.216a1 1 0 0 1 1.7 0z" fill="#FF664D" mask="url(#cr2td14vxb)"/>
    </g>
</svg>
