<?xml version="1.0" encoding="UTF-8"?>
<svg width="20px" height="20px" viewBox="0 0 20 20" version="1.1" xmlns="http://www.w3.org/2000/svg" xmlns:xlink="http://www.w3.org/1999/xlink">
    <title>BE84045C-D4C2-8B59-1B44-4C56A7675480</title>
    <defs>
        <rect id="path-1" x="0" y="0" width="20" height="20"></rect>
    </defs>
    <g id="💎-Components" stroke="none" stroke-width="1" fill="none" fill-rule="evenodd">
        <g id="Icons/Grid" transform="translate(-1370.000000, -1062.000000)">
            <g id="20dp" transform="translate(62.000000, 941.000000)">
                <g id="Black" transform="translate(954.000000, 0.000000)">
                    <g id="Icon-/-20-/-Black" transform="translate(34.000000, 41.000000)">
                        <g id="Icons/20/ic_boarddiscussion_grey05" transform="translate(320.000000, 80.000000)">
                            <mask id="mask-2" fill="white">
                                <use xlink:href="#path-1"></use>
                            </mask>
                            <g id="Icons/20/ic_boarddiscussion_grey05-(Background/Mask)"></g>
                            <path d="M1.5,10.7748985 L1.5,2.5 L13.5,2.5 L13.5,5.5 L14.5,5.5 L14.5,2.5 C14.5,1.94771528 14.0522842,1.5 13.5,1.5 L1.5,1.5 C0.947715759,1.5 0.5,1.94771647 0.5,2.5 L0.5,12.3011751 C0.5,12.4624796 0.681138992,12.5574236 0.813791275,12.4656496 L2.80718136,11.0865269 L5.5,11.0865269 L5.5,10.0865269 L2.49497545,10.0865269 L1.5,10.7748985 Z M18.5,16.8463154 L18.5,6.5 L6.5,6.5 L6.5,5.5 L18.5,5.5 C19.0522842,5.5 19.5,5.94771433 19.5,6.5 L19.5,18.2992935 C19.5,18.4568844 19.3262186,18.5525665 19.1930523,18.4682961 L16.2999992,16.6375313 L6.5,16.6375313 C5.94771528,16.6375313 5.5,16.1898174 5.5,15.6375322 L5.5,6.5 C5.5,5.94771528 5.94771576,5.5 6.5,5.5 L6.5,15.6375313 L16.5898285,15.6375313 L18.5,16.8463154 Z M16.5,9.55001163 L16.5,10.5625143 L8.5,10.5625143 L8.5,9.55001163 L16.5,9.55001163 Z M14.5,11.575017 L14.5,12.5875196 L8.5,12.5875196 L8.5,11.575017 L14.5,11.575017 Z" id="Vector" fill="#A4A6AA" mask="url(#mask-2)"></path>
                        </g>
                    </g>
                </g>
            </g>
        </g>
    </g>
</svg>