<?xml version="1.0" encoding="UTF-8"?>
<svg width="20px" height="20px" viewBox="0 0 20 20" version="1.1" xmlns="http://www.w3.org/2000/svg" xmlns:xlink="http://www.w3.org/1999/xlink">
    <title>2B39955E-3DC5-42C6-AB82-489C4D69E4E1</title>
    <g id="학습창" stroke="none" stroke-width="1" fill="none" fill-rule="evenodd">
        <g id="Cube_Case" transform="translate(-340.000000, -260.000000)">
            <g id="Icons-/-20-/-ic_experiential_black" transform="translate(340.000000, 260.000000)">
                <rect id="area" x="0" y="0" width="20" height="20"></rect>
                <path d="M6,5 L6,6 L14,6 L14,5 L6,5 Z M18,18 C18,18.5522842 17.5522852,19 17,19 L4,19 C2.89543056,19 2,18.1045704 2,17 L2,2 C2,1.44771576 2.44771528,1 3,1 L17,1 C17.5522852,1 18,1.44771528 18,2 L18,18 Z M3,2 L3,15.2675648 C3.29417336,15.0973949 3.63571286,15 4,15 L17,15 L17,2 L3,2 Z M3,17 C3,16.4477158 3.44771528,16 4,16 L17,16 L17,18 L4,18 C3.44771528,18 3,17.5522842 3,17 Z" id="Union" fill="#000000"></path>
            </g>
        </g>
    </g>
</svg>