<?xml version="1.0" encoding="UTF-8"?>
<svg width="24px" height="24px" viewBox="0 0 24 24" version="1.1" xmlns="http://www.w3.org/2000/svg" xmlns:xlink="http://www.w3.org/1999/xlink">
    <title>FB08C7B1-C5AD-0BA0-349E-CB1F8BA2C742</title>
    <defs>
        <rect id="path-1" x="0" y="0" width="24" height="24"></rect>
    </defs>
    <g id="💎-Components" stroke="none" stroke-width="1" fill="none" fill-rule="evenodd">
        <g id="Icons/Grid" transform="translate(-1276.000000, -1303.000000)">
            <g id="24dp" transform="translate(62.000000, 1263.000000)">
                <g id="Black" transform="translate(954.000000, 0.000000)">
                    <g id="Icon-/-24-/-Black" transform="translate(40.000000, 40.000000)">
                        <g id="Icons-/-24-/-ic_learning_black" transform="translate(220.000000, 0.000000)">
                            <mask id="mask-2" fill="white">
                                <use xlink:href="#path-1"></use>
                            </mask>
                            <g id="Icons-/-24-/-ic_learning_black-(Background/Mask)"></g>
                            <path d="M5,3.5 C4.72385812,3.5 4.5,3.72385764 4.5,4 L4.5,20 C4.5,20.2761421 4.72385764,20.5 5,20.5 L19,20.5 C19.2761421,20.5 19.5,20.2761421 19.5,20 L19.5,4 C19.5,3.72385752 19.2761421,3.5 19,3.5 L5,3.5 Z M3,4 L3,20 C3,21.1045704 3.89543045,22 5,22 L19,22 C20.1045704,22 21,21.1045685 21,20 L21,4 C21,2.89543056 20.1045704,2 19,2 L5,2 C3.89543056,2 3,2.89543104 3,4 Z" id="Rectangle-4597-(Stroke)" fill="#000000" mask="url(#mask-2)"></path>
                            <path d="M15.2499996,11.25 L15.2499996,12.75 L-1.75000037,12.75 L-1.75000037,11.25 L15.2499996,11.25 Z" id="Rectangle-4668" fill="#000000" fill-rule="nonzero" mask="url(#mask-2)" transform="translate(6.750000, 12.000000) scale(-1, -1) rotate(-90.000003) translate(-6.750000, -12.000000) "></path>
                            <path d="M17,6 L17,7.5 L10,7.5 L10,6 L17,6 Z" id="Rectangle-4669" fill="#000000" fill-rule="nonzero" mask="url(#mask-2)"></path>
                        </g>
                    </g>
                </g>
            </g>
        </g>
    </g>
</svg>