<svg width="16" height="16" viewBox="0 0 16 16" xmlns="http://www.w3.org/2000/svg" xmlns:xlink="http://www.w3.org/1999/xlink">
    <defs>
        <path id="8ytsqinggc" d="M0 0h16v16H0z"/>
        <path d="M8 0a6 6 0 0 1 3.001 11.197L11 13a3 3 0 0 1-6 0v-1.803A6 6 0 0 1 8 0z" id="ob2hpn08fa"/>
        <path d="M8 8a2 2 0 1 0 0-4 2 2 0 0 0 0 4z" id="tp3he2p05b"/>
        <mask id="5ckrly77te" maskContentUnits="userSpaceOnUse" maskUnits="objectBoundingBox" x="0" y="0" width="12" height="16" fill="#fff">
            <use xlink:href="#ob2hpn08fa"/>
        </mask>
        <mask id="jayr2u8u9f" maskContentUnits="userSpaceOnUse" maskUnits="objectBoundingBox" x="0" y="0" width="4" height="4" fill="#fff">
            <use xlink:href="#tp3he2p05b"/>
        </mask>
    </defs>
    <g fill="none" fill-rule="evenodd">
        <mask id="jjyhoczhhd" fill="#fff">
            <use xlink:href="#8ytsqinggc"/>
        </mask>
        <g stroke-dasharray="0,0" mask="url(#jjyhoczhhd)" stroke="#FFF" stroke-width="2">
            <use mask="url(#5ckrly77te)" xlink:href="#ob2hpn08fa"/>
        </g>
        <path d="M5 12h6v1H5v-1z" fill="#FFF" mask="url(#jjyhoczhhd)"/>
        <g stroke-dasharray="0,0" mask="url(#jjyhoczhhd)" stroke="#FFF" stroke-width="2">
            <use mask="url(#jayr2u8u9f)" xlink:href="#tp3he2p05b"/>
        </g>
        <path d="M7.5 7h1v6h-1V7z" fill="#FFF" mask="url(#jjyhoczhhd)"/>
    </g>
</svg>
