<?xml version="1.0" encoding="UTF-8"?>
<svg width="24px" height="24px" viewBox="0 0 24 24" version="1.1" xmlns="http://www.w3.org/2000/svg" xmlns:xlink="http://www.w3.org/1999/xlink">
    <title>AC724306-B40C-98E6-6C09-7E80AF25636B</title>
    <defs>
        <rect id="path-1" x="0" y="0" width="24" height="24"></rect>
    </defs>
    <g id="💎-Components" stroke="none" stroke-width="1" fill="none" fill-rule="evenodd">
        <g id="Icons/Grid" transform="translate(-1364.000000, -1347.000000)">
            <g id="24dp" transform="translate(62.000000, 1263.000000)">
                <g id="Black" transform="translate(954.000000, 0.000000)">
                    <g id="Icon-/-24-/-Black" transform="translate(40.000000, 40.000000)">
                        <g id="Icons-/-24-/-ic_document_check_black" transform="translate(308.000000, 44.000000)">
                            <mask id="mask-2" fill="white">
                                <use xlink:href="#path-1"></use>
                            </mask>
                            <g id="Icons-/-24-/-ic_document_check_black-(Background/Mask)"></g>
                            <path d="M19.4999999,4.50000072 L19.4999992,20.5000007 L4.49999924,20.5000001 L4.49999993,4.50000007 L19.4999999,4.50000072 Z M2.99999921,21 C2.99999919,21.5522851 3.44771493,22 3.99999917,22 L19.9999992,22.0000007 C20.5522833,22.0000008 20.9999992,21.5522855 20.9999992,21.0000008 L21,4.00000079 C21,3.44771464 20.5522847,3.00000077 20,3.00000074 L4,3.00000004 C3.44771385,3.00000002 2.99999998,3.44771576 2.99999996,4 L2.99999921,21 Z" id="Rectangle-4552-(Stroke)" fill="#000000" mask="url(#mask-2)"></path>
                            <path d="M15.0786381,11.4888382 L11.6411376,15.4888387 C11.4910895,15.6634402 11.2691649,15.7594562 11.0391722,15.7492805 C10.8091795,15.7391047 10.5966017,15.6238637 10.4625599,15.4366927 L8.90005989,13.2548742 C8.65888859,12.9181114 8.73638082,12.4496032 9.07314372,12.2084318 C9.40990663,11.9672605 9.87841499,12.0447528 10.1195863,12.3815157 L11.1259997,13.7868347 L13.9410086,10.5111881 C14.2109795,10.1970405 14.6845007,10.1612279 14.9986482,10.4311985 C15.3127961,10.7011691 15.3486085,11.1746905 15.0786381,11.4888382 Z" id="Path-7-Copy-(Stroke)" fill="#000000" mask="url(#mask-2)"></path>
                            <path d="M9.5,5.5 L14.5,5.5 L14.5,4.5 L9.5,4.5 L9.5,5.5 Z M8,4 L8,6 C8,6.55228472 8.44771528,7 9,7 L15,7 C15.5522847,7 16,6.55228472 16,6 L16,4 C16,3.44771528 15.5522847,3 15,3 L9,3 C8.44771528,3 8,3.44771528 8,4 Z" id="Rectangle-4558-(Stroke)" fill="#000000" mask="url(#mask-2)"></path>
                        </g>
                    </g>
                </g>
            </g>
        </g>
    </g>
</svg>