<svg width="24" height="24" viewBox="0 0 24 24" xmlns="http://www.w3.org/2000/svg" xmlns:xlink="http://www.w3.org/1999/xlink">
    <defs>
        <path id="2gkyommoca" d="M0 0h24v24H0z"/>
    </defs>
    <g fill="none" fill-rule="evenodd">
        <mask id="f2m9cbpx5b" fill="#fff">
            <use xlink:href="#2gkyommoca"/>
        </mask>
        <path d="M13 14v1a1 1 0 1 1-2 0v-1a1 1 0 1 1 2 0z" fill="#000" mask="url(#f2m9cbpx5b)"/>
        <path d="M12 1.25c1.656 0 3.14.714 4.185 1.852l-1.088 1.033A4.183 4.183 0 0 0 12 2.75c-2.327 0-4.25 1.947-4.25 4.393l.001.107h8.498l-.001-.001h1.501v.001H19c.966 0 1.75.784 1.75 1.75v11A1.75 1.75 0 0 1 19 21.75H5A1.75 1.75 0 0 1 3.25 20V9c0-.966.784-1.75 1.75-1.75h1.25v-.107C6.25 3.908 8.805 1.25 12 1.25zm7 7.5H5a.25.25 0 0 0-.25.25v11c0 .138.112.25.25.25h14a.25.25 0 0 0 .25-.25V9a.25.25 0 0 0-.25-.25z" fill="#000" mask="url(#f2m9cbpx5b)"/>
    </g>
</svg>
