<svg width="16" height="16" viewBox="0 0 16 16" xmlns="http://www.w3.org/2000/svg">
    <g fill="none" fill-rule="evenodd">
        <path d="M0 0h16v16H0z"/>
        <path d="M12.899 12.899a.346.346 0 0 0 .101-.245V8.846a.5.5 0 0 1 1 0v3.808A1.346 1.346 0 0 1 12.654 14H3.346A1.346 1.346 0 0 1 2 12.654V3.346A1.346 1.346 0 0 1 3.346 2h3.808a.5.5 0 1 1 0 1H3.346A.346.346 0 0 0 3 3.346v9.308a.346.346 0 0 0 .346.346h9.308c.092 0 .18-.036.245-.101zm.1-7.399V3.707L8.354 8.354a.5.5 0 1 1-.707-.708L12.293 3H10.5a.5.5 0 0 1 0-1h3a.5.5 0 0 1 .5.5v3a.5.5 0 0 1-1 0z" fill="#FF664D"/>
    </g>
</svg>
