<?xml version="1.0" encoding="UTF-8"?>
<svg width="24px" height="68px" viewBox="0 0 24 68" version="1.1" xmlns="http://www.w3.org/2000/svg" xmlns:xlink="http://www.w3.org/1999/xlink">
    <title>308F08DE-D799-437B-B675-B58147E6A315</title>
    <defs>
        <rect id="path-1" x="0" y="0" width="24" height="24"></rect>
        <rect id="path-3" x="0" y="0" width="24" height="24"></rect>
    </defs>
    <g id="💎-Components" stroke="none" stroke-width="1" fill="none" fill-rule="evenodd">
        <g id="Icons/Grid/Keep" transform="translate(-1144.000000, -1455.000000)">
            <g id="24dp" transform="translate(62.000000, 1263.000000)">
                <g id="Black" transform="translate(954.000000, 0.000000)">
                    <g id="Icon-/-24-/-Black" transform="translate(40.000000, 40.000000)">
                        <g id="Bottom-menu" transform="translate(0.000000, 152.000000)">
                            <g id="Icons-/-24-/-ic_community_off_on" transform="translate(88.000000, 0.000000)">
                                <g id="Icons-/-24-/-ic_community_secondary" transform="translate(0.000000, 44.000000)">
                                    <mask id="mask-2" fill="white">
                                        <use xlink:href="#path-1"></use>
                                    </mask>
                                    <g id="Icons-/-24-/-ic_community_secondary-(Background/Mask)"></g>
                                    <path d="M13.018158,10.6371484 C13.7001362,11.177403 14.5623989,11.5 15.5,11.5 C17.7091484,11.5 19.5,9.70913887 19.5,7.5 C19.5,5.29086113 17.7091484,3.5 15.5,3.5 C14.5623989,3.5 13.7001362,3.82259679 13.018158,4.3628515 C13.6371374,5.2526387 14,6.33394265 14,7.5 C14,8.66605711 13.6371374,9.74736118 13.018158,10.6371484 Z M18.5,21.5 C18.5,18.8478355 17.4464436,16.3042955 15.5710764,14.4289322 C15.0833511,13.9412069 14.5504332,13.5090647 13.9821644,13.1365824 C14.4796114,13.046299 14.9874239,13 15.5,13 C17.7543507,13 19.916357,13.8955336 21.510416,15.4895926 C23.1044769,17.0836525 24,19.2456598 24,21.5 L18.5,21.5 Z M17,21.5 L0,21.5 C0,19.2456589 0.8955338,17.0836506 2.48959303,15.4895916 C4.0836525,13.8955326 6.24566078,13 8.5,13 C10.7543411,13 12.9163485,13.8955336 14.5104074,15.4895926 C16.1044674,17.0836515 17,19.2456598 17,21.5 Z" id="Union" fill="#38B1AD" mask="url(#mask-2)"></path>
                                    <path d="M8.5,11.5 C10.709139,11.5 12.5,9.709139 12.5,7.5 C12.5,5.290861 10.709139,3.5 8.5,3.5 C6.290861,3.5 4.5,5.290861 4.5,7.5 C4.5,9.709139 6.290861,11.5 8.5,11.5 Z" id="Ellipse-1063" fill="#9BD8D6" mask="url(#mask-2)"></path>
                                </g>
                                <g id="Icons-/-24-/-ic_community_grey04">
                                    <mask id="mask-4" fill="white">
                                        <use xlink:href="#path-3"></use>
                                    </mask>
                                    <g id="Icons-/-24-/-ic_community_grey04-(Background/Mask)"></g>
                                    <path d="M8.5,11.5 C10.709139,11.5 12.5,9.709139 12.5,7.5 C12.5,5.290861 10.709139,3.5 8.5,3.5 C6.290861,3.5 4.5,5.290861 4.5,7.5 C4.5,9.709139 6.290861,11.5 8.5,11.5 Z" id="Ellipse-1063" fill="#A4A6AA" mask="url(#mask-4)"></path>
                                    <path d="M13.018158,10.6371484 C13.7001362,11.177403 14.5623989,11.5 15.5,11.5 C17.7091484,11.5 19.5,9.70913887 19.5,7.5 C19.5,5.29086113 17.7091484,3.5 15.5,3.5 C14.5623989,3.5 13.7001362,3.82259679 13.018158,4.3628515 C13.6371374,5.2526387 14,6.33394265 14,7.5 C14,8.66605711 13.6371374,9.74736118 13.018158,10.6371484 Z M18.5,21.5 C18.5,18.8478355 17.4464436,16.3042955 15.5710764,14.4289322 C15.0833511,13.9412069 14.5504332,13.5090647 13.9821644,13.1365824 C14.4796114,13.046299 14.9874239,13 15.5,13 C17.7543507,13 19.916357,13.8955336 21.510416,15.4895926 C23.1044769,17.0836525 24,19.2456598 24,21.5 L18.5,21.5 Z M17,21.5 L0,21.5 C0,19.2456589 0.8955338,17.0836506 2.48959303,15.4895916 C4.0836525,13.8955326 6.24566078,13 8.5,13 C10.7543411,13 12.9163485,13.8955336 14.5104074,15.4895926 C16.1044674,17.0836515 17,19.2456598 17,21.5 Z" id="Union" fill="#A4A6AA" mask="url(#mask-4)"></path>
                                </g>
                            </g>
                        </g>
                    </g>
                </g>
            </g>
        </g>
    </g>
</svg>