<svg width="16" height="16" viewBox="0 0 16 16" xmlns="http://www.w3.org/2000/svg" xmlns:xlink="http://www.w3.org/1999/xlink">
    <defs>
        <path id="2ubts2gpna" d="M0 0h16v16H0z"/>
    </defs>
    <g fill="none" fill-rule="evenodd">
        <mask id="9zydsnexvb" fill="#fff">
            <use xlink:href="#2ubts2gpna"/>
        </mask>
        <g mask="url(#9zydsnexvb)" fill="#FFF" fill-rule="nonzero">
            <path d="M7.547 14.164A3.5 3.5 0 0 1 3.25 8.81l.764.64a2.502 2.502 0 1 0 3.834 3.218l.764.641a3.5 3.5 0 0 1-1.065.855z"/>
            <path d="M6.625 12.39a1.5 1.5 0 0 1-1.842-2.295l.759.636a.51.51 0 1 0 .781.656l.758.636a1.5 1.5 0 0 1-.456.367zM14.972 4.59a2.5 2.5 0 0 0-4.405-1.39l.766.644a1.5 1.5 0 1 1 2.298 1.928l.766.643a2.5 2.5 0 0 0 .575-1.825z"/>
            <path d="M14.336 5.71a.5.5 0 0 1 .062.704L8.613 13.31a.5.5 0 0 1-.766-.643l5.785-6.894a.5.5 0 0 1 .704-.062zM11.272 3.139a.5.5 0 0 1 .061.704l-5.785 6.895a.5.5 0 1 1-.766-.643l5.785-6.894a.5.5 0 0 1 .705-.062zM11.518 5.956a.5.5 0 0 1 .061.705l-4.5 5.362a.5.5 0 1 1-.766-.643l4.5-5.362a.5.5 0 0 1 .705-.062zM9.74 1.853a.5.5 0 0 1 .062.705L4.017 9.452a.5.5 0 0 1-.766-.643l5.785-6.894a.5.5 0 0 1 .704-.062z"/>
        </g>
    </g>
</svg>
