<?xml version="1.0" encoding="UTF-8"?>
<svg width="24px" height="24px" viewBox="0 0 24 24" version="1.1" xmlns="http://www.w3.org/2000/svg" xmlns:xlink="http://www.w3.org/1999/xlink">
    <title>C1BBE5C4-991D-8502-43C5-F2C300EC6F38</title>
    <defs>
        <rect id="path-1" x="0" y="0" width="24" height="24"></rect>
    </defs>
    <g id="💎-Components" stroke="none" stroke-width="1" fill="none" fill-rule="evenodd">
        <g id="Icons/Grid" transform="translate(-488.000000, -1303.000000)">
            <g id="24dp" transform="translate(62.000000, 1263.000000)">
                <g id="White" transform="translate(122.000000, 0.000000)">
                    <g id="Icon-/-24-/-White" transform="translate(40.000000, 40.000000)">
                        <g id="Icons-/-24-/-ic_speed_white" transform="translate(264.000000, 0.000000)">
                            <mask id="mask-2" fill="white">
                                <use xlink:href="#path-1"></use>
                            </mask>
                            <g id="Icons-/-24-/-ic_speed_white-(Background/Mask)"></g>
                            <path d="M12,0.5 C15.0499766,0.5 17.9750328,1.71160483 20.131691,3.86827397 C22.2883482,6.02494287 23.4999428,8.95001173 23.4999428,12 C23.4999428,15.0499878 22.2883482,17.9750576 20.131691,20.1317253 C17.9750328,22.2883949 15.0499763,23.5 12,23.5 L11,23.5 L11,21.5 L12,21.5 C14.5195403,21.5 16.9358869,20.4991112 18.7174721,18.7175159 C20.4990578,16.9359207 21.4999428,14.519558 21.4999428,12 C21.4999428,9.48044109 20.4990578,7.06407905 18.7174721,5.28248405 C16.9358869,3.50088882 14.5195401,2.5 12,2.5 L11,2.5 L11,0.5 L12,0.5 Z M8.17892933,3.30742121 C7.50665545,3.59633708 6.87256718,3.96703708 6.29101276,4.41113257 L6.28359365,4.41679788 C5.69561243,4.8571732 5.16220957,5.36605072 4.69473171,5.93272448 L4.05837154,6.70411634 L2.51558757,5.43139601 L3.15194798,4.66000366 C3.71960485,3.97189367 4.36714375,3.35380054 5.08089733,2.81876373 C5.79209113,2.27615303 6.56736779,1.82313251 7.38924694,1.46992242 L8.30799675,1.07508135 L9.09767914,2.91258025 L8.17892933,3.30742121 Z M4.68071842,18.1966343 C5.15164006,18.7428505 5.6848805,19.2320642 6.26955414,19.6542892 C6.27677774,19.6595057 6.28393126,19.6648175 6.29101276,19.6702251 C6.87256718,20.1143205 7.50665569,20.4850216 8.17892933,20.7739372 L9.09767914,21.1687775 L8.30799675,23.0062771 L7.38924742,22.6114349 C6.57003498,22.259371 5.79712296,21.8081436 5.08782291,21.2678738 C4.38085759,20.7560563 3.73589033,20.16364 3.16596127,19.5025864 L2.51298523,18.7452068 L4.02774262,17.4392548 L4.68071842,18.1966343 Z M2.74934196,9.80102825 C2.41688585,11.248313 2.41688585,12.7521381 2.74934196,14.1994228 L2.97322154,15.1740398 L1.02398789,15.6217985 L0.800108433,14.6471815 C0.399963856,12.9052284 0.399963856,11.095222 0.800108433,9.35326862 L1.02398789,8.3786521 L2.97322154,8.82641125 L2.74934196,9.80102825 Z M15.7038469,12.1727562 L10.3007736,15.3245487 C10.1674423,15.4023253 10,15.3061507 10,15.1517925 L10,8.84820747 C10,8.69384931 10.1674423,8.59767467 10.3007736,8.67545128 L15.7038469,11.8272438 C15.836148,11.9044194 15.836148,12.0955806 15.7038469,12.1727562 Z" id="Vector" fill="#FFFFFF" mask="url(#mask-2)"></path>
                        </g>
                    </g>
                </g>
            </g>
        </g>
    </g>
</svg>