<?xml version="1.0" encoding="UTF-8"?>
<svg width="20px" height="20px" viewBox="0 0 20 20" version="1.1" xmlns="http://www.w3.org/2000/svg" xmlns:xlink="http://www.w3.org/1999/xlink">
    <title>1B3A2943-AFA1-4A2C-A7BF-995F023E89E0</title>
    <defs>
        <rect id="path-1" x="0" y="0" width="20" height="20"></rect>
        <path d="M10,19 C14.9705627,19 19,14.9705627 19,10 C19,5.02943725 14.9705627,1 10,1 C5.02943725,1 1,5.02943725 1,10 C1,14.9705627 5.02943725,19 10,19 Z" id="path-3"></path>
        <mask id="mask-4" maskContentUnits="userSpaceOnUse" maskUnits="objectBoundingBox" x="0" y="0" width="18" height="18" fill="white">
            <use xlink:href="#path-3"></use>
        </mask>
    </defs>
    <g id="💎-Components" stroke="none" stroke-width="1" fill="none" fill-rule="evenodd">
        <g id="Icons/Grid" transform="translate(-1530.000000, -982.000000)">
            <g id="20dp" transform="translate(62.000000, 941.000000)">
                <g id="Black" transform="translate(954.000000, 0.000000)">
                    <g id="Icon-/-20-/-Black" transform="translate(34.000000, 41.000000)">
                        <g id="Icons-/-20-/-ic_addplaylist_black" transform="translate(480.000000, 0.000000)">
                            <mask id="mask-2" fill="white">
                                <use xlink:href="#path-1"></use>
                            </mask>
                            <g id="Icons-/-20-/-ic_addplaylist_black-(Background/Mask)"></g>
                            <g id="Ellipse-1004" stroke-dasharray="0,0" mask="url(#mask-2)" stroke="#000000" stroke-width="2">
                                <use mask="url(#mask-4)" xlink:href="#path-3"></use>
                            </g>
                            <path d="M10.1732056,6.30000054 L13.2908971,11.7000005 C13.3461255,11.7956591 13.3133505,11.9179771 13.217692,11.9732056 C13.1872881,11.9907593 13.1527993,12.0000005 13.117692,12.0000005 L6.88230909,12.0000005 C6.77185214,12.0000005 6.68230909,11.9104575 6.68230909,11.8000005 C6.68230909,11.7648932 6.69155034,11.7304044 6.70910401,11.7000005 L9.82679546,6.30000054 C9.88202393,6.20434202 10.004342,6.17156699 10.1000005,6.22679546 C10.1304044,6.24434913 10.155652,6.2695967 10.1732056,6.30000054 Z" id="Polygon-4" fill="#000000" mask="url(#mask-2)" transform="translate(10.000001, 10.000000) scale(-1, -1) rotate(-90.000003) translate(-10.000001, -10.000000) "></path>
                        </g>
                    </g>
                </g>
            </g>
        </g>
    </g>
</svg>