<?xml version="1.0" encoding="UTF-8"?>
<svg width="20px" height="20px" viewBox="0 0 20 20" version="1.1" xmlns="http://www.w3.org/2000/svg" xmlns:xlink="http://www.w3.org/1999/xlink">
    <title>E3BCA1EA-6630-DDD3-FEED-8C8CC9299DD0</title>
    <g id="💎-Components" stroke="none" stroke-width="1" fill="none" fill-rule="evenodd">
        <g id="Icons/Grid" transform="translate(-1370.000000, -982.000000)">
            <g id="20dp" transform="translate(62.000000, 941.000000)">
                <g id="Black" transform="translate(954.000000, 0.000000)">
                    <g id="Icon-/-20-/-Black" transform="translate(34.000000, 41.000000)">
                        <g id="Icons-/-20-/-ic_more_grey04" transform="translate(320.000000, 0.000000)">
                            <rect id="area" x="0" y="0" width="20" height="20"></rect>
                            <path d="M9,4 C9,3.30964404 9.55964404,2.75 10.25,2.75 C10.940356,2.75 11.5,3.30964404 11.5,4 C11.5,4.69035596 10.940356,5.25 10.25,5.25 C9.55964404,5.25 9,4.69035596 9,4 Z M9,10 C9,9.30964404 9.55964404,8.75 10.25,8.75 C10.940356,8.75 11.5,9.30964404 11.5,10 C11.5,10.690356 10.940356,11.25 10.25,11.25 C9.55964404,11.25 9,10.690356 9,10 Z M9,16 C9,15.309644 9.55964464,14.75 10.2500004,14.75 C10.9403561,14.75 11.5,15.309644 11.5,16 C11.5,16.690356 10.9403561,17.25 10.2500004,17.25 C9.55964464,17.25 9,16.690356 9,16 Z" id="Vector" fill="#CBCDCF"></path>
                        </g>
                    </g>
                </g>
            </g>
        </g>
    </g>
</svg>