<?xml version="1.0" encoding="UTF-8"?>
<svg width="20px" height="20px" viewBox="0 0 20 20" version="1.1" xmlns="http://www.w3.org/2000/svg" xmlns:xlink="http://www.w3.org/1999/xlink">
    <title>FBF1EFFA-5B3F-7E6F-46CF-5DCC013124E3</title>
    <defs>
        <rect id="path-1" x="0" y="0" width="20" height="20"></rect>
    </defs>
    <g id="💎-Components" stroke="none" stroke-width="1" fill="none" fill-rule="evenodd">
        <g id="Icons/Grid" transform="translate(-1194.000000, -1205.000000)">
            <g id="20dp" transform="translate(62.000000, 941.000000)">
                <g id="Black" transform="translate(954.000000, 0.000000)">
                    <g id="Icon-/-20-/-Black" transform="translate(34.000000, 41.000000)">
                        <g id="icons-/-20-/-ic_textsize_18_black" transform="translate(144.000000, 223.000000)">
                            <mask id="mask-2" fill="white">
                                <use xlink:href="#path-1"></use>
                            </mask>
                            <g id="Property-1=20,-Property-2=ic_textsize_18_black-(Background/Mask)"></g>
                            <path d="M9.06481266,17.000061 L9.06481266,15.7840614 L6.69681263,15.7840614 L6.69681263,5.27206039 L5.57681274,5.27206039 C4.95281267,5.65606022 4.20081258,5.92806053 3.14481258,6.10406017 L3.14481258,7.04806042 L5.24081278,7.04806042 L5.24081278,15.7840614 L2.6328125,15.7840614 L2.6328125,17.000061 L9.06481266,17.000061 Z M18.0438128,14.1840611 C18.0438128,12.5840609 17.0838137,11.6880608 16.0598135,11.0960608 L16.0598135,11.0160608 C16.7638135,10.4720607 17.6278124,9.43206072 17.6278124,8.18406105 C17.6278124,6.39206028 16.4118128,5.11206055 14.4118128,5.11206055 C12.5718129,5.11206055 11.1798124,6.29606056 11.1798124,8.07206059 C11.1798124,9.30406046 11.9158127,10.2000608 12.7798128,10.7920609 L12.7798128,10.856061 C11.7078128,11.4320607 10.619813,12.5200613 10.619813,14.1040611 C10.619813,15.9120612 12.2038124,17.224062 14.3638124,17.224062 C16.5558124,17.224062 18.0438128,15.8960612 18.0438128,14.1840611 Z M12.5238123,8.07206059 C12.5238123,6.9520607 13.3078134,6.1840601 14.3798132,6.1840601 C15.6438136,6.1840601 16.3798132,7.11206055 16.3798132,8.26406097 C16.3798132,9.14406061 15.9638133,9.9440608 15.1638136,10.6480608 C13.7878134,10.1040606 12.5238123,9.48006058 12.5238123,8.07206059 Z M11.9318132,13.9600611 C11.9318132,12.8400609 12.5878124,11.9120607 13.5478125,11.3040609 C15.1958127,11.9760609 16.6358137,12.5680606 16.6358137,14.1360607 C16.6358137,15.3040607 15.7398129,16.1200619 14.395813,16.1200619 C12.9878128,16.1200619 11.9318132,15.2080612 11.9318132,13.9600611 Z" id="18" fill="#000000" mask="url(#mask-2)"></path>
                        </g>
                    </g>
                </g>
            </g>
        </g>
    </g>
</svg>