<?xml version="1.0" encoding="UTF-8"?>
<svg width="20px" height="20px" viewBox="0 0 20 20" version="1.1" xmlns="http://www.w3.org/2000/svg" xmlns:xlink="http://www.w3.org/1999/xlink">
    <title>C5443E39-77F1-42A0-A7BD-C67EC0A9D860</title>
    <defs>
        <rect id="path-1" x="0" y="0" width="20" height="20"></rect>
    </defs>
    <g id="카테고리" stroke="none" stroke-width="1" fill="none" fill-rule="evenodd">
        <g id="전체과정/카테고리-&gt;-Full-Contents" transform="translate(-193.000000, -302.000000)">
            <g id="관심채널" transform="translate(16.000000, 164.000000)">
                <g id="칩스" transform="translate(0.000000, 44.000000)">
                    <g id="3" transform="translate(0.000000, 88.000000)">
                        <g id="02.-Action-Chips-Copy" transform="translate(165.000000, 0.000000)">
                            <g id="Property-1=20,-Property-2=ic_more_black" transform="translate(12.000000, 6.000000)">
                                <mask id="mask-2" fill="white">
                                    <use xlink:href="#path-1"></use>
                                </mask>
                                <g id="Property-1=20,-Property-2=ic_more_black-(Background/Mask)"></g>
                                <path d="M4,11 C3.17157286,11 2.5,10.3284271 2.5,9.5 C2.5,8.67157286 3.17157286,8 4,8 C4.82842708,8 5.5,8.67157286 5.5,9.5 C5.5,10.3284271 4.82842708,11 4,11 Z M10,11 C9.17157286,11 8.5,10.3284271 8.5,9.5 C8.5,8.67157286 9.17157286,8 10,8 C10.8284271,8 11.5,8.67157286 11.5,9.5 C11.5,10.3284271 10.8284271,11 10,11 Z M16,11 C15.1715729,11 14.5,10.3284271 14.5,9.5 C14.5,8.67157286 15.1715729,8 16,8 C16.8284271,8 17.5,8.67157286 17.5,9.5 C17.5,10.3284271 16.8284271,11 16,11 Z" id="Vector" fill="#CBCDCF" mask="url(#mask-2)"></path>
                            </g>
                        </g>
                    </g>
                </g>
            </g>
        </g>
    </g>
</svg>