<?xml version="1.0" encoding="UTF-8"?>
<svg width="24px" height="24px" viewBox="0 0 24 24" version="1.1" xmlns="http://www.w3.org/2000/svg" xmlns:xlink="http://www.w3.org/1999/xlink">
    <title>3CA372FB-F6AB-254F-DA4B-7A3E7F1D66C5</title>
    <defs>
        <rect id="path-1" x="0" y="0" width="24" height="24"></rect>
    </defs>
    <g id="💎-Components" stroke="none" stroke-width="1" fill="none" fill-rule="evenodd">
        <g id="Icons/Grid" transform="translate(-1716.000000, -1303.000000)">
            <g id="24dp" transform="translate(62.000000, 1263.000000)">
                <g id="Black" transform="translate(954.000000, 0.000000)">
                    <g id="Icon-/-24-/-Black" transform="translate(40.000000, 40.000000)">
                        <g id="Icons-/-24-/-ic_more_black" transform="translate(660.000000, 0.000000)">
                            <mask id="mask-2" fill="white">
                                <use xlink:href="#path-1"></use>
                            </mask>
                            <g id="Icons-/-24-/-ic_more_black-(Background/Mask)"></g>
                            <path d="M9.9999993,5 C9.99999925,3.89543056 10.8954298,2.99999996 11.9999992,2.99999991 C13.1045686,2.99999986 13.9999993,3.89543039 13.9999993,4.99999983 C13.9999993,6.10456926 13.1045688,6.99999986 11.9999994,6.99999991 C10.89543,6.99999996 9.99999935,6.10456944 9.9999993,5 Z M9.99999961,12 C9.99999956,10.8954306 10.8954301,9.99999996 11.9999995,9.99999991 C13.104569,9.99999986 13.9999996,10.8954304 13.9999996,11.9999998 C13.9999997,13.1045693 13.1045691,13.9999999 11.9999997,13.9999999 C10.8954303,14 9.99999965,13.1045694 9.99999961,12 Z M12,20.9999999 C13.1045694,20.9999999 14,20.1045702 13.9999999,18.9999998 C13.9999999,17.8954304 13.1045693,16.9999999 11.9999998,16.9999999 C10.8954304,17 9.99999986,17.8954306 9.99999991,19 C9.99999996,20.1045704 10.8954306,21 12,20.9999999 Z" id="Union" fill="#000000" mask="url(#mask-2)"></path>
                        </g>
                    </g>
                </g>
            </g>
        </g>
    </g>
</svg>