<?xml version="1.0" encoding="UTF-8"?>
<svg width="12px" height="12px" viewBox="0 0 12 12" version="1.1" xmlns="http://www.w3.org/2000/svg" xmlns:xlink="http://www.w3.org/1999/xlink">
    <title>380F1ABB-4F7C-438D-92EF-D0D92670A26A</title>
    <defs>
        <rect id="path-1" x="0" y="0" width="12" height="12"></rect>
    </defs>
    <g id="💎-Components" stroke="none" stroke-width="1" fill="none" fill-rule="evenodd">
        <g id="Icons/Grid/Keep" transform="translate(-384.000000, -647.000000)">
            <g id="12dp" transform="translate(62.000000, 607.000000)">
                <g id="White" transform="translate(122.000000, 0.000000)">
                    <g id="Icon-/-12-/-White" transform="translate(40.000000, 40.000000)">
                        <g id="Icons-/-12-/-ic_pin_deeporange" transform="translate(160.000000, -0.000000)">
                            <mask id="mask-2" fill="white">
                                <use xlink:href="#path-1" transform="translate(6.000000, 6.000000) rotate(-180.000000) translate(-6.000000, -6.000000) "></use>
                            </mask>
                            <g id="-Icons-/-12-/-ic_chervron_down_grey05-(Background/Mask)" transform="translate(6.000000, 6.000000) rotate(-180.000000) translate(-6.000000, -6.000000) "></g>
                            <g id="-Icons-/-12-/-ic_pin_deeporange" mask="url(#mask-2)">
                                <g transform="translate(0.000000, 0.000000)">
                                    <rect id="area" fill="none" x="0" y="0" width="12" height="12"></rect>
                                    <path d="M6.85355341,0.146446615 L11.8535533,5.1464467 C12.0488157,5.34170866 12.0488157,5.65829134 11.8535533,5.8535533 C11.6582913,6.04881573 11.3417087,6.04881573 11.1464467,5.8535533 L6.14644662,0.853553414 C5.95118445,0.65829128 5.95118445,0.34170875 6.14644662,0.146446615 C6.34170875,-0.0488155484 6.65829128,-0.0488155484 6.85355341,0.146446615 Z" id="Vector-561-(Stroke)" fill="#FF664D" fill-rule="evenodd"></path>
                                    <path d="M1.85355341,5.14644662 L6.8535533,10.1464467 C7.04881573,10.3417087 7.04881573,10.6582913 6.8535533,10.8535533 C6.65829134,11.0488157 6.34170866,11.0488157 6.1464467,10.8535533 L1.14644662,5.85355341 C0.951184452,5.65829128 0.951184452,5.34170875 1.14644662,5.14644662 C1.34170875,4.95118445 1.65829128,4.95118445 1.85355341,5.14644662 Z" id="Vector-562-(Stroke)" fill="#FF664D" fill-rule="evenodd"></path>
                                    <path d="M1.85355346,7.93933985 L4.20710664,10.2928932 L3.50000005,11 L1.14644665,8.64644663 C0.951184516,8.45118449 0.951184516,8.13460197 1.14644668,7.93933982 C1.34170883,7.74407769 1.65829131,7.74407769 1.85355346,7.93933985 Z" id="Vector-563-(Stroke)" fill="#FF664D" fill-rule="evenodd" transform="translate(2.603553, 9.396447) scale(-1, -1) rotate(90.000003) translate(-2.603553, -9.396447) "></path>
                                    <path d="M3.24759707,2.74153536 L10.0338348,2.74153536 L10.0338348,8.24153536 L3.24759707,8.24153536 L3.24759707,2.74153536 Z" id="Rectangle-4839" fill="#FF664D" fill-rule="evenodd" transform="translate(6.640716, 5.491535) rotate(-45.000000) translate(-6.640716, -5.491535) "></path>
                                </g>
                            </g>
                        </g>
                    </g>
                </g>
            </g>
        </g>
    </g>
</svg>