<svg width="16" height="16" viewBox="0 0 16 16" xmlns="http://www.w3.org/2000/svg" xmlns:xlink="http://www.w3.org/1999/xlink">
    <defs>
        <path id="6ajsztlaoa" d="M0 0h16v16H0z"/>
    </defs>
    <g fill="none" fill-rule="evenodd">
        <mask id="5z8acjaaxb" fill="#fff">
            <use xlink:href="#6ajsztlaoa"/>
        </mask>
        <path d="M8.04 11.99a3.5 3.5 0 0 1-6.734-1.34h.998a2.502 2.502 0 1 0 5.005 0h.997c0 .46-.09.915-.266 1.34z" fill="#000" fill-rule="nonzero" mask="url(#5z8acjaaxb)" transform="rotate(40 4.806 12.4)"/>
        <path d="M6.834 11.458a1.5 1.5 0 0 1-2.886-.574h.99a.51.51 0 0 0 1.02 0h.99a1.5 1.5 0 0 1-.114.574z" fill="#000" fill-rule="nonzero" mask="url(#5z8acjaaxb)" transform="rotate(40 5.448 11.634)"/>
        <path d="M15.053 3.332A2.5 2.5 0 0 0 10.785 5.1h1a1.5 1.5 0 1 1 3 0h1a2.5 2.5 0 0 0-.732-1.768z" fill="#000" fill-rule="nonzero" mask="url(#5z8acjaaxb)" transform="rotate(40 13.285 3.85)"/>
        <path d="M11.122 4.54a.5.5 0 0 1 .5.5v9a.5.5 0 0 1-1 0v-9a.5.5 0 0 1 .5-.5z" fill="#000" fill-rule="nonzero" mask="url(#5z8acjaaxb)" transform="rotate(40 11.122 9.54)"/>
        <path d="M8.058 1.97a.5.5 0 0 1 .5.5v9a.5.5 0 0 1-1 0v-9a.5.5 0 0 1 .5-.5z" fill="#000" mask="url(#5z8acjaaxb)" transform="rotate(40 8.058 6.97)"/>
        <path d="M8.947 5.02a.5.5 0 0 1 .5.5v7a.5.5 0 1 1-1 0v-7a.5.5 0 0 1 .5-.5z" fill="#000" mask="url(#5z8acjaaxb)" transform="rotate(40 8.947 9.02)"/>
        <path d="M6.525.684a.5.5 0 0 1 .5.5v9a.5.5 0 1 1-1 0v-9a.5.5 0 0 1 .5-.5z" fill="#000" mask="url(#5z8acjaaxb)" transform="rotate(40 6.525 5.684)"/>
    </g>
</svg>
