<?xml version="1.0" encoding="UTF-8"?>
<svg width="24px" height="24px" viewBox="0 0 24 24" version="1.1" xmlns="http://www.w3.org/2000/svg" xmlns:xlink="http://www.w3.org/1999/xlink">
    <title>4166FBEE-9B77-307A-7365-CA3AC6E5364D</title>
    <g id="ðŸ’Ž-Components" stroke="none" stroke-width="1" fill="none" fill-rule="evenodd">
        <g id="Selection-Controls" transform="translate(-365.000000, -584.000000)">
            <g id="01.-Check-Box" transform="translate(40.000000, 346.000000)">
                <g id="States-01=01.-Selected,-States-02=02.-Disabled,-Size=24,-Dark-Mode=No" transform="translate(325.000000, 238.000000)">
                    <path d="M0,0 L24,0 L24,24 L0,24 L0,0 Z" id="States-01=01.-Selected,-States-02=02.-Disabled,-Size=24,-Dark-Mode=No-(Background)"></path>
                    <path d="M4.5,0.5 L19.5,0.5 C21.709139,0.5 23.5,2.290861 23.5,4.5 L23.5,19.5 C23.5,21.709139 21.709139,23.5 19.5,23.5 L4.5,23.5 C2.290861,23.5 0.5,21.709139 0.5,19.5 L0.5,4.5 C0.5,2.290861 2.290861,0.5 4.5,0.5 Z" id="ì‚¬ê°í˜•-280" fill="#E3E4E5"></path>
                    <path d="M7,12.0004902 L10.42857,16 L13.0001001,12.9998798 L17.2857103,8" id="Stroke-3" stroke="#FFFFFF" stroke-width="1.5" opacity="0.5" stroke-linecap="round" stroke-linejoin="round" stroke-dasharray="0,0" fill-rule="nonzero"></path>
                </g>
            </g>
        </g>
    </g>
</svg>