<?xml version="1.0" encoding="UTF-8"?>
<svg width="16px" height="16px" viewBox="0 0 16 16" version="1.1" xmlns="http://www.w3.org/2000/svg" xmlns:xlink="http://www.w3.org/1999/xlink">
    <title>1E4DE9ED-C705-79CC-EE52-279C639A6017</title>
    <defs>
        <rect id="path-1" x="0" y="0" width="16" height="16"></rect>
    </defs>
    <g id="💎-Components" stroke="none" stroke-width="1" fill="none" fill-rule="evenodd">
        <g id="Icons/Grid" transform="translate(-1236.000000, -769.000000)">
            <g id="16dp" transform="translate(62.000000, 729.000000)">
                <g id="Black" transform="translate(954.000000, 0.000000)">
                    <g id="Group-5836" transform="translate(40.000000, 39.999999)">
                        <g id="Icons-/-16-/-ic_chervron_right_grey05" transform="translate(180.000000, 0.000001)">
                            <mask id="mask-2" fill="white">
                                <use xlink:href="#path-1"></use>
                            </mask>
                            <g id="Icons-/-16-/-ic_chervron_right_grey05-(Background/Mask)"></g>
                            <path d="M11.8803467,2.83218729 L7.10745142,8.5 L11.8803467,14.1678238 C12.0541501,14.3742151 12.0365381,14.6902514 11.8410096,14.8737106 C11.6454812,15.0571699 11.3460787,15.038579 11.1722757,14.8321877 L6.11964812,8.83218718 C5.96011729,8.64274454 5.96011729,8.35726643 6.11964812,8.16782331 L11.1722757,2.16782343 C11.3460787,1.96143204 11.6454812,1.94284171 11.8410096,2.12630069 C12.0365381,2.30975971 12.0541501,2.6257959 11.8803467,2.83218729 Z" id="Path-15-Copy-10-(Stroke)" fill="#A4A6AA" mask="url(#mask-2)" transform="translate(9.000000, 8.500005) scale(1, -1) rotate(-180.000000) translate(-9.000000, -8.500005) "></path>
                        </g>
                    </g>
                </g>
            </g>
        </g>
    </g>
</svg>