<svg width="16" height="16" viewBox="0 0 16 16" xmlns="http://www.w3.org/2000/svg" xmlns:xlink="http://www.w3.org/1999/xlink">
    <defs>
        <path id="ponw46g3wa" d="M0 0h16v16H0z"/>
    </defs>
    <g fill="none" fill-rule="evenodd">
        <mask id="rxlmkt3o1b" fill="#fff">
            <use xlink:href="#ponw46g3wa"/>
        </mask>
        <path d="M8.5 6.5H10v1H8.5V9h-1V7.5H6v-1h1.5V5h1v1.5zM14 14a1 1 0 0 1-1 1H3.5A1.5 1.5 0 0 1 2 13.5V2a1 1 0 0 1 1-1h10a1 1 0 0 1 1 1v12zM3 2v10.085c.156-.055.325-.085.5-.085H13V2H3zm0 11.5a.5.5 0 0 1 .5-.5H13v1H3.5a.5.5 0 0 1-.5-.5z" fill="#000" mask="url(#rxlmkt3o1b)"/>
    </g>
</svg>
