<?xml version="1.0" encoding="UTF-8"?>
<svg width="20px" height="20px" viewBox="0 0 20 20" version="1.1" xmlns="http://www.w3.org/2000/svg" xmlns:xlink="http://www.w3.org/1999/xlink">
    <title>DD987472-D89F-0380-CC1C-BF0A547BAA74</title>
    <defs>
        <rect id="path-1" x="0" y="0" width="20" height="20"></rect>
    </defs>
    <g id="💎-Components" stroke="none" stroke-width="1" fill="none" fill-rule="evenodd">
        <g id="Icons/Grid" transform="translate(-344.000000, -981.000000)">
            <g id="20dp" transform="translate(62.000000, 941.000000)">
                <g id="White" transform="translate(122.000000, 0.000000)">
                    <g id="Icon-/-20-/-White" transform="translate(40.000000, 40.000000)">
                        <g id="Icons-/-20-/-ic_view_white" transform="translate(120.000000, 0.000000)">
                            <mask id="mask-2" fill="white">
                                <use xlink:href="#path-1"></use>
                            </mask>
                            <g id="Icons-/-20-/-ic_view_white-(Background/Mask)"></g>
                            <path d="M2.5,9.5 C2.5,13.365993 5.63400674,16.5 9.5,16.5 C13.365993,16.5 16.5,13.365993 16.5,9.5 C16.5,5.63400674 13.365993,2.5 9.5,2.5 C5.63400698,2.5 2.5,5.63400698 2.5,9.5 Z M9.5,1.5 C13.9182782,1.5 17.5,5.08172226 17.5,9.5 C17.5,13.9182782 13.9182782,17.5 9.5,17.5 C5.08172226,17.5 1.5,13.9182782 1.5,9.5 C1.5,5.08172226 5.08172226,1.5 9.5,1.5 Z" id="Oval-(Stroke)" fill="#FFFFFF" mask="url(#mask-2)"></path>
                            <path d="M15.3535534,14.6464466 L18.3535218,17.646415 C18.548784,17.8416772 18.548784,18.1582596 18.3535218,18.3535218 C18.1582596,18.548784 17.8416772,18.548784 17.646415,18.3535218 L14.6464466,15.3535534 C14.4511845,15.1582912 14.4511845,14.8417087 14.6464466,14.6464466 C14.8417087,14.4511845 15.1582912,14.4511845 15.3535534,14.6464466 Z" id="Path-5-(Stroke)" fill="#FFFFFF" mask="url(#mask-2)"></path>
                            <path d="M6,9 L13,9 C13.2761426,9 13.5,9.22385761 13.5,9.5 C13.5,9.77614239 13.2761426,10 13,10 L6,10 C5.72385761,10 5.5,9.77614239 5.5,9.5 C5.5,9.22385761 5.72385761,9 6,9 Z" id="Vector-502-(Stroke)" fill="#FFFFFF" mask="url(#mask-2)"></path>
                            <path d="M5.99999983,8.99999998 L12.9999998,8.99999998 C13.2761424,8.99999998 13.4999998,9.22385759 13.4999998,9.49999998 C13.4999998,9.77614237 13.2761424,9.99999998 12.9999998,9.99999998 L5.99999983,9.99999998 C5.72385744,9.99999998 5.49999983,9.77614237 5.49999983,9.49999998 C5.49999983,9.22385759 5.72385744,8.99999998 5.99999983,8.99999998 Z" id="Vector-503-(Stroke)" fill="#FFFFFF" mask="url(#mask-2)" transform="translate(9.500000, 9.500000) scale(-1, -1) rotate(-90.000003) translate(-9.500000, -9.500000) "></path>
                        </g>
                    </g>
                </g>
            </g>
        </g>
    </g>
</svg>