<?xml version="1.0" encoding="UTF-8"?>
<svg width="16px" height="17px" viewBox="0 0 16 17" version="1.1" xmlns="http://www.w3.org/2000/svg" xmlns:xlink="http://www.w3.org/1999/xlink">
    <title>9A32A478-9DE2-F912-AB2A-5D0F726EEAD1</title>
    <g id="💎-Components" stroke="none" stroke-width="1" fill="none" fill-rule="evenodd">
        <g id="Icons/Grid" transform="translate(-1056.000000, -841.000000)">
            <g id="16dp" transform="translate(62.000000, 729.000000)">
                <g id="Black" transform="translate(954.000000, 0.000000)">
                    <g id="Group-5836" transform="translate(40.000000, 39.999999)">
                        <g id="Icons-/-16-/-ic_user_grey05" transform="translate(0.000000, 72.086915)">
                            <rect id="area" x="0" y="0" width="16" height="16"></rect>
                            <path d="M11.2187114,6.47360945 L7.683178,10.0091438 C7.55423574,10.1380858 7.37238936,10.1818805 7.20751004,10.1405277 C7.12259679,10.1192861 7.04217176,10.0754657 6.97577434,10.0090685 L4.85445409,7.88774776 C4.65919192,7.69248557 4.65919192,7.37590289 4.85445409,7.1806407 C5.04971625,6.9853785 5.36629854,6.9853785 5.56156068,7.1806407 L7.32951407,8.94859409 L10.5116048,5.76650286 C10.7068673,5.57124071 11.023449,5.57124072 11.2187114,5.76650286 C11.4139734,5.96176498 11.4139734,6.27834731 11.2187114,6.47360945 Z M9.39149432,0.562551141 L9.79926066,0.957024932 C10.0209489,1.1714859 10.3291994,1.27164257 10.6346059,1.22844481 L11.1963611,1.14898789 C12.2645069,0.997905374 13.259996,1.72117126 13.446383,2.78372431 L13.5444065,3.34253979 C13.5976987,3.64634705 13.7882085,3.90856075 14.0606781,4.05312634 L14.561852,4.31903601 C15.5148035,4.82464743 15.8950468,5.99491596 15.4212833,6.96409512 L15.1721235,7.47380304 C15.0366636,7.75091267 15.0366636,8.07502651 15.1721235,8.35213661 L15.4212833,8.86184406 C15.8950468,9.83102322 15.5148025,11.0012913 14.561852,11.5069027 L14.0606781,11.7728128 C13.7882085,11.9173784 13.5976987,12.1795921 13.5444065,12.4833994 L13.446383,13.0422144 C13.259996,14.1047678 12.2645059,14.8280334 11.1963611,14.6769505 L10.634605,14.5974941 C10.3291994,14.5542965 10.0209489,14.6544523 9.79926066,14.8689137 L9.39149432,15.2633877 C8.61615138,16.0134563 7.38565784,16.0134563 6.61031489,15.2633877 L6.20254807,14.8689137 C5.98086076,14.6544533 5.67260985,14.5542965 5.36720328,14.5974941 L4.80544763,14.6769505 C3.73730259,14.8280334 2.74181347,14.1047678 2.55542665,13.0422144 L2.45740252,12.4833994 C2.40411048,12.1795921 2.21360092,11.9173784 1.94113116,11.7728128 L1.43995743,11.5069027 C0.487005878,11.0012913 0.106762606,9.83102226 0.580525774,8.86184406 L0.829685766,8.35213566 C0.96514504,8.07502651 0.96514492,7.75091267 0.829685587,7.47380257 L0.580525535,6.96409512 C0.106762487,5.99491549 0.487006056,4.82464743 1.43995755,4.31903601 L1.94113128,4.05312586 C2.21360116,3.90856075 2.40411048,3.64634681 2.45740275,3.34253931 L2.55542665,2.78372407 C2.74181347,1.72117066 3.73730354,0.997905493 4.8054481,1.14898789 L5.36720376,1.22844481 C5.67260985,1.27164257 5.98086076,1.17148578 6.20254855,0.957024813 L6.61031489,0.562550902 C7.38565831,-0.187517285 8.61615138,-0.187516749 9.39149432,0.562551141 Z M7.30561023,1.28127539 L6.89784341,1.6757493 C6.4544683,2.10467124 5.83796649,2.30498481 5.22715383,2.21858931 L4.66539817,2.13913226 C4.13132577,2.063591 3.63358121,2.42522383 3.54038792,2.95650029 L3.44236379,3.51531553 C3.33577948,4.12293005 2.9547606,4.64735794 2.40982084,4.93648911 L1.90864711,5.20239878 C1.43217127,5.45520449 1.24204962,6.04033852 1.47893112,6.52492809 L1.72809117,7.03463602 C1.99900966,7.58885527 1.99901001,8.23708344 1.72809129,8.79130268 L1.47893124,9.30101013 C1.24204974,9.78559971 1.43217127,10.3707342 1.90864699,10.6235399 L2.40982084,10.8894501 C2.95476036,11.1785812 3.33577948,11.7030087 3.44236379,12.3106232 L3.54038768,12.8694382 C3.63358121,13.4007149 4.13132577,13.7623472 4.66539769,13.6868067 L5.22715383,13.6073494 C5.83796601,13.5209541 6.45446782,13.7212677 6.89784341,14.1501894 L7.30560975,14.5446634 C7.69328122,14.9196978 8.30852752,14.9196978 8.69619899,14.5446634 L9.10396628,14.1501894 C9.54734092,13.7212677 10.1638427,13.5209541 10.7746549,13.6073494 L11.336411,13.6868067 C11.8704839,13.7623472 12.3682285,13.4007149 12.4614215,12.8694382 L12.5594459,12.3106232 C12.6660295,11.7030087 13.0470491,11.1785812 13.5919881,10.8894501 L14.0931621,10.6235399 C14.5696378,10.3707342 14.7597595,9.78560066 14.5228782,9.30101109 L14.2737175,8.79130363 C14.0027996,8.23708439 14.0027986,7.58885574 14.2737175,7.03463602 L14.5228782,6.52492809 C14.7597595,6.04033852 14.5696378,5.45520449 14.0931621,5.20239878 L13.5919891,4.93648911 C13.0470491,4.64735842 12.6660305,4.12293053 12.5594459,3.51531577 L12.4614215,2.95650053 C12.3682285,2.42522383 11.8704839,2.063591 11.336411,2.13913226 L10.7746559,2.21858931 C10.1638437,2.30498481 9.54734187,2.10467148 9.10396628,1.67574942 L8.69619994,1.28127563 C8.30852752,0.906241477 7.6932817,0.906241477 7.30561023,1.28127539 Z" id="Vector" fill="#A4A6AA"></path>
                        </g>
                    </g>
                </g>
            </g>
        </g>
    </g>
</svg>