<?xml version="1.0" encoding="UTF-8"?>
<svg width="24px" height="24px" viewBox="0 0 24 24" version="1.1" xmlns="http://www.w3.org/2000/svg" xmlns:xlink="http://www.w3.org/1999/xlink">
    <title>38DC3326-4A1A-ED18-4D67-1642606FA6C7</title>
    <defs>
        <rect id="path-1" x="0" y="0" width="24" height="24"></rect>
    </defs>
    <g id="💎-Components" stroke="none" stroke-width="1" fill="none" fill-rule="evenodd">
        <g id="Icons/Grid" transform="translate(-1584.000000, -1303.000000)">
            <g id="24dp" transform="translate(62.000000, 1263.000000)">
                <g id="Black" transform="translate(954.000000, 0.000000)">
                    <g id="Icon-/-24-/-Black" transform="translate(40.000000, 40.000000)">
                        <g id="Icons-/-24-/-ic_changename_black" transform="translate(528.000000, 0.000000)">
                            <mask id="mask-2" fill="white">
                                <use xlink:href="#path-1"></use>
                            </mask>
                            <g id="Icons-/-24-/-ic_changename_black-(Background/Mask)"></g>
                            <path d="M7,7.34301758 L16,7.34301758 C16.4142141,7.34301758 16.75,7.67880401 16.75,8.09301758 C16.75,8.50723115 16.4142141,8.84301758 16,8.84301758 L7,8.84301758 C6.58578643,8.84301758 6.25,8.50723115 6.25,8.09301758 C6.25,7.67880401 6.58578643,7.34301758 7,7.34301758 Z" id="Vector-1-(Stroke)" fill="#000000" mask="url(#mask-2)" transform="translate(11.500000, 8.093018) scale(1, -1) rotate(-180.000000) translate(-11.500000, -8.093018) "></path>
                            <path d="M17.5785404,6.32836914 L17.5785404,10.1283693 C17.5785404,10.6530399 17.1532109,11.0783691 16.6285405,11.0783691 L12.8285404,11.0783691 C12.4143268,11.0783691 12.0785404,10.7425828 12.0785404,10.3283691 C12.0785404,9.91415572 12.4143268,9.57836914 12.8285404,9.57836914 L16.0785404,9.57836914 L16.0785404,6.32836914 C16.0785404,5.91415557 16.4143269,5.57836914 16.8285404,5.57836914 C17.242754,5.57836914 17.5785404,5.91415557 17.5785404,6.32836914 Z" id="Vector-527-(Stroke)" fill="#000000" mask="url(#mask-2)" transform="translate(14.828540, 8.328369) rotate(-45.000000) translate(-14.828540, -8.328369) "></path>
                            <path d="M8.65625,14.8427734 L17.65625,14.8427734 C18.0704641,14.8427734 18.40625,15.1785599 18.40625,15.5927734 C18.40625,16.006987 18.0704641,16.3427734 17.65625,16.3427734 L8.65625,16.3427734 C8.24203643,16.3427734 7.90625,16.006987 7.90625,15.5927734 C7.90625,15.1785599 8.24203643,14.8427734 8.65625,14.8427734 Z" id="Vector-1-(Stroke)" fill="#000000" mask="url(#mask-2)"></path>
                            <path d="M12.5777096,13.828125 L12.5777096,17.6281252 C12.5777096,18.1527958 12.1523802,18.578125 11.6277098,18.578125 L7.82770965,18.578125 C7.41349608,18.578125 7.07770965,18.2423387 7.07770965,17.828125 C7.07770965,17.4139116 7.41349608,17.078125 7.82770965,17.078125 L11.0777096,17.078125 L11.0777096,13.828125 C11.0777096,13.4139114 11.4134962,13.078125 11.8277096,13.078125 C12.2419233,13.078125 12.5777096,13.4139114 12.5777096,13.828125 Z" id="Vector-527-(Stroke)" fill="#000000" mask="url(#mask-2)" transform="translate(9.827710, 15.828125) scale(1, -1) rotate(135.000000) translate(-9.827710, -15.828125) "></path>
                        </g>
                    </g>
                </g>
            </g>
        </g>
    </g>
</svg>