<?xml version="1.0" encoding="UTF-8"?>
<svg width="24px" height="24px" viewBox="0 0 24 24" version="1.1" xmlns="http://www.w3.org/2000/svg" xmlns:xlink="http://www.w3.org/1999/xlink">
    <title>35425F51-049F-4FBE-8E1E-2217288491A1</title>
    <g id="💎-Components" stroke="none" stroke-width="1" fill="none" fill-rule="evenodd">
        <g id="Icons/Grid" transform="translate(-1100.000000, -1347.000000)">
            <g id="24dp" transform="translate(62.000000, 1263.000000)">
                <g id="Black" transform="translate(954.000000, 0.000000)">
                    <g id="Icon-/-24-/-Black" transform="translate(40.000000, 40.000000)">
                        <g id="Icons-/-24-/-ic_glogal_black" transform="translate(44.000000, 44.000000)">
                            <rect id="area" x="0" y="0" width="24" height="24"></rect>
                            <g id="Group-2" transform="translate(2.250000, 2.500000)" fill="#000000">
                                <path d="M1.5,9.75 C1.5,14.3063488 5.19365072,18 9.75,18 C14.3063488,18 18,14.3063488 18,9.75 C18,5.19365072 14.3063488,1.5 9.75,1.5 C5.19365072,1.5 1.5,5.19365072 1.5,9.75 Z M9.75,0 C15.1347761,0 19.5,4.36522388 19.5,9.75 C19.5,15.1347761 15.1347761,19.5 9.75,19.5 C4.36522388,19.5 0,15.1347761 0,9.75 C0,4.36522388 4.36522388,0 9.75,0 Z" id="Vector-(Stroke)"></path>
                                <path d="M7.0703125,9.75 C7.0703125,12.168005 7.44497859,14.3234015 8.02538347,15.8469648 C8.31657732,16.6113482 8.64504242,17.1782188 8.97161341,17.5408058 C9.29834294,17.9035664 9.56232214,18 9.7488842,18 C9.93544626,18 10.199425,17.9035664 10.5261545,17.5408058 C10.8527255,17.1782188 11.1811905,16.6113482 11.4723845,15.8469648 C12.0527892,14.3234015 12.4274554,12.168005 12.4274554,9.75 C12.4274554,7.33199501 12.0527892,5.17659855 11.4723845,3.6530354 C11.1811905,2.88865185 10.8527255,2.32178092 10.5261545,1.95919526 C10.199425,1.59643352 9.93544626,1.5 9.7488842,1.5 C9.56232214,1.5 9.29834294,1.59643352 8.97161341,1.95919526 C8.64504242,2.32178092 8.31657732,2.88865185 8.02538347,3.6530354 C7.44497859,5.17659855 7.0703125,7.33199501 7.0703125,9.75 Z M9.7488842,0 C10.5090964,0 11.1470752,0.407246172 11.6407228,0.955334067 C12.1345291,1.50359797 12.5448604,2.25474656 12.8741159,3.11904263 C13.5346098,4.85283899 13.9274559,7.19744253 13.9274559,9.75 C13.9274559,12.3025579 13.5346098,14.6471624 12.8741159,16.3809586 C12.5448604,17.2452555 12.1345291,17.9964027 11.6407228,18.5446663 C11.1470752,19.0927544 10.5090964,19.5 9.7488842,19.5 C8.98867226,19.5 8.35069275,19.0927544 7.85704494,18.5446663 C7.36323869,17.9964027 6.95290762,17.2452555 6.62365198,16.3809586 C5.96315813,14.6471624 5.5703125,12.3025579 5.5703125,9.75 C5.5703125,7.19744253 5.96315813,4.85283899 6.62365198,3.11904263 C6.95290762,2.25474656 7.36323869,1.50359797 7.85704494,0.955334067 C8.35069275,0.407246172 8.98867226,0 9.7488842,0 Z" id="Vector-(Stroke)"></path>
                                <path d="M0.998046875,10.5 L0.998046875,9 L18.7494736,9 L18.7494736,10.5 L0.998046875,10.5 Z" id="Vector-(Stroke)"></path>
                            </g>
                        </g>
                    </g>
                </g>
            </g>
        </g>
    </g>
</svg>