<?xml version="1.0" encoding="UTF-8"?>
<svg width="24px" height="24px" viewBox="0 0 24 24" version="1.1" xmlns="http://www.w3.org/2000/svg" xmlns:xlink="http://www.w3.org/1999/xlink">
    <title>ECC4B170-A205-F8F1-4964-B5C3651EBACE</title>
    <g id="💎-Components" stroke="none" stroke-width="1" fill="none" fill-rule="evenodd">
        <g id="Icons/Grid" transform="translate(-1362.000000, -1391.000000)">
            <g id="24dp" transform="translate(62.000000, 1263.000000)">
                <g id="Black" transform="translate(954.000000, 0.000000)">
                    <g id="Icon-/-24-/-Black" transform="translate(40.000000, 40.000000)">
                        <g id="Icons-/-24-/-ic_image_grey05" transform="translate(306.000000, 88.000000)">
                            <rect id="area" x="0" y="0" width="24" height="24"></rect>
                            <path d="M20.4615384,20.5 C20.4786135,20.5 20.4911931,20.4970886 20.5,20.493737 L20.5,4.50626373 C20.4911931,4.50291252 20.4786135,4.5 20.4615384,4.5 L3.53846169,4.5 C3.5213871,4.5 3.50880623,4.50291252 3.5,4.50626373 L3.5,20.4937371 C3.50880623,20.4970887 3.5213871,20.5 3.53846169,20.5 L20.4615384,20.5 Z M3.53846169,22 C2.68879318,22 2,21.345647 2,20.5384616 L2,4.46153831 C2,3.6543541 2.68879318,3 3.53846169,3 L20.4615384,3 C21.3112074,3 22,3.6543541 22,4.46153831 L22,20.5384616 C22,21.345647 21.3112074,22 20.4615384,22 L3.53846169,22 Z" id="Vector-(Stroke)" fill="#A4A6AA"></path>
                            <path d="M8.19264841,12.7583094 C8.18568468,12.760549 8.18110037,12.7626563 8.17874765,12.7638769 C8.17840767,12.7640532 8.17812729,12.7642044 8.17790461,12.7643275 L3.46000969,16.427659 C3.13284299,16.6816964 2.6616842,16.6224127 2.40764715,16.2952461 C2.15361013,15.9680796 2.21289346,15.4969208 2.54006013,15.2428837 L7.2597208,11.578181 C7.40405226,11.4661111 7.56611061,11.3841468 7.73337793,11.3303491 C7.90082741,11.2764928 8.07597923,11.25 8.25002623,11.25 C8.42407322,11.25 8.59922504,11.2764928 8.76667452,11.3303491 C8.93394184,11.3841468 9.09600019,11.4661111 9.24033165,11.578181 L13.4279089,14.8297348 C13.4281311,14.8298578 13.4284115,14.8300085 13.428751,14.8301847 C13.4311037,14.8314054 13.435689,14.8335128 13.4426537,14.835753 C13.4571934,14.8404293 13.4770956,14.8440623 13.5000305,14.8440623 C13.5229673,14.8440623 13.5428715,14.8404288 13.5574093,14.835753 C13.5643749,14.8335128 13.5689592,14.8314054 13.571312,14.8301847 C13.5716505,14.830009 13.5719299,14.8298585 13.5721521,14.8297358 L15.5097294,13.325253 C15.6540632,13.2131815 15.8161221,13.1312186 15.983386,13.0774217 C16.150835,13.0235655 16.3259859,12.9970726 16.5000334,12.9970726 C16.6740808,12.9970726 16.8492327,13.0235652 17.0166826,13.0774217 C17.1839476,13.1312186 17.3460064,13.2131815 17.4903402,13.325253 L21.4600105,16.4076123 C21.7871761,16.6616497 21.8464584,17.1328087 21.5924225,17.4599752 C21.3383846,17.7871418 20.8672256,17.8464246 20.5400581,17.5923872 L16.5721569,14.5113997 C16.5719347,14.5112767 16.5716543,14.511126 16.5713148,14.5109501 C16.5689621,14.5097296 16.5643778,14.507622 16.5574121,14.5053821 C16.5428743,14.500706 16.5229702,14.4970727 16.5000334,14.4970727 C16.4770985,14.4970727 16.4571962,14.5007057 16.4426565,14.5053821 C16.4356918,14.507622 16.4311066,14.5097296 16.4287539,14.5109501 C16.4284143,14.511126 16.4281349,14.5112767 16.4279127,14.5113997 L14.4903374,16.0158815 C14.3460035,16.1279535 14.1839447,16.2099166 14.0166798,16.2637134 C13.8492298,16.3175697 13.674078,16.3440623 13.5000305,16.3440623 C13.325983,16.3440623 13.1508322,16.3175693 12.9833832,16.2637134 C12.8161192,16.2099166 12.6540604,16.1279535 12.5097265,16.015882 L8.32214642,12.7643267 C8.32192373,12.7642037 8.32164383,12.7640529 8.3213048,12.7638769 C8.31895208,12.7626563 8.31436777,12.760549 8.30740404,12.7583094 C8.29286528,12.7536333 8.27296209,12.75 8.25002623,12.75 C8.22709036,12.75 8.20718718,12.7536333 8.19264841,12.7583094 Z M8.17967081,12.7629564 C8.17962646,12.7629907 8.1795826,12.7630244 8.17953968,12.7630577 M8.17967081,12.7629564 L8.17953968,12.7630577" id="Vector-(Stroke)" fill="#A4A6AA"></path>
                            <path d="M16,9.5 C16,8.67157286 15.3284271,8 14.5,8 C13.6715729,8 13,8.67157286 13,9.5 C13,10.3284271 13.6715729,11 14.5,11 C15.3284271,11 16,10.3284271 16,9.5 Z" id="Vector" fill="#A4A6AA" fill-rule="nonzero"></path>
                        </g>
                    </g>
                </g>
            </g>
        </g>
    </g>
</svg>