<svg width="16" height="16" viewBox="0 0 16 16" xmlns="http://www.w3.org/2000/svg" xmlns:xlink="http://www.w3.org/1999/xlink">
    <defs>
        <path id="m8l70japwa" d="M0 0h16v16H0z"/>
    </defs>
    <g fill="none" fill-rule="evenodd">
        <mask id="hs85bzbhnb" fill="#fff">
            <use xlink:href="#m8l70japwa"/>
        </mask>
        <path d="M6 .5h4a1 1 0 0 1 1 1v4a1 1 0 0 1-1 1H6a1 1 0 0 1-1-1v-4a1 1 0 0 1 1-1zm4 1v4H6v-4h4zM.5 10v4a1 1 0 0 0 1 1h4a1 1 0 0 0 1-1v-4a1 1 0 0 0-1-1h-4a1 1 0 0 0-1 1zm1 0v4h4v-4h-4zm8 0v4a1 1 0 0 0 1 1h4a1 1 0 0 0 1-1v-4a1 1 0 0 0-1-1h-4a1 1 0 0 0-1 1zm1 0v4h4v-4h-4z" fill="#FFF" mask="url(#hs85bzbhnb)"/>
    </g>
</svg>
