<svg width="60" height="60" viewBox="0 0 60 60" xmlns="http://www.w3.org/2000/svg" xmlns:xlink="http://www.w3.org/1999/xlink">
    <defs>
        <path id="k2ba4id4na" d="M0 0h60v60H0z"/>
    </defs>
    <g fill="none" fill-rule="evenodd">
        <mask id="0u736bozsb" fill="#fff">
            <use xlink:href="#k2ba4id4na"/>
        </mask>
        <path d="M4 3v54a3 3 0 0 0 3 3h46a3 3 0 0 0 3-3V3a3 3 0 0 0-3-3H7a3 3 0 0 0-3 3zm3-1a1 1 0 0 0-1 1v54a1 1 0 0 0 1 1h46a1 1 0 0 0 1-1V3a1 1 0 0 0-1-1H40v4a2 2 0 0 1-2 2H22a2 2 0 0 1-2-2V2H7zm15 0v4h16V2H22z" fill="#CBCDCF" mask="url(#0u736bozsb)"/>
        <g mask="url(#0u736bozsb)" fill="#FF3C3C">
            <path d="m29.623 33.577-.425-.724c-.267-.445-.54-.928-.81-1.405v-.001c-.146-.26-.292-.517-.435-.766l-.038.01.003.19c.013.768.027 1.571.014 2.31l-.005.84 1.696-.454zM9.13 32.381l3.106 11.59a1 1 0 0 0 1.225.708l36.705-9.835a1 1 0 0 0 .707-1.225l-3.106-11.591a1 1 0 0 0-1.225-.707L9.837 31.156a1 1 0 0 0-.707 1.225zm13.074 6.331-1.915-7.147 4.405-1.18.318 1.187-2.975.798.502 1.873 2.54-.68.319 1.188-2.54.68.776 2.898-1.43.383zm4.252-1.139.374-7.761 1.68-.45 4.205 6.534-1.497.401-.997-1.7-2.303.617-.013 1.971-1.449.388zm8.535-2.287-1.915-7.148-1.43.383 1.916 7.148 1.43-.383zm1.759-.471-1.915-7.148 1.43-.383 1.594 5.95 2.907-.779.32 1.198-4.336 1.162z"/>
        </g>
    </g>
</svg>
