<?xml version="1.0" encoding="UTF-8"?>
<svg width="24px" height="24px" viewBox="0 0 24 24" version="1.1" xmlns="http://www.w3.org/2000/svg" xmlns:xlink="http://www.w3.org/1999/xlink">
    <title>B4AE43F7-9F7D-9973-A193-6B8C4BFF9784</title>
    <defs>
        <rect id="path-1" x="0" y="0" width="24" height="24"></rect>
    </defs>
    <g id="💎-Components" stroke="none" stroke-width="1" fill="none" fill-rule="evenodd">
        <g id="Icons/Grid" transform="translate(-1408.000000, -1303.000000)">
            <g id="24dp" transform="translate(62.000000, 1263.000000)">
                <g id="Black" transform="translate(954.000000, 0.000000)">
                    <g id="Icon-/-24-/-Black" transform="translate(40.000000, 40.000000)">
                        <g id="Icons-/-24-/-ic_playlist_black" transform="translate(352.000000, 0.000000)">
                            <mask id="mask-2" fill="white">
                                <use xlink:href="#path-1"></use>
                            </mask>
                            <g id="Icons-/-24-/-ic_playlist_black-(Background/Mask)"></g>
                            <path d="M13.1460193,12.4000031 L15.9173003,17.2000028 C16.0712604,17.4666699 15.8788102,17.8000032 15.57089,17.8000032 L10.0283272,17.8000032 C9.72040705,17.8000032 9.52795756,17.4666699 9.68191763,17.2000028 L12.4531992,12.4000025 C12.6071593,12.1333358 12.9920592,12.1333364 13.1460193,12.4000031 Z" id="Polygon-4" fill="#000000" fill-rule="nonzero" mask="url(#mask-2)" transform="translate(12.799609, 15.000003) scale(-1, -1) rotate(-90.000003) translate(-12.799609, -15.000003) "></path>
                            <path d="M3,8.5 C2.72385764,8.5 2.5,8.72385776 2.5,9 L2.5,21 C2.5,21.2761431 2.72385764,21.5 3,21.5 L21,21.5 C21.2761421,21.5 21.5,21.2761421 21.5,21 L21.5,9 C21.5,8.72385705 21.2761421,8.5 21,8.5 L3,8.5 Z M1,9 L1,21 C1,22.1045694 1.89542997,23 3,23 L21,23 C22.1045685,23 23,22.1045694 23,21 L23,9 C23,7.89543056 22.1045704,7 21,7 L3,7 C1.89543056,7 1,7.89543056 1,9 Z" id="Rectangle-4828-(Stroke)" fill="#000000" mask="url(#mask-2)"></path>
                            <path d="M2,4.75 C2,5.16421354 2.33578694,5.5 2.75000048,5.5 L21.25,5.5 C21.6642132,5.5 22,5.16421354 22,4.75 C22,4.33578646 21.6642132,4 21.25,4 L2.75000006,4 C2.33578649,4 2,4.33578646 2,4.75 Z" id="Rectangle-4829-(Stroke)" fill="#000000" mask="url(#mask-2)"></path>
                            <path d="M3,1.75 C3,2.16421354 3.33578682,2.5 3.75000036,2.5 L20.25,2.5 C20.6642132,2.5 21,2.16421354 21,1.75 C21,1.33578646 20.6642132,1 20.25,1 L3.75,1 C3.33578646,1 3,1.33578646 3,1.75 Z" id="Rectangle-4830-(Stroke)" fill="#000000" mask="url(#mask-2)"></path>
                        </g>
                    </g>
                </g>
            </g>
        </g>
    </g>
</svg>