<?xml version="1.0" encoding="UTF-8"?>
<svg width="24px" height="24px" viewBox="0 0 24 24" version="1.1" xmlns="http://www.w3.org/2000/svg" xmlns:xlink="http://www.w3.org/1999/xlink">
    <title>E5703BA9-26D9-86DD-66BD-4D841D09C4B9</title>
    <defs>
        <rect id="path-1" x="0" y="0" width="24" height="24"></rect>
    </defs>
    <g id="💎-Components" stroke="none" stroke-width="1" fill="none" fill-rule="evenodd">
        <g id="Icons/Grid" transform="translate(-1232.000000, -1347.000000)">
            <g id="24dp" transform="translate(62.000000, 1263.000000)">
                <g id="Black" transform="translate(954.000000, 0.000000)">
                    <g id="Icon-/-24-/-Black" transform="translate(40.000000, 40.000000)">
                        <g id="Icons-/-24-/-ic_chervron_down_black" transform="translate(176.000000, 44.000000)">
                            <mask id="mask-2" fill="white">
                                <use xlink:href="#path-1"></use>
                            </mask>
                            <g id="Icons-/-24-/-ic_chervron_down_black-(Background/Mask)"></g>
                            <path d="M16.7473931,5.66435885 L9.33793926,13.9999948 L16.7473931,22.3356318 C17.1143117,22.7484145 17.0771308,23.380487 16.6643481,23.7474055 C16.2515655,24.1143222 15.6194935,24.0771422 15.2525754,23.6643596 L7.25257495,14.6643586 C6.91578737,14.2854724 6.91578737,13.7145171 7.25257495,13.3356309 L15.2525754,4.33563113 C15.6194935,3.92284834 16.2515655,3.88566768 16.6643481,4.25258565 C17.0771308,4.61950368 17.1143117,5.25157607 16.7473931,5.66435885 Z" id="Path-15-Copy-10-(Stroke)" fill="#000000" mask="url(#mask-2)" transform="translate(11.999990, 13.999995) scale(-1, 1) rotate(-90.000000) translate(-11.999990, -13.999995) "></path>
                        </g>
                    </g>
                </g>
            </g>
        </g>
    </g>
</svg>