<?xml version="1.0" encoding="UTF-8"?>
<svg width="24px" height="24px" viewBox="0 0 24 24" version="1.1" xmlns="http://www.w3.org/2000/svg" xmlns:xlink="http://www.w3.org/1999/xlink">
    <title>14A00DB3-94B0-7C6A-B5C1-02B9DD14B76A</title>
    <defs>
        <rect id="path-1" x="0" y="0" width="24" height="24"></rect>
        <path d="M11.0000002,19.9999998 C6.0294384,19.9999998 2.0000002,15.9705638 2.0000002,10.9999998 C2.0000002,6.02943801 6.0294384,1.9999998 11.0000002,1.9999998 C15.9705642,1.9999998 20.0000002,6.02943801 20.0000002,10.9999998 C20.0000002,15.9705638 15.9705642,19.9999998 11.0000002,19.9999998 Z" id="path-3"></path>
        <mask id="mask-4" maskContentUnits="userSpaceOnUse" maskUnits="objectBoundingBox" x="0" y="0" width="18" height="18" fill="white">
            <use xlink:href="#path-3"></use>
        </mask>
    </defs>
    <g id="💎-Components" stroke="none" stroke-width="1" fill="none" fill-rule="evenodd">
        <g id="Icons/Grid" transform="translate(-708.000000, -1303.000000)">
            <g id="24dp" transform="translate(62.000000, 1263.000000)">
                <g id="White" transform="translate(122.000000, 0.000000)">
                    <g id="Icon-/-24-/-White" transform="translate(40.000000, 40.000000)">
                        <g id="Icons-/-24-/-ic_search_white" transform="translate(484.000000, 0.000000)">
                            <mask id="mask-2" fill="white">
                                <use xlink:href="#path-1"></use>
                            </mask>
                            <g id="Icons-/-24-/-ic_search_white-(Background/Mask)"></g>
                            <g id="Oval" stroke-dasharray="0,0" mask="url(#mask-2)" transform="translate(11.000000, 11.000000) rotate(-0.000001) translate(-11.000000, -11.000000) " stroke="#FFFFFF" stroke-width="4">
                                <use mask="url(#mask-4)" xlink:href="#path-3"></use>
                            </g>
                            <path d="M17.7051538,16.2904518 L21.705154,20.2904519 C22.0956779,20.6809761 22.0956779,21.3141412 21.705154,21.7046656 C21.3146296,22.0951895 20.6814645,22.0951895 20.2909404,21.7046656 L16.2909402,17.7046654 C15.9004158,17.3141411 15.9004158,16.680976 16.2909402,16.2904518 C16.6814644,15.8999274 17.3146295,15.8999274 17.7051538,16.2904518 Z" id="Path-5-(Stroke)" fill="#FFFFFF" mask="url(#mask-2)" transform="translate(18.998047, 18.997559) rotate(-0.000001) translate(-18.998047, -18.997559) "></path>
                        </g>
                    </g>
                </g>
            </g>
        </g>
    </g>
</svg>