<svg width="16" height="16" viewBox="0 0 16 16" xmlns="http://www.w3.org/2000/svg" xmlns:xlink="http://www.w3.org/1999/xlink">
    <defs>
        <path id="fiqtpjjhza" d="M0 0h16v16H0z"/>
    </defs>
    <g fill="none" fill-rule="evenodd">
        <mask id="27975agh2b" fill="#fff">
            <use xlink:href="#fiqtpjjhza"/>
        </mask>
        <path d="M2.5 7.125v4.25c0 .217.17.375.357.375H4.43a1.5 1.5 0 0 1 1.5 1.5V15a.5.5 0 0 1-1 0v-1.75a.5.5 0 0 0-.5-.5H2.857c-.76 0-1.357-.625-1.357-1.375v-4.25C1.5 3.475 4.4.5 8 .5s6.5 2.976 6.5 6.625a6.649 6.649 0 0 1-3.116 5.657c-.204.128-.313.323-.313.505V15a.5.5 0 0 1-1 0v-1.713c0-.584.338-1.075.784-1.353A5.649 5.649 0 0 0 13.5 7.125C13.5 4.009 11.028 1.5 8 1.5S2.5 4.009 2.5 7.125z" fill="#FFF" mask="url(#27975agh2b)" transform="matrix(-1 0 0 1 16 0)"/>
    </g>
</svg>
