<?xml version="1.0" encoding="UTF-8"?>
<svg width="20px" height="20px" viewBox="0 0 20 20" version="1.1" xmlns="http://www.w3.org/2000/svg" xmlns:xlink="http://www.w3.org/1999/xlink">
    <title>3DCC1E6D-8361-56A5-29E7-C863066DEC26</title>
    <defs>
        <rect id="path-1" x="0" y="0" width="20" height="20"></rect>
    </defs>
    <g id="💎-Components" stroke="none" stroke-width="1" fill="none" fill-rule="evenodd">
        <g id="Icons/Grid" transform="translate(-1230.000000, -1205.000000)">
            <g id="20dp" transform="translate(62.000000, 941.000000)">
                <g id="Black" transform="translate(954.000000, 0.000000)">
                    <g id="Icon-/-20-/-Black" transform="translate(34.000000, 41.000000)">
                        <g id="icons-/-20-/-ic_textsize_20_black" transform="translate(180.000000, 223.000000)">
                            <mask id="mask-2" fill="white">
                                <use xlink:href="#path-1"></use>
                            </mask>
                            <g id="Property-1=20,-Property-2=ic_textsize_20_black-(Background/Mask)"></g>
                            <path d="M9.28960943,16.9999657 L9.28960943,15.7519655 L6.04160976,15.7519655 C5.44960928,15.7519655 4.74560928,15.799966 4.12160921,15.863966 C6.8896091,13.2559657 8.72960901,10.8719654 8.72960901,8.51996517 C8.72960901,6.42396545 7.41760969,5.06396484 5.3216095,5.06396484 C3.83360934,5.06396484 2.80960947,5.75196552 1.84960938,6.79196548 L2.69760942,7.60796547 C3.35360932,6.83996487 4.18560934,6.24796486 5.14560938,6.24796486 C6.60160971,6.24796486 7.28960943,7.23996544 7.28960943,8.5839653 C7.28960943,10.5839653 5.6096096,12.935966 1.9296093,16.1519661 L1.9296093,16.9999657 L9.28960943,16.9999657 Z M17.980608,11.0959654 C17.980608,7.03196526 16.5566096,5.06396484 14.3486099,5.06396484 C12.1086097,5.06396484 10.6846104,7.03196526 10.6846104,11.0959654 C10.6846104,15.1919656 12.1086097,17.2239666 14.3486099,17.2239666 C16.5566096,17.2239666 17.980608,15.1919656 17.980608,11.0959654 Z M12.0926094,11.0959654 C12.0926094,7.68796539 13.0046096,6.23196507 14.3486099,6.23196507 C15.67661,6.23196507 16.5726089,7.68796539 16.5726089,11.0959654 C16.5726089,14.5519655 15.67661,16.0399666 14.3486099,16.0399666 C13.0046096,16.0399666 12.0926094,14.5519655 12.0926094,11.0959654 Z" id="20" fill="#000000" mask="url(#mask-2)"></path>
                        </g>
                    </g>
                </g>
            </g>
        </g>
    </g>
</svg>