<?xml version="1.0" encoding="UTF-8"?>
<svg width="24px" height="68px" viewBox="0 0 24 68" version="1.1" xmlns="http://www.w3.org/2000/svg" xmlns:xlink="http://www.w3.org/1999/xlink">
    <title>9658EACA-83A6-D51A-0243-2EEA87EF28CD</title>
    <defs>
        <rect id="path-1" x="0" y="0" width="24" height="24"></rect>
        <rect id="path-3" x="0" y="0" width="24" height="24"></rect>
    </defs>
    <g id="💎-Components" stroke="none" stroke-width="1" fill="none" fill-rule="evenodd">
        <g id="Icons/Grid" transform="translate(-1360.000000, -1456.000000)">
            <g id="24dp" transform="translate(62.000000, 1263.000000)">
                <g id="Black" transform="translate(954.000000, 0.000000)">
                    <g id="Icon-/-24-/-Black" transform="translate(40.000000, 40.000000)">
                        <g id="Group-5838" transform="translate(196.000000, 153.000000)">
                            <g id="icons-/-24-/-ic_thumup_off_on" transform="translate(108.000000, 0.000000)">
                                <g id="Property-1=24,-Property-2=ic_thumb_up_on" transform="translate(0.000000, 44.000000)">
                                    <mask id="mask-2" fill="white">
                                        <use xlink:href="#path-1" transform="translate(12.000000, 12.000000) scale(1, -1) translate(-12.000000, -12.000000) "></use>
                                    </mask>
                                    <g id="Property-1=24,-Property-2=ic_thumb_up_on-(Background/Mask)" transform="translate(12.000000, 12.000000) scale(1, -1) translate(-12.000000, -12.000000) "></g>
                                    <path d="M3.5,11.000062 L4.79999995,11.000062 C5.35228467,11.000062 5.79999995,11.4477772 5.79999995,12.000062 L5.79999995,20.000061 C5.79999995,20.5523462 5.35228467,21.000061 4.79999995,21.000061 L3.5,21.000061 C2.94771522,21.000061 2.5,20.5523462 2.5,20.000061 L2.5,12.000062 C2.5,11.4477772 2.94771522,11.000062 3.5,11.000062 Z M9.06475878,3.8998723 L6.81658745,11.815032 C6.7724086,11.9705725 6.75,12.131485 6.75,12.2931767 L6.75,19.0000687 C6.75,19.9665699 7.5335024,20.7500687 8.5,20.7500687 L18.3165741,20.7500687 C19.1996241,20.7500687 19.9443216,20.0921783 20.053215,19.2158718 L21.1046867,10.7543354 C21.2344294,9.71025372 20.4201584,8.78852987 19.3680439,8.78852987 L14.6333485,8.78852987 C14.5554957,8.78852987 14.4752474,8.75388384 14.4080791,8.67242765 C14.3383985,8.58792543 14.3023534,8.47378683 14.3153477,8.36176729 C14.413249,7.51779985 14.4686604,6.25509691 14.0316715,5.30268526 C13.7692599,4.73076296 13.3203564,4.24485826 12.8732967,3.85865068 C12.4187646,3.46598673 11.9188881,3.13629773 11.4973783,2.887301 C10.5032184,2.30002645 9.34916949,2.89854479 9.06475878,3.8998723 Z" id="Vector" fill="#FF664D" mask="url(#mask-2)"></path>
                                </g>
                                <g id="Property-1=24,-Property-2=ic_thumb_up_off">
                                    <mask id="mask-4" fill="white">
                                        <use xlink:href="#path-3" transform="translate(12.000000, 12.000000) scale(1, -1) translate(-12.000000, -12.000000) "></use>
                                    </mask>
                                    <g id="Property-1=24,-Property-2=ic_thumb_up_off-(Background/Mask)" transform="translate(12.000000, 12.000000) scale(1, -1) translate(-12.000000, -12.000000) "></g>
                                    <path d="M4,10.7792969 L6.23529363,10.7792969 C7.20179129,10.7792969 7.98529434,11.5627978 7.98529434,12.5292969 L7.98529434,18.9998846 C7.98529434,19.966382 7.20179319,20.7498856 6.23529434,20.7498856 L4.00000083,20.7498856 C3.03350323,20.7498856 2.25,19.9663849 2.25,18.9998856 L2.25,12.5292977 C2.25,11.5628001 3.03350097,10.7792969 4,10.7792969 Z M3.75,12.5292977 L3.75,18.9998856 C3.75,19.1379561 3.86192888,19.2498856 4.00000083,19.2498856 L6.23529434,19.2498856 C6.37336469,19.2498856 6.48529434,19.1379566 6.48529434,18.9998846 L6.48529434,12.5292969 C6.48529434,12.3912265 6.3733654,12.2792969 6.23529363,12.2792969 L4,12.2792969 C3.8619296,12.2792969 3.75,12.3912258 3.75,12.5292977 Z" id="Rectangle-4300-(Stroke)" fill="#CBCDCF" mask="url(#mask-4)"></path>
                                    <path d="M11.3829551,1.88248019 C11.8311572,2.14389987 12.3702483,2.49443603 12.8615308,2.9138056 C13.3447599,3.3263008 13.8299837,3.84580731 14.1101646,4.45645833 C14.3534427,4.98668003 14.4457822,5.59370613 14.4710803,6.15028286 C14.496747,6.7149663 14.4552913,7.27889347 14.3972507,7.752038 C14.3837519,7.862082 14.418714,7.97426701 14.4873943,8.05770636 C14.5536871,8.13824558 14.6336527,8.17307186 14.7118406,8.17307186 L19.8671246,8.17307186 C20.919239,8.17307186 21.73351,9.0947938 21.6037674,10.138876 L20.4758263,19.2157974 C20.3669319,20.0921059 19.6222324,20.7499943 18.7391834,20.7499943 L8.234375,20.7499943 C7.26787657,20.7499943 6.484375,19.9664936 6.484375,18.9999943 L6.484375,11.8315649 C6.484375,11.6698723 6.5067839,11.5089598 6.55096269,11.3534193 L8.952075,2.89979911 C9.23704815,1.89649081 10.3901498,1.30341338 11.3829551,1.88248019 Z M10.3949997,3.30963826 L7.99388742,11.7632589 C7.98757625,11.7854786 7.984375,11.808466 7.984375,11.8315649 L7.984375,18.9999943 C7.984375,19.1380653 8.096304,19.2499943 8.234375,19.2499943 L18.7391834,19.2499943 C18.8653336,19.2499943 18.9717188,19.1560116 18.9872751,19.0308247 L20.1152163,9.95390129 C20.1337509,9.80474567 20.0174255,9.67307186 19.8671246,9.67307186 L14.7118406,9.67307186 C13.5570359,9.67307186 12.7809181,8.60872078 12.908411,7.56940222 C12.9602075,7.1471591 12.9932537,6.6721859 12.9726272,6.21839237 C12.9516325,5.75649214 12.876884,5.36546421 12.7468204,5.08199239 C12.5966802,4.75476336 12.2957702,4.40304351 11.887661,4.05467272 C11.4876056,3.71317625 11.030154,3.4132067 10.6272163,3.17818809 C10.5837672,3.15284586 10.5463762,3.15298581 10.5077019,3.1700536 C10.4641583,3.18927014 10.4165945,3.23360896 10.3949997,3.30963826 Z" id="Vector-3-(Stroke)" fill="#CBCDCF" mask="url(#mask-4)"></path>
                                </g>
                            </g>
                        </g>
                    </g>
                </g>
            </g>
        </g>
    </g>
</svg>