<svg width="60" height="60" viewBox="0 0 60 60" xmlns="http://www.w3.org/2000/svg" xmlns:xlink="http://www.w3.org/1999/xlink">
    <defs>
        <filter x="-10.4%" y="-8.3%" width="120.8%" height="120.8%" filterUnits="objectBoundingBox" id="7ulwum1k9a">
            <feOffset dy="1" in="SourceAlpha" result="shadowOffsetOuter1"/>
            <feGaussianBlur stdDeviation="1.5" in="shadowOffsetOuter1" result="shadowBlurOuter1"/>
            <feColorMatrix values="0 0 0 0 0 0 0 0 0 0 0 0 0 0 0 0 0 0 0.0599999987 0" in="shadowBlurOuter1" result="shadowMatrixOuter1"/>
            <feOffset dy="2" in="SourceAlpha" result="shadowOffsetOuter2"/>
            <feGaussianBlur stdDeviation=".5" in="shadowOffsetOuter2" result="shadowBlurOuter2"/>
            <feColorMatrix values="0 0 0 0 0 0 0 0 0 0 0 0 0 0 0 0 0 0 0.0399999991 0" in="shadowBlurOuter2" result="shadowMatrixOuter2"/>
            <feOffset dy="1" in="SourceAlpha" result="shadowOffsetOuter3"/>
            <feGaussianBlur stdDeviation=".5" in="shadowOffsetOuter3" result="shadowBlurOuter3"/>
            <feColorMatrix values="0 0 0 0 0 0 0 0 0 0 0 0 0 0 0 0 0 0 0.0199999996 0" in="shadowBlurOuter3" result="shadowMatrixOuter3"/>
            <feMerge>
                <feMergeNode in="shadowMatrixOuter1"/>
                <feMergeNode in="shadowMatrixOuter2"/>
                <feMergeNode in="shadowMatrixOuter3"/>
            </feMerge>
        </filter>
        <circle id="s7abnshu1b" cx="30" cy="30" r="24"/>
    </defs>
    <g fill="none" fill-rule="evenodd">
        <path d="M0 0h60v60H0z"/>
        <g>
            <use fill="#000" filter="url(#7ulwum1k9a)" xlink:href="#s7abnshu1b"/>
            <use fill="#38B1AD" xlink:href="#s7abnshu1b"/>
        </g>
        <g fill="#FFF">
            <path d="M31.018 20.018a.768.768 0 0 0-.743 0 .73.73 0 0 0-.273.261l-1.982 3.292-1.983-3.293a.728.728 0 0 0-.272-.261.767.767 0 0 0-.743 0 .728.728 0 0 0-.272.261l-1.65 2.74a.689.689 0 0 0 0 .714c.065.109.159.199.272.261a.767.767 0 0 0 .372.095h8.551c.13 0 .259-.032.372-.095a.728.728 0 0 0 .273-.26.69.69 0 0 0 0-.714l-1.65-2.74a.73.73 0 0 0-.272-.26zm2.939-.096a.768.768 0 0 0-.372.096.73.73 0 0 0-.272.26.691.691 0 0 0 0 .713l1.864 3.097a.486.486 0 0 0 .181.175.512.512 0 0 0 .679-.175l1.864-3.097a.692.692 0 0 0 0-.712.73.73 0 0 0-.273-.261.768.768 0 0 0-.371-.096h-3.3zm1.124 5.013a.916.916 0 0 0-.349.407.873.873 0 0 0-.054.524.896.896 0 0 0 .258.465c.133.127.301.214.484.249a.983.983 0 0 0 .547-.052.938.938 0 0 0 .425-.334.88.88 0 0 0-.117-1.145.975.975 0 0 0-1.194-.114zm.244 1.16a.492.492 0 0 1-.187-.218.468.468 0 0 1 .11-.531.528.528 0 0 1 .553-.106c.093.037.172.1.228.18a.473.473 0 0 1-.064.614.523.523 0 0 1-.64.06zM31.714 30.614l.128.008c.212.027.41.12.563.266a.919.919 0 0 1 .286.664v4.57c0 .606-.25 1.188-.698 1.617a2.438 2.438 0 0 1-1.687.67H27.46c-.633 0-1.24-.24-1.687-.67a2.242 2.242 0 0 1-.7-1.617v-4.57a.922.922 0 0 1 .298-.644c.183-.17.427-.264.68-.264.255 0 .499.095.681.264.183.17.29.4.298.644v4.46a.883.883 0 0 0 .28.648.99.99 0 0 0 .675.268h1.796a.99.99 0 0 0 .675-.268.883.883 0 0 0 .28-.647v-4.461a.904.904 0 0 1 .286-.664 1.013 1.013 0 0 1 .692-.274zm11.538 0 .126.007a1.011 1.011 0 0 1 .566.266.905.905 0 0 1 .288.664v5.92a.922.922 0 0 1-.299.644c-.182.169-.426.264-.68.264-.254 0-.498-.095-.68-.264a.922.922 0 0 1-.299-.644v-5.92a.905.905 0 0 1 .287-.663 1.014 1.014 0 0 1 .692-.274h-.001zm-20.314-.972c.211 0 .414.08.563.224.15.143.233.338.233.54a.748.748 0 0 1-.233.54.814.814 0 0 1-.563.224h-4.176c-.55 0-.903.36-.903.803 0 .444.352.803.903.803h3.036c1.431-.003 2.481 1.04 2.485 2.324.003 1.284-1.035 2.329-2.462 2.338h-4.785a.813.813 0 0 1-.544-.233.749.749 0 0 1-.224-.531c0-.198.08-.388.224-.53a.813.813 0 0 1 .544-.234h4.406c.55-.001.906-.36.905-.804-.001-.444-.355-.803-.905-.803H18.48c-1.43 0-2.48-1.042-2.48-2.33s1.052-2.327 2.478-2.33zm15.967-1.48.187.006c.25.019.494.075.726.167.289.115.552.283.774.496.221.212.397.465.517.742.12.278.181.575.18.876v4.57a.919.919 0 0 1-.286.663 1 1 0 0 1-.691.275 1 1 0 0 1-.692-.275.919.919 0 0 1-.286-.663V30.56a.882.882 0 0 0-.28-.647.989.989 0 0 0-.675-.267h-1.796a.976.976 0 0 0-.675.265.897.897 0 0 0-.283.646v4.462a.919.919 0 0 1-.285.661 1 1 0 0 1-.69.276l-.128-.008a.994.994 0 0 1-.562-.267.919.919 0 0 1-.287-.662v-4.57c0-.607.251-1.189.698-1.618a2.438 2.438 0 0 1 1.687-.67h2.847zm5.013-1.49c.32.127.594.343.786.62.193.275.296.6.296.933 0 .445-.186.872-.514 1.187a1.786 1.786 0 0 1-1.065.484l-.173.009c-.347 0-.685-.099-.973-.283a1.697 1.697 0 0 1-.646-.754 1.617 1.617 0 0 1-.1-.971 1.66 1.66 0 0 1 .48-.86c.245-.236.557-.396.897-.46.34-.065.692-.032 1.012.095z"/>
        </g>
    </g>
</svg>
