<?xml version="1.0" encoding="UTF-8"?>
<svg width="32px" height="84px" viewBox="0 0 32 84" version="1.1" xmlns="http://www.w3.org/2000/svg" xmlns:xlink="http://www.w3.org/1999/xlink">
    <title>B580E843-A6BA-D0FC-9761-8EFCB99BF6CE</title>
    <g id="💎-Components" stroke="none" stroke-width="1" fill="none" fill-rule="evenodd">
        <g id="Icons/Grid" transform="translate(-1536.000000, -1625.000000)">
            <g id="etc" transform="translate(62.000000, 1585.000000)">
                <g id="Black" transform="translate(954.000000, 0.000000)">
                    <g id="Group-5843" transform="translate(30.000000, 40.000000)">
                        <g id="icons-/-32-/-ic_book_off_on" transform="translate(490.000000, 0.000000)">
                            <g id="Property-1=32,-Property-2=ic_book_black">
                                <rect id="area" x="0" y="0" width="32" height="32"></rect>
                                <path d="M5,3.5 C4.72385716,3.5 4.5,3.72385776 4.5,4 L4.5,24 C4.5,24.2761421 4.72385776,24.5 5,24.5 L15,24.5 C15.2761431,24.5 15.5,24.2761421 15.5,24 L15.5,6 C15.5,4.61928821 14.3807116,3.5 13,3.5 L5,3.5 Z M3,4 L3,24 C3,25.1045685 3.89543045,26 5,26 L15,26 C16.1045694,26 17,25.1045704 17,24 L17,6 C17,3.79086113 15.2091389,2 13,2 L5,2 C3.89543056,2 3,2.89543009 3,4 Z" id="Rectangle-4556-(Stroke)" fill="#000000"></path>
                                <path d="M19.5,3.5 C18.1192884,3.5 17,4.61928844 17,6 L17,24 C17,24.2761421 17.2238578,24.5 17.5,24.5 L27,24.5 C27.2761431,24.5 27.5,24.2761421 27.5,24 L27.5,4 C27.5,3.72385728 27.2761421,3.5 27,3.5 L19.5,3.5 Z M15.5,6 L15.5,24 C15.5,25.1045685 16.3954302,26 17.5,26 L27,26 C28.1045694,26 29,25.1045704 29,24 L29,4 C29,2.89543056 28.1045704,2 27,2 L19.5,2 C17.2908611,2 15.5,3.79086161 15.5,6 Z" id="Rectangle-4557-(Stroke)" fill="#000000"></path>
                                <path d="M30,7.5 C30.2761421,7.5 30.5,7.72385764 30.5,8 L30.5,27 C30.5,27.2761421 30.2761421,27.5 30,27.5 L2,27.5 C1.72385764,27.5 1.5,27.2761421 1.5,27 L1.5,8 C1.5,7.72385764 1.72385716,7.5 2,7.5 L4.5,7.5 L4.5,6 L2,6 C0.895430565,6 0,6.89543009 0,8 L0,27 C0,28.1045685 0.895430565,29 2,29 L30,29 C31.1045704,29 32,28.1045704 32,27 L32,8 C32,6.89543056 31.1045704,6 30,6 L27.5,6 L27.5,7.5 L30,7.5 Z" id="Subtract" fill="#000000" fill-rule="nonzero"></path>
                            </g>
                            <g id="Property-1=32,-Property-2=ic_book_primary" transform="translate(0.000000, 52.000000)">
                                <rect id="area" x="0" y="0" width="32" height="32"></rect>
                                <path d="M5,3.5 C4.72385716,3.5 4.5,3.72385776 4.5,4 L4.5,24 C4.5,24.2761421 4.72385776,24.5 5,24.5 L15,24.5 C15.2761431,24.5 15.5,24.2761421 15.5,24 L15.5,6 C15.5,4.61928821 14.3807116,3.5 13,3.5 L5,3.5 Z M3,4 L3,24 C3,25.1045685 3.89543045,26 5,26 L15,26 C16.1045694,26 17,25.1045704 17,24 L17,6 C17,3.79086113 15.2091389,2 13,2 L5,2 C3.89543056,2 3,2.89543009 3,4 Z" id="Rectangle-4556-(Stroke)" fill="#FF664D"></path>
                                <path d="M19.5,3.5 C18.1192884,3.5 17,4.61928844 17,6 L17,24 C17,24.2761421 17.2238578,24.5 17.5,24.5 L27,24.5 C27.2761431,24.5 27.5,24.2761421 27.5,24 L27.5,4 C27.5,3.72385728 27.2761421,3.5 27,3.5 L19.5,3.5 Z M15.5,6 L15.5,24 C15.5,25.1045685 16.3954302,26 17.5,26 L27,26 C28.1045694,26 29,25.1045704 29,24 L29,4 C29,2.89543056 28.1045704,2 27,2 L19.5,2 C17.2908611,2 15.5,3.79086161 15.5,6 Z" id="Rectangle-4557-(Stroke)" fill="#FF664D"></path>
                                <path d="M30,7.5 C30.2761421,7.5 30.5,7.72385764 30.5,8 L30.5,27 C30.5,27.2761421 30.2761421,27.5 30,27.5 L2,27.5 C1.72385764,27.5 1.5,27.2761421 1.5,27 L1.5,8 C1.5,7.72385764 1.72385716,7.5 2,7.5 L4.5,7.5 L4.5,6 L2,6 C0.895430565,6 0,6.89543009 0,8 L0,27 C0,28.1045685 0.895430565,29 2,29 L30,29 C31.1045704,29 32,28.1045704 32,27 L32,8 C32,6.89543056 31.1045704,6 30,6 L27.5,6 L27.5,7.5 L30,7.5 Z" id="Subtract" fill="#FF664D" fill-rule="nonzero"></path>
                            </g>
                        </g>
                    </g>
                </g>
            </g>
        </g>
    </g>
</svg>