<?xml version="1.0" encoding="UTF-8"?>
<svg width="24px" height="24px" viewBox="0 0 24 24" version="1.1" xmlns="http://www.w3.org/2000/svg" xmlns:xlink="http://www.w3.org/1999/xlink">
    <title>62F3F336-6AE4-9930-BFD5-1AEA368F2212</title>
    <defs>
        <rect id="path-1" x="0" y="0" width="24" height="24"></rect>
    </defs>
    <g id="💎-Components" stroke="none" stroke-width="1" fill="none" fill-rule="evenodd">
        <g id="Icons/Grid" transform="translate(-1056.000000, -1391.000000)">
            <g id="24dp" transform="translate(62.000000, 1263.000000)">
                <g id="Black" transform="translate(954.000000, 0.000000)">
                    <g id="Icon-/-24-/-Black" transform="translate(40.000000, 40.000000)">
                        <g id="Icons-/-24-/-ic_mail_black" transform="translate(0.000000, 88.000000)">
                            <mask id="mask-2" fill="white">
                                <use xlink:href="#path-1"></use>
                            </mask>
                            <g id="Icons-/-24-/-ic_mail_black-(Background/Mask)"></g>
                            <path d="M11.0874624,2.67863199 L3.08746254,7.56752062 C2.56726688,7.88541794 2.25,8.45112276 2.25,9.06076384 L2.25,18.9999294 C2.25,19.9664288 3.03350198,20.7499294 4,20.7499294 L20,20.7499294 C20.9664974,20.7499294 21.75,19.9664288 21.75,18.9999294 L21.75,9.06076384 C21.75,8.45112276 21.4327335,7.88541794 20.9125366,7.56752062 L12.9125366,2.67863157 C12.3523397,2.33628884 11.6476583,2.33628997 11.0874624,2.67863199 Z M12.1303616,3.95855427 L20.1303616,8.84744358 C20.2046757,8.89285755 20.25,8.97367239 20.25,9.06076384 L20.25,9.09851074 L12.0000095,14.598505 L3.75,9.09849787 L3.75,9.06076384 C3.75,8.97367239 3.79532385,8.89285755 3.86963761,8.84744358 L11.8696375,3.95855474 C11.949666,3.90964842 12.050334,3.90964866 12.1303616,3.95855427 Z M3.75,18.9999294 C3.75,19.1380005 3.86192858,19.2499294 4,19.2499294 L20,19.2499294 C20.1380711,19.2499294 20.25,19.1380005 20.25,18.9999294 L20.25,10.9012861 L12.4160347,16.12393 C12.1641102,16.2918797 11.8359089,16.2918797 11.5839844,16.12393 L3.75,10.9012737 L3.75,18.9999294 Z" id="Union" fill="#000000" mask="url(#mask-2)"></path>
                        </g>
                    </g>
                </g>
            </g>
        </g>
    </g>
</svg>