<?xml version="1.0" encoding="UTF-8"?>
<svg width="24px" height="24px" viewBox="0 0 24 24" version="1.1" xmlns="http://www.w3.org/2000/svg" xmlns:xlink="http://www.w3.org/1999/xlink">
    <title>5DCAD7B3-D208-F8A4-2A85-AA5518624A55</title>
    <defs>
        <rect id="path-1" x="0" y="0" width="24" height="24"></rect>
    </defs>
    <g id="ðŸ’Ž-Components" stroke="none" stroke-width="1" fill="none" fill-rule="evenodd">
        <g id="Icons/Grid" transform="translate(-1100.000000, -1303.000000)">
            <g id="24dp" transform="translate(62.000000, 1263.000000)">
                <g id="Black" transform="translate(954.000000, 0.000000)">
                    <g id="Icon-/-24-/-Black" transform="translate(40.000000, 40.000000)">
                        <g id="Icons-/-24-/-ic_shuffle_black" transform="translate(44.000000, 0.000000)">
                            <mask id="mask-2" fill="white">
                                <use xlink:href="#path-1"></use>
                            </mask>
                            <g id="Icons-/-24-/-ic_shuffle_black-(Background/Mask)"></g>
                            <g id="Group-5826" mask="url(#mask-2)">
                                <g transform="translate(3.000000, 4.000000)">
                                    <path d="M0,3.5 L2.51171875,3.5 C2.62061451,3.50002322 2.72877536,3.51783292 2.8315773,3.55376697 C4.89177577,4.25359941 6.61458333,5.90234375 8,8.5" id="Vector-555" stroke="#000000" stroke-width="1.5" stroke-linecap="round" stroke-dasharray="0,0"></path>
                                    <path d="M0,8.5 L2.51171875,8.5 C2.62061451,8.50002322 2.72877536,8.51783292 2.8315773,8.55376697 C4.89177577,9.25359941 6.61458333,10.9023438 8,13.5" id="Vector-557" stroke="#000000" stroke-width="1.5" stroke-linecap="round" stroke-dasharray="0,0" transform="translate(4.000000, 11.000000) scale(1, -1) translate(-4.000000, -11.000000) "></path>
                                    <path d="M8,3.5 L10.5117188,3.5 C10.6206145,3.50002322 10.7287754,3.51783292 10.8315773,3.55376697 C12.8917758,4.25359941 14.6145833,5.90234375 16,8.5" id="Vector-556" stroke="#000000" stroke-width="1.5" stroke-linecap="round" stroke-dasharray="0,0" transform="translate(12.000000, 6.000000) scale(1, -1) rotate(-180.000000) translate(-12.000000, -6.000000) "></path>
                                    <path d="M8,8.5 L10.5117188,8.5 C10.6206145,8.50002322 10.7287754,8.51783292 10.8315773,8.55376697 C12.8917758,9.25359941 14.6145833,10.9023438 16,13.5" id="Vector-558" stroke="#000000" stroke-width="1.5" stroke-linecap="round" stroke-dasharray="0,0" transform="translate(12.000000, 11.000000) rotate(180.000000) translate(-12.000000, -11.000000) "></path>
                                    <g id="ì‰ìž…" stroke="none" stroke-width="1" fill-rule="evenodd" transform="translate(14.000000, 0.000000)">
                                        <path d="M2.65554284,1.19243436 L5.26780962,4.42427605 C5.33724492,4.51017994 5.32389448,4.63610723 5.23799059,4.70554252 C5.2024026,4.73430795 5.15802663,4.74999977 5.11226687,4.74999977 L-0.112266701,4.74999977 C-0.222723652,4.74999977 -0.312266704,4.66045672 -0.312266704,4.54999977 C-0.312266704,4.50424001 -0.296574887,4.45986404 -0.267809451,4.42427605 L2.34445733,1.19243436 C2.41389263,1.10653047 2.53981992,1.09318003 2.62572381,1.16261533 C2.63668654,1.1714764 2.64668176,1.18147163 2.65554284,1.19243436 Z" id="Polygon-33" fill="#000000" transform="translate(2.500000, 3.500000) scale(-1, -1) rotate(-90.000003) translate(-2.500000, -3.500000) "></path>
                                        <path d="M2.65554284,11.1924344 L5.26780962,14.424276 C5.33724492,14.5101799 5.32389448,14.6361072 5.23799059,14.7055425 C5.2024026,14.734308 5.15802663,14.7499998 5.11226687,14.7499998 L-0.112266701,14.7499998 C-0.222723652,14.7499998 -0.312266704,14.6604567 -0.312266704,14.5499998 C-0.312266704,14.50424 -0.296574887,14.459864 -0.267809451,14.424276 L2.34445733,11.1924344 C2.41389263,11.1065305 2.53981992,11.09318 2.62572381,11.1626153 C2.63668654,11.1714764 2.64668176,11.1814716 2.65554284,11.1924344 Z" id="Polygon-34" fill="#000000" transform="translate(2.500000, 13.500000) scale(-1, -1) rotate(-90.000003) translate(-2.500000, -13.500000) "></path>
                                    </g>
                                </g>
                            </g>
                        </g>
                    </g>
                </g>
            </g>
        </g>
    </g>
</svg>