<?xml version="1.0" encoding="UTF-8"?>
<svg width="16px" height="16px" viewBox="0 0 16 16" version="1.1" xmlns="http://www.w3.org/2000/svg" xmlns:xlink="http://www.w3.org/1999/xlink">
    <title>CFC0FD3C-F0AC-4BB4-93D2-202F445A81EB</title>
    <defs>
        <rect id="path-1" x="0" y="0" width="16" height="16"></rect>
        <path d="M1.77387989,9.33848041 C0.986256778,8.56016916 0.5,7.48959382 0.5,6.30803267 C0.5,3.92877207 2.47215509,2 4.9049325,2 C6.11133695,2 7.20446861,2.93165289 8,3.69999992 C8.79553139,2.93165289 9.88866258,2 11.095067,2 C13.5278449,2 15.5,3.92877207 15.5,6.30803267 C15.5,7.48959382 15.0136269,8.56005519 14.2260036,9.33836645 L13.5492125,10.0004982 C13.5277824,10.0258506 13.5049345,10.0504418 13.48067,10.0741724 L8.75563431,14.6952667 C8.54704581,14.8992672 8.27338758,15.0008426 8,15 C7.72661242,15.0008426 7.45295371,14.8992672 7.24436522,14.6952667 L2.51932931,10.0741724 C2.49506439,10.0504413 2.47221682,10.0258492 2.45078635,10.0004963 L1.77387989,9.33848041 Z" id="path-3"></path>
        <mask id="mask-4" maskContentUnits="userSpaceOnUse" maskUnits="objectBoundingBox" x="0" y="0" width="15" height="13" fill="white">
            <use xlink:href="#path-3"></use>
        </mask>
    </defs>
    <g id="💎-Components" stroke="none" stroke-width="1" fill="none" fill-rule="evenodd">
        <g id="Icons/Grid" transform="translate(-1272.000000, -877.000000)">
            <g id="16dp" transform="translate(62.000000, 729.000000)">
                <g id="Black" transform="translate(954.000000, 0.000000)">
                    <g id="Group-5836" transform="translate(40.000000, 39.999999)">
                        <g id="Icons-/-16-/-ic_like_off_grey06" transform="translate(216.000000, 108.000001)">
                            <mask id="mask-2" fill="white">
                                <use xlink:href="#path-1"></use>
                            </mask>
                            <g id="Property-1=16,-Property-2=ic_like_off_grey06-(Background/Mask)"></g>
                            <g id="Union" stroke-dasharray="0,0" fill-rule="nonzero" mask="url(#mask-2)" stroke="#75777B" stroke-width="2">
                                <use mask="url(#mask-4)" xlink:href="#path-3"></use>
                            </g>
                        </g>
                    </g>
                </g>
            </g>
        </g>
    </g>
</svg>