<?xml version="1.0" encoding="UTF-8"?>
<svg width="20px" height="20px" viewBox="0 0 20 20" version="1.1" xmlns="http://www.w3.org/2000/svg" xmlns:xlink="http://www.w3.org/1999/xlink">
    <title>87E6A81F-F62C-59BB-5D5F-C41C511B1167</title>
    <defs>
        <rect id="path-1" x="0" y="0" width="20" height="20"></rect>
    </defs>
    <g id="💎-Components" stroke="none" stroke-width="1" fill="none" fill-rule="evenodd">
        <g id="Icons/Grid" transform="translate(-1446.000000, -1205.000000)">
            <g id="20dp" transform="translate(62.000000, 941.000000)">
                <g id="Black" transform="translate(954.000000, 0.000000)">
                    <g id="Icon-/-20-/-Black" transform="translate(34.000000, 41.000000)">
                        <g id="icons-/-20-/-ic_textsize_20" transform="translate(396.000000, 223.000000)">
                            <mask id="mask-2" fill="white">
                                <use xlink:href="#path-1"></use>
                            </mask>
                            <g id="Property-1=20,-Property-2=ic_textsize_20_primary-(Background/Mask)"></g>
                            <path d="M9.30523396,17.0000963 L9.30523396,15.7360964 L6.05723476,15.7360964 C5.46523476,15.7360964 4.74523449,15.8000959 4.13723445,15.8480959 C6.8892343,13.2400956 8.72923374,10.8560963 8.72923374,8.52009583 C8.72923374,6.42409611 7.41723466,5.0480957 5.32123446,5.0480957 C3.83323431,5.0480957 2.82523435,5.73609543 1.86523438,6.77609539 L2.71323419,7.60809612 C3.35323417,6.84009552 4.18523431,6.24809551 5.14523435,6.24809551 C6.60123467,6.24809551 7.30523491,7.2240963 7.30523491,8.56809616 C7.30523491,10.584096 5.60923457,12.9200957 1.92923427,16.136096 L1.92923427,17.0000963 L9.30523396,17.0000963 Z M17.9962368,11.096096 C17.9962368,7.03209591 16.5722351,5.0480957 14.3482351,5.0480957 C12.1082349,5.0480957 10.6842346,7.01609612 10.6842346,11.096096 C10.6842346,15.176096 12.1082349,17.2080965 14.3482351,17.2080965 C16.5722351,17.2080965 17.9962368,15.176096 17.9962368,11.096096 Z M12.1082344,11.096096 C12.1082344,7.67209625 13.0042348,6.21609592 14.3482351,6.21609592 C15.6762352,6.21609592 16.5722342,7.67209625 16.5722342,11.096096 C16.5722342,14.5520961 15.6762352,16.0400972 14.3482351,16.0400972 C13.0042348,16.0400972 12.1082344,14.5520961 12.1082344,11.096096 Z" id="20" fill="#FF664D" mask="url(#mask-2)"></path>
                        </g>
                    </g>
                </g>
            </g>
        </g>
    </g>
</svg>