<svg width="32" height="84" viewBox="0 0 32 84" xmlns="http://www.w3.org/2000/svg">
    <g fill="none" fill-rule="evenodd">
        <path d="M0 0h32v32H0V0z"/>
        <path d="M2 3h28a2 2 0 0 1 2 2v22a2 2 0 0 1-2 2H2a2 2 0 0 1-2-2V5a2 2 0 0 1 2-2zm28 1.5a.5.5 0 0 1 .5.5v11.695l-4.594-5.654a1.75 1.75 0 0 0-2.778.081l-7.655 10.631a.25.25 0 0 1-.348.058l-5.5-3.929a1.75 1.75 0 0 0-2.254.187L1.5 23.939V5a.5.5 0 0 1 .5-.5h28zM1.5 27a.5.5 0 0 0 .5.5h28a.5.5 0 0 0 .5-.5v-7.94a.756.756 0 0 1-.082-.087l-5.676-6.986a.25.25 0 0 0-.397.012l-7.654 10.63a1.75 1.75 0 0 1-2.438.402l-5.5-3.928a.25.25 0 0 0-.322.026l-6.9 6.901-.031.029V27z" fill="#000"/>
        <path d="M10.5 10.5a2 2 0 1 0-4 0 2 2 0 0 0 4 0zm1.5 0a3.5 3.5 0 1 0-7 0 3.5 3.5 0 0 0 7 0z" fill="#000"/>
        <g>
            <path d="M0 52h32v32H0V52z"/>
            <path d="M2 55h28a2 2 0 0 1 2 2v22a2 2 0 0 1-2 2H2a2 2 0 0 1-2-2V57a2 2 0 0 1 2-2zm28 1.5a.5.5 0 0 1 .5.5v11.695l-4.594-5.654a1.75 1.75 0 0 0-2.778.081l-7.655 10.631a.25.25 0 0 1-.348.058l-5.5-3.929a1.75 1.75 0 0 0-2.254.187L1.5 75.939V57a.5.5 0 0 1 .5-.5h28zM1.5 79a.5.5 0 0 0 .5.5h28a.5.5 0 0 0 .5-.5v-7.94a.756.756 0 0 1-.082-.087l-5.676-6.986a.25.25 0 0 0-.397.012l-7.654 10.63a1.75 1.75 0 0 1-2.438.402l-5.5-3.928a.25.25 0 0 0-.322.026l-6.9 6.901-.031.029V79z" fill="#FF664D"/>
            <path d="M10.5 62.5a2 2 0 1 0-4 0 2 2 0 0 0 4 0zm1.5 0a3.5 3.5 0 1 0-7 0 3.5 3.5 0 0 0 7 0z" fill="#FF664D"/>
        </g>
    </g>
</svg>
