<?xml version="1.0" encoding="UTF-8"?>
<svg width="16px" height="16px" viewBox="0 0 16 16" version="1.1" xmlns="http://www.w3.org/2000/svg" xmlns:xlink="http://www.w3.org/1999/xlink">
    <title>E1535350-F758-643D-2812-5AC3C7802730</title>
    <defs>
        <rect id="path-1" x="0" y="0" width="16" height="16"></rect>
    </defs>
    <g id="💎-Components" stroke="none" stroke-width="1" fill="none" fill-rule="evenodd">
        <g id="Icons/Grid" transform="translate(-1416.000000, -769.000000)">
            <g id="16dp" transform="translate(62.000000, 729.000000)">
                <g id="Black" transform="translate(954.000000, 0.000000)">
                    <g id="Group-5836" transform="translate(40.000000, 39.999999)">
                        <g id="Icons-/-16-/-ic_edit_grey07" transform="translate(360.000000, 0.000001)">
                            <mask id="mask-2" fill="white">
                                <use xlink:href="#path-1"></use>
                            </mask>
                            <g id="Icons-/-16-/-ic_edit_grey07-(Background/Mask)"></g>
                            <path d="M2.69716888,11.3482574 L2.16493643,13.8766873 L4.65062906,13.3031611 L13.8618161,4.09347974 L11.8802049,2.16672126 L2.69716888,11.3482574 Z M12.1430223,1.90394641 C12.1428778,1.90409101 12.1431669,1.90380214 12.1430223,1.90394641 Z M11.9107838,1.00000024 L12.1128324,1.00000024 L14.8040229,3.61669524 C14.9344359,3.74708612 14.9999999,3.91931794 14.9999999,4.09017028 C14.9999999,4.26102238 14.9344007,4.43321963 14.8039877,4.5636105 L5.28788805,14.0781545 C5.19934672,14.1666811 5.08786073,14.2284056 4.96620997,14.256475 L1.81793439,14.9828806 C1.63888996,15.0241918 1.45905721,14.9886685 1.31495888,14.8986227 C1.25354751,14.8602469 1.19808323,14.811704 1.15131934,14.7543931 L0.999999703,14.5689467 L1.7450587,11.029459 L1.74742407,11.0200462 C1.77694002,10.902591 1.83772245,10.7954144 1.92323102,10.7099195 L11.43933,1.19537542 C11.5696697,1.06505727 11.7411992,1.00000023 11.9107838,1.00000024 Z M12.1430223,1.90394641 L11.9107838,1.66951469 M1.31495888,14.8986227 L1.57867227,14.4742766" id="Path-12-(Stroke)" fill="#44464A" mask="url(#mask-2)"></path>
                            <path d="M8.8692539,4.22186849 L12.8692539,4.22186849 L12.8692539,5.22186849 L8.8692539,5.22186849 L8.8692539,4.22186849 Z" id="Rectangle-4740" fill="#44464A" mask="url(#mask-2)" transform="translate(10.869254, 4.721868) rotate(45.000000) translate(-10.869254, -4.721868) "></path>
                        </g>
                    </g>
                </g>
            </g>
        </g>
    </g>
</svg>