<svg width="16" height="16" viewBox="0 0 16 16" xmlns="http://www.w3.org/2000/svg" xmlns:xlink="http://www.w3.org/1999/xlink">
    <defs>
        <path id="2sf0w3lx2b" d="M0 0h16v16H0z"/>
        <path d="M8 16A8 8 0 1 0 8 0a8 8 0 0 0 0 16z" id="66m8coovea"/>
        <mask id="dsbkg7nmid" maskContentUnits="userSpaceOnUse" maskUnits="objectBoundingBox" x="0" y="0" width="16" height="16" fill="#fff">
            <use xlink:href="#66m8coovea"/>
        </mask>
    </defs>
    <g fill="none" fill-rule="evenodd">
        <mask id="mlxh9i6zxc" fill="#fff">
            <use xlink:href="#2sf0w3lx2b" transform="matrix(-1 0 0 1 16 0)"/>
        </mask>
        <g stroke-dasharray="0,0" mask="url(#mlxh9i6zxc)" transform="matrix(-1 0 0 1 16 0)" stroke="#FFF" stroke-width="2">
            <use mask="url(#dsbkg7nmid)" xlink:href="#66m8coovea"/>
        </g>
        <path d="M11.752 10.583c-.792.212-1.53.663-2.242 1.098-.163.1-.325.198-.486.293a.5.5 0 1 1-.508-.861c.133-.079.275-.166.425-.258.714-.437 1.606-.984 2.553-1.238.688-.184 1.284-.025 1.755.344.448.35.761.869.981 1.387.45 1.065.593 2.717-.607 3.917a.5.5 0 1 1-.707-.707c.8-.8.758-1.96.393-2.82-.188-.443-.417-.787-.676-.99-.235-.183-.51-.264-.88-.165z" fill="#FFF" mask="url(#mlxh9i6zxc)" transform="scale(-1 1) rotate(-4 0 339.329)"/>
        <path d="M2.893.521c-.161.724-.33 1.859-.313 2.897.008.52.062.991.173 1.367.113.382.267.604.43.712.33.22.586.318.794.366.213.048.396.05.615.05h.022c.206 0 .472 0 .753.083.305.09.594.266.891.563.343.343.508.792.628 1.173l.093.306c.084.285.16.538.277.785.146.309.342.564.664.751.33.192.84.339 1.659.339a.5.5 0 0 1 0 1c-.931 0-1.631-.166-2.161-.474-.54-.313-.856-.746-1.065-1.187a6.805 6.805 0 0 1-.35-.981c-.024-.085-.048-.166-.071-.24-.116-.369-.224-.608-.38-.765-.203-.202-.352-.277-.469-.311-.13-.04-.262-.042-.49-.042H4.58c-.216 0-.498 0-.827-.075-.338-.078-.707-.23-1.127-.51-.438-.291-.688-.77-.833-1.26-.147-.495-.205-1.067-.214-1.635-.018-1.137.164-2.353.337-3.129a.5.5 0 1 1 .976.217z" fill="#FFF" mask="url(#mlxh9i6zxc)" transform="scale(-1 1) rotate(-15 0 49.686)"/>
    </g>
</svg>
