<?xml version="1.0" encoding="UTF-8"?>
<svg width="20px" height="20px" viewBox="0 0 20 20" version="1.1" xmlns="http://www.w3.org/2000/svg" xmlns:xlink="http://www.w3.org/1999/xlink">
    <title>2779FB9D-B0C7-6C40-1F6B-5520CBE11463</title>
    <defs>
        <rect id="path-1" x="0" y="0" width="20" height="20"></rect>
    </defs>
    <g id="💎-Components" stroke="none" stroke-width="1" fill="none" fill-rule="evenodd">
        <g id="Icons/Grid" transform="translate(-1050.000000, -982.000000)">
            <g id="20dp" transform="translate(62.000000, 941.000000)">
                <g id="Black" transform="translate(954.000000, 0.000000)">
                    <g id="Icons-/-20-/-ic_clear_grey04" transform="translate(34.000000, 41.000000)">
                        <mask id="mask-2" fill="white">
                            <use xlink:href="#path-1"></use>
                        </mask>
                        <g id="Icons-/-20-/-ic_clear_grey04-(Background/Mask)"></g>
                        <path d="M10,20 C4.47715235,20 0,15.5228477 0,10 C0,4.47715235 4.47715235,0 10,0 C15.5228477,0 20,4.47715235 20,10 C20,15.5228477 15.5228477,20 10,20 Z" id="Ellipse-1058" fill="#FFFFFF" fill-rule="nonzero" mask="url(#mask-2)"></path>
                        <path d="M20,10 C20,4.47715235 15.5228472,0 10,0 C4.47715235,0 0,4.47715235 0,10 C0,15.5228472 4.47715235,20 10,20 C15.5228472,20 20,15.5228472 20,10 Z M13.8535538,6.1464467 C13.6582909,5.95118475 13.3417082,5.95118475 13.1464462,6.1464467 L10,9.29289341 L6.8535533,6.1464467 C6.65829134,5.95118427 6.34170866,5.95118427 6.1464467,6.1464467 C5.95118427,6.34170866 5.95118427,6.65829134 6.1464467,6.8535533 L9.29289341,10 L6.07537889,13.217514 C5.88011694,13.4127769 5.88011646,13.7293587 6.07537889,13.9246216 C6.27064085,14.1198835 6.58722353,14.1198826 6.78248549,13.9246216 L10,10.7071075 L13.217514,13.9246216 C13.4127769,14.1198826 13.7293587,14.1198835 13.9246216,13.9246216 C14.1198835,13.7293587 14.1198826,13.4127769 13.9246216,13.217514 L10.7071075,10 L13.8535538,6.85355377 C14.0488157,6.65829134 14.0488157,6.34170914 13.8535538,6.1464467 Z" id="Subtract" fill="#CBCDCF" mask="url(#mask-2)"></path>
                    </g>
                </g>
            </g>
        </g>
    </g>
</svg>