<?xml version="1.0" encoding="UTF-8"?>
<svg width="24px" height="24px" viewBox="0 0 24 24" version="1.1" xmlns="http://www.w3.org/2000/svg" xmlns:xlink="http://www.w3.org/1999/xlink">
    <title>E6A15C41-E6B4-F8B4-C067-3B0395915ADA</title>
    <defs>
        <rect id="path-1" x="0" y="0" width="24" height="24"></rect>
    </defs>
    <g id="💎-Components" stroke="none" stroke-width="1" fill="none" fill-rule="evenodd">
        <g id="Icons/Grid" transform="translate(-664.000000, -1303.000000)">
            <g id="24dp" transform="translate(62.000000, 1263.000000)">
                <g id="White" transform="translate(122.000000, 0.000000)">
                    <g id="Icon-/-24-/-White" transform="translate(40.000000, 40.000000)">
                        <g id="Icons-/-24-/-ic_full_white" transform="translate(440.000000, 0.000000)">
                            <mask id="mask-2" fill="white">
                                <use xlink:href="#path-1"></use>
                            </mask>
                            <g id="Icons-/-24-/-ic_full_white-(Background/Mask)"></g>
                            <path d="M16,2 L19.3333321,2 C20.0405762,2 20.7188535,2.2809518 21.2189503,2.7810486 C21.7190471,3.28114504 22,3.95942175 22,4.66666651 L22,8 C22,8.55228472 21.5522847,9 21,9 C20.4477153,9 20,8.55228472 20,8 L20,4.66666651 C20,4.48985624 19.9297619,4.32028687 19.8047371,4.19526219 C19.6797128,4.07023776 19.5101428,4 19.3333321,4 L16,4 C15.4477152,4 15,3.55228478 15,3 C15,2.44771522 15.4477152,2 16,2 Z M4.19526219,4.19526219 C4.07023787,4.32028639 4,4.48985553 4,4.66666651 L4,8 C4,8.55228472 3.55228478,9 3,9 C2.44771522,9 2,8.55228472 2,8 L2,4.66666651 C2,3.95942247 2.28095162,3.28114551 2.7810486,2.7810486 C3.28114551,2.28095162 3.95942247,2 4.66666651,2 L8,2 C8.55228472,2 9,2.44771522 9,3 C9,3.55228478 8.55228472,4 8,4 L4.66666651,4 C4.48985553,4 4.32028639,4.07023787 4.19526219,4.19526219 Z M22,16 L22,19.3333321 C22,20.0405767 21.7190485,20.7188554 21.2189522,21.2189522 C20.7188554,21.7190485 20.0405767,22 19.3333321,22 L16,22 C15.4477152,22 15,21.5522847 15,21 C15,20.4477153 15.4477152,20 16,20 L19.3333321,20 C19.5101423,20 19.6797125,19.9297619 19.8047371,19.8047371 C19.9297619,19.6797125 20,19.5101423 20,19.3333321 L20,16 C20,15.4477152 20.4477153,15 21,15 C21.5522847,15 22,15.4477152 22,16 Z M4,16 L4,19.3333321 C4,19.5101428 4.07023776,19.6797128 4.19526219,19.8047371 C4.32028675,19.9297619 4.489856,20 4.66666651,20 L8,20 C8.55228472,20 9,20.4477153 9,21 C9,21.5522847 8.55228472,22 8,22 L4.66666651,22 C3.95942199,22 3.28114522,21.7190485 2.7810486,21.2189522 C2.2809518,20.7188549 2,20.0405762 2,19.3333321 L2,16 C2,15.4477152 2.44771522,15 3,15 C3.55228478,15 4,15.4477152 4,16 Z" id="Vector" fill="#FFFFFF" mask="url(#mask-2)"></path>
                        </g>
                    </g>
                </g>
            </g>
        </g>
    </g>
</svg>