<?xml version="1.0" encoding="UTF-8"?>
<svg width="16px" height="16px" viewBox="0 0 16 16" version="1.1" xmlns="http://www.w3.org/2000/svg" xmlns:xlink="http://www.w3.org/1999/xlink">
    <title>4ADE6E58-F362-8DAD-FEBC-61A5E4973057</title>
    <g id="💎-Components" stroke="none" stroke-width="1" fill="none" fill-rule="evenodd">
        <g id="Icons/Grid" transform="translate(-1380.000000, -805.000000)">
            <g id="16dp" transform="translate(62.000000, 729.000000)">
                <g id="Black" transform="translate(954.000000, 0.000000)">
                    <g id="Group-5836" transform="translate(40.000000, 39.999999)">
                        <g id="Icons-/-16-/-ic_talk_grey06" transform="translate(324.000000, 36.000001)">
                            <path d="M0,0 L16,0 L16,16 L0,16 L0,0 Z" id="area"></path>
                            <path d="M5.5,7.75009155 C5.5,7.3358779 5.16421366,7.00009155 4.75,7.00009155 C4.33578634,7.00009155 4,7.3358779 4,7.75009155 C4,8.16430521 4.33578634,8.50009155 4.75,8.50009155 C5.16421366,8.50009155 5.5,8.16430521 5.5,7.75009155 Z M9,7.75009155 C9,7.3358779 8.66421366,7.00009155 8.25,7.00009155 C7.83578634,7.00009155 7.5,7.3358779 7.5,7.75009155 C7.5,8.16430521 7.83578634,8.50009155 8.25,8.50009155 C8.66421366,8.50009155 9,8.16430521 9,7.75009155 Z M11.75,8.50009155 C11.3357868,8.50009155 11,8.16430521 11,7.75009155 C11,7.3358779 11.3357868,7.00009155 11.75,7.00009155 C12.1642132,7.00009155 12.5,7.3358779 12.5,7.75009155 C12.5,8.16430521 12.1642132,8.50009155 11.75,8.50009155 Z M14,13 C14.5522842,13 15,12.5522852 15,12 L15,3 C15,2.44771576 14.5522842,2 14,2 L2,2 C1.44771528,2 1,2.44771636 1,3 L1,14.5729914 C1,14.7425594 1.19777104,14.8351908 1.32803643,14.7266359 L3.39999914,13 L14,13 Z M2,12.8649578 L2,3 L14,3 L14,12 L3.03794932,12 L2,12.8649578 Z" id="Union" fill="#75777B"></path>
                        </g>
                    </g>
                </g>
            </g>
        </g>
    </g>
</svg>