<svg width="16" height="16" viewBox="0 0 16 16" xmlns="http://www.w3.org/2000/svg" xmlns:xlink="http://www.w3.org/1999/xlink">
    <defs>
        <path id="0qjsmhhm4b" d="M0 0h16v16H0z"/>
        <path id="qpjpat195a" d="M3 1h10v14H3z"/>
        <mask id="gfz2ngeywd" maskContentUnits="userSpaceOnUse" maskUnits="objectBoundingBox" x="0" y="0" width="10" height="14" fill="#fff">
            <use xlink:href="#qpjpat195a"/>
        </mask>
    </defs>
    <g fill="none" fill-rule="evenodd">
        <mask id="sjresqwedc" fill="#fff">
            <use xlink:href="#0qjsmhhm4b"/>
        </mask>
        <g stroke-dasharray="0,0" mask="url(#sjresqwedc)" stroke="#FFF" stroke-width="2">
            <use mask="url(#gfz2ngeywd)" xlink:href="#qpjpat195a"/>
        </g>
        <g mask="url(#sjresqwedc)" fill="#FFF">
            <path d="M.5 3.5h3a.5.5 0 0 1 0 1h-3a.5.5 0 1 1 0-1zM.5 7.5h3a.5.5 0 0 1 0 1h-3a.5.5 0 0 1 0-1zM.5 11.5h3a.5.5 0 0 1 0 1h-3a.5.5 0 0 1 0-1z"/>
        </g>
        <g mask="url(#sjresqwedc)" fill="#FFF">
            <path d="M12.5 3.5h3a.5.5 0 0 1 0 1h-3a.5.5 0 1 1 0-1zM12.5 7.5h3a.5.5 0 0 1 0 1h-3a.5.5 0 0 1 0-1zM12.5 11.5h3a.5.5 0 0 1 0 1h-3a.5.5 0 0 1 0-1z"/>
        </g>
        <path d="M7.5 11.5h2a.5.5 0 1 1 0 1h-2a.5.5 0 1 1 0-1z" fill="#FFF" mask="url(#sjresqwedc)"/>
    </g>
</svg>
