<?xml version="1.0" encoding="UTF-8"?>
<svg width="24px" height="68px" viewBox="0 0 24 68" version="1.1" xmlns="http://www.w3.org/2000/svg" xmlns:xlink="http://www.w3.org/1999/xlink">
    <title>44AFC0C3-D772-D005-7F20-4D0B87ACFC9B</title>
    <defs>
        <rect id="path-1" x="0" y="0" width="24" height="24"></rect>
        <rect id="path-3" x="0" y="0" width="24" height="24"></rect>
        <path d="M11.2994051,4.75626934 C9.05765533,2.41457689 5.42306137,2.41457689 3.18131208,4.75626934 C0.939562798,7.09796154 0.939562798,10.8945951 3.18131208,13.2362871 L11.2844238,21.7008076 C11.4814882,21.9066582 11.7417288,22.0062923 11.9999504,21.9997101 C12.258172,22.0062923 12.5184135,21.9066582 12.7154779,21.7008076 L20.8185539,13.236475 C20.8185177,13.2365122 20.8185902,13.2364378 20.8185539,13.236475 C23.0603027,10.894783 23.060339,7.09796154 20.8185902,4.75626934 C18.5768394,2.41457689 14.9422464,2.41457689 12.7004967,4.75626934 C12.6923513,4.76477754 12.6842365,4.77330494 12.6761503,4.78185141 L11.9999504,5.48819757 L11.3237476,4.78184748 L11.2994051,4.75626934 Z" id="path-5"></path>
        <mask id="mask-6" maskContentUnits="userSpaceOnUse" maskUnits="objectBoundingBox" x="0" y="0" width="20.9998837" height="19.0000153" fill="white">
            <use xlink:href="#path-5"></use>
        </mask>
    </defs>
    <g id="💎-Components" stroke="none" stroke-width="1" fill="none" fill-rule="evenodd">
        <g id="Icons/Grid" transform="translate(-1252.000000, -1456.000000)">
            <g id="24dp" transform="translate(62.000000, 1263.000000)">
                <g id="Black" transform="translate(954.000000, 0.000000)">
                    <g id="Icon-/-24-/-Black" transform="translate(40.000000, 40.000000)">
                        <g id="icons-/-24-/-ic_like_off_on" transform="translate(196.000000, 153.000000)">
                            <g id="ic_like_on" transform="translate(0.000000, 44.000000)">
                                <mask id="mask-2" fill="white">
                                    <use xlink:href="#path-1"></use>
                                </mask>
                                <g id="Property-1=24,-Property-2=ic_like_on-(Background/Mask)"></g>
                                <path d="M11.2994051,4.75626934 C9.05765533,2.41457689 5.42306137,2.41457689 3.18131208,4.75626934 C0.939562798,7.09796154 0.939562798,10.8945951 3.18131208,13.2362871 L11.2844238,21.7008076 C11.4814882,21.9066582 11.7417288,22.0062923 11.9999504,21.9997101 C12.258172,22.0062923 12.5184135,21.9066582 12.7154779,21.7008076 L20.8185539,13.236475 C20.8185177,13.2365122 20.8185902,13.2364378 20.8185539,13.236475 C23.0603027,10.894783 23.060339,7.09796154 20.8185902,4.75626934 C18.5768394,2.41457689 14.9422464,2.41457689 12.7004967,4.75626934 C12.6923513,4.76477754 12.6842365,4.77330494 12.6761503,4.78185141 L11.9999504,5.48819757 L11.3237476,4.78184748 L11.2994051,4.75626934 Z" id="Union" fill="#FF664D" fill-rule="nonzero" mask="url(#mask-2)"></path>
                            </g>
                            <g id="ic_like_off">
                                <mask id="mask-4" fill="white">
                                    <use xlink:href="#path-3"></use>
                                </mask>
                                <g id="Property-1=24,-Property-2=ic_like_off-(Background/Mask)"></g>
                                <g id="Union" stroke-dasharray="0,0" fill-rule="nonzero" mask="url(#mask-4)" stroke="#000000" stroke-width="3">
                                    <use mask="url(#mask-6)" xlink:href="#path-5"></use>
                                </g>
                            </g>
                        </g>
                    </g>
                </g>
            </g>
        </g>
    </g>
</svg>