<svg width="24" height="24" viewBox="0 0 24 24" xmlns="http://www.w3.org/2000/svg">
    <g fill="none" fill-rule="evenodd">
        <path d="M0 0h24v24H0z"/>
        <g fill="#FFF" fill-rule="nonzero">
            <path d="M6.372 15h1.184v-2.104h.792c1.272 0 2.288-.608 2.288-1.96 0-1.4-1.008-1.856-2.32-1.856H6.372V15zm1.184-3.04v-1.944h.672c.816 0 1.248.232 1.248.92 0 .68-.392 1.024-1.208 1.024h-.712zM11.508 15h1.184V9.08h-1.184zM13.948 15h1.184v-2.104h.792c1.272 0 2.288-.608 2.288-1.96 0-1.4-1.008-1.856-2.32-1.856h-1.944V15zm1.184-3.04v-1.944h.672c.816 0 1.248.232 1.248.92 0 .68-.392 1.024-1.208 1.024h-.712z"/>
        </g>
        <path d="M3 4v16h18V4H3zM1 4v16a2 2 0 0 0 2 2h18a2 2 0 0 0 2-2V4a2 2 0 0 0-2-2H3a2 2 0 0 0-2 2z" fill="#FFF"/>
    </g>
</svg>
