<?xml version="1.0" encoding="UTF-8"?>
<svg width="16px" height="16px" viewBox="0 0 16 16" version="1.1" xmlns="http://www.w3.org/2000/svg" xmlns:xlink="http://www.w3.org/1999/xlink">
    <title>FBC71C1B-46F8-454B-8BF1-EA80672B40BF</title>
    <g id="💎-Components" stroke="none" stroke-width="1" fill="none" fill-rule="evenodd">
        <g id="Icons-/-24-/--Icons/Grid/Keep" transform="translate(-332.000000, -805.000000)">
            <g id="16dp" transform="translate(62.000000, 729.000000)">
                <g id="White" transform="translate(122.000000, 0.000000)">
                    <g id="Icon-/-16-/-White" transform="translate(40.000000, 40.000000)">
                        <g id="Icons-/-16-/-ic_time_white" transform="translate(108.000000, 36.000000)">
                            <rect id="area" x="0" y="0" width="16" height="16"></rect>
                            <g id="Icon_card_time_16px" transform="translate(0.500000, 1.000000)" fill="#FFFFFF">
                                <g id="Path-2" transform="translate(1.500000, 2.000000)" fill-rule="nonzero">
                                    <path d="M6,0 C9.33333333,0 12,2.66666667 12,6 C12,9.33333333 9.33333333,12 6,12 C2.66666667,12 0,9.33333333 0,6 C0,2.66666667 2.66666667,0 6,0 Z M6.3,2.69681358 L5.8,2.69681358 C5.52385763,2.69681358 5.3,2.92067121 5.3,3.19681358 L5.3,3.19681358 L5.3,6.55021095 L5.313,6.55 L5.3050909,6.55371284 L7.27695275,8.38107819 C7.476987,8.56645408 7.78867419,8.55733666 7.9775305,8.360585 L7.9775305,8.360585 L8.2608072,8.0654656 L8.2608072,8.0654656 C8.45449022,7.8566845 8.44253926,7.54032766 8.24004517,7.35257582 L8.24004517,7.35257582 L6.799,6.016 L6.8,3.19681358 C6.8,2.95135369 6.62312484,2.74720521 6.38987563,2.70486925 L6.3,2.69681358 Z" id="Combined-Shape"></path>
                                </g>
                                <rect id="Rectangle" transform="translate(1.944544, 1.944544) rotate(-315.000000) translate(-1.944544, -1.944544) " x="1.19454365" y="-0.0554563517" width="1.5" height="4" rx="0.5"></rect>
                                <rect id="Rectangle-Copy-2" transform="translate(12.944544, 1.944544) rotate(-45.000000) translate(-12.944544, -1.944544) " x="12.1945436" y="-0.0554563517" width="1.5" height="4" rx="0.5"></rect>
                            </g>
                        </g>
                    </g>
                </g>
            </g>
        </g>
    </g>
</svg>