<svg width="20" height="60" viewBox="0 0 20 60" xmlns="http://www.w3.org/2000/svg" xmlns:xlink="http://www.w3.org/1999/xlink">
    <defs>
        <path id="ki10bod7va" d="M0 0h20v20H0z"/>
        <path id="rh28qrr77c" d="M0 0h20v20H0z"/>
    </defs>
    <g fill="none" fill-rule="evenodd">
        <g>
            <mask id="c5ybzp32cb" fill="#fff">
                <use xlink:href="#ki10bod7va"/>
            </mask>
            <path d="M10.5 1v18a.5.5 0 0 1-1 0V1a.5.5 0 0 1 1 0zm8.055 6.043a.292.292 0 0 1 .445.25v5.413a.294.294 0 0 1-.298.294.292.292 0 0 1-.147-.043L14.14 10.25a.293.293 0 0 1 0-.502l4.415-2.706zM5.86 10.251a.293.293 0 0 0 0-.502L1.445 7.043a.292.292 0 0 0-.445.25v5.413a.294.294 0 0 0 .298.294.292.292 0 0 0 .147-.043L5.86 10.25z" fill="#000" mask="url(#c5ybzp32cb)"/>
        </g>
        <g transform="translate(0 40)">
            <mask id="gc2mkv16rd" fill="#fff">
                <use xlink:href="#rh28qrr77c"/>
            </mask>
            <path d="M10.5 1v18a.5.5 0 0 1-1 0V1a.5.5 0 0 1 1 0zm8.055 6.043a.292.292 0 0 1 .445.25v5.413a.294.294 0 0 1-.298.294.292.292 0 0 1-.147-.043L14.14 10.25a.293.293 0 0 1 0-.502l4.415-2.706zM5.86 10.251a.293.293 0 0 0 0-.502L1.445 7.043a.292.292 0 0 0-.445.25v5.413a.294.294 0 0 0 .298.294.292.292 0 0 0 .147-.043L5.86 10.25z" fill="#FF664D" mask="url(#gc2mkv16rd)"/>
        </g>
    </g>
</svg>
