<?xml version="1.0" encoding="UTF-8"?>
<svg width="20px" height="20px" viewBox="0 0 20 20" version="1.1" xmlns="http://www.w3.org/2000/svg" xmlns:xlink="http://www.w3.org/1999/xlink">
    <title>C2F54BD0-3E84-65CA-93EE-D951ED0BC793</title>
    <defs>
        <rect id="path-1" x="0" y="0" width="20" height="20"></rect>
    </defs>
    <g id="💎-Components" stroke="none" stroke-width="1" fill="none" fill-rule="evenodd">
        <g id="Icons/Grid" transform="translate(-1086.000000, -1205.000000)">
            <g id="20dp" transform="translate(62.000000, 941.000000)">
                <g id="Black" transform="translate(954.000000, 0.000000)">
                    <g id="Icon-/-20-/-Black" transform="translate(34.000000, 41.000000)">
                        <g id="icons-/-20-/-ic_textsize_12_black" transform="translate(36.000000, 223.000000)">
                            <mask id="mask-2" fill="white">
                                <use xlink:href="#path-1"></use>
                            </mask>
                            <g id="Property-1=20,-Property-2=ic_textsize_12_black-(Background/Mask)"></g>
                            <path d="M9.06481266,16.9999657 L9.06481266,15.7839661 L6.69681263,15.7839661 L6.69681263,5.27196503 L5.57681274,5.27196503 C4.95281267,5.65596485 4.20081258,5.92796516 3.14481258,6.10396481 L3.14481258,7.04796505 L5.24081278,7.04796505 L5.24081278,15.7839661 L2.6328125,15.7839661 L2.6328125,16.9999657 L9.06481266,16.9999657 Z M17.9638128,16.9999657 L17.9638128,15.7519655 L14.7158136,15.7519655 C14.1238132,15.7519655 13.4198127,15.799966 12.7958126,15.863966 C15.5638125,13.2559657 17.4038134,10.8719654 17.4038134,8.51996517 C17.4038134,6.42396545 16.0918126,5.06396484 13.9958124,5.06396484 C12.5078123,5.06396484 11.4838124,5.75196552 10.5238123,6.79196548 L11.3718128,7.60796547 C12.0278127,6.83996487 12.8598127,6.24796486 13.8198128,6.24796486 C15.2758131,6.24796486 15.9638128,7.23996544 15.9638128,8.5839653 C15.9638128,10.5839653 14.2838135,12.935966 10.6038132,16.1519661 L10.6038132,16.9999657 L17.9638128,16.9999657 Z" id="12" fill="#000000" mask="url(#mask-2)"></path>
                        </g>
                    </g>
                </g>
            </g>
        </g>
    </g>
</svg>