<?xml version="1.0" encoding="UTF-8"?>
<svg width="24px" height="24px" viewBox="0 0 24 24" version="1.1" xmlns="http://www.w3.org/2000/svg" xmlns:xlink="http://www.w3.org/1999/xlink">
    <title>B0752915-F451-400F-34B6-3E3E0EDF52F8</title>
    <defs>
        <rect id="path-1" x="0" y="0" width="24" height="24"></rect>
        <path d="M12.8492356,2.3658747 L15.4707018,6.58213033 C15.6083695,6.80354921 15.8270709,6.96244507 16.0801944,7.02495261 L20.9001694,8.2152205 C21.4363475,8.34762692 21.7636692,8.88962178 21.6312628,9.42579991 C21.5944789,9.57475572 21.5239127,9.7132498 21.4250259,9.83056261 L18.2252061,13.6266198 C18.0571659,13.8259717 17.9736294,14.0830706 17.9924006,14.3431213 L18.3498428,19.2950029 C18.389605,19.8458545 17.9752852,20.3246415 17.4244336,20.3644036 C17.2714014,20.37545 17.1178795,20.3511345 16.9757507,20.2933393 L12.3766871,18.423176 C12.1351649,18.3249634 11.8648351,18.3249634 11.6233129,18.423176 L7.02424926,20.2933393 C6.51264551,20.5013778 5.92926014,20.2552896 5.72122159,19.7436858 C5.66342633,19.601557 5.63911085,19.4480352 5.6501572,19.2950029 L6.00759935,14.3431213 C6.02637062,14.0830706 5.94283412,13.8259717 5.7747939,13.6266198 L2.57497412,9.83056261 C2.21902344,9.40828597 2.27279125,8.77740808 2.69506789,8.4214574 C2.81238069,8.32257063 2.95087477,8.25200437 3.09983059,8.2152205 L7.9198056,7.02495261 C8.17292911,6.96244507 8.3916305,6.80354921 8.52929818,6.58213033 L11.1507644,2.3658747 C11.4423785,1.89685483 12.0589942,1.75303906 12.5280141,2.0446532 C12.6583127,2.12566662 12.7682222,2.23557614 12.8492356,2.3658747 Z" id="path-3"></path>
        <mask id="mask-4" maskContentUnits="userSpaceOnUse" maskUnits="objectBoundingBox" x="0" y="0" width="22" height="22" fill="white">
            <use xlink:href="#path-3"></use>
        </mask>
    </defs>
    <g id="💎-Components" stroke="none" stroke-width="1" fill="none" fill-rule="evenodd">
        <g id="Icons/Grid" transform="translate(-1630.000000, -1499.000000)">
            <g id="24dp" transform="translate(62.000000, 1263.000000)">
                <g id="Black" transform="translate(954.000000, 0.000000)">
                    <g id="Icon-/-24-/-Black" transform="translate(40.000000, 40.000000)">
                        <g id="Group-5838" transform="translate(196.000000, 153.000000)">
                            <g id="icons-/-24-/-ic_appbarstar_off_black" transform="translate(378.000000, 43.000000)">
                                <mask id="mask-2" fill="white">
                                    <use xlink:href="#path-1"></use>
                                </mask>
                                <g id="Property-1=24,-Property-2=ic_appbarstar_off_black-(Background/Mask)"></g>
                                <g id="Star-24" stroke-dasharray="0,0" mask="url(#mask-2)" stroke="#000000" stroke-width="4">
                                    <use mask="url(#mask-4)" xlink:href="#path-3"></use>
                                </g>
                            </g>
                        </g>
                    </g>
                </g>
            </g>
        </g>
    </g>
</svg>