<?xml version="1.0" encoding="UTF-8"?>
<svg width="20px" height="60px" viewBox="0 0 20 60" version="1.1" xmlns="http://www.w3.org/2000/svg" xmlns:xlink="http://www.w3.org/1999/xlink">
    <title>5CD8315B-A73A-1238-7A89-F4B6187D8A3C</title>
    <defs>
        <rect id="path-1" x="0" y="0" width="20" height="20"></rect>
        <rect id="path-3" x="0" y="0" width="20" height="20"></rect>
    </defs>
    <g id="💎-Components" stroke="none" stroke-width="1" fill="none" fill-rule="evenodd">
        <g id="Icons/Grid" transform="translate(-1492.000000, -1115.000000)">
            <g id="20dp" transform="translate(62.000000, 941.000000)">
                <g id="Black" transform="translate(954.000000, 0.000000)">
                    <g id="Icon-/-20-/-Black" transform="translate(34.000000, 41.000000)">
                        <g id="icons-/-20-/-ic_clockwise_off_on" transform="translate(442.000000, 133.000000)">
                            <g id="Property-1=20,-Property-2=ic_-clockwise_black">
                                <mask id="mask-2" fill="white">
                                    <use xlink:href="#path-1"></use>
                                </mask>
                                <g id="Property-1=20,-Property-2=ic_-clockwise_black-(Background/Mask)"></g>
                                <path d="M11.0410099,3.63485777 C12.4288816,3.90567732 13.7024374,4.57391906 14.7011223,5.55362868 L17.0493536,7.85724735 L13.7333984,7.85724735 C13.4572563,7.85724735 13.2333984,8.08110476 13.2333984,8.35724735 C13.2333984,8.63338947 13.4572563,8.85724735 13.7333984,8.85724735 L18.0000648,8.85724735 C18.276207,8.85724735 18.5000648,8.63338947 18.5000648,8.35724735 L18.5000648,4.0715332 C18.5000648,3.79539084 18.276207,3.5715332 18.0000648,3.5715332 C17.7239227,3.5715332 17.5000648,3.79539084 17.5000648,4.0715332 L17.5000648,6.89855051 L15.4014149,4.83977294 C14.2616825,3.72169614 12.8107281,2.96132761 11.2325315,2.65336925 C9.65437889,2.34541959 8.0184803,2.50338888 6.53131676,3.10768825 C5.04407191,3.71202064 3.77135968,4.73605251 2.87520981,6.05175328 C1.97897911,7.36757278 1.5,8.91559076 1.5,10.5 C1.5,12.0844088 1.97897911,13.6324282 2.87520981,14.948247 C3.77135992,16.2639484 5.04407191,17.2879791 6.53131676,17.892312 C8.01847982,18.4966106 9.65437889,18.654583 11.2325315,18.346632 C12.8107281,18.0386734 14.2616825,17.2783041 15.4014149,16.1602278 C15.5985403,15.9668474 15.6015768,15.650279 15.4081964,15.4531536 C15.2148161,15.2560272 14.8982477,15.2529917 14.7011223,15.446372 C13.7024374,16.4260817 12.4288816,17.0943241 11.0410099,17.3651438 C9.65309525,17.635972 8.21458054,17.4968901 6.90776825,16.9658756 C5.6010375,16.4348936 4.4856987,15.5363398 3.70170593,14.3853045 C2.91779363,13.2343874 2.5,11.882309 2.5,10.5 C2.5,9.11769104 2.91779363,7.7656126 3.70170593,6.61469603 C4.4856987,5.46366072 5.60103798,4.56510615 6.90776825,4.03412449 C8.21458006,3.50310981 9.65309429,3.36402953 11.0410099,3.63485777 Z" id="Union" fill="#000000" fill-rule="nonzero" mask="url(#mask-2)"></path>
                            </g>
                            <g id="Property-1=20,-Property-2=ic_-clockwise_primary" transform="translate(0.000000, 40.000000)">
                                <mask id="mask-4" fill="white">
                                    <use xlink:href="#path-3"></use>
                                </mask>
                                <g id="Property-1=20,-Property-2=ic_-clockwise_primary-(Background/Mask)"></g>
                                <path d="M11.0410099,3.63485777 C12.4288816,3.90567732 13.7024374,4.57391906 14.7011223,5.55362868 L17.0493536,7.85724735 L13.7333984,7.85724735 C13.4572563,7.85724735 13.2333984,8.08110476 13.2333984,8.35724735 C13.2333984,8.63338947 13.4572563,8.85724735 13.7333984,8.85724735 L18.0000648,8.85724735 C18.276207,8.85724735 18.5000648,8.63338947 18.5000648,8.35724735 L18.5000648,4.0715332 C18.5000648,3.79539084 18.276207,3.5715332 18.0000648,3.5715332 C17.7239227,3.5715332 17.5000648,3.79539084 17.5000648,4.0715332 L17.5000648,6.89855051 L15.4014149,4.83977294 C14.2616825,3.72169614 12.8107281,2.96132761 11.2325315,2.65336925 C9.65437889,2.34541959 8.0184803,2.50338888 6.53131676,3.10768825 C5.04407191,3.71202064 3.77135968,4.73605251 2.87520981,6.05175328 C1.97897911,7.36757278 1.5,8.91559076 1.5,10.5 C1.5,12.0844088 1.97897911,13.6324282 2.87520981,14.948247 C3.77135992,16.2639484 5.04407191,17.2879791 6.53131676,17.892312 C8.01847982,18.4966106 9.65437889,18.654583 11.2325315,18.346632 C12.8107281,18.0386734 14.2616825,17.2783041 15.4014149,16.1602278 C15.5985403,15.9668474 15.6015768,15.650279 15.4081964,15.4531536 C15.2148161,15.2560272 14.8982477,15.2529917 14.7011223,15.446372 C13.7024374,16.4260817 12.4288816,17.0943241 11.0410099,17.3651438 C9.65309525,17.635972 8.21458054,17.4968901 6.90776825,16.9658756 C5.6010375,16.4348936 4.4856987,15.5363398 3.70170593,14.3853045 C2.91779363,13.2343874 2.5,11.882309 2.5,10.5 C2.5,9.11769104 2.91779363,7.7656126 3.70170593,6.61469603 C4.4856987,5.46366072 5.60103798,4.56510615 6.90776825,4.03412449 C8.21458006,3.50310981 9.65309429,3.36402953 11.0410099,3.63485777 Z" id="Union" fill="#FF664D" fill-rule="nonzero" mask="url(#mask-4)"></path>
                            </g>
                        </g>
                    </g>
                </g>
            </g>
        </g>
    </g>
</svg>