<?xml version="1.0" encoding="UTF-8"?>
<svg width="20px" height="20px" viewBox="0 0 20 20" version="1.1" xmlns="http://www.w3.org/2000/svg" xmlns:xlink="http://www.w3.org/1999/xlink">
    <title>06585C28-C7E7-2B8C-F3AC-400025DEE1B3</title>
    <defs>
        <rect id="path-1" x="0" y="0" width="20" height="20"></rect>
    </defs>
    <g id="💎-Components" stroke="none" stroke-width="1" fill="none" fill-rule="evenodd">
        <g id="Icons/Grid" transform="translate(-1050.000000, -1205.000000)">
            <g id="20dp" transform="translate(62.000000, 941.000000)">
                <g id="Black" transform="translate(954.000000, 0.000000)">
                    <g id="Icon-/-20-/-Black" transform="translate(34.000000, 41.000000)">
                        <g id="icons-/-20-/-ic_textsize_10_black" transform="translate(0.000000, 223.000000)">
                            <mask id="mask-2" fill="white">
                                <use xlink:href="#path-1"></use>
                            </mask>
                            <g id="Property-1=20,-Property-2=ic_textsize_10_black-(Background/Mask)"></g>
                            <path d="M9.06481266,16.9999657 L9.06481266,15.7839661 L6.69681263,15.7839661 L6.69681263,5.27196503 L5.57681274,5.27196503 C4.95281267,5.65596485 4.20081258,5.92796516 3.14481258,6.10396481 L3.14481258,7.04796505 L5.24081278,7.04796505 L5.24081278,15.7839661 L2.6328125,15.7839661 L2.6328125,16.9999657 L9.06481266,16.9999657 Z M17.9798117,11.0959654 C17.9798117,7.03196526 16.5558133,5.06396484 14.3478136,5.06396484 C12.1078134,5.06396484 10.6838131,7.03196526 10.6838131,11.0959654 C10.6838131,15.1919656 12.1078134,17.2239666 14.3478136,17.2239666 C16.5558133,17.2239666 17.9798117,15.1919656 17.9798117,11.0959654 Z M12.0918131,11.0959654 C12.0918131,7.68796539 13.0038133,6.23196507 14.3478136,6.23196507 C15.6758137,6.23196507 16.5718126,7.68796539 16.5718126,11.0959654 C16.5718126,14.5519655 15.6758137,16.0399666 14.3478136,16.0399666 C13.0038133,16.0399666 12.0918131,14.5519655 12.0918131,11.0959654 Z" id="10" fill="#000000" mask="url(#mask-2)"></path>
                        </g>
                    </g>
                </g>
            </g>
        </g>
    </g>
</svg>