<?xml version="1.0" encoding="UTF-8"?>
<svg width="20px" height="20px" viewBox="0 0 20 20" version="1.1" xmlns="http://www.w3.org/2000/svg" xmlns:xlink="http://www.w3.org/1999/xlink">
    <title>A7E26DC7-0B31-42AC-A8B8-85DB8B61AADB</title>
    <g id="학습창" stroke="none" stroke-width="1" fill="none" fill-rule="evenodd">
        <g id="Cube_Case" transform="translate(-340.000000, -210.000000)">
            <g id="Icons-/-20-/-ic_webpage_black" transform="translate(340.000000, 210.000000)">
                <rect id="area" x="0" y="0" width="20" height="20"></rect>
                <path d="M4,4.5 L4,5.5 L5,5.5 L5,4.5 L4,4.5 Z M7,4.5 L7,5.5 L6,5.5 L6,4.5 L7,4.5 Z M8,4.5 L8,5.5 L9,5.5 L9,4.5 L8,4.5 Z M2,17.5 L18,17.5 C18.5522881,17.5 19,17.0522823 19,16.5 L19,3.5 C19,2.94771522 18.5522861,2.5 18,2.5 L2,2.5 C1.44771576,2.5 1,2.94771683 1,3.5 L1,16.5 C1,17.0522842 1.44771707,17.5 2,17.5 Z M2,16.5 L2,7.5 L18,7.5 L18,16.5 L2,16.5 Z M18,6.5 L2,6.5 L2,3.5 L18,3.5 L18,6.5 Z" id="Union" fill="#000000"></path>
            </g>
        </g>
    </g>
</svg>