<?xml version="1.0" encoding="UTF-8"?>
<svg width="24px" height="24px" viewBox="0 0 24 24" version="1.1" xmlns="http://www.w3.org/2000/svg" xmlns:xlink="http://www.w3.org/1999/xlink">
    <title>ECCC8773-F862-4AB1-AB53-49C74D24D8C0</title>
    <defs>
        <rect id="path-1" x="0" y="0" width="24" height="24"></rect>
    </defs>
    <g id="💎-Components" stroke="none" stroke-width="1" fill="none" fill-rule="evenodd">
        <g id="Icons/Grid/Keep" transform="translate(-1540.000000, -1391.000000)">
            <g id="24dp" transform="translate(62.000000, 1263.000000)">
                <g id="Black" transform="translate(954.000000, 0.000000)">
                    <g id="Icon-/-24-/-Black" transform="translate(40.000000, 40.000000)">
                        <g id="icons-/-24-/-ic_delete_pl" transform="translate(484.000000, 88.000000)">
                            <mask id="mask-2" fill="white">
                                <use xlink:href="#path-1"></use>
                            </mask>
                            <g id="icon24-(Background/Mask)"></g>
                            <path d="M12,21 C16.9705627,21 21,16.9705627 21,12 C21,7.02943725 16.9705627,3 12,3 C7.02943725,3 3,7.02943725 3,12 C3,16.9705627 7.02943725,21 12,21 Z" id="Ellipse-390" fill="#A4A6AA" mask="url(#mask-2)"></path>
                            <path d="M8.17717218,9.05280909 L11.1532954,12.0036166 L8.20248756,14.9797403 C7.96967523,15.21455 7.97129423,15.5936324 8.20610409,15.8264449 C8.44091395,16.0592574 8.81999648,16.057638 9.0528088,15.8228283 L12.0036166,12.8467046 L14.9797403,15.7975128 C15.2145498,16.0303249 15.5936318,16.0287061 15.8264443,15.7938962 C16.0592568,15.5590863 16.0576378,15.1800037 15.8228283,14.9471916 L12.846704,11.9963834 L15.7975122,9.0202598 C16.0303243,8.78545035 16.0287055,8.40636782 15.7938956,8.17355532 C15.5590862,7.94074321 15.1800032,7.94236239 14.9471911,8.17717184 L11.9963834,11.1532957 L9.02025994,8.20248784 C8.78545029,7.96967554 8.40636795,7.9712945 8.17355545,8.20610436 C7.94074294,8.44091422 7.94236251,8.81999676 8.17717218,9.05280909 Z" id="Union" fill="#FFFFFF" fill-rule="nonzero" mask="url(#mask-2)"></path>
                        </g>
                    </g>
                </g>
            </g>
        </g>
    </g>
</svg>