<svg width="17" height="16" viewBox="0 0 17 16" xmlns="http://www.w3.org/2000/svg">
    <g fill="none" fill-rule="evenodd">
        <path d="M.07 0h16v16h-16z"/>
        <g fill="#FFF">
            <path d="m15.343 9.593.572 2.286a.5.5 0 0 1-.97.242l-.45-1.8-1.801.45a.5.5 0 1 1-.243-.97l2.286-.572a.5.5 0 0 1 .606.364z"/>
            <path d="M15.33 9.88A8.226 8.226 0 0 1 8 15.358a7.357 7.357 0 0 1-6.915-4.843.5.5 0 1 1 .94-.342 6.357 6.357 0 0 0 5.962 4.185 7.226 7.226 0 0 0 6.4-4.81.5.5 0 1 1 .942.334z"/>
        </g>
        <g fill="#FFF">
            <path d="m1.056 3.879.45 1.8 1.8-.45a.5.5 0 0 1 .243.97l-2.286.572a.5.5 0 0 1-.606-.364L.085 4.12a.5.5 0 1 1 .97-.242z"/>
            <path d="M1.612 6.457a.5.5 0 0 1-.939-.343c.516-1.413 1.556-2.773 2.845-3.78C4.807 1.328 6.386.643 8 .643H8a7.357 7.357 0 0 1 6.916 4.905.5.5 0 0 1-.943.333A6.357 6.357 0 0 0 8 1.643c-1.335 0-2.703.572-3.866 1.48-1.162.907-2.077 2.12-2.52 3.334z"/>
        </g>
    </g>
</svg>
