<svg width="12" height="12" viewBox="0 0 12 12" xmlns="http://www.w3.org/2000/svg" xmlns:xlink="http://www.w3.org/1999/xlink">
    <defs>
        <path id="pjs51wfmla" d="M3.248 2.742h6.786v5.5H3.248z"/>
        <mask id="3n4jorekdb" maskContentUnits="userSpaceOnUse" maskUnits="objectBoundingBox" x="0" y="0" width="6.786" height="5.5" fill="#fff">
            <use xlink:href="#pjs51wfmla"/>
        </mask>
    </defs>
    <g fill="none" fill-rule="evenodd">
        <path d="M0 0h12v12H0z"/>
        <path d="m6.854.146 5 5a.5.5 0 1 1-.708.708l-5-5a.5.5 0 1 1 .708-.708zM1.854 5.146l5 5a.5.5 0 1 1-.708.708l-5-5a.5.5 0 1 1 .708-.708z" fill="#FFF"/>
        <path d="M1.146 10.146 3.5 7.793l.707.707-2.353 2.354a.5.5 0 0 1-.708-.708z" fill="#FFF"/>
        <use stroke="#FFF" mask="url(#3n4jorekdb)" stroke-width="2" fill="#FFF" stroke-dasharray="0,0" transform="rotate(-45 6.64 5.492)" xlink:href="#pjs51wfmla"/>
    </g>
</svg>
