<?xml version="1.0" encoding="UTF-8"?>
<svg width="24px" height="24px" viewBox="0 0 24 24" version="1.1" xmlns="http://www.w3.org/2000/svg" xmlns:xlink="http://www.w3.org/1999/xlink">
    <title>AB7D1544-4D56-600C-A803-8DBCDFA116BE</title>
    <defs>
        <rect id="path-1" x="0" y="0" width="24" height="24"></rect>
    </defs>
    <g id="💎-Components" stroke="none" stroke-width="1" fill="none" fill-rule="evenodd">
        <g id="Icons/Grid" transform="translate(-1276.000000, -1391.000000)">
            <g id="24dp" transform="translate(62.000000, 1263.000000)">
                <g id="Black" transform="translate(954.000000, 0.000000)">
                    <g id="Icon-/-24-/-Black" transform="translate(40.000000, 40.000000)">
                        <g id="Icons-/-24-/-ic_learningtime_black" transform="translate(220.000000, 88.000000)">
                            <mask id="mask-2" fill="white">
                                <use xlink:href="#path-1"></use>
                            </mask>
                            <g id="Icons-/-24-/-ic_learningtime_black-(Background/Mask)"></g>
                            <path d="M12,6.75 C11.5857868,6.75 11.25,7.08578634 11.25,7.5 L11.25,12 C11.25,12.1989117 11.3290176,12.389678 11.4696703,12.5303307 L14.9696693,16.0303297 C15.2625637,16.3232231 15.7374363,16.3232231 16.0303307,16.0303297 C16.3232231,15.7374372 16.3232231,15.2625628 16.0303307,14.9696693 L12.75,11.6893396 L12.75,7.5 C12.75,7.08578634 12.4142132,6.75 12,6.75 Z M12,22 C6.47715235,22 2,17.5228472 2,12 C2,6.47715235 6.47715235,2 12,2 C17.5228472,2 22,6.47715235 22,12 C22,17.5228472 17.5228472,22 12,22 Z M12,20.5 C7.30557966,20.5 3.5,16.6944208 3.5,12 C3.5,7.30557966 7.30557966,3.5 12,3.5 C16.6944208,3.5 20.5,7.30557966 20.5,12 C20.5,16.6944208 16.6944208,20.5 12,20.5 Z" id="Union" fill="#000000" mask="url(#mask-2)"></path>
                        </g>
                    </g>
                </g>
            </g>
        </g>
    </g>
</svg>