<svg width="16" height="16" viewBox="0 0 16 16" xmlns="http://www.w3.org/2000/svg">
    <g fill="none" fill-rule="evenodd">
        <path d="M0 0h16v16H0V0z"/>
        <path d="M11.398 1a1.506 1.506 0 0 1 1.066.442v.001l2.093 2.114a1.497 1.497 0 0 1-.001 2.125h-.001L11.37 8.855a.5.5 0 1 1-.706-.708l3.188-3.175a.498.498 0 0 0 0-.705l-.004-.004-2.093-2.114a.506.506 0 0 0-.714 0L7.854 5.35a.5.5 0 1 1-.708-.706l3.186-3.203A1.504 1.504 0 0 1 11.398 1zM5.102 14.5a1.506 1.506 0 0 1-1.066-.442v-.001l-2.093-2.114a1.497 1.497 0 0 1 .001-2.125h.001L5.13 6.645a.5.5 0 1 1 .706.708L2.648 10.53a.498.498 0 0 0 0 .705l.004.004 2.093 2.114a.506.506 0 0 0 .714 0l3.187-3.203a.5.5 0 1 1 .708.706l-3.186 3.203a1.504 1.504 0 0 1-1.066.442zm5.252-8.854a.5.5 0 0 0-.708 0l-3 3a.5.5 0 1 0 .708.708l3-3a.5.5 0 0 0 0-.708z" fill="#000"/>
    </g>
</svg>
