<?xml version="1.0" encoding="UTF-8"?>
<svg width="20px" height="60px" viewBox="0 0 20 60" version="1.1" xmlns="http://www.w3.org/2000/svg" xmlns:xlink="http://www.w3.org/1999/xlink">
    <title>378A7196-8C86-D6F5-A46E-0F53F8CFFFD4</title>
    <defs>
        <rect id="path-1" x="0" y="0" width="20" height="20"></rect>
        <rect id="path-3" x="0" y="0" width="20" height="20"></rect>
    </defs>
    <g id="💎-Components" stroke="none" stroke-width="1" fill="none" fill-rule="evenodd">
        <g id="Icons/Grid" transform="translate(-1412.000000, -1115.000000)">
            <g id="20dp" transform="translate(62.000000, 941.000000)">
                <g id="Black" transform="translate(954.000000, 0.000000)">
                    <g id="Icon-/-20-/-Black" transform="translate(34.000000, 41.000000)">
                        <g id="icons-/-20-/-ic_text_number_off_on" transform="translate(362.000000, 133.000000)">
                            <g id="Property-1=20,-Property-2=ic_text_number_black">
                                <mask id="mask-2" fill="white">
                                    <use xlink:href="#path-1"></use>
                                </mask>
                                <g id="Property-1=20,-Property-2=ic_text_number_black-(Background/Mask)"></g>
                                <path d="M4.5,2 L4.5,8 C4.5,8.27615166 4.27614665,8.5 4,8.5 C3.72386193,8.5 3.5,8.27615166 3.5,8 L3.5,3.12269056 L2.33448666,4.17165637 C2.12923163,4.35638595 1.81308675,4.33974671 1.62835725,4.13449168 C1.44362773,3.92923689 1.4602669,3.61309195 1.66552193,3.42836225 L3.6655221,1.62836221 C3.81228971,1.49627146 4.02304816,1.46292677 4.20342374,1.54325923 C4.38379908,1.62359171 4.5,1.8025538 4.5,2 Z M8,2.5 L19,2.5 C19.2761421,2.5 19.5,2.72385764 19.5,3 C19.5,3.27614236 19.2761421,3.5 19,3.5 L8,3.5 C7.7238574,3.5 7.5,3.27614236 7.5,3 C7.5,2.72385764 7.7238574,2.5 8,2.5 Z M8,9.5 L19,9.5 C19.2761421,9.5 19.5,9.72385788 19.5,10 C19.5,10.2761421 19.2761421,10.5 19,10.5 L8,10.5 C7.7238574,10.5 7.5,10.2761421 7.5,10 C7.5,9.72385788 7.7238574,9.5 8,9.5 Z M7.5,17 C7.5,17.2761421 7.7238574,17.5 8,17.5 L19,17.5 C19.2761421,17.5 19.5,17.2761421 19.5,17 C19.5,16.7238579 19.2761421,16.5 19,16.5 L8,16.5 C7.7238574,16.5 7.5,16.7238579 7.5,17 Z M3.57931685,11.5031691 C3.71836329,11.5142632 3.85355163,11.5543156 3.97619867,11.6207561 C4.09884524,11.6871958 4.20623994,11.778554 4.29148507,11.8889618 C4.3767302,11.9993696 4.43793941,12.1263857 4.47118187,12.2618504 C4.50442481,12.397316 4.50896621,12.5382385 4.48451471,12.6755638 C4.46072125,12.8091936 4.40998578,12.9365435 4.33543944,13.0498791 L1.59988955,16.7001514 C1.48633558,16.851675 1.46811873,17.0543461 1.55283151,17.2236919 C1.6375443,17.3930368 1.81065086,17.5 2,17.5 L5,17.5 C5.27613878,17.5 5.5,17.2761421 5.5,17 C5.5,16.7238579 5.27613878,16.5 5,16.5 L2.99953091,16.5 L5.14393187,13.6385469 C5.14893603,13.6318693 5.15377259,13.6250677 5.1584363,13.6181479 C5.31433582,13.3868408 5.42013216,13.1254835 5.4690299,12.8508625 C5.51792812,12.5762415 5.50884581,12.2944279 5.44236732,12.0235252 C5.37588859,11.7526217 5.25348282,11.4986191 5.08301425,11.2778301 C4.91254568,11.0570421 4.6977818,10.8743467 4.4525156,10.7414818 C4.20724988,10.6086178 3.93690658,10.5285215 3.65884995,10.5063362 C3.38079154,10.4841509 3.10116816,10.5203695 2.8379395,10.6126623 C2.57471049,10.7049561 2.33369446,10.851284 2.13037199,11.0422506 C1.92705056,11.2332163 1.76591814,11.4645958 1.65732487,11.7215309 C1.54982112,11.9758883 1.66886932,12.2692347 1.92322648,12.3767376 C2.17758363,12.4842415 2.47092986,12.3651934 2.57843363,12.110836 C2.63273585,11.9823561 2.71331072,11.8666525 2.81498408,11.7711582 C2.91665649,11.6756649 3.03717864,11.6024914 3.16881037,11.5563393 C3.30044258,11.5101862 3.44027197,11.492075 3.57931685,11.5031691 Z" id="Union" fill="#000000" mask="url(#mask-2)"></path>
                            </g>
                            <g id="Property-1=20,-Property-2=ic_text_number_primary" transform="translate(0.000000, 40.000000)">
                                <mask id="mask-4" fill="white">
                                    <use xlink:href="#path-3"></use>
                                </mask>
                                <g id="Property-1=20,-Property-2=ic_text_number_primary-(Background/Mask)"></g>
                                <path d="M4.5,2 L4.5,8 C4.5,8.27615166 4.27614665,8.5 4,8.5 C3.72386193,8.5 3.5,8.27615166 3.5,8 L3.5,3.12269056 L2.33448666,4.17165637 C2.12923163,4.35638595 1.81308675,4.33974671 1.62835725,4.13449168 C1.44362773,3.92923689 1.4602669,3.61309195 1.66552193,3.42836225 L3.6655221,1.62836221 C3.81228971,1.49627146 4.02304816,1.46292677 4.20342374,1.54325923 C4.38379908,1.62359171 4.5,1.8025538 4.5,2 Z M8,2.5 L19,2.5 C19.2761421,2.5 19.5,2.72385764 19.5,3 C19.5,3.27614236 19.2761421,3.5 19,3.5 L8,3.5 C7.7238574,3.5 7.5,3.27614236 7.5,3 C7.5,2.72385764 7.7238574,2.5 8,2.5 Z M8,9.5 L19,9.5 C19.2761421,9.5 19.5,9.72385788 19.5,10 C19.5,10.2761421 19.2761421,10.5 19,10.5 L8,10.5 C7.7238574,10.5 7.5,10.2761421 7.5,10 C7.5,9.72385788 7.7238574,9.5 8,9.5 Z M7.5,17 C7.5,17.2761421 7.7238574,17.5 8,17.5 L19,17.5 C19.2761421,17.5 19.5,17.2761421 19.5,17 C19.5,16.7238579 19.2761421,16.5 19,16.5 L8,16.5 C7.7238574,16.5 7.5,16.7238579 7.5,17 Z M3.57931685,11.5031691 C3.71836329,11.5142632 3.85355163,11.5543156 3.97619867,11.6207561 C4.09884524,11.6871958 4.20623994,11.778553 4.29148507,11.8889618 C4.3767302,11.9993706 4.43793941,12.1263857 4.47118187,12.2618504 C4.50442481,12.397316 4.50896621,12.5382385 4.48451471,12.6755638 C4.46072125,12.8091946 4.40998578,12.9365435 4.33543944,13.0498791 L1.59988955,16.7001514 C1.48633558,16.851675 1.46811873,17.0543461 1.55283151,17.2236919 C1.6375443,17.3930368 1.81065086,17.5 2,17.5 L5,17.5 C5.27613878,17.5 5.5,17.2761421 5.5,17 C5.5,16.7238579 5.27613878,16.5 5,16.5 L2.99953091,16.5 L5.14393187,13.6385469 C5.14893603,13.6318693 5.15377259,13.6250677 5.1584363,13.6181479 C5.31433582,13.3868408 5.42013216,13.1254845 5.4690299,12.8508625 C5.51792812,12.5762415 5.50884581,12.2944279 5.44236732,12.0235252 C5.37588859,11.7526217 5.25348282,11.4986191 5.08301425,11.2778301 C4.91254568,11.0570421 4.6977818,10.8743467 4.4525156,10.7414818 C4.20724988,10.6086178 3.93690658,10.5285215 3.65884995,10.5063362 C3.38079154,10.4841509 3.10116816,10.5203695 2.8379395,10.6126623 C2.57471049,10.7049561 2.33369446,10.851284 2.13037199,11.0422506 C1.92705056,11.2332163 1.76591814,11.4645958 1.65732487,11.7215309 C1.54982112,11.9758883 1.66886932,12.2692347 1.92322648,12.3767376 C2.17758363,12.4842415 2.47092986,12.3651934 2.57843363,12.110836 C2.63273585,11.9823561 2.71331072,11.8666534 2.81498408,11.7711582 C2.91665649,11.6756649 3.03717864,11.6024914 3.16881037,11.5563393 C3.30044258,11.5101862 3.44027197,11.492075 3.57931685,11.5031691 Z" id="Union" fill="#FF664D" mask="url(#mask-4)"></path>
                            </g>
                        </g>
                    </g>
                </g>
            </g>
        </g>
    </g>
</svg>