<?xml version="1.0" encoding="UTF-8"?>
<svg width="24px" height="24px" viewBox="0 0 24 24" version="1.1" xmlns="http://www.w3.org/2000/svg" xmlns:xlink="http://www.w3.org/1999/xlink">
    <title>1C28CB76-C162-5438-8193-7B68B26414D9</title>
    <g id="💎-Components" stroke="none" stroke-width="1" fill="none" fill-rule="evenodd">
        <g id="Icons/Grid" transform="translate(-268.000000, -1303.000000)">
            <g id="24dp" transform="translate(62.000000, 1263.000000)">
                <g id="White" transform="translate(122.000000, 0.000000)">
                    <g id="Icon-/-24-/-White" transform="translate(40.000000, 40.000000)">
                        <g id="Icons-/-24-/-ic_pip_stop_white" transform="translate(44.000000, 0.000000)">
                            <rect id="area" x="0" y="0" width="24" height="24"></rect>
                            <path d="M5,2 L8.76953125,2 C8.93336518,1.99958685 9.09479207,2.03943039 9.23949337,2.11626354 C9.74649779,2.38433377 10,2.6789126 10,3 L10,20.7758789 C9.99932945,20.9373901 9.95955619,21.0963377 9.8839616,21.2390675 C9.61583116,21.7463558 9.32117729,22 9,22 L5.23046875,22 C5.06663482,22.0004132 4.90520793,21.9605696 4.76050663,21.8837365 C4.25350221,21.6156662 4,21.3210874 4,21 L4,3.22412109 C4.00067055,3.0626099 4.04044381,2.90366228 4.1160384,2.76093251 C4.38416884,2.25364417 4.67882271,2 5,2 Z M15,2 L19,2 C19.5522847,2 20,2.44771528 20,3 L20,21 C20,21.5522847 19.5522847,22 19,22 L15,22 C14.4477153,22 14,21.5522847 14,21 L14,3 C14,2.44771552 14.4477153,2 15,2 Z" id="Vector" fill="#FFFFFF"></path>
                        </g>
                    </g>
                </g>
            </g>
        </g>
    </g>
</svg>