<?xml version="1.0" encoding="UTF-8"?>
<svg width="20px" height="20px" viewBox="0 0 20 20" version="1.1" xmlns="http://www.w3.org/2000/svg" xmlns:xlink="http://www.w3.org/1999/xlink">
    <title>F96F16EA-3A00-88D7-5E86-DE198BD07A1D</title>
    <defs>
        <rect id="path-1" x="0" y="0" width="20" height="20"></rect>
    </defs>
    <g id="💎-Components" stroke="none" stroke-width="1" fill="none" fill-rule="evenodd">
        <g id="Icons/Grid" transform="translate(-1170.000000, -982.000000)">
            <g id="20dp" transform="translate(62.000000, 941.000000)">
                <g id="Black" transform="translate(954.000000, 0.000000)">
                    <g id="Icon-/-20-/-Black" transform="translate(34.000000, 41.000000)">
                        <g id="Icons-/-20-/-ic_time_grey05" transform="translate(120.000000, 0.000000)">
                            <mask id="mask-2" fill="white">
                                <use xlink:href="#path-1"></use>
                            </mask>
                            <g id="Icons-/-20-/-ic_time_grey05-(Background/Mask)"></g>
                            <path d="M10.0001221,4.5 C10.2762642,4.5 10.5001221,4.72385764 10.5001221,5 L10.5001221,9.80010986 L13.5464706,12.8464594 C13.7417336,13.0417213 13.7417336,13.3583031 13.5464706,13.553566 C13.3512087,13.7488279 13.034626,13.7488279 12.8393641,13.553566 L9.65738392,10.3715849 C9.62484169,10.3390427 9.59772301,10.3031311 9.57602787,10.2649736 C9.5279274,10.1881504 9.50012207,10.0973225 9.50012207,10 L9.50012207,5 C9.50012207,4.7238574 9.72397995,4.5 10.0001221,4.5 Z M19,10 C19,5.02943707 14.9705629,1 10,1 C5.02943707,1 1,5.02943707 1,10 C1,14.9705629 5.02943707,19 10,19 C14.9705629,19 19,14.9705629 19,10 Z M10,18 C5.58172178,18 2,14.4182777 2,10 C2,5.58172178 5.58172178,2 10,2 C14.4182777,2 18,5.58172178 18,10 C18,14.4182777 14.4182777,18 10,18 Z" id="Union" fill="#A4A6AA" mask="url(#mask-2)"></path>
                        </g>
                    </g>
                </g>
            </g>
        </g>
    </g>
</svg>