<svg width="80" height="80" viewBox="0 0 80 80" xmlns="http://www.w3.org/2000/svg">
    <g fill="none" fill-rule="evenodd">
        <path d="M40 80C17.909 80 0 62.091 0 40S17.909 0 40 0s40 17.909 40 40-17.909 40-40 40z" fill="#F2F3F5"/>
        <path d="M40 43.636c-7.03 0-12.727-5.698-12.727-12.727S32.97 18.182 40 18.182c7.03 0 12.727 5.698 12.727 12.727 0 7.03-5.698 12.727-12.727 12.727zM66.836 69.66C59.738 76.087 50.326 80 40 80c-10.327 0-19.74-3.913-26.836-10.338C15.466 56.93 26.605 47.272 40 47.272c13.395 0 24.534 9.657 26.836 22.388z" fill="#FFF"/>
    </g>
</svg>
