<?xml version="1.0" encoding="UTF-8"?>
<svg width="20px" height="60px" viewBox="0 0 20 60" version="1.1" xmlns="http://www.w3.org/2000/svg" xmlns:xlink="http://www.w3.org/1999/xlink">
    <title>A6921CAC-5BE9-D29D-59E5-038DA0F8D5E0</title>
    <defs>
        <rect id="path-1" x="0" y="0" width="20" height="20"></rect>
        <rect id="path-3" x="0" y="0" width="20" height="20"></rect>
    </defs>
    <g id="💎-Components" stroke="none" stroke-width="1" fill="none" fill-rule="evenodd">
        <g id="Icons/Grid" transform="translate(-1132.000000, -1115.000000)">
            <g id="20dp" transform="translate(62.000000, 941.000000)">
                <g id="Black" transform="translate(954.000000, 0.000000)">
                    <g id="Icon-/-20-/-Black" transform="translate(34.000000, 41.000000)">
                        <g id="icons-/-20-/-ic_text_size_off_on" transform="translate(82.000000, 133.000000)">
                            <g id="Property-1=20,-Property-2=ic_text_size_black">
                                <mask id="mask-2" fill="white">
                                    <use xlink:href="#path-1"></use>
                                </mask>
                                <g id="Property-1=20,-Property-2=ic_text_size_black-(Background/Mask)"></g>
                                <path d="M3,2 L16.5,2 C16.7761431,2 17,2.22385761 17,2.5 L17,5.5 C17,5.7761426 16.7761431,6 16.5,6 C16.2238579,6 16,5.7761426 16,5.5 L16,3 L10.2492523,3 L10.2495117,3.01681411 L10.2495117,16.9823303 C10.2495117,16.98808 10.2494206,16.9938078 10.2492409,16.9995117 L12.7495117,16.9995117 C13.0256538,16.9995117 13.2495117,17.2233696 13.2495117,17.4995117 C13.2495117,17.7756538 13.0256538,17.9995117 12.7495117,17.9995117 L6.74951172,17.9995117 C6.47336936,17.9995117 6.24951172,17.7756538 6.24951172,17.4995117 C6.24951172,17.2233696 6.47336936,16.9995117 6.74951172,16.9995117 L9.24978256,16.9995117 C9.24960279,16.9938078 9.24951172,16.98808 9.24951172,16.9823303 L9.24951172,3.01681411 L9.24977112,3 L3.5,3 L3.5,5.5 C3.5,5.7761426 3.27614236,6 3,6 C2.72385761,6 2.5,5.7761426 2.5,5.5 L2.5,2.5 C2.5,2.22385761 2.72385761,2 3,2 Z" id="Union" fill="#000000" fill-rule="nonzero" mask="url(#mask-2)"></path>
                            </g>
                            <g id="Property-1=20,-Property-2=ic_text_size_primary" transform="translate(0.000000, 40.000000)">
                                <mask id="mask-4" fill="white">
                                    <use xlink:href="#path-3"></use>
                                </mask>
                                <g id="Property-1=20,-Property-2=ic_text_size_primary-(Background/Mask)"></g>
                                <path d="M3,2 L16.5,2 C16.7761431,2 17,2.22385761 17,2.5 L17,5.5 C17,5.7761426 16.7761431,6 16.5,6 C16.2238579,6 16,5.7761426 16,5.5 L16,3 L10.2492523,3 L10.2495117,3.01681411 L10.2495117,16.9823303 C10.2495117,16.98808 10.2494206,16.9938078 10.2492409,16.9995117 L12.7495117,16.9995117 C13.0256538,16.9995117 13.2495117,17.2233696 13.2495117,17.4995117 C13.2495117,17.7756538 13.0256538,17.9995117 12.7495117,17.9995117 L6.74951172,17.9995117 C6.47336936,17.9995117 6.24951172,17.7756538 6.24951172,17.4995117 C6.24951172,17.2233696 6.47336936,16.9995117 6.74951172,16.9995117 L9.24978256,16.9995117 C9.24960279,16.9938078 9.24951172,16.98808 9.24951172,16.9823303 L9.24951172,3.01681411 L9.24977112,3 L3.5,3 L3.5,5.5 C3.5,5.7761426 3.27614236,6 3,6 C2.72385761,6 2.5,5.7761426 2.5,5.5 L2.5,2.5 C2.5,2.22385761 2.72385761,2 3,2 Z" id="Union" fill="#FF664D" fill-rule="nonzero" mask="url(#mask-4)"></path>
                            </g>
                        </g>
                    </g>
                </g>
            </g>
        </g>
    </g>
</svg>