<?xml version="1.0" encoding="UTF-8"?>
<svg width="16px" height="16px" viewBox="0 0 16 16" version="1.1" xmlns="http://www.w3.org/2000/svg" xmlns:xlink="http://www.w3.org/1999/xlink">
    <title>E0763322-03AB-6CAC-35A3-A8AA9F2151D9</title>
    <g id="💎-Components" stroke="none" stroke-width="1" fill="none" fill-rule="evenodd">
        <g id="Icons/Grid" transform="translate(-1128.000000, -805.000000)">
            <g id="16dp" transform="translate(62.000000, 729.000000)">
                <g id="Black" transform="translate(954.000000, 0.000000)">
                    <g id="Group-5836" transform="translate(40.000000, 39.999999)">
                        <g id="Icons-/-16-/-ic_task_grey06" transform="translate(72.000000, 36.000001)">
                            <rect id="area" x="0" y="0" width="16" height="16"></rect>
                            <path d="M5.28248458,12.4600801 L2.7774394,13.0863409 C2.63096313,13.1229601 2.49828451,12.9902811 2.5349031,12.8438053 L3.16116433,10.3387594 L11.6464458,1.85347795 C11.8417078,1.65821582 12.1582904,1.65821561 12.3535533,1.85347775 L13.7677665,3.26769125 C13.9630285,3.46295345 13.9630285,3.77953601 13.7677665,3.97479796 L5.28248458,12.4600801 Z M11.9999996,2.91413784 L12.7071062,3.62124467 L4.77123528,11.5571156 L3.82842641,11.7928181 L4.06412845,10.850009 L11.9999996,2.91413784 Z M0.999999571,14.4999247 C0.999999571,14.7760668 1.22385697,14.9999247 1.49999957,14.9999247 L14.4999996,14.9999247 C14.7761417,14.9999247 14.9999996,14.7760668 14.9999996,14.4999247 C14.9999996,14.2237825 14.7761417,13.9999247 14.4999996,13.9999247 L1.49999957,13.9999247 C1.22385721,13.9999247 0.999999571,14.2237825 0.999999571,14.4999247 Z" id="Union" fill="#75777B"></path>
                        </g>
                    </g>
                </g>
            </g>
        </g>
    </g>
</svg>