<?xml version="1.0" encoding="UTF-8"?>
<svg width="16px" height="16px" viewBox="0 0 16 16" version="1.1" xmlns="http://www.w3.org/2000/svg" xmlns:xlink="http://www.w3.org/1999/xlink">
    <title>54FA06D5-DA55-4D23-A0D6-C71BFE45CC75</title>
    <g id="💎-Components" stroke="none" stroke-width="1" fill="none" fill-rule="evenodd">
        <g id="Icons/Grid" transform="translate(-1128.000000, -841.000000)">
            <g id="16dp" transform="translate(62.000000, 729.000000)">
                <g id="Black" transform="translate(954.000000, 0.000000)">
                    <g id="Group-5836" transform="translate(40.000000, 39.999999)">
                        <g id="Icons-/-16-/-ic_time_grey05" transform="translate(72.000000, 72.000001)">
                            <rect id="area" x="4.2913598e-07" y="0.0869140625" width="16" height="16"></rect>
                            <path d="M8,3.5 C8.27614212,3.5 8.5,3.72385764 8.5,4 L8.5,7.8001709 L10.5462265,9.8463974 C10.7414894,10.0416603 10.7414894,10.358242 10.5462265,10.5535049 C10.3509645,10.7487669 10.0343819,10.7487669 9.83911991,10.5535049 L7.71779966,8.43218422 C7.69917583,8.41355991 7.68232822,8.39383316 7.66725683,8.37321186 C7.56462288,8.28164196 7.5,8.14836788 7.5,8 L7.5,4 C7.5,3.72385764 7.7238574,3.5 8,3.5 Z M8,16 C3.58172178,16 0,12.4182777 0,8 C0,3.58172178 3.58172178,0 8,0 C12.4182777,0 16,3.58172178 16,8 C16,12.4182777 12.4182777,16 8,16 Z M15,8 C15,4.1340065 11.8659925,1 8,1 C4.1340065,1 1,4.1340065 1,8 C1,11.8659925 4.1340065,15 8,15 C11.8659925,15 15,11.8659925 15,8 Z" id="Union" fill="#A4A6AA"></path>
                        </g>
                    </g>
                </g>
            </g>
        </g>
    </g>
</svg>