<svg width="16" height="16" viewBox="0 0 16 16" xmlns="http://www.w3.org/2000/svg" xmlns:xlink="http://www.w3.org/1999/xlink">
    <defs>
        <path id="hxrkzsrgra" d="M0 0h16v16H0z"/>
    </defs>
    <g fill="none" fill-rule="evenodd">
        <mask id="j6u3bgzyvb" fill="#fff">
            <use xlink:href="#hxrkzsrgra"/>
        </mask>
        <path d="M6.996 10.48c0-1.272-.708-1.968-1.776-2.412l-1.164-.48c-.756-.3-1.392-.54-1.392-1.176 0-.576.492-.924 1.272-.924.732 0 1.32.264 1.896.732l.888-1.116c-.72-.732-1.752-1.14-2.784-1.14C2.148 3.964.864 5.08.864 6.532c0 1.284.912 2.016 1.8 2.376l1.188.504c.792.336 1.332.552 1.332 1.212 0 .612-.48 1.008-1.404 1.008-.78 0-1.632-.384-2.256-.972l-1.02 1.224a4.699 4.699 0 0 0 3.24 1.284c2.04 0 3.252-1.236 3.252-2.688zm3.16 2.52v-2.496l1.164-1.488L13.624 13h1.932l-3.192-5.388 2.724-3.492h-1.956L10.18 7.972h-.024V4.12H8.38V13h1.776z" fill="#FFF" mask="url(#j6u3bgzyvb)"/>
    </g>
</svg>
