<?xml version="1.0" encoding="UTF-8"?>
<svg width="32px" height="84px" viewBox="0 0 32 84" version="1.1" xmlns="http://www.w3.org/2000/svg" xmlns:xlink="http://www.w3.org/1999/xlink">
    <title>E083778C-4E1C-C5A1-BDC0-0B18B00BA594</title>
    <defs>
        <rect id="path-1" x="0" y="0" width="31.9999981" height="31.9999981"></rect>
    </defs>
    <g id="💎-Components" stroke="none" stroke-width="1" fill="none" fill-rule="evenodd">
        <g id="Icons/Grid" transform="translate(-1464.000000, -1625.000000)">
            <g id="etc" transform="translate(62.000000, 1585.000000)">
                <g id="Black" transform="translate(954.000000, 0.000000)">
                    <g id="Group-5843" transform="translate(30.000000, 40.000000)">
                        <g id="icons-/-32-/-ic_file_off_on" transform="translate(418.000000, 0.000000)">
                            <g id="Property-1=32,-Property-2=ic_file_black">
                                <mask id="mask-2" fill="white">
                                    <use xlink:href="#path-1"></use>
                                </mask>
                                <g id="Property-1=32,-Property-2=ic_file_black-(Background/Mask)"></g>
                                <path d="M0,27 L0,6 L30,6 C31.1045685,6 32,6.89543009 32,8 L32,27 C32,28.1045685 31.1045685,29 30,29 L2,29 C0.895430088,29 0,28.1045685 0,27 Z M2,27.5 L30,27.5 C30.276144,27.5 30.5,27.276144 30.5,27 L30.5,8 C30.5,7.72385716 30.2761421,7.5 30,7.5 L1.5,7.5 L1.5,27 C1.5,27.2761421 1.72385812,27.5 2,27.5 Z" id="Union-(Stroke)" fill="#000000" mask="url(#mask-2)"></path>
                                <path d="M1.5,4 L1.5,6 L16.8584499,6 L16.0690422,3.82912838 C15.9971905,3.63153362 15.8093987,3.5 15.5991459,3.5 L2,3.5 C1.72385764,3.5 1.5,3.72385764 1.5,4 Z M15.5991459,2 L2,2 C0.895430565,2 0,2.89543056 0,4 L0,7.5 L19,7.5 L17.4787331,3.31651402 C17.1913223,2.52613556 16.4401588,2 15.5991459,2 Z" id="Subtract-(Stroke)" fill="#000000" mask="url(#mask-2)"></path>
                            </g>
                            <g id="Property-1=32,-Property-2=ic_file_primary" transform="translate(0.000000, 52.000000)">
                                <path d="M0,0 L32,0 L32,32 L0,32 L0,0 Z" id="Property-1=32,-Property-2=ic_file_primary-(Background)"></path>
                                <path d="M0,27 L0,6 L30,6 C31.1045685,6 32,6.89543009 32,8 L32,27 C32,28.1045685 31.1045685,29 30,29 L2,29 C0.895430088,29 0,28.1045685 0,27 Z M2,27.5 L30,27.5 C30.276144,27.5 30.5,27.276144 30.5,27 L30.5,8 C30.5,7.72385716 30.2761421,7.5 30,7.5 L1.5,7.5 L1.5,27 C1.5,27.2761421 1.72385812,27.5 2,27.5 Z" id="Union-(Stroke)" fill="#FF664D"></path>
                                <path d="M1.5,4 L1.5,6 L16.8584499,6 L16.0690422,3.82912838 C15.9971905,3.63153362 15.8093987,3.5 15.5991459,3.5 L2,3.5 C1.72385764,3.5 1.5,3.72385764 1.5,4 Z M15.5991459,2 L2,2 C0.895430565,2 0,2.89543056 0,4 L0,7.5 L19,7.5 L17.4787331,3.31651402 C17.1913223,2.52613556 16.4401588,2 15.5991459,2 Z" id="Subtract-(Stroke)" fill="#FF664D"></path>
                            </g>
                        </g>
                    </g>
                </g>
            </g>
        </g>
    </g>
</svg>