<?xml version="1.0" encoding="UTF-8"?>
<svg width="16px" height="16px" viewBox="0 0 16 16" version="1.1" xmlns="http://www.w3.org/2000/svg" xmlns:xlink="http://www.w3.org/1999/xlink">
    <title>7944835A-B18C-1280-B47D-D24FA90DB0EA</title>
    <g id="💎-Components" stroke="none" stroke-width="1" fill="none" fill-rule="evenodd">
        <g id="Icons/Grid" transform="translate(-1344.000000, -877.000000)">
            <g id="16dp" transform="translate(62.000000, 729.000000)">
                <g id="Black" transform="translate(954.000000, 0.000000)">
                    <g id="Group-5836" transform="translate(40.000000, 39.999999)">
                        <g id="ic_level_1_grey05" transform="translate(287.999999, 108.000001)">
                            <rect id="area" x="0" y="0" width="16" height="16"></rect>
                            <path d="M1.0000007,2 L4.0000007,2 L4.0000007,13 L1.0000007,13 L1.0000007,2 Z" id="Rectangle-4588" fill="#38B1AD"></path>
                            <path d="M2.0000007,2 C1.44771586,2 1.0000007,2.44771528 1.0000007,3 L1.0000007,12 C1.0000007,12.5522842 1.44771598,13 2.0000007,13 L14.0000007,13 C14.5522859,13 15.0000007,12.5522852 15.0000007,12 L15.0000007,3 C15.0000007,2.44771528 14.5522849,2 14.0000007,2 L2.0000007,2 Z M6.99372322e-07,3 L6.99372322e-07,12 C6.99372322e-07,13.1045694 0.895431264,14 2.0000007,14 L14.0000007,14 C15.1045701,14 16.0000007,13.1045694 16.0000007,12 L16.0000007,3 C16.0000007,1.89543056 15.1045701,1 14.0000007,1 L2.0000007,1 C0.895431264,1 6.99372322e-07,1.89543045 6.99372322e-07,3 Z M3.5000007,2 L4.5000007,2 L4.5000007,13 L3.5000007,13 L3.5000007,2 Z M7.5000007,2 L8.5000007,2 L8.5000007,13 L7.5000007,13 L7.5000007,2 Z M11.5000007,2 L12.5000007,2 L12.5000007,13 L11.5000007,13 L11.5000007,2 Z" id="Vector" fill="#A4A6AA"></path>
                        </g>
                    </g>
                </g>
            </g>
        </g>
    </g>
</svg>