<?xml version="1.0" encoding="UTF-8"?>
<svg width="20px" height="20px" viewBox="0 0 20 20" version="1.1" xmlns="http://www.w3.org/2000/svg" xmlns:xlink="http://www.w3.org/1999/xlink">
    <title>169E944B-05CB-8573-9A9E-54F39D4843DB</title>
    <g id="💎-Components" stroke="none" stroke-width="1" fill="none" fill-rule="evenodd">
        <g id="Icons/Grid" transform="translate(-304.000000, -981.000000)">
            <g id="20dp" transform="translate(62.000000, 941.000000)">
                <g id="White" transform="translate(122.000000, 0.000000)">
                    <g id="Icon-/-20-/-White" transform="translate(40.000000, 40.000000)">
                        <g id="Icons-/-20-/-ic_bookmark_off_white" transform="translate(80.000000, 0.000000)">
                            <rect id="area" x="0" y="0" width="20" height="20"></rect>
                            <path d="M3,1.5 L3,17.5908031 L8.86113501,13.5307465 C9.54622173,13.0561819 10.4537792,13.0561819 11.1388655,13.5307474 L17,17.5908031 L17,1.5 L3,1.5 Z M2,1.5 L2,17.5908031 C2,18.3975887 2.90622556,18.8722496 3.56943369,18.4128399 L9.43056726,14.3527851 C9.77311087,14.1155024 10.2268896,14.1155024 10.5694323,14.3527851 L16.4305677,18.4128418 C17.0937757,18.8722515 18,18.3975868 18,17.5908031 L18,1.5 C18,0.947715282 17.5522852,0.5 17,0.5 L3,0.5 C2.44771528,0.5 2,0.947714865 2,1.5 Z" id="Rectangle-4604-(Stroke)" fill="#FFFFFF"></path>
                        </g>
                    </g>
                </g>
            </g>
        </g>
    </g>
</svg>