<?xml version="1.0" encoding="UTF-8"?>
<svg width="20px" height="20px" viewBox="0 0 20 20" version="1.1" xmlns="http://www.w3.org/2000/svg" xmlns:xlink="http://www.w3.org/1999/xlink">
    <title>333295DF-C2A8-CAA5-1F8F-1E2165B8DD7F</title>
    <defs>
        <rect id="path-1" x="0" y="0" width="20" height="20"></rect>
    </defs>
    <g id="💎-Components" stroke="none" stroke-width="1" fill="none" fill-rule="evenodd">
        <g id="Icons/Grid" transform="translate(-1266.000000, -1205.000000)">
            <g id="20dp" transform="translate(62.000000, 941.000000)">
                <g id="Black" transform="translate(954.000000, 0.000000)">
                    <g id="Icon-/-20-/-Black" transform="translate(34.000000, 41.000000)">
                        <g id="icons-/-20-/-ic_textsize_10" transform="translate(216.000000, 223.000000)">
                            <mask id="mask-2" fill="white">
                                <use xlink:href="#path-1"></use>
                            </mask>
                            <g id="Property-1=20,-Property-2=ic_textsize_10_primary-(Background/Mask)"></g>
                            <path d="M9.06481266,17.0000963 L9.06481266,15.7840967 L6.7128129,15.7840967 L6.7128129,5.25609589 L5.59281254,5.25609589 C4.95281267,5.64009571 4.20081258,5.91209602 3.16081262,6.10409546 L3.16081262,7.03209591 L5.24081278,7.03209591 L5.24081278,15.7840967 L2.6328125,15.7840967 L2.6328125,17.0000963 L9.06481266,17.0000963 Z M17.9958143,11.096096 C17.9958143,7.03209591 16.5718136,5.0480957 14.3478136,5.0480957 C12.1078134,5.0480957 10.6838131,7.01609612 10.6838131,11.096096 C10.6838131,15.176096 12.1078134,17.2080965 14.3478136,17.2080965 C16.5718136,17.2080965 17.9958143,15.176096 17.9958143,11.096096 Z M12.1078129,11.096096 C12.1078129,7.67209625 13.0038133,6.21609592 14.3478136,6.21609592 C15.6758137,6.21609592 16.5718126,7.67209625 16.5718126,11.096096 C16.5718126,14.5520961 15.6758137,16.0400972 14.3478136,16.0400972 C13.0038133,16.0400972 12.1078129,14.5520961 12.1078129,11.096096 Z" id="10" fill="#FF664D" mask="url(#mask-2)"></path>
                        </g>
                    </g>
                </g>
            </g>
        </g>
    </g>
</svg>