<?xml version="1.0" encoding="UTF-8"?>
<svg width="16px" height="16px" viewBox="0 0 16 16" version="1.1" xmlns="http://www.w3.org/2000/svg" xmlns:xlink="http://www.w3.org/1999/xlink">
    <title>D38FCB61-7719-CFFE-5484-7C8086749AA0</title>
    <g id="💎-Components" stroke="none" stroke-width="1" fill="none" fill-rule="evenodd">
        <g id="Icons/Grid" transform="translate(-1452.000000, -769.000000)">
            <g id="16dp" transform="translate(62.000000, 729.000000)">
                <g id="Black" transform="translate(954.000000, 0.000000)">
                    <g id="Group-5836" transform="translate(40.000000, 39.999999)">
                        <g id="Icons-/-16-/-ic_delete_grey07" transform="translate(396.000000, 0.000000)">
                            <rect id="aaea" x="0" y="0" width="16" height="16"></rect>
                            <path d="M6.75,6.0000007 C7.0261426,6.0000007 7.25,6.2238581 7.25,6.5000007 L7.25,10.5000007 C7.25,10.7761428 7.0261426,11.0000007 6.75,11.0000007 C6.4738574,11.0000007 6.25,10.7761428 6.25,10.5000007 L6.25,6.5000007 C6.25,6.22385858 6.4738574,6.0000007 6.75,6.0000007 Z M8.75,6.5000007 L8.75,10.5000007 C8.75,10.7761428 8.9738574,11.0000007 9.25,11.0000007 C9.52614212,11.0000007 9.75,10.7761428 9.75,10.5000007 L9.75,6.5000007 C9.75,6.2238581 9.52614212,6.0000007 9.25,6.0000007 C8.9738574,6.0000007 8.75,6.22385858 8.75,6.5000007 Z M5,1.5000007 L5,3.0000007 L1.5,3.0000007 C1.22385764,3.0000007 1,3.22385834 1,3.5000007 C1,3.77614306 1.2238574,4.0000007 1.5,4.0000007 L3,4.0000007 L3,14.0000007 C3,14.5522849 3.44771552,15.0000007 4,15.0000007 L12,15.0000007 C12.5522852,15.0000007 13,14.5522859 13,14.0000007 L13,4.0000007 L14.5,4.0000007 C14.7761421,4.0000007 15,3.77614306 15,3.5000007 C15,3.22385834 14.7761431,3.0000007 14.5,3.0000007 L11,3.0000007 L11,1.5000007 C11,1.22385834 10.7761421,1.0000007 10.5,1.0000007 L5.5,1.0000007 C5.2238574,1.0000007 5,1.2238584 5,1.5000007 Z M6,3.0000007 L10,3.0000007 L10,2.0000007 L6,2.0000007 L6,3.0000007 Z M12,14.0000007 L4,14.0000007 L4,4.0000007 L12,4.0000007 L12,14.0000007 Z" id="Union" fill="#44464A"></path>
                        </g>
                    </g>
                </g>
            </g>
        </g>
    </g>
</svg>