<?xml version="1.0" encoding="UTF-8"?>
<svg width="40px" height="40px" viewBox="0 0 40 40" version="1.1" xmlns="http://www.w3.org/2000/svg" xmlns:xlink="http://www.w3.org/1999/xlink">
    <title>B1BDDEDB-FE68-41C9-A817-70E06DFFB790</title>
    <defs>
        <path d="M20,0 C31.045695,0 40,8.954305 40,20 C40,31.045695 31.045695,40 20,40 C8.954305,40 0,31.045695 0,20 C0,8.954305 8.954305,0 20,0 Z M20,3 C10.6111593,3 3,10.6111593 3,20 C3,29.3888407 10.6111593,37 20,37 C29.3888407,37 37,29.3888407 37,20 C37,10.6111593 29.3888407,3 20,3 Z" id="path-1"></path>
    </defs>
    <g id="💎-Components" stroke="none" stroke-width="1" fill="none" fill-rule="evenodd">
        <g id="Icons/Grid" transform="translate(-1306.000000, -1845.000000)">
            <g id="etc" transform="translate(62.000000, 1585.000000)">
                <g id="Black" transform="translate(954.000000, 0.000000)">
                    <g id="Oval-Copy" transform="translate(290.000000, 260.000000)">
                        <mask id="mask-2" fill="white">
                            <use xlink:href="#path-1"></use>
                        </mask>
                        <use id="Mask" fill="#E3E4E5" xlink:href="#path-1"></use>
                        <path d="M40,20 C40,17.8608934 39.6641768,15.8002225 39.0423761,13.8678328 C38.3882009,11.8348321 37.4174937,9.94381849 36.1882981,8.25283576 C34.9591692,6.56194464 33.47158,5.07106273 31.7835647,3.83822431 C30.1105436,2.61633681 28.2406413,1.64792893 26.2303594,0.989502156 C24.269641,0.3473089 22.1753797,0 20,0 L20,20 L40,20 Z" id="Oval-Copy-4" fill="#FF664D" mask="url(#mask-2)"></path>
                    </g>
                </g>
            </g>
        </g>
    </g>
</svg>