<?xml version="1.0" encoding="UTF-8"?>
<svg width="20px" height="20px" viewBox="0 0 20 20" version="1.1" xmlns="http://www.w3.org/2000/svg" xmlns:xlink="http://www.w3.org/1999/xlink">
    <title>D50FB973-C8A4-D5C3-5F35-A4C0EEA117DB</title>
    <defs>
        <rect id="path-1" x="0" y="0" width="20" height="20"></rect>
    </defs>
    <g id="💎-Components" stroke="none" stroke-width="1" fill="none" fill-rule="evenodd">
        <g id="Icons/Grid" transform="translate(-1374.000000, -1205.000000)">
            <g id="20dp" transform="translate(62.000000, 941.000000)">
                <g id="Black" transform="translate(954.000000, 0.000000)">
                    <g id="Icon-/-20-/-Black" transform="translate(34.000000, 41.000000)">
                        <g id="icons-/-20-/-ic_textsize_16" transform="translate(324.000000, 223.000000)">
                            <mask id="mask-2" fill="white">
                                <use xlink:href="#path-1"></use>
                            </mask>
                            <g id="Property-1=20,-Property-2=ic_textsize_16_primary-(Background/Mask)"></g>
                            <path d="M9.06481266,17.0000963 L9.06481266,15.7840967 L6.7128129,15.7840967 L6.7128129,5.25609589 L5.59281254,5.25609589 C4.95281267,5.64009571 4.20081258,5.91209602 3.16081262,6.10409546 L3.16081262,7.03209591 L5.24081278,7.03209591 L5.24081278,15.7840967 L2.6328125,15.7840967 L2.6328125,17.0000963 L9.06481266,17.0000963 Z M16.7158136,13.4000959 C16.7158136,15.0000961 15.8358135,16.0720968 14.7158136,16.0720968 C13.2438133,16.0720968 12.3638129,14.7440968 12.1878128,12.3120966 C12.9078128,11.2400966 13.8518133,10.8080959 14.5878134,10.8080959 C16.0118136,10.8080959 16.7158136,11.8160961 16.7158136,13.4000959 Z M18.0758123,13.4000959 C18.0758123,10.9520957 16.8118129,9.72009563 14.8278131,9.72009563 C13.8998127,9.72009563 12.8758123,10.2640953 12.1558123,11.1440954 C12.2198124,7.49609518 13.5798123,6.26409626 15.1798124,6.26409626 C15.8998127,6.26409626 16.6038132,6.60009575 17.0678129,7.16009617 L17.8678122,6.24809551 C17.2278123,5.56009579 16.3478131,5.0480957 15.131813,5.0480957 C12.8598127,5.0480957 10.7958126,6.80809593 10.7958126,11.4000959 C10.7958126,15.2720962 12.4598134,17.2080965 14.7158136,17.2080965 C16.5398135,17.2080965 18.0758123,15.672096 18.0758123,13.4000959 Z" id="16" fill="#FF664D" mask="url(#mask-2)"></path>
                        </g>
                    </g>
                </g>
            </g>
        </g>
    </g>
</svg>