<?xml version="1.0" encoding="UTF-8"?>
<svg width="24px" height="24px" viewBox="0 0 24 24" version="1.1" xmlns="http://www.w3.org/2000/svg" xmlns:xlink="http://www.w3.org/1999/xlink">
    <title>9779C156-E12E-C765-44E9-E5E82C50AD9A</title>
    <defs>
        <rect id="path-1" x="0" y="0" width="24" height="24"></rect>
    </defs>
    <g id="💎-Components" stroke="none" stroke-width="1" fill="none" fill-rule="evenodd">
        <g id="Icons/Grid" transform="translate(-1672.000000, -1303.000000)">
            <g id="24dp" transform="translate(62.000000, 1263.000000)">
                <g id="Black" transform="translate(954.000000, 0.000000)">
                    <g id="Icon-/-24-/-Black" transform="translate(40.000000, 40.000000)">
                        <g id="Icons-/-24-/-ic_notice_black" transform="translate(616.000000, 0.000000)">
                            <mask id="mask-2" fill="white">
                                <use xlink:href="#path-1"></use>
                            </mask>
                            <g id="Icons-/-24-/-ic_notice_black-(Background/Mask)"></g>
                            <path d="M20.75,3.07386106 L20.75,19.9262619 C20.75,20.5344925 20.0934391,20.9162292 19.5648556,20.6153622 L19.3962383,20.5193863 C14.7683067,17.8851833 9.53477412,16.500062 4.20966703,16.500062 C3.6796568,16.500062 3.25,16.0704031 3.25,15.5403948 L3.25,7.45972919 C3.25,6.92971992 3.6796571,6.50006199 4.20966697,6.50006199 C9.53477454,6.50006199 14.7683067,5.11493905 19.3962383,2.48073752 L19.5648575,2.38476075 C20.0934305,2.08389892 20.75,2.46561652 20.75,3.07386106 Z M4.75,7.99552917 L4.75,15.0045948 C9.81088591,15.0895138 14.7784033,16.366334 19.25,18.7285156 L19.25,4.27160788 C14.7784033,6.63378978 9.81088591,7.9106102 4.75,7.99552917 Z" id="Vector-182-(Stroke)" fill="#000000" mask="url(#mask-2)"></path>
                            <path d="M6.25,16 L7.75,16 L7.75,18 C7.75,19.2426407 8.75735939,20.25 10,20.25 C11.242641,20.25 12.25,19.2426405 12.25,18 L12.25,17.5 L13.75,17.5 L13.75,18 C13.75,20.0710678 12.0710678,21.75 10,21.75 C7.92893243,21.75 6.25,20.0710678 6.25,18 L6.25,16 Z" id="Vector-183-(Stroke)" fill="#000000" mask="url(#mask-2)"></path>
                        </g>
                    </g>
                </g>
            </g>
        </g>
    </g>
</svg>