<?xml version="1.0" encoding="UTF-8"?>
<svg width="16px" height="16px" viewBox="0 0 16 16" version="1.1" xmlns="http://www.w3.org/2000/svg" xmlns:xlink="http://www.w3.org/1999/xlink">
    <title>6FC73E7E-8C70-DB78-D773-B4D48BBB5D14</title>
    <g id="💎-Components" stroke="none" stroke-width="1" fill="none" fill-rule="evenodd">
        <g id="Icons/Grid" transform="translate(-1272.000000, -805.000000)">
            <g id="16dp" transform="translate(62.000000, 729.000000)">
                <g id="Black" transform="translate(954.000000, 0.000000)">
                    <g id="Group-5836" transform="translate(40.000000, 39.999999)">
                        <g id="Icons-/-16-/-ic_webpage_grey06" transform="translate(216.000000, 36.000001)">
                            <rect id="area" x="0" y="0" width="16" height="16"></rect>
                            <path d="M7.99999957,1 C4.30212312,1 1.27395485,3.86736226 1.0175816,7.5 L0.999999571,7.5 L0.999999571,8.5 L1.01758159,8.5 C1.27395482,12.132638 4.30212312,15 7.99999957,15 C11.6978765,15 14.7260442,12.132638 14.9824176,8.5 L14.9999996,8.5 L14.9999996,7.5 L14.9824176,7.5 C14.7260442,3.86736226 11.6978765,1 7.99999957,1 Z M7.99999957,14 C7.92395024,14 7.76786714,13.9682751 7.53469996,13.7381582 C7.29723363,13.5037985 7.03751044,13.1150961 6.79782443,12.5558281 C6.36398463,11.5435352 6.0602756,10.1231699 6.00801473,8.5 L9.99198394,8.5 C9.93972259,10.1231699 9.63601451,11.5435352 9.20217471,12.5558281 C8.9624887,13.1150961 8.70276551,13.5037985 8.46529918,13.7381582 C8.23213201,13.9682751 8.0760489,14 7.99999957,14 Z M6.00801473,7.5 C6.0602756,5.8768301 6.36398463,4.45646453 6.79782443,3.44417191 C7.03751044,2.88490415 7.29723363,2.4962014 7.53469996,2.26184213 C7.76786714,2.03172529 7.92395024,2 7.99999957,2 C8.0760489,2 8.23213201,2.03172529 8.46529918,2.26184213 C8.70276551,2.4962014 8.9624887,2.88490415 9.20217471,3.44417191 C9.63601451,4.45646453 9.93972259,5.8768301 9.99198394,7.5 L6.00801473,7.5 Z M9.70959716,13.7529259 C12.0368381,13.0623856 13.7733684,10.9981699 13.9794631,8.5 L10.9924646,8.5 C10.9266382,10.6763239 10.4344421,12.5779715 9.70959716,13.7529259 Z M10.9924646,7.5 C10.9266382,5.32367659 10.4344421,3.42202902 9.70959716,2.24707425 C12.0368381,2.93761432 13.7733684,5.0018301 13.9794631,7.5 L10.9924646,7.5 Z M6.29040198,13.7529259 C5.56555705,12.5779715 5.07336049,10.6763239 5.00753455,8.5 L2.02053647,8.5 C2.22663121,10.9981699 3.96316056,13.0623856 6.29040198,13.7529259 Z M6.29040246,2.24707425 C3.9631608,2.9376142 2.22663133,5.0018301 2.02053647,7.5 L5.00753455,7.5 C5.07336049,5.32367659 5.56555753,3.42202902 6.29040246,2.24707425 Z" id="Union" fill="#75777B"></path>
                        </g>
                    </g>
                </g>
            </g>
        </g>
    </g>
</svg>