<?xml version="1.0" encoding="UTF-8"?>
<svg width="24px" height="24px" viewBox="0 0 24 24" version="1.1" xmlns="http://www.w3.org/2000/svg" xmlns:xlink="http://www.w3.org/1999/xlink">
    <title>C0E48374-D046-57EC-5CAA-6384B33A529E</title>
    <g id="💎-Components" stroke="none" stroke-width="1" fill="none" fill-rule="evenodd">
        <g id="Icons/Grid" transform="translate(-1566.000000, -1499.000000)">
            <g id="24dp" transform="translate(62.000000, 1263.000000)">
                <g id="Black" transform="translate(954.000000, 0.000000)">
                    <g id="Icon-/-24-/-Black" transform="translate(40.000000, 40.000000)">
                        <g id="send" transform="translate(422.000000, 196.000000)">
                            <g id="icons-/-24-/-ic_send_inactive_grey07" transform="translate(88.000000, 0.000000)">
                                <path d="M24,12 C24,5.37258291 18.6274166,0 12,0 C5.37258291,0 0,5.37258291 0,12 C0,18.6274166 5.37258291,24 12,24 C18.6274166,24 24,18.6274166 24,12 Z" id="Vector" fill="#44464A" fill-rule="nonzero" transform="translate(12.000000, 12.000000) rotate(-0.000000) translate(-12.000000, -12.000000) "></path>
                                <path d="M12.5761843,5.5198617 L17.5761852,11.5198617 C17.8413582,11.8380694 17.7983646,12.3109932 17.4801569,12.5761662 C17.1619492,12.8413391 16.6890259,12.798346 16.4238529,12.4801383 L12.0000186,7.1715374 L7.57618475,12.4801383 C7.3110117,12.798346 6.83808821,12.8413391 6.51988053,12.5761662 C6.20167285,12.3109932 6.15867977,11.8380694 6.42385285,11.5198617 L11.4238524,5.5198617 C11.5663481,5.34886724 11.7774334,5.25 12.0000186,5.25 C12.2226033,5.25 12.4336891,5.34886724 12.5761843,5.5198617 Z" id="Vector-(Stroke)" fill="#A4A6AA" transform="translate(12.000019, 9.000010) rotate(-0.000000) translate(-12.000019, -9.000010) "></path>
                                <path d="M12.75,6 L12.75,18 C12.75,18.4142141 12.4142136,18.75 12,18.75 C11.5857864,18.75 11.25,18.4142141 11.25,18 L11.25,6 C11.25,5.58578643 11.5857864,5.25 12,5.25 C12.4142136,5.25 12.75,5.58578643 12.75,6 Z" id="Vector-(Stroke)" fill="#A4A6AA" transform="translate(12.000000, 12.000000) rotate(-0.000000) translate(-12.000000, -12.000000) "></path>
                            </g>
                        </g>
                    </g>
                </g>
            </g>
        </g>
    </g>
</svg>