<?xml version="1.0" encoding="UTF-8"?>
<svg width="24px" height="24px" viewBox="0 0 24 24" version="1.1" xmlns="http://www.w3.org/2000/svg" xmlns:xlink="http://www.w3.org/1999/xlink">
    <title>D623E9BC-941C-7097-DDD6-ACA5E37038BA</title>
    <defs>
        <rect id="path-1" x="0" y="0" width="24" height="24"></rect>
    </defs>
    <g id="💎-Components" stroke="none" stroke-width="1" fill="none" fill-rule="evenodd">
        <g id="Icons/Grid" transform="translate(-1188.000000, -1347.000000)">
            <g id="24dp" transform="translate(62.000000, 1263.000000)">
                <g id="Black" transform="translate(954.000000, 0.000000)">
                    <g id="Icon-/-24-/-Black" transform="translate(40.000000, 40.000000)">
                        <g id="Icons-/-24-/-ic_recommend_black" transform="translate(132.000000, 44.000000)">
                            <mask id="mask-2" fill="white">
                                <use xlink:href="#path-1"></use>
                            </mask>
                            <g id="Icons-/-24-/-ic_recommend_black-(Background/Mask)"></g>
                            <path d="M8.75,7.5 C8.75,9.01878309 9.98121691,10.25 11.5,10.25 C13.0187831,10.25 14.25,9.01878309 14.25,7.5 C14.25,5.98121691 13.0187831,4.75 11.5,4.75 C9.98121691,4.75 8.75,5.98121691 8.75,7.5 Z M11.5,3.25 C13.8472104,3.25 15.75,5.15278983 15.75,7.5 C15.75,9.84721041 13.8472104,11.75 11.5,11.75 C9.15278983,11.75 7.25,9.84721041 7.25,7.5 C7.25,5.15278983 9.15278983,3.25 11.5,3.25 Z" id="Ellipse-1040-(Stroke)" fill="#000000" mask="url(#mask-2)"></path>
                            <path d="M11,10.25 C11.4142137,10.25 11.75,10.5857864 11.75,11 C11.75,11.4142136 11.4142137,11.75 11,11.75 C9.6638031,11.75 8.107481,12.52355 6.86229753,13.9878278 C5.62936926,15.4376941 4.75,17.515933 4.75,20 C4.75,20.4142141 4.41421357,20.75 4,20.75 C3.58578643,20.75 3.25,20.4142141 3.25,20 C3.25,17.1559801 4.25856209,14.7342193 5.71959949,13.0161073 C7.16838169,11.3124065 9.11205959,10.25 11,10.25 Z" id="Vector-523-(Stroke)" fill="#000000" mask="url(#mask-2)"></path>
                            <path d="M14.7499994,14.5000006 L14.7499994,19.2500006 L19.4999994,19.2500006 C19.9142131,19.2500006 20.2499994,19.585787 20.2499994,20.0000006 C20.2499994,20.4142143 19.9142131,20.7500006 19.4999994,20.7500006 L13.9999994,20.7500006 C13.5857858,20.7500006 13.2499994,20.4142143 13.2499994,20.0000006 L13.2499994,14.5000006 C13.2499994,14.085787 13.5857858,13.7500006 13.9999994,13.7500006 C14.414213,13.7500006 14.7499994,14.085787 14.7499994,14.5000006 Z" id="Vector-(Stroke)" fill="#000000" mask="url(#mask-2)" transform="translate(16.749999, 17.250001) rotate(0.000010) translate(-16.749999, -17.250001) "></path>
                            <path d="M21.0694559,13.4881077 L15.0694554,20.4881083 C14.7998888,20.802603 14.3264137,20.8390238 14.0119193,20.5694568 C13.6974249,20.2998902 13.6610038,19.8264157 13.9305704,19.5119216 L19.9305708,12.5119208 C20.2001374,12.1974264 20.6736124,12.1610052 20.9881065,12.4305718 C21.3026011,12.7001384 21.3390224,13.1736134 21.0694559,13.4881077 Z" id="Vector-(Stroke)" fill="#000000" mask="url(#mask-2)" transform="translate(17.500013, 16.500014) rotate(0.000010) translate(-17.500013, -16.500014) "></path>
                        </g>
                    </g>
                </g>
            </g>
        </g>
    </g>
</svg>