<svg width="60" height="60" viewBox="0 0 60 60" xmlns="http://www.w3.org/2000/svg" xmlns:xlink="http://www.w3.org/1999/xlink">
    <defs>
        <path id="2qniq8s9va" d="M0 0h60v60H0z"/>
    </defs>
    <g fill="none" fill-rule="evenodd">
        <mask id="xo76mspnfb" fill="#fff">
            <use xlink:href="#2qniq8s9va"/>
        </mask>
        <path d="M4 3v54a3 3 0 0 0 3 3h46a3 3 0 0 0 3-3V3a3 3 0 0 0-3-3H7a3 3 0 0 0-3 3zm3-1a1 1 0 0 0-1 1v54a1 1 0 0 0 1 1h46a1 1 0 0 0 1-1V3a1 1 0 0 0-1-1H40v4a2 2 0 0 1-2 2H22a2 2 0 0 1-2-2V2H7zm15 0v4h16V2H22z" fill="#CBCDCF" mask="url(#xo76mspnfb)"/>
        <g mask="url(#xo76mspnfb)" fill="#38B1AD">
            <path d="m20.537 37.927.444-.119c1.333-.357 1.972-1.294 1.506-3.033-.468-1.748-1.475-2.183-2.808-1.825l-.444.119 1.302 4.858zm7.644-1.913c.734-.197.973-.965.699-1.989-.272-1.014-.866-1.57-1.6-1.373-.734.197-.971.975-.7 1.989.275 1.024.866 1.57 1.6 1.373zm10.4-5.179 2.202-.59c-.194-.724-.647-1.1-1.342-.913-.57.152-.964.693-.86 1.503zM9.13 32.381l3.106 11.59a1 1 0 0 0 1.225.708l36.705-9.835a1 1 0 0 0 .707-1.225l-3.106-11.591a1 1 0 0 0-1.225-.707L9.837 31.156a1 1 0 0 0-.707 1.225zm10.285 7.079-1.918-7.158 1.961-.525c2.183-.585 3.84.192 4.488 2.607.644 2.405-.387 3.965-2.493 4.53l-2.038.546zm9.076-2.287c-1.352.362-2.878-.347-3.36-2.144-.48-1.796.486-3.173 1.838-3.536 1.353-.362 2.878.347 3.36 2.144.48 1.796-.486 3.173-1.838 3.536zm5.17-1.53-.996-3.72c.29-.501.513-.789.957-.908.531-.142.84.085 1.066.926l.857 3.197 1.42-.38-.904-3.372c-.365-1.362-1.084-2.038-2.253-1.725-.734.196-1.181.73-1.53 1.32l-.03.009-.297-.687-1.16.31 1.45 5.41 1.42-.38zm7.161-1.774c-1.516.406-2.977-.331-3.456-2.118-.468-1.748.476-3.171 1.76-3.515 1.488-.399 2.553.486 2.952 1.973.072.27.113.54.108.675l-3.332.893c.354.858 1.057 1.166 1.86.951.444-.119.794-.358 1.115-.703l.716.74a3.525 3.525 0 0 1-1.723 1.104z"/>
        </g>
    </g>
</svg>
