<?xml version="1.0" encoding="UTF-8"?>
<svg width="40px" height="40px" viewBox="0 0 40 40" version="1.1" xmlns="http://www.w3.org/2000/svg" xmlns:xlink="http://www.w3.org/1999/xlink">
    <title>7090CBB1-DCCE-4DD0-AC51-D584E1C26736</title>
    <defs>
        <rect id="path-1" x="0" y="0" width="40" height="40"></rect>
    </defs>
    <g id="검색" stroke="none" stroke-width="1" fill="none" fill-rule="evenodd">
        <g id="검색/검색후/전체/Loading" transform="translate(-130.000000, -612.000000)">
            <g id="Loading_grey" transform="translate(130.000000, 612.000000)">
                <mask id="mask-2" fill="white">
                    <use xlink:href="#path-1"></use>
                </mask>
                <g id="Loading-(Background/Mask)"></g>
                <path d="M13.7546082,5.27040148 C11.7792195,6.10745096 9.9919548,7.33251655 8.49872923,8.87300014 C5.93233418,11.524823 4.36150962,14.9822645 4.0523577,18.6596241 C3.74320579,22.3369837 4.71473479,26.0081589 6.80236483,29.0512409 C8.88999486,32.0943229 11.9653687,34.3222085 15.5075073,35.3574867 C19.0496459,36.3927649 22.8407617,36.1717827 26.2386284,34.7319736 C29.6364951,33.2921646 32.4321958,30.722055 34.1521282,27.4570312 C35.8720607,24.1920075 36.4104755,20.4328187 35.6761646,16.8162823 C34.9418538,13.1997459 32.9799659,9.94822478 30.1228504,7.61253667 C27.2657349,5.27684855 23.6890614,4.000603 19.9987297,4 L19.9987297,4 C17.8533137,4.00135129 15.7299968,4.43335199 13.7546082,5.27040148 Z" id="pregresscircle_line" stroke="#F2F3F5" stroke-width="4" stroke-dasharray="0,0" fill-rule="nonzero" mask="url(#mask-2)"></path>
            </g>
        </g>
    </g>
    <g id="검색" stroke="none" stroke-width="1" fill="none" fill-rule="evenodd">
        <g id="검색/검색후/전체/Loading" transform="translate(-190.000000, -612.000000)">
            <g id="Loading_mint" transform="translate(190.000000, 612.000000)">
                <mask id="mask-2" fill="white">
                    <use xlink:href="#path-1"></use>
                </mask>
                <g id="Loading-(Background/Mask)"></g>
                <path d="M20,4 C22.145416,4.00135129 24.2687329,4.43335199 26.2441216,5.27040148 C28.2195102,6.10745096 30.0067744,7.33251655 31.5,8.87300014 C33.3215091,10.7560275 34.6527585,13.0575328 35.3768139,15.5753555 C36.1008693,18.0931783 36.1955774,20.7502782 35.6526165,23.313261 C35.1096556,25.8762438 33.9456396,28.2666883 32.2628155,30.2746201" id="pregresscircle" stroke="#38B1AD" stroke-width="4" stroke-dasharray="0,0" fill-rule="nonzero" mask="url(#mask-2)">
                    <animateTransform attributeType="xml" attributeName="transform" type="rotate"
                        from="0 20 20" to="360 20 20" dur="0.6s" repeatCount="indefinite" />
                </path>
            </g>
        </g>
    </g>
</svg>
