<svg width="40" height="40" viewBox="0 0 40 40" xmlns="http://www.w3.org/2000/svg" xmlns:xlink="http://www.w3.org/1999/xlink">
    <defs>
        <path id="gk6mljlu8a" d="M0 0h40v40H0z"/>
    </defs>
    <g fill="none" fill-rule="evenodd">
        <mask id="mqaqpu88jb" fill="#fff">
            <use xlink:href="#gk6mljlu8a"/>
        </mask>
        <path d="M26 25.766a2 2 0 0 0 2-2V13h5a2 2 0 0 1 2 2v17.497a.5.5 0 0 1-.799.4L29.5 29.395H14a2 2 0 0 1-2-2v-1.628h14z" fill="#CBCDCF" fill-rule="nonzero" mask="url(#mqaqpu88jb)"/>
        <path d="M26 24.266a.5.5 0 0 0 .5-.5V9a.5.5 0 0 0-.5-.5H6a.5.5 0 0 0-.5.5v17.566l3.254-2.3H26zM4 28.497V9a2 2 0 0 1 2-2h20a2 2 0 0 1 2 2v14.766a2 2 0 0 1-2 2H9.23l-4.441 3.14A.5.5 0 0 1 4 28.497zM11 18a1 1 0 1 1 0-2 1 1 0 0 1 0 2zm5 0a1 1 0 1 1 0-2 1 1 0 0 1 0 2zm6-1a1 1 0 1 0-2 0 1 1 0 0 0 2 0z" fill="#000" mask="url(#mqaqpu88jb)"/>
    </g>
</svg>
