<svg width="24" height="24" viewBox="0 0 24 24" xmlns="http://www.w3.org/2000/svg" xmlns:xlink="http://www.w3.org/1999/xlink">
    <defs>
        <path id="jjvpskkgua" d="M0 0h24v24H0z"/>
    </defs>
    <g fill="none" fill-rule="evenodd">
        <mask id="hkojc4pulb" fill="#fff">
            <use xlink:href="#jjvpskkgua"/>
        </mask>
        <path d="M3.5 5a.5.5 0 0 1 .5-.5h16a.5.5 0 0 1 .5.5v14a.5.5 0 0 1-.5.5H4a.5.5 0 0 1-.5-.5V5zM2 19a2 2 0 0 0 2 2h16a2 2 0 0 0 2-2V5a2 2 0 0 0-2-2H4a2 2 0 0 0-2 2v14z" fill="#FFF" mask="url(#hkojc4pulb)"/>
        <path d="M9.25 13.333V16a.75.75 0 1 1-1.5 0v-2.667a.75.75 0 1 1 1.5 0zm3.5-2.666V16a.75.75 0 0 1-1.5 0v-5.333a.75.75 0 1 1 1.5 0zM16.25 8v8a.75.75 0 1 1-1.5 0V8a.75.75 0 0 1 1.5 0z" fill="#FFF" mask="url(#hkojc4pulb)"/>
        <path d="M.75 19.5h22.5a.75.75 0 0 1 0 1.5H.75a.75.75 0 0 1 0-1.5z" fill="#FFF" fill-rule="nonzero" mask="url(#hkojc4pulb)"/>
    </g>
</svg>
