<?xml version="1.0" encoding="UTF-8"?>
<svg width="16px" height="16px" viewBox="0 0 16 16" version="1.1" xmlns="http://www.w3.org/2000/svg" xmlns:xlink="http://www.w3.org/1999/xlink">
    <title>A5640BB0-DEEC-E145-7ACD-21F2E8B93879</title>
    <g id="💎-Components" stroke="none" stroke-width="1" fill="none" fill-rule="evenodd">
        <g id="Icons/Grid" transform="translate(-1236.000000, -805.000000)">
            <g id="16dp" transform="translate(62.000000, 729.000000)">
                <g id="Black" transform="translate(954.000000, 0.000000)">
                    <g id="Group-5836" transform="translate(40.000000, 39.999999)">
                        <g id="Icons-/-16-/-ic_classroom_grey06" transform="translate(180.000000, 36.000001)">
                            <rect id="area" x="0" y="0" width="16" height="16"></rect>
                            <path d="M3.99999957,4.83337355 L6.99999957,4.83337355 C7.27614217,4.83337355 7.49999957,5.05723095 7.49999957,5.33337355 C7.49999957,5.60951614 7.27614217,5.83337355 6.99999957,5.83337355 L3.99999957,5.83337355 C3.72385721,5.83337355 3.49999957,5.60951614 3.49999957,5.33337355 C3.49999957,5.05723095 3.72385721,4.83337355 3.99999957,4.83337355 Z M3.49999957,7.00012159 C3.49999957,7.27626419 3.72385721,7.50012159 3.99999957,7.50012159 L6.99999957,7.50012159 C7.27614217,7.50012159 7.49999957,7.27626419 7.49999957,7.00012159 C7.49999957,6.723979 7.27614217,6.50012159 6.99999957,6.50012159 L3.99999957,6.50012159 C3.72385721,6.50012159 3.49999957,6.723979 3.49999957,7.00012159 Z M10.4999996,6.50012159 L14.4999996,6.50012159 C15.0522848,6.50012159 15.4999996,6.94783688 15.4999996,7.50012159 L15.4999996,13.5001221 C15.4999996,14.0524063 15.0522838,14.5001364 14.4999996,14.5001364 L1.49999957,14.5001364 C0.947715569,14.5001364 0.499999571,14.0524216 0.499999571,13.5001364 L0.499999571,4.98076057 C0.499999571,4.67697716 0.638090017,4.38966393 0.875305045,4.19989157 L4.87530475,0.999892801 C5.24052339,0.707717955 5.75947623,0.707718059 6.12469487,0.999892905 L10.1246944,4.19989204 C10.3619104,4.38966417 10.4999996,4.67697716 10.4999996,4.98076105 L10.4999996,6.50012159 Z M9.49999957,4.98076105 L5.49999957,1.78076172 L1.49999957,4.98076057 L1.49999957,13.5001364 L3.49999957,13.5001364 L3.49999957,11.5001221 C3.49999957,10.3955526 4.3954299,9.50012207 5.49999957,9.50012207 C6.60456901,9.50012207 7.49999957,10.3955526 7.49999957,11.5001221 L7.49999957,13.5001221 L9.49999957,13.5001221 L9.49999957,4.98076105 Z M10.4999996,13.5001221 L10.4999996,7.50012159 L14.4999996,7.50012159 L14.4999996,13.5001221 L10.4999996,13.5001221 Z M4.49999957,11.5001221 C4.49999957,10.9478369 4.94771438,10.5001221 5.49999957,10.5001221 C6.05228429,10.5001221 6.49999957,10.9478369 6.49999957,11.5001221 L6.49999957,13.5001221 L4.49999957,13.5001221 L4.49999957,11.5001221 Z" id="Union" fill="#75777B"></path>
                        </g>
                    </g>
                </g>
            </g>
        </g>
    </g>
</svg>