<?xml version="1.0" encoding="UTF-8"?>
<svg width="24px" height="68px" viewBox="0 0 24 68" version="1.1" xmlns="http://www.w3.org/2000/svg" xmlns:xlink="http://www.w3.org/1999/xlink">
    <title>A0344A56-9E80-462B-9BE3-B13F687A0EF4</title>
    <g id="💎-Components" stroke="none" stroke-width="1" fill="none" fill-rule="evenodd">
        <g id="Icons/Grid" transform="translate(-528.000000, -1385.000000)">
            <g id="24dp" transform="translate(62.000000, 1263.000000)">
                <g id="White" transform="translate(122.000000, 0.000000)">
                    <g id="Icon-/-24-/-White" transform="translate(40.000000, 40.000000)">
                        <g id="Icons-/-24-/-ic_script_off_on" transform="translate(304.000000, 82.000000)">
                            <rect id="area" x="0" y="0" width="24" height="24"></rect>
                            <g id="Property-1=24,-Property-2=ic_script_off_white" fill="#FFFFFF">
                                <path d="M2,3 L2,21 L22,21 L22,3 L2,3 Z M0,3 L0,21 C0,22.1045685 0.895430088,23 2,23 L22,23 C23.1045685,23 24,22.1045704 24,21 L24,3 C24,1.89543056 23.1045704,1 22,1 L2,1 C0.895430565,1 0,1.89542997 0,3 Z M7.78086901,10.1246948 L6.28062487,12 L7.78086901,13.8753052 C8.12587833,14.3065672 8.05595684,14.9358587 7.62469482,15.2808685 C7.19343305,15.6258779 6.56414104,15.5559568 6.21913147,15.1246948 L4.21913099,12.6246948 C3.92695612,12.2594762 3.92695612,11.7405237 4.21913099,11.3753052 L6.21913147,8.8753047 C6.56414104,8.4440428 7.19343305,8.37412101 7.62469482,8.71913052 C8.05595684,9.06414008 8.12587833,9.69343287 7.78086901,10.1246948 Z M17.7808685,8.8753047 L19.7808685,11.3753052 C20.0730433,11.7405237 20.0730433,12.2594762 19.7808685,12.6246948 L17.7808685,15.1246948 C17.435859,15.5559568 16.8065671,15.6258779 16.3753052,15.2808685 C15.9440433,14.9358587 15.874122,14.3065672 16.2191315,13.8753052 L17.7193756,12 L16.2191315,10.1246948 C15.874122,9.69343287 15.9440433,9.06414008 16.3753052,8.71913052 C16.8065671,8.37412101 17.435859,8.4440428 17.7808685,8.8753047 Z M13.9701424,8.24253559 L11.9701424,16.2425356 C11.8361936,16.7783308 11.2932593,17.1040916 10.7574644,16.9701424 C10.2216695,16.836194 9.89590883,16.2932596 10.0298576,15.7574644 L12.0298576,7.75746441 C12.1638064,7.2216695 12.7067407,6.89590883 13.2425356,7.02985764 C13.7783306,7.16380638 14.1040912,7.70674068 13.9701424,8.24253559 Z" id="Vector"></path>
                            </g>
                            <g id="Property-1=24,-Property-2=ic_script_on_white" transform="translate(0.000000, 44.000000)">
                                <rect id="area" x="0" y="0" width="24" height="24"></rect>
                                <path d="M0,3 L0,21 C0,22.1045685 0.895430088,23 2,23 L22,23 C23.1045685,23 24,22.1045685 24,21 L24,3 C24,1.89543056 23.1045685,1 22,1 L2,1 C0.895430565,1 0,1.89542997 0,3 Z M13.9701424,8.24252796 L11.9701424,16.242528 C11.836194,16.7783232 11.2932596,17.104084 10.7574644,16.9701347 C10.2216692,16.8361864 9.89590836,16.293252 10.0298576,15.7574568 L12.0298576,7.75745678 C12.1638069,7.22166204 12.7067404,6.8959012 13.2425356,7.02985001 C13.7783308,7.16379881 14.1040916,7.70673323 13.9701424,8.24252796 Z M7.78086901,10.1246872 L6.28062487,12 L7.78086901,13.8752975 C8.12587833,14.3065586 8.05595684,14.9358511 7.62469482,15.2808609 C7.19343328,15.6258698 6.5641408,15.5559492 6.21913147,15.1246872 L4.21913099,12.6246872 C3.92695618,12.2594681 3.92695618,11.7405157 4.21913099,11.3752975 L6.21913147,8.87529707 C6.5641408,8.44403505 7.19343328,8.37411356 7.62469482,8.71912289 C8.05595684,9.06413269 8.12587833,9.69342518 7.78086901,10.1246872 Z M16.3753052,8.71912289 C15.9440422,9.06413269 15.8741207,9.69342518 16.2191315,10.1246872 L17.7193756,12 L16.2191315,13.8752975 C15.8741207,14.3065586 15.9440422,14.9358511 16.3753052,15.2808609 C16.8065662,15.6258698 17.4358597,15.5559492 17.7808685,15.1246872 L19.7808685,12.6246872 C20.0730438,12.2594681 20.0730438,11.7405157 19.7808685,11.3752975 L17.7808685,8.87529707 C17.4358597,8.44403505 16.8065662,8.37411356 16.3753052,8.71912289 Z" id="Subtract" fill="#FFFFFF"></path>
                            </g>
                        </g>
                    </g>
                </g>
            </g>
        </g>
    </g>
</svg>