<svg width="16" height="16" viewBox="0 0 16 16" xmlns="http://www.w3.org/2000/svg" xmlns:xlink="http://www.w3.org/1999/xlink">
    <defs>
        <path id="1h2ohpbnha" d="M0 0h16v16H0z"/>
    </defs>
    <g fill="none" fill-rule="evenodd">
        <mask id="r4g3gt80ib" fill="#fff">
            <use xlink:href="#1h2ohpbnha"/>
        </mask>
        <g mask="url(#r4g3gt80ib)" fill="#FFF">
            <path d="M15 8A7 7 0 1 0 1 8a7 7 0 0 0 14 0zm1 0A8 8 0 1 0 0 8a8 8 0 0 0 16 0zm-11.97.93C4.267 10.618 5.912 12 8 12s3.733-1.383 3.97-3.07a.5.5 0 1 1 .99.14C12.643 11.33 10.502 13 8 13s-4.643-1.67-4.96-3.93a.5.5 0 0 1 .99-.14zM6 7.5a1 1 0 1 1 0-2 1 1 0 0 1 0 2zm4 0a1 1 0 1 1 0-2 1 1 0 0 1 0 2z"/>
        </g>
    </g>
</svg>
