<svg width="20" height="20" viewBox="0 0 20 20" xmlns="http://www.w3.org/2000/svg">
    <g fill="none" fill-rule="evenodd">
        <path d="M0 0h20v20H0z"/>
        <path d="M10 1a8.5 8.5 0 0 1 8.5 8.5v5a.5.5 0 0 1-1 0v-5a7.5 7.5 0 0 0-15 0v5a.5.5 0 0 1-1 0v-5A8.5 8.5 0 0 1 10 1zM3 11.5v5a2 2 0 0 0 2 2h1a2 2 0 0 0 2-2v-5a2 2 0 0 0-2-2H5a2 2 0 0 0-2 2zm2-1a1 1 0 0 0-1 1v5a1 1 0 0 0 1 1h1a1 1 0 0 0 1-1v-5a1 1 0 0 0-1-1H5zm9-1h1a2 2 0 0 1 2 2v5a2 2 0 0 1-2 2h-1a2 2 0 0 1-2-2v-5a2 2 0 0 1 2-2zm1 1a1 1 0 0 1 1 1v5a1 1 0 0 1-1 1h-1a1 1 0 0 1-1-1v-5a1 1 0 0 1 1-1h1z" fill="#000"/>
    </g>
</svg>
