<svg width="16" height="16" viewBox="0 0 16 16" xmlns="http://www.w3.org/2000/svg" xmlns:xlink="http://www.w3.org/1999/xlink">
    <defs>
        <path id="83p9vjd43a" d="M0 0h16v16H0z"/>
    </defs>
    <g fill="none" fill-rule="evenodd">
        <mask id="bb4jsw3vob" fill="#fff">
            <use xlink:href="#83p9vjd43a" transform="rotate(90 8 8)"/>
        </mask>
        <path d="M10.88 2.832 6.107 8.5l4.773 5.668a.52.52 0 0 1-.039.706.456.456 0 0 1-.669-.042l-5.052-6a.52.52 0 0 1 0-.664l5.052-6a.456.456 0 0 1 .669-.042.52.52 0 0 1 .04.706z" fill="#A4A6AA" mask="url(#bb4jsw3vob)" transform="matrix(0 -1 -1 0 16.5 16.5)"/>
    </g>
</svg>
