<svg width="24" height="68" viewBox="0 0 24 68" xmlns="http://www.w3.org/2000/svg">
    <g fill="none" fill-rule="evenodd">
        <path d="M0 0h24v24H0z"/>
        <path d="M20 0v16.753c0 .233-.08.46-.23.64-.508.613-.954.787-1.34.52l-5.715-3.96a.943.943 0 0 0-.33-.15c-.435-.106-.753-.09-.954.05L5.847 17.72a.982.982 0 0 1-.65.175C4.4 17.83 4 17.561 4 17.091V0h16z" fill-opacity=".2" fill="#000" fill-rule="nonzero"/>
        <path d="M5.55 0h-1.5v17.02a1.25 1.25 0 0 0 1.984 1.013l6.017-4.357 6.017 4.357a1.25 1.25 0 0 0 1.983-1.012V0h-1.5v16.53l-5.767-4.175a1.25 1.25 0 0 0-1.466 0L5.55 16.53V0zm6.354 13.57" fill="#FFF"/>
        <g>
            <path d="M0 44h24v24H0z"/>
            <path d="M20 44v16.753c0 .233-.08.46-.23.64-.508.613-.954.787-1.34.52l-5.715-3.96a.943.943 0 0 0-.33-.15c-.435-.106-.753-.09-.954.05L5.847 61.72a.982.982 0 0 1-.65.175C4.4 61.83 4 61.561 4 61.091V44h16z" fill="#FF664D" fill-rule="nonzero"/>
        </g>
    </g>
</svg>
