<?xml version="1.0" encoding="UTF-8"?>
<svg width="32px" height="32px" viewBox="0 0 32 32" version="1.1" xmlns="http://www.w3.org/2000/svg" xmlns:xlink="http://www.w3.org/1999/xlink">
    <title>860A3A3D-ACCF-43BE-83C8-E599BA329E24</title>
    <defs>
        <rect id="path-1" x="0" y="0" width="32" height="32"></rect>
        <rect id="path-3" x="0" y="0" width="32" height="32"></rect>
    </defs>
    <g id="💎-Components" stroke="none" stroke-width="1" fill="none" fill-rule="evenodd">
        <g id="Icons/Grid/Keep" transform="translate(-1236.000000, -1629.000000)">
            <g id="Black" transform="translate(1016.000000, 1585.000000)">
                <g id="Group-5843" transform="translate(30.000000, 30.000000)">
                    <g id="Icons-/-32-/-ic_myhome_grey04" transform="translate(190.000000, 14.000000)">
                        <mask id="mask-2" fill="white">
                            <use xlink:href="#path-1"></use>
                        </mask>
                        <g id="Icons-/-32-/-ic_myhome_grey04-(Background/Mask)"></g>
                        <g id="Icons-/-24-/-ic_community_black" mask="url(#mask-2)">
                            <mask id="mask-4" fill="white">
                                <use xlink:href="#path-3"></use>
                            </mask>
                            <g id="Icons-/-24-/-ic_community_black-(Background/Mask)"></g>
                            <path d="M16,32 C24.836556,32 32,24.836556 32,16 C32,7.163444 24.836556,0 16,0 C7.163444,0 0,7.163444 0,16 C0,24.836556 7.163444,32 16,32 Z" id="Ellipse-1061" fill="#A4A6AA" mask="url(#mask-4)"></path>
                            <g id="img_myhome" mask="url(#mask-4)">
                                <g transform="translate(4.000000, 8.000000)">
                                    <path d="M0,0 L24,0 L24,16 L0,16 L0,0 Z" id="img_myhome-(Background)" fill="none"></path>
                                    <path d="M12.4011438,0.775613979 C12.3136114,0.727907556 12.2143169,0.702791885 12.1132414,0.702791885 C12.0121659,0.702791885 11.9128714,0.727907556 11.8253389,0.775613979 C11.7378065,0.823320403 11.6651206,0.891936535 11.6145881,0.974565072 L10.0795393,3.4825988 L8.54449031,0.973568009 C8.49410276,0.890919572 8.42152623,0.822267818 8.33407474,0.774531324 C8.24662325,0.72679483 8.14738667,0.701660156 8.04636533,0.701660156 C7.945344,0.701660156 7.84610732,0.72679483 7.75865583,0.774531324 C7.67120433,0.822267818 7.59862791,0.890919572 7.54824036,0.973568009 L6.27096976,3.06176759 C6.22022407,3.14432704 6.19335938,3.23806298 6.19335938,3.33351187 C6.19335938,3.42896075 6.21985358,3.52274373 6.27043753,3.60539157 C6.32102147,3.68803941 6.39381119,3.75662639 6.48145764,3.80422816 C6.56910409,3.85182992 6.66850443,3.87676089 6.76962295,3.87650436 L13.3894557,3.87650436 C13.4905742,3.87676089 13.589974,3.85182992 13.6776205,3.80422816 C13.7652669,3.75662639 13.838057,3.68803941 13.888641,3.60539157 C13.9392249,3.52274373 13.9658118,3.42896075 13.9657184,3.33351187 C13.9656249,3.23806298 13.9388539,3.14432704 13.8881082,3.06176759 L12.6118943,0.974565072 C12.5613617,0.891936535 12.4886763,0.823320403 12.4011438,0.775613979 Z M14.6762345,0.702321314 C14.5752409,0.702368914 14.4760366,0.727490685 14.3885791,0.775165092 C14.3011216,0.822839499 14.2284877,0.891389263 14.1779664,0.973934727 C14.1274452,1.05648019 14.100814,1.15011704 14.1007464,1.24544771 C14.1006788,1.34077838 14.127177,1.43444924 14.1775812,1.51705846 L15.6207169,3.87650436 C15.6542848,3.93183151 15.7027381,3.97780889 15.761175,4.00978436 C15.8196119,4.04175984 15.8859593,4.05859897 15.9535047,4.05859897 C16.02105,4.05859897 16.0873974,4.04175984 16.1458343,4.00978436 C16.2042712,3.97780889 16.2527245,3.93183151 16.2862924,3.87650436 L17.7294282,1.51705846 C17.7798323,1.43444924 17.806263,1.34077838 17.806263,1.24544771 C17.806263,1.15011704 17.779565,1.05648019 17.7290437,0.973934727 C17.6785224,0.891389263 17.6058877,0.822839499 17.5184302,0.775165092 C17.4309727,0.727490685 17.3317693,0.702368914 17.2307756,0.702321314 L17.2307756,0.702321314 L14.6762345,0.702321314 Z M15.5464662,4.52201665 C15.4259287,4.59783351 15.3319252,4.70569651 15.2763498,4.83195744 C15.2207744,4.95821837 15.2061244,5.09720287 15.2342545,5.23132498 C15.2623846,5.36544709 15.33203,5.4886788 15.4343784,5.58542792 C15.5367268,5.68217704 15.667179,5.74809527 15.8092276,5.77484168 C15.9512762,5.8015881 16.0985371,5.78796105 16.2323785,5.73568424 C16.3662198,5.68340743 16.4806262,5.59483037 16.5611208,5.48116127 C16.6416154,5.36749216 16.6845806,5.23383971 16.6845808,5.09711449 C16.684581,4.91400122 16.6075915,4.73837286 16.4705183,4.60879877 C16.3334452,4.47922468 16.1474952,4.40629827 15.9535047,4.40603403 C15.8086577,4.40583674 15.6670037,4.4461998 15.5464662,4.52201665 Z M15.7351623,5.40556406 C15.6705327,5.3648014 15.6201602,5.30686363 15.5904145,5.2390778 C15.5606688,5.17129197 15.5528856,5.09670271 15.5680498,5.02474166 C15.5832141,4.95278061 15.620644,4.88668016 15.675607,4.83479913 C15.7305699,4.7829181 15.8005969,4.74758691 15.8768327,4.73327297 C15.9530684,4.71895902 16.0320893,4.72630504 16.1039018,4.75438285 C16.1757144,4.78246066 16.2370938,4.83000866 16.2802779,4.89101429 C16.323462,4.95201992 16.3465111,5.02374363 16.3465111,5.09711449 C16.3462323,5.19542081 16.3047371,5.28962513 16.2310945,5.35913845 C16.1574518,5.42865176 16.0576507,5.46782022 15.9535047,5.46808343 L15.9535047,5.46808343 C15.8757754,5.46808343 15.7997918,5.44632672 15.7351623,5.40556406 Z" id="Vector" fill="#FFFFFF" fill-rule="evenodd"></path>
                                    <path d="M12.9387906,8.84824312 L13.0579416,8.85714576 C13.2145899,8.88070945 13.3605524,8.95034041 13.474139,9.05755791 C13.6161222,9.1915798 13.6958868,9.3733523 13.6958868,9.56288786 L13.6958868,9.56288786 L13.6958868,13.0448459 C13.6958868,13.5071225 13.5013395,13.9504649 13.1550428,14.2773438 C12.8087461,14.6042227 12.3390669,14.7878618 11.8493294,14.7878618 L11.8493294,14.7878618 L9.64537385,14.7878618 C9.15555694,14.7878618 8.6857886,14.604249 8.33935483,14.2773935 C7.99292106,13.950538 7.7981812,13.5071974 7.79795231,13.0448459 L7.79795231,13.0448459 L7.79795231,9.56288786 C7.80458613,9.37742208 7.88730339,9.20164495 8.02864306,9.072659 C8.16998273,8.94367305 8.35888684,8.87157054 8.55548193,8.87157054 C8.75207703,8.87157054 8.94098113,8.94367305 9.08232081,9.072659 C9.22366048,9.20164495 9.30637642,9.37742208 9.31301024,9.56288786 L9.31301024,9.56288786 L9.31301024,12.9617284 C9.31301024,13.0533296 9.33212464,13.1440341 9.36926127,13.2286626 C9.40639791,13.3132911 9.46082998,13.3901863 9.52944953,13.4549582 C9.59806908,13.51973 9.67953147,13.57111 9.76918724,13.6061643 C9.858843,13.6412185 9.95493563,13.6592605 10.0519783,13.6592605 L10.0519783,13.6592605 L11.4427236,13.6592605 C11.5397663,13.6592605 11.6358589,13.6412185 11.7255147,13.6061643 C11.8151705,13.57111 11.8966342,13.51973 11.9652537,13.4549582 C12.0338733,13.3901863 12.0883054,13.3132911 12.125442,13.2286626 C12.1625786,13.1440341 12.1816917,13.0533296 12.1816917,12.9617284 L12.1816917,12.9617284 L12.1816917,9.56288786 C12.1815781,9.46900925 12.2010839,9.37603154 12.2390914,9.28927845 C12.2770989,9.20252535 12.3328611,9.12370081 12.4031867,9.05731856 C12.4735123,8.99093631 12.5570206,8.93830022 12.6489271,8.90242394 C12.7408337,8.86654767 12.8393352,8.8481359 12.9387906,8.84824312 L12.9387906,8.84824312 Z M21.8714375,8.84753516 L21.9694196,8.85407236 C22.0350223,8.86203332 22.0993807,8.87809223 22.1608169,8.90193902 C22.2529713,8.9377092 22.3367386,8.99029863 22.4073161,9.05669157 C22.4778937,9.12308452 22.5338908,9.20197513 22.5721003,9.28883953 C22.6103099,9.37570392 22.6299782,9.46883333 22.6299782,9.56288786 L22.6299782,9.56288786 L22.6299782,14.0732168 C22.6233444,14.2586826 22.5406284,14.4344597 22.3992887,14.5634456 C22.2579491,14.6924316 22.069045,14.7645344 21.8724499,14.7645344 C21.6758548,14.7645344 21.4869507,14.6924316 21.345611,14.5634456 C21.2042713,14.4344597 21.1215554,14.2586826 21.1149216,14.0732168 L21.1149216,14.0732168 L21.1149216,9.56288786 C21.1149215,9.46897078 21.1345318,9.37597474 21.1726334,9.2892169 C21.2107351,9.20245905 21.2665806,9.123641 21.336975,9.05726944 C21.4073695,8.99089789 21.4909318,8.9382744 21.5828867,8.90240809 C21.6748417,8.86654178 21.7733859,8.84813604 21.8728819,8.84824312 L21.8714375,8.84753516 Z M6.14477026,8.10833725 C6.30824504,8.10833725 6.46502382,8.1696361 6.58061795,8.27874856 C6.69621208,8.38786101 6.76115264,8.53584932 6.76115264,8.69015764 C6.76115264,8.84446595 6.69621208,8.99245402 6.58061795,9.10156648 C6.46502382,9.21067894 6.30824504,9.27197779 6.14477026,9.27197779 L6.14477026,9.27197779 L2.91178422,9.27197779 C2.48532354,9.27197779 2.21252631,9.54577523 2.21252631,9.88394804 C2.21252631,10.2221209 2.48532354,10.4959188 2.91178422,10.4959188 L2.91178422,10.4959188 L5.26249725,10.4959188 C6.37008641,10.4934741 7.18329675,11.2887917 7.1858866,12.2666407 C7.18847644,13.2444898 6.38476194,14.040622 5.2797626,14.0479559 L5.2797626,14.0479559 L1.57542471,14.0479559 C1.4158287,14.042319 1.26476048,13.9785105 1.15396152,13.8699378 C1.04316255,13.761365 0.981259267,13.6164803 0.981259267,13.4657279 C0.981259267,13.3149754 1.04316255,13.1700913 1.15396152,13.0615186 C1.26476048,12.9529459 1.4158287,12.8891374 1.57542471,12.8835005 L1.57542471,12.8835005 L4.98624769,12.8835005 C5.41270837,12.8826856 5.68809449,12.6088882 5.68723121,12.2707154 C5.68636793,11.9325426 5.41270837,11.6595594 4.98624769,11.6595594 L4.98624769,11.6595594 L2.6933743,11.6595594 C1.58664844,11.6595594 0.7734375,10.8650566 0.7734375,9.88394804 C0.7734375,8.90283947 1.58751133,8.11078187 2.69164737,8.10833725 L2.69164737,8.10833725 Z M18.5060871,6.97973633 L18.6873251,6.98807563 C18.8676926,7.00479421 19.0448048,7.04653004 19.2128692,7.11219765 C19.4369551,7.19975446 19.6405608,7.32813996 19.8120521,7.49001528 C19.9835434,7.6518906 20.1195573,7.84408171 20.2123153,8.0556025 C20.3050733,8.2671233 20.3527567,8.49382617 20.3526432,8.72275242 L20.3526432,8.72275242 L20.3526432,12.2047101 C20.3526432,12.3942457 20.2728786,12.5760188 20.1308954,12.7100407 C19.9889121,12.8440626 19.7963416,12.9193552 19.595547,12.9193552 C19.3947523,12.9193552 19.2021819,12.8440626 19.0601986,12.7100407 C18.9182153,12.5760188 18.8384507,12.3942457 18.8384507,12.2047101 L18.8384507,12.2047101 L18.8384507,8.80749941 C18.8384508,8.71593657 18.8193298,8.62527171 18.7821826,8.5406889 C18.7450353,8.4561061 18.6905896,8.37926431 18.6219587,8.31455745 C18.5533279,8.24985059 18.4718572,8.19854764 18.3822065,8.16358226 C18.2925558,8.12861688 18.1964846,8.11067484 18.0994826,8.11078193 L18.0994826,8.11078193 L16.708736,8.11078193 C16.512898,8.11013205 16.3247961,8.18288801 16.1857515,8.31306646 C16.0467069,8.44324491 15.9680921,8.62019895 15.9671782,8.80505489 L15.9671782,8.80505489 L15.9671782,12.2047101 C15.9669511,12.3936817 15.8874405,12.574876 15.7460416,12.7086518 C15.6046426,12.8424276 15.4128678,12.9178938 15.2126717,12.9185401 L15.2126717,12.9185401 L15.0936072,12.9096506 C14.9370691,12.8861212 14.7911931,12.8165901 14.6776263,12.7095135 C14.5356678,12.5756678 14.4558016,12.3941045 14.4555728,12.2047101 L14.4555728,12.2047101 L14.4555728,8.72275242 C14.4555728,8.26047583 14.6501201,7.81713307 14.9964168,7.49025417 C15.3427135,7.16337527 15.812394,6.97973633 16.3021315,6.97973633 L16.3021315,6.97973633 L18.5060871,6.97973633 Z M22.3869329,5.84598264 C22.6347486,5.94287545 22.8465616,6.10695769 22.9955844,6.31748008 C23.1446071,6.52800248 23.2241478,6.7755096 23.2241478,7.02870273 C23.2236909,7.36809176 23.0806569,7.69345689 22.8264163,7.93344136 C22.6084959,8.13914233 22.3241198,8.26772124 22.0208946,8.30053166 L21.8679316,8.30886984 C21.5996978,8.30886984 21.3374886,8.23378941 21.1144603,8.09312286 C20.891432,7.9524563 20.7176032,7.75252142 20.6149546,7.51860148 C20.5123059,7.28468154 20.485449,7.02728261 20.5377788,6.77895454 C20.5901086,6.53062646 20.7192738,6.30252258 20.9089437,6.123488 C21.0986137,5.94445342 21.3402692,5.82252931 21.603349,5.77313378 C21.8664288,5.72373826 22.1391171,5.74908983 22.3869329,5.84598264 Z" id="Union" fill="#FFFFFF" fill-rule="evenodd"></path>
                                </g>
                            </g>
                        </g>
                    </g>
                </g>
            </g>
        </g>
    </g>
</svg>