<?xml version="1.0" encoding="UTF-8"?>
<svg width="16px" height="16px" viewBox="0 0 16 16" version="1.1" xmlns="http://www.w3.org/2000/svg" xmlns:xlink="http://www.w3.org/1999/xlink">
    <title>E9A22C15-BB85-5A7C-C276-1F9D4180FE77</title>
    <g id="💎-Components" stroke="none" stroke-width="1" fill="none" fill-rule="evenodd">
        <g id="Icons/Grid" transform="translate(-1560.000000, -877.000000)">
            <g id="16dp" transform="translate(62.000000, 729.000000)">
                <g id="Black" transform="translate(954.000000, 0.000000)">
                    <g id="Group-5836" transform="translate(40.000000, 39.999999)">
                        <g id="level" transform="translate(432.000000, 108.000001)">
                            <g id="ic_level_3_grey03" transform="translate(72.000000, 0.000000)">
                                <rect id="area" x="0" y="0" width="16" height="16"></rect>
                                <path d="M8,2 L12,2 L12,13 L8,13 L8,2 Z" id="Rectangle-4588" fill="#38B1AD"></path>
                                <path d="M2,2 C1.44771516,2 1,2.44771528 1,3 L1,12 C1,12.5522842 1.44771528,13 2,13 L14,13 C14.5522852,13 15,12.5522852 15,12 L15,3 C15,2.44771528 14.5522842,2 14,2 L2,2 Z M0,3 L0,12 C0,13.1045694 0.895430565,14 2,14 L14,14 C15.1045694,14 16,13.1045694 16,12 L16,3 C16,1.89543056 15.1045694,1 14,1 L2,1 C0.895430565,1 0,1.89543045 0,3 Z M3.5,2 L4.5,2 L4.5,13 L3.5,13 L3.5,2 Z M7.5,2 L8.5,2 L8.5,13 L7.5,13 L7.5,2 Z M11.5,2 L12.5,2 L12.5,13 L11.5,13 L11.5,2 Z" id="Vector" fill="#E3E4E5"></path>
                            </g>
                        </g>
                    </g>
                </g>
            </g>
        </g>
    </g>
</svg>