<?xml version="1.0" encoding="UTF-8"?>
<svg width="20px" height="20px" viewBox="0 0 20 20" version="1.1" xmlns="http://www.w3.org/2000/svg" xmlns:xlink="http://www.w3.org/1999/xlink">
    <title>F9C364E6-38B5-59C6-ED2C-323AD24CA919</title>
    <g id="💎-Components" stroke="none" stroke-width="1" fill="none" fill-rule="evenodd">
        <g id="Icons/Grid" transform="translate(-1090.000000, -1062.000000)">
            <g id="20dp" transform="translate(62.000000, 941.000000)">
                <g id="Black" transform="translate(954.000000, 0.000000)">
                    <g id="Icon-/-20-/-Black" transform="translate(34.000000, 41.000000)">
                        <g id="Icons-/-20-/-ic_playlistgh_black" transform="translate(40.000000, 80.000000)">
                            <rect id="area" x="0" y="0" width="20" height="20"></rect>
                            <path d="M12.6999998,12.6732054 L8.80000067,14.9248714 C8.66666733,15.0018515 8.5,14.9056261 8.5,14.7516661 L8.5,10.2483339 C8.5,10.0943739 8.66666733,9.9981485 8.80000067,10.0751286 L12.6999998,12.3267946 C12.8333331,12.4037747 12.8333331,12.5962253 12.6999998,12.6732054 Z M2,7 L2,18 L18,18 L18,7 L2,7 Z M1,7 L1,18 C1,18.5522842 1.44771576,19 2,19 L18,19 C18.5522842,19 19,18.5522852 19,18 L19,7 C19,6.44771528 18.5522842,6 18,6 L2,6 C1.44771528,6 1,6.44771528 1,7 Z M2,4.5 C2,4.77614236 2.22385764,5 2.5,5 L17.5,5 C17.7761421,5 18,4.77614236 18,4.5 C18,4.22385764 17.7761421,4 17.5,4 L2.5,4 C2.22385764,4 2,4.22385764 2,4.5 Z M3,2.5 C3,2.77614236 3.2238574,3 3.5,3 L16.5,3 C16.7761421,3 17,2.77614236 17,2.5 C17,2.22385764 16.7761431,2 16.5,2 L3.5,2 C3.22385764,2 3,2.22385764 3,2.5 Z" id="Vector" fill="#000000"></path>
                        </g>
                    </g>
                </g>
            </g>
        </g>
    </g>
</svg>