<svg width="32" height="84" viewBox="0 0 32 84" xmlns="http://www.w3.org/2000/svg">
    <g fill="none" fill-rule="evenodd">
        <path d="M0 0h32v32H0V0z"/>
        <path d="M4 10.621V5a1 1 0 0 1 1-1h25a1 1 0 0 1 1 1v21a1 1 0 0 1-1 1h-9.607 0" stroke="#000" stroke-width="1.5" stroke-linecap="round" stroke-dasharray="0,0"/>
        <g fill="#000">
            <path d="m18.065 15.28 4.066 4.066-4.066 4.066a.75.75 0 0 0 1.061 1.06l4.595-4.594.001-.001a.75.75 0 0 0 0-1.061l-4.596-4.596a.75.75 0 0 0-1.06 1.06zM5.877 15.28 1.81 19.346l4.066 4.066a.75.75 0 0 1-1.061 1.06L.221 19.879l-.001-.001a.75.75 0 0 1 0-1.061l4.596-4.596a.75.75 0 1 1 1.06 1.06z" fill-rule="nonzero"/>
            <path d="M14.224 10.536a.75.75 0 0 1 .53.919l-4.27 15.937a.75.75 0 0 1-1.449-.388l4.27-15.938a.75.75 0 0 1 .92-.53z"/>
        </g>
        <g>
            <path d="M0 52h32v32H0V52z"/>
            <path d="M0 52h32v32H0V52z"/>
            <path d="M4 62.621V57a1 1 0 0 1 1-1h25a1 1 0 0 1 1 1v21a1 1 0 0 1-1 1h-9.607 0" stroke="#FF664D" stroke-width="1.5" stroke-linecap="round" stroke-dasharray="0,0"/>
            <g fill="#FF664D">
                <path d="m18.065 67.28 4.066 4.066-4.066 4.066a.75.75 0 0 0 1.061 1.06l4.595-4.594.001-.001a.75.75 0 0 0 0-1.061l-4.596-4.596a.75.75 0 0 0-1.06 1.06zM5.877 67.28 1.81 71.346l4.066 4.066a.75.75 0 0 1-1.061 1.06L.221 71.879l-.001-.001a.75.75 0 0 1 0-1.061l4.596-4.596a.75.75 0 1 1 1.06 1.06z" fill-rule="nonzero"/>
                <path d="M14.224 62.536a.75.75 0 0 1 .53.919l-4.27 15.937a.75.75 0 0 1-1.449-.388l4.27-15.938a.75.75 0 0 1 .92-.53z"/>
            </g>
        </g>
    </g>
</svg>
