<?xml version="1.0" encoding="UTF-8"?>
<svg width="20px" height="20px" viewBox="0 0 20 20" version="1.1" xmlns="http://www.w3.org/2000/svg" xmlns:xlink="http://www.w3.org/1999/xlink">
    <title>0C73BB97-351A-86D6-6FF2-7449848FFA89</title>
    <defs>
        <rect id="path-1" x="0" y="0" width="20" height="20"></rect>
    </defs>
    <g id="💎-Components" stroke="none" stroke-width="1" fill="none" fill-rule="evenodd">
        <g id="Icons/Grid" transform="translate(-1130.000000, -1022.000000)">
            <g id="20dp" transform="translate(62.000000, 941.000000)">
                <g id="Black" transform="translate(954.000000, 0.000000)">
                    <g id="Icon-/-20-/-Black" transform="translate(34.000000, 41.000000)">
                        <g id="Icons-/-20-/-ic_write_black" transform="translate(80.000000, 40.000000)">
                            <mask id="mask-2" fill="white">
                                <use xlink:href="#path-1"></use>
                            </mask>
                            <g id="Icons-/-20-/-ic_write_black-(Background/Mask)"></g>
                            <path d="M7.57537746,14.7885075 L4.12705469,15.2811241 C3.99506164,15.2999802 3.88192463,15.1868429 3.90078044,15.0548496 L4.39339709,11.6065273 L14.6464462,1.35347803 C14.8417082,1.15821588 15.1582909,1.15821555 15.3535538,1.35347769 L17.8284264,3.8283515 C18.0236893,4.02361369 18.0236893,4.34019589 17.8284264,4.53545809 L7.57537746,14.7885075 Z M15,2.41413784 L16.767767,4.18190479 L7.10397339,13.8456984 L5.04157925,14.1403255 L5.33620644,12.0779314 L15,2.41413784 Z M1.5,17.4999237 L18.5,17.4999237 C18.7761421,17.4999237 19,17.7237816 19,17.9999237 C19,18.2760658 18.7761421,18.4999237 18.5,18.4999237 L1.5,18.4999237 C1.22385788,18.4999237 1,18.2760658 1,17.9999237 C1,17.7237816 1.22385764,17.4999237 1.5,17.4999237 Z" id="Union" fill="#000000" mask="url(#mask-2)"></path>
                        </g>
                    </g>
                </g>
            </g>
        </g>
    </g>
</svg>