<?xml version="1.0" encoding="UTF-8"?>
<svg width="48px" height="116px" viewBox="0 0 48 116" version="1.1" xmlns="http://www.w3.org/2000/svg" xmlns:xlink="http://www.w3.org/1999/xlink">
    <title>C1564657-33D9-476C-A25C-14A99621AF83</title>
    <defs>
        <rect id="path-1" x="0" y="0" width="48" height="48"></rect>
        <rect id="path-3" x="0" y="0" width="48" height="48"></rect>
    </defs>
    <g id="💎-Components" stroke="none" stroke-width="1" fill="none" fill-rule="evenodd">
        <g id="Icons-/-24-/--Icons/Grid/Keep" transform="translate(-1758.000000, -1615.000000)">
            <g id="Black" transform="translate(1016.000000, 1585.000000)">
                <g id="Group-5843" transform="translate(30.000000, 30.000000)">
                    <g id="Icons-/-48-/-ic_thumbdown_off_on" transform="translate(712.000000, 0.000000)">
                        <g id="Icons-/-48-/-ic_thumb_down_on" transform="translate(0.000000, 68.000000)">
                            <mask id="mask-2" fill="white">
                                <use xlink:href="#path-1" transform="translate(24.000000, 24.000000) scale(1, -1) translate(-24.000000, -24.000000) "></use>
                            </mask>
                            <g id="Icons-/-48-/-ic_thumb_down_off-(Background/Mask)" transform="translate(24.000000, 24.000000) scale(1, -1) translate(-24.000000, -24.000000) "></g>
                            <g id="ic_thumb_down_off" mask="url(#mask-2)" fill="#FF664D">
                                <g transform="translate(5.000000, 5.310913)" id="Vector">
                                    <path d="M2,16.6890888 L4.5999999,16.6890888 C5.70456934,16.6890888 6.5999999,17.5845193 6.5999999,18.6890888 L6.5999999,34.6890869 C6.5999999,35.7936573 5.70456934,36.6890869 4.5999999,36.6890869 L2,36.6890869 C0.895430446,36.6890869 0,35.7936573 0,34.6890869 L0,18.6890888 C0,17.5845193 0.895430446,16.6890888 2,16.6890888 Z M13.1295176,2.48870945 L8.6331749,18.3190289 C8.54481721,18.6301098 8.5,18.9519348 8.5,19.2753181 L8.5,32.6891022 C8.5,34.6221046 10.0670048,36.1891022 12,36.1891022 L31.6331482,36.1891022 C33.3992481,36.1891022 34.8886433,34.8733215 35.1064301,33.1207085 L37.2093735,16.1976357 C37.4688587,14.1094723 35.8403168,12.2660246 33.7360878,12.2660246 L24.2666969,12.2660246 C24.1109915,12.2660246 23.9504948,12.1967325 23.8161583,12.0338202 C23.6767969,11.8648157 23.6047068,11.6365385 23.6306953,11.4124994 C23.826498,9.72456455 23.9373207,7.19915867 23.063343,5.29433537 C22.5385199,4.15049076 21.6407127,3.17868137 20.7465935,2.40626621 C19.8375292,1.6209383 18.8377762,0.961560309 17.9947567,0.46356684 C16.0064368,-0.710982263 13.698339,0.48605442 13.1295176,2.48870945 Z" transform="translate(18.618299, 18.344543) rotate(-180.000000) translate(-18.618299, -18.344543) "></path>
                                </g>
                            </g>
                        </g>
                        <g id="Icons-/-48-/-ic_thumb_down_off">
                            <mask id="mask-4" fill="white">
                                <use xlink:href="#path-3" transform="translate(24.000000, 24.000000) scale(1, -1) translate(-24.000000, -24.000000) "></use>
                            </mask>
                            <g id="Icons-/-48-/-ic_thumb_down_off-(Background/Mask)" transform="translate(24.000000, 24.000000) scale(1, -1) translate(-24.000000, -24.000000) "></g>
                            <g id="ic_thumb_down_off" mask="url(#mask-4)" stroke="#CBCDCF" stroke-dasharray="0,0" stroke-linejoin="round" stroke-width="3">
                                <g transform="translate(6.000374, 7.000000)">
                                    <path d="M29.5295258,0.000228881836 L34.0001144,0.000228881836 C35.1046839,0.000228881836 36.0001144,0.895659382 36.0001144,2.00022888 L36.0001144,14.9414062 C36.0001144,16.0459757 35.1046839,16.9414062 34.0001144,16.9414062 L29.5295258,16.9414062 C28.4249563,16.9414062 27.5295258,16.0459757 27.5295258,14.9414062 L27.5295258,2.00022888 C27.5295258,0.895659382 28.4249563,0.000228881836 29.5295258,0.000228881836 Z" id="Rectangle-4301" transform="translate(31.764820, 8.470818) rotate(180.000000) translate(-31.764820, -8.470818) "></path>
                                    <path d="M24.9943519,34.2466325 L27.2502342,16.0927863 C27.3864456,14.9966475 26.6082706,13.9976304 25.5121318,13.861419 C25.4303142,13.851252 25.3479462,13.8461538 25.2654993,13.8461538 L14.8372168,13.8461538 C13.7326475,13.8455241 12.8377274,12.9495834 12.8383569,11.8450141 C12.8384145,11.7438649 12.8461455,11.6428658 12.8615527,11.5428969 C13.2431341,9.05931829 13.0853616,7.05783984 12.3882351,5.53846154 C11.426645,3.44268828 9.13252743,1.59653444 5.50588226,0 L0.0761003084,19.1166883 C0.0256103949,19.2944486 1.75372638e-15,19.4783487 0,19.6631404 L0,34 C1.3527075e-16,35.1045695 0.8954305,36 2,36 L23.009617,36 C24.0188154,36 24.8699013,35.248128 24.9943519,34.2466325 Z" id="Vector-4" transform="translate(13.764706, 18.000000) rotate(180.000000) translate(-13.764706, -18.000000) "></path>
                                </g>
                            </g>
                        </g>
                    </g>
                </g>
            </g>
        </g>
    </g>
</svg>