<?xml version="1.0" encoding="UTF-8"?>
<svg width="24px" height="68px" viewBox="0 0 24 68" version="1.1" xmlns="http://www.w3.org/2000/svg" xmlns:xlink="http://www.w3.org/1999/xlink">
    <title>B0C32961-5B0A-2250-9B21-143FAA398C57</title>
    <defs>
        <path d="M24,2.69230819 L24,17.4297619 L16.4547253,23 L2.18182015,23 C1.60316575,23 1.04821178,22.8217046 0.639041483,22.5043354 C0.229871124,22.1869662 0,21.7565213 0,21.3076935 L0,2.69231033 C0,2.24348259 0.229869306,1.81303784 0.639039636,1.49566835 C1.04820988,1.17829886 1.60316384,1 2.18181825,1 L21.818182,1 C22.3968372,1 22.9517917,1.17829692 23.3609619,1.49566635 C23.7701321,1.81303579 24,2.24348044 24,2.69230819 Z M6,14 C6,14.5522852 6.44771719,15 7,15 L12,15 C12.5522861,15 13,14.5522852 13,14 C13,13.4477158 12.5522871,13 12,13 L7,13 C6.44771719,13 6,13.4477148 6,14 Z M6,9 C6,8.44771576 6.44771719,8 7,8 L15,8 C15.5522871,8 16,8.44771576 16,9 C16,9.55228519 15.5522871,10 15,10 L7,10 C6.44771719,10 6,9.55228519 6,9 Z" id="path-1"></path>
        <mask id="mask-2" maskContentUnits="userSpaceOnUse" maskUnits="objectBoundingBox" x="0" y="0" width="24.0000038" height="22" fill="white">
            <use xlink:href="#path-1"></use>
        </mask>
    </defs>
    <g id="💎-Components" stroke="none" stroke-width="1" fill="none" fill-rule="evenodd">
        <g id="Icons/Grid" transform="translate(-420.000000, -1385.000000)">
            <g id="24dp" transform="translate(62.000000, 1263.000000)">
                <g id="White" transform="translate(122.000000, 0.000000)">
                    <g id="Icon-/-24-/-White" transform="translate(40.000000, 40.000000)">
                        <g id="Icons-/-24-/-ic_note_off_on" transform="translate(196.000000, 82.000000)">
                            <g id="Property-1=24,-Property-2=ic_note_off_white">
                                <rect id="area" x="0" y="0" width="24" height="24"></rect>
                                <path d="M22,16.4202843 L15.7964582,21 L2.18182015,21 C2.10931039,21 2.04847193,20.9908731 2,20.9788418 L2,3.02115989 C2.0484705,3.00912833 2.10930896,3 2.18181849,3 L21.818182,3 C21.8906918,3 21.9515305,3.00912667 22,3.02115822 L22,16.4202843 Z M2.18182015,23 C1.60316575,23 1.04821178,22.8217046 0.639041483,22.5043354 C0.229871124,22.1869662 0,21.7565213 0,21.3076935 L0,2.69231033 C0,2.24348259 0.229869336,1.81303784 0.639039636,1.49566835 C1.04820988,1.17829886 1.60316384,1 2.18181825,1 L21.818182,1 C22.3968372,1 22.9517917,1.17829692 23.3609619,1.49566635 C23.7701321,1.81303579 24,2.24348044 24,2.69230819 L24,17.4297619 L16.4547253,23 L2.18182015,23 Z M6.99994802,12.9999819 L11.9999475,12.9999819 C12.5522323,12.9999819 12.9999476,13.4476971 12.9999475,13.9999819 C12.9999475,14.5522667 12.5522323,14.9999819 11.9999475,14.9999819 L6.99994802,14.9999819 C6.44766325,14.9999819 5.99994802,14.5522667 5.99994802,13.9999819 C5.99994803,13.4476971 6.44766325,12.9999819 6.99994802,12.9999819 Z M6.99994802,9.99998283 L14.9999475,9.99998188 C15.5522327,9.99998183 15.9999476,9.55226713 15.9999475,8.99998236 C15.9999475,8.44769758 15.5522327,7.99998231 14.9999475,7.99998236 L6.99994802,7.99998283 C6.44766325,7.99998288 5.99994798,8.44769853 5.99994802,8.99998331 C5.99994807,9.55226809 6.44766325,9.99998288 6.99994802,9.99998283 Z" id="Vector" fill="#FFFFFF"></path>
                            </g>
                            <g id="Property-1=24,-Property-2=ic_script_off_white" transform="translate(0.000000, 44.000000)">
                                <rect id="area" x="0" y="0" width="24" height="24"></rect>
                                <use id="Subtract" stroke="#FFFFFF" mask="url(#mask-2)" stroke-width="4" fill="#FFFFFF" stroke-linecap="round" stroke-linejoin="round" stroke-dasharray="0,0" xlink:href="#path-1"></use>
                            </g>
                        </g>
                    </g>
                </g>
            </g>
        </g>
    </g>
</svg>