<?xml version="1.0" encoding="UTF-8"?>
<svg width="24px" height="24px" viewBox="0 0 24 24" version="1.1" xmlns="http://www.w3.org/2000/svg" xmlns:xlink="http://www.w3.org/1999/xlink">
    <title>F773DBEC-B3D7-6801-2C35-255D50B7BDA1</title>
    <defs>
        <rect id="path-1" x="0" y="0" width="24" height="24"></rect>
    </defs>
    <g id="💎-Components" stroke="none" stroke-width="1" fill="none" fill-rule="evenodd">
        <g id="Icons/Grid" transform="translate(-1628.000000, -1303.000000)">
            <g id="24dp" transform="translate(62.000000, 1263.000000)">
                <g id="Black" transform="translate(954.000000, 0.000000)">
                    <g id="Icon-/-24-/-Black" transform="translate(40.000000, 40.000000)">
                        <g id="Icons-/-24-/-ic_add_grey04" transform="translate(572.000000, 0.000000)">
                            <mask id="mask-2" fill="white">
                                <use xlink:href="#path-1"></use>
                            </mask>
                            <g id="Icons-/-24-/-ic_add_grey04-(Background/Mask)"></g>
                            <path d="M12,6 C11.4477153,6 11,6.44771522 11,7 L11,11 L7,11 C6.44771481,11 6,11.4477153 6,12 C6,12.5522847 6.44771481,13 7,13 L11,13 L11,17 C11,17.5522852 11.4477153,18 12,18 C12.5522847,18 13,17.5522852 13,17 L13,13 L17,13 C17.5522852,13 18,12.5522847 18,12 C18,11.4477153 17.5522852,11 17,11 L13,11 L13,7 C13,6.44771522 12.5522847,6 12,6 Z" id="Union" fill="#CBCDCF" fill-rule="nonzero" mask="url(#mask-2)"></path>
                            <path d="M22,12 C22,6.47715235 17.5228481,2 12,2 C6.47715235,2 2,6.47715235 2,12 C2,17.5228481 6.47715235,22 12,22 C17.5228481,22 22,17.5228481 22,12 Z M24,12 C24,5.37258291 18.6274166,0 12,0 C5.37258291,0 0,5.37258291 0,12 C0,18.6274166 5.37258291,24 12,24 C18.6274166,24 24,18.6274166 24,12 Z" id="Ellipse-1032-(Stroke)" fill="#CBCDCF" mask="url(#mask-2)"></path>
                        </g>
                    </g>
                </g>
            </g>
        </g>
    </g>
</svg>