<svg width="16" height="16" viewBox="0 0 16 16" xmlns="http://www.w3.org/2000/svg" xmlns:xlink="http://www.w3.org/1999/xlink">
    <defs>
        <path id="9c20q5pzhc" d="M0 0h16v16H0z"/>
        <path id="gkz77855ha" d="M5 .5h6v6H5z"/>
        <path d="M1 14.5v1h14v-1a7 7 0 1 0-14 0z" id="p8ojk8sghb"/>
        <mask id="093c28vrqe" maskContentUnits="userSpaceOnUse" maskUnits="objectBoundingBox" x="0" y="0" width="6" height="6" fill="#fff">
            <use xlink:href="#gkz77855ha"/>
        </mask>
        <mask id="vh7mpbm3bf" maskContentUnits="userSpaceOnUse" maskUnits="objectBoundingBox" x="0" y="0" width="14" height="8" fill="#fff">
            <use xlink:href="#p8ojk8sghb"/>
        </mask>
    </defs>
    <g fill="none" fill-rule="evenodd">
        <mask id="lhtt7j161d" fill="#fff">
            <use xlink:href="#9c20q5pzhc"/>
        </mask>
        <g stroke-dasharray="0,0" mask="url(#lhtt7j161d)" stroke="#FFF" stroke-width="2">
            <use mask="url(#093c28vrqe)" xlink:href="#gkz77855ha"/>
        </g>
        <g stroke-dasharray="0,0" fill-rule="nonzero" mask="url(#lhtt7j161d)" stroke="#FFF" stroke-width="2">
            <use mask="url(#vh7mpbm3bf)" xlink:href="#p8ojk8sghb"/>
        </g>
        <path d="M4.654 8.646a.545.545 0 0 1 .744 0L8 11.121l2.602-2.475a.545.545 0 0 1 .744 0 .483.483 0 0 1 0 .708l-2.957 2.811a.538.538 0 0 1-.39.163.538.538 0 0 1-.388-.163L4.654 9.354a.483.483 0 0 1 0-.708z" fill="#FFF" fill-rule="nonzero" mask="url(#lhtt7j161d)"/>
        <path d="M7.5 11.5h1v4h-1v-4z" fill="#FFF" mask="url(#lhtt7j161d)"/>
    </g>
</svg>
