<?xml version="1.0" encoding="UTF-8"?>
<svg width="48px" height="116px" viewBox="0 0 48 116" version="1.1" xmlns="http://www.w3.org/2000/svg" xmlns:xlink="http://www.w3.org/1999/xlink">
    <title>EDFEF8C9-89E0-485B-9371-3A79A16AE8DF</title>
    <defs>
        <rect id="path-1" x="0" y="0" width="48" height="48"></rect>
        <rect id="path-3" x="0" y="0" width="48" height="48"></rect>
    </defs>
    <g id="💎-Components" stroke="none" stroke-width="1" fill="none" fill-rule="evenodd">
        <g id="Icons-/-24-/--Icons/Grid/Keep" transform="translate(-1680.000000, -1615.000000)">
            <g id="Black" transform="translate(1016.000000, 1585.000000)">
                <g id="Group-5843" transform="translate(30.000000, 30.000000)">
                    <g id="Icons-/-48-/-ic_thumbup_off_on" transform="translate(634.000000, 0.000000)">
                        <g id="Icons-/-48-/-ic_thumb_up_on" transform="translate(0.000000, 68.000000)">
                            <mask id="mask-2" fill="white">
                                <use xlink:href="#path-1" transform="translate(24.000000, 24.000000) scale(1, -1) translate(-24.000000, -24.000000) "></use>
                            </mask>
                            <g id="Icons-/-48-/-ic_thumb_up_on-(Background/Mask)" transform="translate(24.000000, 24.000000) scale(1, -1) translate(-24.000000, -24.000000) "></g>
                            <path d="M7,22.0000019 L9.5999999,22.0000019 C10.7045693,22.0000019 11.5999999,22.8954324 11.5999999,24.0000019 L11.5999999,40 C11.5999999,41.1045704 10.7045693,42 9.5999999,42 L7,42 C5.89543045,42 5,41.1045704 5,40 L5,24.0000019 C5,22.8954324 5.89543045,22.0000019 7,22.0000019 Z M18.1295176,7.79962254 L13.6331749,23.6299419 C13.5448172,23.9410229 13.5,24.2628479 13.5,24.5862312 L13.5,38.0000153 C13.5,39.9330177 15.0670048,41.5000153 17,41.5000153 L36.6331482,41.5000153 C38.3992481,41.5000153 39.8886433,40.1842346 40.1064301,38.4316216 L42.2093735,21.5085487 C42.4688587,19.4203854 40.8403168,17.5769377 38.7360878,17.5769377 L29.2666969,17.5769377 C29.1109915,17.5769377 28.9504948,17.5076456 28.8161583,17.3447332 C28.6767969,17.1757288 28.6047068,16.9474516 28.6306953,16.7234125 C28.826498,15.0354776 28.9373207,12.5100718 28.063343,10.6052485 C27.5385199,9.46140385 26.6407127,8.48959446 25.7465935,7.7171793 C24.8375292,6.93185139 23.8377762,6.27247339 22.9947567,5.77447993 C21.0064368,4.59993082 18.698339,5.79696751 18.1295176,7.79962254 Z" id="Vector" fill="#FF664D" mask="url(#mask-2)"></path>
                        </g>
                        <g id="Icons-/-48-/-ic_thumb_up_off">
                            <mask id="mask-4" fill="white">
                                <use xlink:href="#path-3" transform="translate(24.000000, 24.000000) scale(1, -1) translate(-24.000000, -24.000000) "></use>
                            </mask>
                            <g id="Icons-/-48-/-ic_thumb_up_on-(Background/Mask)" transform="translate(24.000000, 24.000000) scale(1, -1) translate(-24.000000, -24.000000) "></g>
                            <g id="Group-4" mask="url(#mask-4)" stroke="#CBCDCF" stroke-dasharray="0,0" stroke-linejoin="round" stroke-width="3">
                                <g transform="translate(5.000374, 5.000000)">
                                    <path d="M2,19.0585938 L6.47058868,19.0585938 C7.57515818,19.0585938 8.47058868,19.9540243 8.47058868,21.0585938 L8.47058868,33.9997711 C8.47058868,35.1043406 7.57515818,35.9997711 6.47058868,35.9997711 L2,35.9997711 C0.8954305,35.9997711 -3.0881846e-16,35.1043406 0,33.9997711 L0,21.0585938 C-1.3527075e-16,19.9540243 0.8954305,19.0585938 2,19.0585938 Z" id="Rectangle-4301" transform="translate(4.235294, 27.529182) rotate(-360.000000) translate(-4.235294, -27.529182) "></path>
                                    <path d="M33.465055,34.2466325 L35.7209373,16.0927863 C35.8571487,14.9966475 35.0789737,13.9976304 33.982835,13.861419 C33.9010174,13.851252 33.8186494,13.8461538 33.7362025,13.8461538 L23.30792,13.8461538 C22.2033506,13.8455241 21.3084306,12.9495834 21.30906,11.8450141 C21.3091177,11.7438649 21.3168486,11.6428658 21.3322558,11.5428969 C21.7138372,9.05931829 21.5560647,7.05783984 20.8589382,5.53846154 C19.8973482,3.44268828 17.6032306,1.59653444 13.9765854,0 L8.54680343,19.1166883 C8.49631352,19.2944486 8.47070313,19.4783487 8.47070313,19.6631404 L8.47070313,34 C8.47070313,35.1045695 9.36613363,36 10.4707031,36 L31.4803202,36 C32.4895185,36 33.3406045,35.248128 33.465055,34.2466325 Z" id="Vector-4" transform="translate(22.235409, 18.000000) rotate(-360.000000) translate(-22.235409, -18.000000) "></path>
                                </g>
                            </g>
                        </g>
                    </g>
                </g>
            </g>
        </g>
    </g>
</svg>