<?xml version="1.0" encoding="UTF-8"?>
<svg width="20px" height="60px" viewBox="0 0 20 60" version="1.1" xmlns="http://www.w3.org/2000/svg" xmlns:xlink="http://www.w3.org/1999/xlink">
    <title>07EC4AD2-B90B-7023-C9DA-C71FF4769A5D</title>
    <defs>
        <rect id="path-1" x="0" y="0" width="20" height="20"></rect>
        <rect id="path-3" x="0" y="0" width="20" height="20"></rect>
    </defs>
    <g id="💎-Components" stroke="none" stroke-width="1" fill="none" fill-rule="evenodd">
        <g id="Icons/Grid" transform="translate(-1252.000000, -1115.000000)">
            <g id="20dp" transform="translate(62.000000, 941.000000)">
                <g id="Black" transform="translate(954.000000, 0.000000)">
                    <g id="Icon-/-20-/-Black" transform="translate(34.000000, 41.000000)">
                        <g id="icons-/-20-/-ic_text_bolder_off_on" transform="translate(202.000000, 133.000000)">
                            <g id="Property-1=20,-Property-2=ic_text_bolder_black">
                                <mask id="mask-2" fill="white">
                                    <use xlink:href="#path-1"></use>
                                </mask>
                                <g id="Property-1=20,-Property-2=ic_text_bolder_black-(Background/Mask)"></g>
                                <path d="M4.00003117,2.5 L11.7189922,2.50048146 C11.7189817,2.50048146 11.7190027,2.50048146 11.7189922,2.50048146 C12.8166809,2.50048947 13.8722305,2.92406094 14.6526699,3.68239379 C15.4336061,4.44120824 15.8750744,5.47349262 15.8750744,6.55299902 C15.8750744,7.63250542 15.4336061,8.6647892 14.6526699,9.42360353 C14.5178576,9.5545969 14.3748379,9.67560148 14.2248106,9.78615952 C14.947731,9.99338293 15.6142063,10.3740549 16.1586142,10.9030418 C17.0157328,11.7358813 17.5,12.8685646 17.5,14.0527582 C17.5,15.2369518 17.0157328,16.3696356 16.1586142,17.2024755 C15.3019829,18.0348406 14.1431246,18.5 12.937686,18.5 L3.99997306,18.4995184 C3.72384119,18.4995031 3.5,18.27565 3.5,17.9995184 L3.5,3 C3.5,2.86738636 3.5526827,2.74020466 3.64645764,2.64643559 C3.74023256,2.55266649 3.86741753,2.5 4.00003117,2.5 Z M13.9557943,8.70641184 C14.546155,8.13277388 14.8750744,7.35786486 14.8750744,6.55299902 C14.8750744,5.74813294 14.546155,4.97322357 13.9557943,4.39958549 C13.3649445,3.82547301 12.5605989,3.50048149 11.7189922,3.50048149 L4.5,3.50003123 L4.5,9.60551691 L11.7189922,9.60551691 C12.5605989,9.60551691 13.3649445,9.28052473 13.9557943,8.70641184 Z M4.5,17.4995451 L12.937686,17.5 C12.9376774,17.5 12.9376945,17.5 12.937686,17.5 C13.887023,17.5 14.7947121,17.1334162 15.4617376,16.4852839 C16.1282816,15.8376207 16.5,14.9623117 16.5,14.0527582 C16.5,13.1432047 16.1282816,12.2678957 15.4617376,11.6202326 C14.7947054,10.972095 13.8870325,10.6055174 12.937686,10.6055174 L4.5,10.6055174 L4.5,17.4995451 Z" id="Vector-(Stroke)" fill="#000000" mask="url(#mask-2)"></path>
                            </g>
                            <g id="Property-1=20,-Property-2=ic_text_bolder_primary" transform="translate(0.000000, 40.000000)">
                                <mask id="mask-4" fill="white">
                                    <use xlink:href="#path-3"></use>
                                </mask>
                                <g id="Property-1=20,-Property-2=ic_text_bolder_primary-(Background/Mask)"></g>
                                <path d="M4.00003117,2.5 L11.7189922,2.50048146 C11.7189817,2.50048146 11.7190027,2.50048146 11.7189922,2.50048146 C12.8166809,2.50048947 13.8722305,2.92406094 14.6526699,3.68239379 C15.4336061,4.44120824 15.8750744,5.47349262 15.8750744,6.55299902 C15.8750744,7.63250542 15.4336061,8.6647892 14.6526699,9.42360353 C14.5178576,9.5545969 14.3748379,9.67560148 14.2248106,9.78615952 C14.947731,9.99338293 15.6142063,10.3740549 16.1586142,10.9030418 C17.0157328,11.7358813 17.5,12.8685646 17.5,14.0527582 C17.5,15.2369518 17.0157328,16.3696356 16.1586142,17.2024755 C15.3019829,18.0348406 14.1431246,18.5 12.937686,18.5 L3.99997306,18.4995184 C3.72384119,18.4995031 3.5,18.27565 3.5,17.9995184 L3.5,3 C3.5,2.86738636 3.5526827,2.74020466 3.64645764,2.64643559 C3.74023256,2.55266649 3.86741753,2.5 4.00003117,2.5 Z M13.9557943,8.70641184 C14.546155,8.13277388 14.8750744,7.35786486 14.8750744,6.55299902 C14.8750744,5.74813294 14.546155,4.97322357 13.9557943,4.39958549 C13.3649445,3.82547301 12.5605989,3.50048149 11.7189922,3.50048149 L4.5,3.50003123 L4.5,9.60551691 L11.7189922,9.60551691 C12.5605989,9.60551691 13.3649445,9.28052473 13.9557943,8.70641184 Z M4.5,17.4995451 L12.937686,17.5 C12.9376774,17.5 12.9376945,17.5 12.937686,17.5 C13.887023,17.5 14.7947121,17.1334162 15.4617376,16.4852839 C16.1282816,15.8376207 16.5,14.9623117 16.5,14.0527582 C16.5,13.1432047 16.1282816,12.2678957 15.4617376,11.6202326 C14.7947054,10.972095 13.8870325,10.6055174 12.937686,10.6055174 L4.5,10.6055174 L4.5,17.4995451 Z" id="Vector-(Stroke)" fill="#FF664D" mask="url(#mask-4)"></path>
                            </g>
                        </g>
                    </g>
                </g>
            </g>
        </g>
    </g>
</svg>