<?xml version="1.0" encoding="UTF-8"?>
<svg width="16px" height="16px" viewBox="0 0 16 16" version="1.1" xmlns="http://www.w3.org/2000/svg" xmlns:xlink="http://www.w3.org/1999/xlink">
    <title>575FC444-4B7F-1934-814A-1D27C5C1CBA7</title>
    <g id="💎-Components" stroke="none" stroke-width="1" fill="none" fill-rule="evenodd">
        <g id="Icons/Grid" transform="translate(-1164.000000, -805.000000)">
            <g id="16dp" transform="translate(62.000000, 729.000000)">
                <g id="Black" transform="translate(954.000000, 0.000000)">
                    <g id="Group-5836" transform="translate(40.000000, 39.999999)">
                        <g id="Icons-/-16-/-ic_discussion_grey06" transform="translate(108.000000, 36.000001)">
                            <rect id="area" x="0" y="0" width="16" height="16"></rect>
                            <path d="M11.9999996,1.5 L0.999999571,1.5 C0.723857451,1.5 0.499999571,1.72385761 0.499999571,2 L0.499999571,11 C0.499999571,11.1849136 0.60205512,11.3547297 0.765338469,11.4415131 C0.928621817,11.5282974 1.12647109,11.5178785 1.27973609,11.4144239 L3.15295653,10.1499996 L3.49999957,10.1499996 L3.49999957,9.14999962 L2.99999957,9.14999962 C2.90030818,9.14999962 2.80289226,9.17980051 2.72026305,9.2355752 L1.49999957,10.0592537 L1.49999957,2.5 L11.4999996,2.5 L11.4999996,4.5 L12.4999996,4.5 L12.4999996,2 C12.4999996,1.72385761 12.276142,1.5 11.9999996,1.5 Z M3.99999957,4.5 L14.9999996,4.5 C15.2761417,4.5 15.4999996,4.72385761 15.4999996,5 L15.4999996,15 C15.4999996,15.1893864 15.3929983,15.3625174 15.2236066,15.4472132 C15.054214,15.5319099 14.8515087,15.5136318 14.6999994,15.3999996 L12.8333335,14 L3.99999957,14 C3.72385718,14 3.49999957,13.7761421 3.49999957,13.5 L3.49999957,5 C3.49999957,4.72385761 3.72385718,4.5 3.99999957,4.5 Z M4.49999957,13 L12.9999996,13 C13.1081844,13 13.2134519,13.0350885 13.2999998,13.1000004 L14.4999996,14 L14.4999996,5.5 L4.49999957,5.5 L4.49999957,13 Z M5.99999957,8.5 L5.99999957,7.5 L12.9999996,7.5 L12.9999996,8.5 L5.99999957,8.5 Z M5.99999957,10.5 L5.99999957,9.5 L10.9999996,9.5 L10.9999996,10.5 L5.99999957,10.5 Z" id="Vector" fill="#75777B"></path>
                        </g>
                    </g>
                </g>
            </g>
        </g>
    </g>
</svg>