<?xml version="1.0" encoding="UTF-8"?>
<svg width="20px" height="20px" viewBox="0 0 20 20" version="1.1" xmlns="http://www.w3.org/2000/svg" xmlns:xlink="http://www.w3.org/1999/xlink">
    <title>AD34A161-31FD-54B3-DB99-0FB241EF2FCB</title>
    <defs>
        <rect id="path-1" x="0" y="0" width="20" height="20"></rect>
    </defs>
    <g id="💎-Components" stroke="none" stroke-width="1" fill="none" fill-rule="evenodd">
        <g id="Icons/Grid" transform="translate(-1090.000000, -982.000000)">
            <g id="20dp" transform="translate(62.000000, 941.000000)">
                <g id="Black" transform="translate(954.000000, 0.000000)">
                    <g id="Icon-/-20-/-Black" transform="translate(34.000000, 41.000000)">
                        <g id="Icons-/-20-/-ic_search_black" transform="translate(40.000000, 0.000000)">
                            <mask id="mask-2" fill="white">
                                <use xlink:href="#path-1"></use>
                            </mask>
                            <g id="Icons-/-20-/-ic_search_black-(Background/Mask)"></g>
                            <path d="M15.5,8.5 C15.5,4.91014957 12.5898514,2 9,2 C5.41014957,2 2.5,4.91015005 2.5,8.5 C2.5,12.0898514 5.41014981,15 9,15 C10.5247326,15 11.9268465,14.4750118 13.0354433,13.5959358 C13.0395384,13.6002264 13.0436916,13.6044827 13.0479078,13.6086988 L16.2298889,16.7906799 C16.5227823,17.0835733 16.9976559,17.0835733 17.2905493,16.7906799 C17.5834417,16.4977865 17.5834417,16.022913 17.2905493,15.7300196 L14.1085682,12.5480394 C14.1043568,12.543828 14.1001062,12.5396795 14.0958204,12.5355892 C14.974966,11.4269695 15.5,10.0247993 15.5,8.5 Z M9,13.5 C6.23857665,13.5 4,11.2614241 4,8.5 C4,5.73857689 6.23857665,3.5 9,3.5 C11.7614241,3.5 14,5.73857641 14,8.5 C14,11.2614241 11.7614241,13.5 9,13.5 Z" id="Union" fill="#000000" mask="url(#mask-2)"></path>
                        </g>
                    </g>
                </g>
            </g>
        </g>
    </g>
</svg>