<?xml version="1.0" encoding="UTF-8"?>
<svg width="20px" height="20px" viewBox="0 0 20 20" version="1.1" xmlns="http://www.w3.org/2000/svg" xmlns:xlink="http://www.w3.org/1999/xlink">
    <title>14D8C7B1-0CAF-4BB2-9678-0CE08D2B3959</title>
    <g id="학습창" stroke="none" stroke-width="1" fill="none" fill-rule="evenodd">
        <g id="Cube_Case" transform="translate(-80.000000, -311.000000)">
            <g id="Icons-/-20-/-ic_talk_black" transform="translate(80.000000, 311.000000)">
                <path d="M0,0 L20,0 L20,20 L0,20 L0,0 Z" id="area"></path>
                <path d="M18,15 L18,4 L3,4 L3,15.6103697 L3.82225502,15 L18,15 Z M2,17.2005339 L2,4 C2,3.44771552 2.44771516,3 3,3 L18,3 C18.5522842,3 19,3.44771576 19,4 L19,15 C19,15.5522871 18.5522842,16 18,16 L4.15284538,16 L2.31920749,17.3611259 C2.18723847,17.4590874 2,17.3648882 2,17.2005339 Z M6.5,10.5 C5.94771528,10.5 5.5,10.0522847 5.5,9.5 C5.5,8.94771528 5.94771528,8.5 6.5,8.5 C7.05228472,8.5 7.5,8.94771528 7.5,9.5 C7.5,10.0522847 7.05228472,10.5 6.5,10.5 Z M10.5,10.5 C9.94771528,10.5 9.5,10.0522847 9.5,9.5 C9.5,8.94771528 9.94771528,8.5 10.5,8.5 C11.0522847,8.5 11.5,8.94771528 11.5,9.5 C11.5,10.0522847 11.0522847,10.5 10.5,10.5 Z M15.5,9.5 C15.5,8.94771528 15.0522852,8.5 14.5,8.5 C13.9477148,8.5 13.5,8.94771528 13.5,9.5 C13.5,10.0522847 13.9477148,10.5 14.5,10.5 C15.0522852,10.5 15.5,10.0522847 15.5,9.5 Z" id="Vector" fill="#000000"></path>
            </g>
        </g>
    </g>
</svg>