<?xml version="1.0" encoding="UTF-8"?>
<svg width="24px" height="24px" viewBox="0 0 24 24" version="1.1" xmlns="http://www.w3.org/2000/svg" xmlns:xlink="http://www.w3.org/1999/xlink">
    <title>C4D541A6-9D58-9E7C-E708-6F9D10821CCF</title>
    <defs>
        <rect id="path-1" x="0" y="0" width="24" height="24"></rect>
    </defs>
    <g id="💎-Components" stroke="none" stroke-width="1" fill="none" fill-rule="evenodd">
        <g id="Icons/Grid" transform="translate(-1496.000000, -1303.000000)">
            <g id="24dp" transform="translate(62.000000, 1263.000000)">
                <g id="Black" transform="translate(954.000000, 0.000000)">
                    <g id="Icon-/-24-/-Black" transform="translate(40.000000, 40.000000)">
                        <g id="Icons-/-24-/-ic_faq_black" transform="translate(440.000000, 0.000000)">
                            <mask id="mask-2" fill="white">
                                <use xlink:href="#path-1"></use>
                            </mask>
                            <g id="Icons-/-24-/-ic_faq_black-(Background/Mask)"></g>
                            <path d="M11.1859046,13.9287634 C11.190714,13.5255376 11.2243803,13.1783154 11.2869034,12.8870968 C11.354236,12.5913978 11.4672586,12.3248208 11.6259711,12.0873656 C11.7894932,11.8499104 12.0059193,11.6146953 12.2752497,11.3817204 C12.5012949,11.1935484 12.6984832,11.0143369 12.8668147,10.844086 C13.0351461,10.6738351 13.1674066,10.4991039 13.263596,10.3198925 C13.3597854,10.1362007 13.4078801,9.93234767 13.4078801,9.70833333 C13.4078801,9.4484767 13.3645949,9.23342294 13.2780244,9.06317204 C13.1962634,8.88844086 13.0712172,8.7562724 12.9028857,8.66666667 C12.7393637,8.57706093 12.5325564,8.53225806 12.2824639,8.53225806 C12.0756567,8.53225806 11.8832778,8.57482079 11.7053274,8.65994624 C11.527377,8.7405914 11.3806881,8.86603943 11.2652608,9.03629032 C11.154643,9.20654122 11.0969293,9.43055556 11.0921199,9.70833333 L9,9.70833333 C9.01442841,9.09453405 9.16592675,8.58826165 9.45449501,8.18951613 C9.74787273,7.78629032 10.1398446,7.48835125 10.6304107,7.29569892 C11.1209767,7.09856631 11.6716611,7 12.2824639,7 C12.9557899,7 13.5329264,7.10304659 14.0138735,7.30913978 C14.4948206,7.51075269 14.8627451,7.80869176 15.1176471,8.20295699 C15.372549,8.59274194 15.5,9.06765233 15.5,9.62768817 C15.5,10.0174731 15.418239,10.3646953 15.254717,10.6693548 C15.091195,10.9695341 14.8771735,11.249552 14.6126526,11.5094086 C14.3481317,11.7692652 14.0571587,12.0380824 13.7397336,12.3158602 C13.4655938,12.5443548 13.2780244,12.7840502 13.1770255,13.0349462 C13.0808361,13.2858423 13.0303367,13.5837814 13.0255272,13.9287634 L11.1859046,13.9287634 Z M11.2869034,15.2930108 C11.4985202,15.1003584 11.7822789,15.0040323 12.1381798,15.0040323 C12.4892712,15.0040323 12.7706252,15.1003584 12.982242,15.2930108 C13.1986681,15.4811828 13.3068812,15.718638 13.3068812,16.0053763 C13.3068812,16.2831541 13.1986681,16.5183692 12.982242,16.7110215 C12.7706252,16.9036738 12.4892712,17 12.1381798,17 C11.7822789,17 11.4985202,16.9036738 11.2869034,16.7110215 C11.0752867,16.5183692 10.9694784,16.2831541 10.9694784,16.0053763 C10.9694784,15.718638 11.0752867,15.4811828 11.2869034,15.2930108 Z" id="?" fill="#000000" mask="url(#mask-2)"></path>
                            <path d="M5.5,3 C4.11928821,3 3,4.11928821 3,5.5 L3,18.5 C3,19.8807125 4.11928821,21 5.5,21 L18.5,21 C19.8807125,21 21,19.8807125 21,18.5 L21,5.5 C21,4.11928821 19.8807125,3 18.5,3 L5.5,3 Z M1.5,5.5 L1.5,18.5 C1.5,20.7091389 3.29086089,22.5 5.5,22.5 L18.5,22.5 C20.7091389,22.5 22.5,20.7091389 22.5,18.5 L22.5,5.5 C22.5,3.29086113 20.7091389,1.5 18.5,1.5 L5.5,1.5 C3.29086113,1.5 1.5,3.29086089 1.5,5.5 Z" id="Rectangle-4754-(Stroke)" fill="#000000" mask="url(#mask-2)"></path>
                        </g>
                    </g>
                </g>
            </g>
        </g>
    </g>
</svg>