<svg width="20" height="60" viewBox="0 0 20 60" xmlns="http://www.w3.org/2000/svg" xmlns:xlink="http://www.w3.org/1999/xlink">
    <defs>
        <path id="e1fbau5mya" d="M0 0h20v20H0z"/>
        <path id="rr7plro4ac" d="M0 0h20v20H0z"/>
    </defs>
    <g fill="none" fill-rule="evenodd">
        <g>
            <mask id="q2955lb5sb" fill="#fff">
                <use xlink:href="#e1fbau5mya"/>
            </mask>
            <path d="M1 5v12h18V5H1zM0 5v12a1 1 0 0 0 1 1h18a1 1 0 0 0 1-1V5a1 1 0 0 0-1-1H1a1 1 0 0 0-1 1z" fill="#000" mask="url(#q2955lb5sb)"/>
            <path d="M1 4h9.652l-.727-2H1v2zm8.925-3H1a1 1 0 0 0-1 1v3h12.08l-1.216-3.342A1 1 0 0 0 9.924 1z" fill="#000" mask="url(#q2955lb5sb)"/>
        </g>
        <g transform="translate(0 40)">
            <mask id="my9fcemrdd" fill="#fff">
                <use xlink:href="#rr7plro4ac"/>
            </mask>
            <path d="M1 5v12h18V5H1zM0 5v12a1 1 0 0 0 1 1h18a1 1 0 0 0 1-1V5a1 1 0 0 0-1-1H1a1 1 0 0 0-1 1z" fill="#FF664D" mask="url(#my9fcemrdd)"/>
            <path d="M1 4h9.652l-.727-2H1v2zm8.925-3H1a1 1 0 0 0-1 1v3h12.08l-1.216-3.342A1 1 0 0 0 9.924 1z" fill="#FF664D" mask="url(#my9fcemrdd)"/>
        </g>
    </g>
</svg>
