<svg width="20" height="60" viewBox="0 0 20 60" xmlns="http://www.w3.org/2000/svg" xmlns:xlink="http://www.w3.org/1999/xlink">
    <defs>
        <path id="v12uh14cia" d="M0 0h20v20H0z"/>
        <path id="irodm50ptc" d="M0 0h20v20H0z"/>
    </defs>
    <g fill="none" fill-rule="evenodd">
        <g>
            <mask id="kobf6y35gb" fill="#fff">
                <use xlink:href="#v12uh14cia"/>
            </mask>
            <path d="M7.043 2.445A.292.292 0 0 1 7.293 2h5.413a.294.294 0 0 1 .294.298.292.292 0 0 1-.043.147L10.25 6.86a.293.293 0 0 1-.502 0L7.043 2.445zM1 9.5h18a.5.5 0 1 1 0 1H1a.5.5 0 0 1 0-1zm9.25 3.64a.293.293 0 0 0-.5 0l-2.707 4.415a.292.292 0 0 0 .25.445h5.413a.294.294 0 0 0 .294-.298.292.292 0 0 0-.043-.147L10.25 13.14z" fill="#000" mask="url(#kobf6y35gb)"/>
        </g>
        <g transform="translate(0 40)">
            <mask id="29md42kggd" fill="#fff">
                <use xlink:href="#irodm50ptc"/>
            </mask>
            <path d="M7.043 2.445A.292.292 0 0 1 7.293 2h5.413a.294.294 0 0 1 .294.298.292.292 0 0 1-.043.147L10.25 6.86a.293.293 0 0 1-.502 0L7.043 2.445zM1 9.5h18a.5.5 0 1 1 0 1H1a.5.5 0 0 1 0-1zm9.25 3.64a.293.293 0 0 0-.5 0l-2.707 4.415a.292.292 0 0 0 .25.445h5.413a.294.294 0 0 0 .294-.298.292.292 0 0 0-.043-.147L10.25 13.14z" fill="#FF664D" mask="url(#29md42kggd)"/>
        </g>
    </g>
</svg>
