<?xml version="1.0" encoding="UTF-8"?>
<svg width="20px" height="60px" viewBox="0 0 20 60" version="1.1" xmlns="http://www.w3.org/2000/svg" xmlns:xlink="http://www.w3.org/1999/xlink">
    <title>54FFD57A-9B7F-E96A-C786-5556345DFC08</title>
    <defs>
        <rect id="path-1" x="0" y="0" width="20" height="20"></rect>
        <rect id="path-3" x="0" y="0" width="20" height="20"></rect>
    </defs>
    <g id="💎-Components" stroke="none" stroke-width="1" fill="none" fill-rule="evenodd">
        <g id="Icons/Grid" transform="translate(-1372.000000, -1115.000000)">
            <g id="20dp" transform="translate(62.000000, 941.000000)">
                <g id="Black" transform="translate(954.000000, 0.000000)">
                    <g id="Icon-/-20-/-Black" transform="translate(34.000000, 41.000000)">
                        <g id="icons-/-20-/-ic_text_strikethrough_off_on" transform="translate(322.000000, 133.000000)">
                            <g id="Property-1=20,-Property-2=ic_text_strikethrough_black">
                                <mask id="mask-2" fill="white">
                                    <use xlink:href="#path-1"></use>
                                </mask>
                                <g id="Property-1=20,-Property-2=ic_text_strikethrough_black-(Background/Mask)"></g>
                                <path d="M5.20418549,5.99998093 L5.20418549,6.00414562 C5.20239258,6.21940041 5.23686647,6.433887 5.30666447,6.63965988 C5.39536715,6.90116787 5.25528145,7.18507004 4.99377346,7.27377272 C4.73226547,7.36247587 4.4483633,7.2223897 4.35966039,6.96088171 C4.25429034,6.65023756 4.20169711,6.32510948 4.20418596,5.99792385 C4.20559716,3.38143444 6.89929914,1.5 10.2823105,1.5 C12.9095402,1.5 15.0710077,2.61045861 15.9508429,4.32357335 C16.0770006,4.56921315 15.9801416,4.87061429 15.7345018,4.99677205 C15.488862,5.12292957 15.1874609,5.02607036 15.0613031,4.78043056 C14.4071522,3.50674343 12.6708908,2.5 10.2823105,2.5 C7.14234447,2.5 5.20418549,4.19928408 5.20418549,5.99998093 Z M1,9.5 L11.3671427,9.5 C11.3744535,9.49983788 11.3817873,9.49983692 11.3891382,9.5 L19,9.5 C19.2761421,9.5 19.5,9.72385788 19.5,10 C19.5,10.2761421 19.2761421,10.5 19,10.5 L14.2331228,10.5 C14.5106831,10.6401958 14.7734575,10.7931633 15.0162525,10.9616728 C16.0055084,11.6482553 16.6875,12.6128883 16.6875,14.000062 C16.6875,15.3201466 15.8971949,16.4573917 14.7379732,17.2424679 C13.5759439,18.0294476 11.9987583,18.500042 10.28125,18.500042 C8.56373978,18.500042 6.9865551,18.0294476 5.82452583,17.2424679 C4.66530418,16.4573917 3.875,15.3201466 3.875,14.000062 C3.875,13.7239199 4.09885764,13.500062 4.375,13.500062 C4.6511426,13.500062 4.875,13.7239199 4.875,14.000062 C4.875,14.8891048 5.40685463,15.751852 6.38527489,16.4144831 C7.36088705,17.0752125 8.7368269,17.500042 10.28125,17.500042 C11.8256721,17.500042 13.2016125,17.0752125 14.1772242,16.4144831 C15.1556444,15.751852 15.687499,14.8891048 15.687499,14.000062 C15.687499,13.0106134 15.229228,12.3267326 14.4460821,11.7831993 C13.6497097,11.2304859 12.5457745,10.8461866 11.3099422,10.5 L1,10.5 C0.723857611,10.5 0.5,10.2761421 0.5,10 C0.5,9.72385788 0.723857611,9.5 1,9.5 Z" id="Union" fill="#000000" mask="url(#mask-2)"></path>
                            </g>
                            <g id="Property-1=20,-Property-2=ic_text_strikethrough_primary" transform="translate(0.000000, 40.000000)">
                                <mask id="mask-4" fill="white">
                                    <use xlink:href="#path-3"></use>
                                </mask>
                                <g id="Property-1=20,-Property-2=ic_text_strikethrough_primary-(Background/Mask)"></g>
                                <path d="M5.20418549,5.99998093 L5.20418549,6.00414562 C5.20239258,6.21940041 5.23686647,6.433887 5.30666447,6.63965988 C5.39536715,6.90116787 5.25528145,7.18507004 4.99377346,7.27377272 C4.73226547,7.36247587 4.4483633,7.2223897 4.35966039,6.96088171 C4.25429034,6.65023756 4.20169711,6.32510948 4.20418596,5.99792385 C4.20559716,3.38143444 6.89929914,1.5 10.2823105,1.5 C12.9095402,1.5 15.0710077,2.61045861 15.9508429,4.32357335 C16.0770006,4.56921315 15.9801416,4.87061429 15.7345018,4.99677205 C15.488862,5.12292957 15.1874609,5.02607036 15.0613031,4.78043056 C14.4071522,3.50674343 12.6708908,2.5 10.2823105,2.5 C7.14234447,2.5 5.20418549,4.19928408 5.20418549,5.99998093 Z M1,9.5 L11.3671427,9.5 C11.3744535,9.49983788 11.3817873,9.49983692 11.3891382,9.5 L19,9.5 C19.2761421,9.5 19.5,9.72385788 19.5,10 C19.5,10.2761421 19.2761421,10.5 19,10.5 L14.2331228,10.5 C14.5106831,10.6401958 14.7734575,10.7931633 15.0162525,10.9616728 C16.0055084,11.6482553 16.6875,12.6128883 16.6875,14.000062 C16.6875,15.3201466 15.8971949,16.4573917 14.7379732,17.2424679 C13.5759439,18.0294476 11.9987583,18.500042 10.28125,18.500042 C8.56373978,18.500042 6.9865551,18.0294476 5.82452583,17.2424679 C4.66530418,16.4573917 3.875,15.3201466 3.875,14.000062 C3.875,13.7239199 4.09885764,13.500062 4.375,13.500062 C4.65114212,13.500062 4.875,13.7239199 4.875,14.000062 C4.875,14.8891048 5.40685463,15.751852 6.38527489,16.4144831 C7.36088705,17.0752125 8.7368269,17.500042 10.28125,17.500042 C11.8256721,17.500042 13.2016125,17.0752125 14.1772242,16.4144831 C15.1556444,15.751852 15.687499,14.8891048 15.687499,14.000062 C15.687499,13.0106134 15.229228,12.3267326 14.4460821,11.7831993 C13.6497097,11.2304859 12.5457745,10.8461866 11.3099422,10.5 L1,10.5 C0.723857611,10.5 0.5,10.2761421 0.5,10 C0.5,9.72385788 0.723857611,9.5 1,9.5 Z" id="Union" fill="#FF664D" mask="url(#mask-4)"></path>
                            </g>
                        </g>
                    </g>
                </g>
            </g>
        </g>
    </g>
</svg>