<?xml version="1.0" encoding="UTF-8"?>
<svg width="20px" height="60px" viewBox="0 0 20 60" version="1.1" xmlns="http://www.w3.org/2000/svg" xmlns:xlink="http://www.w3.org/1999/xlink">
    <title>C8F4D631-F8FA-8452-7973-423005EE672D</title>
    <defs>
        <rect id="path-1" x="0" y="0" width="20" height="20"></rect>
        <rect id="path-3" x="0" y="0" width="20" height="20"></rect>
    </defs>
    <g id="💎-Components" stroke="none" stroke-width="1" fill="none" fill-rule="evenodd">
        <g id="Icons/Grid" transform="translate(-1052.000000, -1115.000000)">
            <g id="20dp" transform="translate(62.000000, 941.000000)">
                <g id="Black" transform="translate(954.000000, 0.000000)">
                    <g id="Icon-/-20-/-Black" transform="translate(34.000000, 41.000000)">
                        <g id="icons-/-20-/-ic_clip_off_on" transform="translate(2.000000, 133.000000)">
                            <g id="Property-1=20,-Property-2=ic_clip_black">
                                <mask id="mask-2" fill="white">
                                    <use xlink:href="#path-1"></use>
                                </mask>
                                <g id="Property-1=20,-Property-2=ic_clip_black-(Background/Mask)"></g>
                                <path d="M6.2125473,9.6500597 L1.76183915,14.049015 C1.67879492,14.1311913 1.61294353,14.2288957 1.5680263,14.3364611 C1.52311003,14.4440246 1.5,14.5593557 1.5,14.6758118 C1.5,14.7922683 1.52311003,14.9075999 1.5680263,15.0151634 C1.61294353,15.1227288 1.67879492,15.2204342 1.76183915,15.3026104 L1.76329613,15.3040524 L4.70429277,18.2382774 C4.78665495,18.3211327 4.88471079,18.3869572 4.99283171,18.4318981 C5.10095549,18.476841 5.21696806,18.5 5.334167,18.5 C5.45136642,18.5 5.567379,18.476841 5.67550278,18.4318981 C5.78360367,18.3869658 5.88164377,18.3211575 5.96399927,18.238327 L5.96399927,18.238327 L10.3731575,13.7978268 C10.5677271,13.6018739 10.8843079,13.6007528 11.0802603,13.7953224 C11.2762127,13.9898915 11.2773333,14.3064728 11.0827646,14.5024252 L6.67344189,18.9430904 C6.49800587,19.1195631 6.28913784,19.2597809 6.05932379,19.3553047 C5.82951212,19.4508276 5.5830574,19.5 5.334167,19.5 C5.08527613,19.5 4.83882213,19.4508276 4.6090107,19.3553047 C4.37958288,19.2599411 4.17123938,19.120245 3.99598694,18.944191 L3.99510241,18.9433022 L1.0584566,16.013422 L1.05766213,16.0126343 C0.881156385,15.8377662 0.740977466,15.6297436 0.645248681,15.4004965 C0.549375385,15.1709037 0.5,14.924602 0.5,14.6758118 C0.5,14.427022 0.549375385,14.1807208 0.645248681,13.951128 C0.741121054,13.7215371 0.881577,13.5132341 1.0584566,13.3382034 L5.50958729,8.93883038 C5.70598841,8.74471343 6.02256536,8.74656484 6.21668243,8.94296551 C6.41079903,9.13936619 6.40894794,9.45594276 6.2125473,9.6500597 Z M14.7074394,0.5 C14.9563293,0.5 15.2027841,0.549164951 15.4325962,0.644688129 C15.6624107,0.740212291 15.871068,0.880220577 16.0465031,1.05669296 L16.0475702,1.05776584 L18.9436874,3.98868799 C19.1195631,4.16328144 19.2592735,4.37083173 19.3547592,4.5994978 C19.4506321,4.82909012 19.5,5.07539082 19.5,5.32418203 C19.5,5.57297277 19.4506321,5.81927347 19.3547592,6.0488658 C19.2590351,6.27810097 19.118865,6.48611546 18.9423714,6.66097879 L18.9415512,6.66179085 L14.5336838,11.0595102 C14.3381968,11.2545471 14.021615,11.2541819 13.8265781,11.0586948 C13.6315413,10.8632078 13.6319056,10.5466251 13.8273926,10.3515882 L18.2367153,5.95242405 L18.2381706,5.95097923 C18.3212137,5.8688035 18.387064,5.77109957 18.431982,5.66353321 C18.4768982,5.55596876 18.5,5.44063759 18.5,5.32418203 C18.5,5.20772648 18.4768982,5.09239531 18.431982,4.98483086 C18.387064,4.8772645 18.3212137,4.7795608 18.2381706,4.69738483 L18.2341805,4.69343662 L15.3373165,1.76171291 L15.3373165,1.76171291 C15.255055,1.67909944 15.1566739,1.61294454 15.0487747,1.56809545 C14.9406519,1.52315342 14.8246393,1.5 14.7074394,1.5 C14.5902395,1.5 14.474226,1.52315342 14.3661032,1.56809545 C14.2579827,1.61303651 14.1599269,1.67886031 14.0775614,1.76171291 L9.66844845,6.20216703 C9.47387905,6.39811993 9.15729909,6.39924097 8.96134663,6.20467138 C8.76539415,6.01010227 8.76427293,5.6935215 8.95884228,5.49756908 L13.3681641,1.0569039 C13.5435991,0.880431518 13.7524676,0.740212291 13.9822826,0.644688129 C14.2120948,0.549164951 14.4585495,0.5 14.7074394,0.5 Z M13.1471958,7.58724785 L7.60087967,13.1207867 C7.40539248,13.3158236 7.08880994,13.3154593 6.89377308,13.1199722 C6.69873625,12.9244847 6.6991013,12.6079016 6.89458847,12.4128647 L12.4409046,6.87932587 C12.6363921,6.68428904 12.9529743,6.68465409 13.1480112,6.88014126 C13.3430481,7.07562844 13.3426828,7.39221099 13.1471958,7.58724785 Z" id="Vector" fill="#000000" mask="url(#mask-2)"></path>
                            </g>
                            <g id="Property-1=20,-Property-2=ic_clip_primary" transform="translate(0.000000, 40.000000)">
                                <mask id="mask-4" fill="white">
                                    <use xlink:href="#path-3"></use>
                                </mask>
                                <g id="Property-1=20,-Property-2=ic_clip_primary-(Background/Mask)"></g>
                                <path d="M6.2125473,9.6500597 L1.76183915,14.049015 C1.67879492,14.1311913 1.61294353,14.2288957 1.5680263,14.3364611 C1.52311003,14.4440246 1.5,14.5593557 1.5,14.6758118 C1.5,14.7922683 1.52311003,14.9075999 1.5680263,15.0151634 C1.61294353,15.1227288 1.67879492,15.2204342 1.76183915,15.3026104 L1.76329613,15.3040524 L4.70429277,18.2382774 C4.78665495,18.3211327 4.88471079,18.3869572 4.99283171,18.4318981 C5.10095549,18.476841 5.21696806,18.5 5.334167,18.5 C5.45136642,18.5 5.567379,18.476841 5.67550278,18.4318981 C5.78360367,18.3869658 5.88164377,18.3211575 5.96399927,18.238327 L5.96399927,18.238327 L10.3731575,13.7978268 C10.5677271,13.6018739 10.8843079,13.6007528 11.0802603,13.7953224 C11.2762127,13.9898915 11.2773333,14.3064728 11.0827646,14.5024252 L6.67344189,18.9430904 C6.49800587,19.1195631 6.28913784,19.2597809 6.05932379,19.3553047 C5.82951212,19.4508276 5.5830574,19.5 5.334167,19.5 C5.08527613,19.5 4.83882213,19.4508276 4.6090107,19.3553047 C4.37958288,19.2599411 4.17123938,19.120245 3.99598694,18.944191 L3.99510241,18.9433022 L1.0584566,16.013422 L1.05766213,16.0126343 C0.881156385,15.8377662 0.740977466,15.6297436 0.645248681,15.4004965 C0.549375385,15.1709037 0.5,14.924602 0.5,14.6758118 C0.5,14.427022 0.549375385,14.1807208 0.645248681,13.951128 C0.741121054,13.7215371 0.881577,13.5132341 1.0584566,13.3382034 L5.50958729,8.93883038 C5.70598841,8.74471343 6.02256536,8.74656484 6.21668243,8.94296551 C6.41079903,9.13936619 6.40894794,9.45594276 6.2125473,9.6500597 Z M14.7074394,0.5 C14.9563293,0.5 15.2027841,0.549164951 15.4325962,0.644688129 C15.6624107,0.740212291 15.871068,0.880220577 16.0465031,1.05669296 L16.0475702,1.05776584 L18.9436874,3.98868799 C19.1195631,4.16328144 19.2592735,4.37083173 19.3547592,4.5994978 C19.4506321,4.82909012 19.5,5.07539082 19.5,5.32418203 C19.5,5.57297277 19.4506321,5.81927347 19.3547592,6.0488658 C19.2590351,6.27810097 19.118865,6.48611546 18.9423714,6.66097879 L18.9415512,6.66179085 L14.5336838,11.0595102 C14.3381968,11.2545471 14.021615,11.2541819 13.8265781,11.0586948 C13.6315413,10.8632078 13.6319056,10.5466251 13.8273926,10.3515882 L18.2367153,5.95242405 L18.2381706,5.95097923 C18.3212137,5.8688035 18.387064,5.77109957 18.431982,5.66353321 C18.4768982,5.55596876 18.5,5.44063759 18.5,5.32418203 C18.5,5.20772648 18.4768982,5.09239531 18.431982,4.98483086 C18.387064,4.8772645 18.3212137,4.7795608 18.2381706,4.69738483 L18.2341805,4.69343662 L15.3373165,1.76171291 L15.3373165,1.76171291 C15.255055,1.67909944 15.1566739,1.61294454 15.0487747,1.56809545 C14.9406519,1.52315342 14.8246393,1.5 14.7074394,1.5 C14.5902395,1.5 14.474226,1.52315342 14.3661032,1.56809545 C14.2579827,1.61303651 14.1599269,1.67886031 14.0775614,1.76171291 L9.66844845,6.20216703 C9.47387905,6.39811993 9.15729909,6.39924097 8.96134663,6.20467138 C8.76539415,6.01010227 8.76427293,5.6935215 8.95884228,5.49756908 L13.3681641,1.0569039 C13.5435991,0.880431518 13.7524676,0.740212291 13.9822826,0.644688129 C14.2120948,0.549164951 14.4585495,0.5 14.7074394,0.5 Z M13.1471958,7.58724785 L7.60087967,13.1207867 C7.40539248,13.3158236 7.08880994,13.3154593 6.89377308,13.1199722 C6.69873625,12.9244847 6.6991013,12.6079016 6.89458847,12.4128647 L12.4409046,6.87932587 C12.6363921,6.68428904 12.9529743,6.68465409 13.1480112,6.88014126 C13.3430481,7.07562844 13.3426828,7.39221099 13.1471958,7.58724785 Z" id="Vector" fill="#FF664D" mask="url(#mask-4)"></path>
                            </g>
                        </g>
                    </g>
                </g>
            </g>
        </g>
    </g>
</svg>