<?xml version="1.0" encoding="UTF-8"?>
<svg width="20px" height="20px" viewBox="0 0 20 20" version="1.1" xmlns="http://www.w3.org/2000/svg" xmlns:xlink="http://www.w3.org/1999/xlink">
    <title>FB006049-195D-DA06-CD2D-B8AAED5E5016</title>
    <defs>
        <path d="M12.903806,2.91751431 L12.903806,16.0508484 L12.903806,16.0508484 L11.5781211,18.4076209 C11.5239683,18.5038925 11.4020253,18.5380365 11.3057537,18.4838837 C11.2738288,18.465926 11.2474487,18.4395458 11.2294909,18.4076209 L9.903806,16.0508484 L9.903806,16.0508484 L9.903806,2.91751431 C9.903806,2.80705736 9.99334905,2.71751431 10.103806,2.71751431 L12.703806,2.71751431 C12.8142629,2.71751431 12.903806,2.80705736 12.903806,2.91751431 Z" id="path-1"></path>
        <mask id="mask-2" maskContentUnits="userSpaceOnUse" maskUnits="objectBoundingBox" x="0" y="0" width="3" height="16" fill="white">
            <use xlink:href="#path-1"></use>
        </mask>
    </defs>
    <g id="💎-Components" stroke="none" stroke-width="1" fill="none" fill-rule="evenodd">
        <g id="Icons/Grid" transform="translate(-1570.000000, -1022.000000)">
            <g id="20dp" transform="translate(62.000000, 941.000000)">
                <g id="Black" transform="translate(954.000000, 0.000000)">
                    <g id="Icon-/-20-/-Black" transform="translate(34.000000, 41.000000)">
                        <g id="Icons-/-20-/-ic_Report_black" transform="translate(520.000000, 40.000000)">
                            <path d="M0,0 L20,0 L20,20 L0,20 L0,0 Z" id="area"></path>
                            <g id="Group-5832" transform="translate(1.000000, 1.000000)">
                                <path d="M3,4 L13,4 L13,5 L3,5 L3,4 Z M3,7 L9,7 L9,8 L3,8 L3,7 Z" id="Union" fill="#000000"></path>
                                <use id="Rectangle-4559" stroke="#000000" mask="url(#mask-2)" stroke-width="2" stroke-dasharray="0,0" fill-rule="nonzero" transform="translate(11.403806, 10.717514) rotate(45.000000) translate(-11.403806, -10.717514) " xlink:href="#path-1"></use>
                                <path d="M1,17 L15,17 L15,9.2426405 L16,8.2426405 L16,17 C16,17.5522842 15.5522842,18 15,18 L1,18 C0.447714806,18 0,17.5522842 0,17 L0,1 C0,0.447716475 0.447715938,0 1,0 L15,0 C15.5522842,0 16,0.447715759 16,1 L16,5 L15,6 L15,1 L1,1 L1,17 Z" id="Subtract" fill="#000000" fill-rule="nonzero"></path>
                            </g>
                        </g>
                    </g>
                </g>
            </g>
        </g>
    </g>
</svg>