<svg width="122" height="35" viewBox="0 0 122 35" xmlns="http://www.w3.org/2000/svg" xmlns:xlink="http://www.w3.org/1999/xlink">
    <defs>
        <path id="uyub5zrj5a" d="M0 0h122v35H0z"/>
    </defs>
    <g fill="none" fill-rule="evenodd">
        <mask id="a8m47noufb" fill="#fff">
            <use xlink:href="#uyub5zrj5a"/>
        </mask>
        <g mask="url(#a8m47noufb)">
            <path d="M47.06 18.383c-1.57 0-2.579-1.06-2.579-2.369 0-1.308 1.008-2.368 2.58-2.368h11.928a2.294 2.294 0 0 0 1.626-.65 2.253 2.253 0 0 0 .676-1.603 2.236 2.236 0 0 0-.676-1.604 2.277 2.277 0 0 0-1.626-.65h-12.73c-4.084 0-7.082 3.078-7.082 6.875 0 3.798 2.998 6.878 7.082 6.878h8.457c1.57-.003 2.58 1.055 2.584 2.364.003 1.309-1.013 2.37-2.584 2.373H42.133c-.603 0-1.182.238-1.608.66a2.243 2.243 0 0 0-.667 1.594c0 .598.24 1.17.667 1.593.426.423 1.005.66 1.608.66h13.663c4.069-.027 7.043-3.1 7.035-6.889-.008-3.8-3.012-6.872-7.097-6.864h-8.673zm35.923-6.17a2.796 2.796 0 0 0-1.512 1.499c-.14.336-.213.695-.213 1.059v13.16c0 .716-.287 1.403-.798 1.909a2.738 2.738 0 0 1-1.927.79h-5.131a2.738 2.738 0 0 1-1.927-.79 2.687 2.687 0 0 1-.798-1.909v-13.16c0-.734-.295-1.438-.818-1.957a2.807 2.807 0 0 0-1.976-.81c-.741 0-1.452.29-1.976.81a2.755 2.755 0 0 0-.818 1.957v13.48c0 1.79.718 3.506 1.995 4.772A6.846 6.846 0 0 0 71.902 35h8.131c1.807 0 3.54-.711 4.818-1.977a6.717 6.717 0 0 0 1.995-4.772v-13.48a2.745 2.745 0 0 0-.818-1.957 2.796 2.796 0 0 0-1.976-.81c-.367 0-.73.07-1.069.21zM96.46 4.77c-1.807 0-3.54.71-4.818 1.977a6.717 6.717 0 0 0-1.995 4.772v13.48a2.745 2.745 0 0 0 .818 1.957 2.796 2.796 0 0 0 1.976.81 2.817 2.817 0 0 0 1.975-.81 2.766 2.766 0 0 0 .819-1.957v-13.16c0-.716.287-1.403.798-1.909a2.738 2.738 0 0 1 1.927-.79h5.131c.723 0 1.416.284 1.927.79.511.506.798 1.193.798 1.909v13.16a2.745 2.745 0 0 0 .808 1.976 2.796 2.796 0 0 0 1.986.821 2.817 2.817 0 0 0 1.986-.82 2.766 2.766 0 0 0 .808-1.977v-13.48c0-1.79-.718-3.506-1.995-4.772a6.845 6.845 0 0 0-4.816-1.977h.001-8.134zm19.474 7.445a2.796 2.796 0 0 0-1.513 1.498c-.14.336-.212.695-.212 1.059v17.461c0 .734.294 1.438.818 1.957.524.52 1.235.81 1.976.81.74 0 1.451-.29 1.975-.81.524-.519.819-1.223.819-1.957V14.771a2.746 2.746 0 0 0-.819-1.958 2.796 2.796 0 0 0-1.976-.81c-.366 0-.73.072-1.068.21z" fill="#F20017"/>
            <g fill="#66C2A4">
                <path d="M18.714 12.664a1.748 1.748 0 0 0-2.37.63l-4.626 7.937-4.627-7.939a1.749 1.749 0 0 0-3.006 0l-3.85 6.606a1.706 1.706 0 0 0 .635 2.349c.264.15.563.23.868.23h19.958c.305 0 .604-.08.868-.23.264-.151.483-.368.635-.63a1.706 1.706 0 0 0 0-1.719l-3.85-6.604a1.727 1.727 0 0 0-.635-.63zm6.86-.231a1.748 1.748 0 0 0-1.502.86 1.707 1.707 0 0 0 0 1.718l4.35 7.466a1.151 1.151 0 0 0 1.002.573 1.165 1.165 0 0 0 1.002-.573l4.351-7.466a1.708 1.708 0 0 0-.636-2.348 1.75 1.75 0 0 0-.868-.23h.001-7.7zM28.2 24.519a2.19 2.19 0 0 0-.812.98 2.166 2.166 0 0 0 .477 2.382 2.225 2.225 0 0 0 2.404.474c.403-.166.747-.446.99-.805a2.17 2.17 0 0 0-.275-2.758 2.22 2.22 0 0 0-2.784-.273zm.567 2.793a1.176 1.176 0 0 1-.504-1.205 1.17 1.17 0 0 1 .324-.601 1.189 1.189 0 0 1 1.292-.255c.216.09.401.24.531.433a1.166 1.166 0 0 1-.147 1.482 1.193 1.193 0 0 1-1.496.147zM114.218 9.077a4.967 4.967 0 0 1-1.842-2.225 4.913 4.913 0 0 1-.285-2.863 4.942 4.942 0 0 1 1.37-2.538 5.018 5.018 0 0 1 2.562-1.356 5.047 5.047 0 0 1 2.89.282 4.993 4.993 0 0 1 2.245 1.826c.55.815.844 1.773.844 2.753a4.939 4.939 0 0 1-1.468 3.504 5.037 5.037 0 0 1-6.316.617zm1.068-6.658a3.058 3.058 0 0 0-1.135 1.37 3.025 3.025 0 0 0 .667 3.325 3.108 3.108 0 0 0 3.357.661 3.075 3.075 0 0 0 1.383-1.123 3.031 3.031 0 0 0-.384-3.853 3.099 3.099 0 0 0-3.888-.38z"/>
            </g>
        </g>
    </g>
</svg>
