<?xml version="1.0" encoding="UTF-8"?>
<svg width="60px" height="60px" viewBox="0 0 60 60" version="1.1" xmlns="http://www.w3.org/2000/svg" xmlns:xlink="http://www.w3.org/1999/xlink">
    <title>E7B8092D-6CA2-47E4-9DC5-608C9FD40198</title>
    <g id="학습현황" stroke="none" stroke-width="1" fill="none" fill-rule="evenodd">
        <g id="학습현황&gt;MyStamp" transform="translate(-40.000000, -148.000000)">
            <g id="LIST" transform="translate(0.000000, 144.000000)">
                <g id="Thumb" transform="translate(20.000000, 0.000000)">
                    <g id="stamp_completed" transform="translate(20.000000, 4.000000)">
                        <g id="img" transform="translate(3.500000, 3.500000)">
                            <path d="M52.0860917,19.6442736 C50.2548469,12.8100602 45.8717156,7.09805628 39.7441188,3.56020653 C33.6166778,0.0225125681 26.4783442,-0.917257985 19.6442054,0.913985895 C12.8099107,2.74515188 7.09782608,7.1282031 3.56020828,13.255719 C0.0225125792,19.3836244 -0.917258436,26.5219545 0.913986344,33.3558563 C2.74507533,40.1899917 7.1281287,45.9021515 13.2556476,49.4398455 C19.382777,52.9774615 26.5210327,53.9172321 33.355639,52.0860661 C40.1900115,50.2547443 45.9020962,45.8716931 49.4396361,39.7444109 C52.9774097,33.616895 53.9172586,26.4785649 52.0860917,19.6442736 L52.0860917,19.6442736 Z" id="dim" fill="#FFFFFF" opacity="0.900000036"></path>
                            <path d="M47.4883492,22.2485847 C47.3049755,22.4254149 47.0993227,22.5453011 46.8771553,22.6048157 L46.3107532,22.7565625 L45.5126022,19.7779479 L46.0790043,19.6261232 C46.3310848,19.558585 46.5814515,19.5560143 46.8243399,19.6187228 C47.3482872,19.7498264 47.6841089,20.1164179 47.8509681,20.7393743 C48.0189958,21.366615 47.9009012,21.8599478 47.4883492,22.2485847 L47.4883492,22.2485847 Z M47.1424007,18.4109806 C46.6824083,18.2864983 46.2150156,18.2861089 45.7532316,18.40989 L43.9552496,18.8916159 L45.4051798,24.3027748 L47.2030839,23.8210489 C47.6588697,23.6989037 48.0595811,23.474789 48.394468,23.1544693 C49.1359087,22.4370218 49.3623605,21.5147785 49.0672798,20.4134459 C48.7804565,19.3433507 48.1324943,18.6694486 47.1424007,18.4109806 L47.1424007,18.4109806 Z M43.0893266,19.1236762 L39.0586874,20.2036645 L40.5086176,25.6148235 L44.6231538,24.5123225 L44.2972253,23.2960892 L41.4142689,24.0685333 L41.12098,22.9738221 L42.6463941,22.5650094 L42.3163369,21.3335081 L40.7909228,21.7422428 L40.6161179,21.0899187 L43.4152552,20.3399095 L43.0893266,19.1236762 Z M38.4521674,20.3661613 L34.3148068,21.4748164 L34.6366067,22.6757815 L36.1085822,22.2813801 L37.2366346,26.4914961 L38.4300441,26.1717217 L37.3019138,21.9616057 L38.7739673,21.5672043 L38.4521674,20.3661613 Z M35.1656953,27.0464468 L34.8397667,25.8302136 L31.9568104,26.6027355 L31.6635214,25.5079464 L33.1889356,25.0992117 L32.8588784,23.8677103 L31.3334643,24.276445 L31.1586594,23.624043 L33.9577966,22.8740338 L33.6318681,21.6578006 L29.6012288,22.7377889 L31.051159,28.1488699 L35.1656953,27.0464468 Z M25.9134222,23.7259346 L24.6818423,24.0559137 L26.1317725,29.4670726 L30.2463087,28.3645716 L29.9204581,27.1482605 L27.0374238,27.9207824 L25.9134222,23.7259346 Z M22.680856,26.9382454 L21.3822053,27.2862192 L21.1215559,26.3134974 L22.4202067,25.9655237 C22.6075533,25.915279 22.761715,25.9222899 22.8911828,25.9867122 C23.0140292,26.0480964 23.0938754,26.153026 23.1352397,26.3074213 C23.1737217,26.4509887 23.1556492,26.5750035 23.0800873,26.6866325 C22.9994621,26.8055059 22.8689037,26.8878449 22.680856,26.9382454 L22.680856,26.9382454 Z M23.8817438,27.7353055 L23.886963,27.7311768 L23.8917927,27.7266587 C24.3837236,27.2662771 24.5384306,26.6791542 24.3514735,25.9815708 C24.1774476,25.332051 23.754613,24.9117094 23.0933301,24.7316854 C22.7807223,24.6495022 22.4393698,24.6568246 22.07901,24.7533412 L19.5794715,25.4231147 L21.0293238,30.8342736 L22.2456355,30.5083453 L21.7081338,28.5024524 L23.0220527,28.1504279 C23.3561607,28.0608443 23.6453989,27.9211719 23.8817438,27.7353055 L23.8817438,27.7353055 Z M18.270616,28.7753317 L18.9701471,31.3860305 L20.1634787,31.0662561 L18.7135485,25.6550972 L17.5773167,25.9596034 L16.9311463,29.1832096 L14.76704,26.7126506 L13.6304187,27.0171569 L15.0803489,32.4283158 L16.2737584,32.1084635 L15.5750841,29.5008807 L17.6705616,31.9453436 L18.270616,28.7753317 Z M12.4377103,31.4031682 C12.3497626,31.7817562 12.1219865,32.0154524 11.741373,32.1174219 C11.403526,32.2080181 11.1118729,32.146556 10.8497434,31.929608 C10.5756176,31.7029226 10.3673162,31.329476 10.2306818,30.8197066 C10.0955274,30.3153122 10.0901523,29.8917766 10.2147904,29.5609406 C10.3338977,29.2443601 10.5561429,29.0464194 10.8942237,28.9558231 C11.2260725,28.8668627 11.5105589,28.9283249 11.7641974,29.1435591 C12.0310786,29.3702445 12.2350176,29.7412762 12.3703278,30.2463718 C12.4909931,30.6968602 12.5137395,31.0857308 12.4377103,31.4031682 L12.4377103,31.4031682 Z M12.4247012,28.082656 C11.8694386,27.6791405 11.2456251,27.5662652 10.5703984,27.7471461 C9.85520958,27.938777 9.35089281,28.3481349 9.07139195,28.9638467 C8.79695451,29.5688084 8.77265008,30.3041726 8.99925767,31.1496857 C9.19899017,31.8952547 9.55358546,32.4834681 10.0527609,32.8975779 C10.639183,33.3879506 11.3170583,33.5347118 12.0673016,33.333733 C12.7535899,33.1497362 13.2390552,32.7335231 13.5099872,32.0963892 C13.7751546,31.4728097 13.7970442,30.7363549 13.5748769,29.9072785 C13.3565265,29.0925354 12.9695254,28.4786933 12.4247012,28.082656 L12.4247012,28.082656 Z M8.81977885,32.7679544 L7.53756475,32.5055135 L7.50071862,32.6493146 C7.39485417,33.0631128 7.12290949,33.3256316 6.6710186,33.4515159 C6.33667699,33.5411774 6.04354384,33.4817407 5.77463721,33.2700118 C5.49575954,33.050649 5.28465381,32.678994 5.14708455,32.1656412 C5.03163854,31.7348611 5.03350811,31.3336825 5.15261536,30.973245 C5.26549071,30.6315032 5.48197145,30.4168142 5.81436559,30.316948 C6.26617858,30.2118626 6.64873954,30.3072886 6.98386014,30.6086789 L7.08684235,30.7013784 L8.04071304,29.8617856 L7.91545179,29.744548 C7.20711808,29.0810064 6.39136194,28.8669406 5.49077402,29.108271 C4.77542942,29.2999798 4.27134634,29.710662 3.99270236,30.3290223 C3.71904391,30.936321 3.69450579,31.670361 3.9196333,32.5107327 C4.14335863,33.3456515 4.53331997,33.9710227 5.07868941,34.3695527 C5.63457518,34.7757947 6.27685072,34.8852425 6.98767718,34.6947021 C7.88312379,34.454774 8.48247709,33.8618087 8.76922254,32.9320871 L8.81977885,32.7679544 Z M12.3236665,18.3355746 C10.800823,20.9736158 10.0567338,23.9143716 10.1268427,26.8835605 L10.5142334,26.7797215 C10.4637549,23.9135926 11.1907065,21.077377 12.6610461,18.5303214 C14.797031,14.8307539 18.2456884,12.1845332 22.3715978,11.079072 C26.4975073,9.97353294 30.80718,10.5410254 34.5068273,12.6767755 C37.0536504,14.1471923 39.101298,16.2399423 40.4907008,18.7475811 L40.8780915,18.6438199 C39.4541016,16.037094 37.3393052,13.8623945 34.7015743,12.3394739 C30.911876,10.1516095 26.4971957,9.5704069 22.2707968,10.7028211 L22.2705631,10.702899 C18.0443979,11.8353131 14.5115319,14.5461897 12.3236665,18.3355746 L12.3236665,18.3355746 Z M40.6972884,34.7169812 C42.2203656,32.0791736 42.9646106,29.1384178 42.8944238,26.1690731 L42.507111,26.2729122 C42.5575895,29.1392747 41.83056,31.9753346 40.3599867,34.5222343 C38.2247029,38.2214903 34.7762792,40.8677888 30.6499803,41.9735616 C26.5235255,43.0791007 22.2137749,42.5116083 18.514595,40.3756245 C15.9677719,38.9052076 13.9202022,36.8125355 12.5307994,34.3049747 L12.1434087,34.4088916 C13.5673207,37.0153839 15.6820392,39.1900055 18.3197701,40.713004 C22.1090789,42.9009462 26.5238371,43.4823046 30.7507813,42.3498905 C34.9775697,41.2170868 38.5100462,38.5062881 40.6972884,34.7169812 L40.6972884,34.7169812 Z M47.9216223,38.867972 C44.6184799,44.5895575 39.2845939,48.6825917 32.902268,50.3929367 C26.5202538,52.1029701 19.8541426,51.2253628 14.132009,47.9218325 C8.41010911,44.6179906 4.31722873,39.2839514 2.60727237,32.9021739 C0.897082306,26.520007 1.77469009,19.8540549 5.07822202,14.1321579 C8.38183185,8.41026077 13.7159516,4.3173045 20.0979658,2.60734898 C26.4799022,0.897159764 33.1457796,1.77468921 38.8677574,5.07829742 C44.5897352,8.38174983 48.6826935,13.7158669 50.3928057,20.0980338 C52.1028399,26.4798113 51.2252321,33.1458412 47.9216223,38.867972 L47.9216223,38.867972 Z M50.7690568,19.997155 C49.0320696,13.5144986 44.8746111,8.0964067 39.0625044,4.74099582 C33.2503977,1.38535125 26.4795127,0.49395582 19.9971648,2.23109801 C19.9967753,2.23117591 19.9972427,2.23102011 19.9968532,2.23117591 C13.5148169,3.9680065 8.09625488,8.12577453 4.74084235,13.937411 C1.38527403,19.749359 0.493956063,26.5203186 2.2310212,33.0029749 C3.96785265,39.4852417 8.12523323,44.9033337 13.937262,48.2591341 C19.7495245,51.6147786 26.5205653,52.5061741 33.0031469,50.7691877 C39.4858843,49.0318897 44.9038232,44.8744332 48.259002,39.0627189 C51.6146482,33.2505372 52.5060441,26.4795776 50.7690568,19.997155 L50.7690568,19.997155 Z M48.7650325,39.3549171 C45.3314875,45.3018637 39.7873527,49.5560704 33.1540369,51.3335641 C26.5204095,53.1108242 19.5920132,52.1987077 13.6452195,48.7650865 C7.69788046,45.3313873 3.44374958,39.7873331 1.66648867,33.1542543 C-0.110850151,26.5214092 0.801266793,19.5929383 4.2349676,13.6452128 C7.66843472,7.69795458 13.2124917,3.44390369 19.8458074,1.66648785 C26.4789674,-0.110850097 33.4072859,0.8012664 39.3546249,4.23488762 C45.3019639,7.66866465 49.5561727,13.2127189 51.3335115,19.8459535 C53.1109282,26.479266 52.1986554,33.4076589 48.7650325,39.3549171 L48.7650325,39.3549171 Z M39.7441188,3.56020653 C33.6166778,0.0225125681 26.4783442,-0.917257985 19.6442054,0.913985895 C12.8099107,2.74515188 7.09782608,7.1282031 3.56020828,13.255719 C0.0225125792,19.3836244 -0.917258436,26.5219545 0.913986344,33.3558563 C2.74507533,40.1899917 7.1281287,45.9021515 13.2556476,49.4398455 C19.382777,52.9774615 26.5210327,53.9172321 33.355639,52.0860661 C40.1900115,50.2547443 45.9020962,45.8716931 49.4396361,39.7444109 C52.9774097,33.616895 53.9172586,26.4785649 52.0860917,19.6442736 C50.2548469,12.8100602 45.8717156,7.09805628 39.7441188,3.56020653 Z M8.98835184,38.5413425 L8.77366277,38.2087928 C8.68992157,38.0790913 8.64372758,37.9401979 8.63484712,37.7919565 C8.61381445,37.4747528 8.76018628,37.2148826 9.07388471,37.0123458 C9.3899201,36.8082511 9.693258,36.7863615 9.98358679,36.9462877 C10.1166379,37.0176429 10.2203212,37.1109656 10.2949483,37.2264895 L10.5096373,37.5591172 L8.98835184,38.5413425 Z M10.7194967,36.9524417 C10.5900289,36.7520082 10.4225465,36.5961328 10.2170495,36.4848155 C9.75799189,36.239746 9.28569152,36.2740993 8.79975886,36.5877976 C8.32800378,36.8923817 8.10677122,37.3026745 8.13567167,37.8185979 C8.14704489,38.058604 8.21808859,38.280148 8.34911436,38.4828406 L8.8424474,39.2471052 L11.2128297,37.7166285 L10.7194967,36.9524417 Z M11.4628069,38.044738 L11.0786101,38.3730033 L12.1127944,39.5831605 L11.5269176,40.0838157 L10.9796786,39.4435659 L10.5890941,39.7773621 L11.1363331,40.4176119 L10.736167,40.7596653 L9.73212949,39.5847184 L9.34785476,39.9129838 L10.6857665,41.478515 L12.8307097,39.6454795 L11.4628069,38.044738 Z M14.0215485,40.7524207 L13.6562811,40.4217405 L12.0964357,42.1453283 L11.4938107,41.5999592 L11.160248,41.9682645 L12.7308435,43.3898388 L13.0643282,43.0212998 L12.4616252,42.4759306 L14.0215485,40.7524207 Z M14.5849126,41.9103078 L15.8933786,42.8168935 L15.4544968,43.4503661 L14.7621323,42.9707435 L14.4696224,43.3931106 L15.1619089,43.8726553 L14.8621544,44.305305 L13.591703,43.4252049 L13.3039449,43.8406389 L14.9966856,45.0134046 L16.603504,42.6940472 L14.8726707,41.4948738 L14.5849126,41.9103078 Z M16.9672913,42.9115405 L16.7382689,43.362029 L18.1571174,44.0836051 L17.1071196,46.1481558 L17.5650866,46.381073 L18.8441848,43.8661118 L16.9672913,42.9115405 Z M20.0774005,46.7789799 L19.3214707,46.5166948 C19.2047004,46.4762653 19.1224393,46.4135568 19.0746873,46.3284914 C19.0269353,46.2435817 19.021015,46.1494021 19.0569264,46.0458747 C19.0909681,45.9477223 19.1528198,45.880963 19.2424034,45.8451296 C19.3322207,45.809452 19.4352808,45.811711 19.5519732,45.8522963 L20.307981,46.1145814 L20.0774005,46.7789799 Z M20.8366801,44.5908818 L20.4735938,45.6371399 L19.7097182,45.3721284 C19.5453518,45.3149507 19.3884636,45.2918927 19.2390538,45.302409 C18.9153843,45.3535106 18.6953202,45.5460763 18.5794847,45.8802619 C18.4717507,46.1906885 18.5269809,46.4727599 18.7448638,46.7267098 C18.8490924,46.8461286 18.988687,46.9361795 19.1637256,46.9968627 L20.3891515,47.422112 L21.3141996,44.7564166 L20.8366801,44.5908818 Z M23.5293297,46.9701434 L23.0337376,45.1256567 L21.9023355,46.6667278 L22.2182151,44.9735205 L21.7338404,44.88308 L21.2163588,47.6568209 L21.7008113,47.7471835 L22.8236445,46.2516832 L23.3277276,48.0508328 L23.8120244,48.1410395 L24.329584,45.3673766 L23.8452093,45.277014 L23.5293297,46.9701434 Z M26.5123081,46.8785345 C26.5019475,47.175874 26.4336303,47.4067659 26.306889,47.5708207 C26.1805371,47.7350312 26.0106399,47.8133974 25.7974309,47.805997 C25.5869483,47.7985966 25.4264768,47.7087794 25.3158605,47.5363894 C25.2053222,47.3639995 25.1551553,47.1290568 25.1655159,46.8316394 C25.1745521,46.5677963 25.2270559,46.3548211 25.3225598,46.1923243 C25.4421345,45.9859706 25.622626,45.8868054 25.8638785,45.8952185 C26.0770875,45.902541 26.2410645,45.993293 26.3558094,46.1672409 C26.4705543,46.3411889 26.5226686,46.5782348 26.5123081,46.8785345 L26.5123081,46.8785345 Z M25.8814058,45.390123 C25.5279011,45.3778929 25.2405324,45.5033878 25.0192998,45.7668414 C24.7979894,46.0301391 24.6796611,46.3821636 24.6643151,46.8226811 C24.6493585,47.2547854 24.7444729,47.6071215 24.9499699,47.8796892 C25.155389,48.1523349 25.4320855,48.2946559 25.7799815,48.3068081 C26.1502345,48.3196614 26.4467952,48.2000868 26.6688846,47.9479285 C26.8912078,47.6958482 27.0100814,47.3453038 27.0256611,46.8963733 C27.0394492,46.5007255 26.955708,46.1649819 26.7742038,45.8889866 C26.566214,45.5699133 26.2686407,45.4035995 25.8814058,45.390123 L25.8814058,45.390123 Z M29.3892662,45.6092522 C29.1476242,45.3665976 28.8438189,45.264706 28.4782399,45.3034996 C28.0147421,45.3524979 27.6749475,45.5974116 27.4591679,46.0381627 L27.9531241,46.2230165 C28.0549378,45.9862821 28.2454783,45.851751 28.5244338,45.8195009 C28.73367,45.7972998 28.9094097,45.8626568 29.0511855,46.01565 C29.1931171,46.1684873 29.2798963,46.3957959 29.3118348,46.697342 C29.3387878,46.9512919 29.3019417,47.1761856 29.2012185,47.3717894 C29.1004954,47.5673152 28.9444641,47.6791778 28.7327352,47.7072214 C28.4582978,47.7278646 28.2365978,47.6341524 28.0677911,47.4262406 L27.6353749,47.7006779 C27.9359864,48.0865883 28.3194821,48.2550054 28.7856285,48.2056176 C29.1541677,48.1665903 29.4307084,48.0059631 29.6154843,47.7238917 C29.8001824,47.4417424 29.8688891,47.0788122 29.821994,46.6348672 C29.7750989,46.1937265 29.6309083,45.851751 29.3892662,45.6092522 L29.3892662,45.6092522 Z M35.085849,45.9638473 C34.944229,46.0250757 34.7994152,46.0476664 34.6519528,46.0318529 C34.3356058,46.0000702 34.1034674,45.8127237 33.9556934,45.4699692 C33.8065172,45.1244882 33.8349502,44.8216958 34.0408367,44.5616698 C34.1331468,44.4424068 34.2424388,44.3555497 34.3687127,44.3010984 L34.7321885,44.1443661 L35.4494027,45.807115 L35.085849,45.9638473 Z M34.1685908,43.8370556 C33.9493836,43.9315467 33.7680352,44.0709855 33.624234,44.255294 C33.3067185,44.6673784 33.262472,45.1389774 33.4914945,45.6700911 C33.7139734,46.1856251 34.0819673,46.4717472 34.595554,46.5285354 C34.834158,46.5569684 35.064349,46.5234719 35.2858931,46.4278902 L36.1212798,46.0676863 L35.0038216,43.4768517 L34.1685908,43.8370556 Z M35.3643372,43.2852208 L35.6257655,43.7177926 L36.9882933,42.8946364 L37.3867456,43.5542831 L36.6657923,43.9897371 L36.9314272,44.4295535 L37.6523805,43.9940994 L37.9246368,44.4447437 L36.6016816,45.2437512 L36.8629541,45.6764009 L38.6257259,44.6116029 L37.1668373,42.1965078 L35.3643372,43.2852208 Z M39.9011628,43.02426 L38.4592562,41.2008839 L38.0726445,41.5065586 L39.514629,43.3299347 L38.8770274,43.8340954 L39.1852729,44.2239008 L40.8467762,42.9099046 L40.5386086,42.5201771 L39.9011628,43.02426 Z M39.3346828,40.4830469 L39.6959774,40.8363956 L40.8090732,39.6983727 L41.3600513,40.2371984 L40.7711365,40.8392779 L41.1383514,41.1985469 L41.7273441,40.5963895 L42.1036732,40.9644611 L41.0229833,42.0693771 L41.3842779,42.4227258 L42.8241591,40.9505173 L40.8069699,38.9776535 L39.3346828,40.4830469 Z M41.0817969,38.6567885 L41.4872601,38.9585683 L42.4376253,37.6814961 L44.2958231,39.0642769 L44.6025106,38.6521146 L42.3389276,36.9676319 L41.0817969,38.6567885 Z M44.8020873,35.9001853 L45.4184226,36.2388112 L45.0332909,36.9400558 C44.9738542,37.0484129 44.8982923,37.1189113 44.8064497,37.1517846 C44.7147628,37.1846579 44.6208168,37.1748426 44.5249234,37.1221831 C44.4338597,37.0720942 44.3781621,36.999882 44.3579863,36.9054687 C44.3378105,36.8111333 44.357441,36.7097871 44.4167999,36.6015078 L44.8020873,35.9001853 Z M43.3883022,35.1237685 L44.358999,35.6569854 L43.9698166,36.3656304 C43.8860754,36.518234 43.8369213,36.6689681 43.8223542,36.8179884 C43.8183814,37.1456306 43.9716083,37.3947508 44.2815676,37.5650375 C44.5695594,37.7231719 44.857006,37.7160832 45.1437514,37.5437711 C45.2789058,37.4608868 45.3910801,37.33843 45.4803521,37.1760111 L46.1047109,36.0390788 L43.6315022,34.6809141 L43.3883022,35.1237685 Z M44.5606011,32.2754785 L46.1787148,32.8657952 L44.2778285,33.0510385 L45.6115337,34.4206543 L43.99342,33.8303376 L43.8245354,34.2931341 L46.4752755,35.2600913 L46.6440821,34.7972948 L45.3538445,33.4435703 L47.2112632,33.2425136 L47.3801478,32.7795613 L44.7294857,31.8126041 L44.5606011,32.2754785 Z M47.3732148,30.7626847 C47.3316948,30.9691164 47.2167941,31.1127617 47.0287464,31.1937764 C46.8405429,31.2747132 46.6005367,31.2857748 46.3088057,31.2270392 C46.0501818,31.1749249 45.8484239,31.0884573 45.7038437,30.9676363 C45.5196131,30.8158895 45.4513738,30.6216879 45.4990478,30.3850315 C45.5411911,30.1758734 45.6574161,30.0288784 45.8478007,29.9441246 C46.0381074,29.8592929 46.2805285,29.8465954 46.5750638,29.9059542 C46.8667948,29.9647678 47.0833534,30.0698532 47.224506,30.2216 C47.3658923,30.3730351 47.4153581,30.5535265 47.3732148,30.7626847 L47.3732148,30.7626847 Z M46.6765659,29.4022609 C46.2885521,29.3241284 45.9434604,29.3518604 45.6415247,29.4858462 C45.2927718,29.6389952 45.0801081,29.9054868 45.0036894,30.2852432 C44.9337363,30.6319706 45.0106224,30.9360094 45.2342698,31.1973597 C45.4581509,31.4585542 45.7859491,31.6328917 46.2181316,31.7199825 C46.641901,31.8053595 47.005143,31.7689808 47.307624,31.6108463 C47.6101051,31.4527118 47.7958158,31.2029684 47.8646004,30.8616161 C47.9377474,30.4982963 47.8680279,30.1864676 47.6556758,29.92613 C47.4433237,29.6656366 47.1168499,29.4910654 46.6765659,29.4022609 L46.6765659,29.4022609 Z M46.8837767,26.6022681 C46.441,26.5748477 46.0797833,26.6601469 45.8004382,26.8580097 C45.5208595,27.0559504 45.3698137,27.3384113 45.3471452,27.7055481 C45.3184784,28.1705258 45.5033322,28.5463873 45.9019404,28.8325873 L46.1663289,28.3764122 C45.9500039,28.236506 45.8490471,28.0262573 45.8636921,27.7458218 C45.8766233,27.5358068 45.9704134,27.3734658 46.1447509,27.2590325 C46.3190884,27.1446771 46.5577703,27.0967694 46.8604071,27.1156209 C47.1153698,27.1314343 47.3309158,27.2052044 47.507045,27.3370091 C47.6831741,27.4688138 47.7673827,27.6413596 47.7597486,27.8548021 C47.7343536,28.1287721 47.6051195,28.3317762 47.3719684,28.4636588 L47.5706883,28.935881 C48.001157,28.703587 48.2310363,28.3535879 48.2598589,27.8856501 C48.282839,27.5157868 48.1705869,27.2162661 47.9232582,26.9872437 C47.6756958,26.7582214 47.329202,26.6298443 46.8837767,26.6022681 L46.8837767,26.6022681 Z M44.0114925,14.4791968 L44.2268048,14.8113571 C44.3107797,14.9409027 44.3573631,15.0797183 44.3663215,15.2278817 C44.3878216,15.5450854 44.241995,15.8052673 43.928764,16.0083493 C43.6128844,16.2129893 43.3097023,16.2354242 43.0190619,16.0759654 C42.8860108,16.0049218 42.7820938,15.9115991 42.707233,15.7963089 L42.4919987,15.4640707 L44.0114925,14.4791968 Z M42.2832299,16.0711357 C42.4129314,16.2713355 42.5807254,16.4270551 42.786534,16.537905 C43.2458253,16.7821176 43.7181257,16.7469853 44.2035909,16.4322743 C44.6747228,16.1269891 44.8953322,15.7163069 44.865419,15.2004614 C44.8537342,14.9604553 44.7822231,14.7391449 44.6509637,14.5365303 L44.1562285,13.7732004 L41.7884168,15.3078058 L42.2832299,16.0711357 Z M41.5378943,14.9801637 L41.9214679,14.6511972 L40.8850245,13.4429097 L41.4700444,12.9411638 L42.0182961,13.5804789 L42.4084133,13.2459816 L41.8600837,12.6066666 L42.2596266,12.26399 L43.2658453,13.4369894 L43.6494189,13.108023 L42.3087028,11.5449845 L40.1671093,13.3819929 L41.5378943,14.9801637 Z M38.9740893,12.2772328 L39.339902,12.6072119 L40.8967093,10.8807418 L41.5003471,11.4251762 L41.8331307,11.056014 L40.2599646,9.63747772 L39.9272589,10.006562 L40.5308966,10.5508406 L38.9740893,12.2772328 Z M38.408622,11.1203584 L37.098598,10.2161876 L37.5361555,9.58185801 L38.2294547,10.0602343 L38.5212636,9.63747772 L37.8280423,9.15894569 L38.1270178,8.72582862 L39.3990272,9.60359177 L39.6861621,9.18769033 L37.9911623,8.01804055 L36.3887063,10.3402803 L38.1216428,11.5361819 L38.408622,11.1203584 Z M36.0243737,10.1235659 L36.2526171,9.67268796 L34.8323664,8.95360457 L35.8787029,6.88718436 L35.4202685,6.65504608 L34.1457664,9.17234427 L36.0243737,10.1235659 Z M32.9070977,6.26173527 L33.6635729,6.5226182 C33.7803432,6.56296975 33.8626822,6.62552245 33.9106679,6.71035419 C33.9584977,6.79518593 33.9648075,6.88936552 33.929052,6.99289297 C33.895166,7.09104539 33.8333923,7.15811622 33.7437307,7.19410544 C33.6541471,7.22993887 33.5510091,7.2278356 33.4342389,7.18756195 L32.6779195,6.92660113 L32.9070977,6.26173527 Z M32.151869,8.45131342 L32.5130077,7.40427628 L33.2773507,7.66804146 C33.4419508,7.72475175 33.5987611,7.74765398 33.748171,7.73674816 C34.0718405,7.68510128 34.2914371,7.49206817 34.4067274,7.15764883 C34.5137603,6.8472223 34.4581406,6.56507302 34.2397903,6.31166837 C34.135328,6.19248328 33.9955775,6.10258812 33.8203832,6.04221659 L32.5942562,5.61914846 L31.6741157,8.28647965 L32.151869,8.45131342 Z M29.4549349,6.07695943 L29.9538767,7.92058921 L31.0823965,6.37741492 L30.7697107,8.0711675 L31.2542412,8.16059527 L31.7665036,5.38599749 L31.2819732,5.29656973 L30.1619443,6.79417325 L29.6544337,4.99603634 L29.170059,4.90668647 L28.6577187,7.68120635 L29.1421713,7.77071201 L29.4549349,6.07695943 Z M26.4721123,6.17402128 C26.4820054,5.87660384 26.5500111,5.64555614 26.6762071,5.48134557 C26.8023253,5.3169013 26.9721446,5.23822356 27.1854315,5.24523445 C27.3957583,5.25208954 27.5565414,5.3416731 27.6673913,5.51390725 C27.7783192,5.68614139 27.8288755,5.92108403 27.8190603,6.21842357 C27.8103356,6.48218874 27.7583771,6.69531973 27.6631069,6.85797233 C27.5439218,7.06471562 27.363664,7.16403653 27.1224114,7.15609085 C26.9091245,7.14907997 26.7449139,7.05871741 26.6299353,6.8848474 C26.5148008,6.71121108 26.4622971,6.47424307 26.4721123,6.17402128 L26.4721123,6.17402128 Z M27.1056632,7.66118637 C27.4593237,7.67279328 27.7463807,7.546831 27.9672238,7.28298792 C28.187989,7.01922274 28.305694,6.66704248 28.3201832,6.22660293 C28.3344387,5.79442065 28.2386232,5.44216249 28.0326588,5.16998425 C27.8266944,4.89772811 27.5498421,4.75579658 27.2018682,4.74434547 C26.8314594,4.73211536 26.5353661,4.85239104 26.3136662,5.104783 C26.0918104,5.35740865 25.9734042,5.70810884 25.9586814,6.15703935 C25.9455944,6.55268711 26.0299588,6.88835284 26.2120082,7.16403653 C26.4206212,7.48264242 26.7184283,7.64833307 27.1056632,7.66118637 L27.1056632,7.66118637 Z M23.5974911,7.44852277 C23.8395227,7.69070999 24.1434837,7.79197837 24.5090628,7.7526395 C24.9724827,7.7026285 25.3117319,7.45724743 25.5268105,7.01610679 L25.0326205,6.83218784 C24.9311184,7.06907795 24.7407338,7.20392069 24.4620898,7.23671606 C24.2526978,7.2593067 24.0768803,7.19426124 23.9347929,7.04150179 C23.7927055,6.88889813 23.7053809,6.66174537 23.672975,6.36035509 C23.6455547,6.10632726 23.6819334,5.88151146 23.7823449,5.685674 C23.8826786,5.48991443 24.038632,5.37774023 24.2501272,5.34938508 C24.5246425,5.32819662 24.7464983,5.42151933 24.9156945,5.6291974 L25.3475654,5.35390321 C25.0463307,4.96846018 24.6625234,4.80082206 24.1964549,4.85106676 C23.8280715,4.89071722 23.5516866,5.05181184 23.3675339,5.33435062 C23.1833032,5.6167336 23.1151418,5.97989758 23.1631275,6.42376468 C23.2105678,6.86482742 23.3553038,7.20633555 23.5974911,7.44852277 L23.5974911,7.44852277 Z M17.9002851,7.10405449 C18.0419051,7.04267027 18.1864853,7.01976804 18.3340256,7.03526989 C18.6504505,7.06650729 18.8829005,7.25346429 19.0313756,7.59598511 C19.1809413,7.94115448 19.1531314,8.24402483 18.9477902,8.50428457 C18.8557138,8.62378125 18.7465776,8.71079416 18.6203816,8.76563488 L18.2571395,8.92299036 L17.5370431,7.26140997 L17.9002851,7.10405449 Z M18.8213604,9.22928826 C19.040256,9.13432968 19.2214486,8.99457932 19.3647824,8.80995927 C19.6817526,8.39732958 19.7250643,7.92565263 19.4950292,7.39500633 C19.2717712,6.87978398 18.9032321,6.59436295 18.3894116,6.53858744 C18.1508855,6.51046599 17.9206946,6.54435195 17.6993062,6.64040111 L16.8645428,7.00208502 L17.9866749,9.59089427 L18.8213604,9.22928826 Z M17.6265488,9.78322629 L17.3644972,9.35119981 L16.0033717,10.1766929 L15.6037509,9.51774734 L16.3239252,9.08096903 L16.0575113,8.64169797 L15.337337,9.07847627 L15.0643017,8.62829938 L16.3857768,7.82687701 L16.1238032,7.39485053 L14.3629789,8.46276453 L15.8262298,10.875211 L17.6265488,9.78322629 Z M13.0904243,10.0522886 L14.5356026,11.8730161 L14.9215912,11.5667182 L13.4763349,9.74591279 L14.1130017,9.24066148 L13.8039772,8.85147931 L12.1448887,10.1682798 L12.4537575,10.5575399 L13.0904243,10.0522886 Z M13.6614224,12.592489 L13.2994267,12.2398414 L12.1885121,13.3798896 L11.6365991,12.8419987 L12.2244234,12.2388287 L11.8563516,11.8801828 L11.2686831,12.4835087 L10.891653,12.1161381 L11.9701618,11.0091969 L11.608244,10.6564713 L10.1710892,12.1314063 L12.1919396,14.100531 L13.6614224,12.592489 Z M11.9175801,14.4219412 L11.5115716,14.1209404 L10.5636212,15.3997264 L8.70293066,14.0203731 L8.39702211,14.4330807 L10.6635653,16.1135126 L11.9175801,14.4219412 Z M8.20328782,17.1836078 L7.58632939,16.8461504 L7.97029254,16.1442047 C8.02957352,16.0358476 8.10505744,15.9651155 8.19674432,15.9320085 C8.2885091,15.8990574 8.38229924,15.9087168 8.47834845,15.9612985 C8.56956793,16.0111537 8.62526557,16.08321 8.64567505,16.1775454 C8.66600664,16.2718808 8.64653194,16.3733829 8.58732886,16.4816621 L8.20328782,17.1836078 Z M9.61839726,17.9576877 L8.64668774,17.4261066 L9.03470162,16.7167606 C9.11828702,16.564079 9.16705166,16.413267 9.18138504,16.2642467 C9.18473469,15.9364488 9.03111827,15.6875623 8.72084739,15.5178988 C8.43262186,15.3602317 8.14525322,15.3679437 7.85874147,15.5406452 C7.72382076,15.6237632 7.6118023,15.7465316 7.52291978,15.9090284 L6.90043054,17.0469734 L9.37589832,18.4010095 L9.61839726,17.9576877 Z M8.45046068,20.8094831 L6.83133431,20.2222824 L8.73198691,20.0336116 L7.39563315,18.6664106 L9.01483742,19.2537672 L9.18286512,18.7905033 L6.53041128,17.8284537 L6.36238359,18.2916397 L7.65519193,19.6430272 L5.79808475,19.8475115 L5.63013495,20.3106974 L8.28251089,21.272747 L8.45046068,20.8094831 Z M5.64065129,22.3276519 C5.68185975,22.1211423 5.79637097,21.9772634 5.98449655,21.8959371 C6.17238844,21.8146887 6.41239461,21.8031596 6.70420348,21.8614279 C6.96306117,21.9129969 7.16481904,21.9991529 7.30971079,22.1196623 C7.49425302,22.2710195 7.56280396,22.4650653 7.51559729,22.7017997 C7.47376564,22.9110357 7.35785224,23.0584201 7.16770129,23.1434077 C6.97747244,23.228551 6.73505141,23.2417938 6.44051608,23.1829802 C6.14862931,23.1246341 5.93191487,23.0198603 5.79037277,22.8685809 C5.64883066,22.7172236 5.59889754,22.536888 5.64065129,22.3276519 L5.64065129,22.3276519 Z M6.33987084,23.6867515 C6.72819631,23.7642607 7.07305426,23.7357498 7.37475628,23.6012187 C7.72319757,23.4476023 7.93523808,23.1807212 8.0111894,22.8007311 C8.08036353,22.45377 8.00285423,22.1500428 7.77873941,21.8890041 C7.55446879,21.628199 7.22628118,21.4545627 6.79402079,21.3682509 C6.37009557,21.2837308 6.00685351,21.3207327 5.70476199,21.4794124 C5.40251469,21.6381701 5.21727136,21.8882251 5.14918782,22.2295774 C5.07666404,22.5929751 5.14700665,22.9048038 5.35974825,23.1648298 C5.57272354,23.4248559 5.89943107,23.5988817 6.33987084,23.6867515 L6.33987084,23.6867515 Z M6.13780137,26.4870558 C6.5805781,26.5136972 6.9415611,26.4277749 7.22059457,26.2294447 C7.49986174,26.0310365 7.6502064,25.748342 7.67232966,25.3812052 C7.70029533,24.9159938 7.5148183,24.5405997 7.115587,24.254945 L6.85197749,24.7117433 C7.06861403,24.8512599 7.16996036,25.061275 7.15593857,25.3417105 C7.14324107,25.5518813 7.04976252,25.7143002 6.87550293,25.8289672 C6.70132123,25.9437899 6.46279513,25.9920093 6.16023623,25.973781 C5.90519558,25.9585128 5.68949383,25.8850543 5.51313097,25.7534833 C5.336846,25.6220681 5.25232582,25.4496003 5.25941461,25.2362356 C5.28442012,24.9621099 5.41326472,24.758872 5.64626,24.6265999 L5.4467612,24.1547672 C5.01652618,24.3877624 4.78734793,24.7381509 4.75922647,25.2061667 C4.73702531,25.5761857 4.84982276,25.8753948 5.09769672,26.1040277 C5.34549277,26.3326605 5.69222029,26.4603366 6.13780137,26.4870558 L6.13780137,26.4870558 Z" id="Fill-1" fill="#C60808"></path>
                        </g>
                    </g>
                </g>
            </g>
        </g>
    </g>
</svg>