<svg width="144" height="45" viewBox="0 0 144 45" xmlns="http://www.w3.org/2000/svg" xmlns:xlink="http://www.w3.org/1999/xlink">
    <defs>
        <path id="hqmbtxi80a" d="M0 0h144v44H0z"/>
    </defs>
    <g transform="translate(0 .5)" fill="none" fill-rule="evenodd">
        <mask id="6a60ei7zfb" fill="#fff">
            <use xlink:href="#hqmbtxi80a"/>
        </mask>
        <g mask="url(#6a60ei7zfb)">
            <path d="M55.161 23.034c-1.841 0-3.023-1.242-3.023-2.774 0-1.533 1.18-2.774 3.023-2.774h13.982a2.69 2.69 0 0 0 1.906-.762 2.639 2.639 0 0 0 .792-1.878 2.617 2.617 0 0 0-.792-1.878 2.67 2.67 0 0 0-1.906-.762H54.222c-4.788 0-8.302 3.605-8.302 8.054 0 4.448 3.514 8.056 8.302 8.056h9.912c1.842-.004 3.026 1.237 3.029 2.77.003 1.533-1.187 2.776-3.029 2.78H49.386a2.68 2.68 0 0 0-1.886.773 2.627 2.627 0 0 0-.78 1.867c0 .7.28 1.371.78 1.867a2.68 2.68 0 0 0 1.886.773H65.4c4.77-.032 8.255-3.633 8.246-8.07-.009-4.452-3.53-8.051-8.318-8.042H55.161zm42.106-7.226a3.277 3.277 0 0 0-1.062.702 3.24 3.24 0 0 0-.96 2.293V34.22c0 .839-.336 1.643-.935 2.236a3.21 3.21 0 0 1-2.259.926h-6.014a3.21 3.21 0 0 1-2.259-.926 3.146 3.146 0 0 1-.935-2.236V18.803c0-.86-.345-1.684-.96-2.292a3.292 3.292 0 0 0-2.315-.95c-.869 0-1.702.342-2.316.95a3.226 3.226 0 0 0-.96 2.292v15.791c0 2.097.842 4.108 2.34 5.59a8.027 8.027 0 0 0 5.646 2.316h9.532a8.026 8.026 0 0 0 5.646-2.316 7.866 7.866 0 0 0 2.34-5.59v-15.79a3.214 3.214 0 0 0-.96-2.293 3.277 3.277 0 0 0-2.316-.95c-.43 0-.855.084-1.253.247zm15.796-8.721a8.027 8.027 0 0 0-5.646 2.315 7.866 7.866 0 0 0-2.34 5.59v15.791a3.214 3.214 0 0 0 .96 2.293 3.277 3.277 0 0 0 2.316.95 3.304 3.304 0 0 0 2.316-.95 3.24 3.24 0 0 0 .959-2.293V15.367c0-.838.336-1.643.935-2.236a3.21 3.21 0 0 1 2.259-.926h6.014c.847 0 1.66.333 2.259.926s.936 1.398.936 2.236v15.416a3.214 3.214 0 0 0 .946 2.315 3.277 3.277 0 0 0 2.328.962 3.304 3.304 0 0 0 2.328-.962 3.24 3.24 0 0 0 .947-2.315v-15.79a7.866 7.866 0 0 0-2.338-5.59 8.026 8.026 0 0 0-5.646-2.316h.002-9.535zm22.826 8.72a3.277 3.277 0 0 0-1.062.703 3.24 3.24 0 0 0-.96 2.293v20.455c0 .86.346 1.684.96 2.292.614.608 1.447.95 2.316.95.868 0 1.701-.342 2.315-.95.615-.608.96-1.432.96-2.292V18.803a3.215 3.215 0 0 0-.96-2.293 3.277 3.277 0 0 0-2.317-.95h.002c-.43 0-.856.085-1.254.248z" fill="#F20017"/>
            <g fill="#66C2A4">
                <path d="M21.936 16.335a2.05 2.05 0 0 0-2.779.737l-5.422 9.298-5.423-9.3a2.024 2.024 0 0 0-.745-.736 2.05 2.05 0 0 0-2.034 0c-.31.177-.566.43-.745.737L.276 24.809a1.998 1.998 0 0 0 0 2.014c.178.306.435.56.744.737.31.177.66.27 1.017.27h23.394a2.05 2.05 0 0 0 1.017-.27c.31-.176.566-.43.745-.737a1.998 1.998 0 0 0 0-2.014l-4.513-7.737a2.024 2.024 0 0 0-.744-.737zm8.04-.27a2.05 2.05 0 0 0-1.016.269c-.31.177-.566.431-.745.737a1.998 1.998 0 0 0 0 2.014l5.1 8.745a1.35 1.35 0 0 0 1.174.671 1.366 1.366 0 0 0 1.175-.671l5.1-8.746a2 2 0 0 0-.746-2.75c-.31-.177-.66-.27-1.017-.27h.001-9.025zm3.077 14.158c-.425.28-.756.68-.952 1.148a2.536 2.536 0 0 0 .56 2.79 2.61 2.61 0 0 0 2.817.555 2.58 2.58 0 0 0 1.16-.943 2.541 2.541 0 0 0-.322-3.23 2.604 2.604 0 0 0-3.263-.32zm.665 3.271a1.362 1.362 0 0 1-.211-2.116 1.393 1.393 0 0 1 1.513-.298c.254.104.471.28.624.507a1.365 1.365 0 0 1-.173 1.736 1.399 1.399 0 0 1-1.753.172zM133.878 12.133a5.819 5.819 0 0 1-2.159-2.606 5.752 5.752 0 0 1-.333-3.354A5.788 5.788 0 0 1 132.99 3.2a5.883 5.883 0 0 1 3.003-1.588 5.92 5.92 0 0 1 3.388.33 5.852 5.852 0 0 1 2.632 2.138c.644.955.988 2.077.988 3.226a5.784 5.784 0 0 1-1.72 4.104 5.907 5.907 0 0 1-7.404.723zm1.252-7.8a3.583 3.583 0 0 0-1.33 1.605 3.542 3.542 0 0 0 .782 3.896 3.645 3.645 0 0 0 3.935.775 3.603 3.603 0 0 0 1.621-1.317 3.55 3.55 0 0 0 .609-1.986 3.56 3.56 0 0 0-1.06-2.527 3.633 3.633 0 0 0-4.557-.446z"/>
            </g>
        </g>
    </g>
</svg>
