<?xml version="1.0" encoding="UTF-8"?>
<svg width="56px" height="56px" viewBox="0 0 56 56" version="1.1" xmlns="http://www.w3.org/2000/svg" xmlns:xlink="http://www.w3.org/1999/xlink">
    <title>00EADC9E-85F2-447F-801A-FEEF3B8AB442</title>
    <defs>
        <circle id="path-1" cx="28" cy="28" r="28"></circle>
    </defs>
    <g id="Symbols_assets" stroke="none" stroke-width="1" fill="none" fill-rule="evenodd">
        <g id="profile_56px">
            <g id="ti203a6607-[Converted]">
                <mask id="mask-2" fill="white">
                    <use xlink:href="#path-1"></use>
                </mask>
                <use id="Mask" fill="#D8D8D8" xlink:href="#path-1"></use>
                <g mask="url(#mask-2)">
                    <g transform="translate(42.852435, 129.154649) rotate(-12.000000) translate(-42.852435, -129.154649) translate(3.139415, -6.087183)">
                        <polygon id="BG" fill="#FFD77D" fill-rule="nonzero" transform="translate(46.216380, 33.209660) rotate(12.000000) translate(-46.216380, -33.209660) " points="18.2163801 61.2096602 18.2163801 5.20966016 74.2163801 5.20966016 74.2163801 61.2096602"></polygon>
                        <g id="Group" stroke-width="1" fill="none" fill-rule="evenodd" transform="translate(-0.000000, 13.392755)">
                            <path d="M38.0867358,38.5488009 L38.0867358,38.5294084 C38.0001605,38.4873915 37.9456501,38.4583028 37.9456501,38.4583028 L38.0867358,38.5488009 Z" id="Path"></path>
                            <path d="M50.4734222,26.9715154 L51.1852638,25.1971073 C51.2590132,25.271445 51.3391756,25.3457827 51.4289574,25.4071921 C52.419764,26.111784 53.8851318,25.7336315 54.7059943,24.563621 C55.5236502,23.3936106 55.385771,21.8745363 54.3949643,21.1699444 C54.2506721,21.066518 54.0935539,20.9889483 53.9332292,20.9340031 C53.7248071,20.9081465 53.5067655,20.8725937 53.2758979,20.8208805 C53.1604641,20.8208805 53.0482369,20.8273446 52.9328031,20.843505 L52.971281,20.7465428 C52.971281,20.7465428 52.9680745,20.7465428 52.9680745,20.7465428 C52.9680745,20.7465428 52.8750862,20.6625089 52.705142,20.5073694 C52.0574302,21.3703329 51.1179275,22.0167475 51.1179275,22.0167475 C51.5091197,20.8919861 51.2493937,19.6314776 51.0024937,18.852548 C48.0749647,15.9016654 42.7361521,9.98697181 41.1008402,4.65405136 C40.9693739,4.63142685 40.8411142,4.61526649 40.7096479,4.59910612 C40.1869894,4.77363806 39.2186282,5.13239817 38.8851528,5.25198487 C37.6763046,5.57519217 35.9512108,6.5642065 34.3575833,9.1498649 C34.3575833,9.1498649 33.8669897,9.97404352 33.3892221,11.3993877 L31.7122257,17.5694151 C31.7507037,17.4433642 31.7827686,17.3302417 31.811627,17.2332795 C32.3150466,17.6178962 32.654935,18.2061334 32.6837934,18.8913329 C32.7286843,20.003166 31.9462998,20.9469313 30.8881568,21.1408557 C30.9330477,20.6366523 31.0773399,19.9546849 31.2408711,19.2856458 L31.1478828,19.6250135 C30.0640878,24.0109365 31.4621192,30.4169052 37.1376136,32.5468413 C37.458263,32.666428 37.7789124,32.7633902 38.0963553,32.844192 L38.1123878,37.7666392 L38.0995618,37.7666392 L38.0995618,37.7827996 L38.0835293,38.5261764 L38.0835293,38.5455688 L37.7885319,52.2657187 L49.3703882,39.4796379 L49.8609818,39.3406588 L49.7808195,31.2604763 L49.7487545,28.1867749 C50.0341325,27.7827657 50.277826,27.3755245 50.4734222,26.9715154 Z M44.669668,25.9210917 C43.4640263,25.9695728 42.4443612,25.0258075 42.3930573,23.810548 C42.3417534,22.5952886 43.2812561,21.5674894 44.4868979,21.5157762 C45.6925396,21.464063 46.7122047,22.4110604 46.7635086,23.6263199 C46.8148125,24.8448114 45.8785163,25.8726106 44.669668,25.9210917 Z M46.6384553,16.9520891 C45.6508552,15.3554451 43.605112,15.0677906 43.605112,15.0677906 C46.4460657,14.1498818 46.6384553,16.9520891 46.6384553,16.9520891 Z M42.8836509,18.2190617 C43.364625,18.2384542 43.7397848,18.6456954 43.7205458,19.1305063 C43.7013068,19.6153173 43.2940821,19.9934698 42.813108,19.9740774 C42.3321339,19.9546849 41.9569741,19.5474437 41.976213,19.0594007 C41.995452,18.5778218 42.4026768,18.1996693 42.8836509,18.2190617 Z M38.1604852,13.3063108 C36.6854979,12.1621569 34.6654067,12.6114151 34.6654067,12.6114151 C37.0093538,10.749741 38.1604852,13.3063108 38.1604852,13.3063108 Z M34.8770353,16.635346 C34.8962743,16.150535 35.303499,15.7723825 35.7844731,15.7917749 C36.2654472,15.8111673 36.640607,16.2216406 36.6213681,16.7064516 C36.6021291,17.1912625 36.1949044,17.5694151 35.7139303,17.5500226 C35.2329562,17.5273981 34.8577964,17.1201569 34.8770353,16.635346 Z M35.861429,20.8338088 C35.867842,20.8111843 35.8902874,20.7917918 35.9063199,20.7723994 L35.8999069,20.7691673 L37.0285928,19.2339327 L37.0317993,19.2307006 C37.0510383,19.2080761 37.0895162,19.1466667 37.1344071,19.0658649 C37.179298,18.985063 37.2338084,18.8784046 37.2915253,18.7588179 C37.4069591,18.5164124 37.5448383,18.2061334 37.6827176,17.8732299 C37.9616826,17.2074229 38.250267,16.4478857 38.4298307,15.9210578 C38.4586891,15.8370239 38.548471,15.7917749 38.6318398,15.8208636 C38.7152086,15.8499522 38.7600996,15.9404503 38.7312411,16.0244842 C38.5709164,16.4931348 38.3304294,17.1363173 38.0835293,17.7407149 C37.8366293,18.3451126 37.5897292,18.9074933 37.4133721,19.2210044 C37.3652747,19.3082703 37.3235902,19.3761439 37.2786993,19.427857 L37.2786993,19.427857 L36.1628394,20.9436993 C36.1692524,20.9727879 36.1884914,21.0309652 36.2237628,21.0923746 C36.2718602,21.1796406 36.3424031,21.2830669 36.4257719,21.3800291 C36.5957161,21.5771856 36.8233772,21.7549496 37.0061473,21.7937345 C37.0927227,21.8131269 37.1472331,21.9003929 37.1279941,21.9876588 C37.1087551,22.0749248 37.0221798,22.1298701 36.9356045,22.1104776 C36.7111499,22.0587645 36.5155538,21.9197853 36.3424031,21.7581817 C36.1724589,21.596578 36.0313732,21.4123499 35.9415913,21.2475141 C35.8838744,21.1343916 35.8389835,21.0406615 35.835777,20.9275389 C35.8453965,20.8984502 35.848603,20.8661295 35.861429,20.8338088 Z M36.5540317,25.40396 C36.114742,25.0645923 35.874255,24.7252247 35.867842,24.7187605 C35.8197446,24.6541191 35.835777,24.563621 35.8999069,24.5151399 C35.9640368,24.4698909 36.0538186,24.4828192 36.101916,24.5474607 L36.1115355,24.560389 L36.140394,24.5991738 C36.1660459,24.6314946 36.2077303,24.6832077 36.2622407,24.741385 C36.368055,24.8577397 36.5283797,25.0161112 36.7303889,25.1744828 C37.1376136,25.491226 37.7211955,25.801505 38.4362437,25.7982729 C38.9204243,25.7982729 39.4687347,25.6592938 40.0843816,25.271445 C40.151718,25.2294281 40.2414998,25.2488205 40.2831842,25.316694 C40.3248686,25.3845676 40.3056297,25.4750656 40.2382933,25.5170826 C39.587375,25.9275558 38.9781412,26.0859274 38.4394502,26.0859274 C37.6346202,26.0891595 36.9933214,25.7433277 36.5540317,25.40396 Z M47.6132295,30.4880108 C44.0315757,35.6173107 38.1348332,36.1829235 38.1348332,36.1829235 L38.1348332,33.7621008 L39.321236,33.0898296 C42.5245235,33.506767 45.4712915,32.265651 47.6132295,30.4880108 Z" id="Shape" fill="#FFEFE8" fill-rule="nonzero"></path>
                            <path d="M38.1604852,13.3063108 C38.1604852,13.3063108 37.0093538,10.749741 34.6654067,12.6114151 C34.6654067,12.6114151 36.6854979,12.1589249 38.1604852,13.3063108 Z" id="Path" fill="#000000" fill-rule="nonzero"></path>
                            <path d="M36.3488161,21.7614137 C36.5187602,21.9197853 36.7175629,22.0587645 36.9420175,22.1137097 C37.0285928,22.1331021 37.1151681,22.0781569 37.1344071,21.9908909 C37.1536461,21.9036249 37.0991357,21.816359 37.0125603,21.7969665 C36.8297902,21.7581817 36.5989226,21.5804176 36.4321849,21.3832612 C36.3488161,21.286299 36.2750667,21.1828727 36.2301758,21.0956067 C36.1949044,21.0341973 36.1756654,20.97602 36.1692524,20.9469313 L37.2851123,19.4310891 L37.2851123,19.4310891 C37.3300032,19.3761439 37.3716877,19.3115024 37.4197851,19.2242364 C37.5929357,18.9074933 37.8430423,18.3483447 38.0899423,17.743947 C38.3368424,17.1395494 38.5805359,16.4963668 38.7376541,16.0277162 C38.7665125,15.9436823 38.7216216,15.8499522 38.6382528,15.8240956 C38.5548839,15.795007 38.4618956,15.840256 38.4362437,15.9242899 C38.2598865,16.4478857 37.9680955,17.210655 37.6891306,17.876462 C37.5512513,18.2093655 37.4133721,18.5196445 37.2979383,18.76205 C37.2402214,18.8848688 37.185711,18.9882951 37.1408201,19.0690969 C37.0959292,19.1498988 37.0574512,19.2113081 37.0382123,19.2339327 L37.0350058,19.2371647 L35.9063199,20.7723994 L35.9127329,20.7756315 C35.8967004,20.7950239 35.8774614,20.8176484 35.867842,20.8370409 C35.855016,20.8725937 35.8518095,20.9016823 35.8518095,20.930771 C35.855016,21.0438935 35.8967004,21.1408557 35.9576238,21.2507462 C36.0409926,21.4155819 36.1788719,21.5998101 36.3488161,21.7614137 Z" id="Path" fill="#000000" fill-rule="nonzero"></path>
                            <path d="M40.2382933,25.5203146 C40.3056297,25.4782977 40.3248686,25.3877996 40.2831842,25.3199261 C40.2414998,25.2520526 40.151718,25.2326601 40.0843816,25.2746771 C39.4719412,25.6592938 38.9204243,25.7982729 38.4362437,25.801505 C37.717989,25.801505 37.1376136,25.491226 36.7303889,25.1777149 C36.5283797,25.0193433 36.368055,24.8609717 36.2622407,24.7446171 C36.2077303,24.6864398 36.1692524,24.6379587 36.140394,24.6024059 L36.1115355,24.563621 L36.101916,24.5506927 C36.0570251,24.4860513 35.9640368,24.4698909 35.8999069,24.518372 C35.835777,24.563621 35.8197446,24.6573511 35.867842,24.7219926 C35.874255,24.7284567 36.114742,25.0678244 36.5540317,25.4071921 C36.9933214,25.7465597 37.6346202,26.0923916 38.4362437,26.0923916 C38.9781412,26.0891595 39.587375,25.9307879 40.2382933,25.5203146 Z" id="Path" fill="#000000" fill-rule="nonzero"></path>
                            <path d="M36.6213681,16.7032195 C36.640607,16.2184085 36.2654472,15.8079353 35.7844731,15.7885428 C35.303499,15.7691504 34.8962743,16.1473029 34.8770353,16.6321139 C34.8577964,17.1169248 35.2329562,17.5273981 35.7139303,17.5435585 C36.1949044,17.566183 36.5989226,17.1880304 36.6213681,16.7032195 Z" id="Path" fill="#000000" fill-rule="nonzero"></path>
                            <path d="M42.8163145,19.9773094 C43.2972886,19.9967019 43.7045133,19.6185493 43.7237523,19.1337384 C43.7429912,18.6489274 43.3678314,18.2384542 42.8868573,18.2222938 C42.4058832,18.2029014 41.9986585,18.5810539 41.9794195,19.0658649 C41.9569741,19.5506758 42.3321339,19.957917 42.8163145,19.9773094 Z" id="Path" fill="#000000" fill-rule="nonzero"></path>
                            <path d="M46.6384553,16.9520891 C46.6384553,16.9520891 46.4460657,14.1498818 43.605112,15.0677906 C43.605112,15.0677906 45.6508552,15.3586771 46.6384553,16.9520891 Z" id="Path" fill="#000000" fill-rule="nonzero"></path>
                            <path d="M44.4901044,21.5157762 C43.2812561,21.5674894 42.3449599,22.5920565 42.3962638,23.810548 C42.4475677,25.0258075 43.4640263,25.9728049 44.6728745,25.9210917 C45.8817228,25.8693785 46.818019,24.8415793 46.7667151,23.6263199 C46.7154112,22.4110604 45.6957461,21.464063 44.4901044,21.5157762 Z" id="Path" fill="#FFC4AA" fill-rule="nonzero"></path>
                            <path d="M32.6869999,18.8913329 C32.6581415,18.2061334 32.3182531,17.6146641 31.8148335,17.2332795 C31.7859751,17.3302417 31.7507037,17.4433642 31.7154322,17.5694151 C31.583966,18.0219053 31.4044023,18.6489274 31.2472841,19.2888779 C31.0837529,19.957917 30.9394607,20.6398844 30.8945698,21.1440878 C31.9495063,20.9501634 32.7318908,20.003166 32.6869999,18.8913329 Z" id="Path" fill="#FFC4AA" fill-rule="nonzero"></path>
                            <path d="M37.7917384,52.2721828 L38.0867358,38.552033 L37.9456501,38.4615349 C37.9456501,38.4615349 38.0001605,38.4873915 38.0867358,38.5326405 L38.1027683,37.7892637 C38.0963553,37.7827996 38.0899423,37.7795675 38.0835293,37.7731034 C36.6919109,38.0122768 31.5807595,37.6793733 29.137411,42.2559886 C28.4640473,43.5197292 27.2487861,47.6600147 26.241947,51.3413458 L23.2983855,60.911514 L27.8932914,65.5366104 L28.1401914,65.2618842 L46.6224229,78.8980002 C46.6448683,78.8333587 46.6705203,78.755789 46.7025852,78.6620589 C46.79878,78.3744044 46.9398658,77.9542349 47.1130164,77.4338711 C47.4625243,76.3899115 47.9499114,74.9290145 48.4982219,73.2741932 C49.5948428,69.9613183 50.9415703,65.8565856 51.9323769,62.6956183 C52.5929147,60.5883067 53.0995408,58.8979325 53.2694849,58.1513236 C53.4201902,57.4952128 53.8947513,56.5158947 54.593767,55.4169899 C55.2927827,54.318085 56.2162529,53.1060577 57.255157,52.0200811 L57.4860246,52.2430942 C56.4599465,53.3129103 55.5493022,54.5087773 54.8631125,55.5915218 C54.1769227,56.6710342 53.7119811,57.6406561 53.5805149,58.2224292 C53.4073642,58.9948947 52.9007381,60.6820368 52.2369939,62.7958125 C51.5732496,64.9063562 50.7555936,67.4338373 49.9571766,69.8643562 C48.3635491,74.728626 46.8532904,79.2147433 46.8532904,79.2147433 L46.7827476,79.4248281 L28.1818758,65.7014461 L24.100009,70.2360446 C24.2122362,70.3556313 24.4110389,70.5689481 24.6900039,70.8630667 C25.1357065,71.3349494 25.7834183,72.0136847 26.5850418,72.8443275 C28.1882888,74.5023809 30.4135957,76.7551358 32.8858025,79.1404057 C37.8302163,83.9109454 43.7910887,89.2147772 47.7799672,91.3188567 C48.9182726,91.9200223 49.8930468,92.2561579 50.6113014,92.2529258 C51.1115145,92.2496937 51.4738483,92.1010184 51.7303678,91.7810432 C51.7688457,91.7357941 51.8393886,91.6226716 51.9355834,91.4643 C52.0285718,91.3059284 52.147212,91.0958437 52.2882978,90.843742 C52.5672628,90.3363065 52.9295966,89.647875 53.3560603,88.8140001 L53.6414382,88.9626755 C53.0001394,90.2167198 52.5031329,91.1410927 52.2113419,91.6291357 C52.1119406,91.7939714 52.0413977,91.907094 51.9836808,91.9814317 C51.659825,92.391905 51.1756444,92.5761331 50.6145079,92.572901 C49.8032649,92.569669 48.7964258,92.2141409 47.6324685,91.6000471 C46.4717176,90.9891853 45.1602616,90.1165256 43.7590237,89.0757981 C40.956548,86.991111 37.8045643,84.2147603 34.8417639,81.4416416 C30.5514749,77.4241749 26.6684107,73.4099402 24.8503286,71.4997851 L25.0555442,85.1003483 L24.9593494,85.1003483 L25.0330987,90.0066351 L24.0839765,99.7028541 C24.4687558,99.8289049 26.3670002,100.410678 29.8973501,101.024772 C29.9999579,101.044164 30.1057722,101.060325 30.214793,101.079717 C32.2541232,101.425549 34.8064924,101.777845 37.9007592,102.055803 C38.0065735,102.065499 38.1123878,102.075196 38.2214086,102.084892 C39.0069996,102.152765 39.8246556,102.220639 40.6807895,102.278816 C43.8616315,102.498597 46.4268267,102.485669 48.4789829,102.359618 C48.5880037,102.353154 48.693818,102.343458 48.7996323,102.336994 C53.2278005,102.026715 55.126045,101.163751 55.5204437,100.963363 L53.769698,88.3809024 C58.3036805,79.4442205 68.9524471,56.3801476 66.7239338,51.790604 C66.2814376,50.8791594 65.7844311,50.2133523 65.2457401,49.7511659 L65.2489466,49.7414697 L65.1270998,49.6574358 C65.0020465,49.5572415 64.8769932,49.4699755 64.7487335,49.3891737 L50.3451624,39.2243041 L49.8706013,39.3568191 L49.3800077,39.4957983 L37.7917384,52.2721828 Z M35.2425756,67.4144448 C34.7231236,67.4144448 34.3030729,66.9910433 34.3030729,66.4674474 C34.3030729,65.9438516 34.7231236,65.5204501 35.2425756,65.5204501 C35.7620277,65.5204501 36.1820784,65.9438516 36.1820784,66.4674474 C36.1820784,66.9910433 35.7620277,67.4144448 35.2425756,67.4144448 Z M36.640607,59.0239833 C36.121155,59.0239833 35.7011043,58.6005818 35.7011043,58.0769859 C35.7011043,57.5533901 36.121155,57.1299885 36.640607,57.1299885 C37.1600591,57.1299885 37.5801098,57.5533901 37.5801098,58.0769859 C37.5801098,58.6005818 37.1600591,59.0239833 36.640607,59.0239833 Z" id="Shape" fill="#A6D6F5" fill-rule="nonzero"></path>
                            <path d="M47.6132295,30.4880108 C45.468085,32.265651 42.521317,33.506767 39.321236,33.0898296 L38.0963553,32.844192 L38.1348332,36.1829235 C38.1348332,36.1829235 44.0315757,35.6173107 47.6132295,30.4880108 Z" id="Path" fill="#FFC4AA" fill-rule="nonzero"></path>
                            <path d="M72.7008386,47.5598204 C72.5501334,46.8390681 73.0503465,46.1441724 73.1529543,45.4783654 C73.287627,44.618634 73.1786062,43.7168856 72.9541517,42.9088674 C72.5341009,41.4188817 71.6266631,41.0019443 70.4627058,40.1680695 C69.276303,39.3212663 69.2217926,38.8429195 69.2217926,37.4369678 C69.2217926,36.1667631 69.6065719,35.0743224 69.5969524,33.7847253 C69.5841265,31.955372 68.9460341,30.9405011 67.5351768,29.8286679 C66.2269272,28.7944046 64.9571556,28.3483785 63.4308645,27.795694 C62.0745175,27.3044189 61.7057707,26.7226458 61.3113719,25.3877996 C61.1382212,24.7995624 60.7823004,24.2888948 60.3173588,23.8751895 C61.9270188,20.6172599 62.4400578,16.5577762 61.7218031,12.2332625 C59.8812756,1.14725216 46.279328,-1.00530846 42.1044728,0.368322568 C40.7481258,0.814348641 39.847101,1.29592752 39.2538996,1.75811396 C31.2055997,3.62625215 31.8725504,11.6611856 33.3443312,11.5383668 C33.3603637,11.4898858 33.3763961,11.4446367 33.3892221,11.3993877 C33.8669897,9.97081144 34.3575833,9.1498649 34.3575833,9.1498649 C35.9512108,6.5642065 37.6763046,5.57196009 38.8851528,5.25198487 C39.2186282,5.13563024 40.1901959,4.77363806 40.7096479,4.59910612 C40.8379077,4.61526649 40.9693739,4.63465892 41.1008402,4.65405136 C42.7329456,9.98373974 48.0717582,15.8984333 51.0024937,18.852548 C51.2493937,19.6314776 51.5091197,20.888754 51.1179275,22.0167475 C51.1179275,22.0167475 52.060167,21.5542 52.7078788,20.6912365 C52.8746165,20.846376 52.9680745,20.7465428 52.9680745,20.7465428 L52.9328031,20.843505 C53.0482369,20.8273446 53.1636706,20.8208805 53.2758979,20.8208805 C53.5067655,20.8725937 53.7248071,20.9081465 53.9332292,20.9340031 C54.0935539,20.9921804 54.2506721,21.0697501 54.3949643,21.1699444 C55.385771,21.8745363 55.5236502,23.3936106 54.7059943,24.563621 C53.8883383,25.7336315 52.419764,26.111784 51.4289574,25.4071921 C51.3391756,25.3425506 51.2590132,25.271445 51.1852638,25.1971073 L50.4734222,26.9715154 C50.277826,27.3755245 50.0341325,27.7827657 49.751961,28.1835428 L49.784026,31.2572442 C52.5672628,30.9017162 54.9176229,29.8803811 56.7870089,28.3580747 C60.1281756,28.9301516 60.1442081,33.0930617 59.910134,35.7045766 C59.7433963,37.5694828 59.7722548,39.6056888 60.5033354,41.3025271 C60.9362121,42.3044697 61.3883278,43.1642011 62.4721227,43.555282 C63.427658,43.9011138 64.4473231,43.7589026 64.9956335,44.8125584 C65.4220972,45.6335049 65.3226959,46.8552285 65.6689973,47.7505127 C66.1275259,48.9431476 67.1183326,49.3536209 68.1925081,49.7608621 C70.07472,50.4751502 73.3677894,50.1907278 74.8363636,48.5197461 C73.9609908,48.4971216 72.9028477,48.5294423 72.7008386,47.5598204 Z" id="Path" fill="#333333" fill-rule="nonzero"></path>
                        </g>
                    </g>
                </g>
            </g>
            <circle id="border" stroke="#EEEEEE" cx="28" cy="28" r="27.5"></circle>
        </g>
    </g>
</svg>