<svg width="36" height="36" viewBox="0 0 36 36" xmlns="http://www.w3.org/2000/svg" xmlns:xlink="http://www.w3.org/1999/xlink">
    <defs>
        <path id="zza3gezcnc" d="M329 146h670v412H329z"/>
        <path d="M8 0h654a8 8 0 0 1 8 8v95a8 8 0 0 1-8 8H8a8 8 0 0 1-8-8V8a8 8 0 0 1 8-8z" id="lqt0dv1vfe"/>
        <filter x="-1.3%" y="-1.3%" width="102.6%" height="103.3%" filterUnits="objectBoundingBox" id="ykdtx4prga">
            <feOffset dy="2" in="SourceAlpha" result="shadowOffsetOuter1"/>
            <feGaussianBlur stdDeviation="3" in="shadowOffsetOuter1" result="shadowBlurOuter1"/>
            <feColorMatrix values="0 0 0 0 0 0 0 0 0 0 0 0 0 0 0 0 0 0 0.1 0" in="shadowBlurOuter1"/>
        </filter>
        <circle id="jyhb9tkxqg" cx="18" cy="18" r="18"/>
        <rect id="ijw5tsf7db" x="0" y="0" width="760" height="600" rx="8"/>
    </defs>
    <g fill="none" fill-rule="evenodd">
        <path fill-opacity=".4" fill="#000" d="M-797-663h1920V337H-797z"/>
        <g transform="translate(-359 -463)">
            <g transform="translate(284)">
                <use fill="#000" filter="url(#ykdtx4prga)" xlink:href="#ijw5tsf7db"/>
                <use fill="#FFF" xlink:href="#ijw5tsf7db"/>
            </g>
            <mask id="s4jx7vmzdd" fill="#fff">
                <use xlink:href="#zza3gezcnc"/>
            </mask>
            <g mask="url(#s4jx7vmzdd)">
                <g transform="translate(329 408)">
                    <mask id="5vigo5b1zf" fill="#fff">
                        <use xlink:href="#lqt0dv1vfe"/>
                    </mask>
                    <path stroke="#CCC" d="M662 .5c2.071 0 3.946.84 5.303 2.197A7.477 7.477 0 0 1 669.5 8v95c0 2.071-.84 3.946-2.197 5.303A7.477 7.477 0 0 1 662 110.5H8a7.477 7.477 0 0 1-5.303-2.197A7.477 7.477 0 0 1 .5 103V8c0-2.071.84-3.946 2.197-5.303A7.477 7.477 0 0 1 8 .5z"/>
                    <g mask="url(#5vigo5b1zf)">
                        <g transform="translate(30 55)">
                            <mask id="lyhiiqeojh" fill="#fff">
                                <use xlink:href="#jyhb9tkxqg"/>
                            </mask>
                            <use fill="#D8D8D8" xlink:href="#jyhb9tkxqg"/>
                            <g mask="url(#lyhiiqeojh)">
                                <path fill="#BBCEF9" fill-rule="nonzero" d="M35.993 35.776h-36v-36h36z"/>
                                <path d="m13.141 15.574 8.575.29c1.002.802 1.502 1.272 1.502 1.407 0 .136-.294.881-.882 2.237l-1.098 4.238c-.978 1.367-1.535 2.05-1.672 2.05-.206 0-2.47.548-3.028.274-.557-.274-2.492-1.583-2.674-1.71-.182-.126-1.975-1.828-1.975-1.828s-.777-1.058-.62-1.42c.159-.36.62-2.456.62-2.656 0-.133.418-1.094 1.252-2.882z" fill="#F5D1C3"/>
                                <path d="m17.301 38.087 1.897-1.962 1.141-3.062c-.792-.778-1.815-.734-2.153-.692-.372 1.554-.808 5.064-.885 5.716z"/>
                                <path d="M17.35 38.046c-.082-.529-.575-3.607-1.088-5.244l-.033.012s-.48.064-1.341-.013c-.385.247-.8.56-1.165.945l2.62 5.364 1.006-1.064z"/>
                                <path d="M11.148 42.614c-.71.612-1.65 1.044-2.622 1.387-.971.34-1.98.583-2.826.793-1.868.467-3.371.99-4.933 1.83 1.427-.414 3.836-.952 7.702-1.417 2.55-.31 4.582-1.161 6.209-2.297 1.626-1.136 2.848-2.56 3.762-4.01 1.333-2.108 2.011-4.267 2.34-5.658a2.531 2.531 0 0 0-.337-.4l-1.16 3.11-1.925 1.994c-.008.069-.014.106-.014.106s-.004-.03-.014-.081l-1.01 1.046-2.656-5.298-.024.025c.282 1.391.407 2.798.193 4.166-.26 1.685-1.061 3.305-2.685 4.704z" fill="#F76D6D" fill-rule="nonzero"/>
                                <path d="M16.332 32.98a4.517 4.517 0 0 0-.23-.522 7.9 7.9 0 0 0-1.09.49c.828.082 1.288.039 1.288.039l.032-.008z" fill="#F0C4B3" fill-rule="nonzero"/>
                                <path d="M52.024 6.517c-1.167-.445-1.816-1.118-2.083-1.45-1.288 3.391-3.375 8.65-4.643 10.648-1.49 2.352-7.51 11.994-10.217 13.285l-11.68-3.428c.319 3.86-1.41 8.72-2.28 8.55a20.135 20.135 0 0 1-1.103 3.131c-.97 2.16-2.542 4.579-5.071 6.346-1.685 1.178-3.796 2.062-6.417 2.376-5.676.681-8.133 1.522-8.918 1.85v.138l-1.994.865-.004 1.835-7.654 3.311.13-4.648 7.53-3.186-.002 1.334 1.993-.851v.217c1.946-1.18 3.718-1.845 5.963-2.401.841-.209 1.824-.45 2.754-.771.929-.322 1.8-.734 2.414-1.264 1.515-1.309 2.227-2.768 2.476-4.32.175-1.11.108-2.275-.097-3.451-.054.081.142-.086.097 0-.558 1.029-2.411-3.04-2.195-6.344 0 0-12.327 4.473-16.958 12.466-3.621 6.248-8.239 14.191-10.954 20.447-2.716 6.258-3.932 18.147-3.932 18.147l.438-.024 2.797-.144.643-.034s2.595-9.56 5.648-14.984C-9.149 60.353-1 49.695-1 49.695l.71 11.354-3.729 16.767.084.004c.663.036 5.39.26 11.058-.022 5.732-.288 12.422-1.098 16.83-3.155.093-.043.19-.089.281-.135l2.257-14.103 7.973-27.552c9.457-5.762 14.86-12.08 16.664-15.763 1.26-2.573 2.42-7.443 3.049-10.374-.363.11-1.085.208-2.152-.199z" fill="#F76D6D" fill-rule="nonzero"/>
                                <path d="M17.511 38.027c.01.05.014.08.014.08s.003-.037.014-.105c.08-.652.508-4.166.882-5.718-.076.008-.122.018-.122.018.013-.006.026-.013.038-.017l-2.133.005c-.019.005-.047.018-.082.033.078.162.159.364.237.601.535 1.593 1.061 4.588 1.152 5.103z" fill="#F0C491" fill-rule="nonzero"/>
                                <path d="M21.203 33.947a2.759 2.759 0 0 0-.202-.34c-.328 1.376-1 3.51-2.321 5.59-.91 1.433-2.124 2.837-3.738 3.961-1.617 1.121-3.634 1.962-6.173 2.265-3.845.456-6.24.986-7.66 1.393 1.553-.828 3.048-1.344 4.905-1.804.841-.207 1.844-.447 2.81-.782s1.9-.761 2.607-1.368c1.614-1.381 2.408-2.985 2.67-4.65.213-1.352.088-2.743-.197-4.119-.174.18-.333.377-.471.587.207 1.173.276 2.333.1 3.442-.249 1.552-.958 3.004-2.479 4.308-.616.529-1.489.939-2.42 1.26-.932.322-1.917.559-2.761.766-2.251.556-4.03 1.215-5.978 2.39v.979c.79-.325 3.25-1.163 8.942-1.837 2.627-.312 4.743-1.19 6.432-2.365 2.535-1.761 4.11-4.176 5.08-6.326.525-1.164.875-2.25 1.103-3.123-.094-.015-.178-.089-.249-.227z" fill="#3D618D" fill-rule="nonzero"/>
                                <path d="M20.906 27.056c.005.236 0 .505-.025.792-.024.33-.07.681-.15 1.045-.295 1.359-1.048 2.834-2.845 3.538-.013.007-.027.013-.04.017 0 0 .048-.01.126-.018.36-.037 1.443-.073 2.29.714a2.753 2.753 0 0 1 .572.74c.073.138.162.212.26.23.92.178 2.765-4.458 2.391-8.3-.01-.09-.017-.18-.027-.271l-1.069.198a9.5 9.5 0 0 1-1.483 1.315zM13.285 34.855c.047-.084.1-.161.155-.241.145-.209.314-.4.494-.577l.025-.024c.383-.366.82-.663 1.224-.896a8.402 8.402 0 0 1 1.21-.575l.086-.032a.29.29 0 0 0 .03-.01c-2.323-.894-3.126-2.877-2.64-5.162a9.086 9.086 0 0 1-.263-.194l-2.74 1.23c-.187 3.269 1.838 7.493 2.419 6.481z" fill="#E6E6E6" fill-rule="nonzero"/>
                                <path d="M13.782 27.137c-.486 2.327.25 4.332 2.436 5.214l-.028.01 2.097-.014c1.722-.728 2.456-2.227 2.75-3.604-.579.06-2.917.251-4.417-.446 1.729.213 3.302-.435 4.581-1.405l-.014.792c.022-.29.03-.562.03-.8a9.968 9.968 0 0 0 1.432-1.343c1.096-1.243 1.782-2.607 1.887-3.42l.079-.33c.05.028.101.059.156.08.728.266 1.57-.203 1.88-1.05.311-.847-.028-1.748-.756-2.014a1.09 1.09 0 0 0-.13-.039l-.725 1.847.293-2.936c-1.338-3.157-1.288-5.943-1.288-5.943s-3.21.71-6.028.503c-2.286-.17-4.056-.602-5.255-.917-.221.588-.855 2.158-1.737 3.398l-.104.327-.691 4.031-.07-2.307a1.268 1.268 0 0 0-.273-.023c-.775.029-1.375.78-1.34 1.683.032.901.688 1.607 1.462 1.579.144-.007.278-.044.406-.093l-.008.458c-.05 1.674.941 4.773 3.124 6.574.087.06.167.126.25.188zm8.979-6.7a1.357 1.357 0 1 1-.643 2.637 1.355 1.355 0 0 1-1-1.64 1.359 1.359 0 0 1 1.643-.997zm-3.004-1.447a.54.54 0 0 1 .62-.45.54.54 0 1 1-.17 1.068.54.54 0 0 1-.45-.618zm1.13-2.568c1.036.242 1.062 1.052 1.062 1.052-.755-.98-2.19-.684-2.19-.684s.366-.547 1.129-.368zm-4.424 4.322c.086-.062.18-.213.254-.423.074-.21.133-.47.177-.749.119-.752.135-1.631.133-2.022 0-.13-.003-.204-.003-.204a.143.143 0 0 1 .287-.007c0 .003.029 1.239-.136 2.278a4.537 4.537 0 0 1-.19.802c-.069.19-.153.351-.265.473a1.818 1.818 0 0 0 .15.254c.126.177.308.354.53.4a.143.143 0 0 1 .11.173.143.143 0 0 1-.171.11c-.333-.074-.558-.31-.706-.517-.148-.207-.218-.396-.223-.402l-.036-.1.089-.066zm-1.238 2.53a.127.127 0 0 1 .182-.009l.005.004.021.018c.021.015.05.04.088.07a3.623 3.623 0 0 0 1.564.661c.646.101 1.428.03 2.286-.489a.128.128 0 0 1 .177.043.128.128 0 0 1-.043.177c-.907.551-1.763.634-2.46.52-1.095-.173-1.8-.808-1.81-.816a.122.122 0 0 1-.01-.179zm.027-4.404a.54.54 0 0 1-.62.449.54.54 0 1 1 .169-1.068.539.539 0 0 1 .45.619zm-1.101-2.887c.783-.047 1.05.556 1.05.556s-1.365-.536-2.277.3c.002.004.166-.791 1.227-.856zm-1.488 6.632a1.357 1.357 0 1 1 .642-2.637c.73.177 1.177.912 1 1.64a1.362 1.362 0 0 1-1.642.997z" fill="#F5D1C3" fill-rule="nonzero"/>
                                <path d="m10.9 15.327.105-.327c.883-1.246 1.518-2.816 1.74-3.405 1.202.316 2.97.748 5.259.918 2.82.21 6.033-.506 6.033-.506s-.048 2.792 1.288 5.955l-.294 2.942.726-1.85.386-.986c.86-1.004 2.018-4.072 1.304-6.127-.97-2.781-2.8-2.864-2.8-2.864l-.475-.116c-.413-.946-1.511-2.514-4.35-2.955-6.254-.976-4.224-2.693-4.224-2.693s-6.205 2.231-5.03 7.278c-.66.698-1.571 2.393-.49 6.064l.052.014.01.378.07 2.312.69-4.032z" fill="#471B00" fill-rule="nonzero"/>
                                <path d="M14.079 18.741a.49.49 0 1 0 .968.155.49.49 0 0 0-.968-.155zM20.612 19.222a.49.49 0 1 0-.968-.154.49.49 0 0 0 .968.154zM16.743 21.452c.154.21.389.45.734.524a.149.149 0 0 0 .178-.11c.018-.079-.036-.155-.115-.173-.231-.048-.42-.228-.553-.407a1.844 1.844 0 0 1-.146-.24l-.01-.017c.116-.122.203-.284.272-.475.086-.236.148-.514.195-.808.166-1.047.13-2.293.13-2.296a.149.149 0 0 0-.153-.142.145.145 0 0 0-.144.147s.003.077.004.206c.001.393-.01 1.28-.13 2.038-.044.28-.104.547-.18.755-.075.21-.172.363-.26.425l-.09.065.04.1c0 .009.074.196.228.408z" fill="#000" fill-rule="nonzero"/>
                                <path d="m21.271 27.682.012-.797c-1.315.971-2.938 1.616-4.718 1.395 1.55.705 3.96.525 4.556.467a8.5 8.5 0 0 0 .15-1.065z" fill="#F4B5A2" fill-rule="nonzero"/>
                                <path d="M15.385 16.599s-.292-.56-1.102-.531c-1.1.036-1.255.765-1.255.765.931-.753 2.357-.234 2.357-.234zM21.836 17.519s-.015-.905-1.056-1.157c-.768-.187-1.148.43-1.148.43s1.457-.352 2.204.727zM15.132 23.438c.01.007.705.573 1.772.742.679.108 1.51.049 2.381-.417a.104.104 0 0 0 .039-.154.135.135 0 0 0-.173-.04c-.823.441-1.583.49-2.212.391a3.891 3.891 0 0 1-1.617-.665l-.02-.015-.005-.004c-.053-.041-.133-.041-.177.005-.046.041-.04.113.012.157z" fill="#000" fill-rule="nonzero"/>
                                <path d="M21.062 21.447a1.472 1.472 0 1 0 2.86.697 1.472 1.472 0 0 0-2.86-.697zM13.252 19.978a1.472 1.472 0 1 0-.697 2.86 1.472 1.472 0 0 0 .697-2.86z" fill="#E6A99C" fill-rule="nonzero"/>
                            </g>
                            <circle stroke="#EEE" cx="18" cy="18" r="17.5"/>
                        </g>
                    </g>
                </g>
            </g>
        </g>
    </g>
</svg>
