<svg width="48" height="48" viewBox="0 0 48 48" xmlns="http://www.w3.org/2000/svg" xmlns:xlink="http://www.w3.org/1999/xlink">
    <defs>
        <filter x="-1.8%" y="-2.3%" width="103.6%" height="104.6%" filterUnits="objectBoundingBox" id="a">
            <feMorphology radius="1.5" operator="dilate" in="SourceAlpha" result="shadowSpreadOuter1"/>
            <feOffset in="shadowSpreadOuter1" result="shadowOffsetOuter1"/>
            <feGaussianBlur stdDeviation="4.5" in="shadowOffsetOuter1" result="shadowBlurOuter1"/>
            <feColorMatrix values="0 0 0 0 0.126983635 0 0 0 0 0.135497306 0 0 0 0 0.169100996 0 0 0 0.2 0" in="shadowBlurOuter1"/>
        </filter>
        <circle id="e" cx="24" cy="24" r="24"/>
        <rect id="b" x="0" y="0" width="1000" height="790" rx="8"/>
        <path id="c" d="M0 0h940v471H0z"/>
    </defs>
    <g fill="none" fill-rule="evenodd">
        <path fill-opacity=".4" fill="#000" d="M-991-225H929V775H-991z"/>
        <g transform="translate(-531 -120)">
            <use fill="#000" filter="url(#a)" xlink:href="#b"/>
            <use fill="#FFF" xlink:href="#b"/>
        </g>
        <g transform="translate(-501 -18)">
            <mask id="d" fill="#fff">
                <use xlink:href="#c"/>
            </mask>
            <use fill="#FFF" xlink:href="#c"/>
            <g mask="url(#d)">
                <path fill="#FFF" d="M471 0h499v507H471z"/>
                <path fill="#FFF" d="M500 0h470v84H500z"/>
                <g transform="translate(501 18)">
                    <mask id="f" fill="#fff">
                        <use xlink:href="#e"/>
                    </mask>
                    <use fill="#D8D8D8" xlink:href="#e"/>
                    <g mask="url(#f)">
                        <path fill="#BBCEF9" fill-rule="nonzero" d="M47.99 47.702h-48v-48h48z"/>
                        <path d="m17.522 20.765 11.433.386c1.335 1.071 2.003 1.697 2.003 1.877 0 .18-.392 1.175-1.176 2.983l-1.465 5.65c-1.303 1.823-2.046 2.734-2.23 2.734-.274 0-3.293.73-4.036.365-.744-.365-3.323-2.111-3.566-2.28-.243-.169-2.632-2.437-2.632-2.437s-1.037-1.411-.826-1.893c.21-.481.826-3.276.826-3.542 0-.177.556-1.458 1.669-3.843z" fill="#F5D1C3"/>
                        <path d="m23.068 50.783 2.53-2.616 1.521-4.083c-1.056-1.038-2.42-.978-2.87-.923-.497 2.072-1.078 6.753-1.18 7.622z"/>
                        <path d="M23.132 50.728c-.108-.705-.766-4.809-1.449-6.992l-.045.017s-.64.084-1.788-.019a8.499 8.499 0 0 0-1.553 1.26l3.493 7.153 1.342-1.42z"/>
                        <path d="M14.864 56.818c-.948.816-2.2 1.393-3.496 1.85-1.295.452-2.64.777-3.768 1.058-2.49.622-4.495 1.32-6.577 2.44 1.903-.552 5.114-1.27 10.27-1.89 3.4-.412 6.109-1.549 8.277-3.063 2.169-1.514 3.798-3.413 5.016-5.346 1.778-2.81 2.682-5.69 3.12-7.544a3.375 3.375 0 0 0-.45-.534l-1.545 4.147-2.567 2.658c-.011.092-.019.142-.019.142s-.005-.04-.018-.108l-1.347 1.395-3.541-7.065-.033.034c.377 1.855.543 3.731.258 5.555-.348 2.247-1.415 4.406-3.58 6.271z" fill="#F76D6D" fill-rule="nonzero"/>
                        <path d="M21.776 43.972a6.023 6.023 0 0 0-.308-.695c-.249.09-.816.306-1.453.654 1.105.109 1.718.051 1.718.051l.043-.01z" fill="#F0C4B3" fill-rule="nonzero"/>
                        <path d="M69.366 8.69c-1.556-.594-2.423-1.491-2.778-1.934-1.717 4.521-4.5 11.532-6.19 14.198-1.988 3.135-10.015 15.992-13.623 17.713l-15.574-4.571c.426 5.146-1.879 11.627-3.04 11.4a26.847 26.847 0 0 1-1.47 4.175c-1.294 2.879-3.39 6.105-6.762 8.461-2.246 1.57-5.061 2.749-8.555 3.168-7.568.908-10.845 2.03-11.892 2.466l.002.185-2.66 1.153-.005 2.446-10.206 4.416.174-6.198 10.04-4.248-.003 1.778 2.657-1.134v.29c2.595-1.573 4.958-2.46 7.95-3.202 1.123-.278 2.434-.6 3.672-1.028 1.24-.429 2.4-.978 3.22-1.686 2.02-1.745 2.969-3.69 3.3-5.76.235-1.48.145-3.033-.129-4.6-.07.107.19-.115.13 0-.743 1.371-3.215-4.055-2.927-8.459 0 0-16.436 5.964-22.61 16.62-4.829 8.332-10.985 18.922-14.606 27.263-3.62 8.345-5.243 24.196-5.243 24.196l.585-.03 3.729-.194.857-.045s3.46-12.747 7.531-19.978c2.861-5.081 13.726-19.29 13.726-19.29l.945 15.138-4.97 22.355.11.006c.886.048 7.188.348 14.745-.03 7.643-.383 16.563-1.463 22.439-4.206.125-.058.254-.118.376-.18l3.01-18.803 10.63-36.738c12.609-7.681 19.813-16.107 22.218-21.016 1.68-3.431 3.226-9.924 4.065-13.832-.483.147-1.447.276-2.868-.265z" fill="#F76D6D" fill-rule="nonzero"/>
                        <path d="M23.348 50.702c.013.067.019.107.019.107s.004-.05.018-.14c.106-.869.678-5.554 1.176-7.624-.1.011-.162.025-.162.025a.327.327 0 0 1 .05-.023l-2.843.006c-.025.008-.064.025-.11.044.104.216.212.486.316.802.713 2.123 1.415 6.117 1.536 6.803z" fill="#F0C491" fill-rule="nonzero"/>
                        <path d="M28.27 45.263a3.678 3.678 0 0 0-.268-.455c-.438 1.836-1.335 4.682-3.096 7.455-1.213 1.91-2.831 3.782-4.984 5.281-2.155 1.495-4.844 2.616-8.23 3.02-5.127.608-8.32 1.315-10.213 1.858 2.07-1.104 4.063-1.793 6.54-2.406 1.121-.276 2.459-.596 3.747-1.042 1.287-.447 2.533-1.016 3.475-1.825 2.152-1.842 3.211-3.98 3.56-6.2.285-1.802.117-3.657-.263-5.492-.232.24-.444.504-.627.782.275 1.565.367 3.111.133 4.59-.332 2.07-1.278 4.006-3.305 5.744-.821.705-1.985 1.252-3.227 1.68-1.243.43-2.557.745-3.682 1.021-3 .741-5.373 1.62-7.97 3.188l-.001 1.305c1.053-.434 4.335-1.55 11.923-2.45 3.504-.415 6.325-1.585 8.577-3.153 3.38-2.348 5.48-5.569 6.774-8.435a26.575 26.575 0 0 0 1.47-4.163c-.125-.02-.237-.119-.332-.303z" fill="#3D618D" fill-rule="nonzero"/>
                        <path d="M27.874 36.074c.008.315 0 .674-.032 1.056-.033.44-.095.909-.2 1.394-.394 1.812-1.398 3.779-3.794 4.718-.018.008-.036.017-.053.022 0 0 .063-.013.167-.023.481-.05 1.924-.098 3.055.951a3.67 3.67 0 0 1 .761.987c.098.184.216.283.347.307 1.227.237 3.686-5.945 3.189-11.067-.014-.12-.023-.241-.037-.362l-1.424.265a12.666 12.666 0 0 1-1.979 1.752zM17.713 46.474c.063-.113.133-.216.207-.322.193-.279.419-.533.658-.77l.034-.032a8.55 8.55 0 0 1 1.632-1.194 11.202 11.202 0 0 1 1.614-.767c.049-.019.088-.031.114-.043l.04-.012c-3.098-1.193-4.167-3.837-3.52-6.884a12.115 12.115 0 0 1-.35-.257l-3.654 1.64c-.249 4.357 2.45 9.99 3.225 8.64z" fill="#E6E6E6" fill-rule="nonzero"/>
                        <path d="M18.376 36.183c-.647 3.102.333 5.776 3.247 6.952l-.037.013 2.796-.019c2.297-.97 3.275-2.97 3.667-4.805-.771.08-3.889.335-5.888-.595 2.304.284 4.401-.58 6.108-1.873l-.02 1.057c.03-.388.041-.75.041-1.069.708-.54 1.35-1.152 1.91-1.789 1.46-1.658 2.374-3.476 2.515-4.56l.105-.441c.068.038.135.08.208.106.971.356 2.093-.27 2.505-1.4.417-1.128-.035-2.329-1.006-2.685a1.454 1.454 0 0 0-.174-.05l-.966 2.462.39-3.915c-1.783-4.21-1.716-7.924-1.716-7.924s-4.282.948-8.038.67c-3.049-.226-5.408-.801-7.007-1.221-.295.783-1.14 2.877-2.316 4.53l-.139.435-.921 5.376-.093-3.076a1.691 1.691 0 0 0-.364-.03c-1.033.037-1.834 1.04-1.787 2.242.043 1.202.917 2.144 1.95 2.105.192-.008.37-.057.54-.123l-.01.61c-.066 2.233 1.255 6.365 4.166 8.766.115.08.222.167.334.251zm11.971-8.933a1.81 1.81 0 1 1-.856 3.515 1.807 1.807 0 0 1-1.334-2.186 1.812 1.812 0 0 1 2.19-1.33zm-4.004-1.93a.72.72 0 0 1 .826-.599.72.72 0 1 1-.225 1.423.72.72 0 0 1-.6-.824zm1.507-3.424c1.38.323 1.416 1.403 1.416 1.403-1.007-1.308-2.921-.912-2.921-.912s.489-.73 1.505-.491zm-5.9 5.762c.115-.083.24-.284.339-.563.099-.28.177-.628.236-.999.159-1.003.181-2.175.178-2.695 0-.175-.004-.273-.004-.273a.191.191 0 0 1 .383-.009c0 .004.038 1.651-.181 3.037a6.05 6.05 0 0 1-.255 1.069c-.091.253-.203.468-.353.63a2.423 2.423 0 0 0 .2.338c.168.237.41.474.708.536a.19.19 0 0 1 .146.23.19.19 0 0 1-.229.145c-.443-.097-.744-.413-.941-.688-.198-.276-.29-.527-.296-.536l-.05-.132.12-.09zm-1.65 3.374a.17.17 0 0 1 .243-.012l.007.005.027.024c.028.02.066.053.118.092a4.831 4.831 0 0 0 2.085.881c.862.137 1.904.042 3.048-.65a.171.171 0 0 1 .236.057.17.17 0 0 1-.057.236c-1.21.735-2.35.846-3.28.695-1.46-.232-2.4-1.079-2.414-1.089a.163.163 0 0 1-.013-.239zm.035-5.872a.72.72 0 0 1-.826.598.72.72 0 1 1 .226-1.423c.395.059.663.431.6.825zm-1.467-3.85c1.045-.063 1.4.743 1.4.743s-1.82-.716-3.036.4c.003.004.222-1.056 1.636-1.142zm-1.984 8.844a1.809 1.809 0 1 1 .856-3.516 1.81 1.81 0 0 1 1.334 2.186 1.816 1.816 0 0 1-2.19 1.33z" fill="#F5D1C3" fill-rule="nonzero"/>
                        <path d="m14.534 20.436.14-.436c1.177-1.66 2.023-3.755 2.318-4.54 1.604.421 3.962.997 7.013 1.223 3.76.28 8.045-.673 8.045-.673s-.064 3.722 1.717 7.94l-.392 3.922.967-2.467.516-1.314c1.146-1.339 2.69-5.43 1.738-8.17-1.294-3.708-3.733-3.818-3.733-3.818l-.633-.155c-.552-1.262-2.015-3.352-5.8-3.94-8.34-1.301-5.633-3.59-5.633-3.59s-8.273 2.974-6.707 9.704c-.88.93-2.094 3.19-.654 8.085l.071.019.014.503.092 3.083.921-5.376z" fill="#471B00" fill-rule="nonzero"/>
                        <path d="M18.772 24.989a.654.654 0 1 0 1.29.206.654.654 0 0 0-1.29-.206zM27.483 25.63a.654.654 0 1 0-1.291-.206.654.654 0 0 0 1.29.206zM22.324 28.603c.206.28.518.598.978.699a.198.198 0 0 0 .237-.147c.025-.105-.047-.207-.153-.231-.308-.064-.56-.304-.736-.543a2.458 2.458 0 0 1-.196-.32l-.012-.022c.154-.163.27-.38.362-.634.115-.315.197-.685.26-1.077.22-1.396.173-3.058.174-3.062a.198.198 0 0 0-.204-.188.193.193 0 0 0-.193.196s.004.102.005.274c.002.525-.012 1.707-.172 2.718-.06.374-.14.728-.24 1.006-.1.28-.23.483-.348.566l-.118.087.051.133c.002.012.1.263.305.545z" fill="#000" fill-rule="nonzero"/>
                        <path d="m28.362 36.91.016-1.063c-1.754 1.295-3.917 2.154-6.291 1.86 2.067.94 5.28.7 6.074.623.103-.495.167-.977.201-1.42z" fill="#F4B5A2" fill-rule="nonzero"/>
                        <path d="M20.513 22.132s-.388-.747-1.469-.709c-1.466.049-1.673 1.02-1.673 1.02 1.241-1.003 3.142-.311 3.142-.311zM29.115 23.358s-.02-1.206-1.408-1.542c-1.024-.25-1.531.573-1.531.573s1.942-.47 2.94.97zM20.176 31.25c.014.01.94.765 2.362.99.906.144 2.013.065 3.176-.556a.138.138 0 0 0 .05-.205.18.18 0 0 0-.23-.053c-1.096.587-2.11.653-2.949.52a5.188 5.188 0 0 1-2.04-.803 2.418 2.418 0 0 1-.115-.082l-.027-.022-.007-.004c-.07-.055-.177-.055-.236.007-.061.054-.054.15.016.209z" fill="#000" fill-rule="nonzero"/>
                        <path d="M28.083 28.596a1.963 1.963 0 1 0 3.816.929 1.963 1.963 0 1 0-3.816-.929zM17.67 26.637a1.963 1.963 0 1 0-.93 3.816 1.963 1.963 0 1 0 .93-3.816z" fill="#E6A99C" fill-rule="nonzero"/>
                    </g>
                    <circle stroke="#EEE" cx="24" cy="24" r="23.5"/>
                </g>
            </g>
        </g>
    </g>
</svg>
