<?xml version="1.0" encoding="UTF-8"?>
<svg width="52px" height="52px" viewBox="0 0 52 52" version="1.1" xmlns="http://www.w3.org/2000/svg" xmlns:xlink="http://www.w3.org/1999/xlink">
    <title>50F24B94-4BD2-4D16-89C4-70BF3496BE2B</title>
    <defs>
        <linearGradient x1="50%" y1="0%" x2="50%" y2="100%" id="linearGradient-1">
            <stop stop-color="#08D9D0" offset="0%"></stop>
            <stop stop-color="#44F3AC" offset="100%"></stop>
        </linearGradient>
        <linearGradient x1="50%" y1="0%" x2="50%" y2="100%" id="linearGradient-2">
            <stop stop-color="#44F3AC" offset="0%"></stop>
            <stop stop-color="#08D9D0" offset="100%"></stop>
        </linearGradient>
        <path d="M10.92,10.92 L0,0 L10.92,10.92 Z" id="path-3"></path>
        <path d="M0,1.04051798 C0,1.61506126 0.46602112,2.08 1.04,2.08 L1.04,2.08 C1.61522216,2.08 2.08,1.61506126 2.08,1.04051798 L2.08,1.04051798 C2.08,0.465767507 1.61522216,0 1.04,0 L1.04,0 C0.46602112,0 0,0.465767507 0,1.04051798" id="path-5"></path>
    </defs>
    <g id="학습현황" stroke="none" stroke-width="1" fill="none" fill-rule="evenodd">
        <g id="나의-학습현황&gt;Foundation-Skills" transform="translate(-20.000000, -188.000000)">
            <g id="List_Header" transform="translate(0.000000, 140.000000)">
                <g id="Total" transform="translate(20.000000, 9.000000)">
                    <g id="icon_52px_fs_01" transform="translate(0.000000, 39.000000)">
                        <circle id="Oval" fill="#EEEEEE" cx="26" cy="26" r="26"></circle>
                        <path d="M23.7738932,15.6 L13.2023896,26.2128192 L15.5593039,28.2850884 L13.7167394,30.7105009 C13.8325998,32.6681015 14.6567986,33.4766079 16.1893357,33.1360201 C16.4095463,35.1604837 17.3012123,36.0024883 18.8643337,35.662034 C18.3677116,37.8200074 19.1492723,38.6618623 21.2090159,38.1875988 C21.6742824,40.3457086 22.5890964,41.1876168 23.9534579,40.7133237 C25.3178193,40.2390305 26,39.6342599 26,38.8990118 L28.4678418,40.7133237 C29.8904177,40.9357679 30.7952889,40.587162 31.1824554,39.6675062 C31.5696218,38.7478503 33.9058822,36.3335283 38.1912366,32.4245403 C38.7923166,30.976278 38.4168316,29.8335851 37.0647814,28.9964615 L39.8284115,25.9815129 L29.12,15.6 L26.26,18.1153392 L23.7738932,15.6 Z" id="Path-8" fill="#FFFFFF"></path>
                        <g id="Group-76" transform="translate(8.100034, 10.459086)">
                            <line x1="21.0199658" y1="4.62091357" x2="18.4199658" y2="7.22091357" id="Fill-1" fill="#FFFFFF"></line>
                            <g id="Group-52" transform="translate(4.379966, 4.620914)">
                                <path d="M13.9050478,3.67562077 C13.7201195,3.67562077 13.5353719,3.60608102 13.394328,3.46735721 C13.1120595,3.18955388 13.1120595,2.7390572 13.3941474,2.46125387 L15.5755424,0.312991153 C15.8574496,0.0350099773 16.3148942,0.0351878283 16.5969821,0.312813302 C16.8792505,0.590616627 16.8792505,1.04111331 16.5969821,1.31891664 L14.4157677,3.46717935 C14.2747237,3.60608102 14.0899761,3.67562077 13.9050478,3.67562077" id="Fill-2" fill="#515151"></path>
                                <line x1="24.5847814" y1="13.6245902" x2="26.8376917" y2="11.4048314" id="Fill-4" fill="#FFFFFF"></line>
                                <path d="M24.5847814,14.3359943 C24.4000338,14.3359943 24.2151055,14.2666324 24.0740616,14.1277308 C23.7917932,13.8501053 23.7917932,13.3996086 24.073881,13.1216274 L26.3267912,10.9018686 C26.6086985,10.6240653 27.0659625,10.6237096 27.3484115,10.9015129 C27.6304994,11.1793162 27.6304994,11.6298129 27.3485921,11.9076162 L25.0956819,14.1275529 C24.954638,14.2664546 24.7697097,14.3359943 24.5847814,14.3359943" id="Fill-6" fill="#515151"></path>
                                <path d="M16.4580511,26.52 C15.652963,26.52 14.8478749,26.2183646 14.2347583,25.6149161 L12.8673005,24.2685837 C12.585032,23.9909582 12.585032,23.5404615 12.8669393,23.2626582 C13.1488465,22.984677 13.6064717,22.9844992 13.8885596,23.2623025 L15.2563786,24.6086349 C15.9191586,25.2609925 16.9973048,25.2608146 17.6597236,24.6086349 L24.9869643,17.3925068 C25.6486607,16.7401491 25.6488413,15.6785563 24.9867837,15.0261987 L15.9942857,6.16992826 C15.7120173,5.89212493 15.7120173,5.44162825 15.9942857,5.16382492 C16.2760124,4.8860216 16.733457,4.8860216 17.0157254,5.16382492 L26.008404,14.0200953 C27.2333732,15.2271703 27.2333732,17.1911794 26.0087652,18.3984322 L18.6813439,25.6147382 C18.0684079,26.2181868 17.2633198,26.52 16.4580511,26.52" id="Fill-10" fill="#515151"></path>
                                <line x1="0.72238958" y1="11.3011442" x2="3.13602849" y2="13.6777676" id="Fill-12" fill="#FFFFFF"></line>
                                <path d="M3.13608267,14.3891362 C2.9511544,14.3891362 2.76640673,14.3197743 2.62536281,14.1808727 L0.211723905,11.8042492 C-0.0705445287,11.5264459 -0.0705445287,11.0759492 0.211543311,10.7981459 C0.49363115,10.5203426 0.950895177,10.5201647 1.23316361,10.7981459 L3.64680252,13.1745915 C3.92907095,13.4523948 3.92907095,13.9028915 3.64698311,14.1806948 C3.50593919,14.3195965 3.32101093,14.3891362 3.13608267,14.3891362" id="Fill-14" fill="#515151"></path>
                                <line x1="13.8332797" y1="3.03533924" x2="11.4734579" y2="0.711359699" id="Fill-16" fill="#FFFFFF"></line>
                                <path d="M13.8332797,3.7467434 C13.6483515,3.7467434 13.4636038,3.67720365 13.3223793,3.53847984 L10.9625574,1.21450029 C10.6804696,0.936696967 10.6804696,0.486200282 10.9625574,0.208219106 C11.2446452,-0.0694063685 11.7020899,-0.0694063685 11.9841777,0.208219106 L14.3441802,2.53219865 C14.626268,2.81000198 14.626268,3.26049866 14.3441802,3.53847984 C14.2029557,3.67720365 14.018208,3.7467434 13.8332797,3.7467434" id="Fill-18" fill="#515151"></path>
                                <path d="M10.3636354,11.66051 L10.3629131,11.66051 C9.66798732,11.6603322 9.0145982,11.3937334 8.52320191,10.9096229 C8.03198621,10.4260459 7.76127579,9.78275872 7.76127579,9.09838792 C7.76127579,8.41401712 8.03180561,7.77055205 8.52320191,7.28679722 L13.4089922,2.47521518 C13.6914412,2.19741185 14.1487052,2.1975897 14.4306125,2.47521518 C14.7128809,2.75319635 14.7128809,3.20351519 14.4306125,3.48131851 L9.54482221,8.29290056 C9.32630346,8.50792247 9.20602785,8.79408479 9.20602785,9.09838792 C9.20602785,9.40269105 9.32630346,9.68849767 9.54464161,9.90351958 C9.76352155,10.119075 10.0542779,10.2375238 10.3632743,10.2377017 L10.3634548,10.2377017 C10.6724512,10.2377017 10.9628464,10.1192529 11.1811845,9.90405313 L15.9938342,5.16432291 C16.2757415,4.88634173 16.7331861,4.88651958 17.0154545,5.16414506 C17.2975424,5.44194838 17.2975424,5.89244507 17.0154545,6.17024839 L12.2028048,10.9099786 C11.7117697,11.3939113 11.0585612,11.66051 10.3636354,11.66051" id="Fill-22" fill="#515151"></path>
                                <path d="M5.63564821,13.7255918 C4.9306092,13.0319727 3.78781032,13.0312613 3.08277132,13.7254139 L1.76551863,15.021948 C1.06047962,15.7155671 1.06047962,16.8417199 1.76551863,17.5355168 C2.47073823,18.2291358 3.61335651,18.2298472 4.31767314,17.5356946 L5.63564821,16.2388048 C6.34068721,15.5448301 6.33996483,14.4192108 5.63564821,13.7255918" id="Fill-24" fill="#FFFFFF"></path>
                                <path d="M4.35879439,13.9164615 C4.06966339,13.9164615 3.79786941,14.0272627 3.59343699,14.2284123 L2.2761843,15.5251242 C2.07175188,15.7262737 1.95906122,15.9937617 1.95906122,16.2785012 C1.95906122,16.5634186 2.07175188,16.8310844 2.2761843,17.0322339 C2.48097791,17.2335613 2.75295248,17.3445403 3.04244467,17.3445403 L3.04244467,17.3445403 C3.33139509,17.3445403 3.60264729,17.233917 3.80671851,17.0329453 L5.12505477,15.7356998 C5.32930659,15.5345503 5.44181666,15.2668845 5.44181666,14.9823228 C5.44181666,14.6975833 5.32930659,14.4299175 5.12487417,14.2285901 C4.92026116,14.0274406 4.64810599,13.9164615 4.35879439,13.9164615 M3.04244467,18.7673487 L3.04226408,18.7673487 C2.36738427,18.7673487 1.73259634,18.5085754 1.25510578,18.0388708 C0.777254039,17.5688105 0.514309164,16.9436641 0.514309164,16.2785012 C0.514309164,15.6133383 0.777434633,14.9883697 1.25510578,14.5184873 L2.57217788,13.2221311 C3.04930725,12.7524265 3.68391459,12.4936532 4.35879439,12.4936532 C5.03385479,12.4936532 5.66864273,12.7524265 6.14613329,13.2223089 C6.62362384,13.6923692 6.88656872,14.3173378 6.88656872,14.9819671 C6.88656872,15.6469522 6.62380444,16.2720986 6.14631388,16.741981 L4.82833881,18.0390486 C4.35175123,18.5085754 3.71732448,18.7673487 3.04244467,18.7673487" id="Fill-26" fill="#515151"></path>
                                <path d="M8.20064295,16.2513611 C7.49578454,15.5577421 6.35298566,15.5570307 5.64776606,16.2510054 L4.33051337,17.5471838 C3.62547437,18.2415143 3.62547437,19.3674892 4.33051337,20.0611083 C5.03573297,20.7556166 6.17835126,20.7556166 6.8823067,20.061464 L8.20064295,18.7649299 C8.90514018,18.071133 8.90514018,16.9449802 8.20064295,16.2513611" id="Fill-28" fill="#FFFFFF"></path>
                                <path d="M6.92378914,16.4421597 C6.63465814,16.4421597 6.36286415,16.5529609 6.15843174,16.7541104 L4.84117905,18.0502888 C4.63674663,18.2516162 4.52405597,18.5194599 4.52405597,18.8043772 C4.52405597,19.0891168 4.63674663,19.3567826 4.84117905,19.5579321 C5.04597265,19.7596152 5.31794723,19.8705942 5.60707823,19.8705942 C5.89584805,19.8705942 6.16728084,19.759793 6.37117148,19.5586435 L7.69023011,18.2615759 C7.89412074,18.060782 8.00663081,17.7929384 8.00663081,17.508021 C8.00663081,17.2232815 7.89430134,16.9556157 7.68986892,16.7544662 C7.48525591,16.5531388 7.21328134,16.4421597 6.92378914,16.4421597 M5.60707823,21.2934026 C4.93201783,21.2934026 4.2972299,21.0344514 3.81973934,20.5642133 C3.34242938,20.0946865 3.07930391,19.4695401 3.07930391,18.8043772 C3.07930391,18.1395701 3.34242938,17.5142458 3.81973934,17.0440076 L5.13717263,15.7478293 C5.61448259,15.2781247 6.24890934,15.0193514 6.92378914,15.0193514 C7.59884954,15.0193514 8.23363748,15.2783025 8.71130863,15.748185 C9.18861859,16.2180674 9.45138287,16.843036 9.45138287,17.508021 C9.45138287,18.173006 9.18861859,18.7979746 8.71148922,19.2680349 L7.39279178,20.5649247 C6.91656538,21.0344514 6.28195804,21.2934026 5.60707823,21.2934026" id="Fill-30" fill="#515151"></path>
                                <path d="M10.765114,18.7770593 C10.0602556,18.0834403 8.91745669,18.0827289 8.21241768,18.7768815 L6.89552618,20.0734156 C6.19048717,20.7672125 6.19048717,21.8930095 6.89552618,22.5866286 C7.6000234,23.2811369 8.74336406,23.2811369 9.44768069,22.58734 L10.765114,21.2904502 C11.470153,20.5968312 11.470153,19.4712119 10.765114,18.7770593" id="Fill-32" fill="#FFFFFF"></path>
                                <path d="M9.48835046,18.9679468 C9.19921946,18.9679468 8.92760607,19.078748 8.72317365,19.2798976 L7.40628215,20.5764317 C7.20166914,20.777759 7.08915907,21.0454248 7.08915907,21.3299865 C7.08915907,21.614726 7.20166914,21.8823918 7.40610156,22.0835414 C7.61089516,22.2852244 7.88268914,22.3962035 8.17200074,22.3962035 L8.17200074,22.3962035 C8.46113175,22.3962035 8.73256454,22.2854023 8.93681636,22.0842528 L10.2544302,20.7871851 C10.4590433,20.5860356 10.5715533,20.3185476 10.5715533,20.033986 C10.5715533,19.7492465 10.4590433,19.4815806 10.2544302,19.2802533 C10.0498172,19.0789259 9.77784266,18.9679468 9.48835046,18.9679468 M8.17200074,23.8190118 L8.17200074,23.8190118 C7.49639856,23.818834 6.86161062,23.5598829 6.38448126,23.0894669 C5.90735189,22.620118 5.64440701,21.9949716 5.64440701,21.3299865 C5.64440701,20.6650015 5.90735189,20.0400329 6.38502304,19.5701505 L7.70173395,18.2737942 C8.17886331,17.8039118 8.81347066,17.5451385 9.48835046,17.5451385 C10.1634109,17.5451385 10.7981988,17.8039118 11.2756894,18.2737942 C11.7533605,18.7440324 12.0163054,19.3690009 12.0163054,20.033986 C12.0163054,20.698971 11.7533605,21.3239396 11.2755088,21.793822 L9.95843666,23.090534 C9.48148789,23.5602386 8.84706114,23.8190118 8.17200074,23.8190118" id="Fill-34" fill="#515151"></path>
                                <path d="M13.3302893,21.3031844 C12.6252503,20.609921 11.4824514,20.6088539 10.7777736,21.3030065 L9.45979855,22.5997184 C8.75494014,23.2935154 8.75548192,24.4187789 9.45979855,25.1123979 C10.1650181,25.8067284 11.3076364,25.8070841 12.0124948,25.1127536 L13.3302893,23.8162196 C14.0351477,23.1226005 14.0351477,21.9969813 13.3302893,21.3031844" id="Fill-36" fill="#FFFFFF"></path>
                                <path d="M12.0532549,21.4941608 C11.7643045,21.4941608 11.4926911,21.6047842 11.2886199,21.8059337 L9.97046423,23.1030013 C9.7662124,23.303973 9.65370234,23.571461 9.65370234,23.8560226 C9.65370234,24.1405843 9.766393,24.4080723 9.97064482,24.6093996 C10.1752578,24.8109049 10.4472324,24.9218839 10.7367246,24.9218839 L10.7367246,24.9218839 C11.025675,24.9218839 11.2972884,24.8109049 11.5017208,24.6097553 L12.8196959,23.3128655 C13.0241283,23.1118939 13.1366384,22.8444059 13.1366384,22.5596664 C13.1366384,22.2751047 13.0241283,22.0076168 12.8196959,21.8062894 C12.6149023,21.6051399 12.3427471,21.4941608 12.0532549,21.4941608 M10.7367246,26.3446922 L10.736544,26.3446922 C10.061303,26.3446922 9.42669567,26.0855633 8.94902452,25.615503 C8.47189515,25.1456205 8.20913087,24.5208298 8.20895028,23.8562005 C8.20895028,23.1912154 8.47189515,22.5664247 8.94938571,22.0965423 L10.2671802,20.7996525 C10.7437678,20.3301257 11.3783751,20.0713525 12.0532549,20.0713525 C12.7281347,20.0713525 13.3631032,20.3299479 13.8407744,20.7998303 C14.3184455,21.2698906 14.5813904,21.8948592 14.5813904,22.5596664 C14.5813904,23.2246514 14.3184455,23.84962 13.8407744,24.3195024 L12.5231605,25.6160365 C12.0460312,26.0857411 11.4116044,26.3446922 10.7367246,26.3446922" id="Fill-38" fill="#515151"></path>
                                <line x1="20.0055676" y1="14.540772" x2="24.4546815" y2="18.9230217" id="Fill-40" fill="#FFFFFF"></line>
                                <path d="M24.4546273,19.6344436 C24.2698797,19.6344436 24.0847708,19.5649039 23.9437269,19.4260022 L19.4946129,15.0437526 C19.2127057,14.7659492 19.2127057,14.3154526 19.4947935,14.0376492 C19.777062,13.7600238 20.234326,13.7598459 20.5164138,14.0378271 L24.9655278,18.4200767 C25.2476156,18.69788 25.2476156,19.1483767 24.9653472,19.42618 C24.8243033,19.5649039 24.639375,19.6344436 24.4546273,19.6344436" id="Fill-42" fill="#515151"></path>
                                <line x1="17.3848415" y1="17.1216041" x2="21.8343167" y2="21.5040315" id="Fill-44" fill="#FFFFFF"></line>
                                <path d="M21.8342625,22.2154535 C21.6495148,22.2154535 21.4644059,22.1459137 21.323362,22.0070121 L16.8738869,17.6245846 C16.5919796,17.3467813 16.5919796,16.8962846 16.8740675,16.6184812 C17.1563359,16.3408558 17.6135999,16.3406779 17.8956878,16.6186591 L22.3451629,21.0010866 C22.6272508,21.2788899 22.6272508,21.7293866 22.3449823,22.0071899 C22.2039384,22.1459137 22.0190101,22.2154535 21.8342625,22.2154535" id="Fill-46" fill="#515151"></path>
                                <line x1="14.7639348" y1="19.7028807" x2="19.2132294" y2="24.0844189" id="Fill-48" fill="#FFFFFF"></line>
                                <path d="M19.2131752,24.7957697 C19.0284276,24.7957697 18.8434993,24.72623 18.7024554,24.5875062 L14.2531608,20.2059679 C13.971073,19.9281646 13.971073,19.4776679 14.2531608,19.1998646 C14.5352487,18.9220613 14.9925127,18.9220613 15.2746005,19.1998646 L19.7238951,23.581225 C20.0061635,23.8590283 20.0061635,24.309525 19.7238951,24.5873283 C19.5830318,24.72623 19.3979229,24.7957697 19.2131752,24.7957697" id="Fill-50" fill="#515151"></path>
                            </g>
                            <path d="M34.327468,6.54038662 C34.9101285,6.54038662 35.4376285,6.77655642 35.8194634,7.15839131 C36.2012983,7.54022621 36.437468,8.06772621 36.437468,8.65038662 C36.437468,9.23304703 36.2012983,9.76054703 35.8194634,10.1423819 C35.4376285,10.5242168 34.9101285,10.7603866 34.327468,10.7603866 L21.327468,10.7603866 C20.7448076,10.7603866 20.2173076,10.5242168 19.8354727,10.1423819 C19.4536378,9.76054703 19.217468,9.23304703 19.217468,8.65038662 C19.217468,8.06772621 19.4536378,7.54022621 19.8354727,7.15839131 C20.2173076,6.77655642 20.7448076,6.54038662 21.327468,6.54038662 Z" id="Rectangle" stroke="#515151" stroke-width="1.5" fill="url(#linearGradient-1)" transform="translate(27.827468, 8.650387) rotate(44.000000) translate(-27.827468, -8.650387) "></path>
                            <path d="M15.1408449,6.53084487 C15.7235053,6.53084487 16.2510053,6.76701466 16.6328402,7.14884956 C17.0146751,7.53068446 17.2508449,8.05818446 17.2508449,8.64084487 C17.2508449,9.22350528 17.0146751,9.75100528 16.6328402,10.1328402 C16.2510053,10.5146751 15.7235053,10.7508449 15.1408449,10.7508449 L2.14084487,10.7508449 C1.55818446,10.7508449 1.03068446,10.5146751 0.648849558,10.1328402 C0.267014661,9.75100528 0.0308448661,9.22350528 0.0308448661,8.64084487 C0.0308448661,8.05818446 0.267014661,7.53068446 0.648849558,7.14884956 C1.03068446,6.76701466 1.55818446,6.53084487 2.14084487,6.53084487 Z" id="Rectangle-Copy-4" stroke="#515151" stroke-width="1.5" fill="url(#linearGradient-2)" transform="translate(8.640845, 8.640845) rotate(-225.000000) translate(-8.640845, -8.640845) "></path>
                            <g id="Group-60" transform="translate(21.019966, 5.140914)">
                                <mask id="mask-4" fill="white">
                                    <use xlink:href="#path-3"></use>
                                </mask>
                                <g id="Clip-59"></g>
                                <path d="M10.92,10.92 L0,0 L10.92,10.92 Z" id="Fill-58" mask="url(#mask-4)"></path>
                            </g>
                            <g id="Group-72" transform="translate(5.330002, 5.005906)" fill="#FFFFFF">
                                <line x1="10.8685949" y1="0" x2="0" y2="10.7478268" id="Fill-68"></line>
                            </g>
                            <g id="Group-75" transform="translate(4.379966, 10.340914)">
                                <mask id="mask-6" fill="white">
                                    <use xlink:href="#path-5"></use>
                                </mask>
                                <g id="Clip-74"></g>
                                <path d="M0,1.04051798 C0,1.61506126 0.46602112,2.08 1.04,2.08 L1.04,2.08 C1.61522216,2.08 2.08,1.61506126 2.08,1.04051798 L2.08,1.04051798 C2.08,0.465767507 1.61522216,0 1.04,0 L1.04,0 C0.46602112,0 0,0.465767507 0,1.04051798" id="Fill-73" mask="url(#mask-6)"></path>
                            </g>
                        </g>
                    </g>
                </g>
            </g>
        </g>
    </g>
</svg>