<?xml version="1.0" encoding="UTF-8"?>
<svg width="52px" height="52px" viewBox="0 0 52 52" version="1.1" xmlns="http://www.w3.org/2000/svg" xmlns:xlink="http://www.w3.org/1999/xlink">
    <title>CFB0E691-2146-4933-9A47-5BEECF5DB573</title>
    <defs>
        <path d="M0,1.03992949 C0,1.61433046 0.465560076,2.08 1.04,2.08 L1.04,2.08 C1.61443992,2.08 2.08,1.61433046 2.08,1.03992949 L2.08,1.03992949 C2.08,0.465669537 1.61443992,0 1.04,0 L1.04,0 C0.465560076,0 0,0.465669537 0,1.03992949" id="path-1"></path>
        <path d="M0,1.03985896 C0,1.61443992 0.465560076,2.08 1.04,2.08 L1.04,2.08 C1.61429889,2.08 2.08,1.61443992 2.08,1.03985896 L2.08,1.03985896 C2.08,0.465560076 1.61429889,0 1.04,0 L1.04,0 C0.465560076,0 0,0.465560076 0,1.03985896" id="path-3"></path>
        <path d="M0,5.38803369 C0,6.32638978 0.243493105,7.2085623 0.670639085,7.97715945 L0.670639085,7.97715945 L0.670332997,7.97715945 C0.670332997,7.97715945 0.67308779,7.9807842 0.674465187,7.98365379 L0.674465187,7.98365379 C0.754507232,8.12698228 0.840671039,8.26713912 0.93372183,8.402614 L0.93372183,8.402614 C1.5518668,9.41225675 3.04909687,11.9157479 3.0405264,12.48 L3.0405264,12.48 L5.45969391,12.48 L5.46015304,12.48 L7.87962664,12.48 C7.870444,11.9166541 9.36568449,9.4158815 9.98490077,8.40487947 L9.98490077,8.40487947 C10.079482,8.26713912 10.1673293,8.12411269 10.2492079,7.97761255 L10.2492079,7.97761255 L10.2492079,7.97715945 C10.6766599,7.2085623 10.92,6.32638978 10.92,5.38803369 L10.92,5.38803369 C10.92,2.41226837 8.47573327,0 5.46015304,0 L5.46015304,0 C2.44472587,0 0,2.41226837 0,5.38803369" id="path-5"></path>
        <polygon id="path-7" points="0 0 11.96 0 11.96 13.7000492 0 13.7000492"></polygon>
        <linearGradient x1="50%" y1="0%" x2="50%" y2="100%" id="linearGradient-9">
            <stop stop-color="#08D9D0" offset="0%"></stop>
            <stop stop-color="#3DF0B0" offset="100%"></stop>
        </linearGradient>
    </defs>
    <g id="학습현황" stroke="none" stroke-width="1" fill="none" fill-rule="evenodd">
        <g id="나의-학습현황&gt;Foundation-Skills" transform="translate(-20.000000, -979.000000)">
            <g id="List_Header" transform="translate(0.000000, 140.000000)">
                <g id="Total" transform="translate(20.000000, 9.000000)">
                    <g id="icon_52px_fs_04" transform="translate(0.000000, 830.000000)">
                        <circle id="Oval" fill="#EEEEEE" cx="26" cy="26" r="26"></circle>
                        <g id="Group-54" transform="translate(16.120000, 9.359985)">
                            <g id="Group-13" transform="translate(0.000000, 5.200015)">
                                <path d="M18.8699972,8.91276687 C17.9889229,3.82454693 14.9580214,0.610107422 10.1065289,0.610107422 C4.61063902,0.610107422 0.611917459,4.35843097 0.611917459,10.444709 C0.611917459,13.1031464 1.59733145,15.9952725 3.40094046,17.8113934 L3.57993974,25.3899536 L12.4218923,25.2323815 L11.7877453,20.5389307 C12.6727973,20.6354874 13.0716444,20.6670629 13.9427742,20.6241996 C18.189035,20.4169001 17.5951245,19.0530552 18.789677,14.4137554 L21.228045,12.4618754 L18.8699972,8.91276687 Z" id="Fill-1" fill="#FFFFFF"></path>
                                <path d="M10.1065748,1.22030637 C4.79366196,1.22030637 1.22392671,4.92729203 1.22392671,10.4447547 C1.22392671,13.1015142 2.2244868,15.7596466 3.83578632,17.3820439 C3.94578673,17.4927867 4.00912494,17.6412065 4.01279672,17.7971006 L4.17741486,24.769016 L11.723688,24.6346297 L11.1813355,20.6204319 C11.156245,20.4343352 11.2183593,20.2471707 11.3497784,20.112937 C11.4811975,19.9783982 11.6675404,19.9123491 11.8543422,19.9323317 C12.7842205,20.0339222 13.0865304,20.0554301 13.9126809,20.0148549 C16.9481722,19.8665877 17.0619974,19.3417034 17.6938495,16.4282219 C17.8304703,15.7982388 17.9852971,15.084207 18.1968834,14.2621781 C18.2299294,14.134351 18.303365,14.02071 18.4064808,13.9380343 L20.4094369,12.3345517 L18.3598186,9.24976973 C18.3130034,9.17929703 18.2814873,9.09982458 18.2669532,9.01653867 C17.3964353,3.98902898 14.4983299,1.22030637 10.1065748,1.22030637 M3.57967965,26 C3.24814851,26 2.9759778,25.7361087 2.96802228,25.4041854 L2.79468366,18.0626698 C1.06573419,16.2096346 0,13.3173559 0,10.4447547 C0,4.19739629 4.0616008,0 10.1065748,0 C15.0516977,0 18.4516131,3.16242395 19.4504903,8.68156457 L21.7381623,12.1248115 C21.9128779,12.3877875 21.8578012,12.7399985 21.61118,12.9375356 L19.3325344,14.761741 C19.1515462,15.480349 19.0132425,16.1181116 18.8900849,16.6861642 C18.2418627,19.6753046 17.9459784,21.0397597 13.9728063,21.2336359 C13.3467678,21.2642961 12.9496036,21.2569742 12.4975157,21.2215853 L13.0283939,25.1509718 C13.0518015,25.3236452 12.9999376,25.4978439 12.8861124,25.6299421 C12.7724402,25.7620403 12.6075161,25.8393772 12.4328005,25.8424279 L3.59084798,26 C3.5871762,26 3.58335143,26 3.57967965,26" id="Fill-3" fill="#515151"></path>
                                <line x1="9.46600219" y1="11.9538466" x2="6.09959176" y2="16.1788523" id="Fill-5" fill="#FFFFFF"></line>
                                <path d="M6.09914809,16.7890513 C5.96574008,16.7890513 5.83141412,16.7458829 5.71881287,16.656648 C5.4542917,16.4470604 5.41007735,16.0631215 5.62043976,15.7993828 L8.98685018,11.5742245 C9.19705959,11.3104858 9.58198454,11.2664023 9.8466587,11.4761424 C10.1113328,11.68573 10.1553942,12.0696689 9.9451848,12.3334076 L6.57862138,16.5584134 C6.45791161,16.7100364 6.2793713,16.7890513 6.09914809,16.7890513" id="Fill-7" fill="#515151"></path>
                                <line x1="6.09953057" y1="16.1788981" x2="8.7560635" y2="20.6411009" id="Fill-9" fill="#FFFFFF"></line>
                                <path d="M8.75669076,21.2513913 C8.54770528,21.2513913 8.34422746,21.1446145 8.2299433,20.9525688 L5.57325738,16.490366 C5.40068371,16.2005433 5.49660897,15.8262143 5.78713857,15.6543036 C6.07797416,15.4822404 6.45326069,15.5777294 6.62568136,15.8673996 L9.28236728,20.3296024 C9.45478796,20.6194252 9.35916869,20.9937541 9.06848609,21.1656648 C8.97057195,21.2236294 8.8628664,21.2513913 8.75669076,21.2513913" id="Fill-11" fill="#515151"></path>
                            </g>
                            <g id="Group-16" transform="translate(5.200000, 20.280015)">
                                <mask id="mask-2" fill="white">
                                    <use xlink:href="#path-1"></use>
                                </mask>
                                <g id="Clip-15"></g>
                                <path d="M0,1.03992949 C0,1.61433046 0.465560076,2.08 1.04,2.08 L1.04,2.08 C1.61443992,2.08 2.08,1.61433046 2.08,1.03992949 L2.08,1.03992949 C2.08,0.465669537 1.61443992,0 1.04,0 L1.04,0 C0.465560076,0 0,0.465669537 0,1.03992949" id="Fill-14" mask="url(#mask-2)"></path>
                            </g>
                            <g id="Group-21" transform="translate(5.059592, 20.280015)">
                                <line x1="3.68251939" y1="5.84161877" x2="0.758211207" y2="10.7983284" id="Fill-17" fill="#FFFFFF"></line>
                                <path d="M0.757670641,10.92 C0.647704051,10.92 0.536192986,10.8919219 0.43564769,10.8332667 C0.144668679,10.6636222 0.0532357833,10.3015473 0.23146815,10.0245886 L3.15562188,5.48093815 C3.3340087,5.20412652 3.71425834,5.11695217 4.00523735,5.28674369 C4.29621636,5.4563882 4.38749481,5.81846311 4.20941689,6.09542174 L1.28510871,10.6390722 C1.16850088,10.8200362 0.96555692,10.92 0.757670641,10.92" id="Fill-19" fill="#515151"></path>
                                <circle id="Oval" fill="#515151" cx="1.04" cy="1.04" r="1.04"></circle>
                                <circle id="Oval-Copy" fill="#515151" cx="3.64" cy="5.72" r="1.04"></circle>
                            </g>
                            <g id="Group-27" transform="translate(8.320000, 11.960015)">
                                <mask id="mask-4" fill="white">
                                    <use xlink:href="#path-3"></use>
                                </mask>
                                <g id="Clip-26"></g>
                                <path d="M0,1.03985896 C0,1.61443992 0.465560076,2.08 1.04,2.08 L1.04,2.08 C1.61429889,2.08 2.08,1.61443992 2.08,1.03985896 L2.08,1.03985896 C2.08,0.465560076 1.61429889,0 1.04,0 L1.04,0 C0.465560076,0 0,0.465560076 0,1.03985896" id="Fill-25" mask="url(#mask-4)"></path>
                            </g>
                            <g id="Group-30" transform="translate(4.160000, 0.520015)">
                                <mask id="mask-6" fill="white">
                                    <use xlink:href="#path-5"></use>
                                </mask>
                                <g id="Clip-29"></g>
                                <path d="M0,5.38803369 C0,6.32638978 0.243493105,7.2085623 0.670639085,7.97715945 L0.670639085,7.97715945 L0.670332997,7.97715945 C0.670332997,7.97715945 0.67308779,7.9807842 0.674465187,7.98365379 L0.674465187,7.98365379 C0.754507232,8.12698228 0.840671039,8.26713912 0.93372183,8.402614 L0.93372183,8.402614 C1.5518668,9.41225675 3.04909687,11.9157479 3.0405264,12.48 L3.0405264,12.48 L5.45969391,12.48 L5.46015304,12.48 L7.87962664,12.48 C7.870444,11.9166541 9.36568449,9.4158815 9.98490077,8.40487947 L9.98490077,8.40487947 C10.079482,8.26713912 10.1673293,8.12411269 10.2492079,7.97761255 L10.2492079,7.97761255 L10.2492079,7.97715945 C10.6766599,7.2085623 10.92,6.32638978 10.92,5.38803369 L10.92,5.38803369 C10.92,2.41226837 8.47573327,0 5.46015304,0 L5.46015304,0 C2.44472587,0 0,2.41226837 0,5.38803369" id="Fill-28" mask="url(#mask-6)"></path>
                            </g>
                            <g id="Group-53" transform="translate(3.640000, 0.000000)">
                                <g id="Group-33" transform="translate(0.000000, 0.000015)">
                                    <mask id="mask-8" fill="white">
                                        <use xlink:href="#path-7"></use>
                                    </mask>
                                    <g id="Clip-32"></g>
                                    <path d="M4.06644823,12.4907577 L7.89656619,12.4907577 C8.10395806,11.9285882 8.62364351,10.8551908 9.92014417,8.70401222 C9.9254194,8.69539602 9.93099607,8.68677982 9.93672346,8.67816361 C10.0167562,8.55950188 10.0946789,8.43131697 10.1686828,8.29693444 C10.551363,7.59690578 10.7542333,6.80119191 10.7542333,5.99731533 C10.7542333,3.35712948 8.61264089,1.20927647 5.98015072,1.20927647 C3.34750983,1.20927647 1.20576671,3.35712948 1.20576671,5.99731533 C1.20576671,6.80013378 1.40788336,7.59448719 1.79026212,8.29496934 C1.79192005,8.29769025 1.79327654,8.30041116 1.79478375,8.30313206 L1.79493447,8.30313206 C1.86758191,8.43509601 1.94369594,8.56025769 2.02146789,8.67529155 C2.027346,8.68390775 2.03307339,8.69282627 2.03849934,8.70189596 C3.34208388,10.8662256 3.86086501,11.9326696 4.06644823,12.4907577 M8.36274574,13.7000492 L3.59725426,13.7000492 C3.43568152,13.7000492 3.28104194,13.6350498 3.16785059,13.5198648 C3.05842726,13.4084588 2.99633028,13.2591113 2.9943709,13.103415 C2.96015727,12.8680566 2.50693971,11.8196008 1.01435125,9.34025076 C0.922260813,9.20314732 0.832581913,9.05606723 0.74757536,8.9024872 C0.739285714,8.88873151 0.731448231,8.87482466 0.724364351,8.86046432 C0.250347313,7.98629767 0,6.99664367 0,5.99731533 C0,2.69035634 2.68268021,-1.51161446e-05 5.98015072,-1.51161446e-05 C9.27747051,-1.51161446e-05 11.96,2.69035634 11.96,5.99731533 C11.96,7.00405058 11.7058847,8.000658 11.2250852,8.87951066 C11.1361599,9.04155574 11.0419594,9.1969497 10.944443,9.34236702 C9.64357143,11.5017083 9.00873526,12.8009409 8.96547837,13.1028104 C8.96366972,13.2586578 8.90172346,13.4080053 8.79230013,13.5195625 C8.67910878,13.6348987 8.52431848,13.7000492 8.36274574,13.7000492" id="Fill-31" fill="#515151" mask="url(#mask-8)"></path>
                                </g>
                                <path d="M5.94861992,7.43129329 C5.61567759,7.43129329 5.34573657,7.16056314 5.34573657,6.8266475 L5.34573657,4.25765869 C5.34573657,3.92374305 5.61567759,3.6530129 5.94861992,3.6530129 C6.28156225,3.6530129 6.55150328,3.92374305 6.55150328,4.25765869 L6.55150328,6.8266475 C6.55150328,7.16056314 6.28156225,7.43129329 5.94861992,7.43129329" id="Fill-34" fill="#FFFFFF"></path>
                                <path d="M6.64650262,8.86732705 C6.64650262,9.25399803 6.33435976,9.56690223 5.94866514,9.56690223 C5.56342267,9.56690223 5.25067693,9.25399803 5.25067693,8.86732705 C5.25067693,8.48035374 5.56342267,8.1668449 5.94866514,8.1668449 C6.33435976,8.1668449 6.64650262,8.48035374 6.64650262,8.86732705" id="Fill-36" fill="#FFFFFF"></path>
                                <g id="Group-40">
                                    <path d="M5.72,0.520015116 C1.94162794,2.01378288 0.281030811,3.98055167 0.738208618,6.42032148 C1.19538643,8.8600913 2.20251414,10.9762071 3.75959176,12.7686688 L8.22754242,11.9169484 L11.0121164,7.85544602 C11.781477,5.07908962 11.2462148,3.11079515 9.40632996,1.9505626 C7.56644507,0.790330058 6.33766841,0.313480896 5.72,0.520015116 Z" id="Path-6" fill="url(#linearGradient-9)"></path>
                                    <path d="M4.06644823,12.4907728 L7.89656619,12.4907728 C8.10395806,11.9286033 8.62364351,10.8552059 9.92014417,8.70402734 C9.9254194,8.69541114 9.93099607,8.68679493 9.93672346,8.67817873 C10.0167562,8.55951699 10.0946789,8.43133209 10.1686828,8.29694956 C10.551363,7.59692089 10.7542333,6.80120703 10.7542333,5.99733045 C10.7542333,3.3571446 8.61264089,1.20929158 5.98015072,1.20929158 C3.34750983,1.20929158 1.20576671,3.3571446 1.20576671,5.99733045 C1.20576671,6.8001489 1.40788336,7.59450231 1.79026212,8.29498446 C1.79192005,8.29770537 1.79327654,8.30042627 1.79478375,8.30314718 L1.79493447,8.30314718 C1.86758191,8.43511112 1.94369594,8.5602728 2.02146789,8.67530666 C2.027346,8.68392287 2.03307339,8.69284139 2.03849934,8.70191108 C3.34208388,10.8662407 3.86086501,11.9326847 4.06644823,12.4907728 M8.36274574,13.7000644 L3.59725426,13.7000644 C3.43568152,13.7000644 3.28104194,13.6350649 3.16785059,13.5198799 C3.05842726,13.4084739 2.99633028,13.2591264 2.9943709,13.1034301 C2.96015727,12.8680717 2.50693971,11.8196159 1.01435125,9.34026587 C0.922260813,9.20316244 0.832581913,9.05608235 0.74757536,8.90250232 C0.739285714,8.88874663 0.731448231,8.87483977 0.724364351,8.86047944 C0.250347313,7.98631278 0,6.99665878 0,5.99733045 C0,2.69037145 2.68268021,0 5.98015072,0 C9.27747051,0 11.96,2.69037145 11.96,5.99733045 C11.96,7.00406569 11.7058847,8.00067312 11.2250852,8.87952578 C11.1361599,9.04157085 11.0419594,9.19696482 10.944443,9.34238213 C9.64357143,11.5017234 9.00873526,12.8009561 8.96547837,13.1028255 C8.96366972,13.2586729 8.90172346,13.4080204 8.79230013,13.5195776 C8.67910878,13.6349138 8.52431848,13.7000644 8.36274574,13.7000644" id="Fill-38" fill="#515151"></path>
                                    <rect id="Rectangle" fill="#FFFFFF" x="5.33" y="3.12001512" width="1.3" height="4.68" rx="0.65"></rect>
                                    <circle id="Oval" fill="#FFFFFF" cx="5.98" cy="9.1" r="1"></circle>
                                </g>
                                <path d="M9.18314941,12.6871013 C9.27554128,13.1966665 8.93852949,13.6853715 8.43029882,13.7781846 L3.86421101,14.610933 C3.35613106,14.7038973 2.86915203,14.365598 2.77676016,13.8558816 C2.68421756,13.3464675 3.02138008,12.858216 3.52946003,12.7655541 L8.09554784,11.932201 C8.60377851,11.8396902 9.09075754,12.177536 9.18314941,12.6871013" id="Fill-41" fill="#FFFFFF"></path>
                                <path d="M8.26388794,12.5216248 C8.24384207,12.5216248 8.22349476,12.5234388 8.20329817,12.5270666 L3.6375118,13.3604197 C3.55009371,13.3762917 3.47413041,13.4254191 3.42363893,13.4985813 C3.37314744,13.5717434 3.3540059,13.6601729 3.36983159,13.7475442 C3.40238729,13.9263682 3.57571625,14.0494136 3.75597837,14.0161581 L8.32251835,13.1832585 C8.40978571,13.1672354 8.4855983,13.1181079 8.5362405,13.0449458 C8.5868827,12.9716325 8.60587353,12.8830518 8.59004784,12.7953782 C8.56126016,12.6368098 8.42410419,12.5216248 8.26388794,12.5216248 M3.69553932,15.2308915 C2.9526363,15.2308915 2.31674509,14.6980474 2.18365858,13.9641585 C2.10995609,13.5588947 2.19827851,13.149096 2.43219725,12.810192 C2.66611599,12.4715904 3.01744626,12.2443947 3.42167955,12.1706279 L7.98761664,11.3372749 C8.07895347,11.3207983 8.17179751,11.3123332 8.26388794,11.3123332 C9.0070924,11.3123332 9.64313434,11.844875 9.77637156,12.578915 C9.84977261,12.98433 9.7614502,13.3939775 9.5278329,13.7330327 C9.29391415,14.0719366 8.94243316,14.2992835 8.53819987,14.3730502 L3.97211206,15.2057987 C3.88107667,15.2224264 3.78793119,15.2308915 3.69553932,15.2308915" id="Fill-43" fill="#515151"></path>
                                <path d="M7.09219921,17.000085 C7.09219921,17.6159168 6.59421756,18.1153542 5.98003014,18.1153542 C5.36569201,18.1153542 4.86786107,17.6159168 4.86786107,17.000085 C4.86786107,16.3837998 5.36569201,15.8843624 5.98003014,15.8843624 C6.59421756,15.8843624 7.09219921,16.3837998 7.09219921,17.000085" id="Fill-45" fill="#FFFFFF"></path>
                                <path d="M5.97996986,16.4890233 C5.69917693,16.4890233 5.47068414,16.7183352 5.47068414,17.0001002 C5.47068414,17.2815628 5.69917693,17.5107235 5.97996986,17.5107235 C6.26076278,17.5107235 6.48925557,17.2815628 6.48925557,17.0001002 C6.48925557,16.7183352 6.26076278,16.4890233 5.97996986,16.4890233 M5.97996986,18.7200151 C5.03434731,18.7200151 4.26491743,17.9483359 4.26491743,17.0001002 C4.26491743,16.0514109 5.03434731,15.2797317 5.97996986,15.2797317 C6.9255924,15.2797317 7.69502228,16.0514109 7.69502228,17.0001002 C7.69502228,17.9483359 6.9255924,18.7200151 5.97996986,18.7200151" id="Fill-47" fill="#515151"></path>
                                <path d="M9.18314941,14.6489652 C9.27554128,15.1585305 8.93852949,15.6469331 8.43029882,15.7398974 L3.86421101,16.5724947 C3.35613106,16.6653078 2.86915203,16.3274619 2.77676016,15.8175944 C2.68421756,15.307878 3.02138008,14.8197777 3.52946003,14.7272669 L8.09554784,13.8939138 C8.60377851,13.801403 9.09075754,14.1392488 9.18314941,14.6489652" id="Fill-49" fill="#FFFFFF"></path>
                                <path d="M8.26388794,14.4833376 C8.24384207,14.4833376 8.22349476,14.4851516 8.20329817,14.4887794 L3.6375118,15.3222837 C3.54994299,15.3381556 3.47397969,15.3871319 3.42363893,15.4602941 C3.37314744,15.533305 3.3540059,15.6217345 3.36998231,15.7094081 C3.40238729,15.8879298 3.57511337,16.0112775 3.75643054,15.9777197 L8.32251835,15.1449713 C8.50262975,15.1120181 8.62275426,14.9380313 8.59004784,14.7572422 C8.56126016,14.5985227 8.42395347,14.4833376 8.26388794,14.4833376 M3.69584076,17.1926043 C2.9526363,17.1926043 2.31674509,16.6597602 2.18365858,15.9258713 C2.10995609,15.5204563 2.19827851,15.1105065 2.43234797,14.7717537 C2.66611599,14.4330009 3.01759699,14.2059564 3.42183028,14.1324919 L7.98761664,13.2989877 C8.07895347,13.2825111 8.17179751,13.274046 8.26388794,13.274046 C9.0070924,13.274046 9.64313434,13.806739 9.77637156,14.540779 C9.92799672,15.3774576 9.37274115,16.1822411 8.53835059,16.334763 L3.97211206,17.1675115 C3.88092595,17.1841392 3.78808191,17.1926043 3.69584076,17.1926043" id="Fill-51" fill="#515151"></path>
                            </g>
                        </g>
                    </g>
                </g>
            </g>
        </g>
    </g>
</svg>