<?xml version="1.0" encoding="UTF-8"?>
<svg width="52px" height="52px" viewBox="0 0 52 52" version="1.1" xmlns="http://www.w3.org/2000/svg" xmlns:xlink="http://www.w3.org/1999/xlink">
    <title>DEED985C-55F8-4A8F-BDE3-8F18F82EB94F</title>
    <defs>
        <linearGradient x1="50%" y1="0%" x2="50%" y2="100%" id="linearGradient-1">
            <stop stop-color="#44F3AC" offset="0%"></stop>
            <stop stop-color="#08D9D0" offset="100%"></stop>
        </linearGradient>
        <path d="M0,4.55737037 L0,7.8 L9.36,7.8 L9.36,4.55737037 C9.36,2.04046739 7.26462775,0 4.68,0 L4.68,0 C2.09537225,0 0,2.04046739 0,4.55737037" id="path-2"></path>
        <polygon id="path-4" points="0 0 10.040737 0 10.040737 10.0725425 0 10.0725425"></polygon>
        <path d="M0.306047464,0.118787414 L0.969973011,1.73862938 L0,7.34001628 L1.55941926,9.36 L3.12,7.34001628 L2.15002699,1.73862938 L2.81467846,0.118787414 C2.40598604,0.0452736938 1.98872778,0 1.55941926,0 L1.55941926,0 C1.13156259,0 0.714159144,0.0452736938 0.306047464,0.118787414" id="path-6"></path>
        <linearGradient x1="50%" y1="0%" x2="50%" y2="100%" id="linearGradient-8">
            <stop stop-color="#44F3AC" offset="0%"></stop>
            <stop stop-color="#08D9D0" offset="100%"></stop>
        </linearGradient>
    </defs>
    <g id="학습현황" stroke="none" stroke-width="1" fill="none" fill-rule="evenodd">
        <g id="나의-학습현황&gt;Foundation-Skills" transform="translate(-20.000000, -741.000000)">
            <g id="List_Header" transform="translate(0.000000, 140.000000)">
                <g id="Total" transform="translate(20.000000, 9.000000)">
                    <g id="icon_52px_fs_03" transform="translate(0.000000, 592.000000)">
                        <circle id="Oval" fill="#EEEEEE" cx="26" cy="26" r="26"></circle>
                        <g id="Group-37" transform="translate(10.920000, 12.480000)">
                            <g id="Group-5" transform="translate(1.560000, 7.800000)">
                                <path d="M7.2306827,3.89964414 C7.2306827,5.7392923 5.73934923,7.23062576 3.89984342,7.23062576 C2.06047995,7.23062576 0.56928883,5.7392923 0.56928883,3.89964414 C0.56928883,2.06042302 2.06047995,0.569374236 3.89984342,0.569374236 C5.73934923,0.569374236 7.2306827,2.06042302 7.2306827,3.89964414" id="Fill-1" fill="#FFFFFF"></path>
                                <path d="M3.89978648,1.13874847 C2.37727978,1.13874847 1.13874847,2.37727978 1.13874847,3.89964414 C1.13874847,5.42243553 2.37727978,6.66125153 3.89978648,6.66125153 C5.42243553,6.66125153 6.66125153,5.42243553 6.66125153,3.89964414 C6.66125153,2.37727978 5.42243553,1.13874847 3.89978648,1.13874847 M3.89978648,7.8 C1.74940234,7.8 0,6.05031297 0,3.89964414 C0,1.74940234 1.74940234,0 3.89978648,0 C6.05031297,0 7.8,1.74940234 7.8,3.89964414 C7.8,6.05031297 6.05031297,7.8 3.89978648,7.8" id="Fill-3" fill="#515151"></path>
                            </g>
                            <g id="Group-8" transform="translate(0.511312, 15.049200)">
                                <path d="M0.00868750873,7.77014328 C-0.131651548,2.26391414 1.42829986,-0.315867098 4.68854172,0.0307995687 C6.56164538,0.314437195 7.56877782,0.661103862 7.70993904,1.07079957 C7.85110025,1.48049528 7.73028168,3.71360985 7.34748332,7.77014328 L0.00868750873,7.77014328 Z" id="Path-5" fill="url(#linearGradient-1)"></path>
                                <path d="M0.00868750873,4.58816993 L0.00868750873,7.83079957 L9.36868751,7.83079957 L9.36868751,4.58816993 C9.36868751,2.07126696 7.27310419,0.0307995687 4.68854172,0.0307995687 L4.68854172,0.0307995687 C2.10383345,0.0307995687 0.00868750873,2.07126696 0.00868750873,4.58816993" id="Fill-6"></path>
                            </g>
                            <g id="Group-15" transform="translate(0.000000, 7.280000)">
                                <path d="M1.04,15.08 L9.36,15.08 L9.36,12.3668987 C9.36,10.1353585 7.49369204,8.32 5.19985196,8.32 C2.90601189,8.32 1.04,10.1353585 1.04,12.3668987 L1.04,15.08 Z M9.82383867,16.12 L0.576161325,16.12 C0.257976233,16.12 0,15.8684599 0,15.558213 L0,12.3504089 C0,9.55453529 2.33258912,7.28 5.19985596,7.28 C8.06726683,7.28 10.4,9.55453529 10.4,12.3504089 L10.4,15.558213 C10.4,15.8684599 10.1420238,16.12 9.82383867,16.12 L9.82383867,16.12 Z" id="Fill-9" fill="#515151"></path>
                                <path d="M28.0254949,4.02429686 C28.0254949,5.92274964 26.5207156,7.46175381 24.6644476,7.46175381 C22.8081797,7.46175381 21.3034004,5.92274964 21.3034004,4.02429686 C21.3034004,2.12628475 22.8081797,0.587574369 24.6644476,0.587574369 C26.5207156,0.587574369 28.0254949,2.12628475 28.0254949,4.02429686" id="Fill-11" fill="#FFFFFF"></path>
                                <path d="M24.6643902,1.17514874 C23.1280099,1.17514874 21.8780491,2.45326989 21.8780491,4.02429686 C21.8780491,5.59576451 23.1280099,6.87417944 24.6643902,6.87417944 C26.2009141,6.87417944 27.4508749,5.59576451 27.4508749,4.02429686 C27.4508749,2.45326989 26.2009141,1.17514874 24.6643902,1.17514874 M24.6643902,8.04932818 C22.4944111,8.04932818 20.728924,6.24371214 20.728924,4.02429686 C20.728924,1.80532225 22.4944111,0 24.6643902,0 C26.8345129,0 28.6,1.80532225 28.6,4.02429686 C28.6,6.24371214 26.8345129,8.04932818 24.6643902,8.04932818" id="Fill-13" fill="#515151"></path>
                            </g>
                            <g id="Group-18" transform="translate(20.280000, 15.080000)">
                                <mask id="mask-3" fill="white">
                                    <use xlink:href="#path-2"></use>
                                </mask>
                                <g id="Clip-17"></g>
                                <path d="M0,4.55737037 L0,7.8 L9.36,7.8 L9.36,4.55737037 C9.36,2.04046739 7.26462775,0 4.68,0 L4.68,0 C2.09537225,0 0,2.04046739 0,4.55737037" id="Fill-16" mask="url(#mask-3)"></path>
                            </g>
                            <g id="Group-31" transform="translate(7.280000, 0.000000)">
                                <g id="Group-21" transform="translate(12.432737, 14.263768)">
                                    <path d="M2.12726289,8.55557556 C1.98692383,3.04934642 3.54687524,0.469565181 6.8071171,0.816231848 C8.68022077,1.09986947 9.68735321,1.44653614 9.82851442,1.85623185 C9.96967563,2.26592755 9.84885706,4.49904212 9.4660587,8.55557556 L2.12726289,8.55557556 Z" id="Path-5" fill="url(#linearGradient-1)" transform="translate(6.002068, 4.670504) scale(-1, 1) translate(-6.002068, -4.670504) "></path>
                                    <path d="M1.15753374,7.97500636 L9.28978703,7.97500636 L9.28978703,5.24032033 C9.28978703,2.99102656 7.46565855,1.16122549 5.22366038,1.16122549 C2.98166222,1.16122549 1.15753374,2.99102656 1.15753374,5.24032033 L1.15753374,7.97500636 Z M9.8685539,9.13623185 L0.57876687,9.13623185 C0.259142866,9.13623185 0,8.87626249 0,8.5556191 L0,5.24032033 C0,2.35075585 2.34328236,0 5.22366038,0 C8.1040384,0 10.4473208,2.35075585 10.4473208,5.24032033 L10.4473208,8.5556191 C10.4473208,8.87626249 10.1881779,9.13623185 9.8685539,9.13623185 L9.8685539,9.13623185 Z" id="Fill-19" fill="#515151"></path>
                                </g>
                                <path d="M12.2722306,5.03598819 C12.2722306,7.49706046 10.2835876,9.49204585 7.83033955,9.49204585 C5.37709148,9.49204585 3.38888259,7.49706046 3.38888259,5.03598819 C3.38888259,2.57520622 5.37709148,0.580511138 7.83033955,0.580511138 C10.2835876,0.580511138 12.2722306,2.57520622 12.2722306,5.03598819" id="Fill-22" fill="#FFFFFF"></path>
                                <g id="Group-26" transform="translate(2.810217, 0.000000)">
                                    <mask id="mask-5" fill="white">
                                        <use xlink:href="#path-4"></use>
                                    </mask>
                                    <g id="Clip-25"></g>
                                    <path d="M5.02007914,1.00522549 C2.89021706,1.00522549 1.15753374,2.7434349 1.15753374,4.8800898 C1.15753374,7.017035 2.89021706,8.75538956 5.02007914,8.75538956 C7.1502306,8.75538956 8.8832033,7.017035 8.8832033,4.8800898 C8.8832033,2.7434349 7.1502306,1.00522549 5.02007914,1.00522549 M5.02007914,9.91661505 C2.25198189,9.91661505 1.48716595e-13,7.65730571 1.48716595e-13,4.8800898 C1.48716595e-13,2.10316419 2.25198189,-0.156 5.02007914,-0.156 C7.78846577,-0.156 10.040737,2.10316419 10.040737,4.8800898 C10.040737,7.65730571 7.78846577,9.91661505 5.02007914,9.91661505" id="Fill-24" fill="#515151" mask="url(#mask-5)"></path>
                                </g>
                                <path d="M15.0826936,16.7671816 C15.0826936,12.7493414 11.8356667,9.49195876 7.83031061,9.49195876 C3.82538856,9.49195876 0.578795808,12.7493414 0.578795808,16.7671816 L0.578795808,22.8193437 L15.0826936,22.8193437 L15.0826936,16.7671816 Z" id="Fill-27" fill="#FFFFFF"></path>
                                <path d="M1.15753374,22.2387745 L14.5038978,22.2387745 L14.5038978,16.7672252 C14.5038978,13.0756893 11.5100814,10.0726151 7.83028167,10.0726151 C4.15091599,10.0726151 1.15753374,13.0756893 1.15753374,16.7672252 L1.15753374,22.2387745 Z M15.0826646,23.4 L0.57876687,23.4 C0.259142866,23.4 0,23.1400306 0,22.8193873 L0,16.7672252 C0,12.4354186 3.51268083,8.91138956 7.83028167,8.91138956 C12.1484613,8.91138956 15.6614315,12.4354186 15.6614315,16.7672252 L15.6614315,22.8193873 C15.6614315,23.1400306 15.4022886,23.4 15.0826646,23.4 L15.0826646,23.4 Z" id="Fill-29" fill="#515151"></path>
                            </g>
                            <g id="Group-34" transform="translate(13.520000, 10.400000)">
                                <mask id="mask-7" fill="white">
                                    <use xlink:href="#path-6"></use>
                                </mask>
                                <g id="Clip-33"></g>
                                <path d="M0.306047464,0.118787414 L0.969973011,1.73862938 L0,7.34001628 L1.55941926,9.36 L3.12,7.34001628 L2.15002699,1.73862938 L2.81467846,0.118787414 C2.40598604,0.0452736938 1.98872778,0 1.55941926,0 L1.55941926,0 C1.13156259,0 0.714159144,0.0452736938 0.306047464,0.118787414" id="Fill-32" mask="url(#mask-7)"></path>
                            </g>
                            <polygon id="Path-4" stroke="#515151" stroke-width="1.5" fill="url(#linearGradient-8)" points="13.6705783 9.49195876 14.3068713 11.0000618 13.4967239 16.7436949 15.2274541 18.8318841 16.9581842 16.7436949 16.0101617 11.0000618 16.64 9.49195876"></polygon>
                            <path d="M8.43299335,22.2330528 L21.7270067,22.2330528 L21.7270067,16.7345436 C21.7270067,13.0248185 18.7449335,10.0069472 15.0795676,10.0069472 C11.4146341,10.0069472 8.43299335,13.0248185 8.43299335,16.7345436 L8.43299335,22.2330528 Z M22.3035033,23.4 L7.85649667,23.4 C7.53812639,23.4 7.28,23.1387497 7.28,22.8165264 L7.28,16.7345436 C7.28,12.381393 10.7789024,8.84 15.0795676,8.84 C19.3808093,8.84 22.88,12.381393 22.88,16.7345436 L22.88,22.8165264 C22.88,23.1387497 22.6218736,23.4 22.3035033,23.4 L22.3035033,23.4 Z" id="Fill-35" fill="#515151"></path>
                        </g>
                    </g>
                </g>
            </g>
        </g>
    </g>
</svg>