<?xml version="1.0" encoding="UTF-8"?>
<svg width="52px" height="52px" viewBox="0 0 52 52" version="1.1" xmlns="http://www.w3.org/2000/svg" xmlns:xlink="http://www.w3.org/1999/xlink">
    <title>04ECAD00-8FE1-4CF3-812E-B5B465DD6308</title>
    <defs>
        <polygon id="path-1" points="0 0 32.76 0 32.76 6.45449453 0 6.45449453"></polygon>
        <polygon id="path-3" points="-2.20361868e-16 0 16.9042133 0 16.9042133 23.6390064 -2.20361868e-16 23.6390064"></polygon>
        <polygon id="path-5" points="7.86052913 2.99876827 1.51060267e-16 16.2468727 4.40010709 18.72 12.2609764 5.47106808 14.04 2.47213431 9.63972283 0"></polygon>
        <linearGradient x1="50%" y1="0%" x2="50%" y2="100%" id="linearGradient-7">
            <stop stop-color="#44F3AC" offset="0%"></stop>
            <stop stop-color="#08D9D0" offset="100%"></stop>
        </linearGradient>
        <polygon id="path-8" points="0 0 5.82282516 0 5.82282516 6.73627278 0 6.73627278"></polygon>
    </defs>
    <g id="학습현황" stroke="none" stroke-width="1" fill="none" fill-rule="evenodd">
        <g id="나의-학습현황&gt;Foundation-Skills" transform="translate(-20.000000, -482.000000)">
            <g id="List_Header" transform="translate(0.000000, 140.000000)">
                <g id="Total" transform="translate(20.000000, 9.000000)">
                    <g id="icon_52px_fs_02" transform="translate(0.000000, 333.000000)">
                        <circle id="Oval" fill="#EEEEEE" cx="26" cy="26" r="26"></circle>
                        <g id="Group-21" transform="translate(9.880000, 11.440000)">
                            <g id="Group-9">
                                <g id="Group-3" transform="translate(0.000000, 21.625505)">
                                    <mask id="mask-2" fill="white">
                                        <use xlink:href="#path-1"></use>
                                    </mask>
                                    <g id="Clip-2"></g>
                                    <path d="M15.3447239,6.45449453 C14.0107439,6.45449453 12.3854881,6.40002941 10.401968,6.27802091 C5.50056303,5.97639338 0.629096069,5.37628372 0.580467409,5.37032401 C0.217737305,5.32546064 -0.0397961072,4.9948623 0.00502826957,4.63181665 C0.05001805,4.26893655 0.382148488,4.01250348 0.742893749,4.05604247 C0.788710547,4.06167109 5.38263026,4.62751241 10.1126771,4.93278199 C18.248715,5.45822973 19.8331162,4.76955216 20.1230687,4.55533371 C20.0279616,4.39905688 19.6503452,3.95290639 18.1909892,3.16407259 C17.1679679,2.61114397 16.1614869,1.92677063 16.4524319,1.04291258 C16.6987179,0.294803461 17.5490578,-0.38228578 24.8403795,0.250933376 C28.5058887,0.569281202 32.1551885,1.08678266 32.1915773,1.09191463 C32.5533149,1.14356545 32.8048938,1.47879912 32.7532879,1.84085149 C32.7020128,2.2027383 32.3664089,2.45453604 32.0051674,2.40305077 C31.9722521,2.39841544 28.6699691,1.93024713 25.2145224,1.61405142 C20.4054126,1.17402619 18.6223618,1.32434331 17.97001,1.47068729 C18.1354136,1.59683448 18.4000593,1.77198373 18.8198537,1.99878379 C20.3132828,2.80599336 21.790337,3.78735889 21.4209908,4.94486696 C21.1651114,5.74677901 20.1518489,6.45449453 15.3447239,6.45449453" id="Fill-1" fill="#515151" mask="url(#mask-2)"></path>
                                </g>
                                <path d="M5.34433932,22.9766509 L16.5203301,3.60246241 C16.7775327,3.15647747 16.6238727,2.58302096 16.1784408,2.3259257 L13.5161044,0.787823958 C13.0705071,0.529735419 12.4970528,0.683694586 12.2408426,1.12951398 L1.06468646,20.5032058" id="Fill-4" fill="#FFFFFF"></path>
                                <g id="Group-8" transform="translate(0.402965, 0.000000)">
                                    <mask id="mask-4" fill="white">
                                        <use xlink:href="#path-3"></use>
                                    </mask>
                                    <g id="Clip-7"></g>
                                    <path d="M4.94072909,23.6390064 C4.82842004,23.6390064 4.71478776,23.6103667 4.61058349,23.5501074 C4.2941664,23.3671775 4.18566163,22.9622483 4.36843262,22.6455559 L15.5444234,3.27136743 C15.5928866,3.18710376 15.5818046,3.10581994 15.5708879,3.06476416 C15.5598059,3.02387393 15.5288754,2.94805318 15.4450158,2.89954776 L12.7823486,1.36128047 C12.6978273,1.31227841 12.6164488,1.32353564 12.5755941,1.33446178 C12.5349048,1.34538791 12.4594807,1.37617974 12.4113483,1.45961568 L1.23469593,20.8343008 C1.05192494,21.1509932 0.647347728,21.2595923 0.330930633,21.0764968 C0.0145135376,20.8937324 -0.0939912269,20.4888032 0.088779756,20.1721109 L11.2649359,0.798418998 C11.4764871,0.430241376 11.8203612,0.166027579 12.2327124,0.0552763075 C12.6450636,-0.055309417 13.0754438,0.000976730201 13.4444592,0.214698542 L16.106134,1.75246919 C16.4746532,1.96486662 16.738472,2.30937095 16.8489616,2.7219153 C16.9594512,3.13445965 16.9030486,3.56455204 16.6903395,3.9335574 L5.51434879,23.3077459 C5.39178472,23.5201433 5.16931687,23.6390064 4.94072909,23.6390064" id="Fill-6" fill="#515151" mask="url(#mask-4)"></path>
                                </g>
                            </g>
                            <g id="Group-12" transform="translate(0.520000, 4.160000)">
                                <mask id="mask-6" fill="white">
                                    <use xlink:href="#path-5"></use>
                                </mask>
                                <g id="Clip-11"></g>
                                <polygon id="Fill-10" mask="url(#mask-6)" points="7.86052913 2.99876827 1.51060267e-16 16.2468727 4.40010709 18.72 12.2609764 5.47106808 14.04 2.47213431 9.63972283 0"></polygon>
                            </g>
                            <g id="Group-20" transform="translate(0.000000, 3.640000)">
                                <polygon id="Path-7" fill="url(#linearGradient-7)" points="10.1205325 1.07421783 1.06468646 16.5846147 5.37482635 19.24 14.56 3.25047211"></polygon>
                                <path d="M5.16889664,19.9168751 C5.0580003,19.9168751 4.94579737,19.8884251 4.84290385,19.828565 C4.53046687,19.6468468 4.42332696,19.2446 4.60379892,18.9300055 L13.5341396,3.35519359 L10.4401478,1.55659456 L1.50997052,17.1304198 C1.32949856,17.4450142 0.929683754,17.552894 0.61757342,17.3711758 C0.30513644,17.1894576 0.197996524,16.7872108 0.378468486,16.4726163 L9.63512856,0.329133348 C9.7218531,0.178003009 9.86459744,0.067820934 10.0318402,0.0225969479 C10.1989197,-0.0229559399 10.3775951,0.00105388548 10.527689,0.0883772913 L14.7531827,2.54477976 C15.0656197,2.72649796 15.1727596,3.12874476 14.992451,3.44333925 L5.73530095,19.5878089 C5.61427858,19.7987994 5.39460909,19.9168751 5.16889664,19.9168751" id="Fill-13" fill="#515151"></path>
                                <polygon id="Fill-15" fill="#FFFFFF" points="5.1695336 19.2589072 0.653324834 22.2223117 0.944203173 16.801518"></polygon>
                                <g id="Group-19" transform="translate(0.000000, 16.143727)">
                                    <mask id="mask-9" fill="white">
                                        <use xlink:href="#path-8"></use>
                                    </mask>
                                    <g id="Clip-18"></g>
                                    <path d="M1.53910735,1.76344327 L1.37513102,4.81976247 L3.92150057,3.14894175 L1.53910735,1.76344327 Z M0.653406496,6.73627278 C0.540713597,6.73627278 0.428020697,6.70716498 0.326760411,6.64812712 C0.113623841,6.52429562 -0.0122982251,6.29028205 0.000930941342,6.04294796 L0.29180928,0.622318762 C0.304058508,0.39389652 0.433247035,0.188332947 0.632991116,0.0794664787 C0.832571873,-0.0293999896 1.07428998,-0.0262754233 1.27093092,0.0880179233 L5.49626135,2.54557155 C5.69290229,2.6598649 5.81653784,2.86904639 5.82258079,3.09746863 C5.82878706,3.32605533 5.71642081,3.54148595 5.52631279,3.66630415 L1.01010402,6.62970862 C0.901820843,6.70058694 0.777695331,6.73627278 0.653406496,6.73627278 L0.653406496,6.73627278 Z" id="Fill-17" fill="#515151" mask="url(#mask-9)"></path>
                                </g>
                            </g>
                        </g>
                    </g>
                </g>
            </g>
        </g>
    </g>
</svg>